<?xml version="1.0" encoding="utf-8"?>
<!-- Generator: Adobe Illustrator 25.2.3, SVG Export Plug-In . SVG Version: 6.00 Build 0)  -->
<svg version="1.1" id="Layer_1" xmlns="http://www.w3.org/2000/svg" xmlns:xlink="http://www.w3.org/1999/xlink" x="0px" y="0px"
	 viewBox="0 0 74.2 72.6" style="enable-background:new 0 0 74.2 72.6;" xml:space="preserve">
<style type="text/css">
	.st0{fill:url(#SVGID_1_);}
	.st1{fill:url(#SVGID_2_);}
	.st2{fill:#462922;}
	.st3{fill:#EDA887;}
	.st4{fill:#D8967D;}
	.st5{fill:#D49974;}
	.st6{fill:#351E19;}
	.st7{opacity:0.2;}
	.st8{fill:#7C483C;}
	.st9{opacity:0.5;fill:url(#SVGID_3_);enable-background:new    ;}
	.st10{opacity:0.5;fill:url(#SVGID_4_);enable-background:new    ;}
	.st11{fill:none;stroke:#AF7D61;stroke-width:0.4;stroke-linecap:round;stroke-miterlimit:10;}
	
		.st12{opacity:0.2;fill:none;stroke:#7C483C;stroke-width:0.3988;stroke-linecap:round;stroke-miterlimit:10;enable-background:new    ;}
	.st13{fill:none;stroke:#353535;stroke-width:0.5;stroke-linecap:round;stroke-miterlimit:10;}
	.st14{fill:none;stroke:#353535;stroke-width:0.3056;stroke-linecap:round;stroke-miterlimit:10;}
	.st15{fill:none;stroke:#351E19;stroke-width:0.3038;stroke-linecap:round;stroke-miterlimit:10;}
	.st16{fill:none;stroke:url(#SVGID_5_);stroke-width:0.2073;stroke-linecap:round;stroke-linejoin:round;stroke-miterlimit:10;}
	.st17{fill:none;stroke:#9E4E48;stroke-width:0.2991;stroke-linecap:round;stroke-miterlimit:10;}
	.st18{fill:url(#SVGID_6_);}
	.st19{fill:url(#SVGID_7_);}
	.st20{fill:url(#SVGID_8_);}
	.st21{fill:url(#SVGID_9_);}
	.st22{fill:url(#SVGID_10_);}
	.st23{fill:url(#SVGID_11_);}
	.st24{fill:url(#SVGID_12_);}
	.st25{fill:url(#SVGID_13_);}
	.st26{fill:url(#SVGID_14_);}
	.st27{fill:url(#SVGID_15_);}
	.st28{fill:url(#SVGID_16_);}
	.st29{fill:url(#SVGID_17_);}
	.st30{opacity:0.8;fill:#9E4E48;enable-background:new    ;}
	.st31{fill:url(#SVGID_18_);}
	.st32{fill:none;stroke:#303030;stroke-width:0.1592;stroke-linecap:round;stroke-linejoin:round;stroke-miterlimit:10;}
	.st33{fill:url(#SVGID_19_);}
	.st34{fill:url(#SVGID_20_);}
	.st35{fill:url(#SVGID_21_);}
	.st36{fill:url(#SVGID_22_);}
	.st37{fill:url(#SVGID_23_);}
	.st38{fill:none;stroke:url(#SVGID_24_);stroke-width:0.1;stroke-linecap:round;stroke-miterlimit:10;}
	.st39{fill:none;stroke:url(#SVGID_25_);stroke-width:0.1;stroke-linecap:round;stroke-miterlimit:10;}
	.st40{fill:url(#SVGID_26_);}
	
		.st41{opacity:5.000000e-02;fill:none;stroke:#7C483C;stroke-width:0.4743;stroke-linecap:round;stroke-miterlimit:10;enable-background:new    ;}
	.st42{opacity:0.15;}
	.st43{fill:#2A2220;}
</style>
<linearGradient id="SVGID_1_" gradientUnits="userSpaceOnUse" x1="49.0446" y1="13.5232" x2="49.0446" y2="52.4165" gradientTransform="matrix(1 0 0 -1 0 63.8053)">
	<stop  offset="0" style="stop-color:#41001C"/>
	<stop  offset="0.2687" style="stop-color:#351E19"/>
</linearGradient>
<path class="st0" d="M55.8,47.6c0.1,0.7,0.1,1.4-0.4,2c-0.4,0.5-1.2,0.6-1.9,0.7c-2.4,0.1-4.8,0-7.2-0.4c-1.2-0.2-2.5-0.5-3.3-1.5
	c-1.2-1.4-0.7-3.5-0.4-5.3c0.3-1.4,0.4-2.9,0.5-4.3c0.1-1.5,0-3.1,0.8-4.5c0.7-1.1,1.8-1.8,2.7-2.8c1.7-1.8,2.3-4.2,3.1-6.4
	c0.3-0.8,1.9-14.4,3.4-13.7c0,0,0.6,11.5,0.7,12.1c0.1,1.5,0.3,3.1,0.4,4.6c0.3,3.1,0.5,6.2,0.8,9.3C55.3,40.9,55.5,44.2,55.8,47.6z
	"/>
<linearGradient id="SVGID_2_" gradientUnits="userSpaceOnUse" x1="30.5689" y1="13.3831" x2="30.5689" y2="48.4192" gradientTransform="matrix(1 0 0 -1 0 63.8053)">
	<stop  offset="0" style="stop-color:#41001C"/>
	<stop  offset="0.2687" style="stop-color:#351E19"/>
</linearGradient>
<path class="st1" d="M18,50.3c0,0.5,10.5-1.8,11.9-3.1c6.2-5.5,13.7-18.3,13.7-18.3s-13.5-9.8-19.7-13.2c-1.7-0.9-2.6,0.6-2.9,0.5
	C15.8,39.8,18,47.6,18,50.3z"/>
<path class="st2" d="M21.1,15.6c-0.2,2.6-0.3,5.3-0.5,7.9c-0.1,1.8-0.2,3.6,0,5.4c0.1,0.8,0,1.9,0.1,2.6c0.3,2.5,0.4,4.7-0.3,7.1
	c0.5-0.5,0.9-1.6,1.1-2.3c0.1-0.7,0.1-2.2,0.1-2.9c0-1.8,0-2.3,0.2-4.1c0.3-2.2,0.8-4.2,1.4-6.3c0.2-0.7,0.4-1.4,0.7-2.1
	c0.6-1.4,1.6-2.6,2.6-3.7"/>
<path class="st3" d="M69,63.1c-2.8-4.9-6-12.8-7.6-14.5c-2.5-2.6-6.8-1.9-10.5-3c-3.7-1.2-6.7-1.7-6.7-1.7s-1.7,1.3-4.8,2
	c-0.7,0.2-1.5,0.3-2.4,0.3c-0.9-0.1-1.6-0.2-2.4-0.3c-3.1-0.7-4.8-2-4.8-2s-3,0.5-6.7,1.7s-7.9,0.4-10.5,3C11.2,50.3,0,72.6,0,72.6
	h13.4l4.1-9.3l19.4,9.3h0.4l21-8.2l3.3,8.2h12.6C74.2,72.6,71.8,68,69,63.1z"/>
<path class="st3" d="M50.2,51c0,0-28.2,1.8-23.6-1.5c1.8-1.3,2.5-4.2,2.7-7.2c0.3-4.5-0.7-9.3-0.7-9.3s1.3-0.7,3.2-1.5
	c5.3-2.3,15.1-5.5,14.5,1.8C45.4,43.3,50.2,51,50.2,51z"/>
<path class="st4" d="M46.2,34.6c0,0-4.8,17-16.9,7.7c0.3-4.5-1-10.7-1-10.7s1.6,0.7,3.5-0.1L46.2,34.6z"/>
<path class="st2" d="M22.9,17.3c0,0,0.6-12,10.3-15.6c12.1-5.4,18.7,3.2,19.9,9.7c0.4,2.3-4.2-1.1-4.3,1.7
	c-0.1,2.3,0.1,10.6-0.3,13.1C46.3,40.4,22.9,17.3,22.9,17.3z"/>
<path class="st3" d="M27.1,26.5c-5.5-0.9-5.1-10.2-3.2-10.2s3.2,2,3.2,2S32.7,27.4,27.1,26.5z"/>
<path class="st3" d="M49.8,26.4c0,0.3-0.1,0.6-0.1,0.9c-0.1,0.6-0.2,1.3-0.4,1.9c-0.4,1.5-1,2.9-1.9,4.2c-2,3.1-5.3,6.2-8.4,6.2
	c-5,0-8.1-3.6-8.1-3.6c-0.6-0.6-4.8-6.3-4.7-15.1c0.1-8.8,3-18.6,10.7-18.6c0.5,0,0.9,0,1.4,0.1c3.2,0.4,5.7,2.1,7.6,4.4
	c0,0,0,0,0.1,0.1c2.1,2.7,3.4,6.1,3.8,9.3C50.2,19.6,50,23.6,49.8,26.4z"/>
<path class="st5" d="M50.6,26.3c0,0.3-0.1,0.5-0.1,0.3c-0.2-5.8-1.8-8.7-2.9-10c-2.8-2.7-7.6-7.5-9.8-10.5c1.6,3.5,5.6,7,5.7,7
	c0.1,0,0.1,0.1,0,0.2h-0.1h-0.1c-0.2-0.2-5-4.3-6.2-8.2c-0.3-0.5-0.5-1-0.5-1.3c0-0.2,0.1-0.4,0.2-0.6l0,0c0-0.1,0.1-0.1,0.1-0.1
	c0.2-0.2,0.5-0.4,0.9-0.6c3.5,0.3,6.3,1.9,8.4,4.2c0,0,0,0,0.1,0.1c2.3,2.7,3.7,6.1,4.1,9.3C51,19.5,50.8,23.4,50.6,26.3z"/>
<path class="st6" d="M42.3,17.2c0,0-0.8,0-0.7-0.7s1.1-0.7,1.6-0.7s3.9-0.2,4.9,1.4c0.1,0.1,0,0.2-0.1,0.2
	C46.1,17,42.3,17.2,42.3,17.2z"/>
<path class="st6" d="M34.5,17.3c0,0,0.8,0,0.7-0.7s-1.1-0.8-1.6-0.8s-3.9-0.3-4.9,1.3c-0.1,0.1,0,0.2,0.1,0.2
	C30.7,17,34.5,17.3,34.5,17.3z"/>
<g>
	<path class="st2" d="M22.8,16.3c0.5,0,3.2,1,3.6,1.2c2.6-2.9,8.7-12.8,8.7-15.1c0-1.7-12.9-3.9-14.1,13.8c0.4,0,0.8,0.2,1.1,0.5
		C22.4,16.5,22.6,16.3,22.8,16.3z"/>
</g>
<path class="st2" d="M48.3,17.9c0,0-0.3-0.2-0.9-0.6C43.8,14.9,30.5,6,30.5,3.6c0-2.8,20.3-5.8,21.7,13.5
	C50.5,18.7,48.3,17.9,48.3,17.9z"/>
<path class="st2" d="M44.3,15.3c0,0,4.8,2.2,5.5,10.7c0.1,0.8,0.3,1.6,0.8,2.4c2,3,5.3,1.4,6.1,0.8c0.1,0,0-0.1-0.1-0.1
	c-0.7,0-2.1-0.1-3-1.6c-3.5-5.9,0.4-12.1-1.3-18.2c-1-3.7-3-4.2-5.9-6.7C43.4,0.2,44.3,15.3,44.3,15.3z"/>
<ellipse class="st2" cx="32.2" cy="20.8" rx="0.9" ry="1.4"/>
<ellipse class="st2" cx="43.9" cy="20.8" rx="0.9" ry="1.4"/>
<g class="st7">
	<path class="st8" d="M38.1,27.2c-1.4,0-2.2-0.3-2.5-0.9c-0.3-0.7,0.3-1.5,0.3-1.5c0.1-0.1,0.2-0.1,0.3,0s0.1,0.2,0,0.3
		c-0.1,0.2-0.4,0.7-0.3,1c0.2,0.4,0.9,0.6,2,0.6c1.9,0,2.4-0.4,2.5-0.7c0.2-0.4-0.2-1-0.2-1c-0.1-0.1-0.1-0.3,0-0.3
		c0.1-0.1,0.3-0.1,0.3,0c0,0,0.6,0.8,0.3,1.5C40.7,26.9,39.7,27.2,38.1,27.2z"/>
</g>
<radialGradient id="SVGID_3_" cx="47.7809" cy="36.5308" r="5.0106" fx="46.4727" fy="36.5351" gradientTransform="matrix(1 0 0 -1 0 63.8053)" gradientUnits="userSpaceOnUse">
	<stop  offset="0" style="stop-color:#D1675D;stop-opacity:0.3"/>
	<stop  offset="0.4185" style="stop-color:#C55C55;stop-opacity:0.1745"/>
	<stop  offset="1" style="stop-color:#BA524D;stop-opacity:0"/>
</radialGradient>
<circle class="st9" cx="47.2" cy="27.8" r="4.5"/>
<radialGradient id="SVGID_4_" cx="29.3128" cy="36.5308" r="5.0106" fx="28.0046" fy="36.5351" gradientTransform="matrix(1 0 0 -1 0 63.8053)" gradientUnits="userSpaceOnUse">
	<stop  offset="0" style="stop-color:#D1675D;stop-opacity:0.3"/>
	<stop  offset="0.4185" style="stop-color:#C55C55;stop-opacity:0.1745"/>
	<stop  offset="1" style="stop-color:#BA524D;stop-opacity:0"/>
</radialGradient>
<circle class="st10" cx="28.7" cy="27.8" r="4.5"/>
<path class="st11" d="M24.7,19c0,0-1.2,2.4,0.1,4.2"/>
<path class="st11" d="M24.2,21c0,0,0.8,0.1,1.2,0.7"/>
<path class="st12" d="M24.6,50.4c2.2,0.8,4.4,1.6,6.6,2.2c1.5,0.4,3.1,0.7,4.1,1.7"/>
<path class="st12" d="M51.7,50.4c-2.2,0.8-4.4,1.6-6.6,2.2C43.6,53,42,53.3,41,54.3"/>
<path class="st13" d="M25,53.9c0,0,4.4,4.6,11.9,4.6h1.5c7.6,0,11.9-4.6,11.9-4.6"/>
<polyline class="st14" points="35,61.9 37.7,64.6 40.5,61.8 "/>
<polyline class="st14" points="35,64.4 37.7,67.2 40.5,64.4 "/>
<path class="st15" d="M47.8,15.4c0,0-11.4-6.5-13.7-10.8"/>
<radialGradient id="SVGID_5_" cx="38.05" cy="19.5089" r="6.6514" gradientTransform="matrix(1 0 0 -1.0014 0 64.1158)" gradientUnits="userSpaceOnUse">
	<stop  offset="0" style="stop-color:#DADADA"/>
	<stop  offset="0.9955" style="stop-color:#B2B2B2"/>
</radialGradient>
<path class="st16" d="M29.3,41.9c0,0,3.6,5.7,8.5,5.7s9-6,9-6"/>
<g>
	<g>
		<path class="st17" d="M35.1,30.8c1.2,0.5,2.8,0.5,4.4,0.4c2.6-0.2,4.2-1.1,5.1-2"/>
		<g>
			<g>
				
					<radialGradient id="SVGID_6_" cx="39.2916" cy="32.4" r="3.8372" fx="38.2898" fy="32.4033" gradientTransform="matrix(1 0 0 -1 0 63.8053)" gradientUnits="userSpaceOnUse">
					<stop  offset="0" style="stop-color:#D1675D"/>
					<stop  offset="0.7657" style="stop-color:#C15851"/>
					<stop  offset="1" style="stop-color:#BA524D"/>
				</radialGradient>
				<path class="st18" d="M39.8,29.9c0.4,0,0.6,0,0.9-0.1C40.4,29.9,40.2,29.9,39.8,29.9z"/>
				
					<radialGradient id="SVGID_7_" cx="39.2879" cy="31.9698" r="3.9771" fx="38.2495" fy="31.9732" gradientTransform="matrix(1 0 0 -1 0 63.8053)" gradientUnits="userSpaceOnUse">
					<stop  offset="0" style="stop-color:#D1675D"/>
					<stop  offset="0.7657" style="stop-color:#C15851"/>
					<stop  offset="1" style="stop-color:#BA524D"/>
				</radialGradient>
				<path class="st19" d="M36.4,30.2c0.3,0,0.5,0,0.8-0.1C36.9,30.2,36.7,30.2,36.4,30.2z"/>
				
					<radialGradient id="SVGID_8_" cx="39.3056" cy="32.7526" r="4.0199" fx="38.256" fy="32.7561" gradientTransform="matrix(1 0 0 -1 0 63.8053)" gradientUnits="userSpaceOnUse">
					<stop  offset="0" style="stop-color:#D1675D"/>
					<stop  offset="0.7657" style="stop-color:#C15851"/>
					<stop  offset="1" style="stop-color:#BA524D"/>
				</radialGradient>
				<path class="st20" d="M33.4,30.3c0,0,0.1,0.2,0.2,0.3c3.7,4.4,7.1,3.2,10.3-0.7c-1,0.6-2.7,1.5-5.3,1.7
					C36,31.9,33.4,30.3,33.4,30.3z"/>
				
					<radialGradient id="SVGID_9_" cx="39.2826" cy="32.6819" r="3.6561" fx="38.328" fy="32.685" gradientTransform="matrix(1 0 0 -1 0 63.8053)" gradientUnits="userSpaceOnUse">
					<stop  offset="0" style="stop-color:#D1675D"/>
					<stop  offset="0.7657" style="stop-color:#C15851"/>
					<stop  offset="1" style="stop-color:#BA524D"/>
				</radialGradient>
				<path class="st21" d="M35.7,30.3c0.3,0,0.4,0,0.7,0C36.1,30.2,35.9,30.3,35.7,30.3z"/>
				
					<radialGradient id="SVGID_10_" cx="39.2951" cy="33.522" r="3.8712" fx="38.2843" fy="33.5253" gradientTransform="matrix(1 0 0 -1 0 63.8053)" gradientUnits="userSpaceOnUse">
					<stop  offset="0" style="stop-color:#D1675D"/>
					<stop  offset="0.7657" style="stop-color:#C15851"/>
					<stop  offset="1" style="stop-color:#BA524D"/>
				</radialGradient>
				<path class="st22" d="M42.8,29.8c0.4,0,0.6,0.1,1,0.1C43.5,29.9,43.3,29.8,42.8,29.8z"/>
				
					<radialGradient id="SVGID_11_" cx="39.3046" cy="32.0544" r="3.945" fx="38.2746" fy="32.0578" gradientTransform="matrix(1 0 0 -1 0 63.8053)" gradientUnits="userSpaceOnUse">
					<stop  offset="0" style="stop-color:#D1675D"/>
					<stop  offset="0.7657" style="stop-color:#C15851"/>
					<stop  offset="1" style="stop-color:#BA524D"/>
				</radialGradient>
				<path class="st23" d="M42.8,29.8c-0.1,0-0.1,0-0.2,0c-0.3,0-0.6,0-0.8,0h-0.1c-0.3,0-0.6,0-0.9,0l0,0c-0.3,0-0.6,0-0.9,0.1l0,0
					c-0.2,0.1-0.3,0.2-0.5,0.3c-0.4,0.2-0.8,0.5-1.2,0.4c-0.2-0.1-0.4-0.2-0.6-0.3c-0.1,0-0.2-0.1-0.3-0.1l0,0
					c-0.3,0-0.5,0.1-0.8,0.1c0,0,0,0-0.1,0c-0.2,0-0.5,0-0.7,0c0,0,0,0-0.1,0c-0.2,0-0.4,0-0.6,0c0,0,0,0-0.1,0c-0.2,0-0.3,0-0.5,0
					l0,0c-0.2,0-0.3,0-0.4,0l0,0c-0.1,0-0.2,0-0.3,0l0,0c-0.2,0-0.3,0-0.3,0c0.1,0.1,2.6,1.6,5.2,1.3c2.5-0.2,4.3-1.2,5.3-1.7l0,0
					C43.5,29.8,43.2,29.8,42.8,29.8z"/>
				<path class="st30" d="M42.8,29.8c-0.1,0-0.1,0-0.2,0c-0.3,0-0.6,0-0.8,0h-0.1c-0.3,0-0.6,0-0.9,0l0,0c-0.3,0-0.6,0-0.9,0.1l0,0
					c-0.2,0.1-0.3,0.2-0.5,0.3c-0.4,0.2-0.8,0.5-1.2,0.4c-0.2-0.1-0.4-0.2-0.6-0.3c-0.1,0-0.2-0.1-0.3-0.1l0,0
					c-0.3,0-0.5,0.1-0.8,0.1c0,0,0,0-0.1,0c-0.2,0-0.5,0-0.7,0c0,0,0,0-0.1,0c-0.2,0-0.4,0-0.6,0c0,0,0,0-0.1,0c-0.2,0-0.3,0-0.5,0
					l0,0c-0.2,0-0.3,0-0.4,0l0,0c-0.1,0-0.2,0-0.3,0l0,0c-0.2,0-0.3,0-0.3,0c0.1,0.1,2.6,1.6,5.2,1.3c2.5-0.2,4.3-1.2,5.3-1.7l0,0
					C43.5,29.8,43.2,29.8,42.8,29.8z"/>
			</g>
		</g>
	</g>
</g>
<g>
	<g>
		<g>
			<g>
				<path class="st32" d="M46.8,41c0,0.1,0,0.2,0,0.3c0,0.2,0,0.3-0.1,0.5s-0.1,0.2-0.2,0.1"/>
				<path class="st32" d="M46.7,40.9c-0.3,0.3-0.6,0.6-0.8,1.1c-0.1,0.3-0.2,0.5-0.1,0.8"/>
				<path class="st32" d="M43.6,43.3c-0.1,0.2-0.2,0.4-0.2,0.6c0,0.1,0,0.3,0,0.4"/>
				<path class="st32" d="M45.7,41.7c0-0.1-0.1-0.1-0.2,0c-0.1,0.1-0.2,0.1-0.2,0.3c0,0.1-0.1,0.2-0.2,0.3c-0.3,0.4-0.5,0.8-0.5,1.3
					c0,0,0,0,0,0.1"/>
				<path class="st32" d="M42.1,43.9c0,0.3-0.1,0.6-0.3,0.9"/>
				<path class="st32" d="M42.4,43.9c-0.2,0.3-0.3,0.6-0.3,0.9"/>
				<path class="st32" d="M41.1,44.4c-0.1,0.2-0.2,0.5-0.2,0.7c0,0.1,0.1,0.3,0.2,0.3c0.1,0,0.3-0.1,0.3-0.2c0-0.1,0.1-0.2,0.2-0.3
					c0.1,0,0.1-0.1,0.2-0.2"/>
				<path class="st32" d="M41.8,44.8c-0.2-0.1-0.3-0.3-0.3-0.6c0-0.1,0.1-0.3,0.2-0.4c0.2-0.1,0.2-0.1,0.3,0c0,0,0.1,0,0.2,0
					c0.1,0,0.2,0.1,0.2,0c0.1,0,0.1-0.2,0.2-0.2c0.1-0.1,0.2-0.1,0.2-0.3c0-0.1,0.3-0.3,0.4-0.2c0.1,0,0.2,0.2,0.2,0.3
					c0,0.3-0.1,0.5-0.3,0.8"/>
				<path class="st32" d="M39.9,44.7c-0.2,0.2-0.3,0.5-0.3,0.8"/>
				<path class="st32" d="M39.6,44.6c0,0.1,0,0.2,0,0.3c0,0.2-0.1,0.3-0.2,0.5"/>
				<path class="st32" d="M40.9,44.3c0,0.3-0.1,0.6-0.3,0.8"/>
				<path class="st32" d="M37.7,44.7c0,0.3,0.1,0.6,0.3,0.8"/>
				<path class="st32" d="M38.3,44.7c0,0.3-0.1,0.6-0.3,0.8"/>
				<path class="st32" d="M46.5,41c0-0.1,0-0.1,0-0.2l0.1-0.1c0,0,0,0,0,0.1v0.1L46.5,41c0.1,0.2,0,0.4,0,0.5s0,0.1-0.1,0.2
					c-0.1,0.2-0.2,0.5-0.3,0.7s-0.3,0.4-0.4,0.3"/>
				<path class="st32" d="M38.6,44.9c-0.2,0.2-0.2,0.4-0.3,0.6c0,0.2,0.1,0.4,0.2,0.4c0.2,0.1,0.2,0,0.4-0.2l0.1-0.1
					c0.1-0.1,0.1-0.1,0.2-0.2"/>
				<path class="st32" d="M38.9,44.7c0,0.3,0.1,0.6,0.3,0.7"/>
				<path class="st32" d="M38.7,44.9c0.2,0.2,0.3,0.4,0.3,0.7"/>
				<path class="st32" d="M44.8,42.6c-0.1,0-0.1,0-0.2,0l-0.1,0.1c0,0.3-0.1,0.5-0.2,0.8v0.1"/>
				<path class="st32" d="M42.5,43.9c0.2,0.1,0.3,0.3,0.3,0.6c0,0.1-0.1,0.3-0.2,0.4c-0.1,0.1-0.2,0.1-0.3,0c0,0,0,0,0-0.1"/>
				<path class="st32" d="M39.9,44.7c0.2,0.2,0.3,0.4,0.3,0.7"/>
				<path class="st32" d="M40.2,44.5c0,0.2,0,0.4,0.1,0.5s0.1,0.1,0.2,0.2"/>
				<path class="st32" d="M46.4,41.2c0,0.2,0,0.3,0,0.5c0,0.1,0,0.1,0,0.2"/>
				<path class="st32" d="M44.6,42.6L44.6,42.6c-0.1-0.1-0.1-0.2-0.2-0.1c-0.1,0-0.2,0.1-0.3,0.3c-0.2,0.4-0.1,0.7,0.1,0.8
					c0.2,0.1,0.4,0.1,0.6-0.1c0.1,0,0.1-0.1,0.2-0.1"/>
				<path class="st32" d="M42.7,43.7c0,0.2,0.1,0.5,0.3,0.6"/>
				<path class="st32" d="M41.5,44.1c-0.1,0.1-0.2,0.1-0.2,0.2c0,0,0,0.1-0.1,0c-0.1,0-0.1,0-0.2-0.1c0,0-0.1,0-0.1-0.1
					c-0.1-0.2-0.4-0.1-0.5,0.1c-0.1,0.1-0.1,0.2-0.2,0.2c-0.1,0-0.3,0.1-0.4,0.1c-0.1,0-0.1-0.1-0.2-0.1c-0.1-0.2-0.4-0.1-0.4,0.1"
					/>
				<path class="st32" d="M43.7,43.3c0.2,0.1,0.3,0.3,0.3,0.6"/>
				<path class="st32" d="M38.6,44.8c-0.1-0.1-0.2-0.1-0.3-0.2l-0.1-0.1c-0.1-0.1-0.2-0.2-0.3-0.1c-0.1,0-0.2,0-0.2,0.2"/>
				<path class="st32" d="M45.2,42.2c0,0.2,0.1,0.4,0.3,0.5h0.1c0.1-0.3,0.3-0.6,0.3-1l0,0"/>
				<path class="st32" d="M40.1,45.5c0,0.1-0.1,0.2-0.2,0.2c-0.1,0-0.2,0-0.3-0.1"/>
				<path class="st32" d="M44.9,42.6c0.2,0.1,0.3,0.3,0.3,0.5l0,0c-0.1,0.1-0.1,0.3-0.2,0.4c-0.1,0.1-0.2,0.2-0.3,0.2
					s-0.1,0-0.1-0.1"/>
				<path class="st32" d="M43.9,44.1c0,0.2-0.1,0.2-0.2,0.3c-0.1,0.1-0.2,0-0.2-0.1"/>
				<path class="st32" d="M41.2,44.4c0.2,0.1,0.3,0.4,0.3,0.6"/>
				<path class="st32" d="M42.1,43.8c-0.2,0.1-0.3,0.1-0.5,0.2"/>
				<path class="st32" d="M46.1,41.7c0.1,0,0.2,0.1,0.2,0.2l0.1,0.1"/>
				<path class="st32" d="M37.3,44.8c0.3-0.2,0.6-0.2,0.9-0.2"/>
				<path class="st32" d="M42.6,44.7c-0.1,0-0.1,0.1-0.2,0.1c-0.2,0.1-0.4,0.1-0.6,0"/>
				<path class="st32" d="M40.8,44.3c-0.2,0-0.3,0.1-0.5,0.1"/>
				<path class="st32" d="M39.5,44.5c-0.1,0-0.1,0-0.2,0c-0.3,0-0.5,0.1-0.7,0.3"/>
				<path class="st32" d="M38.9,45.7c-0.2,0-0.3,0-0.5,0"/>
				<path class="st32" d="M44.5,42.6c-0.1,0.1-0.3,0.2-0.4,0.2"/>
				<path class="st32" d="M41.4,45.2c-0.1,0-0.3,0.1-0.4,0.1"/>
				<path class="st32" d="M40.5,45.2c-0.1,0.1-0.3,0.3-0.4,0.3c-0.3,0.1-0.6,0.1-0.8-0.1"/>
				<path class="st32" d="M43.3,43.3c-0.1,0.1-0.3,0.1-0.4,0.2"/>
				<path class="st32" d="M46.2,42.5c-0.1,0.1-0.3,0.2-0.4,0.3"/>
				<path class="st32" d="M44.2,43.6c-0.1,0.1-0.1,0.2-0.2,0.3c0,0-0.1,0-0.1,0.1c-0.1,0.1-0.1,0.2-0.2,0.2
					c-0.2,0.1-0.5,0.3-0.7,0.2"/>
				<path class="st32" d="M45.5,42.8c-0.1,0.1-0.2,0.2-0.2,0.3"/>
				<path class="st32" d="M43.9,43L43.9,43c-0.1,0.1-0.2,0.2-0.3,0.3c-0.1,0-0.2,0-0.3,0l0,0"/>
				<path class="st32" d="M38,45.5c0.1,0.1,0.1,0.2,0.3,0.1"/>
				<path class="st32" d="M38,45.5c-0.1,0.1-0.1,0.2-0.3,0.1"/>
				<path class="st32" d="M46,41.7c-0.1,0-0.2,0-0.3,0.1"/>
				<path class="st32" d="M43,44.3c-0.1,0.1-0.2,0.2-0.2,0.2"/>
				<path class="st32" d="M45.5,42.7c0.1,0,0.2,0,0.3,0"/>
				<path class="st32" d="M40.6,45.2c0.1,0,0.1,0.1,0.2,0.1"/>
			</g>
			<g>
				<path class="st32" d="M29.2,41c0,0.1,0,0.2,0,0.3c0,0.2,0,0.3,0.1,0.5s0.1,0.2,0.2,0.1"/>
				<path class="st32" d="M29.3,40.9c0.3,0.3,0.6,0.6,0.8,1.1c0.1,0.3,0.2,0.5,0.1,0.8"/>
				<path class="st32" d="M32.3,43.3c0.1,0.2,0.2,0.4,0.2,0.6c0,0.1,0,0.3,0,0.4"/>
				<path class="st32" d="M30.2,41.7c0-0.1,0.1-0.1,0.2,0c0.1,0.1,0.2,0.1,0.2,0.3c0,0.1,0.1,0.2,0.2,0.3c0.3,0.4,0.5,0.8,0.5,1.3
					c0,0,0,0,0,0.1"/>
				<path class="st32" d="M33.8,43.9c0,0.3,0.1,0.6,0.3,0.9"/>
				<path class="st32" d="M33.6,43.9c0.2,0.3,0.3,0.6,0.3,0.9"/>
				<path class="st32" d="M34.8,44.4c0.1,0.2,0.3,0.4,0.3,0.7c0,0.1-0.1,0.3-0.2,0.3c-0.1,0-0.3-0.1-0.3-0.2c0-0.1-0.1-0.2-0.2-0.3
					c-0.1,0-0.1-0.1-0.2-0.2"/>
				<path class="st32" d="M34.2,44.8c0.2-0.1,0.3-0.3,0.3-0.6c0-0.1-0.1-0.3-0.2-0.4c-0.2-0.1-0.2-0.1-0.3,0c0,0-0.1,0-0.2,0
					c-0.1,0-0.2,0.1-0.2,0c-0.1,0-0.1-0.2-0.2-0.2c-0.1-0.1-0.2-0.1-0.2-0.3c0-0.1-0.3-0.3-0.4-0.2c-0.1,0-0.2,0.2-0.2,0.3
					c0,0.3,0.1,0.5,0.3,0.8"/>
				<path class="st32" d="M36.1,44.7c0.2,0.2,0.3,0.5,0.3,0.8"/>
				<path class="st32" d="M36.4,44.6c0,0.1,0,0.2,0,0.3c0,0.2,0.1,0.3,0.2,0.5"/>
				<path class="st32" d="M35.1,44.3c0,0.3,0.1,0.6,0.3,0.8"/>
				<path class="st32" d="M29.5,41c0-0.1,0-0.1,0-0.2l-0.1-0.1c0,0,0,0,0,0.1v0.1L29.5,41c-0.1,0.2,0,0.4,0,0.5s0,0.1,0.1,0.2
					c0.1,0.2,0.2,0.5,0.3,0.7s0.3,0.4,0.4,0.3"/>
				<path class="st32" d="M37.4,44.9c0.2,0.2,0.2,0.4,0.3,0.6c0,0.2-0.1,0.4-0.2,0.4c-0.2,0.1-0.2,0-0.4-0.2L37,45.6
					c-0.1-0.1-0.1-0.1-0.2-0.2"/>
				<path class="st32" d="M37,44.7c0,0.3-0.1,0.6-0.3,0.7"/>
				<path class="st32" d="M37.3,44.9c-0.2,0.2-0.3,0.4-0.3,0.7"/>
				<path class="st32" d="M31.1,42.6c0.1,0,0.1,0,0.2,0l0.1,0.1c0,0.3,0.1,0.5,0.2,0.8v0.1"/>
				<path class="st32" d="M33.5,43.9c-0.2,0.1-0.3,0.3-0.3,0.6c0,0.1,0.1,0.3,0.2,0.4c0.1,0.1,0.2,0.1,0.3,0c0,0,0,0,0-0.1"/>
				<path class="st32" d="M36,44.7c-0.2,0.2-0.3,0.4-0.3,0.7"/>
				<path class="st32" d="M35.8,44.5c0,0.2,0,0.4-0.1,0.5s-0.1,0.1-0.2,0.2"/>
				<path class="st32" d="M29.6,41.2c0,0.2,0,0.3,0,0.5c0,0.1,0,0.1,0,0.2"/>
				<path class="st32" d="M31.4,42.6L31.4,42.6c0.1-0.1,0.1-0.2,0.2-0.1c0.1,0,0.2,0.1,0.3,0.3c0.2,0.4,0.1,0.7-0.1,0.8
					c-0.2,0.1-0.4,0.1-0.6-0.1c-0.1,0-0.1-0.1-0.2-0.1"/>
				<path class="st32" d="M33.3,43.7c0,0.2-0.1,0.5-0.3,0.6"/>
				<path class="st32" d="M34.5,44.1c0.1,0.1,0.2,0.1,0.2,0.2c0,0,0,0.1,0.1,0c0.1,0,0.1,0,0.2-0.1c0,0,0.1,0,0.1-0.1
					c0.1-0.2,0.4-0.1,0.5,0.1c0.1,0.1,0.1,0.2,0.2,0.2c0.1,0,0.3,0.1,0.4,0.1c0.1,0,0.1-0.1,0.2-0.1c0.1-0.2,0.4-0.1,0.4,0.1"/>
				<path class="st32" d="M32.3,43.3c-0.2,0.1-0.3,0.3-0.3,0.6"/>
				<path class="st32" d="M30.8,42.2c0,0.2-0.1,0.4-0.3,0.5h-0.1c-0.1-0.3-0.3-0.6-0.3-1l0,0"/>
				<path class="st32" d="M35.8,45.5c0,0.1,0.1,0.2,0.2,0.2c0.1,0,0.2,0,0.3-0.1"/>
				<path class="st32" d="M31,42.6c-0.2,0.1-0.3,0.3-0.3,0.5l0,0c0.1,0.1,0.1,0.3,0.2,0.4c0.1,0.1,0.2,0.2,0.3,0.2s0.1,0,0.1-0.1"/>
				<path class="st32" d="M32.1,44.1c0,0.2,0.1,0.2,0.2,0.3c0.1,0.1,0.2,0,0.2-0.1"/>
				<path class="st32" d="M34.8,44.4c-0.2,0.1-0.3,0.4-0.3,0.6"/>
				<path class="st32" d="M33.9,43.8c0.2,0.1,0.3,0.1,0.5,0.2"/>
				<path class="st32" d="M29.9,41.7c-0.1,0-0.2,0.1-0.2,0.2L29.6,42"/>
				<path class="st32" d="M33.3,44.7c0.1,0,0.1,0.1,0.2,0.1c0.2,0.1,0.4,0.1,0.6,0"/>
				<path class="st32" d="M35.2,44.3c0.2,0,0.3,0.1,0.5,0.1"/>
				<path class="st32" d="M36.5,44.5c0.1,0,0.1,0,0.2,0c0.3,0,0.5,0.1,0.7,0.3"/>
				<path class="st32" d="M37.1,45.7c0.2,0,0.3,0,0.5,0"/>
				<path class="st32" d="M31.5,42.6c0.1,0.1,0.3,0.2,0.4,0.2"/>
				<path class="st32" d="M34.6,45.2c0.1,0,0.3,0.1,0.4,0.1"/>
				<path class="st32" d="M35.5,45.2c0.1,0.1,0.3,0.3,0.4,0.3c0.3,0.1,0.6,0.1,0.8-0.1"/>
				<path class="st32" d="M32.7,43.3c0.1,0.1,0.3,0.1,0.4,0.2"/>
				<path class="st32" d="M29.7,42.5c0.1,0.1,0.3,0.2,0.4,0.3"/>
				<path class="st32" d="M31.7,43.6c0.1,0.1,0.1,0.2,0.2,0.3c0,0,0.1,0,0.1,0.1c0.1,0.1,0.1,0.2,0.2,0.2c0.2,0.1,0.5,0.3,0.7,0.2"
					/>
				<path class="st32" d="M30.5,42.8c0.1,0.1,0.2,0.2,0.2,0.3"/>
				<path class="st32" d="M32,43L32,43c0.1,0.1,0.2,0.2,0.3,0.3c0.1,0,0.2,0,0.3,0l0,0"/>
				<path class="st32" d="M30,41.7c0.1,0,0.2,0,0.3,0.1"/>
				<path class="st32" d="M33,44.3c0.1,0.1,0.2,0.2,0.2,0.2"/>
				<path class="st32" d="M30.4,42.7c-0.1,0-0.2,0-0.3,0"/>
				<path class="st32" d="M35.4,45.2c-0.1,0-0.1,0.1-0.2,0.1"/>
			</g>
		</g>
	</g>
</g>
<radialGradient id="SVGID_12_" cx="38.5881" cy="28.7686" r="0.3948" gradientTransform="matrix(1 0 0 -1 0 63.8053)" gradientUnits="userSpaceOnUse">
	<stop  offset="0.633" style="stop-color:#EDEDED"/>
	<stop  offset="0.9955" style="stop-color:#B2B2B2"/>
</radialGradient>
<circle class="st24" cx="38.6" cy="35" r="0.4"/>
<radialGradient id="SVGID_13_" cx="23.6" cy="41.2992" r="0.2392" gradientTransform="matrix(1 0 0 -1 0 63.8053)" gradientUnits="userSpaceOnUse">
	<stop  offset="0.633" style="stop-color:#EDEDED"/>
	<stop  offset="0.9955" style="stop-color:#B2B2B2"/>
</radialGradient>
<circle class="st25" cx="23.6" cy="22.5" r="0.2"/>
<radialGradient id="SVGID_14_" cx="24.1346" cy="40.3178" r="0.2392" gradientTransform="matrix(1 0 0 -1 0 63.8053)" gradientUnits="userSpaceOnUse">
	<stop  offset="0.633" style="stop-color:#EDEDED"/>
	<stop  offset="0.9955" style="stop-color:#B2B2B2"/>
</radialGradient>
<circle class="st26" cx="24.1" cy="23.5" r="0.2"/>
<radialGradient id="SVGID_15_" cx="24.8606" cy="39.4641" r="0.239" gradientTransform="matrix(1 0 0 -1 0 63.8053)" gradientUnits="userSpaceOnUse">
	<stop  offset="0.633" style="stop-color:#EDEDED"/>
	<stop  offset="0.9955" style="stop-color:#B2B2B2"/>
</radialGradient>
<circle class="st27" cx="24.9" cy="24.3" r="0.2"/>
<radialGradient id="SVGID_16_" cx="25.8899" cy="38.7619" r="0.2392" gradientTransform="matrix(1 0 0 -1 0 63.8053)" gradientUnits="userSpaceOnUse">
	<stop  offset="0.633" style="stop-color:#EDEDED"/>
	<stop  offset="0.9955" style="stop-color:#B2B2B2"/>
</radialGradient>
<circle class="st28" cx="25.9" cy="25" r="0.2"/>
<g>
	<path class="st3" d="M26.4,17.5c-0.6-0.6-1.5-1.2-2.5-1.2c-0.5,0-0.9,0.7-1.1,1.7l3.5,0.7L26.4,17.5z"/>
</g>
<g>
	
		<radialGradient id="SVGID_17_" cx="37.7319" cy="15.5722" r="0.3208" gradientTransform="matrix(1 0 0 -1 0 63.8053)" gradientUnits="userSpaceOnUse">
		<stop  offset="0" style="stop-color:#DADADA"/>
		<stop  offset="0.9955" style="stop-color:#B2B2B2"/>
	</radialGradient>
	
		<circle style="fill:none;stroke:url(#SVGID_17_);stroke-width:0.1;stroke-linecap:round;stroke-miterlimit:10;" cx="37.7" cy="48.2" r="0.3"/>
	
		<radialGradient id="SVGID_18_" cx="37.7319" cy="16.0429" r="0.2634" gradientTransform="matrix(1 0 0 -1 0 63.8053)" gradientUnits="userSpaceOnUse">
		<stop  offset="0" style="stop-color:#DADADA"/>
		<stop  offset="0.9955" style="stop-color:#B2B2B2"/>
	</radialGradient>
	
		<line style="fill:none;stroke:url(#SVGID_18_);stroke-width:0.1;stroke-linecap:round;stroke-miterlimit:10;" x1="37.7" y1="47.4" x2="37.7" y2="48.1"/>
	<g>
		<g>
			
				<radialGradient id="SVGID_19_" cx="37.7857" cy="14.5105" r="0.9692" gradientTransform="matrix(1 0 0 -1 0 63.8053)" gradientUnits="userSpaceOnUse">
				<stop  offset="0" style="stop-color:#DADADA"/>
				<stop  offset="0.9955" style="stop-color:#B2B2B2"/>
			</radialGradient>
			<path class="st33" d="M38.7,49.3L38.7,49.3c0,0-0.1-0.1-0.1-0.2l0,0L38.5,49l-0.7-0.7l0,0c-0.1,0-0.3,0.2-0.5,0.5
				C37.1,49,37,49.3,37,49.4l0,0l0.2,0.1l0,0l0,0l0,0l0,0l0,0l-0.1,0.1c0,0.1,0,0.2,0,0.3c0.1,0.2,0.4,0.3,0.6,0.2l0,0l0,0l0,0l0,0
				c0.1,0,0.1-0.1,0.1-0.1s0,0,0-0.1l0,0l0,0l0,0l0,0h0.1l0,0l0,0l0,0c0,0,0.1,0,0.1,0.1c0,0,0.1,0,0.2-0.1l0,0l0,0l0,0l0.1-0.1l0,0
				l0,0c0-0.1,0.1-0.1,0.1-0.2c0,0,0,0,0-0.1C38.7,49.5,38.7,49.5,38.7,49.3C38.7,49.4,38.7,49.4,38.7,49.3
				C38.7,49.4,38.7,49.4,38.7,49.3C38.7,49.4,38.7,49.4,38.7,49.3C38.7,49.4,38.7,49.4,38.7,49.3L38.7,49.3L38.7,49.3z M37.6,50.1
				L37.6,50.1c-0.2,0.1-0.4,0-0.5,0C37,50,37,50,37.1,49.9l0,0c0,0,0,0,0.1,0l0,0l0,0L37.6,50.1C37.6,50,37.6,50.1,37.6,50.1z"/>
		</g>
	</g>
</g>
<path class="st41" d="M36.9,36.2c0.8-0.2,1.7-0.3,2.5-0.3c0.3,0,0.6,0,0.8,0.2"/>
<g class="st42">
	<g>
		<path class="st8" d="M44.9,31.3L44.9,31.3c-0.2-0.1-0.2-0.2-0.2-0.3c0.3-0.6,0.6-1.1,0.5-1.7c0-0.2-0.2-0.4-0.3-0.6l-1-1.9
			c-0.1-0.1,0-0.3,0.1-0.3c0.1-0.1,0.3,0,0.3,0.1l1,1.9c0.1,0.2,0.2,0.5,0.3,0.7c0.1,0.7-0.2,1.4-0.6,2C45.1,31.3,45,31.3,44.9,31.3
			z"/>
	</g>
</g>
<path class="st43" d="M17.4,72.6h40.5c0.2-1.1,0.5-2.2,0.6-3.2c0.8-4.6-1.8-8.6-3.6-11.4s-2.4-6.3-2.4-6.3l1-6c0,0-0.1-0.3-0.8-0.5
	s-1.1,0-1.1,0l-0.7,4.2c-0.3,1.6-1.2,3-2.4,4c-2,1.6-5.4,3.6-9.9,3.6h-1.5c-4.7,0-8.2-2.1-10.1-3.7c-1.1-0.9-1.9-2.2-2.2-3.6
	l-0.9-4.4c0,0-0.4-0.2-1.1,0S22,45.8,22,45.8l1,6c0,0-0.7,3.4-2.5,6.3s-4.3,6.8-3.5,11.4C17,70.3,17.2,71.4,17.4,72.6z"/>
</svg>
