<?xml version="1.0" encoding="utf-8"?>
<!-- Generator: Adobe Illustrator 25.2.3, SVG Export Plug-In . SVG Version: 6.00 Build 0)  -->
<svg version="1.1" id="Layer_1" xmlns="http://www.w3.org/2000/svg" xmlns:xlink="http://www.w3.org/1999/xlink" x="0px" y="0px"
	 viewBox="0 0 71.7 73.2" style="enable-background:new 0 0 71.7 73.2;" xml:space="preserve">
<style type="text/css">
	.st0{fill:#575756;}
	.st1{fill:#F5A88D;}
	.st2{fill:url(#SVGID_1_);}
	.st3{fill:#D8967D;}
	.st4{fill:#1C603B;}
	.st5{fill:#462922;}
	.st6{fill:#EEA38D;}
	.st7{opacity:0.2;}
	.st8{fill:#7C483C;}
	.st9{fill:#49382C;}
	.st10{fill:#4D3932;}
	.st11{fill:#392924;}
	.st12{fill:#FFFFFF;}
	.st13{fill:#2E9661;}
	.st14{fill:none;stroke:#1C603B;stroke-width:0.3489;stroke-linecap:round;stroke-miterlimit:10;}
	.st15{fill:none;stroke:#1C603B;stroke-width:0.3489;stroke-linecap:round;stroke-miterlimit:10;stroke-dasharray:0.2026,1.013;}
	
		.st16{opacity:5.000000e-02;fill:none;stroke:#7C483C;stroke-width:0.4743;stroke-linecap:round;stroke-miterlimit:10;enable-background:new    ;}
	.st17{opacity:0.3;fill:url(#SVGID_2_);enable-background:new    ;}
	.st18{fill:url(#SVGID_3_);}
	.st19{fill:url(#SVGID_4_);}
	.st20{fill:#EDA887;}
	.st21{fill:#D49974;}
	.st22{fill:#351E19;}
	.st23{opacity:0.5;fill:url(#SVGID_5_);enable-background:new    ;}
	.st24{opacity:0.5;fill:url(#SVGID_6_);enable-background:new    ;}
	.st25{fill:none;stroke:#AF7D61;stroke-width:0.4033;stroke-linecap:round;stroke-miterlimit:10;}
	
		.st26{opacity:0.2;fill:none;stroke:#7C483C;stroke-width:0.4021;stroke-linecap:round;stroke-miterlimit:10;enable-background:new    ;}
	.st27{fill:none;stroke:#353535;stroke-width:0.5041;stroke-linecap:round;stroke-miterlimit:10;}
	.st28{fill:none;stroke:#353535;stroke-width:0.3081;stroke-linecap:round;stroke-miterlimit:10;}
	.st29{fill:none;stroke:#351E19;stroke-width:0.3063;stroke-linecap:round;stroke-miterlimit:10;}
	.st30{fill:none;stroke:url(#SVGID_7_);stroke-width:0.209;stroke-linecap:round;stroke-linejoin:round;stroke-miterlimit:10;}
	.st31{fill:none;stroke:#9E4E48;stroke-width:0.3016;stroke-linecap:round;stroke-miterlimit:10;}
	.st32{fill:url(#SVGID_8_);}
	.st33{fill:url(#SVGID_9_);}
	.st34{fill:url(#SVGID_10_);}
	.st35{fill:url(#SVGID_11_);}
	.st36{fill:url(#SVGID_12_);}
	.st37{fill:url(#SVGID_13_);}
	.st38{opacity:0.8;fill:#9E4E48;enable-background:new    ;}
	.st39{fill:none;stroke:#303030;stroke-width:0.1605;stroke-linecap:round;stroke-linejoin:round;stroke-miterlimit:10;}
	.st40{fill:url(#SVGID_14_);}
	.st41{fill:url(#SVGID_15_);}
	.st42{fill:url(#SVGID_16_);}
	.st43{fill:url(#SVGID_17_);}
	.st44{fill:url(#SVGID_18_);}
	.st45{fill:none;stroke:url(#SVGID_19_);stroke-width:0.1008;stroke-linecap:round;stroke-miterlimit:10;}
	.st46{fill:none;stroke:url(#SVGID_20_);stroke-width:0.1008;stroke-linecap:round;stroke-miterlimit:10;}
	.st47{fill:url(#SVGID_21_);}
	
		.st48{opacity:5.000000e-02;fill:none;stroke:#7C483C;stroke-width:0.4782;stroke-linecap:round;stroke-miterlimit:10;enable-background:new    ;}
	.st49{opacity:0.15;}
	.st50{fill:#2A2220;}
	.st51{fill:#FFC050;}
	.st52{fill:#E0A038;}
	.st53{fill:#E2A139;}
	.st54{fill:#343633;}
	.st55{fill:#FFFFFC;}
	.st56{fill:#D08061;}
	.st57{fill:#B37658;}
	.st58{fill:#DDA06F;}
	.st59{opacity:0.3;enable-background:new    ;}
	.st60{clip-path:url(#SVGID_23_);fill:#D8967D;}
	.st61{clip-path:url(#SVGID_25_);fill:#D8967D;}
	.st62{clip-path:url(#SVGID_27_);fill:#D8967D;}
	.st63{fill:#2B3A6D;}
	.st64{opacity:0.5;fill:url(#SVGID_28_);enable-background:new    ;}
	.st65{opacity:0.5;fill:url(#SVGID_29_);enable-background:new    ;}
	
		.st66{opacity:5.000000e-02;fill:none;stroke:#7C483C;stroke-width:0.4451;stroke-linecap:round;stroke-miterlimit:10;enable-background:new    ;}
	.st67{opacity:0.3;fill:#CD805F;enable-background:new    ;}
	.st68{fill:#076FB7;}
	.st69{fill:none;stroke:#0D456B;stroke-width:0.4117;stroke-linecap:round;stroke-linejoin:round;stroke-miterlimit:10;}
	
		.st70{opacity:5.000000e-02;fill:none;stroke:#7C483C;stroke-width:0.4896;stroke-linecap:round;stroke-miterlimit:10;enable-background:new    ;}
	.st71{fill:url(#SVGID_30_);}
	.st72{fill:#0D456B;}
	.st73{fill:#C6DBF0;}
	.st74{opacity:0.75;fill:url(#SVGID_31_);enable-background:new    ;}
	.st75{fill:url(#SVGID_32_);}
	
		.st76{opacity:0.2;fill:none;stroke:#7C483C;stroke-width:0.4896;stroke-linecap:round;stroke-miterlimit:10;enable-background:new    ;}
	.st77{opacity:0.5;fill:url(#SVGID_33_);enable-background:new    ;}
	.st78{fill:#4D3933;}
	.st79{fill:url(#SVGID_34_);}
	.st80{opacity:0.5;}
	.st81{fill:#58403A;}
	.st82{fill:#B28025;}
	.st83{fill:none;stroke:#7C483C;stroke-width:0.3804;stroke-linecap:round;stroke-miterlimit:10;}
	.st84{fill:url(#SVGID_35_);}
	.st85{opacity:0.5;fill:url(#SVGID_36_);enable-background:new    ;}
	.st86{opacity:0.5;fill:url(#SVGID_37_);enable-background:new    ;}
	.st87{fill:none;stroke:#9E4E48;stroke-width:0.2853;stroke-linecap:round;stroke-miterlimit:10;}
	.st88{fill:url(#XMLID_95_);}
	.st89{fill:url(#SVGID_38_);}
	.st90{fill:none;stroke:url(#SVGID_39_);stroke-width:9.537996e-02;stroke-linecap:round;stroke-miterlimit:10;}
	.st91{fill:none;stroke:url(#SVGID_40_);stroke-width:9.537996e-02;stroke-linecap:round;stroke-miterlimit:10;}
	.st92{opacity:0.6;fill:#CD805F;enable-background:new    ;}
	
		.st93{opacity:0.5;fill:none;stroke:#58403A;stroke-width:0.4769;stroke-linecap:round;stroke-linejoin:round;stroke-miterlimit:10;enable-background:new    ;}
	.st94{fill:#DADADA;}
	.st95{fill:#D59175;}
	.st96{fill:none;stroke:#58403A;stroke-width:0.4769;stroke-linecap:round;stroke-linejoin:round;stroke-miterlimit:10;}
	.st97{fill:url(#SVGID_41_);stroke:#C6C6C6;stroke-width:2.861399e-02;stroke-linejoin:round;stroke-miterlimit:10;}
	.st98{fill:url(#SVGID_42_);stroke:url(#SVGID_43_);stroke-width:1.0891;stroke-miterlimit:10;}
	.st99{fill:none;stroke:url(#SVGID_44_);stroke-width:0.1954;stroke-linecap:round;stroke-linejoin:round;stroke-miterlimit:10;}
	.st100{fill:none;stroke:url(#SVGID_45_);stroke-width:0.2499;stroke-linecap:round;stroke-miterlimit:10;}
	.st101{fill:url(#SVGID_46_);stroke:url(#SVGID_47_);stroke-width:1.0891;stroke-miterlimit:10;}
	.st102{fill:none;stroke:url(#SVGID_48_);stroke-width:0.1954;stroke-linecap:round;stroke-linejoin:round;stroke-miterlimit:10;}
	.st103{opacity:0.63;fill:url(#SVGID_49_);enable-background:new    ;}
	
		.st104{opacity:0.17;fill:none;stroke:url(#SVGID_50_);stroke-width:0.2499;stroke-linecap:round;stroke-miterlimit:10;enable-background:new    ;}
	
		.st105{opacity:0.17;fill:none;stroke:url(#SVGID_51_);stroke-width:0.2499;stroke-linecap:round;stroke-miterlimit:10;enable-background:new    ;}
	.st106{fill:url(#SVGID_52_);}
	.st107{fill:none;stroke:#5C362D;stroke-width:0.2465;stroke-linecap:round;stroke-miterlimit:10;}
	.st108{fill:url(#SVGID_53_);}
	.st109{fill:url(#SVGID_54_);}
	.st110{opacity:0.45;fill:#7C483C;enable-background:new    ;}
	.st111{fill:url(#SVGID_55_);}
	.st112{fill:#9E4E48;}
	.st113{fill:none;stroke:#9D9D9C;stroke-width:0.4477;stroke-linecap:round;stroke-miterlimit:10;}
	.st114{fill:none;stroke:#EDEDED;stroke-width:0.4785;stroke-linecap:round;stroke-miterlimit:10;stroke-dasharray:0.2743,1.3715;}
	.st115{clip-path:url(#SVGID_57_);fill:#B99B6C;}
	.st116{clip-path:url(#SVGID_59_);fill:#B99B6C;}
	.st117{clip-path:url(#SVGID_61_);fill:#B99B6C;}
	.st118{clip-path:url(#SVGID_63_);fill:#B99B6C;}
	.st119{clip-path:url(#SVGID_65_);fill:#B99B6C;}
	.st120{clip-path:url(#SVGID_67_);fill:#B99B6C;}
	.st121{clip-path:url(#SVGID_69_);fill:#B99B6C;}
	.st122{clip-path:url(#SVGID_71_);fill:#B99B6C;}
	.st123{clip-path:url(#SVGID_73_);fill:#B99C6C;}
	.st124{clip-path:url(#SVGID_75_);fill:#BA9C6C;}
	.st125{clip-path:url(#SVGID_77_);fill:#BA9C6C;}
	.st126{clip-path:url(#SVGID_79_);fill:#BA9C6C;}
	.st127{clip-path:url(#SVGID_81_);fill:#BA9C6C;}
	.st128{clip-path:url(#SVGID_83_);fill:#BA9C6C;}
	.st129{clip-path:url(#SVGID_85_);fill:#BA9C6D;}
	.st130{clip-path:url(#SVGID_87_);fill:#BB9C6D;}
	.st131{clip-path:url(#SVGID_89_);fill:#BB9D6D;}
	.st132{clip-path:url(#SVGID_91_);fill:#BB9D6D;}
	.st133{clip-path:url(#SVGID_93_);fill:#BC9D6D;}
	.st134{clip-path:url(#SVGID_95_);fill:#BC9D6D;}
	.st135{clip-path:url(#SVGID_97_);fill:#BC9E6D;}
	.st136{clip-path:url(#SVGID_99_);fill:#BD9E6E;}
	.st137{clip-path:url(#SVGID_101_);fill:#BD9E6E;}
	.st138{clip-path:url(#SVGID_103_);fill:#BD9F6E;}
	.st139{clip-path:url(#SVGID_105_);fill:#BE9F6E;}
	.st140{clip-path:url(#SVGID_107_);fill:#BE9F6F;}
	.st141{clip-path:url(#SVGID_109_);fill:#BFA06F;}
	.st142{clip-path:url(#SVGID_111_);fill:#BFA06F;}
	.st143{clip-path:url(#SVGID_113_);fill:#C0A170;}
	.st144{clip-path:url(#SVGID_115_);fill:#C1A170;}
	.st145{clip-path:url(#SVGID_117_);fill:#C1A270;}
	.st146{clip-path:url(#SVGID_119_);fill:#C2A271;}
	.st147{clip-path:url(#SVGID_121_);fill:#C3A371;}
	.st148{clip-path:url(#SVGID_123_);fill:#C3A371;}
	.st149{clip-path:url(#SVGID_125_);fill:#C4A472;}
	.st150{clip-path:url(#SVGID_127_);fill:#C5A572;}
	.st151{clip-path:url(#SVGID_129_);fill:#C6A573;}
	.st152{clip-path:url(#SVGID_131_);fill:#C7A673;}
	.st153{clip-path:url(#SVGID_133_);fill:#C8A774;}
	.st154{clip-path:url(#SVGID_135_);fill:#C8A774;}
	.st155{clip-path:url(#SVGID_137_);fill:#C9A874;}
	.st156{clip-path:url(#SVGID_139_);fill:#CAA975;}
	.st157{clip-path:url(#SVGID_141_);fill:#CBAA75;}
	.st158{clip-path:url(#SVGID_143_);fill:#CCAA76;}
	.st159{clip-path:url(#SVGID_145_);fill:#CDAB77;}
	.st160{clip-path:url(#SVGID_147_);fill:#CEAC77;}
	.st161{clip-path:url(#SVGID_149_);fill:#CFAD78;}
	.st162{clip-path:url(#SVGID_151_);fill:#D0AE78;}
	.st163{clip-path:url(#SVGID_153_);fill:#D2AF79;}
	.st164{clip-path:url(#SVGID_155_);fill:#D3B079;}
	.st165{clip-path:url(#SVGID_157_);fill:#D4B17A;}
	.st166{clip-path:url(#SVGID_159_);fill:#D5B27B;}
	.st167{clip-path:url(#SVGID_161_);fill:#D6B37B;}
	.st168{clip-path:url(#SVGID_163_);fill:#D8B47C;}
	.st169{clip-path:url(#SVGID_165_);fill:#D9B57D;}
	.st170{clip-path:url(#SVGID_167_);fill:#DAB67D;}
	.st171{clip-path:url(#SVGID_169_);fill:#DCB77E;}
	.st172{clip-path:url(#SVGID_171_);fill:#DDB87F;}
	.st173{clip-path:url(#SVGID_173_);fill:#DFB980;}
	.st174{clip-path:url(#SVGID_175_);fill:#E0BA81;}
	.st175{clip-path:url(#SVGID_177_);fill:#E2BC81;}
	.st176{clip-path:url(#SVGID_179_);fill:#E3BD82;}
	.st177{clip-path:url(#SVGID_181_);fill:#E5BE83;}
	.st178{clip-path:url(#SVGID_183_);fill:#E5BE83;}
	.st179{clip-path:url(#SVGID_185_);fill:#E5BE83;}
	.st180{clip-path:url(#SVGID_187_);fill:#E4BD83;}
	.st181{clip-path:url(#SVGID_189_);fill:#E4BD82;}
	.st182{clip-path:url(#SVGID_191_);fill:#E3BD82;}
	.st183{clip-path:url(#SVGID_193_);fill:#E3BC82;}
	.st184{clip-path:url(#SVGID_195_);fill:#E2BC81;}
	.st185{clip-path:url(#SVGID_197_);fill:#E2BB81;}
	.st186{clip-path:url(#SVGID_199_);fill:#E1BB81;}
	.st187{clip-path:url(#SVGID_201_);fill:#E0BA81;}
	.st188{clip-path:url(#SVGID_203_);fill:#E0BA80;}
	.st189{clip-path:url(#SVGID_205_);fill:#DFB980;}
	.st190{clip-path:url(#SVGID_207_);fill:#DFB980;}
	.st191{clip-path:url(#SVGID_209_);fill:#DEB87F;}
	.st192{clip-path:url(#SVGID_211_);fill:#DDB87F;}
	.st193{clip-path:url(#SVGID_213_);fill:#DDB77F;}
	.st194{clip-path:url(#SVGID_215_);fill:#DCB77E;}
	.st195{clip-path:url(#SVGID_217_);fill:#DBB67E;}
	.st196{clip-path:url(#SVGID_219_);fill:#DBB67E;}
	.st197{clip-path:url(#SVGID_221_);fill:#DAB57D;}
	.st198{clip-path:url(#SVGID_223_);fill:#D9B57D;}
	.st199{clip-path:url(#SVGID_225_);fill:#D9B47C;}
	.st200{clip-path:url(#SVGID_227_);fill:#D8B47C;}
	.st201{clip-path:url(#SVGID_229_);fill:#D7B37C;}
	.st202{clip-path:url(#SVGID_231_);fill:#D6B37B;}
	.st203{clip-path:url(#SVGID_233_);fill:#D6B27B;}
	.st204{clip-path:url(#SVGID_235_);fill:#D5B17B;}
	.st205{clip-path:url(#SVGID_237_);fill:#D4B17A;}
	.st206{clip-path:url(#SVGID_239_);fill:#D4B07A;}
	.st207{clip-path:url(#SVGID_241_);fill:#D3B079;}
	.st208{clip-path:url(#SVGID_243_);fill:#D2AF79;}
	.st209{clip-path:url(#SVGID_245_);fill:#D1AF79;}
	.st210{clip-path:url(#SVGID_247_);fill:#D1AE78;}
	.st211{clip-path:url(#SVGID_249_);fill:#D0AD78;}
	.st212{clip-path:url(#SVGID_251_);fill:#CFAD78;}
	.st213{clip-path:url(#SVGID_253_);fill:#CEAC77;}
	.st214{clip-path:url(#SVGID_255_);fill:#CEAC77;}
	.st215{clip-path:url(#SVGID_257_);fill:#CDAB76;}
	.st216{clip-path:url(#SVGID_259_);fill:#CCAA76;}
	.st217{clip-path:url(#SVGID_261_);fill:#CBAA76;}
	.st218{clip-path:url(#SVGID_263_);fill:#CBA975;}
	.st219{clip-path:url(#SVGID_265_);fill:#CAA975;}
	.st220{clip-path:url(#SVGID_267_);fill:#C9A874;}
	.st221{clip-path:url(#SVGID_269_);fill:#C8A774;}
	.st222{clip-path:url(#SVGID_271_);fill:#C8A774;}
	.st223{clip-path:url(#SVGID_273_);fill:#C7A673;}
	.st224{clip-path:url(#SVGID_275_);fill:#C6A573;}
	.st225{clip-path:url(#SVGID_277_);fill:#C5A572;}
	.st226{clip-path:url(#SVGID_279_);fill:#C4A472;}
	.st227{clip-path:url(#SVGID_281_);fill:#C3A371;}
	.st228{clip-path:url(#SVGID_283_);fill:#C3A371;}
	.st229{clip-path:url(#SVGID_285_);fill:#C2A270;}
	.st230{clip-path:url(#SVGID_287_);fill:#C1A170;}
	.st231{clip-path:url(#SVGID_289_);fill:#C0A170;}
	.st232{clip-path:url(#SVGID_291_);fill:#BFA06F;}
	.st233{clip-path:url(#SVGID_293_);fill:#BE9F6F;}
	.st234{clip-path:url(#SVGID_295_);fill:#BD9F6E;}
	.st235{clip-path:url(#SVGID_297_);fill:#BD9E6E;}
	.st236{clip-path:url(#SVGID_299_);fill:#BC9D6D;}
	.st237{clip-path:url(#SVGID_301_);fill:#BB9D6D;}
	.st238{clip-path:url(#SVGID_303_);fill:#BA9C6C;}
	.st239{clip-path:url(#SVGID_305_);fill:#B99B6C;}
	.st240{fill:url(#SVGID_306_);}
	.st241{opacity:0.1;fill:#2A2220;enable-background:new    ;}
	.st242{fill:url(#SVGID_307_);}
	.st243{opacity:0.45;fill:url(#SVGID_308_);enable-background:new    ;}
	.st244{fill:url(#SVGID_309_);}
	.st245{fill:url(#SVGID_310_);}
	.st246{opacity:0.83;fill:#7C483C;enable-background:new    ;}
	.st247{fill:url(#SVGID_311_);}
	.st248{fill:#EDEDED;}
	.st249{opacity:0.1;}
	.st250{fill:none;stroke:#EDEDED;stroke-width:0.4677;stroke-linecap:round;stroke-miterlimit:10;}
	.st251{fill:none;stroke:#EDEDED;stroke-width:0.4677;stroke-linecap:round;stroke-miterlimit:10;stroke-dasharray:0.267,1.3352;}
	.st252{fill:url(#SVGID_312_);}
	.st253{fill:none;stroke:url(#SVGID_313_);stroke-width:0.1479;stroke-linecap:round;stroke-linejoin:round;stroke-miterlimit:10;}
	.st254{fill:none;stroke:url(#SVGID_314_);stroke-width:0.1479;stroke-linecap:round;stroke-linejoin:round;stroke-miterlimit:10;}
	.st255{fill:url(#SVGID_315_);}
	.st256{fill:url(#SVGID_316_);}
	.st257{fill:url(#SVGID_317_);}
	.st258{fill:#F3D09C;}
</style>
<g>
	
		<linearGradient id="SVGID_1_" gradientUnits="userSpaceOnUse" x1="47.8928" y1="1066.8932" x2="47.8928" y2="1027.6799" gradientTransform="matrix(1 0 0 1 0 -1016.1947)">
		<stop  offset="0" style="stop-color:#41001C"/>
		<stop  offset="0.2687" style="stop-color:#351E19"/>
	</linearGradient>
	<path class="st2" d="M54.7,48c0.1,0.7,0.1,1.4-0.4,2c-0.4,0.5-1.2,0.6-1.9,0.7c-2.4,0.1-4.8,0-7.3-0.4c-1.2-0.2-2.5-0.5-3.3-1.5
		c-1.2-1.4-0.7-3.5-0.4-5.3c0.3-1.4,0.4-2.9,0.5-4.3c0.1-1.5,0-3.1,0.8-4.5c0.7-1.1,1.8-1.8,2.7-2.8c1.7-1.8,2.3-4.2,3.1-6.5
		c0.3-0.8,1.9-14.5,3.4-13.8c0,0,0.6,11.6,0.7,12.2c0.1,1.5,0.3,3.1,0.4,4.6c0.3,3.1,0.5,6.3,0.8,9.4C54.2,41.2,54.4,44.6,54.7,48z"
		/>
	
		<linearGradient id="SVGID_2_" gradientUnits="userSpaceOnUse" x1="29.2652" y1="1067.0344" x2="29.2652" y2="1031.7101" gradientTransform="matrix(1 0 0 1 0 -1016.1947)">
		<stop  offset="0" style="stop-color:#41001C"/>
		<stop  offset="0.2687" style="stop-color:#351E19"/>
	</linearGradient>
	<path style="fill:url(#SVGID_2_);" d="M16.6,50.7c0,0.5,10.6-1.8,12-3.1c6.3-5.5,13.8-18.5,13.8-18.5s-13.6-9.9-19.9-13.3
		c-1.7-0.9-2.6,0.6-2.9,0.5C14.4,40.1,16.6,48,16.6,50.7z"/>
	<path class="st5" d="M19.7,15.7c-0.2,2.6-0.3,5.3-0.5,8c-0.1,1.8-0.2,3.6,0,5.4c0.1,0.8,0,1.9,0.1,2.6c0.3,2.5,0.4,4.7-0.3,7.2
		c0.5-0.5,0.9-1.6,1.1-2.3c0.1-0.7,0.1-2.2,0.1-2.9c0-1.8,0-2.3,0.2-4.1c0.3-2.2,0.8-4.2,1.4-6.4c0.2-0.7,0.4-1.4,0.7-2.1
		c0.6-1.4,1.6-2.6,2.6-3.7"/>
	<path class="st20" d="M60.3,49c-2.5-2.6-6.9-1.9-10.6-3C46,44.8,43,44.3,43,44.3s-1.7,1.3-4.8,2c-0.7,0.2-1.5,0.3-2.4,0.3
		c-0.9-0.1-1.6-0.2-2.4-0.3c-3.1-0.7-4.8-2-4.8-2s-3,0.5-6.8,1.7c-3.7,1.2-8,0.4-10.6,3C9.7,50.7,0,73.2,0,73.2h12.5l3.8-9.4
		l19.3,9.4h0.4l21-8.3l2.9,8.3h11.7C71.7,73.2,62,50.7,60.3,49z"/>
	<path class="st20" d="M49.1,51.4c0,0-28.4,1.8-23.8-1.5c1.8-1.3,2.5-4.2,2.7-7.3c0.3-4.5-0.7-9.4-0.7-9.4s1.3-0.7,3.2-1.5
		c5.3-2.3,15.2-5.5,14.6,1.8C44.2,43.7,49.1,51.4,49.1,51.4z"/>
	<path class="st3" d="M45,34.9c0,0-4.8,17.1-17,7.8c0.3-4.5-1-10.8-1-10.8s1.6,0.7,3.5-0.1L45,34.9z"/>
	<path class="st5" d="M21.5,17.4c0,0,0.6-12.1,10.4-15.7C44.1-3.7,50.8,4.9,52,11.5c0.4,2.3-4.2-1.1-4.3,1.7
		c-0.1,2.3,0.1,10.7-0.3,13.2C45.1,40.7,21.5,17.4,21.5,17.4z"/>
	<path class="st20" d="M25.8,26.7c-5.5-0.9-5.1-10.3-3.2-10.3s3.2,2,3.2,2S31.4,27.6,25.8,26.7z"/>
	<path class="st20" d="M48.7,26.6c0,0.3-0.1,0.6-0.1,0.9c-0.1,0.6-0.2,1.3-0.4,1.9c-0.4,1.5-1,2.9-1.9,4.2c-2,3.1-5.3,6.3-8.5,6.3
		c-5,0-8.2-3.6-8.2-3.6c-0.6-0.6-4.8-6.4-4.7-15.2c0.1-8.9,3-18.8,10.8-18.8c0.5,0,0.9,0,1.4,0.1c3.2,0.4,5.7,2.1,7.7,4.4
		c0,0,0,0,0.1,0.1c2.1,2.7,3.4,6.2,3.8,9.4C49.1,19.8,48.9,23.8,48.7,26.6z"/>
	<path class="st21" d="M49.5,26.5c0,0.3-0.1,0.5-0.1,0.3c-0.2-5.8-1.8-8.8-2.9-10.1c-2.8-2.7-7.7-7.6-9.9-10.6
		c1.6,3.5,5.6,7.1,5.7,7.1c0.1,0,0.1,0.1,0,0.2h-0.1h-0.1c-0.2-0.2-5-4.3-6.3-8.3c-0.3-0.5-0.5-1-0.5-1.3c0-0.2,0.1-0.4,0.2-0.6l0,0
		c0-0.1,0.1-0.1,0.1-0.1c0.2-0.2,0.5-0.4,0.9-0.6c3.5,0.3,6.4,1.9,8.5,4.2c0,0,0,0,0.1,0.1c2.3,2.7,3.7,6.2,4.1,9.4
		C49.9,19.7,49.7,23.6,49.5,26.5z"/>
	<path class="st22" d="M41.1,17.3c0,0-0.8,0-0.7-0.7c0.1-0.7,1.1-0.7,1.6-0.7c0.5,0,3.9-0.2,4.9,1.4c0.1,0.1,0,0.2-0.1,0.2
		C44.9,17.1,41.1,17.3,41.1,17.3z"/>
	<path class="st22" d="M33.2,17.4c0,0,0.8,0,0.7-0.7c-0.1-0.7-1.1-0.8-1.6-0.8c-0.5,0-3.9-0.3-4.9,1.3c-0.1,0.1,0,0.2,0.1,0.2
		C29.4,17.1,33.2,17.4,33.2,17.4z"/>
	<g>
		<path class="st5" d="M21.4,16.4c0.5,0,3.2,1,3.6,1.2c2.6-2.9,8.8-12.9,8.8-15.2c0-1.7-13-3.9-14.2,13.9c0.4,0,0.8,0.2,1.1,0.5
			C21,16.6,21.2,16.4,21.4,16.4z"/>
	</g>
	<path class="st5" d="M47.1,18c0,0-0.3-0.2-0.9-0.6c-3.6-2.4-17-11.4-17-13.8c0-2.8,20.5-5.8,21.9,13.6C49.4,18.9,47.1,18,47.1,18z"
		/>
	<path class="st5" d="M43.1,15.4c0,0,4.8,2.2,5.5,10.8c0.1,0.8,0.3,1.6,0.8,2.4c2,3,5.3,1.4,6.2,0.8c0.1,0,0-0.1-0.1-0.1
		c-0.7,0-2.1-0.1-3-1.6c-3.5-5.9,0.4-12.2-1.3-18.3c-1-3.7-3-4.2-5.9-6.8C42.2,0.2,43.1,15.4,43.1,15.4z"/>
	<ellipse class="st5" cx="30.9" cy="21" rx="0.9" ry="1.4"/>
	<ellipse class="st5" cx="42.7" cy="21" rx="0.9" ry="1.4"/>
	<g class="st7">
		<path class="st8" d="M36.9,27.4c-1.4,0-2.2-0.3-2.5-0.9C34,25.8,34.6,25,34.6,25c0.1-0.1,0.2-0.1,0.3,0s0.1,0.2,0,0.3
			c-0.1,0.2-0.4,0.7-0.3,1c0.2,0.4,0.9,0.6,2,0.6c1.9,0,2.4-0.4,2.5-0.7c0.2-0.4-0.2-1-0.2-1c-0.1-0.1-0.1-0.3,0-0.3
			c0.1-0.1,0.3-0.1,0.3,0c0,0,0.6,0.8,0.3,1.5C39.5,27.1,38.5,27.4,36.9,27.4z"/>
	</g>
	
		<radialGradient id="SVGID_3_" cx="46.6188" cy="1043.6963" r="5.0518" fx="45.2998" fy="1043.7007" gradientTransform="matrix(1 0 0 1 0 -1016.1947)" gradientUnits="userSpaceOnUse">
		<stop  offset="0" style="stop-color:#D1675D;stop-opacity:0.3"/>
		<stop  offset="0.4185" style="stop-color:#C55C55;stop-opacity:0.1745"/>
		<stop  offset="1" style="stop-color:#BA524D;stop-opacity:0"/>
	</radialGradient>
	<circle style="opacity:0.5;fill:url(#SVGID_3_);enable-background:new    ;" cx="46" cy="28" r="4.5"/>
	
		<radialGradient id="SVGID_4_" cx="27.9987" cy="1043.6963" r="5.0518" fx="26.6798" fy="1043.7007" gradientTransform="matrix(1 0 0 1 0 -1016.1947)" gradientUnits="userSpaceOnUse">
		<stop  offset="0" style="stop-color:#D1675D;stop-opacity:0.3"/>
		<stop  offset="0.4185" style="stop-color:#C55C55;stop-opacity:0.1745"/>
		<stop  offset="1" style="stop-color:#BA524D;stop-opacity:0"/>
	</radialGradient>
	<circle style="opacity:0.5;fill:url(#SVGID_4_);enable-background:new    ;" cx="27.4" cy="28" r="4.5"/>
	<path class="st25" d="M23.3,19.2c0,0-1.2,2.4,0.1,4.2"/>
	<path class="st25" d="M22.8,21.2c0,0,0.8,0.1,1.2,0.7"/>
	<path class="st26" d="M23.2,50.8c2.2,0.8,4.4,1.6,6.7,2.2c1.5,0.4,3.1,0.7,4.1,1.7"/>
	<path class="st26" d="M50.6,50.8c-2.2,0.8-4.4,1.6-6.7,2.2c-1.5,0.4-3.1,0.7-4.1,1.7"/>
	<path class="st27" d="M23.7,54.3c0,0,4.4,4.6,12,4.6h1.5c7.7,0,12-4.6,12-4.6"/>
	<polyline class="st28" points="33.7,62.4 36.5,65.1 39.3,62.3 	"/>
	<polyline class="st28" points="33.7,64.9 36.5,67.8 39.3,64.9 	"/>
	<path class="st29" d="M46.6,15.5c0,0-11.5-6.6-13.8-10.9"/>
	
		<radialGradient id="SVGID_5_" cx="36.8078" cy="1060.0326" r="6.7061" gradientTransform="matrix(1 0 0 1.0014 0 -1016.5676)" gradientUnits="userSpaceOnUse">
		<stop  offset="0" style="stop-color:#DADADA"/>
		<stop  offset="0.9955" style="stop-color:#B2B2B2"/>
	</radialGradient>
	
		<path style="fill:none;stroke:url(#SVGID_5_);stroke-width:0.209;stroke-linecap:round;stroke-linejoin:round;stroke-miterlimit:10;" d="
		M28,42.2c0,0,3.6,5.7,8.6,5.7s9.1-6,9.1-6"/>
	<g>
		<g>
			<path class="st31" d="M33.8,31.1c1.2,0.5,2.8,0.5,4.4,0.4c2.6-0.2,4.2-1.1,5.1-2"/>
			<g>
				<g>
					
						<radialGradient id="SVGID_6_" cx="38.0596" cy="1047.8611" r="3.8688" fx="37.0496" fy="1047.8644" gradientTransform="matrix(1 0 0 1 0 -1016.1947)" gradientUnits="userSpaceOnUse">
						<stop  offset="0" style="stop-color:#D1675D"/>
						<stop  offset="0.7657" style="stop-color:#C15851"/>
						<stop  offset="1" style="stop-color:#BA524D"/>
					</radialGradient>
					<path style="fill:url(#SVGID_6_);" d="M38.6,30.1c0.4,0,0.6,0,0.9-0.1C39.2,30.1,39,30.1,38.6,30.1z"/>
					
						<radialGradient id="SVGID_7_" cx="38.0559" cy="1048.2948" r="4.0098" fx="37.009" fy="1048.2982" gradientTransform="matrix(1 0 0 1 0 -1016.1947)" gradientUnits="userSpaceOnUse">
						<stop  offset="0" style="stop-color:#D1675D"/>
						<stop  offset="0.7657" style="stop-color:#C15851"/>
						<stop  offset="1" style="stop-color:#BA524D"/>
					</radialGradient>
					<path style="fill:url(#SVGID_7_);" d="M35.1,30.5c0.3,0,0.5,0,0.8-0.1C35.6,30.5,35.4,30.5,35.1,30.5z"/>
					
						<radialGradient id="SVGID_8_" cx="38.0737" cy="1047.5056" r="4.053" fx="37.0155" fy="1047.5092" gradientTransform="matrix(1 0 0 1 0 -1016.1947)" gradientUnits="userSpaceOnUse">
						<stop  offset="0" style="stop-color:#D1675D"/>
						<stop  offset="0.7657" style="stop-color:#C15851"/>
						<stop  offset="1" style="stop-color:#BA524D"/>
					</radialGradient>
					<path class="st32" d="M32.1,30.6c0,0,0.1,0.2,0.2,0.3c3.7,4.4,7.2,3.2,10.4-0.7c-1,0.6-2.7,1.5-5.3,1.7
						C34.7,32.2,32.1,30.6,32.1,30.6z"/>
					
						<radialGradient id="SVGID_9_" cx="38.0506" cy="1047.5769" r="3.6862" fx="37.0881" fy="1047.5801" gradientTransform="matrix(1 0 0 1 0 -1016.1947)" gradientUnits="userSpaceOnUse">
						<stop  offset="0" style="stop-color:#D1675D"/>
						<stop  offset="0.7657" style="stop-color:#C15851"/>
						<stop  offset="1" style="stop-color:#BA524D"/>
					</radialGradient>
					<path class="st33" d="M34.4,30.6c0.3,0,0.4,0,0.7,0C34.8,30.5,34.6,30.6,34.4,30.6z"/>
					
						<radialGradient id="SVGID_10_" cx="38.0632" cy="1046.7299" r="3.9031" fx="37.044" fy="1046.7332" gradientTransform="matrix(1 0 0 1 0 -1016.1947)" gradientUnits="userSpaceOnUse">
						<stop  offset="0" style="stop-color:#D1675D"/>
						<stop  offset="0.7657" style="stop-color:#C15851"/>
						<stop  offset="1" style="stop-color:#BA524D"/>
					</radialGradient>
					<path class="st34" d="M41.6,30c0.4,0,0.6,0.1,1,0.1C42.3,30.1,42.1,30,41.6,30z"/>
					
						<radialGradient id="SVGID_11_" cx="38.0727" cy="1048.2095" r="3.9775" fx="37.0343" fy="1048.2129" gradientTransform="matrix(1 0 0 1 0 -1016.1947)" gradientUnits="userSpaceOnUse">
						<stop  offset="0" style="stop-color:#D1675D"/>
						<stop  offset="0.7657" style="stop-color:#C15851"/>
						<stop  offset="1" style="stop-color:#BA524D"/>
					</radialGradient>
					<path class="st35" d="M41.6,30c-0.1,0-0.1,0-0.2,0c-0.3,0-0.6,0-0.8,0h-0.1c-0.3,0-0.6,0-0.9,0l0,0c-0.3,0-0.6,0-0.9,0.1l0,0
						c-0.2,0.1-0.3,0.2-0.5,0.3c-0.4,0.2-0.8,0.5-1.2,0.4c-0.2-0.1-0.4-0.2-0.6-0.3c-0.1,0-0.2-0.1-0.3-0.1l0,0
						c-0.3,0-0.5,0.1-0.8,0.1c0,0,0,0-0.1,0c-0.2,0-0.5,0-0.7,0c0,0,0,0-0.1,0c-0.2,0-0.4,0-0.6,0c0,0,0,0-0.1,0c-0.2,0-0.3,0-0.5,0
						l0,0c-0.2,0-0.3,0-0.4,0l0,0c-0.1,0-0.2,0-0.3,0l0,0c-0.2,0-0.3,0-0.3,0c0.1,0.1,2.6,1.6,5.2,1.3c2.5-0.2,4.3-1.2,5.3-1.7l0,0
						C42.3,30,42,30,41.6,30z"/>
					<path class="st38" d="M41.6,30c-0.1,0-0.1,0-0.2,0c-0.3,0-0.6,0-0.8,0h-0.1c-0.3,0-0.6,0-0.9,0l0,0c-0.3,0-0.6,0-0.9,0.1l0,0
						c-0.2,0.1-0.3,0.2-0.5,0.3c-0.4,0.2-0.8,0.5-1.2,0.4c-0.2-0.1-0.4-0.2-0.6-0.3c-0.1,0-0.2-0.1-0.3-0.1l0,0
						c-0.3,0-0.5,0.1-0.8,0.1c0,0,0,0-0.1,0c-0.2,0-0.5,0-0.7,0c0,0,0,0-0.1,0c-0.2,0-0.4,0-0.6,0c0,0,0,0-0.1,0c-0.2,0-0.3,0-0.5,0
						l0,0c-0.2,0-0.3,0-0.4,0l0,0c-0.1,0-0.2,0-0.3,0l0,0c-0.2,0-0.3,0-0.3,0c0.1,0.1,2.6,1.6,5.2,1.3c2.5-0.2,4.3-1.2,5.3-1.7l0,0
						C42.3,30,42,30,41.6,30z"/>
				</g>
			</g>
		</g>
	</g>
	<g>
		<g>
			<g>
				<g>
					<path class="st39" d="M45.6,41.3c0,0.1,0,0.2,0,0.3c0,0.2,0,0.3-0.1,0.5c-0.1,0.2-0.1,0.2-0.2,0.1"/>
					<path class="st39" d="M45.5,41.2c-0.3,0.3-0.6,0.6-0.8,1.1c-0.1,0.3-0.2,0.5-0.1,0.8"/>
					<path class="st39" d="M42.4,43.7c-0.1,0.2-0.2,0.4-0.2,0.6c0,0.1,0,0.3,0,0.4"/>
					<path class="st39" d="M44.5,42c0-0.1-0.1-0.1-0.2,0c-0.1,0.1-0.2,0.1-0.2,0.3c0,0.1-0.1,0.2-0.2,0.3c-0.3,0.4-0.5,0.8-0.5,1.3
						c0,0,0,0,0,0.1"/>
					<path class="st39" d="M40.9,44.3c0,0.3-0.1,0.6-0.3,0.9"/>
					<path class="st39" d="M41.2,44.3c-0.2,0.3-0.3,0.6-0.3,0.9"/>
					<path class="st39" d="M39.9,44.8c-0.1,0.2-0.2,0.5-0.2,0.7c0,0.1,0.1,0.3,0.2,0.3s0.3-0.1,0.3-0.2s0.1-0.2,0.2-0.3
						c0.1,0,0.1-0.1,0.2-0.2"/>
					<path class="st39" d="M40.6,45.2c-0.2-0.1-0.3-0.3-0.3-0.6c0-0.1,0.1-0.3,0.2-0.4c0.2-0.1,0.2-0.1,0.3,0c0,0,0.1,0,0.2,0
						c0.1,0,0.2,0.1,0.2,0c0.1,0,0.1-0.2,0.2-0.2c0.1-0.1,0.2-0.1,0.2-0.3c0-0.1,0.3-0.3,0.4-0.2c0.1,0,0.2,0.2,0.2,0.3
						c0,0.3-0.1,0.5-0.3,0.8"/>
					<path class="st39" d="M38.7,45.1c-0.2,0.2-0.3,0.5-0.3,0.8"/>
					<path class="st39" d="M38.4,45c0,0.1,0,0.2,0,0.3c0,0.2-0.1,0.3-0.2,0.5"/>
					<path class="st39" d="M39.7,44.7c0,0.3-0.1,0.6-0.3,0.8"/>
					<path class="st39" d="M36.5,45.1c0,0.3,0.1,0.6,0.3,0.8"/>
					<path class="st39" d="M37.1,45.1c0,0.3-0.1,0.6-0.3,0.8"/>
					<path class="st39" d="M45.3,41.3c0-0.1,0-0.1,0-0.2l0.1-0.1c0,0,0,0,0,0.1v0.1L45.3,41.3c0.1,0.2,0,0.4,0,0.5
						c0,0.1,0,0.1-0.1,0.2c-0.1,0.2-0.2,0.5-0.3,0.7c-0.1,0.2-0.3,0.4-0.4,0.3"/>
					<path class="st39" d="M37.4,45.3c-0.2,0.2-0.2,0.4-0.3,0.6c0,0.2,0.1,0.4,0.2,0.4c0.2,0.1,0.2,0,0.4-0.2l0.1-0.1
						c0.1-0.1,0.1-0.1,0.2-0.2"/>
					<path class="st39" d="M37.7,45.1c0,0.3,0.1,0.6,0.3,0.7"/>
					<path class="st39" d="M37.5,45.3c0.2,0.2,0.3,0.4,0.3,0.7"/>
					<path class="st39" d="M43.6,43c-0.1,0-0.1,0-0.2,0l-0.1,0.1c0,0.3-0.1,0.5-0.2,0.8V44"/>
					<path class="st39" d="M41.3,44.3c0.2,0.1,0.3,0.3,0.3,0.6c0,0.1-0.1,0.3-0.2,0.4c-0.1,0.1-0.2,0.1-0.3,0c0,0,0,0,0-0.1"/>
					<path class="st39" d="M38.7,45.1c0.2,0.2,0.3,0.4,0.3,0.7"/>
					<path class="st39" d="M39,44.9c0,0.2,0,0.4,0.1,0.5c0.1,0.1,0.1,0.1,0.2,0.2"/>
					<path class="st39" d="M45.2,41.5c0,0.2,0,0.3,0,0.5c0,0.1,0,0.1,0,0.2"/>
					<path class="st39" d="M43.4,43L43.4,43c-0.1-0.1-0.1-0.2-0.2-0.1c-0.1,0-0.2,0.1-0.3,0.3c-0.2,0.4-0.1,0.7,0.1,0.8
						c0.2,0.1,0.4,0.1,0.6-0.1c0.1,0,0.1-0.1,0.2-0.1"/>
					<path class="st39" d="M41.5,44.1c0,0.2,0.1,0.5,0.3,0.6"/>
					<path class="st39" d="M40.3,44.5c-0.1,0.1-0.2,0.1-0.2,0.2c0,0,0,0.1-0.1,0c-0.1,0-0.1,0-0.2-0.1c0,0-0.1,0-0.1-0.1
						c-0.1-0.2-0.4-0.1-0.5,0.1c-0.1,0.1-0.1,0.2-0.2,0.2c-0.1,0-0.3,0.1-0.4,0.1c-0.1,0-0.1-0.1-0.2-0.1c-0.1-0.2-0.4-0.1-0.4,0.1"
						/>
					<path class="st39" d="M42.5,43.7c0.2,0.1,0.3,0.3,0.3,0.6"/>
					<path class="st39" d="M37.4,45.2c-0.1-0.1-0.2-0.1-0.3-0.2L37,44.9c-0.1-0.1-0.2-0.2-0.3-0.1c-0.1,0-0.2,0-0.2,0.2"/>
					<path class="st39" d="M44,42.5c0,0.2,0.1,0.4,0.3,0.5h0.1c0.1-0.3,0.3-0.6,0.3-1l0,0"/>
					<path class="st39" d="M38.9,45.9c0,0.1-0.1,0.2-0.2,0.2c-0.1,0-0.2,0-0.3-0.1"/>
					<path class="st39" d="M43.7,43c0.2,0.1,0.3,0.3,0.3,0.5l0,0c-0.1,0.1-0.1,0.3-0.2,0.4c-0.1,0.1-0.2,0.2-0.3,0.2
						c-0.1,0-0.1,0-0.1-0.1"/>
					<path class="st39" d="M42.7,44.5c0,0.2-0.1,0.2-0.2,0.3c-0.1,0.1-0.2,0-0.2-0.1"/>
					<path class="st39" d="M40,44.8c0.2,0.1,0.3,0.4,0.3,0.6"/>
					<path class="st39" d="M40.9,44.2c-0.2,0.1-0.3,0.1-0.5,0.2"/>
					<path class="st39" d="M44.9,42c0.1,0,0.2,0.1,0.2,0.2l0.1,0.1"/>
					<path class="st39" d="M36.1,45.2C36.4,45,36.7,45,37,45"/>
					<path class="st39" d="M41.4,45.1c-0.1,0-0.1,0.1-0.2,0.1c-0.2,0.1-0.4,0.1-0.6,0"/>
					<path class="st39" d="M39.6,44.7c-0.2,0-0.3,0.1-0.5,0.1"/>
					<path class="st39" d="M38.3,44.9c-0.1,0-0.1,0-0.2,0c-0.3,0-0.5,0.1-0.7,0.3"/>
					<path class="st39" d="M37.7,46.1c-0.2,0-0.3,0-0.5,0"/>
					<path class="st39" d="M43.3,43c-0.1,0.1-0.3,0.2-0.4,0.2"/>
					<path class="st39" d="M40.2,45.6c-0.1,0-0.3,0.1-0.4,0.1"/>
					<path class="st39" d="M39.3,45.6c-0.1,0.1-0.3,0.3-0.4,0.3c-0.3,0.1-0.6,0.1-0.8-0.1"/>
					<path class="st39" d="M42.1,43.7c-0.1,0.1-0.3,0.1-0.4,0.2"/>
					<path class="st39" d="M45,42.9c-0.1,0.1-0.3,0.2-0.4,0.3"/>
					<path class="st39" d="M43,44c-0.1,0.1-0.1,0.2-0.2,0.3c0,0-0.1,0-0.1,0.1c-0.1,0.1-0.1,0.2-0.2,0.2c-0.2,0.1-0.5,0.3-0.7,0.2"
						/>
					<path class="st39" d="M44.3,43.2c-0.1,0.1-0.2,0.2-0.2,0.3"/>
					<path class="st39" d="M42.7,43.4L42.7,43.4c-0.1,0.1-0.2,0.2-0.3,0.3c-0.1,0-0.2,0-0.3,0l0,0"/>
					<path class="st39" d="M36.8,45.9c0.1,0.1,0.1,0.2,0.3,0.1"/>
					<path class="st39" d="M36.8,45.9c-0.1,0.1-0.1,0.2-0.3,0.1"/>
					<path class="st39" d="M44.8,42c-0.1,0-0.2,0-0.3,0.1"/>
					<path class="st39" d="M41.8,44.7c-0.1,0.1-0.2,0.2-0.2,0.2"/>
					<path class="st39" d="M44.3,43.1c0.1,0,0.2,0,0.3,0"/>
					<path class="st39" d="M39.4,45.6c0.1,0,0.1,0.1,0.2,0.1"/>
				</g>
				<g>
					<path class="st39" d="M27.9,41.3c0,0.1,0,0.2,0,0.3c0,0.2,0,0.3,0.1,0.5c0.1,0.2,0.1,0.2,0.2,0.1"/>
					<path class="st39" d="M28,41.2c0.3,0.3,0.6,0.6,0.8,1.1c0.1,0.3,0.2,0.5,0.1,0.8"/>
					<path class="st39" d="M31,43.7c0.1,0.2,0.2,0.4,0.2,0.6c0,0.1,0,0.3,0,0.4"/>
					<path class="st39" d="M28.9,42c0-0.1,0.1-0.1,0.2,0s0.2,0.1,0.2,0.3c0,0.1,0.1,0.2,0.2,0.3c0.3,0.4,0.5,0.8,0.5,1.3
						c0,0,0,0,0,0.1"/>
					<path class="st39" d="M32.5,44.3c0,0.3,0.1,0.6,0.3,0.9"/>
					<path class="st39" d="M32.3,44.3c0.2,0.3,0.3,0.6,0.3,0.9"/>
					<path class="st39" d="M33.5,44.8c0.1,0.2,0.3,0.4,0.3,0.7c0,0.1-0.1,0.3-0.2,0.3c-0.1,0-0.3-0.1-0.3-0.2s-0.1-0.2-0.2-0.3
						c-0.1,0-0.1-0.1-0.2-0.2"/>
					<path class="st39" d="M32.9,45.2c0.2-0.1,0.3-0.3,0.3-0.6c0-0.1-0.1-0.3-0.2-0.4c-0.2-0.1-0.2-0.1-0.3,0c0,0-0.1,0-0.2,0
						s-0.2,0.1-0.2,0c-0.1,0-0.1-0.2-0.2-0.2c-0.1-0.1-0.2-0.1-0.2-0.3c0-0.1-0.3-0.3-0.4-0.2c-0.1,0-0.2,0.2-0.2,0.3
						c0,0.3,0.1,0.5,0.3,0.8"/>
					<path class="st39" d="M34.8,45.1c0.2,0.2,0.3,0.5,0.3,0.8"/>
					<path class="st39" d="M35.1,45c0,0.1,0,0.2,0,0.3c0,0.2,0.1,0.3,0.2,0.5"/>
					<path class="st39" d="M33.8,44.7c0,0.3,0.1,0.6,0.3,0.8"/>
					<path class="st39" d="M28.2,41.3c0-0.1,0-0.1,0-0.2L28.1,41c0,0,0,0,0,0.1v0.1L28.2,41.3c-0.1,0.2,0,0.4,0,0.5
						c0,0.1,0,0.1,0.1,0.2c0.1,0.2,0.2,0.5,0.3,0.7c0.1,0.2,0.3,0.4,0.4,0.3"/>
					<path class="st39" d="M36.2,45.3c0.2,0.2,0.2,0.4,0.3,0.6c0,0.2-0.1,0.4-0.2,0.4c-0.2,0.1-0.2,0-0.4-0.2L35.7,46
						c-0.1-0.1-0.1-0.1-0.2-0.2"/>
					<path class="st39" d="M35.7,45.1c0,0.3-0.1,0.6-0.3,0.7"/>
					<path class="st39" d="M36.1,45.3c-0.2,0.2-0.3,0.4-0.3,0.7"/>
					<path class="st39" d="M29.8,43c0.1,0,0.1,0,0.2,0l0.1,0.1c0,0.3,0.1,0.5,0.2,0.8V44"/>
					<path class="st39" d="M32.2,44.3c-0.2,0.1-0.3,0.3-0.3,0.6c0,0.1,0.1,0.3,0.2,0.4c0.1,0.1,0.2,0.1,0.3,0c0,0,0,0,0-0.1"/>
					<path class="st39" d="M34.7,45.1c-0.2,0.2-0.3,0.4-0.3,0.7"/>
					<path class="st39" d="M34.5,44.9c0,0.2,0,0.4-0.1,0.5c-0.1,0.1-0.1,0.1-0.2,0.2"/>
					<path class="st39" d="M28.3,41.5c0,0.2,0,0.3,0,0.5c0,0.1,0,0.1,0,0.2"/>
					<path class="st39" d="M30.1,43L30.1,43c0.1-0.1,0.1-0.2,0.2-0.1c0.1,0,0.2,0.1,0.3,0.3c0.2,0.4,0.1,0.7-0.1,0.8
						s-0.4,0.1-0.6-0.1c-0.1,0-0.1-0.1-0.2-0.1"/>
					<path class="st39" d="M32,44.1c0,0.2-0.1,0.5-0.3,0.6"/>
					<path class="st39" d="M33.2,44.5c0.1,0.1,0.2,0.1,0.2,0.2c0,0,0,0.1,0.1,0c0.1,0,0.1,0,0.2-0.1c0,0,0.1,0,0.1-0.1
						c0.1-0.2,0.4-0.1,0.5,0.1c0.1,0.1,0.1,0.2,0.2,0.2c0.1,0,0.3,0.1,0.4,0.1c0.1,0,0.1-0.1,0.2-0.1c0.1-0.2,0.4-0.1,0.4,0.1"/>
					<path class="st39" d="M31,43.7c-0.2,0.1-0.3,0.3-0.3,0.6"/>
					<path class="st39" d="M29.5,42.5c0,0.2-0.1,0.4-0.3,0.5h-0.1c-0.1-0.3-0.3-0.6-0.3-1l0,0"/>
					<path class="st39" d="M34.5,45.9c0,0.1,0.1,0.2,0.2,0.2c0.1,0,0.2,0,0.3-0.1"/>
					<path class="st39" d="M29.7,43c-0.2,0.1-0.3,0.3-0.3,0.5l0,0c0.1,0.1,0.1,0.3,0.2,0.4c0.1,0.1,0.2,0.2,0.3,0.2
						c0.1,0,0.1,0,0.1-0.1"/>
					<path class="st39" d="M30.8,44.5c0,0.2,0.1,0.2,0.2,0.3c0.1,0.1,0.2,0,0.2-0.1"/>
					<path class="st39" d="M33.5,44.8c-0.2,0.1-0.3,0.4-0.3,0.6"/>
					<path class="st39" d="M32.6,44.2c0.2,0.1,0.3,0.1,0.5,0.2"/>
					<path class="st39" d="M28.6,42c-0.1,0-0.2,0.1-0.2,0.2l-0.1,0.1"/>
					<path class="st39" d="M32,45.1c0.1,0,0.1,0.1,0.2,0.1c0.2,0.1,0.4,0.1,0.6,0"/>
					<path class="st39" d="M33.9,44.7c0.2,0,0.3,0.1,0.5,0.1"/>
					<path class="st39" d="M35.2,44.9c0.1,0,0.1,0,0.2,0c0.3,0,0.5,0.1,0.7,0.3"/>
					<path class="st39" d="M35.8,46.1c0.2,0,0.3,0,0.5,0"/>
					<path class="st39" d="M30.2,43c0.1,0.1,0.3,0.2,0.4,0.2"/>
					<path class="st39" d="M33.3,45.6c0.1,0,0.3,0.1,0.4,0.1"/>
					<path class="st39" d="M34.2,45.6c0.1,0.1,0.3,0.3,0.4,0.3c0.3,0.1,0.6,0.1,0.8-0.1"/>
					<path class="st39" d="M31.4,43.7c0.1,0.1,0.3,0.1,0.4,0.2"/>
					<path class="st39" d="M28.4,42.9c0.1,0.1,0.3,0.2,0.4,0.3"/>
					<path class="st39" d="M30.4,44c0.1,0.1,0.1,0.2,0.2,0.3c0,0,0.1,0,0.1,0.1c0.1,0.1,0.1,0.2,0.2,0.2c0.2,0.1,0.5,0.3,0.7,0.2"/>
					<path class="st39" d="M29.2,43.2c0.1,0.1,0.2,0.2,0.2,0.3"/>
					<path class="st39" d="M30.7,43.4L30.7,43.4c0.1,0.1,0.2,0.2,0.3,0.3c0.1,0,0.2,0,0.3,0l0,0"/>
					<path class="st39" d="M28.7,42c0.1,0,0.2,0,0.3,0.1"/>
					<path class="st39" d="M31.7,44.7c0.1,0.1,0.2,0.2,0.2,0.2"/>
					<path class="st39" d="M29.1,43.1c-0.1,0-0.2,0-0.3,0"/>
					<path class="st39" d="M34.1,45.6c-0.1,0-0.1,0.1-0.2,0.1"/>
				</g>
			</g>
		</g>
	</g>
	
		<radialGradient id="SVGID_12_" cx="37.3503" cy="1051.5223" r="0.398" gradientTransform="matrix(1 0 0 1 0 -1016.1947)" gradientUnits="userSpaceOnUse">
		<stop  offset="0.633" style="stop-color:#EDEDED"/>
		<stop  offset="0.9955" style="stop-color:#B2B2B2"/>
	</radialGradient>
	<circle class="st36" cx="37.4" cy="35.3" r="0.4"/>
	
		<radialGradient id="SVGID_13_" cx="22.2389" cy="1038.8887" r="0.2412" gradientTransform="matrix(1 0 0 1 0 -1016.1947)" gradientUnits="userSpaceOnUse">
		<stop  offset="0.633" style="stop-color:#EDEDED"/>
		<stop  offset="0.9955" style="stop-color:#B2B2B2"/>
	</radialGradient>
	<circle class="st37" cx="22.2" cy="22.7" r="0.2"/>
	
		<radialGradient id="SVGID_14_" cx="22.7779" cy="1039.8782" r="0.2412" gradientTransform="matrix(1 0 0 1 0 -1016.1947)" gradientUnits="userSpaceOnUse">
		<stop  offset="0.633" style="stop-color:#EDEDED"/>
		<stop  offset="0.9955" style="stop-color:#B2B2B2"/>
	</radialGradient>
	<circle class="st40" cx="22.7" cy="23.7" r="0.2"/>
	
		<radialGradient id="SVGID_15_" cx="23.5099" cy="1040.7389" r="0.241" gradientTransform="matrix(1 0 0 1 0 -1016.1947)" gradientUnits="userSpaceOnUse">
		<stop  offset="0.633" style="stop-color:#EDEDED"/>
		<stop  offset="0.9955" style="stop-color:#B2B2B2"/>
	</radialGradient>
	<circle class="st41" cx="23.5" cy="24.5" r="0.2"/>
	
		<radialGradient id="SVGID_16_" cx="24.5477" cy="1041.4468" r="0.2412" gradientTransform="matrix(1 0 0 1 0 -1016.1947)" gradientUnits="userSpaceOnUse">
		<stop  offset="0.633" style="stop-color:#EDEDED"/>
		<stop  offset="0.9955" style="stop-color:#B2B2B2"/>
	</radialGradient>
	<circle class="st42" cx="24.6" cy="25.2" r="0.2"/>
	<g>
		<path class="st20" d="M25.1,17.6c-0.6-0.6-1.5-1.2-2.5-1.2c-0.5,0-0.9,0.7-1.1,1.7l3.5,0.7L25.1,17.6z"/>
	</g>
	<g>
		
			<radialGradient id="SVGID_17_" cx="36.4871" cy="1064.8273" r="0.3234" gradientTransform="matrix(1 0 0 1 0 -1016.1947)" gradientUnits="userSpaceOnUse">
			<stop  offset="0" style="stop-color:#DADADA"/>
			<stop  offset="0.9955" style="stop-color:#B2B2B2"/>
		</radialGradient>
		
			<circle style="fill:none;stroke:url(#SVGID_17_);stroke-width:0.1008;stroke-linecap:round;stroke-miterlimit:10;" cx="36.5" cy="48.6" r="0.3"/>
		
			<radialGradient id="SVGID_18_" cx="36.4871" cy="1064.3528" r="0.2656" gradientTransform="matrix(1 0 0 1 0 -1016.1947)" gradientUnits="userSpaceOnUse">
			<stop  offset="0" style="stop-color:#DADADA"/>
			<stop  offset="0.9955" style="stop-color:#B2B2B2"/>
		</radialGradient>
		
			<line style="fill:none;stroke:url(#SVGID_18_);stroke-width:0.1008;stroke-linecap:round;stroke-miterlimit:10;" x1="36.5" y1="47.8" x2="36.5" y2="48.5"/>
		<g>
			<g>
				
					<radialGradient id="SVGID_19_" cx="36.5413" cy="1065.8977" r="0.9772" gradientTransform="matrix(1 0 0 1 0 -1016.1947)" gradientUnits="userSpaceOnUse">
					<stop  offset="0" style="stop-color:#DADADA"/>
					<stop  offset="0.9955" style="stop-color:#B2B2B2"/>
				</radialGradient>
				<path style="fill:url(#SVGID_19_);" d="M37.5,49.7L37.5,49.7c0,0-0.1-0.1-0.1-0.2l0,0l-0.1-0.1l-0.7-0.7l0,0
					c-0.1,0-0.3,0.2-0.5,0.5c-0.2,0.2-0.3,0.5-0.3,0.6l0,0l0.2,0.1l0,0l0,0l0,0l0,0l0,0L35.8,50c0,0.1,0,0.2,0,0.3
					c0.1,0.2,0.4,0.3,0.6,0.2l0,0l0,0l0,0l0,0c0.1,0,0.1-0.1,0.1-0.1s0,0,0-0.1l0,0l0,0l0,0l0,0h0.1l0,0l0,0l0,0c0,0,0.1,0,0.1,0.1
					c0,0,0.1,0,0.2-0.1l0,0l0,0l0,0l0.1-0.1l0,0l0,0c0-0.1,0.1-0.1,0.1-0.2c0,0,0,0,0-0.1C37.5,49.9,37.5,49.9,37.5,49.7
					C37.5,49.8,37.5,49.8,37.5,49.7C37.5,49.8,37.5,49.8,37.5,49.7C37.5,49.8,37.5,49.8,37.5,49.7C37.5,49.8,37.5,49.8,37.5,49.7
					L37.5,49.7L37.5,49.7z M36.4,50.5L36.4,50.5c-0.2,0.1-0.4,0-0.5,0c-0.1-0.1-0.1-0.1,0-0.2l0,0c0,0,0,0,0.1,0l0,0l0,0L36.4,50.5
					C36.4,50.4,36.4,50.5,36.4,50.5z"/>
			</g>
		</g>
	</g>
	<path class="st48" d="M35.6,36.5c0.8-0.2,1.7-0.3,2.5-0.3c0.3,0,0.6,0,0.8,0.2"/>
	<g class="st49">
		<g>
			<path class="st8" d="M43.7,31.6L43.7,31.6c-0.2-0.1-0.2-0.2-0.2-0.3c0.3-0.6,0.6-1.1,0.5-1.7c0-0.2-0.2-0.4-0.3-0.6l-1-1.9
				c-0.1-0.1,0-0.3,0.1-0.3c0.1-0.1,0.3,0,0.3,0.1l1,1.9c0.1,0.2,0.2,0.5,0.3,0.7c0.1,0.7-0.2,1.4-0.6,2
				C43.9,31.6,43.8,31.6,43.7,31.6z"/>
		</g>
	</g>
	<path class="st50" d="M16,73.2h40.8c0.2-1.1,0.5-2.2,0.6-3.2c0.8-4.6-1.8-8.7-3.6-11.5s-2.4-6.4-2.4-6.4l1-6c0,0-0.1-0.3-0.8-0.5
		c-0.7-0.2-1.1,0-1.1,0l-0.7,4.2c-0.3,1.6-1.2,3-2.4,4c-2,1.6-5.4,3.6-10,3.6h-1.5c-4.7,0-8.3-2.1-10.2-3.7
		c-1.1-0.9-1.9-2.2-2.2-3.6l-0.9-4.4c0,0-0.4-0.2-1.1,0c-0.7,0.2-0.8,0.5-0.8,0.5l1,6c0,0-0.7,3.4-2.5,6.4
		c-1.8,2.9-4.3,6.9-3.5,11.5C15.6,70.9,15.8,72,16,73.2z"/>
</g>
</svg>
