<?xml version="1.0" encoding="utf-8"?>
<!-- Generator: Adobe Illustrator 25.2.3, SVG Export Plug-In . SVG Version: 6.00 Build 0)  -->
<svg version="1.1" id="Layer_1" xmlns="http://www.w3.org/2000/svg" xmlns:xlink="http://www.w3.org/1999/xlink" x="0px" y="0px"
	 viewBox="0 0 81.9 78" style="enable-background:new 0 0 81.9 78;" xml:space="preserve">
<style type="text/css">
	.st0{fill:#FFC050;}
	.st1{fill:#E0A038;}
	.st2{fill:#E2A139;}
	.st3{fill:#F5A88D;}
	.st4{fill:#D8967D;}
	.st5{fill:#343633;}
	.st6{fill:#FFFFFC;}
	.st7{opacity:0.2;}
	.st8{fill:#7C483C;}
	.st9{fill:#D08061;}
	.st10{fill:#B37658;}
	.st11{fill:#DDA06F;}
	.st12{opacity:0.3;enable-background:new    ;}
	.st13{clip-path:url(#SVGID_2_);fill:#D8967D;}
	.st14{fill:#2B3A6D;}
	.st15{opacity:0.5;fill:url(#SVGID_3_);enable-background:new    ;}
	.st16{opacity:0.5;fill:url(#SVGID_4_);enable-background:new    ;}
	
		.st17{opacity:5.000000e-02;fill:none;stroke:#7C483C;stroke-width:0.4743;stroke-linecap:round;stroke-miterlimit:10;enable-background:new    ;}
	.st18{opacity:0.3;fill:#CD805F;enable-background:new    ;}
	.st19{opacity:0.15;}
	.st20{fill:#FFFFFF;}
</style>
<path class="st0" d="M23.9,78c0.3-6.5,0.2-12.1,0.1-15.9c-0.2-3.4-5-8.6-8.5-8.3c-4,0.4-5.6,2.9-8,5.7C3.7,63.7,0.3,68.7,0.2,78
	H23.9z"/>
<path class="st1" d="M0.4,78c0.1-9.5,3.7-14.4,7.2-18.3c0.3-0.4,0.6-0.7,0.9-1.1c1.9-2.3,3.6-4.2,6.9-4.5c0.1,0,0.2,0,0.3,0
	c1.3,0,2.8,0.7,4.3,2c2.1,1.8,3.6,4.3,3.7,6c0.2,4.4,0.2,9.9,0,15.9h0.5c0.3-6.1,0.3-11.7,0.1-15.9c-0.1-1.9-1.6-4.5-3.8-6.4
	c-1.7-1.5-3.5-2.3-5-2.1c-3.6,0.3-5.3,2.4-7.3,4.7c-0.3,0.3-0.6,0.7-0.9,1c-3.5,4-7.1,9-7.3,18.7H0.4z"/>
<g id="XMLID_61_">
	<path class="st2" d="M55.7,41.6c0.9,2.4-6.7,5.5-15.1,5.5c-8.5,0-16.7-3.3-15.3-5.5c1.2-2,6.8-0.6,15.3-0.6
		C49,41,54.5,38.3,55.7,41.6z"/>
	<path class="st1" d="M40.5,47.4c-7.3,0-14.3-2.5-15.5-4.6c-0.3-0.5-0.3-0.9,0-1.3c0.9-1.4,3.5-1.3,7.9-1c2.2,0.1,4.7,0.3,7.6,0.3
		c3.1,0,5.8-0.4,8-0.7c4-0.5,6.6-0.9,7.4,1.4c0.2,0.5,0.1,1-0.3,1.5C54.1,45.1,48,47.4,40.5,47.4z M28.8,40.8
		c-1.8,0-2.9,0.2-3.4,0.9c-0.2,0.2-0.1,0.5,0,0.8c1.1,2,8.1,4.3,15.1,4.3s13.3-2.1,14.7-4.1c0.3-0.4,0.3-0.7,0.2-1.1
		c-0.7-1.9-3-1.6-6.9-1.1c-2.2,0.3-5,0.7-8.1,0.7c-2.9,0-5.4-0.2-7.6-0.3C31.3,40.9,29.9,40.8,28.8,40.8z"/>
</g>
<path class="st3" d="M53.2,52.9c0,0-6.5,5.2-12.7,5.3c-6.8,0.1-13.2-5.1-10.8-6.8c1.8-1.3,2.5-4.2,2.7-7.2c0.3-4.5-0.7-9.3-0.7-9.3
	s1.3-0.7,3.2-1.5c5.3-2.3,15.1-5.5,14.5,1.8C48.5,45.2,53.2,52.9,53.2,52.9z"/>
<path class="st0" d="M70.5,78c-1.2-13.4-3.1-24.1-5.1-25.5c-2.3-1.6-11.1-4.2-14.9-4.4c-3.4,8.3-16.8,8.3-20.1,0
	c0.5-0.2-12.1,3.6-16.6,6c-0.1,0.3-1.6,10.7-2.9,23.9H70.5z"/>
<path class="st4" d="M49.3,38.1c0,0-4.8,17-16.9,7.7c0.3-4.5-1-10.7-1-10.7s1.6,0.7,3.5-0.1L49.3,38.1z"/>
<path class="st1" d="M11.2,78c1.2-12.5,2.6-22.5,2.8-23.7c4.2-2.1,14.5-5.3,16.2-5.9c1.7,3.8,5.5,6.2,10.2,6.2s8.6-2.4,10.3-6.2
	c3.8,0.2,12.3,2.7,14.6,4.3c1.8,1.3,3.7,11.8,5,25.3h0.5c-1.2-13.3-3.1-24.3-5.2-25.7c-2.4-1.7-11.2-4.3-15-4.4h-0.2L50.2,48
	c-1.8,4.5-6.3,6.1-9.8,6.1l0,0c-3.5,0-7.9-1.6-9.7-6V48l-0.1-0.1c0,0-0.1,0-0.2,0l0,0l0,0l0,0L30.1,48c-2.6,0.6-13.3,4.3-16.4,5.9
	L13.5,54v0.1c-0.1,0.3-1.6,10.7-2.9,23.9H11.2z"/>
<g id="XMLID_57_">
	<path class="st0" d="M22.8,51.6c-2.4-2.5-1.1-5.7,4.2-4.7c0.4,0.1,0.7-0.2,0.7-0.6c0-1.2-3.9-4.6-2.1-4.9
		c4.6-0.7,12.3,12.9,14.8,12.9c3.1,0,4.7-6.7,6.5-9c0.7-0.8,6.4-7.4,8.4-4.7c1.1,1.5,0,2.9,0.5,4.6c0.5,1.7,1.9-1.7,3.4-0.3
		c2,1.8,1.7,5.2,0,7.3C53.7,59.2,29.1,58.4,22.8,51.6z"/>
	<path class="st1" d="M42.7,57.4c-7.5,0-16.4-1.7-20.1-5.6c-1.2-1.3-1.5-2.7-0.9-3.8c0.8-1.4,2.7-1.8,5.4-1.3c0.1,0,0.2,0,0.3-0.1
		c0,0,0.1-0.1,0.1-0.2c0-0.4-0.6-1.2-1.2-2c-0.9-1.1-1.6-2.1-1.3-2.8c0.1-0.3,0.3-0.4,0.7-0.5c2.8-0.4,6.6,4.1,9.9,8
		c2,2.4,4.1,4.9,5,4.9c1.9,0,3.3-2.9,4.4-5.5c0.6-1.4,1.2-2.6,1.9-3.4c0-0.1,4.6-5.5,7.3-5.4c0.6,0,1.1,0.3,1.4,0.8
		c0.7,0.9,0.6,1.8,0.5,2.7c-0.1,0.6-0.1,1.3,0.1,2c0.1,0.3,0.2,0.3,0.2,0.3c0.1,0,0.4-0.2,0.6-0.4c0.6-0.5,1.5-1.2,2.5-0.3
		c2.1,2,1.7,5.6,0,7.7c-2.3,2.8-7.8,4.6-15.1,4.9C43.8,57.4,43.3,57.4,42.7,57.4z M25.1,47c-1.5,0-2.5,0.4-3,1.2
		c-0.5,0.9-0.2,2.1,0.8,3.2c3.3,3.5,12.1,5.7,21.4,5.4c7-0.3,12.5-2,14.7-4.7c1.5-1.9,1.9-5.2,0-6.9c-0.6-0.5-1.1-0.2-1.8,0.4
		c-0.4,0.3-0.8,0.6-1.1,0.5c-0.2-0.1-0.4-0.3-0.5-0.7c-0.2-0.8-0.2-1.6-0.1-2.2c0.1-0.8,0.2-1.6-0.4-2.3c-0.3-0.4-0.6-0.5-1-0.6
		c0,0,0,0-0.1,0c-2.1,0-5.7,3.9-6.8,5.2c-0.6,0.7-1.2,2-1.8,3.3c-1.3,2.7-2.7,5.8-4.9,5.8c-1.1,0-2.8-1.9-5.4-5.1
		c-3.1-3.7-6.9-8.2-9.4-7.8c-0.1,0-0.2,0.1-0.3,0.1c-0.1,0.4,0.7,1.5,1.3,2.2c0.7,0.9,1.3,1.7,1.3,2.3c0,0.3-0.1,0.5-0.3,0.6
		c-0.2,0.2-0.5,0.2-0.7,0.2C26.3,47.1,25.7,47,25.1,47z"/>
</g>
<g id="XMLID_56_">
	<path class="st1" d="M41.2,55.8c-4.2,0-7.2-3-9.9-5.6c-1-1-2-2-3-2.7c-0.1-0.1-0.1-0.3-0.1-0.4c0.1-0.1,0.3-0.1,0.4-0.1
		c1,0.7,2,1.7,3,2.7c2.6,2.5,5.5,5.4,9.5,5.4c0.1,0,0.2,0,0.3,0C45.4,55,50,52,55.3,46c0.1-0.1,0.3-0.1,0.4,0c0.1,0.1,0.1,0.3,0,0.4
		c-5.4,6.1-10.1,9.1-14.3,9.2C41.3,55.8,41.2,55.8,41.2,55.8z"/>
</g>
<g id="XMLID_51_">
	<g id="XMLID_55_">
		<path class="st5" d="M37.9,57.1c-2.3,0-1.3-2.9-0.3-2.9C39.9,54.1,39.4,57.1,37.9,57.1z"/>
		<path class="st5" d="M37.9,57.3c-0.6,0-1-0.2-1.3-0.5s-0.4-0.6-0.4-1c0-0.9,0.6-1.9,1.4-1.9c0.6,0,1,0.2,1.3,0.5s0.4,0.7,0.4,1.1
			C39.4,56.4,38.9,57.3,37.9,57.3z M37.7,54.4c-0.4,0-0.9,0.8-0.9,1.4c0,0.2,0,0.5,0.2,0.7s0.5,0.3,0.9,0.3c0.6,0,1-0.7,1-1.3
			c0-0.3-0.1-0.6-0.3-0.8C38.4,54.5,38.1,54.4,37.7,54.4z"/>
	</g>
	<g id="XMLID_54_">
		<path class="st5" d="M44.6,56.6c2.3,0,1.3-2.9,0.3-2.9C42.7,53.7,43.1,56.6,44.6,56.6z"/>
		<path class="st5" d="M44.6,56.8c-0.9,0-1.5-0.9-1.5-1.8c0-0.4,0.1-0.8,0.4-1.1c0.3-0.3,0.8-0.5,1.3-0.5c0.8,0,1.4,1.1,1.4,1.9
			c0,0.4-0.1,0.8-0.4,1C45.6,56.7,45.2,56.8,44.6,56.8z M44.9,53.9c-0.4,0-0.8,0.1-1,0.4c-0.2,0.2-0.3,0.5-0.3,0.8
			c0,0.6,0.4,1.3,1,1.3c0.4,0,0.7-0.1,0.9-0.3s0.2-0.5,0.2-0.7C45.8,54.7,45.3,53.9,44.9,53.9z"/>
	</g>
	<path id="XMLID_53_" class="st6" d="M38.2,58.9c-1.5,3.2-1.1,22.7-2.3,12.5c-0.7-5.8-0.4-7.1-0.2-8c1.8-8.7,0.3-9.4,2.8-8.2
		C39.2,55.5,39.1,57,38.2,58.9z"/>
	<path id="XMLID_52_" class="st6" d="M44.3,58.5c1.5,3.2,1.1,22.7,2.3,12.5c0.7-5.8,0.4-7.1,0.2-8c-1.8-8.7-0.3-9.4-2.8-8.2
		C43.3,55.1,43.4,56.6,44.3,58.5z"/>
</g>
<g id="XMLID_49_">
	<path class="st3" d="M51.5,10.8c-6.4-8.9-21.4-6.7-23.2,7c-1.7,13.6,4.9,22.7,8.5,24.5c3.2,1.6,7,2.2,9.9,0.2
		C54.4,37.4,57.3,18.9,51.5,10.8z"/>
</g>
<g id="XMLID_42_">
	<g id="XMLID_47_">
		<g id="XMLID_48_">
			<path class="st3" d="M26.9,23.9c2.8-0.7,3.1,4.7,3.1,7.4C30.2,36.6,22.5,25.1,26.9,23.9z"/>
		</g>
	</g>
	<g id="XMLID_45_">
		<g id="XMLID_46_">
			<path class="st3" d="M55.6,23.9c-2.8-0.7-3.1,4.7-3.1,7.4C52.4,36.6,60.1,25.1,55.6,23.9z"/>
		</g>
	</g>
	<g id="XMLID_43_" class="st7">
		<g id="XMLID_44_">
			<path class="st8" d="M55.4,26.6c-0.1-0.2-0.4-0.1-0.4,0.1c0.5,1.5,0,2.4-0.6,2.7c-0.1,0.1-0.1,0.2-0.1,0.3
				C54.7,30.3,56,28.7,55.4,26.6z"/>
		</g>
	</g>
</g>
<g id="XMLID_40_">
	<path class="st9" d="M31.8,17.1c0.2-0.4,0.3-0.9,0.6-1.2c0.8-1.1,2.5-0.8,3.7-1.4c0.8-0.4,1.6-1.3,2.4-1c0.6,0.2,1,1,1.7,1.1
		c0.6,0.1,1.2-0.5,1.8-0.2c0.6,0.2,1.1,2,3.5,1.3c3.9-1.2,6.4,0.4,6.7,1.2c1.1,2.6,1.6,6,1.7,9.2c0,0.5,0.5,0.1,0.6-0.4
		c0.9-3.8,3.2-6.1,3.2-14.3c0-3.5-1.5-6.7-4.8-7.9c-1.9-0.7-5,0.4-6.3-1.7c-1.7-2.8-5.9-1.7-8.3-0.9c-2.7,0.9-5.2,0.4-6,1.4
		c-0.8,0.9,1.1,3.8-2.1,3.6c-3-0.1-4.3,3.4-2.4,5.3c-3.4-0.2-2,5.8-1.9,6.8c0.6,6.2,1.9,4.2,3,8.2c0.1,0.5,0.3,0.5,0.4,0
		C30,20.8,31.2,18.4,31.8,17.1z"/>
</g>
<g id="XMLID_9_">
	<g id="XMLID_38_">
		<g id="XMLID_39_">
			<path class="st10" d="M35.1,12.2c-0.8-2-1.7-4.6-3.8-5.4c-1.1-0.4,1.4-1.5,3.5,3.2c-0.3-1.8-2-3.4-2.1-5.3c0-0.3,0.5-0.4,0.5,0
				C33.3,7.4,35.8,8.3,35.1,12.2z"/>
		</g>
	</g>
	<g id="XMLID_36_">
		<g id="XMLID_37_">
			<path class="st10" d="M31.6,16.5c-0.1,0-0.2-0.1-0.2-0.3c0-1.7-1.1-3.9-3.2-4.5c-0.3-0.1-0.2-0.6,0.1-0.5
				C31.6,12.2,32.3,16.5,31.6,16.5z"/>
		</g>
	</g>
	<g id="XMLID_34_">
		<g id="XMLID_35_">
			<path class="st11" d="M34.1,12.7c-0.1,0-0.2-0.1-0.2-0.3c0-1.7-1.1-3.9-3.2-4.5c-0.3-0.1-0.2-0.6,0.1-0.5
				C34.1,8.5,34.8,12.7,34.1,12.7z"/>
		</g>
	</g>
	<g id="XMLID_32_">
		<g id="XMLID_33_">
			<path class="st11" d="M31.2,17.2c-0.1,0-0.3-0.1-0.3-0.2c-0.3-1.7-1.8-3.6-4-3.8c-0.3,0-0.3-0.5,0-0.5
				C30.4,13,31.9,17.1,31.2,17.2z"/>
		</g>
	</g>
	<g id="XMLID_30_">
		<g id="XMLID_31_">
			<path class="st10" d="M28.5,21.4c-1.6-1.9,0.1-4-1.4-5.8c-0.2-0.2,0.2-0.6,0.4-0.3c1.7,2,0,4.1,1.4,5.9
				C29.1,21.3,28.7,21.6,28.5,21.4z"/>
		</g>
	</g>
	<g id="XMLID_28_">
		<g id="XMLID_29_">
			<path class="st10" d="M55.4,15.1c0.1-0.3,0.6-0.2,0.5,0.1c-0.3,1.4-0.6,2.9-0.7,4.4C55.1,20.2,54.2,20.4,55.4,15.1z"/>
		</g>
	</g>
	<g id="XMLID_26_">
		<g id="XMLID_27_">
			<path class="st10" d="M51.6,15.2c-0.4-0.1-0.1-0.5,0.2-1.5c2.1-6.8,4.9-6.9,4.1-6.1c-2.7,2.8-2.6,3.2-4,7.4
				C51.9,15.2,51.7,15.2,51.6,15.2z"/>
		</g>
	</g>
	<g id="XMLID_24_">
		<g id="XMLID_25_">
			<path class="st10" d="M45.9,8.1c1.2-1.4,2.4-2.8,3.1-4c0.2-0.5,1.5-0.5-2.7,4.3c-1.6,1.9-3.3,3.8-3.6,5.5
				C42.5,14.3,40.2,14.6,45.9,8.1z"/>
		</g>
	</g>
	<g id="XMLID_22_">
		<g id="XMLID_23_">
			<path class="st10" d="M37.9,12.7c-0.9-2.9,4.2-8.5,4.8-7.9c0.1,0.1,0.1,0.3,0,0.3c-4.8,3.9-4.4,7.7-4.4,7.7
				C38.1,12.9,38,12.9,37.9,12.7z"/>
		</g>
	</g>
	<g id="XMLID_16_">
		<g id="XMLID_21_">
			<path class="st11" d="M38.7,13c-0.9-2.9,4.2-8.5,4.8-7.9c0.1,0.1,0.1,0.3,0,0.3c-4.8,3.9-4.4,7.7-4.4,7.7
				C38.9,13.2,38.8,13.2,38.7,13z"/>
		</g>
	</g>
	<g id="XMLID_12_">
		<g id="XMLID_15_">
			<path class="st10" d="M49.6,9.5c0.2-0.2,0.6,0.1,0.3,0.4c-0.6,0.5-1.9,2-2,3.7C47.9,14.5,46.2,12.8,49.6,9.5z"/>
		</g>
	</g>
	<g id="XMLID_10_">
		<g id="XMLID_11_">
			<path class="st10" d="M44.4,1.3c0.3,0,0.3,0.5,0,0.5c-4.2-0.2-7,0.7-8.5,2.9C34.9,6.1,35.4,0.8,44.4,1.3z"/>
		</g>
	</g>
</g>
<g class="st12">
	<g>
		<defs>
			<path id="SVGID_1_" d="M36.9,42.3c3.2,1.6,7,2.2,9.9,0.2c4.4-2.9,7.2-10.3,7.7-17.6c-0.1-0.2-0.1-0.4-0.2-0.6
				c-1.3,1.5-1,3.8-1.6,5.7c-0.3,0.7-2.4,5.7-5.2,7.7c-2.1,1.4-2.9-0.1-5.6,0c-1.9,0-3.8,1.8-6.4-0.2c-1.3-1-3.5-7-3.7-8.6
				c-0.1-0.4-0.1-0.9-0.2-1.3c-0.3-0.8-0.7-1.4-1.4-2l-1.9-0.1C29.2,34.7,34,40.9,36.9,42.3z"/>
		</defs>
		<clipPath id="SVGID_2_">
			<use xlink:href="#SVGID_1_"  style="overflow:visible;"/>
		</clipPath>
		<polygon class="st13" points="28.3,40.9 54.5,41.2 54.5,44.5 28.3,44.5 		"/>
		<polygon class="st13" points="28.3,30.3 54.5,30.6 54.5,41.2 28.3,40.9 		"/>
		<polygon class="st13" points="54.5,30.6 28.3,30.3 28.3,24.3 54.5,24.3 		"/>
	</g>
</g>
<g>
	<path class="st10" d="M37.5,20.9c0,0,0.9,0.1,0.8-0.7c-0.2-0.8-1.2-0.9-1.8-0.9c-3.5,0-4.3,0.1-5.3,2.1c-0.1,0.1,0,0.2,0.1,0.2
		C33.3,20.6,37.5,20.9,37.5,20.9z"/>
</g>
<g>
	<path class="st10" d="M45.4,20.9c0,0-0.9,0.1-0.8-0.7c0.2-0.8,1.2-0.9,1.8-0.9c3.5,0,4.3,0.1,5.3,2.1c0.1,0.1,0,0.2-0.1,0.2
		C49.6,20.6,45.4,20.9,45.4,20.9z"/>
</g>
<ellipse class="st14" cx="35.3" cy="24.3" rx="0.9" ry="1.4"/>
<ellipse class="st14" cx="47" cy="24.3" rx="0.9" ry="1.4"/>
<radialGradient id="SVGID_3_" cx="50.8413" cy="49.2203" r="5.0106" fx="49.5331" fy="49.2246" gradientTransform="matrix(1 0 0 -1 0 80.001)" gradientUnits="userSpaceOnUse">
	<stop  offset="0" style="stop-color:#D1675D;stop-opacity:0.3"/>
	<stop  offset="0.4967" style="stop-color:#C35A53;stop-opacity:0.151"/>
	<stop  offset="1" style="stop-color:#BA524D;stop-opacity:0"/>
</radialGradient>
<circle class="st15" cx="50.3" cy="31.3" r="4.5"/>
<radialGradient id="SVGID_4_" cx="34.1818" cy="49.2203" r="5.0106" fx="32.8735" fy="49.2246" gradientTransform="matrix(1 0 0 -1 0 80.001)" gradientUnits="userSpaceOnUse">
	<stop  offset="0" style="stop-color:#D1675D;stop-opacity:0.3"/>
	<stop  offset="0.4967" style="stop-color:#C35A53;stop-opacity:0.151"/>
	<stop  offset="1" style="stop-color:#BA524D;stop-opacity:0"/>
</radialGradient>
<circle class="st16" cx="33.6" cy="31.3" r="4.5"/>
<path class="st17" d="M40,39.7c0.8-0.2,1.7-0.3,2.5-0.3c0.3,0,0.6,0,0.8,0.2"/>
<g class="st7">
	<path class="st8" d="M41.2,30.7c-1,0-1.7-0.2-1.9-0.7c-0.3-0.7,0.2-1.5,0.2-1.5c0.1-0.1,0.2-0.1,0.3-0.1c0.1,0.1,0.1,0.2,0.1,0.3
		c-0.1,0.2-0.4,0.7-0.2,1s0.7,0.5,1.5,0.5c1.3,0,1.7-0.3,1.9-0.6c0.2-0.4-0.1-0.9-0.1-0.9c-0.1-0.1,0-0.3,0.1-0.3
		c0.1-0.1,0.3,0,0.3,0.1c0,0,0.5,0.8,0.2,1.4C43.2,30.4,42.4,30.7,41.2,30.7z"/>
</g>
<circle class="st18" cx="46.4" cy="27.9" r="0.5"/>
<circle class="st18" cx="49.5" cy="32.9" r="0.2"/>
<circle class="st18" cx="48.1" cy="29.8" r="0.2"/>
<circle class="st18" cx="45.6" cy="31.4" r="0.2"/>
<circle class="st18" cx="50.4" cy="33.5" r="0.2"/>
<circle class="st18" cx="50.8" cy="28.7" r="0.2"/>
<circle class="st18" cx="49.6" cy="31" r="0.2"/>
<circle class="st18" cx="34.5" cy="29.6" r="0.2"/>
<circle class="st18" cx="36.9" cy="31.4" r="0.2"/>
<circle class="st18" cx="32.9" cy="31.8" r="0.2"/>
<circle class="st18" cx="31.8" cy="28.7" r="0.2"/>
<circle class="st18" cx="36.9" cy="28.2" r="0.2"/>
<circle class="st18" cx="37.7" cy="30.2" r="0.2"/>
<circle class="st18" cx="35.3" cy="34.5" r="0.2"/>
<g class="st19">
	<g>
		<path class="st8" d="M34.8,34L34.8,34c-0.2-0.1-0.2-0.2-0.1-0.3c0.3-0.4,0.3-0.9,0.1-1.4c-0.1-0.1,0-0.3,0.1-0.3
			c0.1-0.1,0.3,0,0.3,0.1c0.3,0.6,0.2,1.3-0.2,1.9C34.9,33.9,34.9,34,34.8,34z"/>
	</g>
</g>
<g class="st19">
	<g>
		<path class="st8" d="M48.4,34c-0.1,0-0.1,0-0.2-0.1c-0.4-0.5-0.5-1.3-0.2-1.9c0.1-0.1,0.2-0.2,0.3-0.1s0.2,0.2,0.1,0.3
			c-0.2,0.4-0.2,1,0.1,1.4C48.6,33.7,48.6,33.9,48.4,34C48.5,34,48.5,34,48.4,34z"/>
	</g>
</g>
<path class="st20" d="M36.5,32.9h9.8c0.3,0,0.4,0.3,0.3,0.5c-0.5,1-2,3.1-5,3.1s-4.7-2-5.4-3C36,33.2,36.2,32.9,36.5,32.9z"/>
<g id="XMLID_5_" class="st7">
	<path id="XMLID_6_" class="st8" d="M27.4,26.6c0.1-0.2,0.4-0.1,0.4,0.1c-0.5,1.5,0,2.4,0.6,2.7c0.1,0.1,0.1,0.2,0.1,0.3
		C28.1,30.3,26.7,28.7,27.4,26.6z"/>
</g>
<path class="st0" d="M79,67c-2-5.1-8.1-14.9-13.8-14.3c0,0-2.2,13,0.6,25.3h15.8C81.6,78.1,81,72.1,79,67z"/>
<path class="st1" d="M65.2,52.4H65v0.2c0,0.2-2.1,13.1,0.7,25.4h0.6c-2.6-11.4-1-23.4-0.7-25.1L65.2,52.4z"/>
<g>
	<path class="st1" d="M81.3,78c0-0.1-0.6-6-2.6-11c-2.1-5.2-8.1-14.6-13.5-14.1l-0.1-0.6c6-0.6,12.2,9.7,14.1,14.4
		c2.1,5.2,2.7,11.3,2.7,11.3H81.3z"/>
</g>
</svg>
