<?xml version="1.0" encoding="utf-8"?>
<!-- Generator: Adobe Illustrator 25.2.3, SVG Export Plug-In . SVG Version: 6.00 Build 0)  -->
<svg version="1.1" id="Layer_1" xmlns="http://www.w3.org/2000/svg" xmlns:xlink="http://www.w3.org/1999/xlink" x="0px" y="0px"
	 viewBox="0 0 71.7 73.2" style="enable-background:new 0 0 71.7 73.2;" xml:space="preserve">
<style type="text/css">
	.st0{fill:#575756;}
	.st1{fill:#F5A88D;}
	.st2{fill:url(#SVGID_1_);}
	.st3{fill:#D8967D;}
	.st4{fill:#1C603B;}
	.st5{fill:#462922;}
	.st6{fill:#EEA38D;}
	.st7{opacity:0.2;}
	.st8{fill:#7C483C;}
	.st9{fill:#49382C;}
	.st10{fill:#4D3932;}
	.st11{fill:#392924;}
	.st12{fill:#FFFFFF;}
	.st13{fill:#2E9661;}
	.st14{fill:none;stroke:#1C603B;stroke-width:0.3489;stroke-linecap:round;stroke-miterlimit:10;}
	.st15{fill:none;stroke:#1C603B;stroke-width:0.3489;stroke-linecap:round;stroke-miterlimit:10;stroke-dasharray:0.2026,1.013;}
	
		.st16{opacity:5.000000e-02;fill:none;stroke:#7C483C;stroke-width:0.4743;stroke-linecap:round;stroke-miterlimit:10;enable-background:new    ;}
	.st17{opacity:0.3;fill:url(#SVGID_2_);enable-background:new    ;}
	.st18{fill:url(#SVGID_3_);}
	.st19{fill:url(#SVGID_4_);}
	.st20{fill:#EDA887;}
	.st21{fill:#D49974;}
	.st22{fill:#351E19;}
	.st23{opacity:0.5;fill:url(#SVGID_5_);enable-background:new    ;}
	.st24{opacity:0.5;fill:url(#SVGID_6_);enable-background:new    ;}
	.st25{fill:none;stroke:#AF7D61;stroke-width:0.4033;stroke-linecap:round;stroke-miterlimit:10;}
	
		.st26{opacity:0.2;fill:none;stroke:#7C483C;stroke-width:0.4021;stroke-linecap:round;stroke-miterlimit:10;enable-background:new    ;}
	.st27{fill:none;stroke:#353535;stroke-width:0.5041;stroke-linecap:round;stroke-miterlimit:10;}
	.st28{fill:none;stroke:#353535;stroke-width:0.3081;stroke-linecap:round;stroke-miterlimit:10;}
	.st29{fill:none;stroke:#351E19;stroke-width:0.3063;stroke-linecap:round;stroke-miterlimit:10;}
	.st30{fill:none;stroke:url(#SVGID_7_);stroke-width:0.209;stroke-linecap:round;stroke-linejoin:round;stroke-miterlimit:10;}
	.st31{fill:none;stroke:#9E4E48;stroke-width:0.3016;stroke-linecap:round;stroke-miterlimit:10;}
	.st32{fill:url(#SVGID_8_);}
	.st33{fill:url(#SVGID_9_);}
	.st34{fill:url(#SVGID_10_);}
	.st35{fill:url(#SVGID_11_);}
	.st36{fill:url(#SVGID_12_);}
	.st37{fill:url(#SVGID_13_);}
	.st38{opacity:0.8;fill:#9E4E48;enable-background:new    ;}
	.st39{fill:none;stroke:#303030;stroke-width:0.1605;stroke-linecap:round;stroke-linejoin:round;stroke-miterlimit:10;}
	.st40{fill:url(#SVGID_14_);}
	.st41{fill:url(#SVGID_15_);}
	.st42{fill:url(#SVGID_16_);}
	.st43{fill:url(#SVGID_17_);}
	.st44{fill:url(#SVGID_18_);}
	.st45{fill:none;stroke:url(#SVGID_19_);stroke-width:0.1008;stroke-linecap:round;stroke-miterlimit:10;}
	.st46{fill:none;stroke:url(#SVGID_20_);stroke-width:0.1008;stroke-linecap:round;stroke-miterlimit:10;}
	.st47{fill:url(#SVGID_21_);}
	
		.st48{opacity:5.000000e-02;fill:none;stroke:#7C483C;stroke-width:0.4782;stroke-linecap:round;stroke-miterlimit:10;enable-background:new    ;}
	.st49{opacity:0.15;}
	.st50{fill:#2A2220;}
	.st51{fill:#FFC050;}
	.st52{fill:#E0A038;}
	.st53{fill:#E2A139;}
	.st54{fill:#343633;}
	.st55{fill:#FFFFFC;}
	.st56{fill:#D08061;}
	.st57{fill:#B37658;}
	.st58{fill:#DDA06F;}
	.st59{opacity:0.3;enable-background:new    ;}
	.st60{clip-path:url(#SVGID_23_);fill:#D8967D;}
	.st61{clip-path:url(#SVGID_25_);fill:#D8967D;}
	.st62{clip-path:url(#SVGID_27_);fill:#D8967D;}
	.st63{fill:#2B3A6D;}
	.st64{opacity:0.5;fill:url(#SVGID_28_);enable-background:new    ;}
	.st65{opacity:0.5;fill:url(#SVGID_29_);enable-background:new    ;}
	
		.st66{opacity:5.000000e-02;fill:none;stroke:#7C483C;stroke-width:0.4451;stroke-linecap:round;stroke-miterlimit:10;enable-background:new    ;}
	.st67{opacity:0.3;fill:#CD805F;enable-background:new    ;}
	.st68{fill:#076FB7;}
	.st69{fill:none;stroke:#0D456B;stroke-width:0.4117;stroke-linecap:round;stroke-linejoin:round;stroke-miterlimit:10;}
	
		.st70{opacity:5.000000e-02;fill:none;stroke:#7C483C;stroke-width:0.4896;stroke-linecap:round;stroke-miterlimit:10;enable-background:new    ;}
	.st71{fill:url(#SVGID_30_);}
	.st72{fill:#0D456B;}
	.st73{fill:#C6DBF0;}
	.st74{opacity:0.75;fill:url(#SVGID_31_);enable-background:new    ;}
	.st75{fill:url(#SVGID_32_);}
	
		.st76{opacity:0.2;fill:none;stroke:#7C483C;stroke-width:0.4896;stroke-linecap:round;stroke-miterlimit:10;enable-background:new    ;}
	.st77{opacity:0.5;fill:url(#SVGID_33_);enable-background:new    ;}
	.st78{fill:#4D3933;}
	.st79{fill:url(#SVGID_34_);}
	.st80{opacity:0.5;}
	.st81{fill:#58403A;}
	.st82{fill:#B28025;}
	.st83{fill:none;stroke:#7C483C;stroke-width:0.3804;stroke-linecap:round;stroke-miterlimit:10;}
	.st84{fill:url(#SVGID_35_);}
	.st85{opacity:0.5;fill:url(#SVGID_36_);enable-background:new    ;}
	.st86{opacity:0.5;fill:url(#SVGID_37_);enable-background:new    ;}
	.st87{fill:none;stroke:#9E4E48;stroke-width:0.2853;stroke-linecap:round;stroke-miterlimit:10;}
	.st88{fill:url(#XMLID_95_);}
	.st89{fill:url(#SVGID_38_);}
	.st90{fill:none;stroke:url(#SVGID_39_);stroke-width:9.537996e-02;stroke-linecap:round;stroke-miterlimit:10;}
	.st91{fill:none;stroke:url(#SVGID_40_);stroke-width:9.537996e-02;stroke-linecap:round;stroke-miterlimit:10;}
	.st92{opacity:0.6;fill:#CD805F;enable-background:new    ;}
	
		.st93{opacity:0.5;fill:none;stroke:#58403A;stroke-width:0.4769;stroke-linecap:round;stroke-linejoin:round;stroke-miterlimit:10;enable-background:new    ;}
	.st94{fill:#DADADA;}
	.st95{fill:#D59175;}
	.st96{fill:none;stroke:#58403A;stroke-width:0.4769;stroke-linecap:round;stroke-linejoin:round;stroke-miterlimit:10;}
	.st97{fill:url(#SVGID_41_);stroke:#C6C6C6;stroke-width:2.861399e-02;stroke-linejoin:round;stroke-miterlimit:10;}
	.st98{fill:url(#SVGID_42_);stroke:url(#SVGID_43_);stroke-width:1.0891;stroke-miterlimit:10;}
	.st99{fill:none;stroke:url(#SVGID_44_);stroke-width:0.1954;stroke-linecap:round;stroke-linejoin:round;stroke-miterlimit:10;}
	.st100{fill:none;stroke:url(#SVGID_45_);stroke-width:0.2499;stroke-linecap:round;stroke-miterlimit:10;}
	.st101{fill:url(#SVGID_46_);stroke:url(#SVGID_47_);stroke-width:1.0891;stroke-miterlimit:10;}
	.st102{fill:none;stroke:url(#SVGID_48_);stroke-width:0.1954;stroke-linecap:round;stroke-linejoin:round;stroke-miterlimit:10;}
	.st103{opacity:0.63;fill:url(#SVGID_49_);enable-background:new    ;}
	
		.st104{opacity:0.17;fill:none;stroke:url(#SVGID_50_);stroke-width:0.2499;stroke-linecap:round;stroke-miterlimit:10;enable-background:new    ;}
	
		.st105{opacity:0.17;fill:none;stroke:url(#SVGID_51_);stroke-width:0.2499;stroke-linecap:round;stroke-miterlimit:10;enable-background:new    ;}
	.st106{fill:url(#SVGID_52_);}
	.st107{fill:none;stroke:#5C362D;stroke-width:0.2465;stroke-linecap:round;stroke-miterlimit:10;}
	.st108{fill:url(#SVGID_53_);}
	.st109{fill:url(#SVGID_54_);}
	.st110{opacity:0.45;fill:#7C483C;enable-background:new    ;}
	.st111{fill:url(#SVGID_55_);}
	.st112{fill:#9E4E48;}
	.st113{fill:none;stroke:#9D9D9C;stroke-width:0.4477;stroke-linecap:round;stroke-miterlimit:10;}
	.st114{fill:none;stroke:#EDEDED;stroke-width:0.4785;stroke-linecap:round;stroke-miterlimit:10;stroke-dasharray:0.2743,1.3715;}
	.st115{clip-path:url(#SVGID_57_);fill:#B99B6C;}
	.st116{clip-path:url(#SVGID_59_);fill:#B99B6C;}
	.st117{clip-path:url(#SVGID_61_);fill:#B99B6C;}
	.st118{clip-path:url(#SVGID_63_);fill:#B99B6C;}
	.st119{clip-path:url(#SVGID_65_);fill:#B99B6C;}
	.st120{clip-path:url(#SVGID_67_);fill:#B99B6C;}
	.st121{clip-path:url(#SVGID_69_);fill:#B99B6C;}
	.st122{clip-path:url(#SVGID_71_);fill:#B99B6C;}
	.st123{clip-path:url(#SVGID_73_);fill:#B99C6C;}
	.st124{clip-path:url(#SVGID_75_);fill:#BA9C6C;}
	.st125{clip-path:url(#SVGID_77_);fill:#BA9C6C;}
	.st126{clip-path:url(#SVGID_79_);fill:#BA9C6C;}
	.st127{clip-path:url(#SVGID_81_);fill:#BA9C6C;}
	.st128{clip-path:url(#SVGID_83_);fill:#BA9C6C;}
	.st129{clip-path:url(#SVGID_85_);fill:#BA9C6D;}
	.st130{clip-path:url(#SVGID_87_);fill:#BB9C6D;}
	.st131{clip-path:url(#SVGID_89_);fill:#BB9D6D;}
	.st132{clip-path:url(#SVGID_91_);fill:#BB9D6D;}
	.st133{clip-path:url(#SVGID_93_);fill:#BC9D6D;}
	.st134{clip-path:url(#SVGID_95_);fill:#BC9D6D;}
	.st135{clip-path:url(#SVGID_97_);fill:#BC9E6D;}
	.st136{clip-path:url(#SVGID_99_);fill:#BD9E6E;}
	.st137{clip-path:url(#SVGID_101_);fill:#BD9E6E;}
	.st138{clip-path:url(#SVGID_103_);fill:#BD9F6E;}
	.st139{clip-path:url(#SVGID_105_);fill:#BE9F6E;}
	.st140{clip-path:url(#SVGID_107_);fill:#BE9F6F;}
	.st141{clip-path:url(#SVGID_109_);fill:#BFA06F;}
	.st142{clip-path:url(#SVGID_111_);fill:#BFA06F;}
	.st143{clip-path:url(#SVGID_113_);fill:#C0A170;}
	.st144{clip-path:url(#SVGID_115_);fill:#C1A170;}
	.st145{clip-path:url(#SVGID_117_);fill:#C1A270;}
	.st146{clip-path:url(#SVGID_119_);fill:#C2A271;}
	.st147{clip-path:url(#SVGID_121_);fill:#C3A371;}
	.st148{clip-path:url(#SVGID_123_);fill:#C3A371;}
	.st149{clip-path:url(#SVGID_125_);fill:#C4A472;}
	.st150{clip-path:url(#SVGID_127_);fill:#C5A572;}
	.st151{clip-path:url(#SVGID_129_);fill:#C6A573;}
	.st152{clip-path:url(#SVGID_131_);fill:#C7A673;}
	.st153{clip-path:url(#SVGID_133_);fill:#C8A774;}
	.st154{clip-path:url(#SVGID_135_);fill:#C8A774;}
	.st155{clip-path:url(#SVGID_137_);fill:#C9A874;}
	.st156{clip-path:url(#SVGID_139_);fill:#CAA975;}
	.st157{clip-path:url(#SVGID_141_);fill:#CBAA75;}
	.st158{clip-path:url(#SVGID_143_);fill:#CCAA76;}
	.st159{clip-path:url(#SVGID_145_);fill:#CDAB77;}
	.st160{clip-path:url(#SVGID_147_);fill:#CEAC77;}
	.st161{clip-path:url(#SVGID_149_);fill:#CFAD78;}
	.st162{clip-path:url(#SVGID_151_);fill:#D0AE78;}
	.st163{clip-path:url(#SVGID_153_);fill:#D2AF79;}
	.st164{clip-path:url(#SVGID_155_);fill:#D3B079;}
	.st165{clip-path:url(#SVGID_157_);fill:#D4B17A;}
	.st166{clip-path:url(#SVGID_159_);fill:#D5B27B;}
	.st167{clip-path:url(#SVGID_161_);fill:#D6B37B;}
	.st168{clip-path:url(#SVGID_163_);fill:#D8B47C;}
	.st169{clip-path:url(#SVGID_165_);fill:#D9B57D;}
	.st170{clip-path:url(#SVGID_167_);fill:#DAB67D;}
	.st171{clip-path:url(#SVGID_169_);fill:#DCB77E;}
	.st172{clip-path:url(#SVGID_171_);fill:#DDB87F;}
	.st173{clip-path:url(#SVGID_173_);fill:#DFB980;}
	.st174{clip-path:url(#SVGID_175_);fill:#E0BA81;}
	.st175{clip-path:url(#SVGID_177_);fill:#E2BC81;}
	.st176{clip-path:url(#SVGID_179_);fill:#E3BD82;}
	.st177{clip-path:url(#SVGID_181_);fill:#E5BE83;}
	.st178{clip-path:url(#SVGID_183_);fill:#E5BE83;}
	.st179{clip-path:url(#SVGID_185_);fill:#E5BE83;}
	.st180{clip-path:url(#SVGID_187_);fill:#E4BD83;}
	.st181{clip-path:url(#SVGID_189_);fill:#E4BD82;}
	.st182{clip-path:url(#SVGID_191_);fill:#E3BD82;}
	.st183{clip-path:url(#SVGID_193_);fill:#E3BC82;}
	.st184{clip-path:url(#SVGID_195_);fill:#E2BC81;}
	.st185{clip-path:url(#SVGID_197_);fill:#E2BB81;}
	.st186{clip-path:url(#SVGID_199_);fill:#E1BB81;}
	.st187{clip-path:url(#SVGID_201_);fill:#E0BA81;}
	.st188{clip-path:url(#SVGID_203_);fill:#E0BA80;}
	.st189{clip-path:url(#SVGID_205_);fill:#DFB980;}
	.st190{clip-path:url(#SVGID_207_);fill:#DFB980;}
	.st191{clip-path:url(#SVGID_209_);fill:#DEB87F;}
	.st192{clip-path:url(#SVGID_211_);fill:#DDB87F;}
	.st193{clip-path:url(#SVGID_213_);fill:#DDB77F;}
	.st194{clip-path:url(#SVGID_215_);fill:#DCB77E;}
	.st195{clip-path:url(#SVGID_217_);fill:#DBB67E;}
	.st196{clip-path:url(#SVGID_219_);fill:#DBB67E;}
	.st197{clip-path:url(#SVGID_221_);fill:#DAB57D;}
	.st198{clip-path:url(#SVGID_223_);fill:#D9B57D;}
	.st199{clip-path:url(#SVGID_225_);fill:#D9B47C;}
	.st200{clip-path:url(#SVGID_227_);fill:#D8B47C;}
	.st201{clip-path:url(#SVGID_229_);fill:#D7B37C;}
	.st202{clip-path:url(#SVGID_231_);fill:#D6B37B;}
	.st203{clip-path:url(#SVGID_233_);fill:#D6B27B;}
	.st204{clip-path:url(#SVGID_235_);fill:#D5B17B;}
	.st205{clip-path:url(#SVGID_237_);fill:#D4B17A;}
	.st206{clip-path:url(#SVGID_239_);fill:#D4B07A;}
	.st207{clip-path:url(#SVGID_241_);fill:#D3B079;}
	.st208{clip-path:url(#SVGID_243_);fill:#D2AF79;}
	.st209{clip-path:url(#SVGID_245_);fill:#D1AF79;}
	.st210{clip-path:url(#SVGID_247_);fill:#D1AE78;}
	.st211{clip-path:url(#SVGID_249_);fill:#D0AD78;}
	.st212{clip-path:url(#SVGID_251_);fill:#CFAD78;}
	.st213{clip-path:url(#SVGID_253_);fill:#CEAC77;}
	.st214{clip-path:url(#SVGID_255_);fill:#CEAC77;}
	.st215{clip-path:url(#SVGID_257_);fill:#CDAB76;}
	.st216{clip-path:url(#SVGID_259_);fill:#CCAA76;}
	.st217{clip-path:url(#SVGID_261_);fill:#CBAA76;}
	.st218{clip-path:url(#SVGID_263_);fill:#CBA975;}
	.st219{clip-path:url(#SVGID_265_);fill:#CAA975;}
	.st220{clip-path:url(#SVGID_267_);fill:#C9A874;}
	.st221{clip-path:url(#SVGID_269_);fill:#C8A774;}
	.st222{clip-path:url(#SVGID_271_);fill:#C8A774;}
	.st223{clip-path:url(#SVGID_273_);fill:#C7A673;}
	.st224{clip-path:url(#SVGID_275_);fill:#C6A573;}
	.st225{clip-path:url(#SVGID_277_);fill:#C5A572;}
	.st226{clip-path:url(#SVGID_279_);fill:#C4A472;}
	.st227{clip-path:url(#SVGID_281_);fill:#C3A371;}
	.st228{clip-path:url(#SVGID_283_);fill:#C3A371;}
	.st229{clip-path:url(#SVGID_285_);fill:#C2A270;}
	.st230{clip-path:url(#SVGID_287_);fill:#C1A170;}
	.st231{clip-path:url(#SVGID_289_);fill:#C0A170;}
	.st232{clip-path:url(#SVGID_291_);fill:#BFA06F;}
	.st233{clip-path:url(#SVGID_293_);fill:#BE9F6F;}
	.st234{clip-path:url(#SVGID_295_);fill:#BD9F6E;}
	.st235{clip-path:url(#SVGID_297_);fill:#BD9E6E;}
	.st236{clip-path:url(#SVGID_299_);fill:#BC9D6D;}
	.st237{clip-path:url(#SVGID_301_);fill:#BB9D6D;}
	.st238{clip-path:url(#SVGID_303_);fill:#BA9C6C;}
	.st239{clip-path:url(#SVGID_305_);fill:#B99B6C;}
	.st240{fill:url(#SVGID_306_);}
	.st241{opacity:0.1;fill:#2A2220;enable-background:new    ;}
	.st242{fill:url(#SVGID_307_);}
	.st243{opacity:0.45;fill:url(#SVGID_308_);enable-background:new    ;}
	.st244{fill:url(#SVGID_309_);}
	.st245{fill:url(#SVGID_310_);}
	.st246{opacity:0.83;fill:#7C483C;enable-background:new    ;}
	.st247{fill:url(#SVGID_311_);}
	.st248{fill:#EDEDED;}
	.st249{opacity:0.1;}
	.st250{fill:none;stroke:#EDEDED;stroke-width:0.4677;stroke-linecap:round;stroke-miterlimit:10;}
	.st251{fill:none;stroke:#EDEDED;stroke-width:0.4677;stroke-linecap:round;stroke-miterlimit:10;stroke-dasharray:0.267,1.3352;}
	.st252{fill:url(#SVGID_312_);}
	.st253{fill:none;stroke:url(#SVGID_313_);stroke-width:0.1479;stroke-linecap:round;stroke-linejoin:round;stroke-miterlimit:10;}
	.st254{fill:none;stroke:url(#SVGID_314_);stroke-width:0.1479;stroke-linecap:round;stroke-linejoin:round;stroke-miterlimit:10;}
	.st255{fill:url(#SVGID_315_);}
	.st256{fill:url(#SVGID_316_);}
	.st257{fill:url(#SVGID_317_);}
	.st258{fill:#F3D09C;}
</style>
<path class="st51" d="M21.5,73.2c0.3-6.1,0.2-11.4,0.1-14.9c-0.2-3.2-4.5-8.1-7.7-7.8c-3.6,0.4-5,2.7-7.2,5.3
	c-3.4,3.9-6.5,8.6-6.6,17.4H21.5z"/>
<path class="st52" d="M0.5,73.2C0.6,64.3,3.7,59.7,6.8,56c0.3-0.4,0.5-0.7,0.8-1c1.7-2.2,3.2-3.9,6.2-4.2c0.1,0,0.2,0,0.3,0
	c1.2,0,2.5,0.7,3.9,1.9c1.9,1.7,3.2,4,3.3,5.6c0.2,4.1,0.2,9.3,0,14.9h0.5c0.3-5.7,0.3-11,0.1-14.9c-0.1-1.8-1.4-4.2-3.4-6
	c-1.5-1.4-3.2-2.2-4.5-2c-3.2,0.3-4.8,2.3-6.6,4.4c-0.3,0.3-0.5,0.7-0.8,0.9C3.4,59.4,0.2,64.1,0,73.2H0.5z"/>
<g id="XMLID_79_">
	<path class="st53" d="M49.7,39c0.8,2.3-6.3,5.2-14.2,5.2c-8,0-15.7-3.1-14.4-5.2c1.1-1.9,6.4-0.6,14.4-0.6
		C43.4,38.5,48.6,35.9,49.7,39z"/>
	<path class="st52" d="M35.4,44.5c-6.9,0-13.4-2.3-14.5-4.3c-0.3-0.5-0.3-0.8,0-1.2c0.8-1.3,3.3-1.2,7.4-0.9
		c2.1,0.1,4.4,0.3,7.1,0.3c2.9,0,5.4-0.4,7.5-0.7c3.8-0.5,6.2-0.8,6.9,1.3c0.2,0.5,0.1,0.9-0.3,1.4C48.2,42.3,42.5,44.5,35.4,44.5z
		 M24.4,38.3c-1.7,0-2.7,0.2-3.2,0.8c-0.2,0.2-0.1,0.5,0,0.8c1,1.9,7.6,4,14.2,4s12.5-2,13.8-3.8c0.3-0.4,0.3-0.7,0.2-1
		c-0.7-1.8-2.8-1.5-6.5-1c-2.1,0.3-4.7,0.7-7.6,0.7c-2.7,0-5.1-0.2-7.1-0.3C26.8,38.4,25.5,38.3,24.4,38.3z"/>
</g>
<path class="st1" d="M47.3,49.6c0,0-6.1,4.9-11.9,5C29,54.7,23,49.8,25.3,48.2c1.7-1.2,2.3-3.9,2.5-6.8c0.3-4.2-0.7-8.7-0.7-8.7
	s1.2-0.7,3-1.4c5-2.2,14.2-5.2,13.6,1.7C42.9,42.4,47.3,49.6,47.3,49.6z"/>
<path class="st51" d="M61.4,73.2c-1-12.6-2.7-22.6-4.4-23.9c-2-1.5-9.6-3.9-12.9-4.1c-2.9,7.8-14.5,7.8-17.4,0
	c0.4-0.2-10.5,3.4-14.4,5.6c-0.1,0.3-1.4,10-2.5,22.4H61.4z"/>
<path class="st3" d="M43.7,35.8c0,0-4.5,16-15.9,7.2c0.3-4.2-0.9-10-0.9-10s1.5,0.7,3.3-0.1L43.7,35.8z"/>
<path class="st52" d="M10.1,73.2c1-11.7,2.3-21.1,2.4-22.2c3.6-2,12.6-5,14-5.5c1.5,3.6,4.8,5.8,8.8,5.8s7.4-2.3,8.9-5.8
	c3.3,0.2,10.7,2.5,12.6,4c1.6,1.2,3.2,11.1,4.3,23.7h0.4c-1-12.5-2.7-22.8-4.5-24.1c-2.1-1.6-9.7-4-13-4.1H44L43.8,45
	c-1.6,4.2-5.5,5.7-8.5,5.7l0,0c-3,0-6.8-1.5-8.4-5.6V45L26.9,45c0,0-0.1,0-0.2,0l0,0l0,0l0,0L26.4,45c-2.3,0.6-11.5,4-14.2,5.5
	l-0.2,0.1v0.1c-0.1,0.3-1.4,10-2.5,22.4H10.1z"/>
<g id="XMLID_78_">
	<path class="st51" d="M18.8,48.4c-2.3-2.3-1-5.3,3.9-4.4c0.4,0.1,0.7-0.2,0.7-0.6c0-1.1-3.7-4.3-2-4.6C25.8,38.2,33,51,35.3,51
		c2.9,0,4.4-6.3,6.1-8.4c0.7-0.8,6-6.9,7.9-4.4c1,1.4,0,2.7,0.5,4.3c0.5,1.6,1.8-1.6,3.2-0.3c1.9,1.7,1.6,4.9,0,6.9
		C47.8,55.6,24.7,54.8,18.8,48.4z"/>
	<path class="st52" d="M37.5,53.9c-7,0-15.4-1.6-18.9-5.3c-1.1-1.2-1.4-2.5-0.8-3.6c0.8-1.3,2.5-1.7,5.1-1.2c0.1,0,0.2,0,0.3-0.1
		c0,0,0.1-0.1,0.1-0.2c0-0.4-0.6-1.1-1.1-1.9c-0.8-1-1.5-2-1.2-2.6c0.1-0.3,0.3-0.4,0.7-0.5c2.6-0.4,6.2,3.8,9.3,7.5
		c1.9,2.3,3.8,4.6,4.7,4.6c1.8,0,3.1-2.7,4.1-5.2c0.6-1.3,1.1-2.4,1.8-3.2c0-0.1,4.3-5.2,6.9-5.1c0.6,0,1,0.3,1.3,0.8
		c0.7,0.8,0.6,1.7,0.5,2.5c-0.1,0.6-0.1,1.2,0.1,1.9c0.1,0.3,0.2,0.3,0.2,0.3c0.1,0,0.4-0.2,0.6-0.4c0.6-0.5,1.4-1.1,2.3-0.3
		c2,1.9,1.6,5.3,0,7.2c-2.2,2.6-7.3,4.3-14.2,4.6C38.5,53.9,38.1,53.9,37.5,53.9z M21,44.1c-1.4,0-2.3,0.4-2.8,1.1
		c-0.5,0.8-0.2,2,0.8,3c3.1,3.3,11.4,5.3,20.1,5.1c6.6-0.3,11.7-1.9,13.8-4.4c1.4-1.8,1.8-4.9,0-6.5c-0.6-0.5-1-0.2-1.7,0.4
		c-0.4,0.3-0.8,0.6-1,0.5c-0.2-0.1-0.4-0.3-0.5-0.7c-0.2-0.8-0.2-1.5-0.1-2.1c0.1-0.8,0.2-1.5-0.4-2.2c-0.3-0.4-0.6-0.5-0.9-0.6
		c0,0,0,0-0.1,0c-2,0-5.3,3.7-6.4,4.9c-0.6,0.7-1.1,1.9-1.7,3.1c-1.2,2.5-2.5,5.4-4.6,5.4c-1,0-2.6-1.8-5.1-4.8
		c-2.9-3.5-6.5-7.7-8.8-7.3c-0.1,0-0.2,0.1-0.3,0.1c-0.1,0.4,0.7,1.4,1.2,2.1c0.7,0.8,1.2,1.6,1.2,2.2c0,0.3-0.1,0.5-0.3,0.6
		c-0.2,0.2-0.5,0.2-0.7,0.2C22.1,44.2,21.5,44.1,21,44.1z"/>
</g>
<g id="XMLID_77_">
	<path class="st52" d="M36.1,52.4c-3.9,0-6.8-2.8-9.3-5.3c-0.9-0.9-1.9-1.9-2.8-2.5c-0.1-0.1-0.1-0.3-0.1-0.4
		c0.1-0.1,0.3-0.1,0.4-0.1c0.9,0.7,1.9,1.6,2.8,2.5c2.4,2.3,5.2,5.1,8.9,5.1c0.1,0,0.2,0,0.3,0c3.8-0.1,8.1-2.9,13-8.5
		c0.1-0.1,0.3-0.1,0.4,0c0.1,0.1,0.1,0.3,0,0.4c-5.1,5.7-9.5,8.5-13.4,8.6C36.2,52.4,36.1,52.4,36.1,52.4z"/>
</g>
<g id="XMLID_18_">
	<g id="XMLID_76_">
		<path class="st54" d="M33,53.6c-2.2,0-1.2-2.7-0.3-2.7C34.9,50.8,34.4,53.6,33,53.6z"/>
		<path class="st54" d="M33,53.8c-0.6,0-0.9-0.2-1.2-0.5c-0.3-0.3-0.4-0.6-0.4-0.9c0-0.8,0.6-1.8,1.3-1.8c0.6,0,0.9,0.2,1.2,0.5
			c0.3,0.3,0.4,0.7,0.4,1C34.4,52.9,33.9,53.8,33,53.8z M32.8,51.1c-0.4,0-0.8,0.8-0.8,1.3c0,0.2,0,0.5,0.2,0.7
			c0.2,0.2,0.5,0.3,0.8,0.3c0.6,0,0.9-0.7,0.9-1.2c0-0.3-0.1-0.6-0.3-0.8C33.5,51.1,33.2,51.1,32.8,51.1z"/>
	</g>
	<g id="XMLID_75_">
		<path class="st54" d="M39.3,53.1c2.2,0,1.2-2.7,0.3-2.7C37.5,50.4,37.9,53.1,39.3,53.1z"/>
		<path class="st54" d="M39.3,53.3c-0.8,0-1.4-0.8-1.4-1.7c0-0.4,0.1-0.8,0.4-1c0.3-0.3,0.8-0.5,1.2-0.5c0.8,0,1.3,1,1.3,1.8
			c0,0.4-0.1,0.8-0.4,0.9C40.2,53.2,39.8,53.3,39.3,53.3z M39.6,50.6c-0.4,0-0.8,0.1-0.9,0.4c-0.2,0.2-0.3,0.5-0.3,0.8
			c0,0.6,0.4,1.2,0.9,1.2c0.4,0,0.7-0.1,0.8-0.3s0.2-0.5,0.2-0.7C40.4,51.3,39.9,50.6,39.6,50.6z"/>
	</g>
	<path id="XMLID_20_" class="st55" d="M33.3,55.3c-1.4,3-1,21.3-2.2,11.7c-0.7-5.4-0.4-6.7-0.2-7.5c1.7-8.2,0.3-8.8,2.6-7.7
		C34.2,52.1,34.1,53.5,33.3,55.3z"/>
	<path id="XMLID_19_" class="st55" d="M39,54.9c1.4,3,1,21.3,2.2,11.7c0.7-5.4,0.4-6.7,0.2-7.5c-1.7-8.2-0.3-8.8-2.6-7.7
		C38.1,51.7,38.1,53.1,39,54.9z"/>
</g>
<g id="XMLID_17_">
	<path class="st1" d="M45.8,10.1c-6-8.4-20.1-6.3-21.8,6.6c-1.6,12.8,4.6,21.3,8,23c3,1.5,6.6,2.1,9.3,0.2
		C48.5,35.1,51.2,17.7,45.8,10.1z"/>
</g>
<g id="XMLID_2_">
	<g id="XMLID_13_">
		<g id="XMLID_14_">
			<path class="st1" d="M22.7,22.4c2.6-0.7,2.9,4.4,2.9,6.9C25.8,34.3,18.5,23.6,22.7,22.4z"/>
		</g>
	</g>
	<g id="XMLID_7_">
		<g id="XMLID_8_">
			<path class="st1" d="M49.6,22.4c-2.6-0.7-2.9,4.4-2.9,6.9C46.6,34.3,53.8,23.6,49.6,22.4z"/>
		</g>
	</g>
	<g id="XMLID_3_" class="st7">
		<g id="XMLID_4_">
			<path class="st8" d="M49.4,25c-0.1-0.2-0.4-0.1-0.4,0.1c0.5,1.4,0,2.3-0.6,2.5c-0.1,0.1-0.1,0.2-0.1,0.3
				C48.8,28.4,50,26.9,49.4,25z"/>
		</g>
	</g>
</g>
<g id="XMLID_1_">
	<path class="st56" d="M27.3,16c0.2-0.4,0.3-0.8,0.6-1.1c0.8-1,2.3-0.8,3.5-1.3c0.8-0.4,1.5-1.2,2.3-0.9c0.6,0.2,0.9,0.9,1.6,1
		c0.6,0.1,1.1-0.5,1.7-0.2c0.6,0.2,1,1.9,3.3,1.2c3.7-1.1,6,0.4,6.3,1.1c1,2.4,1.5,5.6,1.6,8.6c0,0.5,0.5,0.1,0.6-0.4
		c0.8-3.6,3-5.7,3-13.4c0-3.3-1.4-6.3-4.5-7.4c-1.8-0.7-4.7,0.4-5.9-1.6c-1.6-2.6-5.5-1.6-7.8-0.8c-2.5,0.8-4.9,0.4-5.6,1.3
		c-0.8,0.8,1,3.6-2,3.4c-2.8-0.1-4,3.2-2.3,5c-3.2-0.2-1.9,5.4-1.8,6.4c0.6,5.8,1.8,3.9,2.8,7.7c0.1,0.5,0.3,0.5,0.4,0
		C25.6,19.5,26.7,17.3,27.3,16z"/>
</g>
<g id="XMLID_9_">
	<g id="XMLID_38_">
		<g id="XMLID_39_">
			<path class="st57" d="M30.4,11.4c-0.8-1.9-1.6-4.3-3.6-5.1c-1-0.4,1.3-1.4,3.3,3c-0.3-1.7-1.9-3.2-2-5c0-0.3,0.5-0.4,0.5,0
				C28.7,6.9,31,7.8,30.4,11.4z"/>
		</g>
	</g>
	<g id="XMLID_36_">
		<g id="XMLID_37_">
			<path class="st57" d="M27.1,15.5c-0.1,0-0.2-0.1-0.2-0.3c0-1.6-1-3.7-3-4.2c-0.3-0.1-0.2-0.6,0.1-0.5
				C27.1,11.4,27.7,15.5,27.1,15.5z"/>
		</g>
	</g>
	<g id="XMLID_34_">
		<g id="XMLID_35_">
			<path class="st58" d="M29.4,11.9c-0.1,0-0.2-0.1-0.2-0.3c0-1.6-1-3.7-3-4.2c-0.3-0.1-0.2-0.6,0.1-0.5C29.4,8,30.1,11.9,29.4,11.9
				z"/>
		</g>
	</g>
	<g id="XMLID_32_">
		<g id="XMLID_33_">
			<path class="st58" d="M26.7,16.1c-0.1,0-0.3-0.1-0.3-0.2c-0.3-1.6-1.7-3.4-3.8-3.6c-0.3,0-0.3-0.5,0-0.5
				C25.9,12.2,27.4,16,26.7,16.1z"/>
		</g>
	</g>
	<g id="XMLID_30_">
		<g id="XMLID_31_">
			<path class="st57" d="M24.2,20.1c-1.5-1.8,0.1-3.8-1.3-5.4c-0.2-0.2,0.2-0.6,0.4-0.3c1.6,1.9,0,3.8,1.3,5.5
				C24.7,20,24.4,20.3,24.2,20.1z"/>
		</g>
	</g>
	<g id="XMLID_28_">
		<g id="XMLID_29_">
			<path class="st57" d="M49.4,14.2c0.1-0.3,0.6-0.2,0.5,0.1c-0.3,1.3-0.6,2.7-0.7,4.1C49.1,19,48.3,19.1,49.4,14.2z"/>
		</g>
	</g>
	<g id="XMLID_26_">
		<g id="XMLID_27_">
			<path class="st57" d="M45.8,14.3c-0.4-0.1-0.1-0.5,0.2-1.4c2-6.4,4.6-6.5,3.8-5.7c-2.5,2.6-2.4,3-3.8,6.9
				C46.1,14.3,45.9,14.3,45.8,14.3z"/>
		</g>
	</g>
	<g id="XMLID_24_">
		<g id="XMLID_25_">
			<path class="st57" d="M40.5,7.6c1.1-1.3,2.3-2.6,2.9-3.8c0.2-0.5,1.4-0.5-2.5,4c-1.5,1.8-3.1,3.6-3.4,5.2
				C37.3,13.4,35.1,13.7,40.5,7.6z"/>
		</g>
	</g>
	<g id="XMLID_22_">
		<g id="XMLID_23_">
			<path class="st57" d="M33,11.9c-0.8-2.7,3.9-8,4.5-7.4c0.1,0.1,0.1,0.3,0,0.3C33,8.4,33.4,12,33.4,12
				C33.2,12.1,33.1,12.1,33,11.9z"/>
		</g>
	</g>
	<g id="XMLID_16_">
		<g id="XMLID_21_">
			<path class="st58" d="M33.7,12.2c-0.8-2.7,3.9-8,4.5-7.4c0.1,0.1,0.1,0.3,0,0.3c-4.5,3.7-4.1,7.2-4.1,7.2
				C33.9,12.4,33.8,12.4,33.7,12.2z"/>
		</g>
	</g>
	<g id="XMLID_12_">
		<g id="XMLID_15_">
			<path class="st57" d="M44,8.9c0.2-0.2,0.6,0.1,0.3,0.4c-0.6,0.5-1.8,1.9-1.9,3.5C42.4,13.6,40.8,12,44,8.9z"/>
		</g>
	</g>
	<g id="XMLID_10_">
		<g id="XMLID_11_">
			<path class="st57" d="M39.1,1.2c0.3,0,0.3,0.5,0,0.5c-3.9-0.2-6.6,0.7-8,2.7C30.2,5.7,30.6,0.8,39.1,1.2z"/>
		</g>
	</g>
</g>
<g class="st59">
	<g>
		<g>
			<defs>
				<path id="SVGID_22_" d="M32,39.7c3,1.5,6.6,2.1,9.3,0.2c4.1-2.7,6.8-9.7,7.2-16.5c-0.1-0.2-0.1-0.4-0.2-0.6
					c-1.2,1.4-0.9,3.6-1.5,5.3c-0.3,0.7-2.3,5.3-4.9,7.2c-2,1.3-2.7-0.1-5.3,0c-1.8,0-3.6,1.7-6-0.2c-1.2-0.9-3.3-6.6-3.5-8.1
					c-0.1-0.4-0.1-0.8-0.2-1.2c-0.3-0.8-0.7-1.3-1.3-1.9L24,23.9C24.8,32.6,29.3,38.4,32,39.7z"/>
			</defs>
			<clipPath id="SVGID_1_">
				<use xlink:href="#SVGID_22_"  style="overflow:visible;"/>
			</clipPath>
			<polygon style="clip-path:url(#SVGID_1_);fill:#D8967D;" points="24,38.4 48.6,38.7 48.6,41.8 24,41.8 			"/>
		</g>
		<g>
			<defs>
				<path id="SVGID_24_" d="M32,39.7c3,1.5,6.6,2.1,9.3,0.2c4.1-2.7,6.8-9.7,7.2-16.5c-0.1-0.2-0.1-0.4-0.2-0.6
					c-1.2,1.4-0.9,3.6-1.5,5.3c-0.3,0.7-2.3,5.3-4.9,7.2c-2,1.3-2.7-0.1-5.3,0c-1.8,0-3.6,1.7-6-0.2c-1.2-0.9-3.3-6.6-3.5-8.1
					c-0.1-0.4-0.1-0.8-0.2-1.2c-0.3-0.8-0.7-1.3-1.3-1.9L24,23.9C24.8,32.6,29.3,38.4,32,39.7z"/>
			</defs>
			<clipPath id="SVGID_2_">
				<use xlink:href="#SVGID_24_"  style="overflow:visible;"/>
			</clipPath>
			<polygon style="clip-path:url(#SVGID_2_);fill:#D8967D;" points="24,28.4 48.6,28.7 48.6,38.7 24,38.4 			"/>
		</g>
		<g>
			<defs>
				<path id="SVGID_26_" d="M32,39.7c3,1.5,6.6,2.1,9.3,0.2c4.1-2.7,6.8-9.7,7.2-16.5c-0.1-0.2-0.1-0.4-0.2-0.6
					c-1.2,1.4-0.9,3.6-1.5,5.3c-0.3,0.7-2.3,5.3-4.9,7.2c-2,1.3-2.7-0.1-5.3,0c-1.8,0-3.6,1.7-6-0.2c-1.2-0.9-3.3-6.6-3.5-8.1
					c-0.1-0.4-0.1-0.8-0.2-1.2c-0.3-0.8-0.7-1.3-1.3-1.9L24,23.9C24.8,32.6,29.3,38.4,32,39.7z"/>
			</defs>
			<clipPath id="SVGID_3_">
				<use xlink:href="#SVGID_26_"  style="overflow:visible;"/>
			</clipPath>
			<polygon style="clip-path:url(#SVGID_3_);fill:#D8967D;" points="48.6,28.7 24,28.4 24,22.8 48.6,22.8 			"/>
		</g>
	</g>
</g>
<g>
	<path class="st57" d="M32.6,19.6c0,0,0.8,0.1,0.8-0.7c-0.2-0.8-1.1-0.8-1.7-0.8c-3.3,0-4,0.1-5,2c-0.1,0.1,0,0.2,0.1,0.2
		C28.7,19.3,32.6,19.6,32.6,19.6z"/>
</g>
<g>
	<path class="st57" d="M40,19.6c0,0-0.8,0.1-0.8-0.7c0.2-0.8,1.1-0.8,1.7-0.8c3.3,0,4,0.1,5,2c0.1,0.1,0,0.2-0.1,0.2
		C44,19.3,40,19.6,40,19.6z"/>
</g>
<ellipse class="st63" cx="30.5" cy="22.8" rx="0.8" ry="1.3"/>
<ellipse class="st63" cx="41.5" cy="22.8" rx="0.8" ry="1.3"/>
<radialGradient id="SVGID_4_" cx="45.1323" cy="1028.8856" r="4.7021" fx="43.9047" fy="1028.8896" gradientTransform="matrix(1 0 0 1 0 -999.999)" gradientUnits="userSpaceOnUse">
	<stop  offset="0" style="stop-color:#D1675D;stop-opacity:0.3"/>
	<stop  offset="0.4967" style="stop-color:#C35A53;stop-opacity:0.151"/>
	<stop  offset="1" style="stop-color:#BA524D;stop-opacity:0"/>
</radialGradient>
<circle style="opacity:0.5;fill:url(#SVGID_4_);enable-background:new    ;" cx="44.6" cy="29.4" r="4.2"/>
<radialGradient id="SVGID_5_" cx="29.4985" cy="1028.8856" r="4.7021" fx="28.2707" fy="1028.8896" gradientTransform="matrix(1 0 0 1 0 -999.999)" gradientUnits="userSpaceOnUse">
	<stop  offset="0" style="stop-color:#D1675D;stop-opacity:0.3"/>
	<stop  offset="0.4967" style="stop-color:#C35A53;stop-opacity:0.151"/>
	<stop  offset="1" style="stop-color:#BA524D;stop-opacity:0"/>
</radialGradient>
<circle class="st23" cx="29" cy="29.4" r="4.2"/>
<path class="st66" d="M35,37.3c0.8-0.2,1.6-0.3,2.3-0.3c0.3,0,0.6,0,0.8,0.2"/>
<g class="st7">
	<path class="st8" d="M36.1,28.8c-0.9,0-1.6-0.2-1.8-0.7c-0.3-0.7,0.2-1.4,0.2-1.4c0.1-0.1,0.2-0.1,0.3-0.1c0.1,0.1,0.1,0.2,0.1,0.3
		c-0.1,0.2-0.4,0.7-0.2,0.9c0.2,0.3,0.7,0.5,1.4,0.5c1.2,0,1.6-0.3,1.8-0.6c0.2-0.4-0.1-0.8-0.1-0.8c-0.1-0.1,0-0.3,0.1-0.3
		c0.1-0.1,0.3,0,0.3,0.1c0,0,0.5,0.8,0.2,1.3C38,28.5,37.2,28.8,36.1,28.8z"/>
</g>
<circle class="st67" cx="41" cy="26.2" r="0.5"/>
<circle class="st67" cx="43.9" cy="30.9" r="0.2"/>
<circle class="st67" cx="42.6" cy="28" r="0.2"/>
<circle class="st67" cx="40.2" cy="29.5" r="0.2"/>
<circle class="st67" cx="44.7" cy="31.4" r="0.2"/>
<circle class="st67" cx="45.1" cy="26.9" r="0.2"/>
<circle class="st67" cx="44" cy="29.1" r="0.2"/>
<circle class="st67" cx="29.8" cy="27.8" r="0.2"/>
<circle class="st67" cx="32" cy="29.5" r="0.2"/>
<circle class="st67" cx="28.3" cy="29.8" r="0.2"/>
<circle class="st67" cx="27.3" cy="26.9" r="0.2"/>
<circle class="st67" cx="32" cy="26.5" r="0.2"/>
<circle class="st67" cx="32.8" cy="28.3" r="0.2"/>
<circle class="st67" cx="30.5" cy="32.4" r="0.2"/>
<g class="st49">
	<g>
		<path class="st8" d="M30.1,31.9L30.1,31.9c-0.2-0.1-0.2-0.2-0.1-0.3c0.3-0.4,0.3-0.8,0.1-1.3c-0.1-0.1,0-0.3,0.1-0.3
			c0.1-0.1,0.3,0,0.3,0.1c0.3,0.6,0.2,1.2-0.2,1.8C30.2,31.8,30.2,31.9,30.1,31.9z"/>
	</g>
</g>
<g class="st49">
	<g>
		<path class="st8" d="M42.8,31.9c-0.1,0-0.1,0-0.2-0.1c-0.4-0.5-0.5-1.2-0.2-1.8c0.1-0.1,0.2-0.2,0.3-0.1c0.1,0.1,0.2,0.2,0.1,0.3
			c-0.2,0.4-0.2,0.9,0.1,1.3C43,31.6,43,31.8,42.8,31.9C42.9,31.9,42.9,31.9,42.8,31.9z"/>
	</g>
</g>
<path class="st12" d="M31.7,30.9h9.2c0.3,0,0.4,0.3,0.3,0.5c-0.5,0.9-1.9,2.9-4.7,2.9c-2.8,0-4.4-1.9-5.1-2.8
	C31.2,31.2,31.4,30.9,31.7,30.9z"/>
<g id="XMLID_5_" class="st7">
	<path id="XMLID_6_" class="st8" d="M23.1,25c0.1-0.2,0.4-0.1,0.4,0.1c-0.5,1.4,0,2.3,0.6,2.5c0.1,0.1,0.1,0.2,0.1,0.3
		C23.8,28.4,22.5,26.9,23.1,25z"/>
</g>
<path class="st51" d="M69.1,62.9c-1.8-4.8-7.3-14-12.5-13.4c0,0-2,12.2,0.5,23.7h14.3C71.4,73.3,70.9,67.7,69.1,62.9z"/>
<path class="st52" d="M56.6,49.2h-0.2v0.2c0,0.2-1.9,12.3,0.6,23.8h0.5c-2.3-10.7-0.9-22-0.6-23.6L56.6,49.2z"/>
<g>
	<path class="st52" d="M71.2,73.2c0-0.1-0.5-5.6-2.3-10.3c-1.9-4.9-7.3-13.7-12.2-13.2l-0.1-0.6c5.4-0.6,11,9.1,12.7,13.5
		c1.9,4.9,2.4,10.6,2.4,10.6S71.2,73.2,71.2,73.2z"/>
</g>
</svg>
