<?xml version="1.0" encoding="utf-8"?>
<!-- Generator: Adobe Illustrator 25.2.3, SVG Export Plug-In . SVG Version: 6.00 Build 0)  -->
<svg version="1.1" id="Layer_1" xmlns="http://www.w3.org/2000/svg" xmlns:xlink="http://www.w3.org/1999/xlink" x="0px" y="0px"
	 viewBox="0 0 74.6 70.9" style="enable-background:new 0 0 74.6 70.9;" xml:space="preserve">
<style type="text/css">
	.st0{fill:#EEA38D;}
	.st1{opacity:0.2;}
	.st2{fill:#7C483C;}
	.st3{fill:#F5A88D;}
	.st4{fill:#076FB7;}
	.st5{fill:#D8967D;}
	.st6{fill:#2B3A6D;}
	.st7{fill:none;stroke:#0D456B;stroke-width:0.3988;stroke-linecap:round;stroke-linejoin:round;stroke-miterlimit:10;}
	
		.st8{opacity:5.000000e-02;fill:none;stroke:#7C483C;stroke-width:0.4743;stroke-linecap:round;stroke-miterlimit:10;enable-background:new    ;}
	.st9{fill:#FFFFFF;}
	.st10{fill:url(#SVGID_1_);}
	.st11{fill:#0D456B;}
	.st12{fill:#C6DBF0;}
	.st13{fill:#49382C;}
	.st14{opacity:0.75;fill:url(#SVGID_2_);enable-background:new    ;}
	.st15{fill:url(#SVGID_3_);}
	
		.st16{opacity:0.2;fill:none;stroke:#7C483C;stroke-width:0.4743;stroke-linecap:round;stroke-miterlimit:10;enable-background:new    ;}
	.st17{opacity:0.5;fill:url(#SVGID_4_);enable-background:new    ;}
	.st18{display:none;}
</style>
<g id="Layer_1_1_">
	<g>
		<g id="XMLID_17_">
			<path id="XMLID_18_" class="st0" d="M52,16.3c-2.5-0.5-2.2,4.9-2,7.6C50.3,29.2,55.9,17.2,52,16.3z"/>
		</g>
		<g id="XMLID_7_" class="st1">
			<path id="XMLID_14_" class="st2" d="M51.8,19c-0.1-0.2-0.4-0.1-0.3,0.1c0.5,1.5,0.2,2.4-0.3,2.7c-0.1,0.1-0.1,0.2,0,0.3
				C51.5,22.7,52.6,21.1,51.8,19z"/>
		</g>
	</g>
	<g>
		<g id="XMLID_41_">
			<path id="XMLID_62_" class="st0" d="M24.3,16.3c2.4-0.6,2.3,4.9,2.2,7.6C26.2,29.2,20.5,17.2,24.3,16.3z"/>
		</g>
		<g id="XMLID_19_" class="st1">
			<path id="XMLID_20_" class="st2" d="M24.5,19c0.1-0.2,0.4-0.1,0.3,0.1c-0.5,1.5-0.2,2.4,0.3,2.7c0.1,0.1,0.1,0.2,0,0.3
				C24.9,22.7,23.9,21.1,24.5,19z"/>
		</g>
	</g>
	<g>
		<path class="st3" d="M50.2,47.8c0,0-6.5,5.2-12.7,5.3c-6.8,0.1-13.2-5.1-10.8-6.8c1.8-1.3,2.5-4.2,2.7-7.2
			c0.3-4.5-0.7-9.3-0.7-9.3s1.3-0.7,3.2-1.5c5.3-2.3,15.1-5.5,14.5,1.8C45.4,40.1,50.2,47.8,50.2,47.8z"/>
		<path class="st4" d="M74.6,70.9H0c0,0,5-16.5,8.9-18.9c2.8-1.7,12.5-6,17.7-8.3c2-0.9,3.3-1.5,3.3-1.5s6.3,10.2,8.2,10.3
			c1.2,0.1,6-8.6,9.5-10.3c0.7,0.4,1.4,0.7,2.1,1c6.8,3,15.7,4.6,17.8,7.4c2.3,3.1,4.6,10.1,4.6,10.1L74.6,70.9z"/>
		<path class="st5" d="M46.2,33c0,0-4.9,17.4-17,8c0.3-4.5-0.9-11-0.9-11s1.6,0.7,3.5-0.1L46.2,33z"/>
	</g>
	<g id="XMLID_63_">
		<path id="XMLID_64_" class="st3" d="M48.9,6.3C46.8,2.5,45,0.2,38.6,0c-7.4-0.3-12.2,4.4-13.2,12.7c-0.4,2.8,0.4,5.2,0.7,7.6
			c0.2,2,0.3,5.6,0.3,5.6c1.8,6.2,5.3,10.2,7.6,11.4c3.2,1.6,6.8,0.3,9.7-1.6c3.6-2.4,5.7-6.9,6.8-12.2c0-0.1,0-1,0-1.1
			c0.1-1,0-1.6,0.1-2.6c0.1-1.4,0.6-2.8,0.6-4.2C50.9,11.9,50.3,8.7,48.9,6.3z"/>
	</g>
	<ellipse class="st6" cx="32.2" cy="19.2" rx="0.9" ry="1.4"/>
	<ellipse class="st6" cx="43.9" cy="19.2" rx="0.9" ry="1.4"/>
	<path class="st7" d="M66.2,50.7c0,0-4.7,8.9-5,13.8S60,59.6,60,59.6"/>
	<path class="st7" d="M8.3,52.9c0,0,7.9,12.5,7.8,16.5c-0.1,3.9-2.3-3.3-2.3-3.3s0.8,4.1,0,4c-0.8-0.2-1.1-2-1.1-2"/>
	<path class="st8" d="M36.9,34.6c0.8-0.2,1.7-0.3,2.5-0.3c0.3,0,0.6,0,0.8,0.2"/>
	<path class="st9" d="M34,29c0,0,2.2,0.2,4.4,0.2s4.2-0.2,4.2-0.2c0.2,0,0.4,0.1,0.3,0.3c-0.5,0.5-1.7,1.5-4.4,1.5
		c-2.6,0-4.1-1-4.7-1.5C33.6,29.2,33.8,29,34,29z"/>
	
		<linearGradient id="SVGID_1_" gradientUnits="userSpaceOnUse" x1="31.4656" y1="43.8339" x2="45.2641" y2="43.8339" gradientTransform="matrix(1 0 0 -1 0 72.0271)">
		<stop  offset="7.206684e-02" style="stop-color:#B9846E"/>
		<stop  offset="0.3593" style="stop-color:#654D3E"/>
		<stop  offset="0.5095" style="stop-color:#3F3125"/>
		<stop  offset="0.575" style="stop-color:#443529"/>
		<stop  offset="0.6662" style="stop-color:#534033"/>
		<stop  offset="0.7726" style="stop-color:#6D5243"/>
		<stop  offset="0.8893" style="stop-color:#906A57"/>
		<stop  offset="1" style="stop-color:#B9846E"/>
	</linearGradient>
	<path class="st10" d="M45.2,29.5c-1.4-2.4-2-3.7-6.1-3.1c-0.5,0.1-1.1,0.1-1.6,0c-3.9-0.6-4.3,1.3-5.8,2.7c-0.4,0.3-0.2,1,0.2,0.6
		c1-1,3.2-1.7,6.7-1.7c3.6,0,5.3,1,6.3,2C45.2,30.3,45.4,29.9,45.2,29.5z"/>
	<g>
		<path class="st11" d="M29,42.3v-1.1c0,0-3.3,0.3-3.9,1.5c-0.1,0.1-0.3,1.1-0.3,1.3c0,0.5,3.9,12.5,3.9,12.5s4.7-3.4,5.7-3.8
			c1-0.5,3.5-0.1,3.5-0.1L29,42.3z"/>
		<path class="st11" d="M47.4,42.3v-1.1c0,0,3.3,0.6,4.1,1.8c0.1,0.2,0.3,0.8,0.3,1c0,0.5-4,12.5-4,12.5S43,53.1,42,52.7
			c-1-0.5-3.5-0.1-3.5-0.1L47.4,42.3z"/>
	</g>
	<g>
		<path class="st12" d="M29.2,41.3v-1.1c0,0-4.2,1.5-4.2,2.8c0,0.5,3.8,12.5,3.8,12.5s4.6-3.4,5.6-3.8c1-0.5,3.4,0.9,3.4,0.9
			L29.2,41.3z"/>
		<path class="st12" d="M47.2,41.3v-1.1c0,0,4.3,1.5,4.3,2.8c0,0.5-3.9,12.5-3.9,12.5s-4.7-3.4-5.7-3.8c-1-0.5-3.5,0.9-3.5,0.9
			L47.2,41.3z"/>
	</g>
	<circle class="st11" cx="39.9" cy="55.8" r="0.6"/>
	<circle class="st11" cx="39.5" cy="58" r="0.6"/>
	<path class="st3" d="M44.5,31.9c-0.4,0.2-0.9,0.4-1.2,0.7c-0.9,0.8-2.5,1.8-3.7,1.7c-0.3,0-0.6-0.2-0.3-0.9c0.2-0.4,1.1-1,0.7-1
		c-0.2,0-0.9,0.3-1.7,0.3s-1.6-0.3-1.8-0.3c-0.3,0,0.5,0.8,0.6,0.8c0.5,0.3,0.4,1.1-0.5,1.1c-0.7,0.1-2.2-1-3.1-1.6
		c-0.5-0.3-1-0.6-1.5-0.8c-1.3-0.6-2.5-1.4-3.3-2.6c-0.9-1.5-1.3-2.6-1.2-3c-0.2-1-1.1-6.2-1.1-7.1c0,0-1.1-2-0.7-0.9
		c0.8,2.9,0.4,6.6,0.8,8.6l0,0c0,4,2.2,7.7,5,9.8c1.6,1.5,4.4,3.7,6.7,3.4c2.4,0.3,5-2.2,6.8-3.4c4-2.6,5.6-8.7,5.3-13.4l0,0
		c-0.3-1,0.8-4.4-0.1-5.4c-0.4,2.6-1.4,9.9-2.4,11.4C47.1,30.4,45.8,31.2,44.5,31.9z"/>
	<path class="st13" d="M42.3,15.4c0,0-0.8,0-0.7-0.8s1.1-0.7,1.7-0.6c0.5,0,3.9,0.1,4.8,1.7c0,0.1,0,0.2-0.1,0.2
		C46.1,15.4,42.3,15.4,42.3,15.4z"/>
	<path class="st13" d="M34.5,15.6c0,0,0.8,0,0.7-0.7s-1.1-0.8-1.6-0.8s-3.9-0.3-4.9,1.3c-0.1,0.1,0,0.2,0.1,0.2
		C30.7,15.3,34.5,15.6,34.5,15.6z"/>
	
		<linearGradient id="SVGID_2_" gradientUnits="userSpaceOnUse" x1="38.3353" y1="37.4448" x2="38.3353" y2="41.1945" gradientTransform="matrix(1 0 0 -1 0 72.0271)">
		<stop  offset="0.1788" style="stop-color:#F5A88D"/>
		<stop  offset="0.6983" style="stop-color:#3F3125"/>
	</linearGradient>
	<path class="st14" d="M39.6,33.5c0.5-0.6,1.4-1.9,0.9-1.9c-0.3,0-1.2,0.5-2.1,0.5c-1,0-2-0.6-2.3-0.5c-0.4,0.1,0.9,1.8,1.1,1.9
		c0.3,0.2,0.8,0.7,1.1,0.7C38.7,34.3,39.4,33.9,39.6,33.5z"/>
	
		<linearGradient id="SVGID_3_" gradientUnits="userSpaceOnUse" x1="38.1137" y1="31.955" x2="38.1137" y2="54.9737" gradientTransform="matrix(1 0 0 -1 0 72.0271)">
		<stop  offset="0.1028" style="stop-color:#3F3125"/>
		<stop  offset="0.8212" style="stop-color:#F5A88D"/>
	</linearGradient>
	<path class="st15" d="M44.5,31.9c-0.4,0.2-0.9,0.4-1.2,0.7c-0.9,0.8-2.5,2.4-3.1,2.5c-0.1,0-0.4,0.5-1.7,0.5s-1.6-0.4-2.1-0.6
		c-0.7-0.2-1.9-1.6-2.8-2.3c-0.5-0.3-1-0.6-1.5-0.8c-1.3-0.6-2.5-1.4-3.3-2.6c-0.9-1.5-1.3-2.6-1.2-3c-0.2-1-1.1-6.2-1.1-7.1
		c0,0-1.3-2.9-0.9-1.8c0.8,2.9,0.6,7.5,1,9.5l0,0c0,4,2.2,7.7,5,9.8c1.6,1.5,4.4,3.7,6.7,3.4c2.4,0.3,5-2.2,6.8-3.4
		c3.9-2.6,5.6-8.6,5.3-13.2v-0.1c-0.1-1,0.8-4.4-0.1-5.4c-0.4,2.6-0.4,8.7-1.3,10.2C48.1,29.2,45.8,31.2,44.5,31.9z"/>
	<path class="st16" d="M38.4,18.3c0,1.4,1.1,4,1.7,5.2c0.3,0.6,1.3,1.8-1.9,1.8l0,0c-2.7,0-1.5-1.8-1.5-1.8"/>
	<polygon class="st11" points="36.6,52.3 37.9,59.5 39.5,52.3 38,52.6 	"/>
	
		<linearGradient id="SVGID_4_" gradientUnits="userSpaceOnUse" x1="37.9909" y1="75.1607" x2="38.541" y2="29.7497" gradientTransform="matrix(1 0 0 -1 0 72.0271)">
		<stop  offset="0.1834" style="stop-color:#3F3125"/>
		<stop  offset="0.4013" style="stop-color:#F5A88D"/>
	</linearGradient>
	<path class="st17" d="M48.9,6.3C46.8,2.5,45,0.2,38.6,0c-7.4-0.3-12.2,4.4-13.2,12.7c-0.2,1.4,0.1,2.8,0.1,4.1
		c0.4-0.6,0.4-1.2,0.5-1.2c0.4-1.1,1-3,1.8-4.9c1.3-3.4,3.1-6.8,5.2-5.9c2.7,1.1,2.8,1.1,5.2,1.1c2.7,0,3.5-0.3,5.4-1.1
		c1.5-0.6,3.4,2.9,4.8,6.3c0.8,1.8,1.4,3.5,1.8,4.6c0,0.1,0.4,0.7,0.9,1.3C51,12.8,50.5,9.1,48.9,6.3z"/>
</g>
</svg>
