<?xml version="1.0" encoding="utf-8"?>
<!-- Generator: Adobe Illustrator 25.2.3, SVG Export Plug-In . SVG Version: 6.00 Build 0)  -->
<svg version="1.1" id="Layer_1" xmlns="http://www.w3.org/2000/svg" xmlns:xlink="http://www.w3.org/1999/xlink" x="0px" y="0px"
	 viewBox="0 0 71.7 73.2" style="enable-background:new 0 0 71.7 73.2;" xml:space="preserve">
<style type="text/css">
	.st0{fill:#575756;}
	.st1{fill:#F5A88D;}
	.st2{fill:url(#SVGID_1_);}
	.st3{fill:#D8967D;}
	.st4{fill:#1C603B;}
	.st5{fill:#462922;}
	.st6{fill:#EEA38D;}
	.st7{opacity:0.2;}
	.st8{fill:#7C483C;}
	.st9{fill:#49382C;}
	.st10{fill:#4D3932;}
	.st11{fill:#392924;}
	.st12{fill:#FFFFFF;}
	.st13{fill:#2E9661;}
	.st14{fill:none;stroke:#1C603B;stroke-width:0.3489;stroke-linecap:round;stroke-miterlimit:10;}
	.st15{fill:none;stroke:#1C603B;stroke-width:0.3489;stroke-linecap:round;stroke-miterlimit:10;stroke-dasharray:0.2026,1.013;}
	
		.st16{opacity:5.000000e-02;fill:none;stroke:#7C483C;stroke-width:0.4743;stroke-linecap:round;stroke-miterlimit:10;enable-background:new    ;}
	.st17{opacity:0.3;fill:url(#SVGID_2_);enable-background:new    ;}
	.st18{fill:url(#SVGID_3_);}
	.st19{fill:url(#SVGID_4_);}
	.st20{fill:#EDA887;}
	.st21{fill:#D49974;}
	.st22{fill:#351E19;}
	.st23{opacity:0.5;fill:url(#SVGID_5_);enable-background:new    ;}
	.st24{opacity:0.5;fill:url(#SVGID_6_);enable-background:new    ;}
	.st25{fill:none;stroke:#AF7D61;stroke-width:0.4033;stroke-linecap:round;stroke-miterlimit:10;}
	
		.st26{opacity:0.2;fill:none;stroke:#7C483C;stroke-width:0.4021;stroke-linecap:round;stroke-miterlimit:10;enable-background:new    ;}
	.st27{fill:none;stroke:#353535;stroke-width:0.5041;stroke-linecap:round;stroke-miterlimit:10;}
	.st28{fill:none;stroke:#353535;stroke-width:0.3081;stroke-linecap:round;stroke-miterlimit:10;}
	.st29{fill:none;stroke:#351E19;stroke-width:0.3063;stroke-linecap:round;stroke-miterlimit:10;}
	.st30{fill:none;stroke:url(#SVGID_7_);stroke-width:0.209;stroke-linecap:round;stroke-linejoin:round;stroke-miterlimit:10;}
	.st31{fill:none;stroke:#9E4E48;stroke-width:0.3016;stroke-linecap:round;stroke-miterlimit:10;}
	.st32{fill:url(#SVGID_8_);}
	.st33{fill:url(#SVGID_9_);}
	.st34{fill:url(#SVGID_10_);}
	.st35{fill:url(#SVGID_11_);}
	.st36{fill:url(#SVGID_12_);}
	.st37{fill:url(#SVGID_13_);}
	.st38{opacity:0.8;fill:#9E4E48;enable-background:new    ;}
	.st39{fill:none;stroke:#303030;stroke-width:0.1605;stroke-linecap:round;stroke-linejoin:round;stroke-miterlimit:10;}
	.st40{fill:url(#SVGID_14_);}
	.st41{fill:url(#SVGID_15_);}
	.st42{fill:url(#SVGID_16_);}
	.st43{fill:url(#SVGID_17_);}
	.st44{fill:url(#SVGID_18_);}
	.st45{fill:none;stroke:url(#SVGID_19_);stroke-width:0.1008;stroke-linecap:round;stroke-miterlimit:10;}
	.st46{fill:none;stroke:url(#SVGID_20_);stroke-width:0.1008;stroke-linecap:round;stroke-miterlimit:10;}
	.st47{fill:url(#SVGID_21_);}
	
		.st48{opacity:5.000000e-02;fill:none;stroke:#7C483C;stroke-width:0.4782;stroke-linecap:round;stroke-miterlimit:10;enable-background:new    ;}
	.st49{opacity:0.15;}
	.st50{fill:#2A2220;}
	.st51{fill:#FFC050;}
	.st52{fill:#E0A038;}
	.st53{fill:#E2A139;}
	.st54{fill:#343633;}
	.st55{fill:#FFFFFC;}
	.st56{fill:#D08061;}
	.st57{fill:#B37658;}
	.st58{fill:#DDA06F;}
	.st59{opacity:0.3;enable-background:new    ;}
	.st60{clip-path:url(#SVGID_23_);fill:#D8967D;}
	.st61{clip-path:url(#SVGID_25_);fill:#D8967D;}
	.st62{clip-path:url(#SVGID_27_);fill:#D8967D;}
	.st63{fill:#2B3A6D;}
	.st64{opacity:0.5;fill:url(#SVGID_28_);enable-background:new    ;}
	.st65{opacity:0.5;fill:url(#SVGID_29_);enable-background:new    ;}
	
		.st66{opacity:5.000000e-02;fill:none;stroke:#7C483C;stroke-width:0.4451;stroke-linecap:round;stroke-miterlimit:10;enable-background:new    ;}
	.st67{opacity:0.3;fill:#CD805F;enable-background:new    ;}
	.st68{fill:#076FB7;}
	.st69{fill:none;stroke:#0D456B;stroke-width:0.4117;stroke-linecap:round;stroke-linejoin:round;stroke-miterlimit:10;}
	
		.st70{opacity:5.000000e-02;fill:none;stroke:#7C483C;stroke-width:0.4896;stroke-linecap:round;stroke-miterlimit:10;enable-background:new    ;}
	.st71{fill:url(#SVGID_30_);}
	.st72{fill:#0D456B;}
	.st73{fill:#C6DBF0;}
	.st74{opacity:0.75;fill:url(#SVGID_31_);enable-background:new    ;}
	.st75{fill:url(#SVGID_32_);}
	
		.st76{opacity:0.2;fill:none;stroke:#7C483C;stroke-width:0.4896;stroke-linecap:round;stroke-miterlimit:10;enable-background:new    ;}
	.st77{opacity:0.5;fill:url(#SVGID_33_);enable-background:new    ;}
	.st78{fill:#4D3933;}
	.st79{fill:url(#SVGID_34_);}
	.st80{opacity:0.5;}
	.st81{fill:#58403A;}
	.st82{fill:#B28025;}
	.st83{fill:none;stroke:#7C483C;stroke-width:0.3804;stroke-linecap:round;stroke-miterlimit:10;}
	.st84{fill:url(#SVGID_35_);}
	.st85{opacity:0.5;fill:url(#SVGID_36_);enable-background:new    ;}
	.st86{opacity:0.5;fill:url(#SVGID_37_);enable-background:new    ;}
	.st87{fill:none;stroke:#9E4E48;stroke-width:0.2853;stroke-linecap:round;stroke-miterlimit:10;}
	.st88{fill:url(#XMLID_95_);}
	.st89{fill:url(#SVGID_38_);}
	.st90{fill:none;stroke:url(#SVGID_39_);stroke-width:9.537996e-02;stroke-linecap:round;stroke-miterlimit:10;}
	.st91{fill:none;stroke:url(#SVGID_40_);stroke-width:9.537996e-02;stroke-linecap:round;stroke-miterlimit:10;}
	.st92{opacity:0.6;fill:#CD805F;enable-background:new    ;}
	
		.st93{opacity:0.5;fill:none;stroke:#58403A;stroke-width:0.4769;stroke-linecap:round;stroke-linejoin:round;stroke-miterlimit:10;enable-background:new    ;}
	.st94{fill:#DADADA;}
	.st95{fill:#D59175;}
	.st96{fill:none;stroke:#58403A;stroke-width:0.4769;stroke-linecap:round;stroke-linejoin:round;stroke-miterlimit:10;}
	.st97{fill:url(#SVGID_41_);stroke:#C6C6C6;stroke-width:2.861399e-02;stroke-linejoin:round;stroke-miterlimit:10;}
	.st98{fill:url(#SVGID_42_);stroke:url(#SVGID_43_);stroke-width:1.0891;stroke-miterlimit:10;}
	.st99{fill:none;stroke:url(#SVGID_44_);stroke-width:0.1954;stroke-linecap:round;stroke-linejoin:round;stroke-miterlimit:10;}
	.st100{fill:none;stroke:url(#SVGID_45_);stroke-width:0.2499;stroke-linecap:round;stroke-miterlimit:10;}
	.st101{fill:url(#SVGID_46_);stroke:url(#SVGID_47_);stroke-width:1.0891;stroke-miterlimit:10;}
	.st102{fill:none;stroke:url(#SVGID_48_);stroke-width:0.1954;stroke-linecap:round;stroke-linejoin:round;stroke-miterlimit:10;}
	.st103{opacity:0.63;fill:url(#SVGID_49_);enable-background:new    ;}
	
		.st104{opacity:0.17;fill:none;stroke:url(#SVGID_50_);stroke-width:0.2499;stroke-linecap:round;stroke-miterlimit:10;enable-background:new    ;}
	
		.st105{opacity:0.17;fill:none;stroke:url(#SVGID_51_);stroke-width:0.2499;stroke-linecap:round;stroke-miterlimit:10;enable-background:new    ;}
	.st106{fill:url(#SVGID_52_);}
	.st107{fill:none;stroke:#5C362D;stroke-width:0.2465;stroke-linecap:round;stroke-miterlimit:10;}
	.st108{fill:url(#SVGID_53_);}
	.st109{fill:url(#SVGID_54_);}
	.st110{opacity:0.45;fill:#7C483C;enable-background:new    ;}
	.st111{fill:url(#SVGID_55_);}
	.st112{fill:#9E4E48;}
	.st113{fill:none;stroke:#9D9D9C;stroke-width:0.4477;stroke-linecap:round;stroke-miterlimit:10;}
	.st114{fill:none;stroke:#EDEDED;stroke-width:0.4785;stroke-linecap:round;stroke-miterlimit:10;stroke-dasharray:0.2743,1.3715;}
	.st115{clip-path:url(#SVGID_57_);fill:#B99B6C;}
	.st116{clip-path:url(#SVGID_59_);fill:#B99B6C;}
	.st117{clip-path:url(#SVGID_61_);fill:#B99B6C;}
	.st118{clip-path:url(#SVGID_63_);fill:#B99B6C;}
	.st119{clip-path:url(#SVGID_65_);fill:#B99B6C;}
	.st120{clip-path:url(#SVGID_67_);fill:#B99B6C;}
	.st121{clip-path:url(#SVGID_69_);fill:#B99B6C;}
	.st122{clip-path:url(#SVGID_71_);fill:#B99B6C;}
	.st123{clip-path:url(#SVGID_73_);fill:#B99C6C;}
	.st124{clip-path:url(#SVGID_75_);fill:#BA9C6C;}
	.st125{clip-path:url(#SVGID_77_);fill:#BA9C6C;}
	.st126{clip-path:url(#SVGID_79_);fill:#BA9C6C;}
	.st127{clip-path:url(#SVGID_81_);fill:#BA9C6C;}
	.st128{clip-path:url(#SVGID_83_);fill:#BA9C6C;}
	.st129{clip-path:url(#SVGID_85_);fill:#BA9C6D;}
	.st130{clip-path:url(#SVGID_87_);fill:#BB9C6D;}
	.st131{clip-path:url(#SVGID_89_);fill:#BB9D6D;}
	.st132{clip-path:url(#SVGID_91_);fill:#BB9D6D;}
	.st133{clip-path:url(#SVGID_93_);fill:#BC9D6D;}
	.st134{clip-path:url(#SVGID_95_);fill:#BC9D6D;}
	.st135{clip-path:url(#SVGID_97_);fill:#BC9E6D;}
	.st136{clip-path:url(#SVGID_99_);fill:#BD9E6E;}
	.st137{clip-path:url(#SVGID_101_);fill:#BD9E6E;}
	.st138{clip-path:url(#SVGID_103_);fill:#BD9F6E;}
	.st139{clip-path:url(#SVGID_105_);fill:#BE9F6E;}
	.st140{clip-path:url(#SVGID_107_);fill:#BE9F6F;}
	.st141{clip-path:url(#SVGID_109_);fill:#BFA06F;}
	.st142{clip-path:url(#SVGID_111_);fill:#BFA06F;}
	.st143{clip-path:url(#SVGID_113_);fill:#C0A170;}
	.st144{clip-path:url(#SVGID_115_);fill:#C1A170;}
	.st145{clip-path:url(#SVGID_117_);fill:#C1A270;}
	.st146{clip-path:url(#SVGID_119_);fill:#C2A271;}
	.st147{clip-path:url(#SVGID_121_);fill:#C3A371;}
	.st148{clip-path:url(#SVGID_123_);fill:#C3A371;}
	.st149{clip-path:url(#SVGID_125_);fill:#C4A472;}
	.st150{clip-path:url(#SVGID_127_);fill:#C5A572;}
	.st151{clip-path:url(#SVGID_129_);fill:#C6A573;}
	.st152{clip-path:url(#SVGID_131_);fill:#C7A673;}
	.st153{clip-path:url(#SVGID_133_);fill:#C8A774;}
	.st154{clip-path:url(#SVGID_135_);fill:#C8A774;}
	.st155{clip-path:url(#SVGID_137_);fill:#C9A874;}
	.st156{clip-path:url(#SVGID_139_);fill:#CAA975;}
	.st157{clip-path:url(#SVGID_141_);fill:#CBAA75;}
	.st158{clip-path:url(#SVGID_143_);fill:#CCAA76;}
	.st159{clip-path:url(#SVGID_145_);fill:#CDAB77;}
	.st160{clip-path:url(#SVGID_147_);fill:#CEAC77;}
	.st161{clip-path:url(#SVGID_149_);fill:#CFAD78;}
	.st162{clip-path:url(#SVGID_151_);fill:#D0AE78;}
	.st163{clip-path:url(#SVGID_153_);fill:#D2AF79;}
	.st164{clip-path:url(#SVGID_155_);fill:#D3B079;}
	.st165{clip-path:url(#SVGID_157_);fill:#D4B17A;}
	.st166{clip-path:url(#SVGID_159_);fill:#D5B27B;}
	.st167{clip-path:url(#SVGID_161_);fill:#D6B37B;}
	.st168{clip-path:url(#SVGID_163_);fill:#D8B47C;}
	.st169{clip-path:url(#SVGID_165_);fill:#D9B57D;}
	.st170{clip-path:url(#SVGID_167_);fill:#DAB67D;}
	.st171{clip-path:url(#SVGID_169_);fill:#DCB77E;}
	.st172{clip-path:url(#SVGID_171_);fill:#DDB87F;}
	.st173{clip-path:url(#SVGID_173_);fill:#DFB980;}
	.st174{clip-path:url(#SVGID_175_);fill:#E0BA81;}
	.st175{clip-path:url(#SVGID_177_);fill:#E2BC81;}
	.st176{clip-path:url(#SVGID_179_);fill:#E3BD82;}
	.st177{clip-path:url(#SVGID_181_);fill:#E5BE83;}
	.st178{clip-path:url(#SVGID_183_);fill:#E5BE83;}
	.st179{clip-path:url(#SVGID_185_);fill:#E5BE83;}
	.st180{clip-path:url(#SVGID_187_);fill:#E4BD83;}
	.st181{clip-path:url(#SVGID_189_);fill:#E4BD82;}
	.st182{clip-path:url(#SVGID_191_);fill:#E3BD82;}
	.st183{clip-path:url(#SVGID_193_);fill:#E3BC82;}
	.st184{clip-path:url(#SVGID_195_);fill:#E2BC81;}
	.st185{clip-path:url(#SVGID_197_);fill:#E2BB81;}
	.st186{clip-path:url(#SVGID_199_);fill:#E1BB81;}
	.st187{clip-path:url(#SVGID_201_);fill:#E0BA81;}
	.st188{clip-path:url(#SVGID_203_);fill:#E0BA80;}
	.st189{clip-path:url(#SVGID_205_);fill:#DFB980;}
	.st190{clip-path:url(#SVGID_207_);fill:#DFB980;}
	.st191{clip-path:url(#SVGID_209_);fill:#DEB87F;}
	.st192{clip-path:url(#SVGID_211_);fill:#DDB87F;}
	.st193{clip-path:url(#SVGID_213_);fill:#DDB77F;}
	.st194{clip-path:url(#SVGID_215_);fill:#DCB77E;}
	.st195{clip-path:url(#SVGID_217_);fill:#DBB67E;}
	.st196{clip-path:url(#SVGID_219_);fill:#DBB67E;}
	.st197{clip-path:url(#SVGID_221_);fill:#DAB57D;}
	.st198{clip-path:url(#SVGID_223_);fill:#D9B57D;}
	.st199{clip-path:url(#SVGID_225_);fill:#D9B47C;}
	.st200{clip-path:url(#SVGID_227_);fill:#D8B47C;}
	.st201{clip-path:url(#SVGID_229_);fill:#D7B37C;}
	.st202{clip-path:url(#SVGID_231_);fill:#D6B37B;}
	.st203{clip-path:url(#SVGID_233_);fill:#D6B27B;}
	.st204{clip-path:url(#SVGID_235_);fill:#D5B17B;}
	.st205{clip-path:url(#SVGID_237_);fill:#D4B17A;}
	.st206{clip-path:url(#SVGID_239_);fill:#D4B07A;}
	.st207{clip-path:url(#SVGID_241_);fill:#D3B079;}
	.st208{clip-path:url(#SVGID_243_);fill:#D2AF79;}
	.st209{clip-path:url(#SVGID_245_);fill:#D1AF79;}
	.st210{clip-path:url(#SVGID_247_);fill:#D1AE78;}
	.st211{clip-path:url(#SVGID_249_);fill:#D0AD78;}
	.st212{clip-path:url(#SVGID_251_);fill:#CFAD78;}
	.st213{clip-path:url(#SVGID_253_);fill:#CEAC77;}
	.st214{clip-path:url(#SVGID_255_);fill:#CEAC77;}
	.st215{clip-path:url(#SVGID_257_);fill:#CDAB76;}
	.st216{clip-path:url(#SVGID_259_);fill:#CCAA76;}
	.st217{clip-path:url(#SVGID_261_);fill:#CBAA76;}
	.st218{clip-path:url(#SVGID_263_);fill:#CBA975;}
	.st219{clip-path:url(#SVGID_265_);fill:#CAA975;}
	.st220{clip-path:url(#SVGID_267_);fill:#C9A874;}
	.st221{clip-path:url(#SVGID_269_);fill:#C8A774;}
	.st222{clip-path:url(#SVGID_271_);fill:#C8A774;}
	.st223{clip-path:url(#SVGID_273_);fill:#C7A673;}
	.st224{clip-path:url(#SVGID_275_);fill:#C6A573;}
	.st225{clip-path:url(#SVGID_277_);fill:#C5A572;}
	.st226{clip-path:url(#SVGID_279_);fill:#C4A472;}
	.st227{clip-path:url(#SVGID_281_);fill:#C3A371;}
	.st228{clip-path:url(#SVGID_283_);fill:#C3A371;}
	.st229{clip-path:url(#SVGID_285_);fill:#C2A270;}
	.st230{clip-path:url(#SVGID_287_);fill:#C1A170;}
	.st231{clip-path:url(#SVGID_289_);fill:#C0A170;}
	.st232{clip-path:url(#SVGID_291_);fill:#BFA06F;}
	.st233{clip-path:url(#SVGID_293_);fill:#BE9F6F;}
	.st234{clip-path:url(#SVGID_295_);fill:#BD9F6E;}
	.st235{clip-path:url(#SVGID_297_);fill:#BD9E6E;}
	.st236{clip-path:url(#SVGID_299_);fill:#BC9D6D;}
	.st237{clip-path:url(#SVGID_301_);fill:#BB9D6D;}
	.st238{clip-path:url(#SVGID_303_);fill:#BA9C6C;}
	.st239{clip-path:url(#SVGID_305_);fill:#B99B6C;}
	.st240{fill:url(#SVGID_306_);}
	.st241{opacity:0.1;fill:#2A2220;enable-background:new    ;}
	.st242{fill:url(#SVGID_307_);}
	.st243{opacity:0.45;fill:url(#SVGID_308_);enable-background:new    ;}
	.st244{fill:url(#SVGID_309_);}
	.st245{fill:url(#SVGID_310_);}
	.st246{opacity:0.83;fill:#7C483C;enable-background:new    ;}
	.st247{fill:url(#SVGID_311_);}
	.st248{fill:#EDEDED;}
	.st249{opacity:0.1;}
	.st250{fill:none;stroke:#EDEDED;stroke-width:0.4677;stroke-linecap:round;stroke-miterlimit:10;}
	.st251{fill:none;stroke:#EDEDED;stroke-width:0.4677;stroke-linecap:round;stroke-miterlimit:10;stroke-dasharray:0.267,1.3352;}
	.st252{fill:url(#SVGID_312_);}
	.st253{fill:none;stroke:url(#SVGID_313_);stroke-width:0.1479;stroke-linecap:round;stroke-linejoin:round;stroke-miterlimit:10;}
	.st254{fill:none;stroke:url(#SVGID_314_);stroke-width:0.1479;stroke-linecap:round;stroke-linejoin:round;stroke-miterlimit:10;}
	.st255{fill:url(#SVGID_315_);}
	.st256{fill:url(#SVGID_316_);}
	.st257{fill:url(#SVGID_317_);}
	.st258{fill:#F3D09C;}
</style>
<g>
	<g>
		<g id="XMLID_88_">
			<path id="XMLID_89_" class="st6" d="M51,16.8c-2.6-0.5-2.3,5.1-2.1,7.8C49.3,30.2,55,17.8,51,16.8z"/>
		</g>
		<g id="XMLID_86_" class="st7">
			<path id="XMLID_87_" class="st8" d="M50.8,19.6c-0.1-0.2-0.4-0.1-0.3,0.1c0.5,1.5,0.2,2.5-0.3,2.8c-0.1,0.1-0.1,0.2,0,0.3
				C50.5,23.4,51.6,21.8,50.8,19.6z"/>
		</g>
	</g>
	<g>
		<g id="XMLID_84_">
			<path id="XMLID_85_" class="st6" d="M22.4,16.8c2.5-0.6,2.4,5.1,2.3,7.8C24.4,30.2,18.5,17.8,22.4,16.8z"/>
		</g>
		<g id="XMLID_82_" class="st7">
			<path id="XMLID_83_" class="st8" d="M22.6,19.6c0.1-0.2,0.4-0.1,0.3,0.1c-0.5,1.5-0.2,2.5,0.3,2.8c0.1,0.1,0.1,0.2,0,0.3
				C23.1,23.4,22,21.8,22.6,19.6z"/>
		</g>
	</g>
	<path class="st1" d="M49.2,49.4c0,0-6.7,5.4-13.1,5.5c-7,0.1-13.6-5.3-11.1-7c1.9-1.3,2.6-4.3,2.8-7.4c0.3-4.6-0.7-9.6-0.7-9.6
		s1.3-0.7,3.3-1.5c5.5-2.4,15.6-5.7,15,1.9C44.2,41.4,49.2,49.4,49.2,49.4z"/>
	<path class="st68" d="M64.3,53.7c-2.9-1.8-11.3-6.2-16.6-8.6c-1.9-0.9-8.8,8.5-11.3,10c-2.3-0.9-8.9-11.5-8.9-11.5
		s-1.3,0.6-3.4,1.5c-5.4,2.4-13.7,6.8-16.6,8.6C3.4,56.2,0,73.2,0,73.2h35.8h0h35.8C71.7,73.2,68.3,56.2,64.3,53.7z"/>
	<path class="st3" d="M45,34.1c0,0-5.1,18-17.5,8.3c0.3-4.6-0.9-11.4-0.9-11.4s1.7,0.7,3.6-0.1L45,34.1z"/>
	<g id="XMLID_80_">
		<path id="XMLID_81_" class="st1" d="M47.8,6.5c-2.2-3.9-4-6.3-10.6-6.5c-7.6-0.3-12.6,4.5-13.6,13.1C23.2,16,24,18.5,24.3,21
			c0.2,2.1,0.3,5.8,0.3,5.8c1.9,6.4,5.5,10.5,7.8,11.8c3.3,1.7,7,0.3,10-1.7c3.7-2.5,5.9-7.1,7-12.6c0-0.1,0-1,0-1.1
			c0.1-1,0-1.7,0.1-2.7c0.1-1.4,0.6-2.9,0.6-4.3C49.9,12.3,49.3,9,47.8,6.5z"/>
	</g>
	<ellipse class="st63" cx="30.6" cy="19.8" rx="0.9" ry="1.4"/>
	<ellipse class="st63" cx="42.7" cy="19.8" rx="0.9" ry="1.4"/>
	<path class="st69" d="M61.6,54.6c0,0-4.9,9.2-5.2,14.2c-0.3,5.1-1.2-5.1-1.2-5.1"/>
	<path class="st69" d="M9,54.6c0,0,8.2,12.9,8.1,17c-0.1,4-2.4-3.4-2.4-3.4s0.8,4.2,0,4.1c-0.8-0.2-1.1-2.1-1.1-2.1"/>
	<path class="st70" d="M35.4,35.7c0.8-0.2,1.8-0.3,2.6-0.3c0.3,0,0.6,0,0.8,0.2"/>
	<path class="st12" d="M32.4,29.9c0,0,2.3,0.2,4.5,0.2c2.3,0,4.3-0.2,4.3-0.2c0.2,0,0.4,0.1,0.3,0.3c-0.5,0.5-1.8,1.5-4.5,1.5
		c-2.7,0-4.2-1-4.9-1.5C32,30.2,32.2,29.9,32.4,29.9z"/>
	
		<linearGradient id="SVGID_1_" gradientUnits="userSpaceOnUse" x1="29.8275" y1="1037.0751" x2="44.0709" y2="1037.0751" gradientTransform="matrix(1 0 0 1 0 -1007.9729)">
		<stop  offset="7.206684e-02" style="stop-color:#B9846E"/>
		<stop  offset="0.3593" style="stop-color:#654D3E"/>
		<stop  offset="0.5095" style="stop-color:#3F3125"/>
		<stop  offset="0.575" style="stop-color:#443529"/>
		<stop  offset="0.6662" style="stop-color:#534033"/>
		<stop  offset="0.7726" style="stop-color:#6D5243"/>
		<stop  offset="0.8893" style="stop-color:#906A57"/>
		<stop  offset="1" style="stop-color:#B9846E"/>
	</linearGradient>
	<path class="st2" d="M44,30.5c-1.4-2.5-2.1-3.8-6.3-3.2c-0.5,0.1-1.1,0.1-1.7,0c-4-0.6-4.4,1.3-6,2.8c-0.4,0.3-0.2,1,0.2,0.6
		c1-1,3.3-1.8,6.9-1.8c3.7,0,5.5,1,6.5,2.1C44,31.3,44.2,30.9,44,30.5z"/>
	<g>
		<path class="st72" d="M27.3,43.7v-1.1c0,0-3.4,0.3-4,1.5c-0.1,0.1-0.3,1.1-0.3,1.3c0,0.5,4,12.9,4,12.9s4.9-3.5,5.9-3.9
			c1-0.5,3.6-0.1,3.6-0.1L27.3,43.7z"/>
		<path class="st72" d="M46.3,43.7v-1.1c0,0,3.4,0.6,4.2,1.9c0.1,0.2,0.3,0.8,0.3,1c0,0.5-4.1,12.9-4.1,12.9s-5-3.5-6-3.9
			c-1-0.5-3.6-0.1-3.6-0.1L46.3,43.7z"/>
	</g>
	<g>
		<path class="st73" d="M27.5,42.6v-1.1c0,0-4.3,1.5-4.3,2.9c0,0.5,3.9,12.9,3.9,12.9s4.7-3.5,5.8-3.9c1-0.5,3.5,0.9,3.5,0.9
			L27.5,42.6z"/>
		<path class="st73" d="M46.1,42.6v-1.1c0,0,4.4,1.5,4.4,2.9c0,0.5-4,12.9-4,12.9s-4.9-3.5-5.9-3.9c-1-0.5-3.6,0.9-3.6,0.9
			L46.1,42.6z"/>
	</g>
	<circle class="st72" cx="38.5" cy="57.6" r="0.6"/>
	<circle class="st72" cx="38.1" cy="59.9" r="0.6"/>
	<path class="st1" d="M43.3,32.9c-0.4,0.2-0.9,0.4-1.2,0.7c-0.9,0.8-2.6,1.9-3.8,1.8c-0.3,0-0.6-0.2-0.3-0.9c0.2-0.4,1.1-1,0.7-1
		c-0.2,0-0.9,0.3-1.8,0.3s-1.7-0.3-1.9-0.3c-0.3,0,0.5,0.8,0.6,0.8c0.5,0.3,0.4,1.1-0.5,1.1c-0.7,0.1-2.3-1-3.2-1.7
		c-0.5-0.3-1-0.6-1.5-0.8c-1.3-0.6-2.6-1.4-3.4-2.7c-0.9-1.5-1.3-2.7-1.2-3.1c-0.2-1-1.1-6.4-1.1-7.3c0,0-1.1-2.1-0.7-0.9
		c0.8,3,0.4,6.8,0.8,8.9l0,0c0,4.1,2.3,7.9,5.2,10.1c1.7,1.5,4.5,3.8,6.9,3.5c2.5,0.3,5.2-2.3,7-3.5c4.1-2.7,5.8-9,5.5-13.8l0,0
		c-0.3-1,0.8-4.5-0.1-5.6c-0.4,2.7-1.4,10.2-2.5,11.8C46,31.4,44.6,32.2,43.3,32.9z"/>
	<path class="st9" d="M41,15.9c0,0-0.8,0-0.7-0.8s1.1-0.7,1.8-0.6c0.5,0,4,0.1,5,1.8c0,0.1,0,0.2-0.1,0.2C44.9,15.9,41,15.9,41,15.9
		z"/>
	<path class="st9" d="M33,16.1c0,0,0.8,0,0.7-0.7s-1.1-0.8-1.7-0.8c-0.5,0-4-0.3-5.1,1.3c-0.1,0.1,0,0.2,0.1,0.2
		C29,15.8,33,16.1,33,16.1z"/>
	
		<linearGradient id="SVGID_2_" gradientUnits="userSpaceOnUse" x1="36.9186" y1="1043.6842" x2="36.9186" y2="1039.8136" gradientTransform="matrix(1 0 0 1 0 -1007.9729)">
		<stop  offset="0.1788" style="stop-color:#F5A88D"/>
		<stop  offset="0.6983" style="stop-color:#3F3125"/>
	</linearGradient>
	<path style="opacity:0.75;fill:url(#SVGID_2_);enable-background:new    ;" d="M38.2,34.6c0.5-0.6,1.4-2,0.9-2
		c-0.3,0-1.2,0.5-2.2,0.5c-1,0-2.1-0.6-2.4-0.5c-0.4,0.1,0.9,1.9,1.1,2c0.3,0.2,0.8,0.7,1.1,0.7C37.3,35.4,38,35,38.2,34.6z"/>
	
		<linearGradient id="SVGID_3_" gradientUnits="userSpaceOnUse" x1="36.6899" y1="1049.3511" x2="36.6899" y2="1025.5901" gradientTransform="matrix(1 0 0 1 0 -1007.9729)">
		<stop  offset="0.1028" style="stop-color:#3F3125"/>
		<stop  offset="0.8212" style="stop-color:#F5A88D"/>
	</linearGradient>
	<path class="st18" d="M43.3,32.9c-0.4,0.2-0.9,0.4-1.2,0.7c-0.9,0.8-2.6,2.5-3.2,2.6c-0.1,0-0.4,0.5-1.8,0.5s-1.7-0.4-2.2-0.6
		c-0.7-0.2-2-1.7-2.9-2.4c-0.5-0.3-1-0.6-1.5-0.8c-1.3-0.6-2.6-1.4-3.4-2.7c-0.9-1.5-1.3-2.7-1.2-3.1c-0.2-1-1.1-6.4-1.1-7.3
		c0,0-1.3-3-0.9-1.9c0.8,3,0.6,7.7,1,9.8l0,0c0,4.1,2.3,7.9,5.2,10.1c1.7,1.5,4.5,3.8,6.9,3.5c2.5,0.3,5.2-2.3,7-3.5
		c4-2.7,5.8-8.9,5.5-13.6v-0.1c-0.1-1,0.8-4.5-0.1-5.6c-0.4,2.7-0.4,9-1.3,10.5C47,30.2,44.6,32.2,43.3,32.9z"/>
	<path class="st76" d="M37,18.9c0,1.4,1.1,4.1,1.8,5.4c0.3,0.6,1.3,1.9-2,1.9l0,0c-2.8,0-1.5-1.9-1.5-1.9"/>
	<polygon class="st72" points="35.1,54 36.5,61.4 38.1,54 36.6,54.3 	"/>
	
		<linearGradient id="SVGID_4_" gradientUnits="userSpaceOnUse" x1="36.5633" y1="1004.7523" x2="37.1312" y2="1051.6274" gradientTransform="matrix(1 0 0 1 0 -1007.9729)">
		<stop  offset="0.1834" style="stop-color:#3F3125"/>
		<stop  offset="0.4013" style="stop-color:#F5A88D"/>
	</linearGradient>
	<path style="opacity:0.5;fill:url(#SVGID_4_);enable-background:new    ;" d="M47.8,6.5c-2.2-3.9-4-6.3-10.6-6.5
		c-7.6-0.3-12.6,4.5-13.6,13.1c-0.2,1.4,0.1,2.9,0.1,4.2c0.4-0.6,0.4-1.2,0.5-1.2c0.4-1.1,1-3.1,1.9-5.1c1.3-3.5,3.2-7,5.4-6.1
		c2.8,1.1,2.9,1.1,5.4,1.1c2.8,0,3.6-0.3,5.6-1.1c1.5-0.6,3.5,3,5,6.5c0.8,1.9,1.4,3.6,1.9,4.7c0,0.1,0.4,0.7,0.9,1.3
		C50,13.2,49.5,9.4,47.8,6.5z"/>
</g>
</svg>
