<?xml version="1.0" encoding="utf-8"?>
<!-- Generator: Adobe Illustrator 25.2.3, SVG Export Plug-In . SVG Version: 6.00 Build 0)  -->
<svg version="1.1" id="Layer_1" xmlns="http://www.w3.org/2000/svg" xmlns:xlink="http://www.w3.org/1999/xlink" x="0px" y="0px"
	 viewBox="0 0 71.7 73.2" style="enable-background:new 0 0 71.7 73.2;" xml:space="preserve">
<style type="text/css">
	.st0{fill:#575756;}
	.st1{fill:#F5A88D;}
	.st2{fill:url(#SVGID_1_);}
	.st3{fill:#D8967D;}
	.st4{fill:#1C603B;}
	.st5{fill:#462922;}
	.st6{fill:#EEA38D;}
	.st7{opacity:0.2;}
	.st8{fill:#7C483C;}
	.st9{fill:#49382C;}
	.st10{fill:#4D3932;}
	.st11{fill:#392924;}
	.st12{fill:#FFFFFF;}
	.st13{fill:#2E9661;}
	.st14{fill:none;stroke:#1C603B;stroke-width:0.3489;stroke-linecap:round;stroke-miterlimit:10;}
	.st15{fill:none;stroke:#1C603B;stroke-width:0.3489;stroke-linecap:round;stroke-miterlimit:10;stroke-dasharray:0.2026,1.013;}
	
		.st16{opacity:5.000000e-02;fill:none;stroke:#7C483C;stroke-width:0.4743;stroke-linecap:round;stroke-miterlimit:10;enable-background:new    ;}
	.st17{opacity:0.3;fill:url(#SVGID_2_);enable-background:new    ;}
</style>
<g>
	<path class="st0" d="M49.5,52.4c-0.1,0-0.1,0-0.2-0.1l-0.1-0.2c-0.3-0.7-0.6-1.3-0.8-1.8c-1.1-2.4-1.7-3.2-3.3-3.8
		c-1.8-0.7-14.5-1.4-17.6,1c-0.5,0.4-0.7,0.8-0.6,1.3c0,0.1-0.1,0.2-0.1,0.2c-0.1,0-0.2-0.1-0.2-0.1c-0.1-0.6,0.2-1.2,0.7-1.7
		c3.2-2.6,16-1.8,17.9-1.1c1.7,0.6,2.3,1.5,3.5,4c0.2,0.5,0.5,1.1,0.8,1.8l0.1,0.2C49.7,52.2,49.6,52.3,49.5,52.4
		C49.5,52.3,49.5,52.4,49.5,52.4z"/>
</g>
<path class="st1" d="M48.5,54.6c0,0-27.7,1.8-23.2-1.5c1.8-1.3,2.5-4,2.7-6.8c0-0.2,0-0.4,0-0.7v-0.1c0.1-2.9-0.3-5.8-0.6-7.2
	c-0.1-0.5-0.2-0.8-0.2-0.8s1.3-0.7,3.2-1.4c0.3-0.1,0.7-0.3,1-0.4c0.1-0.1,0.3-0.1,0.4-0.2c5.1-1.9,12.7-3.9,12.8,1.5
	c0,0.2,0,0.5,0,0.8C43.8,47.3,48.5,54.6,48.5,54.6z"/>
<linearGradient id="SVGID_1_" gradientUnits="userSpaceOnUse" x1="0" y1="4.7821" x2="71.7" y2="4.7821" gradientTransform="matrix(1 0 0 -1 0 65.5643)">
	<stop  offset="0.2654" style="stop-color:#2D9861"/>
	<stop  offset="0.4274" style="stop-color:#2E9661"/>
	<stop  offset="1" style="stop-color:#237F4D"/>
</linearGradient>
<path class="st2" d="M69.3,64.4c0,0-2.2-6-4.4-8.7c-2-2.4-10.5-3.8-17.1-6.4c-0.7-0.3-1.4-0.6-2-0.9c0,0-1.6,3.3-8.9,3.3
	s-9.2-3.3-9.2-3.3s-0.2,0.5-2.2,1.3c-5,2-14.3,5.7-17,7.2C4.8,59,0,73.2,0,73.2h71.7L69.3,64.4z"/>
<path class="st3" d="M44.1,39.5c0,0-4.2,13.6-16,6.1c0.1-2.9-0.4-5.8-0.6-7.2c-0.1-0.5-0.2-0.8-0.2-0.8s1.4-0.7,3.4-1.4
	c0.3-0.1,0.7-0.3,1.1-0.4c0.1-0.1,0.3-0.1,0.4-0.2l11.2,3.8L44.1,39.5z"/>
<g>
	<path class="st4" d="M15.7,72.8L15.7,72.8c-0.2,0-0.2-0.1-0.2-0.3c0.5-2.8-2.2-8.5-2.4-8.8c-0.1-0.1-0.1-0.2,0-0.3
		c0.1-0.1,0.2-0.1,0.3,0c0.4,0.4,3,6.2,2.5,9.1C15.9,72.7,15.8,72.8,15.7,72.8z"/>
</g>
<g>
	<path class="st4" d="M57.8,72.8c-0.1,0-0.2-0.1-0.2-0.2c-0.5-2.9,2.2-8.7,2.5-9.1c0.1-0.1,0.2-0.1,0.3,0c0.1,0.1,0.1,0.2,0,0.3
		c-0.2,0.3-2.9,6-2.4,8.8C58,72.7,57.9,72.8,57.8,72.8L57.8,72.8z"/>
</g>
<g>
	<path class="st4" d="M58.8,72.8c-0.1,0-0.2-0.1-0.2-0.2c-0.5-2.9,2.2-8.7,2.5-9.1c0.1-0.1,0.2-0.1,0.3,0c0.1,0.1,0.1,0.2,0,0.3
		c-0.2,0.3-2.9,6-2.4,8.8C59.1,72.7,59,72.8,58.8,72.8L58.8,72.8z"/>
</g>
<g>
	<path class="st0" d="M47.7,60.8C47.7,60.8,47.6,60.8,47.7,60.8c-1.3-1.4-2.4-4-1.4-5.5c1-1.3,2.4-4.5,1.8-5.8c0-0.1,0-0.2,0.1-0.2
		s0.2,0,0.2,0.1c0.7,1.4-0.8,4.7-1.8,6.2c-0.9,1.3,0.1,3.7,1.2,4.9c0.1,0.1,0.1,0.2,0,0.2C47.8,60.8,47.7,60.8,47.7,60.8z"/>
</g>
<g>
	<path class="st0" d="M30.9,68c-0.1,0-0.1,0-0.2-0.1c-0.8-1.7-1.4-5.3,0-8.2c0.7-1.3-0.3-2.8-1.4-4.6c-1.1-1.8-2.4-3.8-2.7-6.3
		c0-0.1,0.1-0.2,0.2-0.2s0.2,0.1,0.2,0.2c0.3,2.4,1.5,4.4,2.6,6.2c1.2,1.9,2.2,3.5,1.5,5c-1.4,2.8-0.8,6.3,0,7.9
		C31,67.9,31,68,30.9,68L30.9,68z"/>
</g>
<ellipse class="st0" cx="47.7" cy="61.3" rx="1.2" ry="0.9"/>
<ellipse class="st0" cx="30.9" cy="68.4" rx="1.2" ry="0.9"/>
<path class="st0" d="M46.2,60.5h0.3V62h-0.3c-0.4,0-0.8-0.3-0.8-0.8l0,0C45.5,60.8,45.8,60.5,46.2,60.5z"/>
<path class="st0" d="M32.3,67.6H32v1.5h0.3c0.4,0,0.8-0.3,0.8-0.8l0,0C33,67.9,32.7,67.6,32.3,67.6z"/>
<g id="XMLID_537_">
	<path id="XMLID_699_" class="st1" d="M47.5,13.4c-2.1-3.7-3.9-6-10.3-6.3C29.7,6.8,25,11.5,23.9,19.8c-1.2,9.4,2,16.7,5.1,20.9
		c1.3,1.8,2.4,2.7,3.5,3.2c3.2,1.6,7,1.5,9.7-0.6c1.1-0.9,1.8-2.2,2.7-3.8C49.1,32.4,51.1,19.7,47.5,13.4z"/>
</g>
<ellipse class="st5" cx="30.8" cy="26.2" rx="0.9" ry="1.4"/>
<ellipse class="st5" cx="42.5" cy="26.2" rx="0.9" ry="1.4"/>
<g>
	<g id="XMLID_692_">
		<path id="XMLID_693_" class="st6" d="M22.6,23.5c2.4-0.7,2.6,4.7,2.7,7.4C25.4,36.2,18.9,24.6,22.6,23.5z"/>
	</g>
	<g id="XMLID_690_" class="st7">
		<path id="XMLID_691_" class="st8" d="M23,26.1c0.1-0.2,0.4-0.1,0.3,0.1c-0.4,1.5,0,2.4,0.5,2.7c0.1,0.1,0.1,0.2,0.1,0.3
			C23.6,29.8,22.5,28.2,23,26.1z"/>
	</g>
</g>
<g>
	<g id="XMLID_3_">
		<path id="XMLID_4_" class="st6" d="M50.9,23.5c-2.4-0.7-2.6,4.7-2.7,7.4C48.1,36.2,54.6,24.6,50.9,23.5z"/>
	</g>
	<g id="XMLID_1_" class="st7">
		<path id="XMLID_2_" class="st8" d="M50.5,26.1c-0.1-0.2-0.4-0.1-0.3,0.1c0.4,1.5,0,2.4-0.5,2.7c-0.1,0.1-0.1,0.2-0.1,0.3
			C49.9,29.8,51,28.2,50.5,26.1z"/>
	</g>
</g>
<path class="st9" d="M40.9,22.5c0,0-0.8,0-0.7-0.8s1.1-0.7,1.7-0.6s3.9,0.1,4.8,1.7c0,0.1,0,0.2-0.1,0.2
	C44.7,22.5,40.9,22.5,40.9,22.5z"/>
<path class="st9" d="M33.1,22.7c0,0,0.8,0,0.7-0.7s-1.1-0.8-1.6-0.8s-3.9-0.3-4.9,1.3c-0.1,0.1,0,0.2,0.1,0.2
	C29.3,22.4,33.1,22.7,33.1,22.7z"/>
<g class="st7">
	<path class="st8" d="M36.7,32.6c-1,0-1.7-0.2-1.9-0.7c-0.3-0.7,0.2-1.5,0.2-1.5c0.1-0.1,0.2-0.1,0.3-0.1s0.1,0.2,0.1,0.3
		c-0.1,0.2-0.4,0.7-0.2,1s0.7,0.5,1.5,0.5c1.5,0,1.9-0.3,2-0.5s-0.1-0.6-0.2-0.9c0-0.1-0.1-0.1-0.1-0.2c-0.6-1.3-1.7-3.9-1.7-5.3
		c0-0.1,0.1-0.2,0.2-0.2s0.2,0.1,0.2,0.2c0,1.3,1,3.8,1.6,5.1c0,0,0.1,0.1,0.1,0.2c0.2,0.3,0.5,0.9,0.2,1.3
		C38.8,32.4,38.1,32.6,36.7,32.6z"/>
</g>
<g id="XMLID_802_">
	<path id="XMLID_1381_" class="st10" d="M27.9,16.2c0.4-0.1,0.7-0.7,0.9-1c0.6-0.9,2.1-0.7,3.1-1.3c0.7-0.4,1.3-1.1,2-0.9
		c0.5,0.2,0.9,0.8,1.4,0.8s1-0.4,1.5-0.3c0.6,0.2,1,1.7,3,1c3.3-1.1,5.4,0.1,5.7,0.8c1.4,2.9,3.1,9.1,2.9,12.6l3.5-10.4
		c0.1-1-0.9-3.6-1.6-4.3c-2-2,1.7-3.9-1.5-7.8C46.3,3.5,45,2.9,43.6,4c-0.2-1.9-2.2-3.5-4.2-3.3c-3.8,0.4-2.8-2-7.7,0.4
		c-0.9,0.4-3.4,1.6-3.7,2.8C27.7,5,28.9,6.4,26.7,7c-1.1-0.1-8.2,1.6-3.5,16.5c0.2,0.8,1.2,4.6,1.5,5.3C24.4,22,26.8,16.4,27.9,16.2
		z"/>
	<g id="XMLID_1358_">
		<g id="XMLID_1379_">
			<path id="XMLID_889_" class="st11" d="M30.9,12.1c-0.7-1.7-1.6-3.8-3.4-4.4c-0.8-0.3,1.1-1.4,3,2.4c-0.3-1.1-2.7-4.4-1.8-4.5
				c0.1,0,0.2,0.1,0.2,0.2c0.1,0.8,0.6,1.6,1,2.3C31.3,10.3,31.1,10.8,30.9,12.1z"/>
		</g>
		<g id="XMLID_1377_">
			<path id="XMLID_888_" class="st11" d="M39.2,12.6c2.1-1.2,5.1-5.3,4.3-7.7c-0.3-0.8,1.9,0.1-0.6,4.2C40.1,13.8,38.5,13,39.2,12.6
				z"/>
		</g>
		<g id="XMLID_1375_">
			<path id="XMLID_887_" class="st11" d="M26.8,12.6c-0.3-0.3-2-1.1-2.4-1.3c-0.3-0.1-0.1-0.5,0.2-0.4c1.6,0.8,2.2,1,2.5,1.3
				c0.6,0.6,0.8,2.9,0.4,2.9C27.1,15.2,27.4,13.1,26.8,12.6z"/>
		</g>
		<g id="XMLID_1373_">
			<path id="XMLID_886_" class="st11" d="M37.2,7c1.3-1.6,2.4-3.6,1.4-5.4c-0.1-0.1,0-0.2,0.1-0.3c0.6-0.3,1.7,2.6-1.2,5.9
				C37.4,7.5,37,7.2,37.2,7z"/>
		</g>
		<g id="XMLID_1371_">
			<path id="XMLID_885_" class="st11" d="M33.5,12.1c1.1-1.2,1.1-3-0.1-4.2c-0.1-0.1-0.1-0.2,0-0.3c0.6-0.6,2.3,2.7,0.4,4.8
				C33.6,12.6,33.3,12.4,33.5,12.1z"/>
		</g>
		<g id="XMLID_1369_">
			<path id="XMLID_884_" class="st11" d="M38.1,9.4c0.2-0.2,0.5,0,0.4,0.3c-0.6,0.7-1.6,2-1.1,3.2C37.6,13.7,35.4,13,38.1,9.4z"/>
		</g>
		<g id="XMLID_1367_">
			<path id="XMLID_883_" class="st11" d="M46.5,16.4c1.1-1.3,2.6-3.2,2.3-5.3c-0.1-0.9,2.2,0.5-2,5.5C46.6,16.9,46.3,16.6,46.5,16.4
				z"/>
		</g>
		<g id="XMLID_1365_">
			<path id="XMLID_882_" class="st11" d="M45.9,9.5c0.5-0.6,2-2.3,1-3.6c-0.6-0.8,2.5,0-0.6,3.9C46.1,10,45.7,9.8,45.9,9.5z"/>
		</g>
		<g id="XMLID_1363_">
			<path id="XMLID_881_" class="st11" d="M37,7c0.2-1.1,0-2.2-0.5-3.2c-0.1-0.3,0.3-0.4,0.4-0.2c0.5,1.1,0.7,2.3,0.5,3.4
				C37.4,7.4,37,7.3,37,7z"/>
		</g>
		<g id="XMLID_1361_">
			<path id="XMLID_880_" class="st11" d="M24.3,19.8c-0.1,0-0.2-0.1-0.2-0.2c0.2-1.1-0.3-2.2-1.1-2.9c-0.2-0.2,0.1-0.5,0.3-0.3
				C24.9,17.6,24.9,19.9,24.3,19.8z"/>
		</g>
		<g id="XMLID_1359_">
			<path id="XMLID_879_" class="st11" d="M50.6,17.1c0.1,0.1,0,0.2,0,0.3c-1.1,0.8-1.8,2.2-1.7,3.5c0,0.1-0.1,0.2-0.2,0.2
				C47.5,21.2,49.9,16.1,50.6,17.1z"/>
		</g>
	</g>
</g>
<g>
	<path class="st12" d="M32.6,36.2c3.4,1,5.2,1,8.6,0c0.2-0.1,0.4,0,0.3,0.2c-0.4,0.6-1.7,2.2-4.4,2.2c-2.6,0-4.2-1.5-4.7-2.2
		C32.2,36.2,32.4,36.1,32.6,36.2z"/>
</g>
<path class="st13" d="M53.1,73.2v-2v-4.5c0-0.4-0.3-0.7-0.7-0.6l-2.3,0.5c-1.6,0.3-3.3,0.3-5,0l-2.3-0.5c-0.4-0.1-0.7,0.2-0.7,0.6
	v4.5v2H53.1z"/>
<g>
	<g>
		<g>
			<line class="st14" x1="42.8" y1="67" x2="42.9" y2="67.1"/>
			<path class="st15" d="M43.9,67.3l1.2,0.3c1.6,0.3,3.2,0.3,4.9,0l1.8-0.4"/>
			<line class="st14" x1="52.3" y1="67.1" x2="52.4" y2="67"/>
		</g>
	</g>
</g>
<g>
	<path class="st4" d="M37.1,53.1c-0.1,0-0.2-0.1-0.2-0.2c0-0.1,0.1-0.2,0.2-0.2h0.2l0,0c0.1,0,0.2,0.1,0.2,0.2
		c0,0.1-0.1,0.2-0.2,0.2H37.1L37.1,53.1z M36.1,53.1L36.1,53.1h-0.2c-0.1,0-0.2-0.1-0.2-0.2s0.1-0.2,0.2-0.2h0.2
		c0.1,0,0.2,0.1,0.2,0.2S36.2,53.1,36.1,53.1z M38.3,53c-0.1,0-0.2-0.1-0.2-0.2c0-0.1,0.1-0.2,0.2-0.2h0.2c0.1,0,0.2,0.1,0.2,0.2
		c0,0.1-0.1,0.2-0.2,0.2H38.3L38.3,53z M34.9,53L34.9,53h-0.2c-0.1,0-0.2-0.1-0.2-0.2c0-0.1,0.1-0.2,0.2-0.2h0.2
		c0.1,0,0.2,0.1,0.2,0.2C35.1,53,35,53,34.9,53z M39.5,52.9c-0.1,0-0.2-0.1-0.2-0.2c0-0.1,0.1-0.2,0.1-0.2h0.2
		c0.1,0,0.2,0.1,0.2,0.1c0,0.1-0.1,0.2-0.1,0.2L39.5,52.9L39.5,52.9z M33.7,52.9L33.7,52.9h-0.2c-0.1,0-0.2-0.1-0.1-0.2
		s0.1-0.2,0.2-0.1h0.2c0.1,0,0.2,0.1,0.1,0.2C33.9,52.8,33.8,52.9,33.7,52.9z M40.7,52.7c-0.1,0-0.2-0.1-0.2-0.1
		c0-0.1,0-0.2,0.1-0.2h0.2c0.1,0,0.2,0,0.2,0.1s0,0.2-0.1,0.2H40.7L40.7,52.7z M32.5,52.7L32.5,52.7h-0.2c-0.1,0-0.2-0.1-0.1-0.2
		c0-0.1,0.1-0.2,0.2-0.1h0.2c0.1,0,0.2,0.1,0.1,0.2C32.7,52.6,32.6,52.7,32.5,52.7z M41.9,52.4c-0.1,0-0.1-0.1-0.2-0.1
		c0-0.1,0-0.2,0.1-0.2L42,52c0.1,0,0.2,0,0.2,0.1s0,0.2-0.1,0.2L41.9,52.4L41.9,52.4z M31.4,52.4C31.4,52.4,31.3,52.4,31.4,52.4
		l-0.2-0.1c-0.1,0-0.1-0.1-0.1-0.2c0-0.1,0.1-0.1,0.2-0.1l0.2,0.1c0.1,0,0.1,0.1,0.1,0.2C31.5,52.3,31.4,52.4,31.4,52.4z M43,52.1
		c-0.1,0-0.1,0-0.2-0.1c0-0.1,0-0.2,0.1-0.2s0.1,0,0.2-0.1c0.1,0,0.2,0,0.2,0.1s0,0.2-0.1,0.2C43.2,52,43.1,52,43,52.1L43,52.1z
		 M30.2,52L30.2,52c-0.1,0-0.2-0.1-0.3-0.1s-0.1-0.1-0.1-0.2c0-0.1,0.1-0.1,0.2-0.1l0.2,0.1c0.1,0,0.1,0.1,0.1,0.2
		C30.4,51.9,30.3,52,30.2,52z M44.1,51.6c-0.1,0-0.1,0-0.2-0.1c0-0.1,0-0.2,0.1-0.2l0.2-0.1c0.1,0,0.2,0,0.2,0.1s0,0.2-0.1,0.2
		L44.1,51.6C44.1,51.5,44.1,51.6,44.1,51.6z M29.2,51.4C29.1,51.4,29.1,51.4,29.2,51.4l-0.3-0.1c-0.1,0-0.1-0.2-0.1-0.2
		C28.8,51,29,51,29,51l0.2,0.1c0.1,0,0.1,0.2,0.1,0.2C29.3,51.4,29.2,51.4,29.2,51.4z M45.1,50.9c-0.1,0-0.1,0-0.2-0.1
		c0-0.1,0-0.2,0.1-0.2l0.2-0.1c0.1,0,0.2,0,0.2,0.1s0,0.2-0.1,0.2L45.1,50.9C45.2,50.9,45.1,50.9,45.1,50.9z M28.1,50.8L28.1,50.8
		l-0.3-0.1c-0.1,0-0.1-0.2-0.1-0.2c0.1-0.1,0.2-0.1,0.2-0.1l0.2,0.1c0.1,0.1,0.1,0.2,0.1,0.2C28.3,50.8,28.2,50.8,28.1,50.8z"/>
</g>
<path class="st16" d="M35.5,41.7c0.8-0.2,1.7-0.3,2.5-0.3c0.3,0,0.6,0,0.8,0.2"/>
<path class="st4" d="M42.3,73.2v-6.5c0-0.1,0.1-0.3,0.2-0.4c0.1-0.1,0.2-0.1,0.4-0.1l2.3,0.5c1.7,0.3,3.3,0.3,5,0l2.3-0.5
	c0.1,0,0.3,0,0.4,0.1c0.1,0.1,0.2,0.2,0.2,0.4v6.5h0.3v-6.5c0-0.2-0.1-0.5-0.3-0.6c-0.2-0.2-0.4-0.2-0.7-0.2l-2.3,0.5
	c-1.6,0.2-3.3,0.2-4.9,0l-2.3-0.5c-0.2,0-0.5,0-0.7,0.2s-0.3,0.4-0.3,0.6v6.5H42.3z"/>
<linearGradient id="SVGID_2_" gradientUnits="userSpaceOnUse" x1="36.1318" y1="21.3411" x2="36.2962" y2="33.9187" gradientTransform="matrix(1 0 0 -1 0 65.5643)">
	<stop  offset="0.1436" style="stop-color:#D8967D"/>
	<stop  offset="0.957" style="stop-color:#D8967D;stop-opacity:0"/>
</linearGradient>
<path class="st17" d="M32.1,43.7c3,1.5,6.8,2.1,9.3,0c3.2-2.6,6.7-9,7.2-15.9c0-0.2-0.1-1.4-0.1-1.6c-1.3,1.4-0.9,3.6-1.5,5.4
	c-0.2,0.7-2.3,5.4-5,7.3c-2,1.3-2.7-0.1-5.3,0c-1.8,0-3.6,1.7-6-0.2c-1.2-0.9-3.3-6.7-3.5-8.1c-0.1-0.4-0.1-0.9-0.2-1.3
	c-0.3-0.8-0.7-1.4-1.3-1.9l-1.6-0.1C24.9,36.1,29.4,42.3,32.1,43.7z"/>
<path class="st4" d="M15.3,73.2h0.5c1.1-2.8,1.6-6.7,1.5-7.1c0-0.1-0.1-0.2-0.3-0.2c-0.1,0-0.2,0.1-0.2,0.3
	C16.9,66.5,16.4,70.5,15.3,73.2z"/>
</svg>
