<?xml version="1.0" encoding="utf-8"?>
<!-- Generator: Adobe Illustrator 25.2.3, SVG Export Plug-In . SVG Version: 6.00 Build 0)  -->
<svg version="1.1" id="Layer_1" xmlns="http://www.w3.org/2000/svg" xmlns:xlink="http://www.w3.org/1999/xlink" x="0px" y="0px"
	 viewBox="0 0 71.7 73.2" style="enable-background:new 0 0 71.7 73.2;" xml:space="preserve">
<style type="text/css">
	.st0{fill:#575756;}
	.st1{fill:#F5A88D;}
	.st2{fill:url(#SVGID_1_);}
	.st3{fill:#D8967D;}
	.st4{fill:#1C603B;}
	.st5{fill:#462922;}
	.st6{fill:#EEA38D;}
	.st7{opacity:0.2;}
	.st8{fill:#7C483C;}
	.st9{fill:#49382C;}
	.st10{fill:#4D3932;}
	.st11{fill:#392924;}
	.st12{fill:#FFFFFF;}
	.st13{fill:#2E9661;}
	.st14{fill:none;stroke:#1C603B;stroke-width:0.3489;stroke-linecap:round;stroke-miterlimit:10;}
	.st15{fill:none;stroke:#1C603B;stroke-width:0.3489;stroke-linecap:round;stroke-miterlimit:10;stroke-dasharray:0.2026,1.013;}
	
		.st16{opacity:5.000000e-02;fill:none;stroke:#7C483C;stroke-width:0.4743;stroke-linecap:round;stroke-miterlimit:10;enable-background:new    ;}
	.st17{opacity:0.3;fill:url(#SVGID_2_);enable-background:new    ;}
	.st18{fill:url(#SVGID_3_);}
	.st19{fill:url(#SVGID_4_);}
	.st20{fill:#EDA887;}
	.st21{fill:#D49974;}
	.st22{fill:#351E19;}
	.st23{opacity:0.5;fill:url(#SVGID_5_);enable-background:new    ;}
	.st24{opacity:0.5;fill:url(#SVGID_6_);enable-background:new    ;}
	.st25{fill:none;stroke:#AF7D61;stroke-width:0.4033;stroke-linecap:round;stroke-miterlimit:10;}
	
		.st26{opacity:0.2;fill:none;stroke:#7C483C;stroke-width:0.4021;stroke-linecap:round;stroke-miterlimit:10;enable-background:new    ;}
	.st27{fill:none;stroke:#353535;stroke-width:0.5041;stroke-linecap:round;stroke-miterlimit:10;}
	.st28{fill:none;stroke:#353535;stroke-width:0.3081;stroke-linecap:round;stroke-miterlimit:10;}
	.st29{fill:none;stroke:#351E19;stroke-width:0.3063;stroke-linecap:round;stroke-miterlimit:10;}
	.st30{fill:none;stroke:url(#SVGID_7_);stroke-width:0.209;stroke-linecap:round;stroke-linejoin:round;stroke-miterlimit:10;}
	.st31{fill:none;stroke:#9E4E48;stroke-width:0.3016;stroke-linecap:round;stroke-miterlimit:10;}
	.st32{fill:url(#SVGID_8_);}
	.st33{fill:url(#SVGID_9_);}
	.st34{fill:url(#SVGID_10_);}
	.st35{fill:url(#SVGID_11_);}
	.st36{fill:url(#SVGID_12_);}
	.st37{fill:url(#SVGID_13_);}
	.st38{opacity:0.8;fill:#9E4E48;enable-background:new    ;}
	.st39{fill:none;stroke:#303030;stroke-width:0.1605;stroke-linecap:round;stroke-linejoin:round;stroke-miterlimit:10;}
	.st40{fill:url(#SVGID_14_);}
	.st41{fill:url(#SVGID_15_);}
	.st42{fill:url(#SVGID_16_);}
	.st43{fill:url(#SVGID_17_);}
	.st44{fill:url(#SVGID_18_);}
	.st45{fill:none;stroke:url(#SVGID_19_);stroke-width:0.1008;stroke-linecap:round;stroke-miterlimit:10;}
	.st46{fill:none;stroke:url(#SVGID_20_);stroke-width:0.1008;stroke-linecap:round;stroke-miterlimit:10;}
	.st47{fill:url(#SVGID_21_);}
	
		.st48{opacity:5.000000e-02;fill:none;stroke:#7C483C;stroke-width:0.4782;stroke-linecap:round;stroke-miterlimit:10;enable-background:new    ;}
	.st49{opacity:0.15;}
	.st50{fill:#2A2220;}
	.st51{fill:#FFC050;}
	.st52{fill:#E0A038;}
	.st53{fill:#E2A139;}
	.st54{fill:#343633;}
	.st55{fill:#FFFFFC;}
	.st56{fill:#D08061;}
	.st57{fill:#B37658;}
	.st58{fill:#DDA06F;}
	.st59{opacity:0.3;enable-background:new    ;}
	.st60{clip-path:url(#SVGID_23_);fill:#D8967D;}
	.st61{clip-path:url(#SVGID_25_);fill:#D8967D;}
	.st62{clip-path:url(#SVGID_27_);fill:#D8967D;}
	.st63{fill:#2B3A6D;}
	.st64{opacity:0.5;fill:url(#SVGID_28_);enable-background:new    ;}
	.st65{opacity:0.5;fill:url(#SVGID_29_);enable-background:new    ;}
	
		.st66{opacity:5.000000e-02;fill:none;stroke:#7C483C;stroke-width:0.4451;stroke-linecap:round;stroke-miterlimit:10;enable-background:new    ;}
	.st67{opacity:0.3;fill:#CD805F;enable-background:new    ;}
	.st68{fill:#076FB7;}
	.st69{fill:none;stroke:#0D456B;stroke-width:0.4117;stroke-linecap:round;stroke-linejoin:round;stroke-miterlimit:10;}
	
		.st70{opacity:5.000000e-02;fill:none;stroke:#7C483C;stroke-width:0.4896;stroke-linecap:round;stroke-miterlimit:10;enable-background:new    ;}
	.st71{fill:url(#SVGID_30_);}
	.st72{fill:#0D456B;}
	.st73{fill:#C6DBF0;}
	.st74{opacity:0.75;fill:url(#SVGID_31_);enable-background:new    ;}
	.st75{fill:url(#SVGID_32_);}
	
		.st76{opacity:0.2;fill:none;stroke:#7C483C;stroke-width:0.4896;stroke-linecap:round;stroke-miterlimit:10;enable-background:new    ;}
	.st77{opacity:0.5;fill:url(#SVGID_33_);enable-background:new    ;}
	.st78{fill:#4D3933;}
	.st79{fill:url(#SVGID_34_);}
	.st80{opacity:0.5;}
	.st81{fill:#58403A;}
	.st82{fill:#B28025;}
	.st83{fill:none;stroke:#7C483C;stroke-width:0.3804;stroke-linecap:round;stroke-miterlimit:10;}
	.st84{fill:url(#SVGID_35_);}
	.st85{opacity:0.5;fill:url(#SVGID_36_);enable-background:new    ;}
	.st86{opacity:0.5;fill:url(#SVGID_37_);enable-background:new    ;}
	.st87{fill:none;stroke:#9E4E48;stroke-width:0.2853;stroke-linecap:round;stroke-miterlimit:10;}
	.st88{fill:url(#XMLID_95_);}
	.st89{fill:url(#SVGID_38_);}
	.st90{fill:none;stroke:url(#SVGID_39_);stroke-width:9.537996e-02;stroke-linecap:round;stroke-miterlimit:10;}
	.st91{fill:none;stroke:url(#SVGID_40_);stroke-width:9.537996e-02;stroke-linecap:round;stroke-miterlimit:10;}
	.st92{opacity:0.6;fill:#CD805F;enable-background:new    ;}
	
		.st93{opacity:0.5;fill:none;stroke:#58403A;stroke-width:0.4769;stroke-linecap:round;stroke-linejoin:round;stroke-miterlimit:10;enable-background:new    ;}
	.st94{fill:#DADADA;}
	.st95{fill:#D59175;}
	.st96{fill:none;stroke:#58403A;stroke-width:0.4769;stroke-linecap:round;stroke-linejoin:round;stroke-miterlimit:10;}
	.st97{fill:url(#SVGID_41_);stroke:#C6C6C6;stroke-width:2.861399e-02;stroke-linejoin:round;stroke-miterlimit:10;}
	.st98{fill:url(#SVGID_42_);stroke:url(#SVGID_43_);stroke-width:1.0891;stroke-miterlimit:10;}
	.st99{fill:none;stroke:url(#SVGID_44_);stroke-width:0.1954;stroke-linecap:round;stroke-linejoin:round;stroke-miterlimit:10;}
	.st100{fill:none;stroke:url(#SVGID_45_);stroke-width:0.2499;stroke-linecap:round;stroke-miterlimit:10;}
	.st101{fill:url(#SVGID_46_);stroke:url(#SVGID_47_);stroke-width:1.0891;stroke-miterlimit:10;}
	.st102{fill:none;stroke:url(#SVGID_48_);stroke-width:0.1954;stroke-linecap:round;stroke-linejoin:round;stroke-miterlimit:10;}
	.st103{opacity:0.63;fill:url(#SVGID_49_);enable-background:new    ;}
	
		.st104{opacity:0.17;fill:none;stroke:url(#SVGID_50_);stroke-width:0.2499;stroke-linecap:round;stroke-miterlimit:10;enable-background:new    ;}
	
		.st105{opacity:0.17;fill:none;stroke:url(#SVGID_51_);stroke-width:0.2499;stroke-linecap:round;stroke-miterlimit:10;enable-background:new    ;}
	.st106{fill:url(#SVGID_52_);}
	.st107{fill:none;stroke:#5C362D;stroke-width:0.2465;stroke-linecap:round;stroke-miterlimit:10;}
	.st108{fill:url(#SVGID_53_);}
	.st109{fill:url(#SVGID_54_);}
	.st110{opacity:0.45;fill:#7C483C;enable-background:new    ;}
	.st111{fill:url(#SVGID_55_);}
	.st112{fill:#9E4E48;}
	.st113{fill:none;stroke:#9D9D9C;stroke-width:0.4477;stroke-linecap:round;stroke-miterlimit:10;}
	.st114{fill:none;stroke:#EDEDED;stroke-width:0.4785;stroke-linecap:round;stroke-miterlimit:10;stroke-dasharray:0.2743,1.3715;}
	.st115{clip-path:url(#SVGID_57_);fill:#B99B6C;}
	.st116{clip-path:url(#SVGID_59_);fill:#B99B6C;}
	.st117{clip-path:url(#SVGID_61_);fill:#B99B6C;}
	.st118{clip-path:url(#SVGID_63_);fill:#B99B6C;}
	.st119{clip-path:url(#SVGID_65_);fill:#B99B6C;}
	.st120{clip-path:url(#SVGID_67_);fill:#B99B6C;}
	.st121{clip-path:url(#SVGID_69_);fill:#B99B6C;}
	.st122{clip-path:url(#SVGID_71_);fill:#B99B6C;}
	.st123{clip-path:url(#SVGID_73_);fill:#B99C6C;}
	.st124{clip-path:url(#SVGID_75_);fill:#BA9C6C;}
	.st125{clip-path:url(#SVGID_77_);fill:#BA9C6C;}
	.st126{clip-path:url(#SVGID_79_);fill:#BA9C6C;}
	.st127{clip-path:url(#SVGID_81_);fill:#BA9C6C;}
	.st128{clip-path:url(#SVGID_83_);fill:#BA9C6C;}
	.st129{clip-path:url(#SVGID_85_);fill:#BA9C6D;}
	.st130{clip-path:url(#SVGID_87_);fill:#BB9C6D;}
	.st131{clip-path:url(#SVGID_89_);fill:#BB9D6D;}
	.st132{clip-path:url(#SVGID_91_);fill:#BB9D6D;}
	.st133{clip-path:url(#SVGID_93_);fill:#BC9D6D;}
	.st134{clip-path:url(#SVGID_95_);fill:#BC9D6D;}
	.st135{clip-path:url(#SVGID_97_);fill:#BC9E6D;}
	.st136{clip-path:url(#SVGID_99_);fill:#BD9E6E;}
	.st137{clip-path:url(#SVGID_101_);fill:#BD9E6E;}
	.st138{clip-path:url(#SVGID_103_);fill:#BD9F6E;}
	.st139{clip-path:url(#SVGID_105_);fill:#BE9F6E;}
	.st140{clip-path:url(#SVGID_107_);fill:#BE9F6F;}
	.st141{clip-path:url(#SVGID_109_);fill:#BFA06F;}
	.st142{clip-path:url(#SVGID_111_);fill:#BFA06F;}
	.st143{clip-path:url(#SVGID_113_);fill:#C0A170;}
	.st144{clip-path:url(#SVGID_115_);fill:#C1A170;}
	.st145{clip-path:url(#SVGID_117_);fill:#C1A270;}
	.st146{clip-path:url(#SVGID_119_);fill:#C2A271;}
	.st147{clip-path:url(#SVGID_121_);fill:#C3A371;}
	.st148{clip-path:url(#SVGID_123_);fill:#C3A371;}
	.st149{clip-path:url(#SVGID_125_);fill:#C4A472;}
	.st150{clip-path:url(#SVGID_127_);fill:#C5A572;}
	.st151{clip-path:url(#SVGID_129_);fill:#C6A573;}
	.st152{clip-path:url(#SVGID_131_);fill:#C7A673;}
	.st153{clip-path:url(#SVGID_133_);fill:#C8A774;}
	.st154{clip-path:url(#SVGID_135_);fill:#C8A774;}
	.st155{clip-path:url(#SVGID_137_);fill:#C9A874;}
	.st156{clip-path:url(#SVGID_139_);fill:#CAA975;}
	.st157{clip-path:url(#SVGID_141_);fill:#CBAA75;}
	.st158{clip-path:url(#SVGID_143_);fill:#CCAA76;}
	.st159{clip-path:url(#SVGID_145_);fill:#CDAB77;}
	.st160{clip-path:url(#SVGID_147_);fill:#CEAC77;}
	.st161{clip-path:url(#SVGID_149_);fill:#CFAD78;}
	.st162{clip-path:url(#SVGID_151_);fill:#D0AE78;}
	.st163{clip-path:url(#SVGID_153_);fill:#D2AF79;}
	.st164{clip-path:url(#SVGID_155_);fill:#D3B079;}
	.st165{clip-path:url(#SVGID_157_);fill:#D4B17A;}
	.st166{clip-path:url(#SVGID_159_);fill:#D5B27B;}
	.st167{clip-path:url(#SVGID_161_);fill:#D6B37B;}
	.st168{clip-path:url(#SVGID_163_);fill:#D8B47C;}
	.st169{clip-path:url(#SVGID_165_);fill:#D9B57D;}
	.st170{clip-path:url(#SVGID_167_);fill:#DAB67D;}
	.st171{clip-path:url(#SVGID_169_);fill:#DCB77E;}
	.st172{clip-path:url(#SVGID_171_);fill:#DDB87F;}
	.st173{clip-path:url(#SVGID_173_);fill:#DFB980;}
	.st174{clip-path:url(#SVGID_175_);fill:#E0BA81;}
	.st175{clip-path:url(#SVGID_177_);fill:#E2BC81;}
	.st176{clip-path:url(#SVGID_179_);fill:#E3BD82;}
	.st177{clip-path:url(#SVGID_181_);fill:#E5BE83;}
	.st178{clip-path:url(#SVGID_183_);fill:#E5BE83;}
	.st179{clip-path:url(#SVGID_185_);fill:#E5BE83;}
	.st180{clip-path:url(#SVGID_187_);fill:#E4BD83;}
	.st181{clip-path:url(#SVGID_189_);fill:#E4BD82;}
	.st182{clip-path:url(#SVGID_191_);fill:#E3BD82;}
	.st183{clip-path:url(#SVGID_193_);fill:#E3BC82;}
	.st184{clip-path:url(#SVGID_195_);fill:#E2BC81;}
	.st185{clip-path:url(#SVGID_197_);fill:#E2BB81;}
	.st186{clip-path:url(#SVGID_199_);fill:#E1BB81;}
	.st187{clip-path:url(#SVGID_201_);fill:#E0BA81;}
	.st188{clip-path:url(#SVGID_203_);fill:#E0BA80;}
	.st189{clip-path:url(#SVGID_205_);fill:#DFB980;}
	.st190{clip-path:url(#SVGID_207_);fill:#DFB980;}
	.st191{clip-path:url(#SVGID_209_);fill:#DEB87F;}
	.st192{clip-path:url(#SVGID_211_);fill:#DDB87F;}
	.st193{clip-path:url(#SVGID_213_);fill:#DDB77F;}
	.st194{clip-path:url(#SVGID_215_);fill:#DCB77E;}
	.st195{clip-path:url(#SVGID_217_);fill:#DBB67E;}
	.st196{clip-path:url(#SVGID_219_);fill:#DBB67E;}
	.st197{clip-path:url(#SVGID_221_);fill:#DAB57D;}
	.st198{clip-path:url(#SVGID_223_);fill:#D9B57D;}
	.st199{clip-path:url(#SVGID_225_);fill:#D9B47C;}
	.st200{clip-path:url(#SVGID_227_);fill:#D8B47C;}
	.st201{clip-path:url(#SVGID_229_);fill:#D7B37C;}
	.st202{clip-path:url(#SVGID_231_);fill:#D6B37B;}
	.st203{clip-path:url(#SVGID_233_);fill:#D6B27B;}
	.st204{clip-path:url(#SVGID_235_);fill:#D5B17B;}
	.st205{clip-path:url(#SVGID_237_);fill:#D4B17A;}
	.st206{clip-path:url(#SVGID_239_);fill:#D4B07A;}
	.st207{clip-path:url(#SVGID_241_);fill:#D3B079;}
	.st208{clip-path:url(#SVGID_243_);fill:#D2AF79;}
	.st209{clip-path:url(#SVGID_245_);fill:#D1AF79;}
	.st210{clip-path:url(#SVGID_247_);fill:#D1AE78;}
	.st211{clip-path:url(#SVGID_249_);fill:#D0AD78;}
	.st212{clip-path:url(#SVGID_251_);fill:#CFAD78;}
	.st213{clip-path:url(#SVGID_253_);fill:#CEAC77;}
	.st214{clip-path:url(#SVGID_255_);fill:#CEAC77;}
	.st215{clip-path:url(#SVGID_257_);fill:#CDAB76;}
	.st216{clip-path:url(#SVGID_259_);fill:#CCAA76;}
	.st217{clip-path:url(#SVGID_261_);fill:#CBAA76;}
	.st218{clip-path:url(#SVGID_263_);fill:#CBA975;}
	.st219{clip-path:url(#SVGID_265_);fill:#CAA975;}
	.st220{clip-path:url(#SVGID_267_);fill:#C9A874;}
	.st221{clip-path:url(#SVGID_269_);fill:#C8A774;}
	.st222{clip-path:url(#SVGID_271_);fill:#C8A774;}
	.st223{clip-path:url(#SVGID_273_);fill:#C7A673;}
	.st224{clip-path:url(#SVGID_275_);fill:#C6A573;}
	.st225{clip-path:url(#SVGID_277_);fill:#C5A572;}
	.st226{clip-path:url(#SVGID_279_);fill:#C4A472;}
	.st227{clip-path:url(#SVGID_281_);fill:#C3A371;}
	.st228{clip-path:url(#SVGID_283_);fill:#C3A371;}
	.st229{clip-path:url(#SVGID_285_);fill:#C2A270;}
	.st230{clip-path:url(#SVGID_287_);fill:#C1A170;}
	.st231{clip-path:url(#SVGID_289_);fill:#C0A170;}
	.st232{clip-path:url(#SVGID_291_);fill:#BFA06F;}
	.st233{clip-path:url(#SVGID_293_);fill:#BE9F6F;}
	.st234{clip-path:url(#SVGID_295_);fill:#BD9F6E;}
	.st235{clip-path:url(#SVGID_297_);fill:#BD9E6E;}
	.st236{clip-path:url(#SVGID_299_);fill:#BC9D6D;}
	.st237{clip-path:url(#SVGID_301_);fill:#BB9D6D;}
	.st238{clip-path:url(#SVGID_303_);fill:#BA9C6C;}
	.st239{clip-path:url(#SVGID_305_);fill:#B99B6C;}
	.st240{fill:url(#SVGID_306_);}
	.st241{opacity:0.1;fill:#2A2220;enable-background:new    ;}
	.st242{fill:url(#SVGID_307_);}
	.st243{opacity:0.45;fill:url(#SVGID_308_);enable-background:new    ;}
	.st244{fill:url(#SVGID_309_);}
	.st245{fill:url(#SVGID_310_);}
	.st246{opacity:0.83;fill:#7C483C;enable-background:new    ;}
	.st247{fill:url(#SVGID_311_);}
	.st248{fill:#EDEDED;}
	.st249{opacity:0.1;}
	.st250{fill:none;stroke:#EDEDED;stroke-width:0.4677;stroke-linecap:round;stroke-miterlimit:10;}
	.st251{fill:none;stroke:#EDEDED;stroke-width:0.4677;stroke-linecap:round;stroke-miterlimit:10;stroke-dasharray:0.267,1.3352;}
	.st252{fill:url(#SVGID_312_);}
	.st253{fill:none;stroke:url(#SVGID_313_);stroke-width:0.1479;stroke-linecap:round;stroke-linejoin:round;stroke-miterlimit:10;}
	.st254{fill:none;stroke:url(#SVGID_314_);stroke-width:0.1479;stroke-linecap:round;stroke-linejoin:round;stroke-miterlimit:10;}
	.st255{fill:url(#SVGID_315_);}
	.st256{fill:url(#SVGID_316_);}
	.st257{fill:url(#SVGID_317_);}
	.st258{fill:#F3D09C;}
</style>
<g>
	<path class="st0" d="M49.5,52.4c-0.1,0-0.1,0-0.2-0.1l-0.1-0.2c-0.3-0.7-0.6-1.3-0.8-1.8c-1.1-2.4-1.7-3.2-3.3-3.8
		c-1.8-0.7-14.5-1.4-17.6,1c-0.5,0.4-0.7,0.8-0.6,1.3c0,0.1-0.1,0.2-0.1,0.2c-0.1,0-0.2-0.1-0.2-0.1c-0.1-0.6,0.2-1.2,0.7-1.7
		c3.2-2.6,16-1.8,17.9-1.1c1.7,0.6,2.3,1.5,3.5,4c0.2,0.5,0.5,1.1,0.8,1.8l0.1,0.2C49.7,52.2,49.6,52.3,49.5,52.4
		C49.5,52.3,49.5,52.4,49.5,52.4z"/>
</g>
<path class="st1" d="M48.5,54.6c0,0-27.7,1.8-23.2-1.5c1.8-1.3,2.5-4,2.7-6.8c0-0.2,0-0.4,0-0.7v-0.1c0.1-2.9-0.3-5.8-0.6-7.2
	c-0.1-0.5-0.2-0.8-0.2-0.8s1.3-0.7,3.2-1.4c0.3-0.1,0.7-0.3,1-0.4c0.1-0.1,0.3-0.1,0.4-0.2c5.1-1.9,12.7-3.9,12.8,1.5
	c0,0.2,0,0.5,0,0.8C43.8,47.3,48.5,54.6,48.5,54.6z"/>
<linearGradient id="SVGID_1_" gradientUnits="userSpaceOnUse" x1="0" y1="1075.2357" x2="71.7" y2="1075.2357" gradientTransform="matrix(1 0 0 1 0 -1014.4357)">
	<stop  offset="0.2654" style="stop-color:#2D9861"/>
	<stop  offset="0.4274" style="stop-color:#2E9661"/>
	<stop  offset="1" style="stop-color:#237F4D"/>
</linearGradient>
<path class="st2" d="M69.3,64.4c0,0-2.2-6-4.4-8.7c-2-2.4-10.5-3.8-17.1-6.4c-0.7-0.3-1.4-0.6-2-0.9c0,0-1.6,3.3-8.9,3.3
	s-9.2-3.3-9.2-3.3s-0.2,0.5-2.2,1.3c-5,2-14.3,5.7-17,7.2C4.8,59,0,73.2,0,73.2h71.7L69.3,64.4z"/>
<path class="st3" d="M44.1,39.5c0,0-4.2,13.6-16,6.1c0.1-2.9-0.4-5.8-0.6-7.2c-0.1-0.5-0.2-0.8-0.2-0.8s1.4-0.7,3.4-1.4
	c0.3-0.1,0.7-0.3,1.1-0.4c0.1-0.1,0.3-0.1,0.4-0.2l11.2,3.8L44.1,39.5z"/>
<g>
	<path class="st4" d="M15.7,72.8L15.7,72.8c-0.2,0-0.2-0.1-0.2-0.3c0.5-2.8-2.2-8.5-2.4-8.8c-0.1-0.1-0.1-0.2,0-0.3s0.2-0.1,0.3,0
		c0.4,0.4,3,6.2,2.5,9.1C15.9,72.7,15.8,72.8,15.7,72.8z"/>
</g>
<g>
	<path class="st4" d="M57.8,72.8c-0.1,0-0.2-0.1-0.2-0.2c-0.5-2.9,2.2-8.7,2.5-9.1c0.1-0.1,0.2-0.1,0.3,0s0.1,0.2,0,0.3
		c-0.2,0.3-2.9,6-2.4,8.8C58,72.7,57.9,72.8,57.8,72.8L57.8,72.8z"/>
</g>
<g>
	<path class="st4" d="M58.8,72.8c-0.1,0-0.2-0.1-0.2-0.2c-0.5-2.9,2.2-8.7,2.5-9.1c0.1-0.1,0.2-0.1,0.3,0s0.1,0.2,0,0.3
		c-0.2,0.3-2.9,6-2.4,8.8C59.1,72.7,59,72.8,58.8,72.8L58.8,72.8z"/>
</g>
<g>
	<path class="st0" d="M47.7,60.8C47.7,60.8,47.6,60.8,47.7,60.8c-1.3-1.4-2.4-4-1.4-5.5c1-1.3,2.4-4.5,1.8-5.8c0-0.1,0-0.2,0.1-0.2
		s0.2,0,0.2,0.1c0.7,1.4-0.8,4.7-1.8,6.2c-0.9,1.3,0.1,3.7,1.2,4.9C47.9,60.6,47.9,60.7,47.7,60.8C47.8,60.8,47.7,60.8,47.7,60.8z"
		/>
</g>
<g>
	<path class="st0" d="M30.9,68c-0.1,0-0.1,0-0.2-0.1c-0.8-1.7-1.4-5.3,0-8.2c0.7-1.3-0.3-2.8-1.4-4.6s-2.4-3.8-2.7-6.3
		c0-0.1,0.1-0.2,0.2-0.2s0.2,0.1,0.2,0.2c0.3,2.4,1.5,4.4,2.6,6.2c1.2,1.9,2.2,3.5,1.5,5c-1.4,2.8-0.8,6.3,0,7.9
		C31,67.9,31,68,30.9,68L30.9,68z"/>
</g>
<ellipse class="st0" cx="47.7" cy="61.3" rx="1.2" ry="0.9"/>
<ellipse class="st0" cx="30.9" cy="68.4" rx="1.2" ry="0.9"/>
<path class="st0" d="M46.2,60.5h0.3V62h-0.3c-0.4,0-0.8-0.3-0.8-0.8l0,0C45.5,60.8,45.8,60.5,46.2,60.5z"/>
<path class="st0" d="M32.3,67.6H32v1.5h0.3c0.4,0,0.8-0.3,0.8-0.8l0,0C33,67.9,32.7,67.6,32.3,67.6z"/>
<g id="XMLID_73_">
	<path id="XMLID_74_" class="st1" d="M47.5,13.4c-2.1-3.7-3.9-6-10.3-6.3C29.7,6.8,25,11.5,23.9,19.8c-1.2,9.4,2,16.7,5.1,20.9
		c1.3,1.8,2.4,2.7,3.5,3.2c3.2,1.6,7,1.5,9.7-0.6c1.1-0.9,1.8-2.2,2.7-3.8C49.1,32.4,51.1,19.7,47.5,13.4z"/>
</g>
<ellipse class="st5" cx="30.8" cy="26.2" rx="0.9" ry="1.4"/>
<ellipse class="st5" cx="42.5" cy="26.2" rx="0.9" ry="1.4"/>
<g>
	<g id="XMLID_71_">
		<path id="XMLID_72_" class="st6" d="M22.6,23.5c2.4-0.7,2.6,4.7,2.7,7.4C25.4,36.2,18.9,24.6,22.6,23.5z"/>
	</g>
	<g id="XMLID_69_" class="st7">
		<path id="XMLID_70_" class="st8" d="M23,26.1c0.1-0.2,0.4-0.1,0.3,0.1c-0.4,1.5,0,2.4,0.5,2.7c0.1,0.1,0.1,0.2,0.1,0.3
			C23.6,29.8,22.5,28.2,23,26.1z"/>
	</g>
</g>
<g>
	<g id="XMLID_67_">
		<path id="XMLID_68_" class="st6" d="M50.9,23.5c-2.4-0.7-2.6,4.7-2.7,7.4C48.1,36.2,54.6,24.6,50.9,23.5z"/>
	</g>
	<g id="XMLID_65_" class="st7">
		<path id="XMLID_66_" class="st8" d="M50.5,26.1c-0.1-0.2-0.4-0.1-0.3,0.1c0.4,1.5,0,2.4-0.5,2.7c-0.1,0.1-0.1,0.2-0.1,0.3
			C49.9,29.8,51,28.2,50.5,26.1z"/>
	</g>
</g>
<path class="st9" d="M40.9,22.5c0,0-0.8,0-0.7-0.8s1.1-0.7,1.7-0.6s3.9,0.1,4.8,1.7c0,0.1,0,0.2-0.1,0.2
	C44.7,22.5,40.9,22.5,40.9,22.5z"/>
<path class="st9" d="M33.1,22.7c0,0,0.8,0,0.7-0.7s-1.1-0.8-1.6-0.8s-3.9-0.3-4.9,1.3c-0.1,0.1,0,0.2,0.1,0.2
	C29.3,22.4,33.1,22.7,33.1,22.7z"/>
<g class="st7">
	<path class="st8" d="M36.7,32.6c-1,0-1.7-0.2-1.9-0.7c-0.3-0.7,0.2-1.5,0.2-1.5c0.1-0.1,0.2-0.1,0.3-0.1s0.1,0.2,0.1,0.3
		c-0.1,0.2-0.4,0.7-0.2,1s0.7,0.5,1.5,0.5c1.5,0,1.9-0.3,2-0.5s-0.1-0.6-0.2-0.9c0-0.1-0.1-0.1-0.1-0.2c-0.6-1.3-1.7-3.9-1.7-5.3
		c0-0.1,0.1-0.2,0.2-0.2s0.2,0.1,0.2,0.2c0,1.3,1,3.8,1.6,5.1c0,0,0.1,0.1,0.1,0.2c0.2,0.3,0.5,0.9,0.2,1.3
		C38.8,32.4,38.1,32.6,36.7,32.6z"/>
</g>
<g id="XMLID_40_">
	<path id="XMLID_64_" class="st10" d="M27.9,16.2c0.4-0.1,0.7-0.7,0.9-1c0.6-0.9,2.1-0.7,3.1-1.3c0.7-0.4,1.3-1.1,2-0.9
		c0.5,0.2,0.9,0.8,1.4,0.8s1-0.4,1.5-0.3c0.6,0.2,1,1.7,3,1c3.3-1.1,5.4,0.1,5.7,0.8c1.4,2.9,3.1,9.1,2.9,12.6l3.5-10.4
		c0.1-1-0.9-3.6-1.6-4.3c-2-2,1.7-3.9-1.5-7.8C46.3,3.5,45,2.9,43.6,4c-0.2-1.9-2.2-3.5-4.2-3.3c-3.8,0.4-2.8-2-7.7,0.4
		c-0.9,0.4-3.4,1.6-3.7,2.8C27.7,5,28.9,6.4,26.7,7c-1.1-0.1-8.2,1.6-3.5,16.5c0.2,0.8,1.2,4.6,1.5,5.3C24.4,22,26.8,16.4,27.9,16.2
		z"/>
	<g id="XMLID_41_">
		<g id="XMLID_62_">
			<path id="XMLID_63_" class="st11" d="M30.9,12.1c-0.7-1.7-1.6-3.8-3.4-4.4c-0.8-0.3,1.1-1.4,3,2.4c-0.3-1.1-2.7-4.4-1.8-4.5
				c0.1,0,0.2,0.1,0.2,0.2c0.1,0.8,0.6,1.6,1,2.3C31.3,10.3,31.1,10.8,30.9,12.1z"/>
		</g>
		<g id="XMLID_60_">
			<path id="XMLID_61_" class="st11" d="M39.2,12.6c2.1-1.2,5.1-5.3,4.3-7.7c-0.3-0.8,1.9,0.1-0.6,4.2C40.1,13.8,38.5,13,39.2,12.6z
				"/>
		</g>
		<g id="XMLID_58_">
			<path id="XMLID_59_" class="st11" d="M26.8,12.6c-0.3-0.3-2-1.1-2.4-1.3c-0.3-0.1-0.1-0.5,0.2-0.4c1.6,0.8,2.2,1,2.5,1.3
				c0.6,0.6,0.8,2.9,0.4,2.9C27.1,15.2,27.4,13.1,26.8,12.6z"/>
		</g>
		<g id="XMLID_56_">
			<path id="XMLID_57_" class="st11" d="M37.2,7c1.3-1.6,2.4-3.6,1.4-5.4c-0.1-0.1,0-0.2,0.1-0.3c0.6-0.3,1.7,2.6-1.2,5.9
				C37.4,7.5,37,7.2,37.2,7z"/>
		</g>
		<g id="XMLID_54_">
			<path id="XMLID_55_" class="st11" d="M33.5,12.1c1.1-1.2,1.1-3-0.1-4.2c-0.1-0.1-0.1-0.2,0-0.3c0.6-0.6,2.3,2.7,0.4,4.8
				C33.6,12.6,33.3,12.4,33.5,12.1z"/>
		</g>
		<g id="XMLID_52_">
			<path id="XMLID_53_" class="st11" d="M38.1,9.4c0.2-0.2,0.5,0,0.4,0.3c-0.6,0.7-1.6,2-1.1,3.2C37.6,13.7,35.4,13,38.1,9.4z"/>
		</g>
		<g id="XMLID_50_">
			<path id="XMLID_51_" class="st11" d="M46.5,16.4c1.1-1.3,2.6-3.2,2.3-5.3c-0.1-0.9,2.2,0.5-2,5.5C46.6,16.9,46.3,16.6,46.5,16.4z
				"/>
		</g>
		<g id="XMLID_48_">
			<path id="XMLID_49_" class="st11" d="M45.9,9.5c0.5-0.6,2-2.3,1-3.6c-0.6-0.8,2.5,0-0.6,3.9C46.1,10,45.7,9.8,45.9,9.5z"/>
		</g>
		<g id="XMLID_46_">
			<path id="XMLID_47_" class="st11" d="M37,7c0.2-1.1,0-2.2-0.5-3.2c-0.1-0.3,0.3-0.4,0.4-0.2c0.5,1.1,0.7,2.3,0.5,3.4
				C37.4,7.4,37,7.3,37,7z"/>
		</g>
		<g id="XMLID_44_">
			<path id="XMLID_45_" class="st11" d="M24.3,19.8c-0.1,0-0.2-0.1-0.2-0.2c0.2-1.1-0.3-2.2-1.1-2.9c-0.2-0.2,0.1-0.5,0.3-0.3
				C24.9,17.6,24.9,19.9,24.3,19.8z"/>
		</g>
		<g id="XMLID_42_">
			<path id="XMLID_43_" class="st11" d="M50.6,17.1c0.1,0.1,0,0.2,0,0.3c-1.1,0.8-1.8,2.2-1.7,3.5c0,0.1-0.1,0.2-0.2,0.2
				C47.5,21.2,49.9,16.1,50.6,17.1z"/>
		</g>
	</g>
</g>
<g>
	<path class="st12" d="M32.6,36.2c3.4,1,5.2,1,8.6,0c0.2-0.1,0.4,0,0.3,0.2c-0.4,0.6-1.7,2.2-4.4,2.2c-2.6,0-4.2-1.5-4.7-2.2
		C32.2,36.2,32.4,36.1,32.6,36.2z"/>
</g>
<path class="st13" d="M53.1,73.2v-2v-4.5c0-0.4-0.3-0.7-0.7-0.6l-2.3,0.5c-1.6,0.3-3.3,0.3-5,0l-2.3-0.5c-0.4-0.1-0.7,0.2-0.7,0.6
	v4.5v2H53.1z"/>
<g>
	<g>
		<g>
			<line class="st14" x1="42.8" y1="67" x2="42.9" y2="67.1"/>
			<path class="st15" d="M43.9,67.3l1.2,0.3c1.6,0.3,3.2,0.3,4.9,0l1.8-0.4"/>
			<line class="st14" x1="52.3" y1="67.1" x2="52.4" y2="67"/>
		</g>
	</g>
</g>
<g>
	<path class="st4" d="M37.1,53.1c-0.1,0-0.2-0.1-0.2-0.2c0-0.1,0.1-0.2,0.2-0.2h0.2l0,0c0.1,0,0.2,0.1,0.2,0.2
		c0,0.1-0.1,0.2-0.2,0.2H37.1L37.1,53.1z M36.1,53.1L36.1,53.1h-0.2c-0.1,0-0.2-0.1-0.2-0.2s0.1-0.2,0.2-0.2h0.2
		c0.1,0,0.2,0.1,0.2,0.2S36.2,53.1,36.1,53.1z M38.3,53c-0.1,0-0.2-0.1-0.2-0.2c0-0.1,0.1-0.2,0.2-0.2h0.2c0.1,0,0.2,0.1,0.2,0.2
		c0,0.1-0.1,0.2-0.2,0.2H38.3L38.3,53z M34.9,53L34.9,53h-0.2c-0.1,0-0.2-0.1-0.2-0.2c0-0.1,0.1-0.2,0.2-0.2h0.2
		c0.1,0,0.2,0.1,0.2,0.2C35.1,53,35,53,34.9,53z M39.5,52.9c-0.1,0-0.2-0.1-0.2-0.2c0-0.1,0.1-0.2,0.1-0.2h0.2
		c0.1,0,0.2,0.1,0.2,0.1c0,0.1-0.1,0.2-0.1,0.2L39.5,52.9L39.5,52.9z M33.7,52.9L33.7,52.9h-0.2c-0.1,0-0.2-0.1-0.1-0.2
		s0.1-0.2,0.2-0.1h0.2c0.1,0,0.2,0.1,0.1,0.2C33.9,52.8,33.8,52.9,33.7,52.9z M40.7,52.7c-0.1,0-0.2-0.1-0.2-0.1
		c0-0.1,0-0.2,0.1-0.2h0.2c0.1,0,0.2,0,0.2,0.1s0,0.2-0.1,0.2H40.7L40.7,52.7z M32.5,52.7L32.5,52.7h-0.2c-0.1,0-0.2-0.1-0.1-0.2
		c0-0.1,0.1-0.2,0.2-0.1h0.2c0.1,0,0.2,0.1,0.1,0.2C32.7,52.6,32.6,52.7,32.5,52.7z M41.9,52.4c-0.1,0-0.1-0.1-0.2-0.1
		c0-0.1,0-0.2,0.1-0.2L42,52c0.1,0,0.2,0,0.2,0.1s0,0.2-0.1,0.2L41.9,52.4L41.9,52.4z M31.4,52.4C31.4,52.4,31.3,52.4,31.4,52.4
		l-0.2-0.1c-0.1,0-0.1-0.1-0.1-0.2c0-0.1,0.1-0.1,0.2-0.1l0.2,0.1c0.1,0,0.1,0.1,0.1,0.2C31.5,52.3,31.4,52.4,31.4,52.4z M43,52.1
		c-0.1,0-0.1,0-0.2-0.1c0-0.1,0-0.2,0.1-0.2s0.1,0,0.2-0.1c0.1,0,0.2,0,0.2,0.1s0,0.2-0.1,0.2C43.2,52,43.1,52,43,52.1L43,52.1z
		 M30.2,52L30.2,52c-0.1,0-0.2-0.1-0.3-0.1s-0.1-0.1-0.1-0.2c0-0.1,0.1-0.1,0.2-0.1l0.2,0.1c0.1,0,0.1,0.1,0.1,0.2
		C30.4,51.9,30.3,52,30.2,52z M44.1,51.6c-0.1,0-0.1,0-0.2-0.1c0-0.1,0-0.2,0.1-0.2l0.2-0.1c0.1,0,0.2,0,0.2,0.1s0,0.2-0.1,0.2
		L44.1,51.6C44.1,51.5,44.1,51.6,44.1,51.6z M29.2,51.4C29.1,51.4,29.1,51.4,29.2,51.4l-0.3-0.1c-0.1,0-0.1-0.2-0.1-0.2
		C28.8,51,29,51,29,51l0.2,0.1c0.1,0,0.1,0.2,0.1,0.2C29.3,51.4,29.2,51.4,29.2,51.4z M45.1,50.9c-0.1,0-0.1,0-0.2-0.1
		c0-0.1,0-0.2,0.1-0.2l0.2-0.1c0.1,0,0.2,0,0.2,0.1s0,0.2-0.1,0.2L45.1,50.9C45.2,50.9,45.1,50.9,45.1,50.9z M28.1,50.8L28.1,50.8
		l-0.3-0.1c-0.1,0-0.1-0.2-0.1-0.2c0.1-0.1,0.2-0.1,0.2-0.1l0.2,0.1c0.1,0.1,0.1,0.2,0.1,0.2C28.3,50.8,28.2,50.8,28.1,50.8z"/>
</g>
<path class="st16" d="M35.5,41.7c0.8-0.2,1.7-0.3,2.5-0.3c0.3,0,0.6,0,0.8,0.2"/>
<path class="st4" d="M42.3,73.2v-6.5c0-0.1,0.1-0.3,0.2-0.4c0.1-0.1,0.2-0.1,0.4-0.1l2.3,0.5c1.7,0.3,3.3,0.3,5,0l2.3-0.5
	c0.1,0,0.3,0,0.4,0.1c0.1,0.1,0.2,0.2,0.2,0.4v6.5h0.3v-6.5c0-0.2-0.1-0.5-0.3-0.6c-0.2-0.2-0.4-0.2-0.7-0.2l-2.3,0.5
	c-1.6,0.2-3.3,0.2-4.9,0l-2.3-0.5c-0.2,0-0.5,0-0.7,0.2s-0.3,0.4-0.3,0.6v6.5H42.3z"/>
<linearGradient id="SVGID_2_" gradientUnits="userSpaceOnUse" x1="36.1321" y1="1058.6589" x2="36.2965" y2="1046.0813" gradientTransform="matrix(1 0 0 1 0 -1014.4357)">
	<stop  offset="0.1436" style="stop-color:#D8967D"/>
	<stop  offset="0.957" style="stop-color:#D8967D;stop-opacity:0"/>
</linearGradient>
<path class="st17" d="M32.1,43.7c3,1.5,6.8,2.1,9.3,0c3.2-2.6,6.7-9,7.2-15.9c0-0.2-0.1-1.4-0.1-1.6c-1.3,1.4-0.9,3.6-1.5,5.4
	c-0.2,0.7-2.3,5.4-5,7.3c-2,1.3-2.7-0.1-5.3,0c-1.8,0-3.6,1.7-6-0.2c-1.2-0.9-3.3-6.7-3.5-8.1c-0.1-0.4-0.1-0.9-0.2-1.3
	c-0.3-0.8-0.7-1.4-1.3-1.9l-1.6-0.1C24.9,36.1,29.4,42.3,32.1,43.7z"/>
<path class="st4" d="M15.3,73.2h0.5c1.1-2.8,1.6-6.7,1.5-7.1c0-0.1-0.1-0.2-0.3-0.2c-0.1,0-0.2,0.1-0.2,0.3
	C16.9,66.5,16.4,70.5,15.3,73.2z"/>
</svg>
