<?xml version="1.0" encoding="utf-8"?>
<!-- Generator: Adobe Illustrator 25.2.3, SVG Export Plug-In . SVG Version: 6.00 Build 0)  -->
<svg version="1.1" id="Layer_1" xmlns="http://www.w3.org/2000/svg" xmlns:xlink="http://www.w3.org/1999/xlink" x="0px" y="0px"
	 viewBox="0 0 71.7 73.2" style="enable-background:new 0 0 71.7 73.2;" xml:space="preserve">
<style type="text/css">
	.st0{fill:#575756;}
	.st1{fill:#F5A88D;}
	.st2{fill:url(#SVGID_1_);}
	.st3{fill:#D8967D;}
	.st4{fill:#1C603B;}
	.st5{fill:#462922;}
	.st6{fill:#EEA38D;}
	.st7{opacity:0.2;}
	.st8{fill:#7C483C;}
	.st9{fill:#49382C;}
	.st10{fill:#4D3932;}
	.st11{fill:#392924;}
	.st12{fill:#FFFFFF;}
	.st13{fill:#2E9661;}
	.st14{fill:none;stroke:#1C603B;stroke-width:0.3489;stroke-linecap:round;stroke-miterlimit:10;}
	.st15{fill:none;stroke:#1C603B;stroke-width:0.3489;stroke-linecap:round;stroke-miterlimit:10;stroke-dasharray:0.2026,1.013;}
	
		.st16{opacity:5.000000e-02;fill:none;stroke:#7C483C;stroke-width:0.4743;stroke-linecap:round;stroke-miterlimit:10;enable-background:new    ;}
	.st17{opacity:0.3;fill:url(#SVGID_2_);enable-background:new    ;}
	.st18{fill:url(#SVGID_3_);}
	.st19{fill:url(#SVGID_4_);}
	.st20{fill:#EDA887;}
	.st21{fill:#D49974;}
	.st22{fill:#351E19;}
	.st23{opacity:0.5;fill:url(#SVGID_5_);enable-background:new    ;}
	.st24{opacity:0.5;fill:url(#SVGID_6_);enable-background:new    ;}
	.st25{fill:none;stroke:#AF7D61;stroke-width:0.4033;stroke-linecap:round;stroke-miterlimit:10;}
	
		.st26{opacity:0.2;fill:none;stroke:#7C483C;stroke-width:0.4021;stroke-linecap:round;stroke-miterlimit:10;enable-background:new    ;}
	.st27{fill:none;stroke:#353535;stroke-width:0.5041;stroke-linecap:round;stroke-miterlimit:10;}
	.st28{fill:none;stroke:#353535;stroke-width:0.3081;stroke-linecap:round;stroke-miterlimit:10;}
	.st29{fill:none;stroke:#351E19;stroke-width:0.3063;stroke-linecap:round;stroke-miterlimit:10;}
	.st30{fill:none;stroke:url(#SVGID_7_);stroke-width:0.209;stroke-linecap:round;stroke-linejoin:round;stroke-miterlimit:10;}
	.st31{fill:none;stroke:#9E4E48;stroke-width:0.3016;stroke-linecap:round;stroke-miterlimit:10;}
	.st32{fill:url(#SVGID_8_);}
	.st33{fill:url(#SVGID_9_);}
	.st34{fill:url(#SVGID_10_);}
	.st35{fill:url(#SVGID_11_);}
	.st36{fill:url(#SVGID_12_);}
	.st37{fill:url(#SVGID_13_);}
	.st38{opacity:0.8;fill:#9E4E48;enable-background:new    ;}
	.st39{fill:none;stroke:#303030;stroke-width:0.1605;stroke-linecap:round;stroke-linejoin:round;stroke-miterlimit:10;}
	.st40{fill:url(#SVGID_14_);}
	.st41{fill:url(#SVGID_15_);}
	.st42{fill:url(#SVGID_16_);}
	.st43{fill:url(#SVGID_17_);}
	.st44{fill:url(#SVGID_18_);}
	.st45{fill:none;stroke:url(#SVGID_19_);stroke-width:0.1008;stroke-linecap:round;stroke-miterlimit:10;}
	.st46{fill:none;stroke:url(#SVGID_20_);stroke-width:0.1008;stroke-linecap:round;stroke-miterlimit:10;}
	.st47{fill:url(#SVGID_21_);}
	
		.st48{opacity:5.000000e-02;fill:none;stroke:#7C483C;stroke-width:0.4782;stroke-linecap:round;stroke-miterlimit:10;enable-background:new    ;}
	.st49{opacity:0.15;}
	.st50{fill:#2A2220;}
	.st51{fill:#FFC050;}
	.st52{fill:#E0A038;}
	.st53{fill:#E2A139;}
	.st54{fill:#343633;}
	.st55{fill:#FFFFFC;}
	.st56{fill:#D08061;}
	.st57{fill:#B37658;}
	.st58{fill:#DDA06F;}
	.st59{opacity:0.3;enable-background:new    ;}
	.st60{clip-path:url(#SVGID_23_);fill:#D8967D;}
	.st61{clip-path:url(#SVGID_25_);fill:#D8967D;}
	.st62{clip-path:url(#SVGID_27_);fill:#D8967D;}
	.st63{fill:#2B3A6D;}
	.st64{opacity:0.5;fill:url(#SVGID_28_);enable-background:new    ;}
	.st65{opacity:0.5;fill:url(#SVGID_29_);enable-background:new    ;}
	
		.st66{opacity:5.000000e-02;fill:none;stroke:#7C483C;stroke-width:0.4451;stroke-linecap:round;stroke-miterlimit:10;enable-background:new    ;}
	.st67{opacity:0.3;fill:#CD805F;enable-background:new    ;}
	.st68{fill:#076FB7;}
	.st69{fill:none;stroke:#0D456B;stroke-width:0.4117;stroke-linecap:round;stroke-linejoin:round;stroke-miterlimit:10;}
	
		.st70{opacity:5.000000e-02;fill:none;stroke:#7C483C;stroke-width:0.4896;stroke-linecap:round;stroke-miterlimit:10;enable-background:new    ;}
	.st71{fill:url(#SVGID_30_);}
	.st72{fill:#0D456B;}
	.st73{fill:#C6DBF0;}
	.st74{opacity:0.75;fill:url(#SVGID_31_);enable-background:new    ;}
	.st75{fill:url(#SVGID_32_);}
	
		.st76{opacity:0.2;fill:none;stroke:#7C483C;stroke-width:0.4896;stroke-linecap:round;stroke-miterlimit:10;enable-background:new    ;}
	.st77{opacity:0.5;fill:url(#SVGID_33_);enable-background:new    ;}
	.st78{fill:#4D3933;}
	.st79{fill:url(#SVGID_34_);}
	.st80{opacity:0.5;}
	.st81{fill:#58403A;}
	.st82{fill:#B28025;}
	.st83{fill:none;stroke:#7C483C;stroke-width:0.3804;stroke-linecap:round;stroke-miterlimit:10;}
	.st84{fill:url(#SVGID_35_);}
	.st85{opacity:0.5;fill:url(#SVGID_36_);enable-background:new    ;}
	.st86{opacity:0.5;fill:url(#SVGID_37_);enable-background:new    ;}
	.st87{fill:none;stroke:#9E4E48;stroke-width:0.2853;stroke-linecap:round;stroke-miterlimit:10;}
	.st88{fill:url(#XMLID_95_);}
	.st89{fill:url(#SVGID_38_);}
	.st90{fill:none;stroke:url(#SVGID_39_);stroke-width:9.537996e-02;stroke-linecap:round;stroke-miterlimit:10;}
	.st91{fill:none;stroke:url(#SVGID_40_);stroke-width:9.537996e-02;stroke-linecap:round;stroke-miterlimit:10;}
	.st92{opacity:0.6;fill:#CD805F;enable-background:new    ;}
	
		.st93{opacity:0.5;fill:none;stroke:#58403A;stroke-width:0.4769;stroke-linecap:round;stroke-linejoin:round;stroke-miterlimit:10;enable-background:new    ;}
	.st94{fill:#DADADA;}
	.st95{fill:#D59175;}
	.st96{fill:none;stroke:#58403A;stroke-width:0.4769;stroke-linecap:round;stroke-linejoin:round;stroke-miterlimit:10;}
	.st97{fill:url(#SVGID_41_);stroke:#C6C6C6;stroke-width:2.861399e-02;stroke-linejoin:round;stroke-miterlimit:10;}
	.st98{fill:url(#SVGID_42_);stroke:url(#SVGID_43_);stroke-width:1.0891;stroke-miterlimit:10;}
	.st99{fill:none;stroke:url(#SVGID_44_);stroke-width:0.1954;stroke-linecap:round;stroke-linejoin:round;stroke-miterlimit:10;}
	.st100{fill:none;stroke:url(#SVGID_45_);stroke-width:0.2499;stroke-linecap:round;stroke-miterlimit:10;}
	.st101{fill:url(#SVGID_46_);stroke:url(#SVGID_47_);stroke-width:1.0891;stroke-miterlimit:10;}
	.st102{fill:none;stroke:url(#SVGID_48_);stroke-width:0.1954;stroke-linecap:round;stroke-linejoin:round;stroke-miterlimit:10;}
	.st103{opacity:0.63;fill:url(#SVGID_49_);enable-background:new    ;}
	
		.st104{opacity:0.17;fill:none;stroke:url(#SVGID_50_);stroke-width:0.2499;stroke-linecap:round;stroke-miterlimit:10;enable-background:new    ;}
	
		.st105{opacity:0.17;fill:none;stroke:url(#SVGID_51_);stroke-width:0.2499;stroke-linecap:round;stroke-miterlimit:10;enable-background:new    ;}
	.st106{fill:url(#SVGID_52_);}
	.st107{fill:none;stroke:#5C362D;stroke-width:0.2465;stroke-linecap:round;stroke-miterlimit:10;}
	.st108{fill:url(#SVGID_53_);}
	.st109{fill:url(#SVGID_54_);}
	.st110{opacity:0.45;fill:#7C483C;enable-background:new    ;}
	.st111{fill:url(#SVGID_55_);}
	.st112{fill:#9E4E48;}
	.st113{fill:none;stroke:#9D9D9C;stroke-width:0.4477;stroke-linecap:round;stroke-miterlimit:10;}
	.st114{fill:none;stroke:#EDEDED;stroke-width:0.4785;stroke-linecap:round;stroke-miterlimit:10;stroke-dasharray:0.2743,1.3715;}
	.st115{clip-path:url(#SVGID_57_);fill:#B99B6C;}
	.st116{clip-path:url(#SVGID_59_);fill:#B99B6C;}
	.st117{clip-path:url(#SVGID_61_);fill:#B99B6C;}
	.st118{clip-path:url(#SVGID_63_);fill:#B99B6C;}
	.st119{clip-path:url(#SVGID_65_);fill:#B99B6C;}
	.st120{clip-path:url(#SVGID_67_);fill:#B99B6C;}
	.st121{clip-path:url(#SVGID_69_);fill:#B99B6C;}
	.st122{clip-path:url(#SVGID_71_);fill:#B99B6C;}
	.st123{clip-path:url(#SVGID_73_);fill:#B99C6C;}
	.st124{clip-path:url(#SVGID_75_);fill:#BA9C6C;}
	.st125{clip-path:url(#SVGID_77_);fill:#BA9C6C;}
	.st126{clip-path:url(#SVGID_79_);fill:#BA9C6C;}
	.st127{clip-path:url(#SVGID_81_);fill:#BA9C6C;}
	.st128{clip-path:url(#SVGID_83_);fill:#BA9C6C;}
	.st129{clip-path:url(#SVGID_85_);fill:#BA9C6D;}
	.st130{clip-path:url(#SVGID_87_);fill:#BB9C6D;}
	.st131{clip-path:url(#SVGID_89_);fill:#BB9D6D;}
	.st132{clip-path:url(#SVGID_91_);fill:#BB9D6D;}
	.st133{clip-path:url(#SVGID_93_);fill:#BC9D6D;}
	.st134{clip-path:url(#SVGID_95_);fill:#BC9D6D;}
	.st135{clip-path:url(#SVGID_97_);fill:#BC9E6D;}
	.st136{clip-path:url(#SVGID_99_);fill:#BD9E6E;}
	.st137{clip-path:url(#SVGID_101_);fill:#BD9E6E;}
	.st138{clip-path:url(#SVGID_103_);fill:#BD9F6E;}
	.st139{clip-path:url(#SVGID_105_);fill:#BE9F6E;}
	.st140{clip-path:url(#SVGID_107_);fill:#BE9F6F;}
	.st141{clip-path:url(#SVGID_109_);fill:#BFA06F;}
	.st142{clip-path:url(#SVGID_111_);fill:#BFA06F;}
	.st143{clip-path:url(#SVGID_113_);fill:#C0A170;}
	.st144{clip-path:url(#SVGID_115_);fill:#C1A170;}
	.st145{clip-path:url(#SVGID_117_);fill:#C1A270;}
	.st146{clip-path:url(#SVGID_119_);fill:#C2A271;}
	.st147{clip-path:url(#SVGID_121_);fill:#C3A371;}
	.st148{clip-path:url(#SVGID_123_);fill:#C3A371;}
	.st149{clip-path:url(#SVGID_125_);fill:#C4A472;}
	.st150{clip-path:url(#SVGID_127_);fill:#C5A572;}
	.st151{clip-path:url(#SVGID_129_);fill:#C6A573;}
	.st152{clip-path:url(#SVGID_131_);fill:#C7A673;}
	.st153{clip-path:url(#SVGID_133_);fill:#C8A774;}
	.st154{clip-path:url(#SVGID_135_);fill:#C8A774;}
	.st155{clip-path:url(#SVGID_137_);fill:#C9A874;}
	.st156{clip-path:url(#SVGID_139_);fill:#CAA975;}
	.st157{clip-path:url(#SVGID_141_);fill:#CBAA75;}
	.st158{clip-path:url(#SVGID_143_);fill:#CCAA76;}
	.st159{clip-path:url(#SVGID_145_);fill:#CDAB77;}
	.st160{clip-path:url(#SVGID_147_);fill:#CEAC77;}
	.st161{clip-path:url(#SVGID_149_);fill:#CFAD78;}
	.st162{clip-path:url(#SVGID_151_);fill:#D0AE78;}
	.st163{clip-path:url(#SVGID_153_);fill:#D2AF79;}
	.st164{clip-path:url(#SVGID_155_);fill:#D3B079;}
	.st165{clip-path:url(#SVGID_157_);fill:#D4B17A;}
	.st166{clip-path:url(#SVGID_159_);fill:#D5B27B;}
	.st167{clip-path:url(#SVGID_161_);fill:#D6B37B;}
	.st168{clip-path:url(#SVGID_163_);fill:#D8B47C;}
	.st169{clip-path:url(#SVGID_165_);fill:#D9B57D;}
	.st170{clip-path:url(#SVGID_167_);fill:#DAB67D;}
	.st171{clip-path:url(#SVGID_169_);fill:#DCB77E;}
	.st172{clip-path:url(#SVGID_171_);fill:#DDB87F;}
	.st173{clip-path:url(#SVGID_173_);fill:#DFB980;}
	.st174{clip-path:url(#SVGID_175_);fill:#E0BA81;}
	.st175{clip-path:url(#SVGID_177_);fill:#E2BC81;}
	.st176{clip-path:url(#SVGID_179_);fill:#E3BD82;}
	.st177{clip-path:url(#SVGID_181_);fill:#E5BE83;}
	.st178{clip-path:url(#SVGID_183_);fill:#E5BE83;}
	.st179{clip-path:url(#SVGID_185_);fill:#E5BE83;}
	.st180{clip-path:url(#SVGID_187_);fill:#E4BD83;}
	.st181{clip-path:url(#SVGID_189_);fill:#E4BD82;}
	.st182{clip-path:url(#SVGID_191_);fill:#E3BD82;}
	.st183{clip-path:url(#SVGID_193_);fill:#E3BC82;}
	.st184{clip-path:url(#SVGID_195_);fill:#E2BC81;}
	.st185{clip-path:url(#SVGID_197_);fill:#E2BB81;}
	.st186{clip-path:url(#SVGID_199_);fill:#E1BB81;}
	.st187{clip-path:url(#SVGID_201_);fill:#E0BA81;}
	.st188{clip-path:url(#SVGID_203_);fill:#E0BA80;}
	.st189{clip-path:url(#SVGID_205_);fill:#DFB980;}
	.st190{clip-path:url(#SVGID_207_);fill:#DFB980;}
	.st191{clip-path:url(#SVGID_209_);fill:#DEB87F;}
	.st192{clip-path:url(#SVGID_211_);fill:#DDB87F;}
	.st193{clip-path:url(#SVGID_213_);fill:#DDB77F;}
	.st194{clip-path:url(#SVGID_215_);fill:#DCB77E;}
	.st195{clip-path:url(#SVGID_217_);fill:#DBB67E;}
	.st196{clip-path:url(#SVGID_219_);fill:#DBB67E;}
	.st197{clip-path:url(#SVGID_221_);fill:#DAB57D;}
	.st198{clip-path:url(#SVGID_223_);fill:#D9B57D;}
	.st199{clip-path:url(#SVGID_225_);fill:#D9B47C;}
	.st200{clip-path:url(#SVGID_227_);fill:#D8B47C;}
	.st201{clip-path:url(#SVGID_229_);fill:#D7B37C;}
	.st202{clip-path:url(#SVGID_231_);fill:#D6B37B;}
	.st203{clip-path:url(#SVGID_233_);fill:#D6B27B;}
	.st204{clip-path:url(#SVGID_235_);fill:#D5B17B;}
	.st205{clip-path:url(#SVGID_237_);fill:#D4B17A;}
	.st206{clip-path:url(#SVGID_239_);fill:#D4B07A;}
	.st207{clip-path:url(#SVGID_241_);fill:#D3B079;}
	.st208{clip-path:url(#SVGID_243_);fill:#D2AF79;}
	.st209{clip-path:url(#SVGID_245_);fill:#D1AF79;}
	.st210{clip-path:url(#SVGID_247_);fill:#D1AE78;}
	.st211{clip-path:url(#SVGID_249_);fill:#D0AD78;}
	.st212{clip-path:url(#SVGID_251_);fill:#CFAD78;}
	.st213{clip-path:url(#SVGID_253_);fill:#CEAC77;}
	.st214{clip-path:url(#SVGID_255_);fill:#CEAC77;}
	.st215{clip-path:url(#SVGID_257_);fill:#CDAB76;}
	.st216{clip-path:url(#SVGID_259_);fill:#CCAA76;}
	.st217{clip-path:url(#SVGID_261_);fill:#CBAA76;}
	.st218{clip-path:url(#SVGID_263_);fill:#CBA975;}
	.st219{clip-path:url(#SVGID_265_);fill:#CAA975;}
	.st220{clip-path:url(#SVGID_267_);fill:#C9A874;}
	.st221{clip-path:url(#SVGID_269_);fill:#C8A774;}
	.st222{clip-path:url(#SVGID_271_);fill:#C8A774;}
	.st223{clip-path:url(#SVGID_273_);fill:#C7A673;}
	.st224{clip-path:url(#SVGID_275_);fill:#C6A573;}
	.st225{clip-path:url(#SVGID_277_);fill:#C5A572;}
	.st226{clip-path:url(#SVGID_279_);fill:#C4A472;}
	.st227{clip-path:url(#SVGID_281_);fill:#C3A371;}
	.st228{clip-path:url(#SVGID_283_);fill:#C3A371;}
	.st229{clip-path:url(#SVGID_285_);fill:#C2A270;}
	.st230{clip-path:url(#SVGID_287_);fill:#C1A170;}
	.st231{clip-path:url(#SVGID_289_);fill:#C0A170;}
	.st232{clip-path:url(#SVGID_291_);fill:#BFA06F;}
	.st233{clip-path:url(#SVGID_293_);fill:#BE9F6F;}
	.st234{clip-path:url(#SVGID_295_);fill:#BD9F6E;}
	.st235{clip-path:url(#SVGID_297_);fill:#BD9E6E;}
	.st236{clip-path:url(#SVGID_299_);fill:#BC9D6D;}
	.st237{clip-path:url(#SVGID_301_);fill:#BB9D6D;}
	.st238{clip-path:url(#SVGID_303_);fill:#BA9C6C;}
	.st239{clip-path:url(#SVGID_305_);fill:#B99B6C;}
	.st240{fill:url(#SVGID_306_);}
	.st241{opacity:0.1;fill:#2A2220;enable-background:new    ;}
	.st242{fill:url(#SVGID_307_);}
	.st243{opacity:0.45;fill:url(#SVGID_308_);enable-background:new    ;}
	.st244{fill:url(#SVGID_309_);}
	.st245{fill:url(#SVGID_310_);}
	.st246{opacity:0.83;fill:#7C483C;enable-background:new    ;}
	.st247{fill:url(#SVGID_311_);}
	.st248{fill:#EDEDED;}
	.st249{opacity:0.1;}
	.st250{fill:none;stroke:#EDEDED;stroke-width:0.4677;stroke-linecap:round;stroke-miterlimit:10;}
	.st251{fill:none;stroke:#EDEDED;stroke-width:0.4677;stroke-linecap:round;stroke-miterlimit:10;stroke-dasharray:0.267,1.3352;}
	.st252{fill:url(#SVGID_312_);}
	.st253{fill:none;stroke:url(#SVGID_313_);stroke-width:0.1479;stroke-linecap:round;stroke-linejoin:round;stroke-miterlimit:10;}
	.st254{fill:none;stroke:url(#SVGID_314_);stroke-width:0.1479;stroke-linecap:round;stroke-linejoin:round;stroke-miterlimit:10;}
	.st255{fill:url(#SVGID_315_);}
	.st256{fill:url(#SVGID_316_);}
	.st257{fill:url(#SVGID_317_);}
	.st258{fill:#F3D09C;}
</style>
<g id="Layer_1_1_">
	<path id="XMLID_335_" class="st78" d="M52.3,10.6c1.4,6.7,0.5,11.3,1.2,17.5c0.6,5,3.8,7.9,5.2,11.1c1.8,4.5,0.3,11,6,17.2
		c3.6,3.9-44.7,16.4-50.3,14.5C4.9,67.7,2.9,59.5,7.7,54.2c2-2.2,5-3.1,7.2-5.1c3.7-3.3,1.5-13,4.2-16.2C23,28,13.6,7.7,29.5,1
		C34.2-1,44,0.2,44.9,2.7c0,0.1-0.1,0,0,0C46.5,2.1,51.3,6.5,52.3,10.6z"/>
	<path id="XMLID_93_" class="st78" d="M20.1,30.9c-2.9,6.9-16,7.8-13.5,24.7l0,0l6.8-3.9l5.8-7l2-12.5L20.1,30.9z"/>
	
		<linearGradient id="SVGID_1_" gradientUnits="userSpaceOnUse" x1="35.4742" y1="-160.3708" x2="35.4742" y2="-103.8401" gradientTransform="matrix(1 0 0 -1 0 -103.7447)">
		<stop  offset="0.2056" style="stop-color:#3A2A23"/>
		<stop  offset="0.2925" style="stop-color:#3D2C26;stop-opacity:0.8344"/>
		<stop  offset="0.4022" style="stop-color:#46342D;stop-opacity:0.6255"/>
		<stop  offset="0.4682" style="stop-color:#4D3933;stop-opacity:0.5"/>
	</linearGradient>
	<path class="st2" d="M64.6,56.4c-5.7-6.2-4.2-12.7-6-17.2c-1.3-3.1-4.5-6.1-5.2-11.1c-0.8-6.4,0.3-10.9-1.2-17.5
		c-1-4.3-5.6-8.1-7.3-7.8c-1-2.5-10.6-3.7-15.5-1.7c-15.8,6.6-6.6,26.8-10.5,31.8c-4.3,5.2-14.6,7.5-12.3,22.7
		C4.9,58.6,22.1,47.1,38,47C52.8,46.8,66.3,58.3,64.6,56.4z"/>
	<g id="XMLID_506_" class="st80">
		<path class="st81" d="M9.6,55.1C9.7,55.1,9.7,55.2,9.6,55.1c0.2,0.2,0.3,0.1,0.4,0c1.9-2.3,1.3-4.4,0.9-6.1
			c-0.4-1.3-0.7-2.5,0.1-3.6c0.1-0.1,0-0.3-0.1-0.4c-0.1-0.1-0.3,0-0.4,0.1c-0.9,1.2-0.5,2.6-0.1,4c0.5,1.8,1,3.6-0.8,5.7
			C9.6,54.9,9.6,55,9.6,55.1z"/>
	</g>
	<g id="XMLID_92_" class="st80">
		<path class="st81" d="M47.3,47.8c0.1,0,0.2-0.1,0.3-0.2c0.7-2.4,0.6-5-0.4-7.3c-0.1-0.1-0.2-0.2-0.4-0.2c-0.1,0.1-0.2,0.2-0.2,0.4
			c0.9,2.2,1,4.7,0.3,7C47,47.6,47,47.8,47.3,47.8C47.2,47.8,47.2,47.8,47.3,47.8z"/>
	</g>
	<g id="XMLID_356_" class="st80">
		<path class="st81" d="M53.3,49.6c0.1,0,0.2-0.1,0.2-0.2c0.4-2.5-0.1-5.1-1.3-7.2c-0.1-0.1-0.2-0.2-0.4-0.1
			c-0.1,0.1-0.2,0.2-0.1,0.4c1.1,2.1,1.6,4.5,1.2,6.9C52.9,49.5,53,49.6,53.3,49.6C53.2,49.6,53.2,49.6,53.3,49.6z"/>
	</g>
	<g id="XMLID_352_" class="st80">
		<path class="st81" d="M18.2,55.1L18.2,55.1c0.2-0.1,0.3-0.3,0.2-0.4c-0.5-0.8-0.5-1.8,0.1-3.2c1.4-3.4,0.9-4.5,0.4-5.4
			c-0.3-0.6-0.5-1-0.3-1.9c0.1-0.8,0.7-1.2,1.3-1.8c0.8-0.8,1.7-1.6,2.6-3.3c0.1-0.1,0-0.3-0.1-0.4c-0.1-0.1-0.3,0-0.4,0.1
			c-0.8,1.6-1.7,2.5-2.4,3.2c-0.7,0.7-1.2,1.2-1.4,2.1c-0.2,1,0.1,1.6,0.4,2.2c0.5,0.9,0.9,1.8-0.4,5.1
			C17.5,52.8,17.5,54.1,18.2,55.1C18,55,18.1,55.1,18.2,55.1z"/>
	</g>
	<g id="XMLID_359_" class="st80">
		<path class="st81" d="M24.4,49.8c0.1,0,0.2-0.2,0.2-0.3c-0.4-2.4,0.5-3.7,1.3-5.1c1-1.4,1.9-3,1-5.5c0-0.1-0.2-0.2-0.3-0.2
			c-0.1,0-0.2,0.2-0.2,0.3c0.8,2.4,0,3.6-1,5.2c-0.9,1.3-1.9,2.9-1.4,5.4C24.1,49.7,24.2,49.8,24.4,49.8L24.4,49.8z"/>
	</g>
	<g id="XMLID_355_" class="st80">
		<path class="st81" d="M56.8,52.5L56.8,52.5c0.2-0.1,0.3-0.2,0.2-0.4c-0.6-1.2-0.3-2.2,0.1-3.4c0.6-1.8,1.3-4.1-0.6-8.7
			c-0.1-0.1-0.2-0.2-0.4-0.1c-0.1,0.1-0.2,0.2-0.1,0.4c1.8,4.3,1.1,6.5,0.6,8.3c-0.4,1.2-0.8,2.3-0.1,3.7
			C56.6,52.5,56.7,52.5,56.8,52.5z"/>
	</g>
	<g id="XMLID_361_" class="st80">
		<path class="st81" d="M52.4,35.2c0.2,0,0.3-0.1,0.3-0.3c-0.1-0.8-0.3-1.5-0.6-2.4c-0.6-1.8-1.2-4.1-1-7.6c0-0.2-0.1-0.3-0.3-0.3
			s-0.3,0.1-0.3,0.3c-0.2,3.7,0.5,6.1,1,7.8c0.3,0.9,0.5,1.6,0.6,2.3C52.2,35.1,52.3,35.2,52.4,35.2z"/>
	</g>
	<g id="XMLID_367_" class="st80">
		<path class="st81" d="M50.3,39.3L50.3,39.3c0.2-0.1,0.3-0.2,0.2-0.4c-1.1-2-1.9-4.2-2.1-6.6c0-0.1-0.1-0.3-0.3-0.2
			c-0.1,0-0.3,0.1-0.2,0.3c0.2,2.4,1,4.8,2.2,6.8C50.2,39.2,50.3,39.3,50.3,39.3z"/>
	</g>
	<path class="st1" d="M48.2,52.6c0,0-26.9,1.7-22.5-1.4c1.7-1.2,2.4-4,2.6-6.9c0.3-4.3-0.7-8.9-0.7-8.9s1.2-0.7,3.1-1.4
		c5.1-2.2,14.4-5.2,13.8,1.7C43.6,45.3,48.2,52.6,48.2,52.6z"/>
	<path class="st1" d="M71.4,73.2H0.3c0,0,4.8-15.7,8.5-18c2.7-1.6,11.9-5.7,16.9-7.9c1.9-0.9,3.1-1.4,3.1-1.4s6.3,4.7,16.5-0.3
		c0.7,0.4,1.6,1,2.4,1.2c6.5,2.9,15,4.4,17,7.1c2.2,3,4.4,9.6,4.4,9.6L71.4,73.2z"/>
	<path class="st51" d="M69,63.5c0,0-2.2-6.7-4.4-9.6c-2-2.7-10.5-4.2-17-7.1c-1.8,2.7-8.6,12.8-11.1,18.2c-3.1-6.1-10-16.5-11-17.8
		c-5,2.2-14.2,6.3-16.9,7.9C5,57.5,0,73.2,0,73.2h35.5h2.7h33.6L69,63.5z"/>
	<path class="st3" d="M44.3,37.9c0,0-4.6,15.3-16.1,6.4c0.3-4.3-0.7-8.9-0.7-8.9s1.2-0.7,3.1-1.4l13.8,0.7L44.3,37.9z"/>
	<g>
		<path class="st82" d="M36.6,67.4c-0.1,0-0.1,0-0.2-0.1C33.4,61.7,25.1,48.6,25,48.5c-0.1-0.1,0-0.2,0.1-0.3s0.2,0,0.3,0.1
			s8.4,13.3,11.4,18.9C36.9,67.2,36.8,67.4,36.6,67.4C36.7,67.4,36.7,67.4,36.6,67.4z"/>
	</g>
	<path class="st20" d="M47.3,29.2c5.2-0.9,4.9-9.7,3.1-9.7c-1.7,0-3.1,1.9-3.1,1.9S42,30.1,47.3,29.2z"/>
	<path class="st83" d="M49.6,22.1c0,0,1.1,2.3-0.1,4"/>
	<path class="st20" d="M47.4,29.1c0,0.3-0.1,0.6-0.1,0.9c-0.1,0.6-0.2,1.2-0.4,1.8c-0.4,1.4-1,2.8-1.8,4c-1.9,3-5.1,5.9-8,5.9
		c-4.8,0-7.7-3.4-7.7-3.4c-0.6-0.6-4.6-6-4.5-14.4C25,15.5,27.7,6.1,35.1,6.1c0.5,0,0.9,0,1.3,0.1c3.1,0.4,5.4,2,7.2,4.2
		c0,0,0,0,0.1,0.1c2,2.6,3.2,5.8,3.6,8.9C47.8,22.6,47.7,26.5,47.4,29.1z"/>
	<ellipse class="st63" cx="31" cy="23.5" rx="0.9" ry="1.3"/>
	<ellipse class="st63" cx="42.1" cy="23.5" rx="0.9" ry="1.3"/>
	
		<radialGradient id="SVGID_2_" cx="37.5786" cy="-137.5597" r="3.7615" fx="36.5964" fy="-137.5565" gradientTransform="matrix(1 0 0 -1 0 -103.7447)" gradientUnits="userSpaceOnUse">
		<stop  offset="0" style="stop-color:#D1675D"/>
		<stop  offset="0.7657" style="stop-color:#C15851"/>
		<stop  offset="1" style="stop-color:#BA524D"/>
	</radialGradient>
	<path style="fill:url(#SVGID_2_);" d="M42,32.9L42,32.9c-3.1,3.7-6.6,4.2-9.8,0.2c-0.1-0.1-0.1-0.1-0.2-0.2
		C31.9,32.9,36.7,31.4,42,32.9z"/>
	<path class="st38" d="M42,32.9L42,32.9c-1,0.4-2.7,1-5.2,1c-2.5,0-4.9-0.9-4.9-1C31.9,32.9,36.7,31.4,42,32.9z"/>
	<path class="st78" d="M32.7,19.9c0.2,0,0.8,0.1,0.7-0.6c-0.1-0.7-0.5-0.6-1-0.6c-0.5,0-4.3,0-5.2,1.6c0,0.1,0,0.2,0.1,0.2
		C29.1,20.1,31.4,19.9,32.7,19.9z"/>
	<g class="st7">
		<path class="st8" d="M36.6,29.9c-1,0-1.7-0.3-2-0.8c-0.3-0.7,0.2-1.3,0.2-1.4c0.1-0.1,0.2-0.1,0.3-0.1c0.1,0.1,0.1,0.2,0.1,0.3
			c-0.1,0.2-0.4,0.6-0.2,1c0.2,0.3,0.7,0.5,1.5,0.5c1,0,1.7-0.2,1.9-0.6c0.2-0.4-0.2-0.9-0.2-0.9c-0.1-0.1-0.1-0.3,0.1-0.3
			c0.1-0.1,0.3-0.1,0.3,0.1c0,0,0.5,0.7,0.2,1.3C38.7,29.6,37.9,29.9,36.6,29.9z"/>
	</g>
	
		<radialGradient id="SVGID_3_" cx="45.8534" cy="-133.2974" r="4.7791" fx="44.6057" fy="-133.2933" gradientTransform="matrix(1 0 0 -1 0 -103.7447)" gradientUnits="userSpaceOnUse">
		<stop  offset="0" style="stop-color:#D1675D;stop-opacity:0.3"/>
		<stop  offset="0.4185" style="stop-color:#C55C55;stop-opacity:0.1745"/>
		<stop  offset="1" style="stop-color:#BA524D;stop-opacity:0"/>
	</radialGradient>
	<circle style="opacity:0.5;fill:url(#SVGID_3_);enable-background:new    ;" cx="45.3" cy="30" r="4.3"/>
	
		<radialGradient id="SVGID_4_" cx="28.2357" cy="-133.6769" r="4.7791" fx="26.9879" fy="-133.6728" gradientTransform="matrix(1 0 0 -1 0 -103.7447)" gradientUnits="userSpaceOnUse">
		<stop  offset="0" style="stop-color:#D1675D;stop-opacity:0.3"/>
		<stop  offset="0.4185" style="stop-color:#C55C55;stop-opacity:0.1745"/>
		<stop  offset="1" style="stop-color:#BA524D;stop-opacity:0"/>
	</radialGradient>
	<circle style="opacity:0.5;fill:url(#SVGID_4_);enable-background:new    ;" cx="27.6" cy="30.4" r="4.3"/>
	<g>
		<path class="st82" d="M35.5,73.2c-0.1-1.5-0.1-2.9-0.1-3.5c0.1-2,12.4-21.1,12.9-21.8c0.1-0.1,0.2-0.1,0.3-0.1
			c0.1,0.1,0.1,0.2,0.1,0.3c-4.4,6.8-12.8,20.1-12.9,21.7c0,0.7,0,2.1,0.1,3.5H35.5z"/>
	</g>
	<g>
		<g>
			<path class="st82" d="M51.3,50.3c-0.1,0-0.1,0-0.2-0.1c-0.3-0.4-1.4-0.7-2.1-0.8c-0.1,0-0.2-0.1-0.2-0.2c0-0.1,0.1-0.2,0.2-0.2
				c0.2,0,1.9,0.3,2.4,0.9C51.5,50,51.4,50.1,51.3,50.3C51.4,50.3,51.3,50.3,51.3,50.3z"/>
		</g>
		<g>
			<path class="st82" d="M50.2,51.6c-0.1,0-0.1,0-0.2-0.1c-0.3-0.4-1.4-0.7-2.1-0.8c-0.1,0-0.2-0.1-0.2-0.2c0-0.1,0.1-0.2,0.2-0.2
				c0.2,0,1.9,0.3,2.4,0.9C50.3,51.4,50.3,51.5,50.2,51.6C50.3,51.6,50.3,51.6,50.2,51.6z"/>
		</g>
		<g>
			<path class="st82" d="M49.6,53.4c-0.1,0-0.1,0-0.2-0.1c-0.3-0.4-1.4-0.7-2.1-0.8c-0.1,0-0.2-0.1-0.2-0.2c0-0.1,0.1-0.2,0.2-0.2
				c0.2,0,1.9,0.3,2.4,0.9C49.8,53.1,49.7,53.2,49.6,53.4C49.6,53.4,49.6,53.4,49.6,53.4z"/>
		</g>
		<g>
			<path class="st82" d="M47.9,55.4c-0.1,0-0.1,0-0.2-0.1c-0.3-0.4-1.4-0.7-2.1-0.8c-0.1,0-0.2-0.1-0.2-0.2c0-0.1,0.1-0.2,0.2-0.2
				c0.2,0,1.9,0.3,2.4,0.9C48.1,55.1,48,55.2,47.9,55.4C48,55.3,48,55.4,47.9,55.4z"/>
		</g>
		<g>
			<path class="st82" d="M46.4,57.8c-0.1,0-0.1,0-0.2-0.1c-0.3-0.4-1.4-0.7-2.1-0.8c-0.1,0-0.2-0.1-0.2-0.2c0-0.1,0.1-0.2,0.2-0.2
				c0.2,0,1.9,0.3,2.4,0.9C46.6,57.6,46.5,57.7,46.4,57.8C46.5,57.7,46.5,57.8,46.4,57.8z"/>
		</g>
		<g>
			<path class="st82" d="M45.4,59.7c-0.1,0-0.1,0-0.2-0.1c-0.3-0.4-1.4-0.7-2.1-0.8c-0.1,0-0.2-0.1-0.2-0.2s0.1-0.2,0.2-0.2
				c0.2,0,1.9,0.3,2.4,0.9C45.6,59.4,45.5,59.5,45.4,59.7C45.4,59.7,45.4,59.7,45.4,59.7z"/>
		</g>
		<g>
			<path class="st82" d="M44.2,61.6c-0.1,0-0.1,0-0.2-0.1c-0.3-0.4-1.4-0.7-2.1-0.8c-0.1,0-0.2-0.1-0.2-0.2c0-0.1,0.1-0.2,0.2-0.2
				c0.2,0,1.9,0.3,2.4,0.9C44.4,61.3,44.3,61.4,44.2,61.6C44.3,61.6,44.2,61.6,44.2,61.6z"/>
		</g>
		<g>
			<path class="st82" d="M43.1,63.9c-0.1,0-0.1,0-0.2-0.1c-0.3-0.4-1.4-0.7-2.1-0.8c-0.1,0-0.2-0.1-0.2-0.2c0-0.1,0.1-0.2,0.2-0.2
				c0.2,0,1.9,0.3,2.4,0.9C43.3,63.6,43.2,63.7,43.1,63.9C43.2,63.9,43.2,63.9,43.1,63.9z"/>
		</g>
		<g>
			<path class="st82" d="M42,65.8c-0.1,0-0.1,0-0.2-0.1c-0.3-0.4-1.4-0.7-2.1-0.8c-0.1,0-0.2-0.1-0.2-0.2c0-0.1,0.1-0.2,0.2-0.2
				c0.2,0,1.9,0.3,2.4,0.9C42.2,65.5,42.1,65.6,42,65.8C42.1,65.8,42,65.8,42,65.8z"/>
		</g>
		<g>
			<path class="st82" d="M40.9,68c-0.1,0-0.1,0-0.2-0.1c-0.3-0.4-1.4-0.7-2.1-0.8c-0.1,0-0.2-0.1-0.2-0.2c0-0.1,0.1-0.2,0.2-0.2
				c0.2,0,1.9,0.3,2.4,0.9C41.1,67.8,41,67.9,40.9,68C41,68,40.9,68,40.9,68z"/>
		</g>
		<g>
			<path class="st82" d="M40.4,70.4c-0.1,0-0.1,0-0.2-0.1c-0.3-0.4-1.4-0.7-2.1-0.8c-0.1,0-0.2-0.1-0.2-0.2c0-0.1,0.1-0.2,0.2-0.2
				c0.2,0,1.9,0.3,2.4,0.9C40.6,70.1,40.5,70.2,40.4,70.4C40.5,70.3,40.5,70.4,40.4,70.4z"/>
		</g>
		<g>
			<path class="st82" d="M40.4,72.7c-0.1,0-0.1,0-0.2-0.1c-0.3-0.4-1.4-0.7-2.1-0.8c-0.1,0-0.2-0.1-0.2-0.2c0-0.1,0.1-0.2,0.2-0.2
				c0.2,0,1.9,0.3,2.4,0.9C40.6,72.4,40.5,72.5,40.4,72.7C40.5,72.7,40.5,72.7,40.4,72.7z"/>
		</g>
	</g>
	<g>
		<path class="st82" d="M58.5,68.5c-0.2,0-0.6-0.2-1.1-6.1c0-0.1,0.1-0.2,0.2-0.2c0.1,0,0.2,0.1,0.2,0.2c0.2,2.2,0.5,4.5,0.8,5.4
			c0-0.2,0-0.4,0.1-0.8c0.2-4.7,4.6-12.9,4.8-13.3c0.1-0.1,0.2-0.1,0.3-0.1c0.1,0.1,0.1,0.2,0.1,0.3s-4.5,8.5-4.7,13.1
			C58.8,68.3,58.7,68.5,58.5,68.5L58.5,68.5z"/>
	</g>
	<g>
		<path class="st82" d="M15.3,72.9c-0.4,0-1-1-1.4-2.3c0.1,0.8,0.1,1.5-0.2,1.7c-0.1,0.1-0.2,0.1-0.4,0.1c-0.9-0.2-1.1-1.8-1.1-2
			c0-0.1,0.1-0.2,0.2-0.2s0.2,0.1,0.2,0.2c0.1,0.4,0.4,1.6,0.9,1.7c0.2-0.1,0.1-1.8-0.2-3.5c0-0.1,0-0.2,0.1-0.2s0.2,0,0.2,0.1
			c0.6,1.8,1.3,3.8,1.7,4.1c0-0.1,0.1-0.3,0.1-1C15.4,68,8,56.2,7.9,56c-0.1-0.1,0-0.2,0.1-0.3c0.1-0.1,0.2,0,0.3,0.1
			c0.3,0.5,7.5,12,7.4,15.8C15.8,72.5,15.7,72.9,15.3,72.9C15.4,72.9,15.4,72.9,15.3,72.9z"/>
	</g>
	<path class="st87" d="M30.6,32.2c0,0,3,1.7,6.1,1.5c3.1-0.1,6.4-1.4,6.4-1.4"/>
	<g id="XMLID_363_">
		<path id="XMLID_317_" class="st78" d="M25.6,36.2c-0.9-3.1-2.7-9-3-17.3C22.1-2.8,39.4,1.6,42.4,6c1.9,2.9,1.6,4-1,4.1
			C34.8,10.3,28.6,8.2,25.6,36.2z"/>
	</g>
	<g id="XMLID_90_" class="st80">
		
			<linearGradient id="XMLID_95_" gradientUnits="userSpaceOnUse" x1="21.1889" y1="-122.4029" x2="44.7233" y2="-122.4029" gradientTransform="matrix(1 0 0 -1 0 -103.7447)">
			<stop  offset="0" style="stop-color:#3E2D27"/>
			<stop  offset="0.7112" style="stop-color:#4D3933"/>
		</linearGradient>
		<path id="XMLID_91_" class="st88" d="M25.6,36.2c-0.9-3.1-4.2-5.2-4.5-13.5C20.6,0.9,35-2.1,43.4,3.7c2.9,1.9,0.7,6.3-2,6.4
			C34.8,10.3,28.6,8.2,25.6,36.2z"/>
	</g>
	<path class="st78" d="M40.6,20.2c-0.2,0-0.8,0.1-0.7-0.6c0.1-0.7,0.5-0.6,1-0.6s4.3-0.3,5.2,1.2c0.1,0.1,0,0.2-0.1,0.2
		C44.2,20.2,42,20.1,40.6,20.2z"/>
	<g id="XMLID_331_" class="st80">
		<path class="st81" d="M14.4,44.9L14.4,44.9c0.2-0.1,0.3-0.2,0.2-0.3c-1.5-2.8,1.1-4.8,3.8-6.8c1.6-1.2,3.1-2.4,3.5-3.6
			c0.4-1,0.2-2-0.1-3.9l-0.1-1c0-0.1-0.1-0.2-0.3-0.2c-0.1,0-0.2,0.1-0.2,0.3c0,0.3,0.1,0.7,0.1,1c0.3,1.9,0.4,2.9,0.1,3.7
			c-0.4,1.1-1.8,2.2-3.3,3.4c-2.6,2-5.6,4.3-3.9,7.3C14.2,44.8,14.3,44.9,14.4,44.9z"/>
	</g>
	<path class="st78" d="M42.2,11.1c0.1,0.1,0,0.3,0.2,0.3c0.1,0,0.2,0,0.3,0c2.5-0.4,3.5,3.4,3.5,3.4c0-0.7-0.4-3-0.4-3.6
		s-0.1-1.4-0.5-2c-0.4-0.5-0.9-0.8-1.4-1c-0.6-0.2-1.1-0.2-1.8-0.2c-0.4,0-3.1,1.4-2.9,2C39.2,10.2,41.8,10.2,42.2,11.1z"/>
	<g>
		
			<radialGradient id="SVGID_5_" cx="5.1606" cy="-151.6247" r="6.3335" gradientTransform="matrix(1.0353 0 0 -1.0014 31.371 -103.4156)" gradientUnits="userSpaceOnUse">
			<stop  offset="0" style="stop-color:#DADADA"/>
			<stop  offset="0.9955" style="stop-color:#B2B2B2"/>
		</radialGradient>
		<path style="fill:url(#SVGID_5_);" d="M36.4,51.4c-4.8,0-8.4-5.4-8.5-5.5v-0.1H28c0,0.1,3.6,5.4,8.3,5.4s8.8-5.6,8.9-5.7
			c0,0,0.1-0.1,0.1,0c0,0,0.1,0.1,0,0.1C45.4,45.6,41.2,51.4,36.4,51.4z"/>
	</g>
	<g>
		
			<radialGradient id="SVGID_6_" cx="36.2687" cy="-155.6505" r="0.306" gradientTransform="matrix(1 0 0 -1 0 -103.7447)" gradientUnits="userSpaceOnUse">
			<stop  offset="0" style="stop-color:#DADADA"/>
			<stop  offset="0.9955" style="stop-color:#B2B2B2"/>
		</radialGradient>
		
			<circle style="fill:none;stroke:url(#SVGID_6_);stroke-width:9.537996e-02;stroke-linecap:round;stroke-miterlimit:10;" cx="36.2" cy="51.9" r="0.3"/>
		
			<radialGradient id="SVGID_7_" cx="36.2687" cy="-155.2016" r="0.2512" gradientTransform="matrix(1 0 0 -1 0 -103.7447)" gradientUnits="userSpaceOnUse">
			<stop  offset="0" style="stop-color:#DADADA"/>
			<stop  offset="0.9955" style="stop-color:#B2B2B2"/>
		</radialGradient>
		
			<line style="fill:none;stroke:url(#SVGID_7_);stroke-width:9.537996e-02;stroke-linecap:round;stroke-miterlimit:10;" x1="36.2" y1="51.2" x2="36.2" y2="51.7"/>
	</g>
	<g>
		<circle class="st92" cx="30" cy="28" r="0.2"/>
		<circle class="st92" cx="30.5" cy="29.9" r="0.2"/>
		<circle class="st92" cx="32.3" cy="29.8" r="0.2"/>
		<circle class="st92" cx="29.8" cy="26.7" r="0.2"/>
		<circle class="st92" cx="27.1" cy="29" r="0.2"/>
		<circle class="st92" cx="28.2" cy="25.4" r="0.2"/>
		<circle class="st92" cx="28.5" cy="30.2" r="0.2"/>
		<circle class="st92" cx="27.5" cy="27.1" r="0.2"/>
		<circle class="st92" cx="32.3" cy="26.7" r="0.2"/>
		<circle class="st92" cx="33.1" cy="28.7" r="0.2"/>
		<circle class="st92" cx="43.5" cy="27.3" r="0.2"/>
		<circle class="st92" cx="46.4" cy="28.8" r="0.2"/>
		<circle class="st92" cx="41.8" cy="29.2" r="0.2"/>
		<circle class="st92" cx="44.4" cy="28.8" r="0.2"/>
		<circle class="st92" cx="42.8" cy="30.5" r="0.2"/>
		<circle class="st92" cx="44.7" cy="30.2" r="0.2"/>
		<circle class="st92" cx="45.8" cy="27.1" r="0.2"/>
		<circle class="st92" cx="45.7" cy="24.7" r="0.2"/>
		<circle class="st92" cx="40.9" cy="26.7" r="0.2"/>
		<circle class="st92" cx="40.1" cy="28.7" r="0.2"/>
	</g>
	<g id="XMLID_508_">
		<g id="XMLID_328_">
			<path class="st81" d="M49.4,14.4c0.2,0,0.3-0.1,0.3-0.3c-0.1-2.4-0.9-4.8-2.1-6.8c-0.1-0.1-0.3-0.2-0.4-0.1
				C47,7.4,47,7.6,47.1,7.7c1.2,1.9,2,4.2,2,6.5C49.1,14.4,49.3,14.4,49.4,14.4z"/>
		</g>
		<g id="XMLID_330_">
			<path class="st81" d="M33.9,5.5c0.1,0,0.1,0.1,0.2,0c1.4-0.3,3.1-0.1,4.5,0c1.9,0.2,3.2,0.3,3.7-0.4c0.2-0.3,0.3-0.7,0.1-1
				c-0.7-1.4-5-2.5-6.4-2.6c-0.1,0-0.3,0.1-0.3,0.2c0,0.1,0.1,0.3,0.2,0.3c1.8,0.2,5.5,1.2,5.9,2.3c0.1,0.2,0,0.3-0.1,0.5
				C41.5,5.2,40,5.1,38.5,5c-1.5-0.1-3.1-0.3-4.7,0c-0.1,0-0.2,0.2-0.2,0.3C33.9,5.4,33.9,5.5,33.9,5.5z"/>
		</g>
	</g>
	<path class="st93" d="M24.2,29.3c-0.3-0.6-0.7-1.1-0.9-1.8c-0.3-0.9-0.3-1.7,0-2.6"/>
	<g>
		<path class="st94" d="M35.1,29.8c-0.1,0-0.2,0-0.2-0.1c-0.4-0.3-0.4-0.6-0.4-0.8c0-0.3,0.2-0.6,0.5-0.6c0.2-0.1,0.3,0,0.4,0.1v0.1
			h-0.1c-0.1-0.1-0.2-0.1-0.3-0.1c-0.2,0.1-0.4,0.3-0.4,0.5c0,0.2,0,0.4,0.3,0.6c0.1,0.1,0.3,0,0.4-0.1h0.1v0.1
			C35.4,29.7,35.2,29.8,35.1,29.8z"/>
	</g>
	<path class="st95" d="M35.4,29.7c0,0,0.1,0,0.2-0.1c0,0,0-0.1,0-0.2l-0.1-0.1l0,0h-0.1h-0.1c0,0,0,0,0,0.1c0,0-0.1,0-0.1,0.1
		L35.4,29.7C35.3,29.7,35.4,29.7,35.4,29.7z"/>
	<path class="st96" d="M38.1,7.6c0.6-0.1,1.1,0,1.6,0.2C40.3,8,41,8.2,41.5,8.5c0.5,0.4,0.9,1,0.9,1.6"/>
	
		<radialGradient id="SVGID_8_" cx="-1808.0449" cy="-177.1886" r="1.4595" gradientTransform="matrix(-1 0 0 -0.9673 -1771.969 -117.8712)" gradientUnits="userSpaceOnUse">
		<stop  offset="0.2553" style="stop-color:#C7C7C6"/>
		<stop  offset="0.4329" style="stop-color:#BDBDBD"/>
		<stop  offset="0.6922" style="stop-color:#B5B5B5"/>
		<stop  offset="0.9955" style="stop-color:#B2B2B2"/>
	</radialGradient>
	
		<polygon style="fill:url(#SVGID_8_);stroke:#C6C6C6;stroke-width:2.861399e-02;stroke-linejoin:round;stroke-miterlimit:10;" points="
		35.1,54.7 35.2,54.5 35.2,54.5 35.2,54.5 35.2,54.5 35.2,54.4 35.2,54.2 35.2,54 35.2,53.8 35.2,53.7 35.2,53.6 35.2,53.6 
		35.4,53.6 35.5,53.6 35.6,53.5 35.8,53.3 35.8,53.3 35.9,53.2 35.9,53.1 36,53 36,53 36.1,53 36.1,52.9 36.2,52.6 36.3,52.4 
		36.4,52.1 36.4,51.9 36.4,51.9 36.4,51.9 36.4,51.8 36.4,51.8 36.5,51.8 36.5,51.9 36.6,51.8 36.6,51.8 36.5,51.7 36.5,51.7 
		36.5,51.7 36.5,51.7 36.6,51.7 36.6,51.7 36.6,51.7 36.6,51.7 36.6,51.7 36.6,51.7 36.6,51.8 36.6,51.8 36.6,51.7 36.6,51.7 
		36.6,51.7 36.6,51.7 36.6,51.7 36.7,51.7 36.7,51.7 36.7,51.7 36.7,51.7 36.7,51.7 36.7,51.8 36.7,51.8 36.8,51.8 36.8,51.9 
		36.9,51.9 36.9,51.9 37,52 37.1,52.1 37,52.1 37,52.1 37,52.1 36.9,52.1 36.8,52.1 36.7,52.1 36.7,52.1 36.6,52.2 36.6,52.4 
		36.5,52.7 36.5,52.7 36.5,52.7 36.5,52.8 36.5,52.8 36.5,53 36.4,53.2 36.4,53.5 36.4,53.6 36.4,53.8 36.3,53.8 36.3,54 36.3,54.1 
		36.3,54.3 36.2,54.4 36.2,54.5 36.2,54.5 36.2,54.6 36.2,54.6 36.2,54.6 36.2,54.8 36.2,55.1 36.2,55.1 36.2,55.1 36.2,55.2 
		36.3,55.3 36.2,55.3 36.2,55.3 36.2,55.3 36.2,55.3 36.1,55.3 36.1,55.3 36,55.3 36,55.3 36,55.3 36,55.3 36,55.2 36,55.2 36,55.2 
		36,55.2 36,55.2 36,55.1 36,54.8 36,54.6 36,54.6 36,54.6 36,54.6 36,54.5 36,54.2 36,54.1 35.9,54.1 35.9,54.1 35.9,54.2 
		35.7,54.2 35.7,54.2 35.7,54.4 35.6,54.6 35.6,54.7 35.6,54.8 35.7,55.1 35.7,55.2 35.7,55.2 35.7,55.3 35.7,55.3 35.6,55.3 
		35.6,55.3 35.6,55.3 35.6,55.2 35.6,55.2 35.6,55.2 35.6,55.1 35.6,55 35.5,54.8 35.5,54.7 35.4,54.7 35.4,54.7 35.4,54.8 35.4,55 
		35.4,55.2 35.5,55.2 35.5,55.3 35.5,55.3 35.5,55.3 35.5,55.4 35.4,55.4 35.4,55.4 35.3,55.3 35.3,55.3 35.3,55.2 35.3,55.2 
		35.3,55 35.3,54.8 35.3,54.8 35.3,54.8 35.3,54.7 35.3,54.6 35.3,54.3 35.2,54.1 35.2,53.9 35.2,54 35.2,54.1 35.2,54.3 35.2,54.4 
		35.2,54.5 35.2,54.5 35.2,54.6 35.2,54.7 35.2,54.8 35.2,54.9 35.2,55 35.1,54.9 35.1,54.8 	"/>
	<path class="st93" d="M31.1,9.3c-0.7,0.4-1,1-1.2,1.7c-0.2,0.7-0.4,1.4-0.6,2.1c-0.4,1-1,1.9-1.6,3c-0.9,1.5-1.2,3.3-1.1,5.1"/>
	<path class="st93" d="M22.8,16.9c0.3-1.5,0.6-3.2,1.5-4.5c0.4-0.6,1-1,1.3-1.7c0.5-0.7,0.8-1.4,1.3-1.9"/>
</g>
</svg>
