<?xml version="1.0" encoding="utf-8"?>
<!-- Generator: Adobe Illustrator 26.0.3, SVG Export Plug-In . SVG Version: 6.00 Build 0)  -->
<svg version="1.1" id="Layer_1" xmlns="http://www.w3.org/2000/svg" xmlns:xlink="http://www.w3.org/1999/xlink" x="0px" y="0px"
	 viewBox="0 0 209 226.4" style="enable-background:new 0 0 209 226.4;" xml:space="preserve">
<style type="text/css">
	.st0{opacity:0.5;}
	.st1{fill:#FFFFFF;}
</style>
<g id="Group_842_00000016033639750691188520000012421007929269151898_" transform="translate(242 630)" class="st0">
	<g>
		<g id="Group_826_00000165930059412832869430000011812434183027208078_">
			<path id="Path_1305_00000171686561537007405590000017924038499198741418_" class="st1" d="M-153.9-619
				c14.5,14.7,14.5,38.4,0,53.1c-14.3,14.5-37.7,14.7-52.2,0.3c-0.1-0.1-0.2-0.2-0.4-0.3c-14.5-14.7-14.5-38.4,0-53.1
				c14.3-14.5,37.7-14.7,52.2-0.3C-154.1-619.2-154-619.1-153.9-619 M-191.1-603.1c-4.6,4.7-5.1,12,2.3,19.4
				c7.3,7.4,14.7,6.7,19.2,2.1s5.3-12.2-2-19.5C-178.9-608.6-186.5-607.7-191.1-603.1"/>
			<path id="Path_1309_00000165949121562224575410000017335850789931021983_" class="st1" d="M-145-452.4
				c-14.5-14.7-14.5-38.4,0-53.1c14.3-14.5,37.7-14.7,52.2-0.4c0.1,0.1,0.2,0.2,0.3,0.4c14.5,14.7,14.5,38.4,0,53.1
				c-14.3,14.5-37.7,14.7-52.3,0.4C-144.8-452.1-144.9-452.3-145-452.4 M-108-489.7c-4.6-4.6-12-5.3-19.3,2
				c-7.4,7.5-6.6,15.1-2,19.7c4.7,4.7,11.9,5.2,19.2-2.3C-102.8-477.6-103.4-485.1-108-489.7"/>
			<path id="Path_1310_00000090296673827019219620000018428620591871955842_" class="st1" d="M-215.4-505.5
				c14.5,14.7,14.5,38.4,0,53.1c-7,7.1-16.6,11.1-26.6,11v-23.7c4,1.1,8.3-0.1,11.2-3.1c4.6-4.7,5.1-12-2.3-19.4
				c-2.4-2.6-5.5-4.5-8.9-5.3v-23.5C-232-516.6-222.4-512.6-215.4-505.5"/>
		</g>
	</g>
</g>
</svg>
