<svg id="Layer_1" data-name="Layer 1" xmlns="http://www.w3.org/2000/svg" xmlns:xlink="http://www.w3.org/1999/xlink" viewBox="0 0 180 180"><defs><style>.cls-1{fill:#343633;}.cls-2{fill:#3c5b65;}.cls-3{fill:#4c4c4d;}.cls-17,.cls-20,.cls-3,.cls-39,.cls-5{isolation:isolate;}.cls-17,.cls-3{opacity:0.15;}.cls-4{fill:#fafafa;}.cls-5{fill:#323031;opacity:0.2;}.cls-6{fill:#fe3845;}.cls-7{fill:#a1886c;}.cls-8{fill:url(#linear-gradient);}.cls-9{fill:url(#linear-gradient-2);}.cls-10{fill:#85715c;}.cls-11{fill:url(#linear-gradient-3);}.cls-12{fill:url(#linear-gradient-4);}.cls-13{fill:#af996d;}.cls-14{fill:#f5b09b;}.cls-15{fill:#db9b88;}.cls-16{fill:url(#linear-gradient-5);}.cls-17,.cls-27,.cls-28,.cls-29,.cls-30,.cls-31,.cls-32,.cls-35,.cls-36,.cls-42{fill:none;stroke-linecap:round;}.cls-17{stroke:#7b473b;stroke-width:0.34px;}.cls-17,.cls-27,.cls-28,.cls-30,.cls-31,.cls-35,.cls-36,.cls-42{stroke-miterlimit:10;}.cls-18{fill:#eca787;}.cls-19{fill:url(#linear-gradient-6);}.cls-20{fill:#7b473b;opacity:0.45;}.cls-21{fill:url(#linear-gradient-7);}.cls-22{fill:url(#linear-gradient-8);}.cls-23{fill:url(#linear-gradient-9);}.cls-24{fill:url(#linear-gradient-10);}.cls-25{fill:#b7a278;}.cls-26{fill:#e1e1e1;}.cls-27,.cls-30{stroke:#a9a9a9;}.cls-27{stroke-width:0.63px;}.cls-28,.cls-29,.cls-31,.cls-32{stroke:#fff;}.cls-28,.cls-29{stroke-width:0.84px;}.cls-29,.cls-32{stroke-linejoin:round;}.cls-30{stroke-width:0.6px;}.cls-31,.cls-32{stroke-width:0.8px;}.cls-33{fill:#6092a1;}.cls-34{fill:#ffc050;}.cls-35{stroke:#ffb24d;}.cls-35,.cls-42{stroke-width:0.71px;}.cls-36{stroke:#a8766d;stroke-width:0.21px;}.cls-37{fill:url(#linear-gradient-11);}.cls-38{fill:url(#linear-gradient-12);}.cls-39{fill:#7599b2;opacity:0.28;}.cls-40{fill:url(#linear-gradient-13);}.cls-41{fill:url(#linear-gradient-14);}.cls-42{stroke:#587385;}.cls-43{fill:url(#linear-gradient-15);}.cls-44{fill:#fff;}.cls-45{fill:url(#linear-gradient-16);}.cls-46{fill:url(#linear-gradient-17);}.cls-47{fill:url(#linear-gradient-18);}.cls-48{fill:#016fb9;}.cls-49{fill:#00af9e;}</style><linearGradient id="linear-gradient" x1="1050.82" y1="-367.84" x2="1053.38" y2="-367.84" gradientTransform="matrix(1, 0, 0, -1, -949.37, -296.33)" gradientUnits="userSpaceOnUse"><stop offset="0.16" stop-color="#ddcaa4"/><stop offset="0.48" stop-color="#c5b188"/><stop offset="0.79" stop-color="#b59f74"/><stop offset="1" stop-color="#af996d"/></linearGradient><linearGradient id="linear-gradient-2" x1="1049.64" y1="-370.76" x2="1053.59" y2="-370.76" xlink:href="#linear-gradient"/><linearGradient id="linear-gradient-3" x1="1070.36" y1="-361.58" x2="1066.18" y2="-377.44" gradientTransform="matrix(1, 0, 0, -1, -949.37, -296.33)" gradientUnits="userSpaceOnUse"><stop offset="0" stop-color="#af996d"/><stop offset="0.21" stop-color="#b59f74"/><stop offset="0.52" stop-color="#c5b188"/><stop offset="0.84" stop-color="#ddcaa4"/></linearGradient><linearGradient id="linear-gradient-4" x1="1052.74" y1="-379.89" x2="1054.43" y2="-376.6" gradientTransform="matrix(1, 0, 0, -1, -949.37, -296.33)" gradientUnits="userSpaceOnUse"><stop offset="0.29" stop-color="#af996d"/><stop offset="0.5" stop-color="#ac966c"/><stop offset="0.65" stop-color="#a28d68"/><stop offset="0.8" stop-color="#927d61"/><stop offset="0.87" stop-color="#85715c"/></linearGradient><linearGradient id="linear-gradient-5" x1="1054.56" y1="-365.75" x2="1067.21" y2="-365.75" xlink:href="#linear-gradient"/><linearGradient id="linear-gradient-6" x1="1051.37" y1="-381.44" x2="1059.55" y2="-387.7" gradientTransform="matrix(1, 0, 0, -1, -949.37, -296.33)" gradientUnits="userSpaceOnUse"><stop offset="0" stop-color="#85715c"/><stop offset="0.06" stop-color="#927d61"/><stop offset="0.17" stop-color="#a28d68"/><stop offset="0.29" stop-color="#ac966c"/><stop offset="0.45" stop-color="#af996d"/><stop offset="1" stop-color="#ddcaa4"/></linearGradient><linearGradient id="linear-gradient-7" x1="1068.75" y1="-378.78" x2="1068.79" y2="-385.65" gradientTransform="matrix(1, 0, 0, -1, -949.37, -296.33)" gradientUnits="userSpaceOnUse"><stop offset="0" stop-color="#af996d"/><stop offset="0.21" stop-color="#b59f74"/><stop offset="0.52" stop-color="#c5b188"/><stop offset="0.85" stop-color="#ddcaa4"/></linearGradient><linearGradient id="linear-gradient-8" x1="1067" y1="-384.6" x2="1067.42" y2="-371.9" xlink:href="#linear-gradient-4"/><linearGradient id="linear-gradient-9" x1="1052.85" y1="-381.05" x2="1056.99" y2="-386.01" xlink:href="#linear-gradient-7"/><linearGradient id="linear-gradient-10" x1="1057.18" y1="-360.21" x2="1061.55" y2="-382.76" gradientTransform="matrix(1, 0, 0, -1, -949.37, -296.33)" gradientUnits="userSpaceOnUse"><stop offset="0.11" stop-color="#af996d"/><stop offset="0.53" stop-color="#ccb890"/><stop offset="0.84" stop-color="#ddcaa4"/></linearGradient><linearGradient id="linear-gradient-11" x1="1045.12" y1="-418.15" x2="1088.22" y2="-418.15" gradientTransform="matrix(1, 0, 0, -1, -949.37, -296.33)" gradientUnits="userSpaceOnUse"><stop offset="0" stop-color="#47acd6"/><stop offset="1" stop-color="#9dcdd6"/></linearGradient><linearGradient id="linear-gradient-12" x1="94.74" y1="49.78" x2="101.03" y2="49.78" gradientTransform="matrix(1, 0, 0, -1, 0, 179.2)" xlink:href="#linear-gradient-11"/><linearGradient id="linear-gradient-13" x1="1078.19" y1="-430.5" x2="1040.2" y2="-409.22" xlink:href="#linear-gradient-11"/><linearGradient id="linear-gradient-14" x1="125.63" y1="50.66" x2="130.78" y2="50.66" gradientTransform="matrix(1, 0, 0, -1, 0, 179.2)" xlink:href="#linear-gradient-11"/><linearGradient id="linear-gradient-15" x1="1042.17" y1="-379.41" x2="1076.19" y2="-408.6" gradientTransform="matrix(1, 0, 0, -1, -949.37, -296.33)" gradientUnits="userSpaceOnUse"><stop offset="0.04" stop-color="#d8d9d9"/><stop offset="0.32" stop-color="#d5d7d7"/><stop offset="0.51" stop-color="#cccfd0"/><stop offset="0.67" stop-color="#bdc1c5"/><stop offset="0.81" stop-color="#a8aeb5"/><stop offset="0.94" stop-color="#8d96a1"/><stop offset="1" stop-color="#7e8996"/></linearGradient><linearGradient id="linear-gradient-16" x1="1067.61" y1="-368.63" x2="1071.13" y2="-389.8" gradientTransform="matrix(1, 0, 0, -1, -949.37, -296.33)" gradientUnits="userSpaceOnUse"><stop offset="0.03" stop-color="#8f7f5a"/><stop offset="0.12" stop-color="#af996d"/><stop offset="0.79" stop-color="#ddcaa4"/></linearGradient><linearGradient id="linear-gradient-17" x1="1063.44" y1="-360.22" x2="1073.3" y2="-380.4" xlink:href="#linear-gradient-3"/><linearGradient id="linear-gradient-18" x1="1002.82" y1="-419.76" x2="1005.31" y2="-432.6" gradientTransform="matrix(0.99, -0.12, -0.12, -0.99, -930.36, -227.21)" xlink:href="#linear-gradient-3"/></defs><path class="cls-1" d="M143.7,52.12v68.21H32.45V52.12a3.32,3.32,0,0,1,3.32-3.32H140.38a3.32,3.32,0,0,1,3.32,3.32Z"/><rect class="cls-2" x="36.29" y="52.63" width="103.58" height="63.87"/><path class="cls-1" d="M28.38,116.5H147.77v3.18a3.67,3.67,0,0,1-3.67,3.67h-112a3.67,3.67,0,0,1-3.67-3.67V116.5Z"/><path class="cls-3" d="M146,135.13c3.41-3.71-14.62-11.11-32.67-11.11S79.65,133.19,83,138.15s12.28-.63,30.3-3S140,141.67,146,135.13Z"/><path class="cls-4" d="M118.24,49.52l-6.18,2V39h3.43c2.82,0,5.1,2.86,5.1,6.38Z"/><path class="cls-1" d="M116.33,39h0a4.27,4.27,0,0,1,4.27,4.27v8.35h-8.54V43.22A4.27,4.27,0,0,1,116.33,39Z"/><path class="cls-4" d="M56.2,39h55.86V116.5h-61V44.14A5.19,5.19,0,0,1,56.2,39Z"/><rect class="cls-5" x="76.64" y="48.62" width="29.36" height="4.01"/><rect class="cls-5" x="76.64" y="54.55" width="25.69" height="4.01"/><path class="cls-6" d="M70.91,53.29a5.18,5.18,0,0,0-1.65-1.74,4.48,4.48,0,0,0-.47-.28l-.35-.17a5.89,5.89,0,0,0-1-.34A6.27,6.27,0,0,0,66,50.57h-.41a10,10,0,0,0-1.1.12,6.2,6.2,0,0,0-1.68.58,5.21,5.21,0,0,0-2.11,2,4.5,4.5,0,0,0-.45,1,3.47,3.47,0,0,0-.16.55.57.57,0,0,1-.07.33,6.42,6.42,0,0,0-.09.87v.67a5.75,5.75,0,0,0,.19,1.3,5.34,5.34,0,0,0,.57,1.43,5.25,5.25,0,0,0,2.1,2,6.53,6.53,0,0,0,2.94.7h.25a6.49,6.49,0,0,0,2-.32,6,6,0,0,0,.91-.38,5.41,5.41,0,0,0,.76-.48l.08-.06c.13-.1.25-.21.37-.32l.15-.15c.13-.14.25-.28.37-.43s.27-.38.4-.58a6.17,6.17,0,0,0,.59-1.49h0v-.24a4,4,0,0,1,.07-.46v-.85A6,6,0,0,0,70.91,53.29Zm-6.52,4.83a2.68,2.68,0,0,1-.52-1.77,2.6,2.6,0,0,1,.54-1.76,1.78,1.78,0,0,1,1.33-.6h.18a1.75,1.75,0,0,1,1.2.59,3,3,0,0,1,0,3.52,1.76,1.76,0,0,1-1.22.61h-.16a1.7,1.7,0,0,1-1.35-.59Z"/><rect class="cls-5" x="56.47" y="66.38" width="24.05" height="2.57"/><rect class="cls-5" x="83.15" y="66.38" width="24.08" height="2.57"/><rect class="cls-5" x="56.47" y="71.77" width="24.05" height="2.57"/><rect class="cls-5" x="83.15" y="71.77" width="24.08" height="2.57"/><rect class="cls-5" x="56.47" y="77.16" width="24.05" height="2.57"/><rect class="cls-5" x="83.15" y="77.16" width="24.08" height="2.57"/><rect class="cls-5" x="56.47" y="82.55" width="24.05" height="2.57"/><rect class="cls-5" x="83.15" y="82.55" width="24.08" height="2.57"/><rect class="cls-5" x="56.47" y="87.94" width="24.05" height="2.57"/><rect class="cls-5" x="83.15" y="87.94" width="24.08" height="2.57"/><rect class="cls-5" x="56.47" y="93.33" width="24.05" height="2.57"/><rect class="cls-5" x="83.15" y="93.33" width="24.08" height="2.57"/><rect class="cls-5" x="56.47" y="98.72" width="24.05" height="2.57"/><rect class="cls-5" x="83.15" y="98.72" width="24.08" height="2.57"/><rect class="cls-5" x="83.15" y="104.11" width="24.08" height="2.57"/><rect class="cls-5" x="56.47" y="109.5" width="24.05" height="2.57"/><rect class="cls-5" x="83.15" y="109.5" width="24.08" height="2.57"/><path class="cls-7" d="M120.38,83a5.08,5.08,0,0,0,.39,1.07,2.71,2.71,0,0,1,.21.37,1.43,1.43,0,0,1,.09.5v.69a.48.48,0,0,1-.55.61,4.19,4.19,0,0,1-1-.09,1.14,1.14,0,0,1-.44-.18,1.25,1.25,0,0,1-.28-.37l-.48-.83c0-.1-.1-.19-.14-.29a1,1,0,0,1,0-.35,1.86,1.86,0,0,1,.75-1.93c.26-.17.54-.51.84-.32A2.42,2.42,0,0,1,120.38,83Z"/><path class="cls-8" d="M103.4,70.23a2,2,0,0,1-.84,1.59c-.49.25-1-.33-1-.82a1.51,1.51,0,0,0,.21,1.35c1,1.09,2.28-.2,2.28-.2Z"/><path class="cls-9" d="M100.85,72.66a1.82,1.82,0,0,0,.73,2.47,2.11,2.11,0,0,0,.44.17,1.66,1.66,0,0,1-1.75-.83s0,1.62,1.47,1.72,2.48-2.75,2.48-2.75l-1,.06a1.76,1.76,0,0,1-1.54.86C100.48,74.18,100.85,72.66,100.85,72.66Z"/><path class="cls-10" d="M108.45,75.83c1.8,2.83,3.72,10.69-1.68,12.91l-4-7.57L105,75.26Z"/><path class="cls-11" d="M118.31,73.09s-4.27,6.11-2,9.27a2.9,2.9,0,0,0,2,4.48c3.13.62,3.85-2.94,2.71-4.29,0,0,.4,1.75-.65,2.28s-1.86-.57-1.17-1.7-1.06-2.41-.2-4.84A48.55,48.55,0,0,1,121.42,73s1.1-4.43-1.7-6.14c0,0-1.17-3.51-4-3C115.77,63.86,118.67,69.42,118.31,73.09Z"/><path class="cls-10" d="M119,76.42a2.48,2.48,0,0,0-1.58-1.5,2.25,2.25,0,0,0-.84-.24,1.49,1.49,0,0,0-1.17.66,2.89,2.89,0,0,0-.45,1.31,10.3,10.3,0,0,0,0,2.22c.1,1.24.24,2.47.41,3.7a1.25,1.25,0,0,0,.33.84,1.23,1.23,0,0,0,.79.22,2.3,2.3,0,0,0,1.78-.39,3.08,3.08,0,0,0,.57-1.63c.2-1,.71-1.91.82-2.92a6.92,6.92,0,0,0-.07-1.64,2.46,2.46,0,0,0-.25-1,1.25,1.25,0,0,0-1.52-.5"/><path class="cls-12" d="M103.37,76.94c-2.12,2-3.7,3.44-2.32,6.45,1.61,3.52,3.56,2.24,3.28,3.52,0,0,3.91-1.54,2.25-2.43s-1.52-2.59-.54-3.9,1.69-4.86,1.69-4.86c-1.4-3-1-3.65-1-3.65Z"/><path class="cls-13" d="M107.7,73.36a.62.62,0,0,0,0,.38,2.11,2.11,0,0,1-.12,1.77,1.34,1.34,0,0,0-.27.44c-.12.46.23,1,.2,1.5a2.65,2.65,0,0,1-.4.93,2.24,2.24,0,0,0,.08,1.76c.22.41.58.72.64,1.23a1.48,1.48,0,0,1-.24.89,2.91,2.91,0,0,0-.41.73,1.08,1.08,0,0,0,.08.94c.11.15.27.2.37.37a.89.89,0,0,1-.11.86.82.82,0,0,0-.12.2.57.57,0,0,0,0,.48c.07.14.2.21.3.17a.7.7,0,0,1-.55-.2.67.67,0,0,1-.08-.75l.15-.11a.55.55,0,0,0,0-.58,1,1,0,0,0-.4-.31,1.15,1.15,0,0,1-.59-.83,1.07,1.07,0,0,1,.31-.93,1.09,1.09,0,0,0,.35-.39,1.29,1.29,0,0,0-.13-1,8,8,0,0,0-.89-1.13,1.78,1.78,0,0,1-.36-1.52c.15-.39.52-.52.59-1a1.42,1.42,0,0,0-.2-.88c-.14-.25-.31-.46-.44-.73a1.73,1.73,0,0,1,.19-1.83,1,1,0,0,0,.29-.24c.17-.29,0-.78,0-1.2a1.74,1.74,0,0,1,.6-1.35.62.62,0,0,1,.71,0c.07.3.53,1.47.54,1.76Z"/><path class="cls-14" d="M118.14,86.89s-2.91,6.14-6,6.26c-5,.19-11.07-5.71-9.7-6.71.65-.47,5.48-1.63,5.65-2.63a8.52,8.52,0,0,0,.12-1,20.26,20.26,0,0,0-.33-4.4s.63-.33,1.54-.71c2.51-1.08,7.19-2.62,6.86.86A14.78,14.78,0,0,0,118.14,86.89Z"/><path class="cls-15" d="M116.26,79.13s-2.28,8.06-8,3.63a29.12,29.12,0,0,0-.49-5.44s-.23.22.69-.17l8.11.17Z"/><path class="cls-16" d="M105.21,70.92s-.71-9.2,7-7.65c5.7-2.66,6.22,3.81,5.15,10.52S105.21,70.92,105.21,70.92Z"/><path class="cls-14" d="M112.64,81.3c-3.25,0-6.3-4.54-6.23-8.7s.84-7.62,4.72-7.62a4.09,4.09,0,0,1,.7,0c1.59.18,3.54-.21,4.48.89h0a8.06,8.06,0,0,1,1.79,4.52C118.42,75.17,115.45,81.3,112.64,81.3Z"/><path class="cls-17" d="M106,86.59a26.06,26.06,0,0,0,3.14,1,4.07,4.07,0,0,1,2,.82"/><path class="cls-17" d="M118.85,86.59a26.64,26.64,0,0,1-3.14,1,4.07,4.07,0,0,0-2,.82"/><path class="cls-18" d="M106.52,75.14c-2.2-.79-2-4.61-1.14-4.61a1.56,1.56,0,0,1,1.11.59Z"/><path class="cls-19" d="M103.09,85c-.78,1.82.89,2.72,2.36,3.82a3.89,3.89,0,0,0,3.59.62s-2.27.8-4.28-2.72c0,0-.08.3-.12.28C103.74,86.58,103.09,85,103.09,85Z"/><path class="cls-20" d="M106,72.85a.78.78,0,0,0-.54-.38,2.32,2.32,0,0,1,.22-.82.09.09,0,0,0,0-.12.09.09,0,0,0-.13,0h0a2.13,2.13,0,0,0,.07,2.1.11.11,0,0,0,.08,0h0a.09.09,0,0,0,0-.13h0a1.46,1.46,0,0,1-.28-.9.65.65,0,0,1,.39.28.08.08,0,0,0,.08.05h0A.11.11,0,0,0,106,72.85Z"/><path class="cls-18" d="M106.84,71a2.16,2.16,0,0,0-1.19-.56c-.4-.06-.69.37-.78.86l1.92.28Z"/><path class="cls-21" d="M118.39,80a1.81,1.81,0,0,1,.2,2.12c-.32.53-.94,1-.94,1.57a1.44,1.44,0,0,0,.62,1,4.57,4.57,0,0,1,.93.83.92.92,0,0,1,0,1.15c-.18.2-.48.27-.62.49a.86.86,0,0,0,.37,1,1.13,1.13,0,0,1,.27.22.51.51,0,0,1-.07.72.52.52,0,0,1-.4.11,1.63,1.63,0,0,0,1-.31c.27-.24.31-.75,0-.91a.7.7,0,0,1-.3-.12.49.49,0,0,1,0-.69l0,0a1.66,1.66,0,0,1,.68-.42,1.43,1.43,0,0,0,1-1.08,1.23,1.23,0,0,0-.77-1.08,2.21,2.21,0,0,1-.74-.43,1.07,1.07,0,0,1,0-1.23c.35-.6.7-2.48,1.17-3"/><path class="cls-22" d="M116.72,77.28c1.67,2.15-2.25,4.63-.36,6.53,1,.79,1.77,1.81.58,2.36a.83.83,0,0,0-.45.88c.15.81.88,2-.07,2.22,2-.48.77-1.48,1-2.29a.41.41,0,0,1,.19-.24c.64-.39,1.48-.46,1.66-1.35-2.12-3.62-1.74-2.22.65-6.37,0,0-1.91-6.72-2.16-5.31A24.71,24.71,0,0,1,116.72,77.28Z"/><path class="cls-23" d="M102,84c-.09,0-.3.6-.26.68,1.69,3.24,6.46,1.89,5.94,4.57-.31,1.56-3,1.15-2.67-.28,0,0-.7,1.19.91,1.84,2.17.9,3.19-1.82,2.26-3.62a28.71,28.71,0,0,0-2.55-3.45A26,26,0,0,1,102,84Z"/><path class="cls-24" d="M116.26,65.32a3.57,3.57,0,0,0-.61-2c-.89-1.21-2.08-1.08-3.57-1.15h-1.9a6.63,6.63,0,0,0-2.42.34,5.2,5.2,0,0,0-1.48.93c-2.27,1.93-3.24,3.63-3,6.6a3.1,3.1,0,0,1,0,.86c-.1.45-2.28,5.35-2.28,6.73,0,2.86,3.12,1.81,2.54,3.37-.23.63-1.45,1.41-1.41,2.09s.72,1.24,1.38,1.54a2.62,2.62,0,0,1,1,.6.7.7,0,0,1,0,1h0c-.14.08-.3.1-.44.17a.83.83,0,0,0,0,1.31,2.64,2.64,0,0,0,1.27.49,1.55,1.55,0,0,1-.6-.4.72.72,0,0,1,.08-.83,1.72,1.72,0,0,1,.4-.31c.48-.34.85-1,.53-1.48-.21-.32-.63-.43-.89-.7a1.35,1.35,0,0,1,0-1.66,7.13,7.13,0,0,1,1.34-1.18,2.1,2.1,0,0,0,.89-1.5c0-.89-1.36-1.36-1.35-2.25,0-2.4,1.53-2.21,1.25-4.59-.19-1.62-.74-1.85-.6-3.19a5.54,5.54,0,0,1,1.06-2.31,3.35,3.35,0,0,1,1.87-1.54,8.88,8.88,0,0,1,2.87-.61c3.89-.39,5.78,3.21,6.09,3A21.72,21.72,0,0,1,116.26,65.32Z"/><path class="cls-7" d="M115.29,65.6a2.73,2.73,0,0,0-1.13-1,2.85,2.85,0,0,0-2.27-.08c-.48.19-.9.51-1.38.68-1.21.42-1.83.14-3.11.23-2,.14-1.38,5.39-.62,6.73v-.31a3.22,3.22,0,0,1,.2-.69,4.13,4.13,0,0,0,.14-1.88,2.78,2.78,0,0,1,.39-1.57,2.53,2.53,0,0,1,1-1h0a2.78,2.78,0,0,1,.81-.4,8.88,8.88,0,0,1,2.87-.61c1.88-.19,3.77.8,4,1.26A8.9,8.9,0,0,0,115.29,65.6Z"/><path class="cls-25" d="M121.53,72.62a5.78,5.78,0,0,0,.16-1.66c0-1.39-.11.43-1.65-.51a7.87,7.87,0,0,1,1,1A3.27,3.27,0,0,1,121.53,72.62Z"/><path class="cls-26" d="M97,126.09s-1.52,2.29-6,3.14c-2.09.39-3.19.75-3.58,2.36a5,5,0,0,0,.82,4.14,3.52,3.52,0,0,0,3.53,1.71c3.71-1.18,2.89-5.21,6.66-4.57C100.67,133.26,97,126.09,97,126.09Z"/><path class="cls-27" d="M88.39,130.51s-1.06,2.62,0,4.38A4.3,4.3,0,0,0,91.84,137"/><path class="cls-27" d="M90.53,130.9a2,2,0,0,0,1.32.85c.85.08,3.69-2.54,5.32-2.56"/><path class="cls-27" d="M97.31,130.49c-.09,0-3.82,1.61-4.36,2.4a2,2,0,0,0-.26,1.66"/><path class="cls-28" d="M91.86,130.9a4.21,4.21,0,0,1,1.56,2.64"/><path class="cls-28" d="M92.87,130.34A4.26,4.26,0,0,1,94.43,133"/><path class="cls-28" d="M93.88,129.63a4.26,4.26,0,0,1,1.56,2.65"/><path class="cls-27" d="M90.18,131.53a3.43,3.43,0,0,1,2,3.25"/><path class="cls-29" d="M96,130.24s-1.49,3-1,3.5S96.09,130.47,96,130.24Z"/><path class="cls-29" d="M96,130.24s-.09,3.34.55,3.61S96.2,130.42,96,130.24Z"/><path class="cls-26" d="M125.57,130a15.48,15.48,0,0,1,4.12,1.09c1.55.77,7.08,4,9.49,3.14s3.25-3.51,1.76-5c-2.71-2.72-8.19-2.1-10.13-2.51a37.38,37.38,0,0,0-4.33-.77Z"/><path class="cls-30" d="M137.85,134s2.49-.44,2.89-2.33-.46-2.72-.76-2.91"/><path class="cls-30" d="M137,132.63a3.22,3.22,0,0,1,.94-3.47"/><path class="cls-30" d="M130.75,128s4.64,1.71,5.26,1.39l1.59-.86"/><path class="cls-30" d="M130.13,129.83s4.94,1,5.42,1.48a3.16,3.16,0,0,1,.71,1.18"/><path class="cls-31" d="M134.39,131.49a4,4,0,0,1,.71-2.83"/><path class="cls-31" d="M133.33,131.18a4,4,0,0,1,.72-2.82"/><path class="cls-31" d="M132.18,131a4,4,0,0,1,.71-2.83"/><path class="cls-32" d="M131,128.72s-1.21,2.93-.74,3.38S131.06,128.93,131,128.72Z"/><path class="cls-32" d="M131,128.72s.14,3.16.76,3.38S131.16,128.88,131,128.72Z"/><path class="cls-33" d="M98.58,115.13s16.27-7.34,26.54,1S103.22,119.74,98.58,115.13Z"/><path class="cls-34" d="M129.34,95.42l-.76-3.08a22.5,22.5,0,0,0-2.23-4.89c-1-1.36-5.29-2.1-8.58-3.56a87.69,87.69,0,0,0-5.6,9.24,105.13,105.13,0,0,0-5.56-9c-2.51,1.1-7.2,3.18-8.55,4-1.86,1.16-4.28,9.13-4.28,9.13s-3.55,10.22,0,12.1c1.37.72,5.43-3.41,7.78-5.25,1.11,3.39.47,6.27.08,6.63a2,2,0,0,0-.56,1.31.79.79,0,0,0-.76.83v0c0,.85-1.06,1-.43,1.77.23.28,1.67,0,4.78-.46,5.16,2.49,10.13.87,14-.81a11.27,11.27,0,0,1,2.8.7c2.25-.94,1.44-2.07,1.44-2.07s.18.08,0-.94a21.75,21.75,0,0,1-.3-6.54c1.76,1.08,6.53,3.31,8.28,2.37C133,105.8,129.34,95.42,129.34,95.42Zm-28.43,1.81h17.78l-1.39,2.18,3.08,3.06-17.75-.28Z"/><path class="cls-35" d="M106.86,84.68s3.54,5.6,5.08,8.47"/><path class="cls-35" d="M117.43,83.89s-5.72,9-5.79,10-.25,3.27.16,4.17"/><path class="cls-35" d="M117.6,84.74s.92.11,1.13.41"/><path class="cls-35" d="M117,85.42s.92.12,1.13.42"/><path class="cls-35" d="M116.71,86.29s.92.12,1.13.41"/><path class="cls-35" d="M115.89,87.27s.92.11,1.13.41"/><path class="cls-35" d="M115.16,88.52s.92.12,1.13.41"/><path class="cls-35" d="M114.6,89.47s.92.12,1.12.41"/><path class="cls-35" d="M114,90.42s.91.11,1.12.41"/><path class="cls-35" d="M113.47,91.57s.92.12,1.13.42"/><path class="cls-35" d="M112.91,92.56s.92.12,1.13.41"/><path class="cls-35" d="M111.22,108.11s.86-.33,1.19-.16"/><path class="cls-35" d="M111.09,106.76s.87-.33,1.19-.16"/><path class="cls-35" d="M110.63,109.73a2.76,2.76,0,0,1,1.18.22"/><path class="cls-35" d="M110.2,111.15s.91-.18,1.2,0"/><path class="cls-35" d="M110.3,112.42s.87-.33,1.19-.16"/><path class="cls-35" d="M110.45,113.71s.87-.33,1.19-.16"/><path class="cls-35" d="M112.35,93.73s.92.11,1.12.41"/><path class="cls-35" d="M112.12,94.89s.91.12,1.12.42"/><path class="cls-35" d="M112.12,96.06s.91.12,1.12.41"/><path class="cls-35" d="M125.73,87.47s-2.28,4.3-2.4,6.67-.59-2.36-.59-2.36"/><path class="cls-35" d="M97.79,88.52s3.79,6,3.76,8-1.1-1.58-1.1-1.58.4,2,0,1.91-.53-1-.53-1"/><path class="cls-14" d="M125.52,98.6v-.18h0v-.08a2.1,2.1,0,0,0-.13-.26l-.08-.13a2,2,0,0,0-1.1-.9,7.93,7.93,0,0,1-1.55-.68c-.71-.33-1.3-1-1.46-.92s.1.61.27,1a2.27,2.27,0,0,0,.44.49A19.67,19.67,0,0,0,125.52,98.6Z"/><path class="cls-14" d="M108,102.42c-.06.1-2,1.78-3.11,1.55s-1.85-.47-1.89-1.18.47-4.15-.2-5a18.51,18.51,0,0,1-2.13-4c-.37-1.08-.41-1.76-.2-2.08s1-.51,1-.51a2,2,0,0,1,1.44-.54s.69-.77,1.43-.59c0,0-.28-1.74-.32-1.88-.41-1.49-1.12-3-.86-3.27s.8.53,1,.88a12.22,12.22,0,0,1,.88,2.34,35.75,35.75,0,0,0,1.86,5c.24.17.8-.36,1.33-1,.35-.42,2.11-1.83,2.31-1.51s-.33.46-.75,1.27-.92,1.93-1.22,2.47a10.84,10.84,0,0,1-1.27,1.75C106.06,97.58,108.64,101.48,108,102.42Z"/><path class="cls-36" d="M101.22,93.72s.5,1.84.88,1.76-.36-3.43-.36-3.43"/><path class="cls-36" d="M101.92,92.89s1.1,2.84,1.51,2.81-.4-3.54-.53-4.19"/><path class="cls-36" d="M103.07,92.34s1,2.57,1.37,2.53-.25-3.26-.38-3.91"/><path class="cls-33" d="M94.12,122.31c-3.88-1-8-4.47-7.45-7.17.71-3.82,4.79-4.33,7.08-4.3a7.11,7.11,0,0,1,2.61.53L122,121.83l1.44,3.61S97.22,123.13,94.12,122.31Z"/><path class="cls-33" d="M131,121c3.91-.91,8.08-4.24,7.65-7-.61-3.93-4.84-4.49-7.11-4.5a6.87,6.87,0,0,0-2.42.44l-26,9.74-1.55,3.57S127.86,121.75,131,121Z"/><path class="cls-37" d="M133.22,121.42,100.7,132.3l-2.24.75L95.75,127l2.09-1.06c6.77-3.44,27.72-14,30.34-14.8,3.92-1.16,9.31-.36,10.32,2.21C140.51,118.42,133.22,121.42,133.22,121.42Z"/><polygon class="cls-38" points="101.03 133.04 98.34 134.05 94.74 126.25 97.34 124.78 97.85 125.92 100.71 132.31 101.03 133.04"/><path class="cls-39" d="M133.22,121.42,100.7,132.3l.33.74-2.69,1-3.61-7.8,2.61-1.47.5,1.14c6.77-3.44,27.72-14,30.34-14.8,3.92-1.16,9.31-.36,10.32,2.21C140.51,118.42,133.22,121.42,133.22,121.42Z"/><path class="cls-40" d="M93.17,123.42c-3.76-1.61-7.4-5.67-6.53-8.3,1.71-5.21,9.23-2.86,9.23-2.86L130,125.54,128.22,132S96.16,124.74,93.17,123.42Z"/><polygon class="cls-41" points="125.63 132.63 128.07 123.91 130.78 124.86 128.57 133.17 125.63 132.63"/><path class="cls-35" d="M99,99.33A8.86,8.86,0,0,0,95.27,102"/><path class="cls-35" d="M98.43,98.67s1.5.52,0,.84a4.53,4.53,0,0,1-1.83.2"/><path class="cls-35" d="M126.67,99a3.72,3.72,0,0,1,2.42,1.23"/><path class="cls-35" d="M128,99.42c0-.11-.92-.59-1-1.59"/><path class="cls-35" d="M110.89,106.23a1,1,0,0,0-.3,1.38l0,.07c.52,1-1.17,3.23-.83,4s-.22,2.58,1.09,2.51"/><path class="cls-42" d="M96.15,111.62s4,1.73,4.06,2.18c0,0-5.19-2.28-8.12-2.08"/><path class="cls-42" d="M128,110.6s-2.69,1.44-2.52,1.86c0,0,3.1-2.1,6-1.86"/><path class="cls-42" d="M113.85,119.26s4.51,2.38,5.72,2.57a7.51,7.51,0,0,1,2.93,1c.38.34,1.25-.25,2.44.46l1.18.71"/><path class="cls-42" d="M102.22,125.9a8.66,8.66,0,0,0,3.39.82c1.73,0,1.64.39,2.67.63s2,.77,2.59.89"/><path class="cls-43" d="M119.9,105.57H103.09a1.25,1.25,0,0,1-1.28-.94l-1.2-9.37a1.18,1.18,0,0,1,1-1.35,1.07,1.07,0,0,1,.25,0l19.35-.13a1.2,1.2,0,0,1,1.28,1.11v.18l-1.33,9.5A1.24,1.24,0,0,1,119.9,105.57Z"/><path class="cls-14" d="M125.38,100.88a14.82,14.82,0,0,0,.13-2h0a1.26,1.26,0,0,0-1.08-1.26c-1.16-.18-3.06-.45-3-.4a5.65,5.65,0,0,0-2.72.51.82.82,0,0,0-.34.59l-.31.11h0c-.22.1-.49.26-.52.48a.7.7,0,0,0,.07.43.61.61,0,0,0,.28.33.44.44,0,0,0-.09.56.55.55,0,0,0,.08.15,2,2,0,0,0,1,.53.33.33,0,0,0,0,.36.9.9,0,0,0,.42.44,28.79,28.79,0,0,1,3.16,1.42,1.3,1.3,0,0,0,1.68-.07A6.15,6.15,0,0,0,125.38,100.88Z"/><path class="cls-36" d="M118.65,98.42a10.23,10.23,0,0,1,4.82.41"/><path class="cls-36" d="M118.08,99.54a10.24,10.24,0,0,1,4.82.42"/><path class="cls-36" d="M119,100.85a9,9,0,0,1,3.66.78"/><path class="cls-44" d="M111.76,101a1.51,1.51,0,0,1-1.38-1.36,1.39,1.39,0,0,1,2.78,0A1.47,1.47,0,0,1,111.76,101Zm0-.8c.24,0,.46-.19.46-.56S112,99,111.77,99s-.45.17-.45.55.2.56.44.56Z"/><path class="cls-45" d="M117.45,75.78a10.57,10.57,0,0,0-.29,2.44c.09.87.69,1.94.62,2.31a2.61,2.61,0,0,1-.61,1.55,2.53,2.53,0,0,0-.34,2.2c.23.59.94,1.7,1.64,1.81,3.22.5,3.74-2.19,2.6-3.54,0,0,.4,1.75-.65,2.28s-1.86-.57-1.17-1.7,2.15-2.16,1.6-4.68c-.87-4,1.09-6.12.59-7.39A5.75,5.75,0,0,0,117.45,75.78Z"/><path class="cls-46" d="M115.65,66c1,1.33,2.6,6.62,2,8.62s.31,2.83,1.74,4.11a1.31,1.31,0,0,1,0,1.84,1.36,1.36,0,0,1-.35.24s1,.1,2.28-1.53c.39-.5,1.3-1.85-.19-2.53-1.29-.59,2.3-2.42-.34-5.55l-2.1-2.13Z"/><path class="cls-47" d="M116.73,66.58a.69.69,0,0,1,0,.35,2,2,0,0,0,.49,1.6c.12.11.26.18.34.35.22.39,0,1,.15,1.42s.37.51.56.77a2.09,2.09,0,0,1,.31,1.63,3.31,3.31,0,0,0-.32,1.27,1.27,1.27,0,0,0,.41.76,3.32,3.32,0,0,1,.54.58,1.11,1.11,0,0,1,.13.89c-.07.16-.21.23-.26.41a.81.81,0,0,0,.28.77,1.56,1.56,0,0,1,.16.15.63.63,0,0,1,.08.45.21.21,0,0,1-.24.22.63.63,0,0,0,.47-.3c.11-.2.08-.6-.09-.7l-.16-.07a.53.53,0,0,1-.09-.55.79.79,0,0,1,.29-.36,1.07,1.07,0,0,0,.37-.89,1,1,0,0,0-.48-.79,1.3,1.3,0,0,1-.41-.28,1.25,1.25,0,0,1-.1-1,6.91,6.91,0,0,1,.58-1.23,1.74,1.74,0,0,0,0-1.48c-.22-.33-.59-.36-.75-.76a1.37,1.37,0,0,1,0-.85c.08-.26.19-.49.25-.77a1.65,1.65,0,0,0-.56-1.64.63.63,0,0,1-.32-.15c-.23-.23-.18-.72-.26-1.11a1.62,1.62,0,0,0-.83-1.11c-.28-.15-.67,0-.67.12,0,.29-.17,1.46-.12,1.73Z"/><rect class="cls-4" x="40.69" y="70.08" width="26.4" height="33.68"/><rect class="cls-48" x="42.83" y="72.22" width="22.12" height="29.4"/><polygon class="cls-49" points="42.83 86.79 48.95 82.81 56.37 90.53 61.8 85.96 64.94 89.26 64.94 101.62 42.83 101.62 42.83 86.79"/><circle class="cls-34" cx="59.99" cy="79.43" r="3.38"/><polygon class="cls-5" points="80.53 104.11 64.94 104.11 56.47 104.11 51.01 104.11 51.01 109.5 58.31 106.67 80.53 106.67 80.53 104.11"/></svg>