<?xml version="1.0" encoding="utf-8"?>
<!-- Generator: Adobe Illustrator 26.0.3, SVG Export Plug-In . SVG Version: 6.00 Build 0)  -->
<svg version="1.1" id="Layer_1" xmlns="http://www.w3.org/2000/svg" xmlns:xlink="http://www.w3.org/1999/xlink" x="0px" y="0px"
	 viewBox="0 0 160.47 3013.16" style="enable-background:new 0 0 160.47 3013.16;" xml:space="preserve">
<style type="text/css">
	.st0{opacity:0.5;}
	.st1{fill:#FFFFFF;}
</style>
<g id="Group_842_00000016033639750691188520000012421007929269151898_" transform="translate(242 630)" class="st0">
	<g>
		<g id="Group_826_00000165930059412832869430000011812434183027208078_">
			<path id="Path_1305_00000171686561537007405590000017924038499198741418_" class="st1" d="M-153.9-619
				c14.53,14.72,14.53,38.38,0,53.1c-14.33,14.53-37.72,14.68-52.25,0.35c-0.12-0.12-0.23-0.23-0.35-0.35
				c-14.53-14.72-14.53-38.38,0-53.1c14.33-14.53,37.72-14.68,52.25-0.35C-154.13-619.24-154.02-619.12-153.9-619 M-191.06-603.13
				c-4.65,4.7-5.11,11.97,2.28,19.43c7.3,7.37,14.69,6.72,19.25,2.12c4.56-4.6,5.29-12.16-2.01-19.52
				C-178.92-608.57-186.5-607.74-191.06-603.13"/>
			<path id="Path_1308_00000158731991603432016280000013695068809007494544_" class="st1" d="M-153.9-392.64
				c14.53,14.72,14.53,38.38,0,53.1c-14.33,14.53-37.72,14.68-52.25,0.35c-0.12-0.12-0.23-0.23-0.35-0.35
				c-14.53-14.72-14.53-38.38,0-53.1c14.33-14.53,37.73-14.68,52.25-0.35C-154.13-392.88-154.02-392.76-153.9-392.64
				 M-191.06-376.78c-4.65,4.7-5.11,11.97,2.28,19.43c7.3,7.37,14.69,6.72,19.25,2.12c4.56-4.6,5.29-12.16-2.01-19.52
				C-178.92-382.21-186.5-381.38-191.06-376.78"/>
			<path id="Path_1309_00000165949121562224575410000017335850789931021983_" class="st1" d="M-145.02-452.39
				c-14.53-14.72-14.53-38.38,0-53.1c14.33-14.53,37.73-14.68,52.25-0.35c0.12,0.12,0.23,0.23,0.35,0.35
				c14.53,14.72,14.53,38.38,0,53.1c-14.33,14.53-37.72,14.68-52.25,0.35C-144.79-452.15-144.91-452.27-145.02-452.39
				 M-107.96-489.71c-4.56-4.61-12.04-5.34-19.34,2.02c-7.39,7.46-6.57,15.1-2.01,19.71c4.65,4.7,11.86,5.16,19.25-2.3
				C-102.76-477.64-103.4-485.11-107.96-489.71"/>
			<path id="Path_1310_00000090296673827019219620000018428620591871955842_" class="st1" d="M-215.38-505.49
				c14.53,14.72,14.53,38.38,0,53.1C-222.4-445.27-232-441.3-242-441.4v-23.72c4.02,1.07,8.3-0.13,11.17-3.14
				c4.65-4.7,5.11-11.97-2.28-19.43c-2.38-2.61-5.47-4.46-8.89-5.31v-23.48C-232-516.57-222.4-512.61-215.38-505.49"/>
			<path id="Path_1311_00000052062951385354413520000005083912710982794431_" class="st1" d="M-153.9,1413.78
				c14.53,14.72,14.53,38.38,0,53.1c-14.33,14.53-37.72,14.68-52.25,0.35c-0.12-0.12-0.24-0.23-0.35-0.35
				c-14.53-14.72-14.53-38.38,0-53.1c14.33-14.53,37.73-14.68,52.25-0.35C-154.13,1413.55-154.02,1413.66-153.9,1413.78
				 M-191.06,1429.65c-4.65,4.7-5.11,11.97,2.28,19.43c7.3,7.37,14.69,6.72,19.25,2.12c4.56-4.6,5.29-12.16-2.01-19.52
				C-178.92,1424.22-186.5,1425.05-191.06,1429.65"/>
			<path id="Path_1312_00000103960358294808687890000016845496787036494519_" class="st1" d="M-145.02,1354.04
				c-14.53-14.72-14.53-38.38,0-53.1c14.33-14.53,37.73-14.68,52.25-0.35c0.12,0.12,0.23,0.23,0.35,0.35
				c14.53,14.72,14.53,38.38,0,53.1c-14.33,14.53-37.73,14.68-52.25,0.35C-144.79,1354.27-144.91,1354.15-145.02,1354.04
				 M-107.96,1316.71c-4.56-4.61-12.04-5.34-19.34,2.03c-7.39,7.46-6.57,15.1-2.01,19.71c4.65,4.7,11.86,5.16,19.25-2.3
				C-102.76,1328.78-103.4,1321.32-107.96,1316.71"/>
			<path id="Path_1313_00000090257344013542207140000015818418213008261002_" class="st1" d="M-215.38,1300.93
				c14.53,14.72,14.53,38.38,0,53.1c-7.02,7.12-16.62,11.09-26.62,10.99v-23.72c4.02,1.07,8.3-0.13,11.17-3.14
				c4.65-4.7,5.11-11.97-2.28-19.43c-2.38-2.61-5.47-4.45-8.89-5.31v-23.48C-232,1289.85-222.4,1293.82-215.38,1300.93"/>
			<path id="Path_1314_00000175282685100694059770000014446773960407445675_" class="st1" d="M-153.9,1188.09
				c14.53,14.72,14.53,38.38,0,53.1c-14.33,14.53-37.73,14.68-52.25,0.35c-0.12-0.12-0.23-0.23-0.35-0.35
				c-14.53-14.72-14.53-38.38,0-53.1c14.33-14.53,37.73-14.68,52.25-0.35C-154.13,1187.86-154.02,1187.97-153.9,1188.09
				 M-191.06,1203.96c-4.65,4.7-5.11,11.97,2.28,19.43c7.3,7.37,14.69,6.72,19.25,2.12c4.56-4.6,5.29-12.16-2.01-19.52
				C-178.92,1198.52-186.5,1199.35-191.06,1203.96"/>
			<path id="Path_1315_00000147913584725363380270000004148056728141627071_" class="st1" d="M-145.02,1128.35
				c-14.53-14.72-14.53-38.38,0-53.1c14.33-14.53,37.73-14.68,52.25-0.35c0.12,0.12,0.23,0.23,0.35,0.35
				c14.53,14.72,14.53,38.38,0,53.1c-14.33,14.53-37.73,14.68-52.25,0.35C-144.79,1128.58-144.91,1128.46-145.02,1128.35
				 M-107.96,1091.02c-4.56-4.61-12.04-5.34-19.34,2.03c-7.39,7.46-6.57,15.1-2.01,19.71c4.65,4.7,11.86,5.16,19.25-2.3
				C-102.76,1103.09-103.4,1095.62-107.96,1091.02"/>
			<path id="Path_1316_00000096019667351339435730000002475163242582159533_" class="st1" d="M-215.38,1075.24
				c14.53,14.72,14.53,38.38,0,53.1c-7.02,7.12-16.62,11.09-26.62,10.99v-23.72c4.02,1.07,8.3-0.13,11.17-3.14
				c4.65-4.7,5.11-11.97-2.28-19.43c-2.38-2.61-5.47-4.46-8.89-5.31v-23.48C-232,1064.16-222.4,1068.13-215.38,1075.24"/>
			<path id="Path_1317_00000107582687713299378040000004368027862605657781_" class="st1" d="M-206.5,1015.5
				c-14.53-14.72-14.53-38.38,0-53.1c14.33-14.53,37.73-14.68,52.25-0.35c0.12,0.12,0.23,0.23,0.35,0.35
				c14.53,14.72,14.53,38.38,0,53.1c-14.33,14.53-37.73,14.68-52.25,0.35C-206.27,1015.73-206.38,1015.62-206.5,1015.5
				 M-171.53,980.29c-7.39-7.46-14.96-6.63-19.52-2.03c-4.65,4.7-5.11,11.97,2.28,19.43c7.3,7.37,14.69,6.72,19.25,2.12
				S-164.24,987.66-171.53,980.29"/>
			<path id="Path_1318_00000059284491035710827020000006384789506757993912_" class="st1" d="M-153.9,1640.14
				c14.53,14.72,14.53,38.38,0,53.1c-14.33,14.53-37.73,14.68-52.25,0.35c-0.12-0.12-0.23-0.23-0.35-0.35
				c-14.53-14.72-14.53-38.38,0-53.1c14.33-14.53,37.73-14.68,52.25-0.35C-154.13,1639.91-154.02,1640.02-153.9,1640.14
				 M-191.06,1656.01c-4.65,4.7-5.11,11.97,2.28,19.43c7.3,7.37,14.69,6.72,19.25,2.12c4.56-4.6,5.29-12.16-2.01-19.52
				C-178.92,1650.58-186.5,1651.41-191.06,1656.01"/>
			<path id="Path_1319_00000085208280742592438260000013739789582746875064_" class="st1" d="M-145.02,1580.4
				c-14.53-14.72-14.53-38.38,0-53.1c14.33-14.53,37.73-14.68,52.25-0.35c0.12,0.12,0.23,0.23,0.35,0.35
				c14.53,14.72,14.53,38.38,0,53.1c-14.33,14.53-37.73,14.68-52.25,0.35C-144.79,1580.63-144.91,1580.51-145.02,1580.4
				 M-107.96,1543.07c-4.56-4.61-12.04-5.34-19.34,2.03c-7.39,7.46-6.57,15.1-2.01,19.71c4.65,4.7,11.86,5.16,19.25-2.3
				C-102.76,1555.14-103.4,1547.68-107.96,1543.07"/>
			<path id="Path_1320_00000039831065508883775710000002085676352767776416_" class="st1" d="M-215.38,1527.29
				c14.53,14.72,14.53,38.38,0,53.1c-7.02,7.12-16.62,11.09-26.62,10.99v-23.72c4.02,1.07,8.3-0.13,11.17-3.14
				c4.65-4.7,5.11-11.97-2.28-19.43c-2.38-2.61-5.47-4.46-8.89-5.31v-23.48C-232,1516.21-222.4,1520.17-215.38,1527.29"/>
			<path id="Path_1311_00000134953929848977069390000016737940617200434588_" class="st1" d="M-153.9,2092.7
				c14.53,14.72,14.53,38.38,0,53.1c-14.33,14.52-37.72,14.68-52.25,0.35c-0.12-0.12-0.24-0.23-0.35-0.35
				c-14.53-14.72-14.53-38.38,0-53.1c14.33-14.53,37.73-14.68,52.25-0.35C-154.13,2092.47-154.02,2092.58-153.9,2092.7
				 M-191.06,2108.57c-4.65,4.7-5.11,11.97,2.28,19.43c7.3,7.37,14.69,6.72,19.25,2.12c4.56-4.6,5.29-12.16-2.01-19.52
				C-178.92,2103.14-186.5,2103.97-191.06,2108.57"/>
			<path id="Path_1312_00000062156423207708275800000001897899499044139399_" class="st1" d="M-145.02,2032.96
				c-14.53-14.72-14.53-38.38,0-53.1c14.33-14.53,37.73-14.68,52.25-0.35c0.12,0.12,0.23,0.23,0.35,0.35
				c14.53,14.72,14.53,38.38,0,53.1c-14.33,14.53-37.73,14.68-52.25,0.35C-144.79,2033.19-144.91,2033.08-145.02,2032.96
				 M-107.96,1995.63c-4.56-4.61-12.04-5.34-19.34,2.03c-7.39,7.46-6.57,15.1-2.01,19.71c4.65,4.7,11.86,5.16,19.25-2.3
				C-102.76,2007.7-103.4,2000.24-107.96,1995.63"/>
			<path id="Path_1313_00000011023037939636435850000010281799375761350545_" class="st1" d="M-215.38,1979.86
				c14.53,14.72,14.53,38.38,0,53.1c-7.02,7.12-16.62,11.09-26.62,10.99v-23.72c4.02,1.07,8.3-0.13,11.17-3.14
				c4.65-4.7,5.11-11.97-2.28-19.43c-2.38-2.61-5.47-4.45-8.89-5.31v-23.48C-232,1968.77-222.4,1972.74-215.38,1979.86"/>
			<path id="Path_1314_00000010303921384999330100000014625187962895968950_" class="st1" d="M-153.9,1867.01
				c14.53,14.72,14.53,38.38,0,53.1c-14.33,14.53-37.73,14.68-52.25,0.35c-0.12-0.12-0.23-0.23-0.35-0.35
				c-14.53-14.72-14.53-38.38,0-53.1c14.33-14.53,37.73-14.68,52.25-0.35C-154.13,1866.78-154.02,1866.89-153.9,1867.01
				 M-191.06,1882.88c-4.65,4.7-5.11,11.97,2.28,19.43c7.3,7.37,14.69,6.72,19.25,2.12c4.56-4.6,5.29-12.16-2.01-19.52
				C-178.92,1877.45-186.5,1878.28-191.06,1882.88"/>
			<path id="Path_1315_00000105413775027841018550000004927331841052563857_" class="st1" d="M-145.02,1807.27
				c-14.53-14.72-14.53-38.38,0-53.1c14.33-14.53,37.73-14.68,52.25-0.35c0.12,0.12,0.23,0.23,0.35,0.35
				c14.53,14.72,14.53,38.38,0,53.1c-14.33,14.53-37.73,14.68-52.25,0.35C-144.79,1807.5-144.91,1807.38-145.02,1807.27
				 M-107.96,1769.94c-4.56-4.61-12.04-5.34-19.34,2.03c-7.39,7.46-6.57,15.1-2.01,19.71c4.65,4.7,11.86,5.16,19.25-2.3
				C-102.76,1782.01-103.4,1774.55-107.96,1769.94"/>
			<path id="Path_1316_00000000907068000035077900000016998184022377884850_" class="st1" d="M-215.38,1754.17
				c14.53,14.72,14.53,38.38,0,53.1c-7.02,7.12-16.62,11.09-26.62,10.99v-23.72c4.02,1.07,8.3-0.13,11.17-3.14
				c4.65-4.7,5.11-11.97-2.28-19.43c-2.38-2.61-5.47-4.46-8.89-5.31v-23.48C-232,1743.08-222.4,1747.05-215.38,1754.17"/>
			<path id="Path_1318_00000090994995670825637260000010945765390227477917_" class="st1" d="M-153.9,2319.06
				c14.53,14.72,14.53,38.38,0,53.1c-14.33,14.53-37.73,14.68-52.25,0.35c-0.12-0.12-0.23-0.23-0.35-0.35
				c-14.53-14.72-14.53-38.38,0-53.1c14.33-14.53,37.73-14.68,52.25-0.35C-154.13,2318.83-154.02,2318.94-153.9,2319.06
				 M-191.06,2334.93c-4.65,4.7-5.11,11.97,2.28,19.43c7.3,7.37,14.69,6.72,19.25,2.12c4.56-4.6,5.29-12.16-2.01-19.52
				C-178.92,2329.5-186.5,2330.33-191.06,2334.93"/>
			<path id="Path_1319_00000075851105237288895240000014660674682336252300_" class="st1" d="M-145.02,2259.32
				c-14.53-14.72-14.53-38.38,0-53.1c14.33-14.53,37.73-14.68,52.25-0.35c0.12,0.12,0.23,0.23,0.35,0.35
				c14.53,14.72,14.53,38.38,0,53.1c-14.33,14.53-37.73,14.68-52.25,0.35C-144.79,2259.55-144.91,2259.43-145.02,2259.32
				 M-107.96,2221.99c-4.56-4.61-12.04-5.34-19.34,2.02c-7.39,7.46-6.57,15.1-2.01,19.71c4.65,4.7,11.86,5.16,19.25-2.3
				C-102.76,2234.06-103.4,2226.6-107.96,2221.99"/>
			<path id="Path_1320_00000066494566920589605850000014649105251182789504_" class="st1" d="M-215.38,2206.21
				c14.53,14.72,14.53,38.38,0,53.1c-7.02,7.12-16.62,11.09-26.62,10.99v-23.72c4.02,1.07,8.3-0.13,11.17-3.14
				c4.65-4.7,5.11-11.97-2.28-19.43c-2.38-2.61-5.47-4.46-8.89-5.31v-23.48C-232,2195.13-222.4,2199.1-215.38,2206.21"/>
			<path id="Path_1323_00000043455550184529703560000001486468021833526931_" class="st1" d="M-153.9,55.6
				c14.53,14.72,14.53,38.38,0,53.1c-14.33,14.53-37.73,14.68-52.25,0.35c-0.12-0.12-0.23-0.23-0.35-0.35
				c-14.53-14.72-14.53-38.38,0-53.1c14.33-14.53,37.73-14.68,52.25-0.35C-154.13,55.36-154.02,55.48-153.9,55.6 M-191.06,71.46
				c-4.65,4.7-5.11,11.97,2.28,19.43c7.3,7.37,14.69,6.72,19.25,2.12c4.56-4.6,5.29-12.16-2.01-19.52
				C-178.92,66.03-186.5,66.86-191.06,71.46"/>
			<path id="Path_1324_00000046331251518633740140000018035787784804594352_" class="st1" d="M-145.02-4.15
				c-14.53-14.72-14.53-38.38,0-53.1c14.33-14.53,37.72-14.68,52.25-0.35c0.12,0.12,0.23,0.23,0.35,0.35
				c14.53,14.72,14.53,38.38,0,53.1c-14.33,14.53-37.73,14.68-52.25,0.35C-144.79-3.91-144.91-4.03-145.02-4.15 M-107.96-41.47
				c-4.56-4.61-12.04-5.34-19.34,2.03c-7.39,7.46-6.57,15.1-2.01,19.71c4.65,4.7,11.86,5.16,19.25-2.3
				C-102.76-29.41-103.4-36.87-107.96-41.47"/>
			<path id="Path_1325_00000145750878132868282460000002928662239174802065_" class="st1" d="M-215.38-57.25
				c14.53,14.72,14.53,38.38,0,53.1C-222.4,2.97-232,6.94-242,6.84v-23.72c4.02,1.07,8.3-0.13,11.17-3.14
				c4.65-4.7,5.11-11.97-2.28-19.43c-2.38-2.61-5.47-4.46-8.89-5.32v-23.48C-232-68.34-222.4-64.37-215.38-57.25"/>
			<path id="Path_1326_00000092453058392432299050000011084500232219829143_" class="st1" d="M-153.9-170.09
				c14.53,14.72,14.53,38.38,0,53.1c-14.33,14.53-37.72,14.68-52.25,0.35c-0.12-0.12-0.23-0.23-0.35-0.35
				c-14.53-14.72-14.53-38.38,0-53.1c14.33-14.53,37.73-14.68,52.25-0.35C-154.13-170.33-154.02-170.21-153.9-170.09
				 M-191.06-154.23c-4.65,4.7-5.11,11.97,2.28,19.43c7.3,7.37,14.69,6.72,19.25,2.12c4.56-4.6,5.29-12.16-2.01-19.52
				C-178.92-159.66-186.5-158.83-191.06-154.23"/>
			<path id="Path_1327_00000121981751495806061760000012246429526310944424_" class="st1" d="M-145.02-229.84
				c-14.53-14.72-14.53-38.38,0-53.1c14.33-14.53,37.72-14.68,52.25-0.35c0.12,0.12,0.23,0.23,0.35,0.35
				c14.53,14.72,14.53,38.38,0,53.1c-14.33,14.53-37.72,14.68-52.25,0.35C-144.79-229.6-144.91-229.72-145.02-229.84
				 M-107.96-267.16c-4.56-4.61-12.04-5.34-19.34,2.02c-7.39,7.46-6.57,15.1-2.01,19.71c4.65,4.7,11.86,5.16,19.25-2.3
				C-102.76-255.1-103.4-262.56-107.96-267.16"/>
			<path id="Path_1328_00000109025122302609755250000016425165974017403544_" class="st1" d="M-215.38-282.94
				c14.53,14.72,14.53,38.38,0,53.1c-7.02,7.12-16.62,11.09-26.62,10.99v-23.72c4.02,1.07,8.3-0.13,11.17-3.14
				c4.65-4.7,5.11-11.97-2.28-19.43c-2.38-2.61-5.47-4.45-8.89-5.31v-23.48C-232-294.02-222.4-290.05-215.38-282.94"/>
			<path id="Path_1329_00000123399476785281304060000014311150439973556909_" class="st1" d="M-153.9,281.96
				c14.53,14.72,14.53,38.38,0,53.1c-14.33,14.53-37.73,14.68-52.25,0.35c-0.12-0.12-0.23-0.23-0.35-0.35
				c-14.53-14.72-14.53-38.38,0-53.1c14.33-14.53,37.73-14.68,52.25-0.35C-154.13,281.72-154.02,281.84-153.9,281.96
				 M-191.06,297.82c-4.65,4.7-5.11,11.97,2.28,19.43c7.3,7.37,14.69,6.72,19.25,2.12c4.56-4.6,5.29-12.16-2.01-19.52
				C-178.92,292.39-186.5,293.22-191.06,297.82"/>
			<path id="Path_1330_00000036955597967391878070000003226798984853664908_" class="st1" d="M-145.02,222.21
				c-14.53-14.72-14.53-38.38,0-53.1c14.33-14.53,37.72-14.68,52.25-0.35c0.12,0.12,0.23,0.23,0.35,0.35
				c14.53,14.72,14.53,38.38,0,53.1c-14.33,14.53-37.73,14.68-52.25,0.35C-144.79,222.45-144.91,222.33-145.02,222.21
				 M-107.96,184.89c-4.56-4.61-12.04-5.34-19.34,2.03c-7.39,7.46-6.57,15.1-2.01,19.71c4.65,4.7,11.86,5.16,19.25-2.3
				C-102.76,196.95-103.4,189.49-107.96,184.89"/>
			<path id="Path_1331_00000088822023119185341050000006939035034871573130_" class="st1" d="M-215.38,169.11
				c14.53,14.72,14.53,38.38,0,53.1C-222.4,229.33-232,233.3-242,233.2v-23.72c4.02,1.07,8.3-0.13,11.17-3.14
				c4.65-4.7,5.11-11.97-2.28-19.43c-2.38-2.61-5.47-4.46-8.89-5.31v-23.48C-232,158.03-222.4,161.99-215.38,169.11"/>
			<path id="Path_1332_00000089535944427276578210000016078730247588610992_" class="st1" d="M-153.9,736.04
				c14.53,14.72,14.53,38.38,0,53.1c-14.33,14.53-37.72,14.68-52.25,0.35c-0.12-0.12-0.23-0.23-0.35-0.35
				c-14.53-14.72-14.53-38.38,0-53.1c14.33-14.53,37.73-14.68,52.25-0.35C-154.13,735.81-154.02,735.92-153.9,736.04
				 M-191.06,751.91c-4.65,4.7-5.11,11.97,2.28,19.43c7.3,7.37,14.69,6.72,19.25,2.12c4.56-4.6,5.29-12.16-2.01-19.52
				C-178.92,746.48-186.5,747.31-191.06,751.91"/>
			<path id="Path_1333_00000113338527976081440660000016617992165090063236_" class="st1" d="M-145.02,676.3
				c-14.53-14.72-14.53-38.38,0-53.1c14.33-14.53,37.73-14.68,52.25-0.35c0.12,0.12,0.23,0.23,0.35,0.35
				c14.53,14.72,14.53,38.38,0,53.1c-14.33,14.53-37.73,14.68-52.25,0.35C-144.79,676.53-144.91,676.41-145.02,676.3
				 M-107.96,638.97c-4.56-4.61-12.04-5.34-19.34,2.03c-7.39,7.46-6.57,15.1-2.01,19.71c4.65,4.7,11.86,5.16,19.25-2.3
				C-102.76,651.04-103.4,643.58-107.96,638.97"/>
			<path id="Path_1334_00000052784096792666516650000012449941978830424994_" class="st1" d="M-215.38,623.19
				c14.53,14.72,14.53,38.38,0,53.1c-7.02,7.12-16.62,11.09-26.62,10.99v-23.72c4.02,1.07,8.3-0.13,11.17-3.14
				c4.65-4.7,5.11-11.97-2.28-19.43c-2.38-2.61-5.47-4.46-8.89-5.31V612.2C-232,612.11-222.4,616.08-215.38,623.19"/>
			<path id="Path_1335_00000022524627277159592320000017474388513026706852_" class="st1" d="M-153.9,510.35
				c14.53,14.72,14.53,38.38,0,53.1c-14.33,14.53-37.73,14.68-52.25,0.35c-0.12-0.12-0.23-0.23-0.35-0.35
				c-14.53-14.72-14.53-38.38,0-53.1c14.33-14.53,37.72-14.68,52.25-0.35C-154.13,510.11-154.02,510.23-153.9,510.35
				 M-191.06,526.22c-4.65,4.7-5.11,11.97,2.28,19.43c7.3,7.37,14.69,6.72,19.25,2.12c4.56-4.6,5.29-12.16-2.01-19.53
				C-178.92,520.79-186.5,521.62-191.06,526.22"/>
			<path id="Path_1336_00000045578995541956829650000002180000375453483707_" class="st1" d="M-145.02,450.61
				c-14.53-14.72-14.53-38.38,0-53.1c14.33-14.53,37.72-14.68,52.25-0.35c0.12,0.12,0.23,0.23,0.35,0.35
				c14.53,14.72,14.53,38.38,0,53.1c-14.33,14.53-37.72,14.68-52.25,0.35C-144.79,450.84-144.91,450.72-145.02,450.61
				 M-107.96,413.28c-4.56-4.61-12.04-5.34-19.34,2.03c-7.39,7.46-6.57,15.1-2.01,19.71c4.65,4.7,11.86,5.16,19.25-2.3
				C-102.76,425.35-103.4,417.89-107.96,413.28"/>
			<path id="Path_1337_00000173153241016640904780000002458879905746560399_" class="st1" d="M-215.38,397.5
				c14.53,14.72,14.53,38.38,0,53.1c-7.02,7.12-16.62,11.09-26.62,10.99v-23.72c4.02,1.07,8.3-0.13,11.17-3.14
				c4.65-4.7,5.11-11.97-2.28-19.43c-2.38-2.61-5.47-4.46-8.89-5.31v-23.48C-232,386.42-222.4,390.39-215.38,397.5"/>
			<path id="Path_1338_00000103950122673169006310000010457541031138216890_" class="st1" d="M-145.02,902.66
				c-14.53-14.72-14.53-38.38,0-53.1c14.33-14.53,37.72-14.68,52.25-0.35c0.12,0.12,0.23,0.23,0.35,0.35
				c14.53,14.72,14.53,38.38,0,53.1c-14.33,14.53-37.73,14.68-52.25,0.35C-144.79,902.89-144.91,902.77-145.02,902.66
				 M-107.96,865.33c-4.56-4.61-12.04-5.34-19.34,2.03c-7.39,7.46-6.57,15.1-2.01,19.71c4.65,4.7,11.86,5.16,19.25-2.3
				C-102.76,877.4-103.4,869.94-107.96,865.33"/>
			<path id="Path_1339_00000095303803007193489040000017138426509194275212_" class="st1" d="M-215.38,849.55
				c14.53,14.72,14.53,38.38,0,53.1c-7.02,7.12-16.62,11.09-26.62,10.99v-23.72c4.02,1.07,8.3-0.13,11.17-3.14
				c4.65-4.7,5.11-11.97-2.28-19.43c-2.38-2.61-5.47-4.46-8.89-5.32v-23.48C-232,838.47-222.4,842.43-215.38,849.55"/>
		</g>
	</g>
</g>
</svg>
