<svg id="Layer_1" data-name="Layer 1" xmlns="http://www.w3.org/2000/svg" xmlns:xlink="http://www.w3.org/1999/xlink" viewBox="0 0 119.39 101.24"><defs><style>.cls-1{fill:#343633;}.cls-2{fill:#3c5b65;}.cls-3{fill:#4c4c4d;}.cls-17,.cls-3{opacity:0.15;}.cls-4{fill:#fafafa;}.cls-5{fill:#323031;opacity:0.2;}.cls-6{fill:#fe3845;}.cls-7{fill:#a1886c;}.cls-8{fill:url(#linear-gradient);}.cls-9{fill:url(#linear-gradient-2);}.cls-10{fill:#85715c;}.cls-11{fill:url(#linear-gradient-3);}.cls-12{fill:url(#linear-gradient-4);}.cls-13{fill:#af996d;}.cls-14{fill:#f5b09b;}.cls-15{fill:#db9b88;}.cls-16{fill:url(#linear-gradient-5);}.cls-17,.cls-28,.cls-29,.cls-30,.cls-31,.cls-32,.cls-33,.cls-36,.cls-37,.cls-43{fill:none;stroke-linecap:round;}.cls-17{stroke:#7b473b;stroke-width:0.34px;}.cls-17,.cls-28,.cls-29,.cls-31,.cls-32,.cls-36,.cls-37,.cls-43{stroke-miterlimit:10;}.cls-18{fill:#bb9b14;}.cls-19{fill:#eca787;}.cls-20{fill:url(#linear-gradient-6);}.cls-21{fill:#7b473b;opacity:0.45;}.cls-22{fill:url(#linear-gradient-7);}.cls-23{fill:url(#linear-gradient-8);}.cls-24{fill:url(#linear-gradient-9);}.cls-25{fill:url(#linear-gradient-10);}.cls-26{fill:#b7a278;}.cls-27{fill:#e1e1e1;}.cls-28,.cls-31{stroke:#a9a9a9;}.cls-28{stroke-width:0.63px;}.cls-29,.cls-30,.cls-32,.cls-33{stroke:#fff;}.cls-29,.cls-30{stroke-width:0.84px;}.cls-30,.cls-33{stroke-linejoin:round;}.cls-31{stroke-width:0.6px;}.cls-32,.cls-33{stroke-width:0.8px;}.cls-34{fill:#6092a1;}.cls-35{fill:#ffc050;}.cls-36{stroke:#ffb24d;}.cls-36,.cls-43{stroke-width:0.71px;}.cls-37{stroke:#a8766d;stroke-width:0.21px;}.cls-38{fill:url(#linear-gradient-11);}.cls-39{fill:url(#linear-gradient-12);}.cls-40{fill:#7599b2;opacity:0.28;}.cls-41{fill:url(#linear-gradient-13);}.cls-42{fill:url(#linear-gradient-14);}.cls-43{stroke:#587385;}.cls-44{fill:url(#linear-gradient-15);}.cls-45{fill:#fff;}.cls-46{fill:url(#linear-gradient-16);}.cls-47{fill:url(#linear-gradient-17);}.cls-48{fill:url(#linear-gradient-18);}.cls-49{fill:#016fb9;}.cls-50{fill:#00af9e;}</style><linearGradient id="linear-gradient" x1="1022.44" y1="508.09" x2="1025" y2="508.09" gradientUnits="userSpaceOnUse"><stop offset="0.16" stop-color="#ddcaa4"/><stop offset="0.48" stop-color="#c5b188"/><stop offset="0.79" stop-color="#b59f74"/><stop offset="1" stop-color="#af996d"/></linearGradient><linearGradient id="linear-gradient-2" x1="1021.26" y1="511" x2="1025.21" y2="511" xlink:href="#linear-gradient"/><linearGradient id="linear-gradient-3" x1="1042.03" y1="501.84" x2="1037.85" y2="517.7" gradientUnits="userSpaceOnUse"><stop offset="0" stop-color="#af996d"/><stop offset="0.21" stop-color="#b59f74"/><stop offset="0.52" stop-color="#c5b188"/><stop offset="0.84" stop-color="#ddcaa4"/></linearGradient><linearGradient id="linear-gradient-4" x1="1024.36" y1="520.14" x2="1026.05" y2="516.85" gradientUnits="userSpaceOnUse"><stop offset="0.29" stop-color="#af996d"/><stop offset="0.5" stop-color="#ac966c"/><stop offset="0.65" stop-color="#a28d68"/><stop offset="0.8" stop-color="#927d61"/><stop offset="0.87" stop-color="#85715c"/></linearGradient><linearGradient id="linear-gradient-5" x1="1026.18" y1="505.99" x2="1038.83" y2="505.99" xlink:href="#linear-gradient"/><linearGradient id="linear-gradient-6" x1="1022.99" y1="521.69" x2="1031.17" y2="527.95" gradientUnits="userSpaceOnUse"><stop offset="0" stop-color="#85715c"/><stop offset="0.06" stop-color="#927d61"/><stop offset="0.17" stop-color="#a28d68"/><stop offset="0.29" stop-color="#ac966c"/><stop offset="0.45" stop-color="#af996d"/><stop offset="1" stop-color="#ddcaa4"/></linearGradient><linearGradient id="linear-gradient-7" x1="1040.34" y1="519.03" x2="1040.38" y2="525.9" gradientUnits="userSpaceOnUse"><stop offset="0" stop-color="#af996d"/><stop offset="0.21" stop-color="#b59f74"/><stop offset="0.52" stop-color="#c5b188"/><stop offset="0.85" stop-color="#ddcaa4"/></linearGradient><linearGradient id="linear-gradient-8" x1="1038.63" y1="524.85" x2="1039.05" y2="512.15" xlink:href="#linear-gradient-4"/><linearGradient id="linear-gradient-9" x1="1024.5" y1="521.27" x2="1028.64" y2="526.23" xlink:href="#linear-gradient-7"/><linearGradient id="linear-gradient-10" x1="1028.84" y1="500.45" x2="1033.21" y2="523" gradientUnits="userSpaceOnUse"><stop offset="0.11" stop-color="#af996d"/><stop offset="0.53" stop-color="#ccb890"/><stop offset="0.84" stop-color="#ddcaa4"/></linearGradient><linearGradient id="linear-gradient-11" x1="1016.74" y1="558.41" x2="1059.84" y2="558.41" gradientUnits="userSpaceOnUse"><stop offset="0" stop-color="#47acd6"/><stop offset="1" stop-color="#9dcdd6"/></linearGradient><linearGradient id="linear-gradient-12" x1="66.36" y1="90.47" x2="72.65" y2="90.47" xlink:href="#linear-gradient-11"/><linearGradient id="linear-gradient-13" x1="1049.81" y1="570.76" x2="1011.82" y2="549.48" xlink:href="#linear-gradient-11"/><linearGradient id="linear-gradient-14" x1="97.25" y1="89.59" x2="102.4" y2="89.59" xlink:href="#linear-gradient-11"/><linearGradient id="linear-gradient-15" x1="1013.79" y1="519.66" x2="1047.81" y2="548.85" gradientUnits="userSpaceOnUse"><stop offset="0.04" stop-color="#d8d9d9"/><stop offset="0.32" stop-color="#d5d7d7"/><stop offset="0.51" stop-color="#cccfd0"/><stop offset="0.67" stop-color="#bdc1c5"/><stop offset="0.81" stop-color="#a8aeb5"/><stop offset="0.94" stop-color="#8d96a1"/><stop offset="1" stop-color="#7e8996"/></linearGradient><linearGradient id="linear-gradient-16" x1="1039.23" y1="508.88" x2="1042.75" y2="530.05" gradientUnits="userSpaceOnUse"><stop offset="0.03" stop-color="#8f7f5a"/><stop offset="0.12" stop-color="#af996d"/><stop offset="0.79" stop-color="#ddcaa4"/></linearGradient><linearGradient id="linear-gradient-17" x1="1035.06" y1="500.47" x2="1044.92" y2="520.65" xlink:href="#linear-gradient-3"/><linearGradient id="linear-gradient-18" x1="1022.24" y1="533.44" x2="1024.73" y2="546.28" gradientTransform="translate(-42.66 98.96) rotate(-7.12)" xlink:href="#linear-gradient-3"/></defs><path class="cls-1" d="M976.62,465.52h68.21a0,0,0,0,1,0,0V576.77a0,0,0,0,1,0,0H976.62a3.32,3.32,0,0,1-3.32-3.32V468.84A3.32,3.32,0,0,1,976.62,465.52Z" transform="translate(580.84 -963.45) rotate(90)"/><rect class="cls-2" x="7.91" y="13.68" width="103.58" height="63.87"/><path class="cls-1" d="M0,77.55H119.39a0,0,0,0,1,0,0v3.18a3.67,3.67,0,0,1-3.67,3.67H3.67A3.67,3.67,0,0,1,0,80.73V77.55A0,0,0,0,1,0,77.55Z"/><path class="cls-3" d="M1067,571.71c3.41-3.71-14.62-11.11-32.67-11.11s-33.69,9.17-30.3,14.13,12.28-.63,30.3-3S1061,578.25,1067,571.71Z" transform="translate(-949.37 -475.53)"/><path class="cls-4" d="M1039.23,486.1l-6.18,2V475.53h3.43c2.82,0,5.1,2.86,5.1,6.38Z" transform="translate(-949.37 -475.53)"/><path class="cls-1" d="M87.95,0h0a4.27,4.27,0,0,1,4.27,4.27v8.35a0,0,0,0,1,0,0H83.68a0,0,0,0,1,0,0V4.27A4.27,4.27,0,0,1,87.95,0Z"/><path class="cls-4" d="M27.82,0H83.68a0,0,0,0,1,0,0V77.55a0,0,0,0,1,0,0h-61a0,0,0,0,1,0,0V5.19A5.19,5.19,0,0,1,27.82,0Z"/><rect class="cls-5" x="48.26" y="9.67" width="29.36" height="4.01"/><rect class="cls-5" x="48.26" y="15.6" width="25.69" height="4.01"/><path class="cls-6" d="M991.9,489.87a5.19,5.19,0,0,0-1.65-1.74,5.3,5.3,0,0,0-.47-.28l-.35-.17a5.92,5.92,0,0,0-1-.34,6.46,6.46,0,0,0-1.49-.19h-.41a9.49,9.49,0,0,0-1.1.12,6.3,6.3,0,0,0-1.68.58,5.26,5.26,0,0,0-2.11,2,4.93,4.93,0,0,0-.45,1,3.47,3.47,0,0,0-.16.55c0,.11,0,.22-.07.33a8,8,0,0,0-.09.87v.67a6,6,0,0,0,.19,1.3,5.09,5.09,0,0,0,.57,1.43,5.21,5.21,0,0,0,2.1,2,6.44,6.44,0,0,0,2.94.7h.25a6.61,6.61,0,0,0,2-.32,6,6,0,0,0,.91-.38,5.41,5.41,0,0,0,.76-.48l.08-.06c.13-.1.25-.21.37-.32l.15-.15c.13-.14.25-.28.37-.43s.27-.38.4-.58a5.72,5.72,0,0,0,.59-1.49v0a2,2,0,0,0,0-.24c0-.15.05-.3.07-.46l0-.25c0-.07,0-.13,0-.2s0-.27,0-.4A5.94,5.94,0,0,0,991.9,489.87Zm-6.52,4.83a2.71,2.71,0,0,1-.52-1.77,2.57,2.57,0,0,1,.54-1.76,1.78,1.78,0,0,1,1.33-.6h.18a1.73,1.73,0,0,1,1.2.59,3,3,0,0,1,0,3.52,1.78,1.78,0,0,1-1.22.61h-.16A1.71,1.71,0,0,1,985.38,494.7Z" transform="translate(-949.37 -475.53)"/><rect class="cls-5" x="28.09" y="27.43" width="24.05" height="2.57"/><rect class="cls-5" x="54.77" y="27.43" width="24.08" height="2.57"/><rect class="cls-5" x="28.09" y="32.82" width="24.05" height="2.57"/><rect class="cls-5" x="54.77" y="32.82" width="24.08" height="2.57"/><rect class="cls-5" x="28.09" y="38.21" width="24.05" height="2.57"/><rect class="cls-5" x="54.77" y="38.21" width="24.08" height="2.57"/><rect class="cls-5" x="28.09" y="43.6" width="24.05" height="2.57"/><rect class="cls-5" x="54.77" y="43.6" width="24.08" height="2.57"/><rect class="cls-5" x="28.09" y="48.99" width="24.05" height="2.57"/><rect class="cls-5" x="54.77" y="48.99" width="24.08" height="2.57"/><rect class="cls-5" x="28.09" y="54.38" width="24.05" height="2.57"/><rect class="cls-5" x="54.77" y="54.38" width="24.08" height="2.57"/><rect class="cls-5" x="28.09" y="59.77" width="24.05" height="2.57"/><rect class="cls-5" x="54.77" y="59.77" width="24.08" height="2.57"/><rect class="cls-5" x="54.77" y="65.16" width="24.08" height="2.57"/><rect class="cls-5" x="28.09" y="70.55" width="24.05" height="2.57"/><rect class="cls-5" x="54.77" y="70.55" width="24.08" height="2.57"/><path class="cls-7" d="M1041.37,519.62a5.7,5.7,0,0,0,.39,1.07,2.71,2.71,0,0,1,.21.37,1.43,1.43,0,0,1,.09.5l0,.69a.62.62,0,0,1-.08.43.59.59,0,0,1-.47.18,4.23,4.23,0,0,1-1-.09,1.08,1.08,0,0,1-.44-.18,1.25,1.25,0,0,1-.28-.37l-.48-.83c0-.1-.1-.19-.14-.29a1.34,1.34,0,0,1,0-.35,1.87,1.87,0,0,1,.75-1.93c.26-.17.54-.51.84-.32A2.41,2.41,0,0,1,1041.37,519.62Z" transform="translate(-949.37 -475.53)"/><path class="cls-8" d="M1024.39,506.81a2.06,2.06,0,0,1-.84,1.59c-.49.25-1-.33-1-.82a1.5,1.5,0,0,0,.21,1.35c1,1.09,2.28-.2,2.28-.2Z" transform="translate(-949.37 -475.53)"/><path class="cls-9" d="M1021.84,509.24a1.82,1.82,0,0,0,1.17,2.64,1.65,1.65,0,0,1-1.75-.83s0,1.62,1.47,1.72,2.48-2.75,2.48-2.75l-1,.06a1.74,1.74,0,0,1-1.54.86C1021.47,510.76,1021.84,509.24,1021.84,509.24Z" transform="translate(-949.37 -475.53)"/><path class="cls-10" d="M1029.44,512.41c1.8,2.83,3.72,10.69-1.68,12.91l-4-7.57,2.18-5.91Z" transform="translate(-949.37 -475.53)"/><path class="cls-11" d="M1039.3,509.67s-4.27,6.11-2,9.27a2.9,2.9,0,0,0,2,4.48c3.13.62,3.85-2.94,2.71-4.29,0,0,.4,1.75-.65,2.28s-1.86-.57-1.17-1.7-1.06-2.41-.2-4.84a51.07,51.07,0,0,1,2.42-5.29s1.1-4.43-1.7-6.14c0,0-1.17-3.51-4-3C1036.76,500.44,1039.66,506,1039.3,509.67Z" transform="translate(-949.37 -475.53)"/><path class="cls-10" d="M1040,513a2.46,2.46,0,0,0-1.58-1.5,2.31,2.31,0,0,0-.84-.24,1.5,1.5,0,0,0-1.17.66,2.89,2.89,0,0,0-.45,1.31,11,11,0,0,0,0,2.22c.1,1.24.24,2.47.41,3.7a1.29,1.29,0,0,0,.33.84,1.26,1.26,0,0,0,.79.22,2.28,2.28,0,0,0,1.78-.39,3,3,0,0,0,.57-1.63c.2-1,.71-1.91.82-2.92a6.92,6.92,0,0,0-.07-1.64,2.44,2.44,0,0,0-.25-1,1.26,1.26,0,0,0-1.52-.5" transform="translate(-949.37 -475.53)"/><path class="cls-12" d="M1024.36,513.52c-2.12,2-3.7,3.44-2.32,6.45,1.61,3.52,3.56,2.24,3.28,3.52,0,0,3.91-1.54,2.25-2.43s-1.52-2.59-.54-3.9,1.69-4.86,1.69-4.86c-1.4-3-1-3.65-1-3.65Z" transform="translate(-949.37 -475.53)"/><path class="cls-13" d="M1028.69,509.94a.71.71,0,0,0,0,.38,2.11,2.11,0,0,1-.12,1.77,1.3,1.3,0,0,0-.27.44c-.12.46.23,1,.2,1.5a2.52,2.52,0,0,1-.4.93,2.25,2.25,0,0,0,.08,1.76c.22.41.58.72.64,1.23a1.45,1.45,0,0,1-.24.89,3.21,3.21,0,0,0-.41.73,1.1,1.1,0,0,0,.08.94c.11.15.27.2.37.37a.88.88,0,0,1-.11.86,1,1,0,0,0-.12.2.62.62,0,0,0,0,.48c.07.14.2.21.3.17a.7.7,0,0,1-.55-.2.66.66,0,0,1-.08-.75.83.83,0,0,0,.15-.11.56.56,0,0,0,0-.58,1.06,1.06,0,0,0-.4-.31,1.16,1.16,0,0,1-.59-.83,1.08,1.08,0,0,1,.31-.93,1.11,1.11,0,0,0,.35-.39,1.3,1.3,0,0,0-.13-1,8.36,8.36,0,0,0-.89-1.13,1.79,1.79,0,0,1-.36-1.52c.15-.39.52-.52.59-1a1.42,1.42,0,0,0-.2-.88c-.14-.25-.31-.46-.44-.73a1.73,1.73,0,0,1,.19-1.83.81.81,0,0,0,.29-.24c.17-.29,0-.78,0-1.2a1.76,1.76,0,0,1,.6-1.35.61.61,0,0,1,.71,0c.07.3.53,1.47.54,1.76Z" transform="translate(-949.37 -475.53)"/><path class="cls-14" d="M1039.13,523.47s-2.91,6.14-6,6.26c-5,.19-11.07-5.71-9.7-6.71.65-.47,5.48-1.63,5.65-2.63a8.87,8.87,0,0,0,.12-1,20.24,20.24,0,0,0-.33-4.4s.63-.33,1.54-.71c2.51-1.08,7.19-2.62,6.86.86A14.8,14.8,0,0,0,1039.13,523.47Z" transform="translate(-949.37 -475.53)"/><path class="cls-15" d="M1037.25,515.71s-2.28,8.06-8,3.63a29.29,29.29,0,0,0-.49-5.44s-.23.22.69-.17l8.11.17Z" transform="translate(-949.37 -475.53)"/><path class="cls-16" d="M1026.2,507.5s-.71-9.2,7-7.65c5.7-2.66,6.22,3.81,5.15,10.52S1026.2,507.5,1026.2,507.5Z" transform="translate(-949.37 -475.53)"/><path class="cls-14" d="M1033.63,517.88c-3.25,0-6.3-4.54-6.23-8.7s.84-7.62,4.72-7.62a5.37,5.37,0,0,1,.7,0c1.59.18,3.54-.21,4.48.89l0,0a8.07,8.07,0,0,1,1.79,4.52C1039.41,511.75,1036.44,517.88,1033.63,517.88Z" transform="translate(-949.37 -475.53)"/><path class="cls-17" d="M1027,523.17a26.85,26.85,0,0,0,3.14,1,4.13,4.13,0,0,1,2,.82" transform="translate(-949.37 -475.53)"/><path class="cls-17" d="M1039.84,523.17a26.85,26.85,0,0,1-3.14,1,4.13,4.13,0,0,0-2,.82" transform="translate(-949.37 -475.53)"/><polygon class="cls-18" points="69.76 51.53 69.76 51.53 69.76 51.53 69.76 51.53"/><path d="M1043.26,527.05" transform="translate(-949.37 -475.53)"/><path class="cls-19" d="M1027.51,511.72c-2.2-.79-2-4.61-1.14-4.61a1.57,1.57,0,0,1,1.11.59Z" transform="translate(-949.37 -475.53)"/><path class="cls-20" d="M1024.08,521.56c-.78,1.82.89,2.72,2.36,3.82a3.9,3.9,0,0,0,3.59.62s-2.27.8-4.28-2.72c0,0-.08.3-.12.28C1024.73,523.16,1024.08,521.56,1024.08,521.56Z" transform="translate(-949.37 -475.53)"/><path class="cls-21" d="M1027,509.43a.79.79,0,0,0-.54-.38,2.35,2.35,0,0,1,.22-.82.1.1,0,0,0,0-.12.09.09,0,0,0-.13,0,2.12,2.12,0,0,0,.07,2.1.09.09,0,0,0,.08,0l0,0a.09.09,0,0,0,0-.13,1.51,1.51,0,0,1-.28-.9.63.63,0,0,1,.39.28.09.09,0,0,0,.08.05h0A.1.1,0,0,0,1027,509.43Z" transform="translate(-949.37 -475.53)"/><path class="cls-19" d="M1027.83,507.54a2.18,2.18,0,0,0-1.19-.56c-.4-.06-.69.37-.78.86l1.92.28Z" transform="translate(-949.37 -475.53)"/><path class="cls-22" d="M1039.38,516.56a1.82,1.82,0,0,1,.2,2.12c-.32.53-.94,1-.94,1.57a1.44,1.44,0,0,0,.62,1,4.93,4.93,0,0,1,.93.83.92.92,0,0,1,0,1.15c-.18.2-.48.27-.62.49s0,.8.37,1a1.44,1.44,0,0,1,.27.22.51.51,0,0,1-.47.83,1.65,1.65,0,0,0,1-.31c.27-.24.31-.75,0-.91-.1,0-.21-.07-.3-.12a.49.49,0,0,1,0-.71,1.7,1.7,0,0,1,.68-.42,1.43,1.43,0,0,0,1-1.08,1.23,1.23,0,0,0-.77-1.08,2.18,2.18,0,0,1-.74-.43,1.07,1.07,0,0,1,0-1.23c.35-.6.7-2.48,1.17-3" transform="translate(-949.37 -475.53)"/><path class="cls-23" d="M1037.71,513.86c1.67,2.15-2.25,4.63-.36,6.53,1,.79,1.77,1.81.58,2.36a.82.82,0,0,0-.45.88c.15.81.88,2-.07,2.22,2-.48.77-1.48,1-2.29a.41.41,0,0,1,.19-.24c.64-.39,1.48-.46,1.66-1.35-2.12-3.62-1.74-2.22.65-6.37,0,0-1.91-6.72-2.16-5.31A24.17,24.17,0,0,1,1037.71,513.86Z" transform="translate(-949.37 -475.53)"/><path class="cls-24" d="M1023,520.57c-.09,0-.3.6-.26.68,1.69,3.24,6.46,1.89,5.94,4.57-.31,1.56-3,1.15-2.67-.28,0,0-.7,1.19.91,1.84,2.17.9,3.19-1.82,2.26-3.62a28.55,28.55,0,0,0-2.55-3.45A24.89,24.89,0,0,1,1023,520.57Z" transform="translate(-949.37 -475.53)"/><path class="cls-25" d="M1037.25,501.9a3.56,3.56,0,0,0-.61-2c-.89-1.21-2.08-1.08-3.57-1.15-.63,0-1.27,0-1.9,0a6.79,6.79,0,0,0-2.42.34,5.2,5.2,0,0,0-1.48.93c-2.27,1.93-3.24,3.63-3,6.6a2.76,2.76,0,0,1,0,.86c-.1.45-2.28,5.35-2.28,6.73,0,2.86,3.12,1.81,2.54,3.37-.23.63-1.45,1.41-1.41,2.09s.72,1.24,1.38,1.54a2.61,2.61,0,0,1,1,.6.7.7,0,0,1,0,1c-.14.08-.3.1-.44.17-.45.23-.4,1,0,1.31a2.71,2.71,0,0,0,1.27.49,1.55,1.55,0,0,1-.6-.4.74.74,0,0,1,.08-.83,1.72,1.72,0,0,1,.4-.31c.48-.34.85-1,.53-1.48-.21-.32-.63-.43-.89-.7a1.35,1.35,0,0,1,0-1.66,7.22,7.22,0,0,1,1.34-1.18,2.08,2.08,0,0,0,.89-1.5c0-.89-1.36-1.36-1.35-2.25,0-2.4,1.53-2.21,1.25-4.59-.19-1.62-.74-1.85-.6-3.19a5.53,5.53,0,0,1,1.06-2.31,3.38,3.38,0,0,1,1.87-1.54,8.81,8.81,0,0,1,2.87-.61c3.89-.39,5.78,3.21,6.09,3A22.25,22.25,0,0,1,1037.25,501.9Z" transform="translate(-949.37 -475.53)"/><path class="cls-7" d="M1036.28,502.18a2.71,2.71,0,0,0-1.13-1,2.85,2.85,0,0,0-2.27-.08c-.48.19-.9.51-1.38.68-1.21.42-1.83.14-3.11.23-2,.14-1.38,5.39-.62,6.73,0,0,0-.12,0-.31a3.92,3.92,0,0,1,.2-.69,4,4,0,0,0,.14-1.88,2.85,2.85,0,0,1,.39-1.57,2.63,2.63,0,0,1,1-1s0,0,0,0a2.92,2.92,0,0,1,.81-.4,8.81,8.81,0,0,1,2.87-.61c1.88-.19,3.77.8,4,1.26A9.4,9.4,0,0,0,1036.28,502.18Z" transform="translate(-949.37 -475.53)"/><path class="cls-26" d="M1042.52,509.2a5.79,5.79,0,0,0,.16-1.66c0-1.39-.11.43-1.65-.51a7.65,7.65,0,0,1,1,1A3.35,3.35,0,0,1,1042.52,509.2Z" transform="translate(-949.37 -475.53)"/><path class="cls-27" d="M1018,562.67s-1.52,2.29-6,3.14c-2.09.39-3.19.75-3.58,2.36a5,5,0,0,0,.82,4.14,3.51,3.51,0,0,0,3.53,1.71c3.71-1.18,2.89-5.21,6.66-4.57C1021.66,569.84,1018,562.67,1018,562.67Z" transform="translate(-949.37 -475.53)"/><path class="cls-28" d="M1009.38,567.09s-1.06,2.62,0,4.38a4.31,4.31,0,0,0,3.45,2.12" transform="translate(-949.37 -475.53)"/><path class="cls-28" d="M1011.52,567.48a1.94,1.94,0,0,0,1.32.85c.85.08,3.69-2.54,5.32-2.56" transform="translate(-949.37 -475.53)"/><path class="cls-28" d="M1018.3,567.07c-.09,0-3.82,1.61-4.36,2.4a2,2,0,0,0-.26,1.66" transform="translate(-949.37 -475.53)"/><path class="cls-29" d="M1012.85,567.48a4.24,4.24,0,0,1,1.56,2.64" transform="translate(-949.37 -475.53)"/><path class="cls-29" d="M1013.86,566.92a4.24,4.24,0,0,1,1.56,2.65" transform="translate(-949.37 -475.53)"/><path class="cls-29" d="M1014.87,566.21a4.24,4.24,0,0,1,1.56,2.65" transform="translate(-949.37 -475.53)"/><path class="cls-28" d="M1011.17,568.11a3.42,3.42,0,0,1,2,3.25" transform="translate(-949.37 -475.53)"/><path class="cls-30" d="M1017,566.82s-1.49,3-1,3.5S1017.08,567.05,1017,566.82Z" transform="translate(-949.37 -475.53)"/><path class="cls-30" d="M1017,566.82s-.09,3.34.55,3.61S1017.19,567,1017,566.82Z" transform="translate(-949.37 -475.53)"/><path class="cls-27" d="M1046.56,566.58a15.5,15.5,0,0,1,4.12,1.09c1.55.77,7.08,4,9.49,3.14s3.25-3.51,1.76-5c-2.71-2.72-8.19-2.1-10.13-2.51a38.82,38.82,0,0,0-4.33-.77Z" transform="translate(-949.37 -475.53)"/><path class="cls-31" d="M1058.84,570.62s2.49-.44,2.89-2.33-.46-2.72-.76-2.91" transform="translate(-949.37 -475.53)"/><path class="cls-31" d="M1058,569.21a3.23,3.23,0,0,1,.94-3.47" transform="translate(-949.37 -475.53)"/><path class="cls-31" d="M1051.74,564.58s4.64,1.71,5.26,1.39l1.59-.86" transform="translate(-949.37 -475.53)"/><path class="cls-31" d="M1051.12,566.41s4.94,1,5.42,1.48a3.15,3.15,0,0,1,.71,1.18" transform="translate(-949.37 -475.53)"/><path class="cls-32" d="M1055.38,568.07a4,4,0,0,1,.71-2.83" transform="translate(-949.37 -475.53)"/><path class="cls-32" d="M1054.32,567.76a4,4,0,0,1,.72-2.82" transform="translate(-949.37 -475.53)"/><path class="cls-32" d="M1053.17,567.57a4,4,0,0,1,.71-2.83" transform="translate(-949.37 -475.53)"/><path class="cls-33" d="M1052,565.3s-1.21,2.93-.74,3.38S1052.05,565.51,1052,565.3Z" transform="translate(-949.37 -475.53)"/><path class="cls-33" d="M1052,565.3s.14,3.16.76,3.38S1052.15,565.46,1052,565.3Z" transform="translate(-949.37 -475.53)"/><path class="cls-34" d="M1019.57,551.71s16.27-7.34,26.54,1S1024.21,556.32,1019.57,551.71Z" transform="translate(-949.37 -475.53)"/><path class="cls-35" d="M1050.33,532l-.76-3.08a22.48,22.48,0,0,0-2.23-4.89c-1-1.36-5.29-2.1-8.58-3.56a88.09,88.09,0,0,0-5.6,9.24,104,104,0,0,0-5.56-9c-2.51,1.1-7.2,3.18-8.55,4-1.86,1.16-4.28,9.13-4.28,9.13s-3.55,10.22,0,12.1c1.37.72,5.43-3.41,7.78-5.25,1.11,3.39.47,6.27.08,6.63a2,2,0,0,0-.56,1.31.8.8,0,0,0-.76.87c0,.85-1.06,1-.43,1.77.23.28,1.67,0,4.78-.46,5.16,2.49,10.13.87,14-.81a11.49,11.49,0,0,1,2.8.7c2.25-.94,1.44-2.07,1.44-2.07s.18.08,0-.94a21.86,21.86,0,0,1-.3-6.54c1.76,1.08,6.53,3.31,8.28,2.37C1054,542.38,1050.33,532,1050.33,532Zm-28.43,1.81h17.78l-1.39,2.18,3.08,3.06-17.75-.28Z" transform="translate(-949.37 -475.53)"/><path class="cls-36" d="M1027.85,521.26s3.54,5.6,5.08,8.47" transform="translate(-949.37 -475.53)"/><path class="cls-36" d="M1038.42,520.47s-5.72,9-5.79,10-.25,3.27.16,4.17" transform="translate(-949.37 -475.53)"/><path class="cls-36" d="M1038.59,521.32s.92.11,1.13.41" transform="translate(-949.37 -475.53)"/><path class="cls-36" d="M1038,522s.92.12,1.13.42" transform="translate(-949.37 -475.53)"/><path class="cls-36" d="M1037.7,522.87s.92.12,1.13.41" transform="translate(-949.37 -475.53)"/><path class="cls-36" d="M1036.88,523.85s.92.11,1.13.41" transform="translate(-949.37 -475.53)"/><path class="cls-36" d="M1036.15,525.1s.92.12,1.13.41" transform="translate(-949.37 -475.53)"/><path class="cls-36" d="M1035.59,526.05s.92.12,1.12.41" transform="translate(-949.37 -475.53)"/><path class="cls-36" d="M1035,527s.91.11,1.12.41" transform="translate(-949.37 -475.53)"/><path class="cls-36" d="M1034.46,528.15s.92.12,1.13.42" transform="translate(-949.37 -475.53)"/><path class="cls-36" d="M1033.9,529.14s.92.12,1.13.41" transform="translate(-949.37 -475.53)"/><path class="cls-36" d="M1032.21,544.69s.86-.33,1.19-.16" transform="translate(-949.37 -475.53)"/><path class="cls-36" d="M1032.08,543.34s.87-.33,1.19-.16" transform="translate(-949.37 -475.53)"/><path class="cls-36" d="M1031.62,546.31s.93,0,1.18.22" transform="translate(-949.37 -475.53)"/><path class="cls-36" d="M1031.19,547.73s.91-.18,1.2,0" transform="translate(-949.37 -475.53)"/><path class="cls-36" d="M1031.29,549s.87-.33,1.19-.16" transform="translate(-949.37 -475.53)"/><path class="cls-36" d="M1031.44,550.29s.87-.33,1.19-.16" transform="translate(-949.37 -475.53)"/><path class="cls-36" d="M1033.34,530.31s.92.11,1.12.41" transform="translate(-949.37 -475.53)"/><path class="cls-36" d="M1033.11,531.47s.91.12,1.12.42" transform="translate(-949.37 -475.53)"/><path class="cls-36" d="M1033.11,532.64s.91.12,1.12.41" transform="translate(-949.37 -475.53)"/><path class="cls-36" d="M1046.72,524.05s-2.28,4.3-2.4,6.67-.59-2.36-.59-2.36" transform="translate(-949.37 -475.53)"/><path class="cls-36" d="M1018.78,525.1s3.79,6,3.76,7.95-1.1-1.58-1.1-1.58.4,2,0,1.91-.53-1-.53-1" transform="translate(-949.37 -475.53)"/><path class="cls-14" d="M1046.51,535.18a1,1,0,0,0,0-.18h0l0-.08a2.1,2.1,0,0,0-.13-.26l-.08-.13a2,2,0,0,0-1.1-.9,7.89,7.89,0,0,1-1.55-.68c-.71-.33-1.3-1-1.46-.92s.1.61.27,1a2.08,2.08,0,0,0,.44.49A20.06,20.06,0,0,0,1046.51,535.18Z" transform="translate(-949.37 -475.53)"/><path class="cls-14" d="M1029,539c-.06.1-2,1.78-3.11,1.55s-1.85-.47-1.89-1.18.47-4.15-.2-5a18.44,18.44,0,0,1-2.13-4c-.37-1.08-.41-1.76-.2-2.08s1-.51,1-.51a2,2,0,0,1,1.44-.54s.69-.77,1.43-.59c0,0-.28-1.74-.32-1.88-.41-1.49-1.12-3-.86-3.27s.8.53,1,.88a12.21,12.21,0,0,1,.88,2.34,35.94,35.94,0,0,0,1.86,5c.24.17.8-.36,1.33-1,.35-.42,2.11-1.83,2.31-1.51s-.33.46-.75,1.27-.92,1.93-1.22,2.47a10.45,10.45,0,0,1-1.27,1.75C1027.05,534.16,1029.63,538.06,1029,539Z" transform="translate(-949.37 -475.53)"/><path class="cls-37" d="M1022.21,530.3s.5,1.84.88,1.76-.36-3.43-.36-3.43" transform="translate(-949.37 -475.53)"/><path class="cls-37" d="M1022.91,529.47s1.1,2.84,1.51,2.81-.4-3.54-.53-4.19" transform="translate(-949.37 -475.53)"/><path class="cls-37" d="M1024.06,528.92s1,2.57,1.37,2.53-.25-3.26-.38-3.91" transform="translate(-949.37 -475.53)"/><path class="cls-34" d="M1015.11,558.89c-3.88-1-8-4.47-7.45-7.17.71-3.82,4.79-4.33,7.08-4.3a7.07,7.07,0,0,1,2.61.53L1043,558.41l1.44,3.61S1018.21,559.71,1015.11,558.89Z" transform="translate(-949.37 -475.53)"/><path class="cls-34" d="M1052,557.6c3.91-.91,8.08-4.24,7.65-7-.61-3.93-4.84-4.49-7.11-4.5a7,7,0,0,0-2.42.44l-26,9.74-1.55,3.57S1048.85,558.33,1052,557.6Z" transform="translate(-949.37 -475.53)"/><path class="cls-38" d="M1054.21,558l-32.52,10.88-2.24.75-2.71-6.08,2.09-1.06c6.77-3.44,27.72-14,30.34-14.8,3.92-1.16,9.31-.36,10.32,2.21C1061.5,555,1054.21,558,1054.21,558Z" transform="translate(-949.37 -475.53)"/><polygon class="cls-39" points="72.65 94.09 69.96 95.1 66.36 87.3 68.96 85.83 69.47 86.97 72.33 93.36 72.65 94.09"/><path class="cls-40" d="M1054.21,558l-32.52,10.88.33.74-2.69,1-3.61-7.8,2.61-1.47.5,1.14c6.77-3.44,27.72-14,30.34-14.8,3.92-1.16,9.31-.36,10.32,2.21C1061.5,555,1054.21,558,1054.21,558Z" transform="translate(-949.37 -475.53)"/><path class="cls-41" d="M1014.16,560c-3.76-1.61-7.4-5.67-6.53-8.3,1.71-5.21,9.23-2.86,9.23-2.86L1051,562.12l-1.79,6.41S1017.15,561.32,1014.16,560Z" transform="translate(-949.37 -475.53)"/><polygon class="cls-42" points="97.25 93.68 99.69 84.96 102.4 85.91 100.19 94.22 97.25 93.68"/><path class="cls-36" d="M1020,535.91a8.91,8.91,0,0,0-3.74,2.64" transform="translate(-949.37 -475.53)"/><path class="cls-36" d="M1019.42,535.25s1.5.52,0,.84a4.55,4.55,0,0,1-1.83.2" transform="translate(-949.37 -475.53)"/><path class="cls-36" d="M1047.66,535.56a3.68,3.68,0,0,1,2.42,1.23" transform="translate(-949.37 -475.53)"/><path class="cls-36" d="M1049,536c0-.11-.92-.59-1-1.59" transform="translate(-949.37 -475.53)"/><path class="cls-36" d="M1031.88,542.81a1,1,0,0,0-.25,1.45c.52,1-1.17,3.23-.83,4s-.22,2.58,1.09,2.51" transform="translate(-949.37 -475.53)"/><path class="cls-43" d="M1017.14,548.2s4,1.73,4.06,2.18c0,0-5.19-2.28-8.12-2.08" transform="translate(-949.37 -475.53)"/><path class="cls-43" d="M1049,547.18s-2.69,1.44-2.52,1.86c0,0,3.1-2.1,6-1.86" transform="translate(-949.37 -475.53)"/><path class="cls-43" d="M1034.84,555.84s4.51,2.38,5.72,2.57a7.51,7.51,0,0,1,2.93,1c.38.34,1.25-.25,2.44.46l1.18.71" transform="translate(-949.37 -475.53)"/><path class="cls-43" d="M1023.21,562.48a8.75,8.75,0,0,0,3.39.82c1.73,0,1.64.39,2.67.63s2,.77,2.59.89" transform="translate(-949.37 -475.53)"/><path class="cls-44" d="M1040.89,542.15h-16.81a1.25,1.25,0,0,1-1.28-.94l-1.2-9.37a1.19,1.19,0,0,1,1.25-1.36l19.35-.13a1.2,1.2,0,0,1,1.28,1.29l-1.33,9.5A1.23,1.23,0,0,1,1040.89,542.15Z" transform="translate(-949.37 -475.53)"/><path class="cls-14" d="M1046.37,537.46a13.9,13.9,0,0,0,.13-2v0a1.26,1.26,0,0,0-1.08-1.26c-1.16-.18-3.06-.45-3-.4a5.68,5.68,0,0,0-2.72.51.83.83,0,0,0-.34.59l-.31.11h0c-.22.1-.49.26-.52.48a.7.7,0,0,0,.07.43.63.63,0,0,0,.28.33.45.45,0,0,0-.09.56.55.55,0,0,0,.08.15,2.06,2.06,0,0,0,1,.53.36.36,0,0,0,0,.36.91.91,0,0,0,.42.44,29.93,29.93,0,0,1,3.16,1.42,1.31,1.31,0,0,0,1.68-.07A6.06,6.06,0,0,0,1046.37,537.46Z" transform="translate(-949.37 -475.53)"/><path class="cls-37" d="M1039.64,535a10.21,10.21,0,0,1,4.82.41" transform="translate(-949.37 -475.53)"/><path class="cls-37" d="M1039.07,536.12a10.27,10.27,0,0,1,4.82.42" transform="translate(-949.37 -475.53)"/><path class="cls-37" d="M1040,537.43a9.15,9.15,0,0,1,3.66.78" transform="translate(-949.37 -475.53)"/><path class="cls-45" d="M1032.75,537.53a1.51,1.51,0,0,1-1.38-1.36,1.39,1.39,0,0,1,2.78,0A1.46,1.46,0,0,1,1032.75,537.53Zm0-.8c.24,0,.46-.19.46-.56s-.22-.55-.45-.55-.45.17-.45.55S1032.51,536.73,1032.75,536.73Z" transform="translate(-949.37 -475.53)"/><path class="cls-46" d="M1038.44,512.36a10.51,10.51,0,0,0-.29,2.44c.09.87.69,1.94.62,2.31a2.61,2.61,0,0,1-.61,1.55,2.53,2.53,0,0,0-.34,2.2c.23.59.94,1.7,1.64,1.81,3.22.5,3.74-2.19,2.6-3.54,0,0,.4,1.75-.65,2.28s-1.86-.57-1.17-1.7,2.15-2.16,1.6-4.68c-.87-4,1.09-6.12.59-7.39A5.76,5.76,0,0,0,1038.44,512.36Z" transform="translate(-949.37 -475.53)"/><path class="cls-47" d="M1036.64,502.57c1,1.33,2.6,6.62,2,8.62s.31,2.83,1.74,4.11a1.3,1.3,0,0,1-.37,2.08s1,.1,2.28-1.53c.39-.5,1.3-1.85-.19-2.53-1.29-.59,2.3-2.42-.34-5.55l-2.1-2.13Z" transform="translate(-949.37 -475.53)"/><path class="cls-48" d="M1037.72,503.16a.68.68,0,0,1,0,.35,2,2,0,0,0,.49,1.6c.12.11.26.18.34.35.22.39,0,1,.15,1.42s.37.51.56.77a2.09,2.09,0,0,1,.31,1.63,3.26,3.26,0,0,0-.32,1.27,1.29,1.29,0,0,0,.41.76,3.34,3.34,0,0,1,.54.58,1.1,1.1,0,0,1,.13.89c-.07.16-.21.23-.26.41a.81.81,0,0,0,.28.77s.11.09.16.15a.6.6,0,0,1,.08.45c0,.15-.13.24-.24.22a.63.63,0,0,0,.47-.3c.11-.2.08-.6-.09-.7a.77.77,0,0,1-.16-.07.53.53,0,0,1-.09-.55.87.87,0,0,1,.29-.36,1.07,1.07,0,0,0,.37-.89,1,1,0,0,0-.48-.79,1.2,1.2,0,0,1-.41-.28,1.26,1.26,0,0,1-.1-1,7,7,0,0,1,.58-1.23,1.74,1.74,0,0,0,0-1.48c-.22-.33-.59-.36-.75-.76a1.37,1.37,0,0,1,0-.85c.08-.26.19-.49.25-.77a1.66,1.66,0,0,0-.56-1.64.67.67,0,0,1-.32-.15c-.23-.23-.18-.72-.26-1.11a1.63,1.63,0,0,0-.83-1.11c-.28-.15-.67,0-.67.12,0,.29-.17,1.46-.12,1.73Z" transform="translate(-949.37 -475.53)"/><rect class="cls-4" x="958.03" y="510.3" width="33.68" height="26.4" transform="translate(549.01 -926.9) rotate(90)"/><rect class="cls-49" x="963.81" y="508.8" width="22.12" height="29.4" transform="translate(1000.38 571.47) rotate(180)"/><polygon class="cls-50" points="14.45 47.84 20.57 43.86 27.99 51.58 33.42 47.01 36.56 50.31 36.56 62.67 14.45 62.67 14.45 47.84"/><circle class="cls-35" cx="31.61" cy="40.48" r="3.38"/><polygon class="cls-5" points="52.15 65.16 36.56 65.16 28.09 65.16 22.63 65.16 22.63 70.55 29.93 67.72 52.15 67.72 52.15 65.16"/></svg>