<svg xmlns="http://www.w3.org/2000/svg" viewBox="0 0 248.69 64.1"><defs><style>.cls-1{fill:#fff;}</style></defs><g id="Footer"><path class="cls-1" d="M12.23,61.1a22.12,22.12,0,0,1-9-8.58A25.6,25.6,0,0,1,0,39.39a25.16,25.16,0,0,1,3.3-13,22.6,22.6,0,0,1,9-8.58,27.35,27.35,0,0,1,12.92-3,27.35,27.35,0,0,1,12.92,3,22.6,22.6,0,0,1,9,8.58,25.16,25.16,0,0,1,3.3,13.05,25.38,25.38,0,0,1-3.3,13.09A22.37,22.37,0,0,1,38.1,61.1a27.57,27.57,0,0,1-13,3A27.31,27.31,0,0,1,12.23,61.1ZM31,46.9q2.36-2.62,2.36-7.51T31,31.92a7.56,7.56,0,0,0-5.79-2.57,7.45,7.45,0,0,0-5.75,2.57c-1.54,1.72-2.32,4.21-2.32,7.47s.75,5.83,2.23,7.55a7.26,7.26,0,0,0,5.75,2.58A7.57,7.57,0,0,0,31,46.9Z"/><path class="cls-1" d="M74.14,0V63.5H57.32V0Z"/><path class="cls-1" d="M83.71,26.34a20.62,20.62,0,0,1,7.38-8.58,18.91,18.91,0,0,1,10.43-3,17.68,17.68,0,0,1,8.58,2,14.37,14.37,0,0,1,5.58,5.32V15.36H132.5V63.5H115.68V56.81a14.17,14.17,0,0,1-5.63,5.32,17.59,17.59,0,0,1-8.53,2,18.91,18.91,0,0,1-10.43-3,20.49,20.49,0,0,1-7.38-8.62A29.92,29.92,0,0,1,81,39.39,29.65,29.65,0,0,1,83.71,26.34Zm29.44,5.75a8.73,8.73,0,0,0-12.49,0c-1.66,1.75-2.49,4.19-2.49,7.34a10.41,10.41,0,0,0,2.49,7.34,8.16,8.16,0,0,0,6.26,2.7,8.29,8.29,0,0,0,6.23-2.66,10.31,10.31,0,0,0,2.53-7.38A10.21,10.21,0,0,0,113.15,32.09Z"/><path class="cls-1" d="M186.81,20.47q4.91,5.54,4.9,15V63.5H174.89V37.67a9.3,9.3,0,0,0-2.15-6.48A7.4,7.4,0,0,0,167,28.84a7.6,7.6,0,0,0-5.92,2.35,9.3,9.3,0,0,0-2.15,6.48V63.5H142.11V15.36h16.81v6.87a16.51,16.51,0,0,1,6-5.28,18.07,18.07,0,0,1,8.67-2Q181.93,14.93,186.81,20.47Z"/><path class="cls-1" d="M210.46,61.1a22.06,22.06,0,0,1-9-8.58,25.51,25.51,0,0,1-3.26-13.13,25.16,25.16,0,0,1,3.3-13,22.54,22.54,0,0,1,9-8.58,29.3,29.3,0,0,1,25.83,0,22.48,22.48,0,0,1,9,8.58,25.16,25.16,0,0,1,3.31,13.05,25.39,25.39,0,0,1-3.31,13.09,22.29,22.29,0,0,1-9,8.62,29.39,29.39,0,0,1-25.87,0Zm18.79-14.2q2.35-2.62,2.36-7.51t-2.36-7.47a7.57,7.57,0,0,0-5.79-2.57,7.43,7.43,0,0,0-5.75,2.57q-2.33,2.58-2.32,7.47c0,3.32.74,5.83,2.23,7.55a7.25,7.25,0,0,0,5.75,2.58A7.57,7.57,0,0,0,229.25,46.9Z"/></g></svg>