<?xml version="1.0" encoding="utf-8"?>
<!-- Generator: Adobe Illustrator 25.2.3, SVG Export Plug-In . SVG Version: 6.00 Build 0)  -->
<svg version="1.1" id="Layer_1" xmlns="http://www.w3.org/2000/svg" xmlns:xlink="http://www.w3.org/1999/xlink" x="0px" y="0px"
	 viewBox="0 0 1920 1080" style="enable-background:new 0 0 1920 1080;" xml:space="preserve">
<style type="text/css">
	.st0{fill:#FE3845;}
	.st1{display:none;fill:#FFEFD4;}
	.st2{display:none;opacity:0.2;fill:#3E4049;enable-background:new    ;}
	.st3{display:none;}
	.st4{display:inline;}
	.st5{fill:none;stroke:#FFB24D;stroke-width:2;stroke-miterlimit:10;}
	.st6{fill:#FFC050;}
	.st7{display:inline;opacity:7.000000e-02;}
	.st8{display:inline;opacity:0.1;}
	.st9{fill:none;stroke:#FFB24D;stroke-miterlimit:10;}
	.st10{fill:#FFFFFF;stroke:#FFFFFF;stroke-width:1.2608;stroke-miterlimit:10;}
	.st11{fill:#4C4C4D;}
	.st12{opacity:0.5;fill:none;stroke:#FFFFFF;stroke-width:2.3795;stroke-miterlimit:10;enable-background:new    ;}
	.st13{fill:#00AF85;}
	.st14{opacity:0.65;fill:#318C69;enable-background:new    ;}
	.st15{fill:#2C6E57;}
	.st16{fill:none;stroke:#2C6E57;stroke-linecap:round;stroke-linejoin:round;stroke-miterlimit:10;}
	
		.st17{display:inline;fill:none;stroke:#2C6E57;stroke-width:0.7384;stroke-linecap:round;stroke-linejoin:round;stroke-miterlimit:10;}
	.st18{display:inline;fill:#DA3C46;}
	.st19{fill:#312F2F;}
	.st20{fill:url(#SVGID_1_);}
	.st21{fill:none;stroke:#312F2F;stroke-width:0.7633;stroke-linecap:round;stroke-miterlimit:10;}
	.st22{fill:url(#SVGID_2_);}
	.st23{fill:url(#SVGID_3_);}
	.st24{fill:none;stroke:#7B473B;stroke-width:0.5909;stroke-linecap:round;stroke-miterlimit:10;}
	.st25{fill:#595959;}
	.st26{fill:url(#SVGID_4_);}
	.st27{fill:#5C5C5C;}
	.st28{fill:none;stroke:#434343;stroke-width:0.7688;stroke-linecap:round;stroke-miterlimit:10;}
	.st29{fill:none;stroke:#434343;stroke-width:0.7688;stroke-linecap:round;stroke-linejoin:round;stroke-miterlimit:10;}
	.st30{display:inline;fill:url(#SVGID_5_);}
	.st31{display:inline;fill:#85533E;}
	.st32{display:inline;fill:url(#SVGID_6_);}
	.st33{display:inline;fill:url(#SVGID_7_);}
	.st34{display:inline;fill:none;stroke:#7B473B;stroke-width:0.5432;stroke-linecap:round;stroke-miterlimit:10;}
	.st35{display:inline;fill:none;stroke:#7B473B;stroke-width:0.4504;stroke-linecap:round;stroke-miterlimit:10;}
	.st36{display:inline;fill:#503A32;}
	.st37{display:inline;opacity:0.26;fill:url(#SVGID_8_);enable-background:new    ;}
	.st38{display:inline;fill:#452821;}
	.st39{display:inline;fill:none;}
	.st40{fill:none;stroke:#452821;stroke-width:0.5432;stroke-linecap:round;stroke-miterlimit:10;}
	.st41{fill:url(#SVGID_9_);}
	.st42{display:inline;fill:url(#SVGID_10_);}
	
		.st43{display:inline;fill:none;stroke:#64473F;stroke-width:0.5724;stroke-linecap:round;stroke-linejoin:round;stroke-miterlimit:10;}
	.st44{display:inline;fill:url(#SVGID_11_);}
	.st45{display:inline;fill:url(#SVGID_12_);}
	.st46{display:inline;opacity:0.2;fill:#3E4049;enable-background:new    ;}
	.st47{display:inline;fill:#FFEFD4;}
	.st48{display:inline;fill:url(#SVGID_13_);}
	.st49{display:inline;fill:#FABE4C;}
	.st50{display:inline;fill:#91584A;}
	.st51{display:inline;fill:url(#SVGID_14_);}
	.st52{display:inline;fill:url(#SVGID_15_);}
	.st53{display:inline;opacity:0.71;fill:#773C38;enable-background:new    ;}
	.st54{display:inline;fill:none;stroke:#7B473B;stroke-width:0.5076;stroke-linecap:round;stroke-miterlimit:10;}
	.st55{display:inline;fill:none;stroke:#7B473B;stroke-width:0.525;stroke-linecap:round;stroke-miterlimit:10;}
	.st56{display:inline;fill:#204392;}
	.st57{fill:url(#SVGID_16_);}
	.st58{fill:url(#SVGID_17_);}
	.st59{fill:url(#SVGID_18_);}
	.st60{display:inline;fill:url(#SVGID_19_);}
	.st61{display:inline;fill:url(#SVGID_20_);}
	.st62{display:inline;fill:#FFFFFF;}
	.st63{display:inline;fill:url(#SVGID_21_);}
	.st64{display:inline;fill:none;stroke:url(#SVGID_22_);stroke-width:0.8225;stroke-linecap:round;stroke-miterlimit:10;}
	.st65{display:inline;fill:none;stroke:url(#SVGID_23_);stroke-width:0.8225;stroke-linecap:round;stroke-miterlimit:10;}
	.st66{display:inline;fill:url(#SVGID_24_);}
	.st67{display:inline;fill:none;stroke:#7B473B;stroke-width:0.4609;stroke-linecap:round;stroke-miterlimit:10;}
	.st68{fill:url(#SVGID_25_);}
	.st69{fill:url(#SVGID_26_);stroke:#7B473B;stroke-width:0.6375;stroke-linecap:round;stroke-miterlimit:10;}
	.st70{fill:url(#SVGID_27_);stroke:#7B473B;stroke-width:0.6375;stroke-linecap:round;stroke-miterlimit:10;}
	.st71{display:inline;opacity:0.38;fill:#BFB39F;enable-background:new    ;}
	.st72{display:inline;fill:#B67854;}
	.st73{display:inline;fill:#DBB49B;}
	.st74{display:inline;fill:url(#SVGID_28_);}
	.st75{fill:url(#SVGID_29_);}
	.st76{fill:#7B8085;}
	.st77{fill:url(#SVGID_30_);}
	.st78{opacity:0.78;}
	.st79{fill:#FFFFFF;}
	.st80{display:inline;fill:url(#SVGID_31_);}
	.st81{display:inline;fill:none;stroke:#D1C39D;stroke-width:0.5432;stroke-linecap:round;stroke-miterlimit:10;}
	.st82{display:inline;fill:none;stroke:#FFEFD4;stroke-linecap:round;stroke-linejoin:round;stroke-miterlimit:10;}
	.st83{display:inline;fill:none;stroke:#FFEFD4;stroke-linecap:round;stroke-miterlimit:10;}
	.st84{display:inline;fill:none;stroke:#204392;stroke-linecap:round;stroke-miterlimit:10;}
	.st85{fill:#402C1A;}
	.st86{fill:#604127;}
	.st87{fill:#E6DDD6;}
	.st88{fill:#DA3C46;}
	.st89{fill:#20160D;}
	.st90{fill:none;stroke:#20160D;stroke-width:0.7478;stroke-miterlimit:10;}
	.st91{fill:#BF903C;}
	.st92{fill:url(#SVGID_32_);}
	.st93{fill:none;stroke:#7B473B;stroke-width:0.4838;stroke-linecap:round;stroke-miterlimit:10;}
	.st94{fill:url(#SVGID_33_);}
	.st95{fill:url(#SVGID_34_);}
	.st96{fill:#C26D50;}
	.st97{fill:#E8BD9A;}
	.st98{fill:none;stroke:#007F5E;stroke-width:1.0684;stroke-linecap:round;stroke-linejoin:round;stroke-miterlimit:10;}
	.st99{fill:url(#SVGID_35_);}
	.st100{fill:none;stroke:#7B473B;stroke-width:0.3968;stroke-linecap:round;stroke-miterlimit:10;}
	.st101{fill:url(#SVGID_36_);}
	.st102{opacity:0.2;fill:#3E4049;enable-background:new    ;}
	.st103{fill:url(#SVGID_37_);}
	.st104{fill:url(#SVGID_38_);}
	.st105{fill:url(#SVGID_39_);}
	.st106{fill:none;stroke:#7B473B;stroke-width:0.6233;stroke-linecap:round;stroke-miterlimit:10;}
	.st107{fill:#7B473B;}
	.st108{fill:url(#SVGID_40_);}
	.st109{fill:none;stroke:#7B473B;stroke-width:0.3948;stroke-linecap:round;stroke-miterlimit:10;}
	.st110{fill:#452821;}
	.st111{fill:none;stroke:#7B473B;stroke-width:0.6242;stroke-linecap:round;stroke-miterlimit:10;}
	.st112{fill:url(#SVGID_41_);}
	.st113{fill:url(#SVGID_42_);}
	.st114{fill:url(#SVGID_43_);}
	.st115{opacity:0.8;fill:#9D4D46;enable-background:new    ;}
	.st116{fill:#FFFFFF;stroke:#9D4D46;stroke-width:0.4249;stroke-linecap:round;stroke-linejoin:round;stroke-miterlimit:10;}
	.st117{fill:none;stroke:#452821;stroke-width:0.5192;stroke-linecap:round;stroke-miterlimit:10;}
	.st118{fill:url(#SVGID_44_);}
	.st119{fill:none;stroke:#7B473B;stroke-width:0.4841;stroke-linecap:round;stroke-miterlimit:10;}
	.st120{fill:url(#SVGID_45_);}
	.st121{fill:url(#SVGID_46_);}
	.st122{opacity:0.15;fill:#273336;enable-background:new    ;}
	.st123{opacity:0.13;fill:#273336;enable-background:new    ;}
	.st124{fill:#E1E1E1;}
	.st125{fill:none;stroke:#A9A9A9;stroke-width:0.8084;stroke-linecap:round;stroke-miterlimit:10;}
	.st126{fill:none;stroke:#FFFFFF;stroke-width:1.0778;stroke-linecap:round;stroke-miterlimit:10;}
	.st127{fill:none;stroke:#FFFFFF;stroke-width:1.0778;stroke-linecap:round;stroke-linejoin:round;stroke-miterlimit:10;}
	.st128{fill:url(#SVGID_47_);}
	.st129{fill:url(#SVGID_48_);}
	.st130{fill:none;stroke:#A9A9A9;stroke-width:1.0004;stroke-linecap:round;stroke-miterlimit:10;}
	.st131{fill:none;stroke:#FFFFFF;stroke-width:1.3339;stroke-linecap:round;stroke-miterlimit:10;}
	.st132{fill:none;stroke:#FFFFFF;stroke-width:1.3339;stroke-linecap:round;stroke-linejoin:round;stroke-miterlimit:10;}
	.st133{fill:url(#SVGID_49_);}
	.st134{fill:url(#SVGID_50_);}
	.st135{fill:none;stroke:#289CBF;stroke-width:1.0684;stroke-linecap:round;stroke-linejoin:round;stroke-miterlimit:10;}
	.st136{fill:url(#SVGID_51_);}
	.st137{fill:#C2EFFF;}
	.st138{fill:none;stroke:#EDEDED;stroke-width:0.5058;stroke-miterlimit:10;}
	.st139{fill:#00AF9E;}
	.st140{fill:none;stroke:#FFFFFF;stroke-width:0.8825;stroke-miterlimit:10;}
	.st141{fill:#B7D6E6;}
	.st142{display:inline;fill:url(#SVGID_52_);}
	.st143{fill:none;stroke:#F95F6D;stroke-width:2;stroke-miterlimit:10;}
	.st144{fill:#FE3845;stroke:#F95F6D;stroke-width:2;stroke-miterlimit:10;}
	.st145{fill:#FE3845;stroke:#F95F6D;stroke-width:1.9738;stroke-miterlimit:10;}
	.st146{fill:none;stroke:#F95F6D;stroke-width:2;stroke-linecap:round;stroke-miterlimit:10;}
	.st147{opacity:0.75;}
	.st148{fill:#3E4049;}
	.st149{fill:#FE3845;stroke:#F95F6D;stroke-width:1.9143;stroke-miterlimit:10;}
	.st150{fill:#FE3845;stroke:#FE5661;stroke-width:2.3864;stroke-miterlimit:10;}
	.st151{fill:#FE3845;stroke:#F95F6D;stroke-width:1.9313;stroke-miterlimit:10;}
	.st152{fill:none;stroke:#7B473B;stroke-width:0.5432;stroke-linecap:round;stroke-miterlimit:10;}
	.st153{display:none;fill:#FFFFFF;}
	.st154{fill:none;}
	.st155{fill:none;stroke:#F95F6D;stroke-width:1.891;stroke-miterlimit:10;}
</style>
<rect class="st0" width="1920" height="1080"/>
<path class="st1" d="M1019.6,583l-5.3-1.4c0.7,2.4,1.4,5.2,2.3,8.4c0.3,1,0.5,2.1,0.8,3.2c0.5,1.8,1,3.7,1.5,5.7
	c1.4,5.3,2.9,11.2,4.4,17.4c0.6,2.5,1.2,5,1.9,7.5c0.1,0.5,0.3,1,0.4,1.6c0,0.1,0.1,0.2,0.1,0.3c0.1,0.3,0.1,0.5,0.2,0.8
	c1.8,7.5,3.7,22.5,5.6,30.5c-1.8,1.1-3.6,7.2-5.4,8.1c-0.1,0-0.2,0.1-0.3,0.2c-0.2,0.1-0.3,0.2-0.4,0.2c-3,1.6-4,2-7.1,3.2
	c-31.6,12.6-68.4,10.1-68.4,10.1l-1.4-39.3v0l-1-8.5c0,0,0,0,0,0l-2.2-19.8v0l-1-8.5h0l-1-8.7l-0.1-0.8c-2.5,3.8-6,8.7-6.4,9.4
	c-1.7,3-27.1-11.2-25.8-14.4c0.7-1.8,4.8-8.7,8.7-14.7c0.5-0.8,1.1-1.7,1.7-2.5c0,0,0,0,0,0c4.9-7.2,6.2-7.8,6.6-7.8
	c0,0,0.1,0,0.1,0c0,0,0,0,0,0c0,0,0.2-0.1,0.2-0.2c0,0,0,0,0,0c0.2-0.2,0.5-0.4,0.8-0.7l0.2-0.2c0.1-0.1,0.2-0.1,0.2-0.2
	c0.3-0.2,0.7-0.5,1.1-0.8c0.3-0.2,0.6-0.5,1-0.7c0.2-0.1,0.4-0.2,0.5-0.4c0.3-0.2,0.6-0.4,0.9-0.6c0.7-0.5,1.4-1,2.2-1.5
	c0,0,0,0,0,0c0.4-0.3,0.9-0.6,1.3-0.9v0c1-0.6,2-1.3,3-2c0.1,0,0.1-0.1,0.2-0.1c0.1-0.1,0.2-0.1,0.3-0.2c0.2-0.1,0.3-0.2,0.5-0.3
	c0.1-0.1,0.3-0.2,0.4-0.3c0.3-0.2,0.7-0.5,1-0.7c0,0,0.1,0,0.1-0.1c0.4-0.3,0.8-0.5,1.3-0.8c0.1-0.1,0.2-0.1,0.3-0.2
	c0,0,0.1-0.1,0.1-0.1c0,0,0,0,0,0c0.2-0.1,0.3-0.2,0.5-0.3c0.2-0.1,0.3-0.2,0.5-0.3c0.2-0.1,0.4-0.3,0.6-0.4c1.8-1.1,3.5-2.2,5-3.2
	c0.4-0.2,0.8-0.5,1.1-0.7c0.4-0.2,0.7-0.5,1-0.7c1.6-1,2.2-1.8,2.4-2.2c0.1-0.3,0.4-0.4,0.7-0.3c1,0.3,3.2,0.8,5.9,1l0,0
	c1.7,0.1,3.3,0.7,4.7,1.8c4.1,3.2,10.8,8.6,13.4,11.7c0.3,0.3,0.7,0.1,0.7-0.3c-0.6-4.2-1.1-7.8-1.1-11.4c0-3.2,1.6-6.2,4.2-8l0,0
	c0.2-0.1,0.3-0.1,0.5-0.1c1,0.3,2.1,0.5,3.1,0.7c1.4,0.3,2.9,0.5,4.4,0.7c1.7,0.2,3.4,0.4,5.2,0.6c0.4,0,0.8,0.1,1.2,0.1
	c0.3,0,0.6,0.1,0.9,0.1c2,0.2,3.9,0.4,5.7,0.5c0.2,0,0.4,0,0.6,0c0.1,0,0.2,0,0.3,0c0.2,0,0.3,0,0.4,0c0,0,0.1,0,0.2,0c0,0,0,0,0,0
	c0,0,0,0,0,0c0.1,0,0.2,0,0.3,0c0.6,0.1,1.2,0.2,1.8,0.2c0,0,0,0,0,0c0.2,0,0.4,0.1,0.6,0.1c0.6,0.1,1.1,0.2,1.6,0.3
	c0.2,0,0.3,0.1,0.5,0.1c0.1,0,0.2,0,0.3,0.1c0.1,0,0.1,0,0.2,0c0.2,0,0.4,0.1,0.5,0.1c0.2,0.1,0.4,0.1,0.6,0.2
	c0.3,0.1,0.6,0.2,0.8,0.3c0.1,0,0.3,0.1,0.4,0.1c0.4,0.2,0.8,0.3,1.1,0.5c0.2,0.1,0.3,0.2,0.4,0.2c0.2,0.1,0.3,0.2,0.4,0.3
	c0.5,0.4,1.8,0.8,1.8,1.5c0,0.1,0,0.1,0,0.2c3.8,4,7.7,10.6,7.7,10.6l1.9,3.8l4.5,9.1c0,0-0.1,0-0.2,0.1l1.2,1.7l0.3,0.5l0.2,0.4
	l10.3,15.1l1.6,2.3l-1.8-0.5l-12.7-3.4l-0.3-0.1l-0.4-0.1L1019.6,583z"/>
<path class="st2" d="M1029.3,677.9c4.9,14.1,12.7,36.5,21.3,61c-2.7-3.7-5.2-7.4-7.5-11c-3-4.8-5.8-9.5-8.3-14.3
	c-0.2-0.5-0.5-0.9-0.7-1.3c-0.3-0.6-0.6-1.2-0.9-1.7c-2.6-5.2-4.9-10.3-6.9-15.5c-0.8-2.1-1.6-4.2-2.4-6.4c-0.8-2.4-1.6-4.7-2.3-7.1
	c-1.7-5.7-3.2-11.3-4.3-16.8c-0.3-1.6-0.6-3.2-0.9-4.8c0-0.2-0.1-0.3-0.1-0.4c-0.1-0.6-0.2-1.2-0.3-1.8c-0.8-5-1.3-9.8-1.7-14.6
	c-1.3-18,0.1-34.9,3.1-50c0.5,1.8,1,3.7,1.5,5.7c1.4,5.3,2.9,11.2,4.4,17.4c0.6,2.5,1.2,5,1.9,7.5c0.6-13.2,1.9-26,4-38.3l-9.5-2.5
	c1.8-7.1,3.8-13.8,6-19.8c0.3-0.9,0.6-1.8,1-2.7c2.1-5.7,4.2-10.8,6.3-15.3c2.1,0.6,4.1,1.2,6.1,1.7c0.1,0,0.3,0.1,0.4,0.1
	c0.1,0,0.2,0.1,0.3,0.1c3.6,1,6.7,1.8,8.8,2.3l0.4,3l0.7,5.2l12.1,92l8.1,61.5c-10-9.5-19.4-18.5-27.5-26.3c-3.4-3.3-6.6-6.3-9.4-9
	C1031.6,676.6,1030.4,677.3,1029.3,677.9z"/>
<g class="st3">
	<g class="st4">
		<g>
			<path class="st5" d="M1558.4,620.9c-0.2-3.3-0.4-6.6-0.7-9.8c-3.3-40.3-14.3-76.2-33-107.6c-21.6-36.5-50.8-65-87.4-85.4
				c-1.8-1-3.6-2-5.5-3c-10.6-5.6-21.6-10.4-33-14.5c-12.7-4.6-25.9-8.2-39.6-10.8c-19.2-3.8-39.4-5.6-60.5-5.6
				c-2.3,0-4.5,0-6.8,0.1c-0.1,0-0.2,0-0.2,0c-6.1,0.1-12.1,0.4-18,0.8c-16.3,1.2-32,3.6-47.1,7.2c-21.6,5.1-41.9,12.8-61,22.8
				c-39.2,20.6-70.2,50.1-92.9,88.4c-10,16.8-17.8,34.9-23.4,54.3c-2.8,9.6-5,19.5-6.7,29.7c-0.1,0.6-0.2,1.2-0.3,1.8
				c-2.5,15.5-3.7,31.8-3.7,48.7c0,16.3,1.1,32,3.3,47c4.8,32.6,14.9,62,30.2,88.3c22.4,38.3,53.2,67.8,92.4,88.4
				c32.4,17.1,68.3,27.1,107.7,30c6,0.5,12.2,0.8,18.4,0.9c0.1,0,0.1,0,0.2,0c2.2,0,4.5,0.1,6.8,0.1c26.1,0,50.7-2.8,74-8.6
				c3-0.7,5.9-1.5,8.9-2.3c1.3-0.4,2.7-0.8,4-1.2c16.3-4.8,31.8-11.1,46.7-18.9c5.5-2.9,10.8-5.9,16-9.2
				c8.2-5.1,16.1-10.7,23.5-16.7c6.1-4.9,11.9-10.2,17.4-15.7c2.4-2.4,4.7-4.8,7-7.3c11-12,20.7-25.3,29.3-39.9
				c5-8.6,9.5-17.5,13.4-26.7c13.8-32.2,20.6-68.3,20.6-108.2C1558.8,632.1,1558.7,626.5,1558.4,620.9z M1290.9,741.9
				c-0.7,0-1.4-0.1-2-0.2c-20.1-2-36.8-10.7-50.2-26.1c-15.3-17.7-23-43.6-23-77.8c0-33.6,8-59.2,23.9-77
				c13.9-15.4,30.7-24.1,50.3-26.1c0.6-0.1,1.3-0.1,1.9-0.2c0.1,0,0.2,0,0.2,0c2.2-0.2,4.5-0.2,6.8-0.2c23.6,0,43.5,8.9,59.7,26.5
				c16.2,17.7,24.3,43.3,24.3,77c0,33.6-8.1,59.4-24.3,77.4c-16.2,18-36.4,27-60.6,27c-2.3,0-4.6-0.1-6.8-0.2
				C1291,742,1291,741.9,1290.9,741.9z"/>
		</g>
	</g>
	<g class="st4">
		<g>
			<path class="st6" d="M1510.8,503.4c-18.6-31.3-42.6-56.8-72.2-76.2c-6.6-4.4-13.5-8.4-20.6-12.2c-5.1-2.7-10.3-5.2-15.5-7.5
				c-14.3-6.4-29.3-11.4-45-15.2c-20.7-5-42.6-7.7-65.6-8.2c-0.2,0-0.4,0-0.6,0c-0.2,0-0.4,0-0.6,0c-0.4,0-0.8,0-1.2,0
				c-1.4,0-2.8,0-4.2,0c-1.6,0-3.1,0-4.6,0c-2.4,0-4.8,0.1-7.1,0.2c-16.6,0.5-32.6,2.3-48,5.2c-26.3,5-50.9,13.5-73.8,25.5
				c-39.2,20.6-70.2,50.1-92.9,88.4c-8.1,13.7-14.8,28.2-20,43.5c-2.7,7.9-5,16-6.9,24.4c-1.1,4.7-2,9.4-2.9,14.2
				c-2.1,12.3-3.5,25.1-4,38.3c-0.2,4.6-0.3,9.3-0.3,14c0,5.3,0.1,10.5,0.4,15.7c0.9,20,3.6,39,8,56.9c5.6,22.6,14,43.5,25.2,62.7
				c22.4,38.3,53.2,67.8,92.4,88.4c38.1,20.1,81.1,30.4,128.9,30.9c1.5,0,3.1,0,4.6,0c1.4,0,2.8,0,4.2,0c0.4,0,0.8,0,1.2,0
				c0.2,0,0.4,0,0.6,0c0.2,0,0.4,0,0.6,0c30.7-0.6,59.5-5.2,86.2-14c14-4.5,27.4-10.2,40.3-16.9c11.8-6.2,22.9-13.2,33.2-20.9
				c1.2-0.9,2.3-1.8,3.5-2.7c5.7-4.4,11.1-9.1,16.3-14.1c2.3-2.2,4.6-4.5,6.9-6.8c5.7-5.9,11-12,16-18.5
				c6.3-8.1,12.1-16.7,17.4-25.8c11.8-20,20.5-41.7,26.1-65.1c0.1-0.5,0.3-1.1,0.4-1.7c0.8-3.5,1.6-7,2.2-10.5
				c1.3-6.5,2.3-13.1,3.1-19.9c0.4-3.7,0.8-7.4,1.1-11.1c0.2-2.9,0.4-5.8,0.6-8.8c0.3-5.8,0.5-11.8,0.5-17.8
				C1544.8,586.6,1533.5,541.7,1510.8,503.4z M1224.7,715.7c-15.3-17.7-23-43.6-23-77.8c0-33.6,8-59.2,23.9-77
				c15.7-17.3,35-26.2,58-26.5c0.5,0,0.9,0,1.4,0h0.2c0.5,0,1,0,1.5,0c1.7,0,3.4,0.1,5.1,0.2c20.5,1.6,38.1,10.4,52.7,26.3
				c16.2,17.7,24.3,43.3,24.3,77c0,33.6-8.1,59.4-24.3,77.4c-14.6,16.2-32.5,25.1-53.6,26.7c-1.7,0.1-3.3,0.2-5,0.2
				c-0.5,0-1,0-1.5,0h-0.4C1259.8,742.2,1240,733.4,1224.7,715.7z"/>
		</g>
	</g>
	<g class="st7">
		
			<image style="overflow:visible;enable-background:new    ;" width="593" height="581" xlink:href="EC71CCFF.png"  transform="matrix(1 0 0 1 988 348)">
		</image>
	</g>
	<g class="st8">
		
			<image style="overflow:visible;enable-background:new    ;" width="592" height="580" xlink:href="EC71CCFD.png"  transform="matrix(1 0 0 1 989 348)">
		</image>
	</g>
	<g class="st4">
		<g>
			<path class="st9" d="M1511.2,503.4c-18.7-31.6-43-57.2-72.9-76.7c-6.4-4.2-13-8.1-19.9-11.7c-5.3-2.8-10.6-5.4-16.1-7.8
				c-14.3-6.3-29.2-11.3-44.8-15c-20.7-5-42.5-7.7-65.4-8.1c-0.3,0-0.5,0-0.8,0c-0.2,0-0.4,0-0.6,0c-0.4,0-0.8,0-1.2,0
				c-1.4,0-2.8,0-4.2,0c-1.6,0-3.1,0-4.6,0c-2.4,0-4.8,0.1-7.1,0.2c-16.6,0.6-32.6,2.3-47.9,5.3c-26.2,5-50.7,13.5-73.4,25.5
				c-39.2,20.6-70.2,50.1-92.9,88.4c-8.1,13.7-14.8,28.3-20,43.7c-2.7,8-5.1,16.3-7,24.8c-1.1,4.5-2,9.2-2.8,13.8
				c-2.2,12.8-3.6,26-4.1,39.7c-0.2,4.1-0.2,8.2-0.2,12.4c0,5.2,0.1,10.4,0.3,15.5c0.9,20.8,3.7,40.4,8.4,58.9
				c5.6,21.9,13.8,42.2,24.8,61c22.4,38.3,53.2,67.8,92.4,88.4c38,20,80.8,30.3,128.5,30.9c1.5,0,3.1,0,4.6,0c1.4,0,2.8,0,4.2,0
				c0.4,0,0.8,0,1.2,0c0.2,0,0.4,0,0.6,0c0.3,0,0.5,0,0.8,0c30.7-0.6,59.5-5.2,86.3-13.9c14-4.5,27.5-10.2,40.5-17
				c11.6-6.1,22.5-12.9,32.6-20.5c1.2-0.9,2.3-1.8,3.5-2.7c5.7-4.5,11.2-9.2,16.5-14.2c2.4-2.3,4.8-4.7,7.1-7.1
				c5.6-5.8,10.8-11.8,15.8-18.2c0,0,0,0,0,0c6.4-8.2,12.3-17,17.8-26.2c11.7-20,20.5-41.7,26.1-65.1c0.3-1.4,0.7-2.8,1-4.3
				c0.6-2.5,1.1-4.9,1.6-7.4c1.3-6.5,2.3-13,3.1-19.8c0.5-4,0.9-8.1,1.2-12.2c0.2-3,0.4-5.9,0.6-8.9c0.3-5.7,0.4-11.4,0.4-17.2
				C1545.3,586.6,1533.9,541.7,1511.2,503.4z M1280.2,742.1c-18-0.8-33.4-6.7-46.3-17.7c-0.5-0.4-1.1-0.9-1.6-1.4
				c-0.4-0.4-0.9-0.8-1.3-1.2c-2-1.9-4-4-5.9-6.2c-15.3-17.7-23-43.6-23-77.8c0-33.6,8-59.2,23.9-77c2-2.2,4-4.3,6.2-6.2
				c0.4-0.4,0.9-0.8,1.3-1.2c0.5-0.5,1.1-0.9,1.6-1.4c13-10.9,28.2-16.8,45.6-17.7c0.1,0,0.2,0,0.3,0c0.9,0,1.8-0.1,2.7-0.1
				c0.5,0,0.9,0,1.4,0h0.2c0.5,0,1,0,1.5,0c1.8,0,3.5,0.1,5.3,0.2c20.6,1.6,38.3,10.3,52.9,26.3c16.2,17.7,24.3,43.3,24.3,77
				c0,33.6-8.1,59.4-24.3,77.4c-14.7,16.3-32.6,25.2-53.8,26.7c-1.7,0.1-3.5,0.2-5.2,0.2c-0.5,0-1,0-1.5,0h-0.4c-0.7,0-1.4,0-2.1,0
				c-0.3,0-0.6,0-0.9,0h0c0,0,0,0,0,0C1280.7,742.1,1280.4,742.1,1280.2,742.1z"/>
		</g>
	</g>
</g>
<g class="st3">
	<g id="Hotspot_2_2_" class="st4">
		
			<ellipse transform="matrix(0.1602 -0.9871 0.9871 0.1602 214.5921 1558.8446)" class="st10" cx="1023.4" cy="653.3" rx="12.2" ry="12.2"/>
		<g>
			<path class="st11" d="M1026.8,653.7l-2.9,0.1l0.1,2.9l-1.1,0l-0.1-2.9l-2.9,0.1l0-1l2.9-0.1l-0.1-2.9l1.1,0l0.1,2.9l2.9-0.1
				L1026.8,653.7z"/>
		</g>
		<circle class="st12" cx="1023.4" cy="653.3" r="18.3"/>
	</g>
	<g class="st4">
		<g>
			<path class="st13" d="M1528.7,630.2c11.5-9.2,14.4-9.1,26.3-11.5c15.7-3.3,79-11,110.7-38.9s30.4-65.4,8.4-85.2
				c-22-19.8-34.5-15.8-47-8.2c-12.5,7.6-29,32-40.9,41.8c-12,9.8-24.9,14.3-38.9,34c-14,19.7-38.9,75.8-32.8,79.1
				C1520.7,644.6,1517.2,639.4,1528.7,630.2z"/>
			<path class="st14" d="M1528.7,630.2c11.5-9.2,14.4-9.1,26.3-11.5c15.7-3.3,79-11,110.7-38.9s30.4-65.4,8.4-85.2
				c-22-19.8-34.5-15.8-47-8.2c-12.5,7.6-29,32-40.9,41.8c-12,9.8-24.9,14.3-38.9,34c-14,19.7-38.9,75.8-32.8,79.1
				C1520.7,644.6,1517.2,639.4,1528.7,630.2z"/>
			<g>
				<path class="st15" d="M1514.6,641.3c8.6-16.5,19-32.1,31.5-46c6.3-6.9,13.2-13.3,21.2-18.5c1-0.7,2-1.2,3-1.8
					c1-0.6,2.1-1.1,3.1-1.7c1-0.6,2.1-1,3.2-1.5c1.1-0.5,2.2-0.9,3.3-1.3c4.4-1.6,8.8-3.2,13.1-4.8c8.7-3.1,17.4-6.4,25.5-10.8
					c4.1-2.2,7.9-4.6,11.7-7.3l1.4-1c0.5-0.3,0.9-0.7,1.3-1.1l2.7-2.2c1.8-1.4,3.5-3,5.2-4.6c6.7-6.3,12.8-13.3,18.2-20.9l2.1-2.8
					c0.7-0.9,1.3-1.9,2-2.9l3.9-5.8c0.7-1,1.3-1.9,1.9-2.9l1.8-3l3.6-5.9c-2.2,4.1-4.3,8.2-6.7,12.2l-3.6,6c-0.6,1-1.2,2-1.8,3
					l-2,2.9c-5.2,7.8-11.2,15-17.8,21.6c-6.6,6.6-14.3,12.3-22.5,16.8c-8.2,4.6-17,7.9-25.8,11.1c-4.4,1.6-8.8,3.1-13.1,4.7
					c-1.1,0.4-2.2,0.8-3.2,1.2c-1,0.4-2.1,0.9-3.1,1.4c-1,0.5-2,1-3,1.6c-1,0.6-2,1.1-2.9,1.7c-7.8,4.8-14.6,11.1-21,17.7
					c-6.4,6.7-12.2,13.9-17.7,21.4C1524.4,625.5,1519.3,633.3,1514.6,641.3z"/>
			</g>
		</g>
		<path class="st16" d="M1528.7,624.7c11.5-9.2,14.4-9.1,26.3-11.5c15.7-3.3,79-11,110.7-38.9c31.8-27.9,30.4-65.4,8.4-85.2
			c-22-19.8-34.5-15.8-47-8.2c-12.5,7.6-29,32-40.9,41.8c-12,9.8-24.9,14.3-38.9,34c-14,19.7-38.9,75.8-32.8,79.1
			C1520.6,639.1,1517.2,633.9,1528.7,624.7z"/>
	</g>
	<g class="st4">
		<path class="st13" d="M1008.7,733.6c-8.8-6.4-10.9-6.2-19.8-7.7c-11.7-1.9-58.6-5.6-82.9-25.1c-24.3-19.5-24.5-47.3-9-62.6
			s25-12.8,34.4-7.6c9.4,5.2,22.4,22.7,31.5,29.5c9.1,6.8,18.8,9.8,29.8,23.8s31.1,54.6,26.7,57.3S1017.5,740,1008.7,733.6z"/>
		<path class="st14" d="M1008.7,733.6c-8.8-6.4-10.9-6.2-19.8-7.7c-11.7-1.9-58.6-5.6-82.9-25.1c-24.3-19.5-24.5-47.3-9-62.6
			s25-12.8,34.4-7.6c9.4,5.2,22.4,22.7,31.5,29.5c9.1,6.8,18.8,9.8,29.8,23.8s31.1,54.6,26.7,57.3S1017.5,740,1008.7,733.6z"/>
		<g>
			<path class="st15" d="M1019.5,741.3c-3.7-5.8-7.8-11.3-12.1-16.7c-4.3-5.4-8.8-10.5-13.7-15.2c-4.9-4.7-10.2-9.1-16.1-12.4
				c-2.9-1.7-6-3-9.3-4c-3.3-1-6.5-2-9.8-3c-6.5-2.1-13.1-4.3-19.3-7.4c-6.2-3.1-12-7-17.1-11.7c-5.1-4.7-9.8-9.8-13.8-15.4
				c-2.1-2.7-3.9-5.6-5.9-8.5c-1.9-2.9-3.6-5.9-5.3-8.8l2.9,4.3c1,1.4,1.9,2.9,2.9,4.3c2.1,2.7,4,5.6,6.2,8.2
				c4.2,5.4,8.9,10.4,14.1,14.8c5.2,4.4,10.8,8.3,16.9,11.2c6.1,3,12.6,5.1,19.1,7.1c3.3,1,6.6,2,9.8,3.1c3.3,1,6.6,2.5,9.6,4.2
				c6,3.5,11.4,8,16.2,12.9C1004.5,718.2,1012.7,729.4,1019.5,741.3z"/>
		</g>
	</g>
	<g class="st4">
		<path class="st13" d="M1098.1,831.4c-1.5-0.8-4.1-1.4-9.9-9.3s-13.2-21.2-15.9-32.3c-2.7-11.1-11.4-31-29-37s-31-8-40-3
			c-9,5-13.2,12.7-10.5,22.1c6.4,16.6,26.4,19.4,39.8,19.1c11.4-0.2,30.7,8.1,48.4,32c0,0,14.6,20.1,21,14
			C1103.8,835.1,1099.6,832.2,1098.1,831.4z"/>
		<path class="st14" d="M1098.1,831.4c-1.5-0.8-4.1-1.4-9.9-9.3s-13.2-21.2-15.9-32.3c-2.7-11.1-11.4-31-29-37s-31-8-40-3
			c-9,5-13.2,12.7-10.5,22.1c6.4,16.6,26.4,19.4,39.8,19.1c11.4-0.2,30.7,8.1,48.4,32c0,0,14.6,20.1,21,14
			C1103.8,835.1,1099.6,832.2,1098.1,831.4z"/>
		<g>
			<path class="st15" d="M1010.1,767.1c5-1.1,10.1-1.4,15.2-1.3c5.1,0.2,10.2,1.1,15,2.9c2.4,0.9,4.7,2.1,6.9,3.5
				c2.2,1.4,4.1,3.2,5.9,5c3.6,3.6,7.1,7.4,10.2,11.4c3.1,4,6,8.3,8.5,12.7c1.2,2.2,2.3,4.5,3.6,6.7c1.3,2.2,2.6,4.3,4,6.4
				c2.8,4.2,5.9,8.2,9.3,12c1.7,1.9,3.5,3.7,5.5,5.2c1,0.8,2,1.5,3.2,2c1.1,0.5,2.4,0.9,3.7,0.6c-1.2,0.3-2.6,0-3.7-0.5
				c-1.2-0.5-2.3-1.2-3.3-2c-2.1-1.5-3.9-3.3-5.7-5.1c-3.5-3.7-6.7-7.7-9.6-11.8c-1.5-2.1-2.9-4.2-4.2-6.4c-1.3-2.2-2.5-4.4-3.8-6.6
				c-2.5-4.4-5.4-8.5-8.5-12.5c-3.1-3.9-6.5-7.8-10-11.4c-1.7-1.9-3.5-3.5-5.6-4.9c-2.1-1.4-4.3-2.6-6.6-3.5
				c-4.6-1.9-9.6-2.8-14.7-3.2C1020.2,766.2,1015.1,766.4,1010.1,767.1z"/>
		</g>
	</g>
	<path class="st17" d="M1008.6,729.5c-8.8-6.4-10.9-6.2-19.8-7.7c-11.7-1.9-58.6-5.6-82.9-25.1s-24.5-47.3-9-62.6s25-12.8,34.4-7.6
		c9.4,5.2,22.4,22.7,31.5,29.5c9.1,6.8,18.8,9.8,29.8,23.8s31.1,54.6,26.7,57.3C1015,739.8,1017.4,735.9,1008.6,729.5z"/>
	<ellipse class="st18" cx="1260.1" cy="887.6" rx="370.9" ry="17"/>
	<g class="st4">
		<g>
			<path class="st19" d="M1092.9,825.9c0,0,5.9,10.7,5.5,18.5s-7.9,23.1-6,30.3s4.8,12.2,11.8,12.2c6.6,0,8.5-4.6,10.3-8.2
				c1.7-3.6,6.2-22.1,4.5-29.7c-1.6-7.6-8.1-31-8.1-31L1092.9,825.9z"/>
			
				<linearGradient id="SVGID_1_" gradientUnits="userSpaceOnUse" x1="1105.9866" y1="209.1736" x2="1100.8759" y2="269.3328" gradientTransform="matrix(1 0 0 -1 0 1080)">
				<stop  offset="0" style="stop-color:#595959"/>
				<stop  offset="0.2938" style="stop-color:#464545"/>
				<stop  offset="0.7323" style="stop-color:#2E2C2C"/>
				<stop  offset="1" style="stop-color:#252323"/>
			</linearGradient>
			<path class="st20" d="M1090.7,823.2c0,0,5.9,10.7,5.5,18.5s-6.2,24.2-4.3,31.4c1.8,7.2,6.5,11.1,10.1,11.1
				c5.7,0,9.8-2.9,11.3-6.6c1.2-2.9,6.6-24.4,4.9-32s-9.4-30.4-9.4-30.4L1090.7,823.2z"/>
		</g>
		<path class="st21" d="M1093.8,860.4c0,0,7-5.6,17-0.8"/>
		<path class="st21" d="M1098.2,845.9c0,0,4.3-2.5,8.1-1"/>
		<path class="st21" d="M1098.2,850.4c0,0,4.3-2.5,8.1-1"/>
	</g>
	<g class="st4">
		
			<linearGradient id="SVGID_2_" gradientUnits="userSpaceOnUse" x1="931.5395" y1="217.3549" x2="1048.41" y2="185.6964" gradientTransform="matrix(1 0 0 -1 0 1080)">
			<stop  offset="0" style="stop-color:#595959"/>
			<stop  offset="0.2938" style="stop-color:#464545"/>
			<stop  offset="0.7323" style="stop-color:#2E2C2C"/>
			<stop  offset="1" style="stop-color:#252323"/>
		</linearGradient>
		<path class="st22" d="M996,859.1l5.2,26l-65.5-0.4c0,0-1.6-15.9,19.2-16c12.2-0.9,21.7-10.5,21.7-10.5L996,859.1z"/>
		<rect x="935.7" y="884.7" class="st19" width="65.5" height="4.2"/>
		<path class="st21" d="M956.9,869.3c0,0,8.4,0.9,9.6,7.6"/>
		<path class="st21" d="M967,865.5c0,0,4.2-0.1,5.5,1.6"/>
		<path class="st21" d="M964.2,867.2c0,0,4.2-0.1,5.5,1.6"/>
	</g>
	<g class="st4">
		
			<linearGradient id="SVGID_3_" gradientUnits="userSpaceOnUse" x1="947.4161" y1="563.103" x2="947.9559" y2="451.8278" gradientTransform="matrix(0.9997 -2.510000e-02 -2.510000e-02 -0.9997 -42.9301 1189.4071)">
			<stop  offset="0.6244" style="stop-color:#B86F52"/>
			<stop  offset="0.734" style="stop-color:#BB7255"/>
			<stop  offset="0.827" style="stop-color:#C67D5F"/>
			<stop  offset="0.9137" style="stop-color:#D78E70"/>
			<stop  offset="0.9966" style="stop-color:#F0A688"/>
			<stop  offset="1" style="stop-color:#F1A789"/>
		</linearGradient>
		<path class="st23" d="M924.2,574.1l-19.6,35.1l-24.8-26.6l-0.4,0.2c0.1-0.5,0.2-0.8,0.2-0.8s-2.8-8.9-8.1-15.8
			c-3-3.8-18.7,3.6-19.3,3.9c-2.7,1.2,14.2-7.1,15.5-2.5c1.3,4.5-2,0.9-2,0.9s-21.8-18.3-23.7-16.3c-2.1,2.2,16.5,18,16.5,18
			s-22.1-16-23.2-14.5c-1.2,1.5,2.4,5,2.4,5s-2.3-1.8-3.1-0.7c-1.6,2.1,17.6,17.8,17.6,17.8s-16.6-9.9-17.5-8.4
			c-1.5,2.5,24.8,19.3,29.8,20.9c0.5,0.2,1,0.3,1.5,0.4l26.7,36l1.2,1.8l4.1,4.9c3.5,4.1,9.8,3.9,13.1-0.3c3.3-4.3,6.4-8.8,6.4-8.8
			l26.9-38.4L924.2,574.1z"/>
		<line class="st24" x1="838.4" y1="561.7" x2="854.9" y2="574"/>
		<path class="st24" d="M861.6,569.4c-0.4,0.3-7.5,6.4-9.5,11.4"/>
	</g>
	<g class="st4">
		<g>
			<g>
				<path class="st25" d="M1008.5,676.1c-2.4,1.1-5,2-7.4,2.7c-1.3,0.4-2.7,0.7-3.9,1c-0.2,0.1-0.5,0.1-0.7,0.2
					c-2.9,0.6-5.5,0.9-7.7,1.1c-2.5,0.2-4.4,0.3-5.6,0.4l-17.5-16.7L953.3,653l39.7-10.9l6.1-1.7c0,0,4,6.3,7.5,13.7
					C1010.7,663.1,1014.1,673.5,1008.5,676.1z"/>
				
					<linearGradient id="SVGID_4_" gradientUnits="userSpaceOnUse" x1="1036.2898" y1="384.6617" x2="1037.5354" y2="127.8945" gradientTransform="matrix(0.9996 -2.800000e-02 -2.800000e-02 -0.9996 -44.7126 1197.4283)">
					<stop  offset="0" style="stop-color:#595959"/>
					<stop  offset="0.2938" style="stop-color:#464545"/>
					<stop  offset="0.7323" style="stop-color:#2E2C2C"/>
					<stop  offset="1" style="stop-color:#252323"/>
				</linearGradient>
				<path class="st26" d="M1005.3,857.2c-18.9,11.7-39.7,2.4-39.7,2.4c-2-19.7-4.3-56.7-6.4-93.1c-0.7-12-1.3-24-1.9-35.3
					c-0.2-4.5-0.5-9-0.7-13.3c-1.6-30.2-2.6-52.7-2.6-52.7l11.6-0.5l23.9-1l3.2-0.1l3.8-0.2c0,0,0.1,2.8,0.3,7.6
					c0.1,2.4,0.2,5.3,0.3,8.7c0.6,14.9,1.6,38.6,2.7,64.6C1001.6,784.2,1003.7,829.6,1005.3,857.2z"/>
				<path class="st25" d="M1124.1,811c-11.3,19.1-33.9,21.1-33.9,21.1c-13.6-20.4-41.2-68.4-64.1-108.8c-9.7-17.1-18.5-32.9-25-44.5
					c-1.6-2.8-3-5.4-4.3-7.7c-1.7-3-3.1-5.5-4.1-7.5c-1.4-2.4-2.3-4.1-2.6-4.7c-0.1-0.2-0.2-0.4-0.2-0.4l0.3-0.1l16.4-4.3l21.7-5.7
					c0,0,3,5.2,8,13.7c4.7,8,11.2,19.1,18.6,31.7c6.4,10.9,13.4,22.9,20.7,35.2C1093.2,759.3,1111.9,791,1124.1,811z"/>
				<path class="st27" d="M954.8,719.1c3.7-3.5,14.7-1.4,19.6-2.7s9.7,46.5,4.1,49c-5.7,2.5-12.2,0.4-18.1,1.5
					C954.6,768.1,952.2,721.5,954.8,719.1z"/>
				<path class="st27" d="M1037.2,704.1c2.1-4.6,13.1-7,17.2-10s26.4,39.3,22,43.8c-4.3,4.5-11.2,5-16.1,8.4
					C1055.3,749.6,1035.7,707.4,1037.2,704.1z"/>
			</g>
			<path class="st28" d="M955.8,731.3c0.3-0.1,18.6,0.3,21-1.3c1.7-1.1,0.6-6.5-0.1-9.4c-0.3-1-1.3-1.7-2.4-1.4
				c-1.6,0.4-4.1,0.8-6.3-0.1c-3.6-1.4-8-0.1-8-0.1"/>
			<path class="st28" d="M960.7,766.4c0,0,7.3-1.4,10.7-0.7s7.7-1.3,7.8-4.3c0.1-3,1.1-10,0.6-13.6"/>
			<path class="st29" d="M962.8,733.4c0,0-4,13,3,30.4c-0.6-5.5-3.3-26.3-1.8-30.1"/>
			<path class="st29" d="M957,677.1c0.7,0,10.4,0.8,10-10.5"/>
			<path class="st28" d="M994.3,717.1c0,0,3.5,22.6,1.4,33.7c-2,11.1,0.8,13.1,0.8,13.1"/>
			<path class="st28" d="M963.1,797c1.7,20.8,1.7,20.4,1.4,31.5c-0.8,27.7,2.6,29.8,2.6,29.8"/>
		</g>
		<path class="st28" d="M996.5,679.2c0,0-0.2,7.6-8.7,9.6"/>
		<path class="st28" d="M989.7,690.3c0.6-0.2,11.2-5.2,3.9,1.3c-7.3,6.5-5.2,4.3-5.2,4.3"/>
	</g>
	
		<linearGradient id="SVGID_5_" gradientUnits="userSpaceOnUse" x1="1404.9014" y1="1097.2728" x2="1441.8146" y2="1097.2728" gradientTransform="matrix(0.9823 -0.1875 -0.1875 -0.9823 -222.139 1888.8485)">
		<stop  offset="0.6244" style="stop-color:#B16F52"/>
		<stop  offset="0.7286" style="stop-color:#B47255"/>
		<stop  offset="0.817" style="stop-color:#BF7B5E"/>
		<stop  offset="0.8998" style="stop-color:#D08A6D"/>
		<stop  offset="0.9785" style="stop-color:#E9A082"/>
		<stop  offset="1" style="stop-color:#F1A789"/>
	</linearGradient>
	<path class="st30" d="M989.8,547.9c0,0-7.3,45.5-36.4,4.6c-2-2.8,2.7-7,2.1-11.4c0-0.3-0.1-0.7-0.2-1c0-0.1,0-0.1,0-0.2
		c-0.7-4.6-2.2-8.9-3-11c-0.3-0.8-0.5-1.3-0.5-1.3s1.8-1.4,4.5-3.2c0.5-0.3,0.9-0.6,1.5-0.9c0.2-0.1,0.4-0.2,0.6-0.4
		c7.4-4.5,18.6-9.8,20.4-1.5c0.1,0.4,0.1,0.8,0.2,1.2C980.3,538,989.8,547.9,989.8,547.9z"/>
	<path class="st31" d="M981.2,525.2c0,0-3.2,22.5-25.7,14.6c-0.7-4.6-2.3-8.9-3.2-11c-0.3-0.8-0.5-1.2-0.5-1.2s2.2-1.5,5.4-3.3
		c0.5-0.3,1.1-0.6,1.7-1c0.2-0.1,0.5-0.3,0.7-0.4l20.3,2.2L981.2,525.2z"/>
	
		<linearGradient id="SVGID_6_" gradientUnits="userSpaceOnUse" x1="2549.7979" y1="1781.9879" x2="2559.2668" y2="1781.9879" gradientTransform="matrix(0.8635 -0.5043 -0.5043 -0.8635 -362.3265 3345.5559)">
		<stop  offset="0.768" style="stop-color:#B16F52"/>
		<stop  offset="0.8214" style="stop-color:#B67356"/>
		<stop  offset="0.8849" style="stop-color:#C48063"/>
		<stop  offset="0.9531" style="stop-color:#DC9577"/>
		<stop  offset="1" style="stop-color:#F1A789"/>
	</linearGradient>
	<path class="st32" d="M949.6,523.7c-7.2,2.7-13-8.5-10.8-9.7s5.2,0.1,5.2,0.1S956.8,521,949.6,523.7z"/>
	
		<linearGradient id="SVGID_7_" gradientUnits="userSpaceOnUse" x1="1106.8176" y1="755.7808" x2="1105.6239" y2="705.6826" gradientTransform="matrix(0.9984 -5.600000e-02 -5.600000e-02 -0.9984 -102.677 1304.4677)">
		<stop  offset="0.6244" style="stop-color:#B16F52"/>
		<stop  offset="0.7286" style="stop-color:#B47255"/>
		<stop  offset="0.817" style="stop-color:#BF7B5E"/>
		<stop  offset="0.8998" style="stop-color:#D08A6D"/>
		<stop  offset="0.9785" style="stop-color:#E9A082"/>
		<stop  offset="1" style="stop-color:#F1A789"/>
	</linearGradient>
	<path class="st33" d="M975.9,501.8L975.9,501.8c-0.4-0.8-0.7-1.5-1.1-2.2c-0.3-0.6-0.6-1.2-0.9-1.7c-0.1-0.2-0.2-0.4-0.3-0.6
		c-2.5-5.5-6-13.3-8-12.4c-3.9-1.6-15.8,6.1-16.5,6.5c-10.4,5.1-11.3,10.5-6.2,21.3c1.8,3.9,6.2,11.6,8.3,15.1
		c0.2,0.3,0.4,0.6,0.5,0.8c0.2,0.3,0.5,0.5,0.8,0.9c1.5,2,16.9,8.1,25.3,3.2c4.1-2.4,3.9-4.2,4-9.4c0.1-4.6-1.1-9.3-1.1-9.4
		c-0.1-0.2-0.1-0.5-0.2-0.7c-0.7-2.8-2.3-6.5-3.9-10c-0.1-0.2-0.2-0.4-0.3-0.5c0,0,0-0.1-0.1-0.1L975.9,501.8z"/>
	<path class="st34" d="M973.5,509.5c0,0,2.9,2.2-2.3,4.1l0,0c-5,2.1-3.8-1.5-3.8-1.5"/>
	<path class="st35" d="M941.8,517.1c0,0,0.2,3,2.5,4.1"/>
	<path class="st34" d="M942.4,518.9c0,0,1.1-0.4,1.9,0.3"/>
	<path class="st36" d="M974.1,498.3c-2.3,0.7-4.6,2.1-4.6,2.1l-0.6-2c2-1.1,3.4-1.7,4.5-1.8C973.6,497.1,973.9,497.7,974.1,498.3z"
		/>
	
		<linearGradient id="SVGID_8_" gradientUnits="userSpaceOnUse" x1="945.2817" y1="571.3303" x2="1091.8898" y2="483.3669" gradientTransform="matrix(1 0 0 -1 0 1080)">
		<stop  offset="7.620000e-02" style="stop-color:#010101"/>
		<stop  offset="0.1324" style="stop-color:#040403"/>
		<stop  offset="0.1666" style="stop-color:#0C0C0C"/>
		<stop  offset="0.1949" style="stop-color:#1A1A19"/>
		<stop  offset="0.2198" style="stop-color:#2F2F2D"/>
		<stop  offset="0.2426" style="stop-color:#494946"/>
		<stop  offset="0.2436" style="stop-color:#4A4A47"/>
		<stop  offset="0.328" style="stop-color:#4C4B48;stop-opacity:0.7177"/>
		<stop  offset="0.3643" style="stop-color:#534F4B;stop-opacity:0.5966"/>
		<stop  offset="0.3913" style="stop-color:#605650;stop-opacity:0.5062"/>
		<stop  offset="0.4138" style="stop-color:#726057;stop-opacity:0.4312"/>
		<stop  offset="0.4334" style="stop-color:#896D60;stop-opacity:0.3656"/>
		<stop  offset="0.451" style="stop-color:#A57D6B;stop-opacity:0.3067"/>
		<stop  offset="0.467" style="stop-color:#C78F78;stop-opacity:0.2534"/>
		<stop  offset="0.4816" style="stop-color:#EDA587;stop-opacity:0.2047"/>
		<stop  offset="0.483" style="stop-color:#F1A789;stop-opacity:0.2"/>
	</linearGradient>
	<path class="st37" d="M981.8,523.2c-0.1,5.2,0.1,7-4,9.4c-8.4,4.9-23.8-1.2-25.3-3.2c-0.3-0.4-0.6-0.6-0.8-0.9
		c-0.1-0.2-0.3-0.5-0.5-0.8c8.5-7.8,21.1-14.3,29.2-14.6c0.1,0.2,0.1,0.5,0.2,0.7C980.6,513.9,981.9,518.6,981.8,523.2z"/>
	<path class="st36" d="M958.8,501.9l0.9,1.9c0,0-5.3,1.8-8,4.1c-0.2,0.2-0.6,0-0.5-0.3C951.7,505.7,953,503.9,958.8,501.9z"/>
	<path class="st38" d="M976.3,502.4L976.3,502.4c-1.4-0.5-3.6-0.4-5,2.5c0,0.1,0,0.2,0.1,0.1c0.7-0.5,2.6-1.9,5-1.9L976.3,502.4z"/>
	<path class="st38" d="M962.3,508.8c-1.1,0.1-4.2,0.6-6.7,3.1c-0.1,0.1-0.2,0-0.2-0.1c0.5-1.7,3-4.6,6.9-3.1
		C962.5,508.6,962.4,508.8,962.3,508.8z"/>
	<ellipse class="st18" cx="1359.7" cy="896.2" rx="123.3" ry="23"/>
	
		<rect x="909.8" y="459.7" transform="matrix(0.9823 -0.1875 0.1875 0.9823 -80.5342 190.0796)" class="st39" width="109.5" height="122.1"/>
	<g class="st4">
		<path class="st40" d="M1019,501.9c0,0,5.1,2.9,5.9,10.8"/>
		<path class="st40" d="M1021,499.8c0,0,5.1,2.9,5.9,10.8"/>
		<g>
			
				<linearGradient id="SVGID_9_" gradientUnits="userSpaceOnUse" x1="836.2975" y1="360.001" x2="902.1942" y2="360.001" gradientTransform="matrix(0.9981 6.100000e-02 6.100000e-02 -0.9981 136.2945 843.1922)">
				<stop  offset="0.6244" style="stop-color:#B16F52"/>
				<stop  offset="0.7286" style="stop-color:#B47255"/>
				<stop  offset="0.817" style="stop-color:#BF7B5E"/>
				<stop  offset="0.8998" style="stop-color:#D08A6D"/>
				<stop  offset="0.9785" style="stop-color:#E9A082"/>
				<stop  offset="1" style="stop-color:#F1A789"/>
			</linearGradient>
			<path class="st41" d="M1057.3,562.8l-2.9,1.3l-19.1,8.7c-0.4-0.2-3.3-3.4-6.5-7.5c-7.6-9.8-12.9-19.4-11.9-17.9
				c0,0-7.9-0.7-19.4-12.9c-3.3-3.5-4.4-6.1-3.9-6.6c2.3-1.9,6.6,3.6,10.8,5.9c3.1,1.7,1.2-1.3,1.2-1.3s-12.9-25.3-10.5-26.8
				c2.5-1.5,13.2,18.7,13.8,20c-0.6-1.4-10.6-25-8.9-25.8c1.6-0.8,4,2.9,4.3,3.4c-0.2-0.4-1.1-2.6,0.1-3.2
				c2.3-1.1,12.7,19.8,13.4,21.1c-0.4-1.2-8.4-16.8-6.7-17.3c2.8-0.9,14.7,24.9,15.6,30c0.6,3.2,7.2,12.7,15.7,17.4
				c5.7,3.1,10.1,7.8,12.9,9.8C1056.5,562.2,1057.3,562.8,1057.3,562.8z"/>
			<line class="st24" x1="1005" y1="504.5" x2="1013.2" y2="523.3"/>
			<path class="st24" d="M1009.1,528c0.4-0.4,6.2-5,11.4-5.8"/>
			<path class="st24" d="M1006.8,534.2c0,0,6.8-1.9,10.9,2.2"/>
		</g>
	</g>
	
		<linearGradient id="SVGID_10_" gradientUnits="userSpaceOnUse" x1="945.6225" y1="601.1356" x2="960.9858" y2="567.5853" gradientTransform="matrix(1 0 0 -1 0 1080)">
		<stop  offset="0.2179" style="stop-color:#452821"/>
		<stop  offset="0.4832" style="stop-color:#664C42"/>
		<stop  offset="0.6897" style="stop-color:#7C6457"/>
		<stop  offset="1" style="stop-color:#B16F52"/>
	</linearGradient>
	<path class="st42" d="M967.1,480.8c-0.2-1.4-0.9-2.4-1.7-2.4c-0.1,0-0.3,0-0.4,0.1c-0.6-1.2-1.9-1.7-3-1.2
		c-0.3,0.1-0.5,0.3-0.7,0.6c-0.6-0.6-1.2-0.8-1.7-0.6c-0.4,0.2-0.6,0.6-0.7,1.2c-0.7-0.9-1.5-1.3-2.1-1c-0.3,0.1-0.5,0.5-0.6,0.9
		c-0.4-0.2-0.8-0.3-1.1-0.1c-0.3,0.1-0.5,0.5-0.6,0.9c-0.7-0.6-1.6-0.8-2.5-0.4c-0.8,0.4-1.2,1.1-1.3,2c-0.6-0.5-1.2-0.7-1.6-0.5
		c-0.6,0.3-0.8,1-0.6,2c-0.7-0.7-1.4-1.1-2-0.8c-0.5,0.2-0.7,0.8-0.7,1.6c-0.8-0.6-1.5-0.9-2.1-0.6c-0.6,0.3-0.9,1.1-0.9,2.2
		c-0.2,0-0.4,0-0.5,0.1c-0.5,0.2-0.7,0.9-0.7,1.8c-0.6-0.3-1.3-0.3-1.9,0c-0.8,0.4-1.3,1.2-1.3,2c-0.6-0.4-1.3-0.5-1.8-0.2
		c-0.9,0.4-1.2,1.6-1,2.9c-0.5-0.3-1-0.4-1.3-0.3c-0.7,0.3-0.8,1.4-0.5,2.6c-0.2-0.1-0.5,0-0.7,0c-0.7,0.3-0.9,1.5-0.4,2.6
		c0.1,0.3,0.3,0.5,0.5,0.7c-0.1,0.5,0,1,0.2,1.4c0.4,0.8,1,1.2,1.8,1.4c0,0.1,0.1,0.2,0.1,0.4c0.3,0.6,0.7,1,1.3,1.2
		c2.5,5.6,8.4,15.9,10.6,14.8l-2.8-9.6l3.4-1l-1.6-6.3c8.1-8.5,18.7-10.7,23-10.9l0.2-0.8c0,0-0.3-0.6-0.7-1.4
		c0.3-0.6,0.3-1.4,0-2.1c-0.2-0.3-0.4-0.6-0.7-0.9c0.2-0.3,0.3-0.8,0.2-1.2C968,481.4,967.6,481,967.1,480.8z"/>
	<path class="st43" d="M954.6,483.9c0,0-0.2-2.7,1.1-2.4s1.5,1.1,1.5,1.1s0-1.8,0.8-1.7s1.2,0.9,1.2,0.9s0.3-0.8,0.8-1
		c0.5-0.1,0.8,0.6,0.8,0.6"/>
	<path class="st43" d="M939.8,494c0,0-1.3-2.1-0.2-2.2c1.1-0.1,1.8,0.8,1.8,0.8s-0.2-0.9,0.4-1.3s1.1,0.2,1.1,0.2s0-0.9,0.8-0.9"/>
	<path class="st43" d="M955.4,487.9c-0.8,0.1-0.8,0.9-0.8,0.9s-0.5-0.6-1.1-0.2s-0.4,1.3-0.4,1.3"/>
	
		<linearGradient id="SVGID_11_" gradientUnits="userSpaceOnUse" x1="1443.6176" y1="882.7366" x2="1447.8895" y2="844.0523" gradientTransform="matrix(0.9996 -2.830000e-02 -2.830000e-02 -0.9996 -47.6846 1205.4001)">
		<stop  offset="0.1372" style="stop-color:#452821"/>
		<stop  offset="0.3277" style="stop-color:#482A23"/>
		<stop  offset="0.4896" style="stop-color:#533127"/>
		<stop  offset="0.6409" style="stop-color:#643D2F"/>
		<stop  offset="0.7859" style="stop-color:#7D4D3A"/>
		<stop  offset="0.9251" style="stop-color:#9D6249"/>
		<stop  offset="1" style="stop-color:#B16F52"/>
	</linearGradient>
	<path class="st44" d="M1346.8,234.8c0,0,22.4-10,23.4,22.2c0.1,4,9.1,9.9,7.1,16.5c-1.8,6.1,2.2,11.5,5.1,12.2
		c5.3,1.4,19.7,15.6,0.5,27.1c-14.7,8.8-19.8-8.5-20.8-9.8s-11.4-18.6-11.4-18.6L1346.8,234.8z"/>
	
		<linearGradient id="SVGID_12_" gradientUnits="userSpaceOnUse" x1="1851.0205" y1="1338.0081" x2="1843.2717" y2="1266.5635" gradientTransform="matrix(0.9824 -0.1866 -0.1866 -0.9824 -241.4053 1910.5742)">
		<stop  offset="0.1372" style="stop-color:#452821"/>
		<stop  offset="0.3277" style="stop-color:#482A23"/>
		<stop  offset="0.4896" style="stop-color:#533127"/>
		<stop  offset="0.6409" style="stop-color:#643D2F"/>
		<stop  offset="0.7859" style="stop-color:#7D4D3A"/>
		<stop  offset="0.9251" style="stop-color:#9D6249"/>
		<stop  offset="1" style="stop-color:#B16F52"/>
	</linearGradient>
	<path class="st45" d="M1325.9,316c0,0-10.6-9.6-12.6-15.4c-2.6-7.5,1.8-8.5-1.3-11.3c-3.1-2.8-4.2-11.5,1.5-14.9
		c3.2-1.9,2.6-7.4,1.7-10.4c-3.3-10.8,5.4-25.7,12.4-27.9c1.6-0.5-4.3,14.9-4.3,14.9l27.9,40.2L1325.9,316z"/>
	<path class="st46" d="M1355.5,408c-1.7-0.5-3.1-0.7-4.2-0.7c-5.3-0.9-5,1-9.7,0.1c1.9-0.7,3.7-1.3,5.1-1.8c3-1.1,5.3-3.6,5.9-6.8
		c0.5-2.7,0.9-6.1,0.3-9.6l0.2-0.2l0.5-0.6l0.1-0.1l-4.7-9.1c-19.2-3.8-32.9,0.9-53.9,0.9c-2.3,0-4.5,0-6.8,0.1c-0.9,0-1.7,0-2.6,0
		c-1.4,0-2.8,0-4.2,0c-1.6,0-3.1,0-4.6,0c-19.2,0.2-37.5,2-55.1,5.4c0,0,0,0.1,0,0.1c0.1,0.2,0.2,0.4,0.2,0.6c0.2,0.7,0.6,1.4,0.9,2
		c4.2,8,15.8,16.9,38.5,22.7c-1.4,2.2-3.7,5.9-7.7,12.3c-11.4,18.2-28,66.9-32.2,79.5c-0.5,1.4,0.1,2.9,1.3,3.7
		c-1.2,0.9-2.6,2-4.1,3.1c-3.3-0.3-8.5-0.7-7.4,0.7c0.8,1,3.4,0.8,5.8,0.4c-1.8,1.3-3.7,2.6-5.7,3.9c-0.7-0.3-1.3-0.5-1.3-0.5l1,0.7
		c-1,0.6-2,1.3-3,1.9c-0.6-0.2-1.1-0.4-1.2-0.4l0.8,0.6c-1.1,0.7-2.2,1.3-3.4,2c-0.5-0.2-0.8-0.2-0.9-0.3l0.6,0.4
		c-0.5,0.3-0.9,0.5-1.4,0.8c-11.1,5.9-6.1,15.4-6.1,15.4l0.1,0c0.3,2,1.1,3.4,1.1,3.4l35.4-12.1l0.9-3.3h0l3.4-11.4
		c1.8,0.3,3.7-0.5,4.7-2.2l45.9-82.8c0.9-0.3,9.2-3.3,19.5-7.1c6.1,1.1,9.8,1.8,13.6,2.5c3.1,0.6,6.1-0.7,7.8-3.1
		c-0.3,0.9-0.5,1.7-0.8,2.5c-0.2,0.6,0.1,1.1,0.6,1.6c-0.9,3.2-1.2,5.6,0.5,3.9c0.7-0.7,1.3-1.6,1.7-2.6c0.4,0.1,0.8,0.3,1.2,0.4
		c2.6,0.6,3.2-1.3,7.7,2.3c1.5,1.2,3.2,2.2,4.8,2.8c5.4,2.9,11.5,1.9,14.3-8.1C1361.6,412.3,1358.5,408.8,1355.5,408z M1331.8,411.3
		l0.2-0.6c0,0,0.1,0,0.1,0C1332,410.9,1331.9,411.1,1331.8,411.3z"/>
	<path class="st47" d="M1294.2,367.4c-12.7,0.8-59.8-12.7-72.6-3.8c-10.7,7.5-6.2,31.6,45.4,43.3c32.3,7.4,40,8.9,48.2,10.9
		c3.8,0.9,7.8-1.2,9.2-4.9l2.8-7.3c0.9-2.4-0.3-5-2.7-5.9l-3.2-2.4L1294.2,367.4z"/>
	
		<linearGradient id="SVGID_13_" gradientUnits="userSpaceOnUse" x1="662.2042" y1="404.4395" x2="676.4083" y2="368.4564" gradientTransform="matrix(0.8852 0.1138 0.1275 -0.9918 705.2453 604.8544)">
		<stop  offset="0" style="stop-color:#C17563"/>
		<stop  offset="0.4344" style="stop-color:#C57F6E"/>
		<stop  offset="1" style="stop-color:#CD9182"/>
	</linearGradient>
	<path class="st48" d="M1359,305.6c0,0-32.8,0.5-26.8-4.3c2.4-1.9,3.5-8.9,4.2-13.8c0-0.2,0.1-0.4,0.1-0.6c1-7.3,0.8-14.8,0.8-14.8
		s1.7-0.9,4-1.9c0.5-0.2,1.1-0.5,1.7-0.7c6.7-2.6,16.7-4.9,14.8,6.2C1354.9,292,1359,305.6,1359,305.6z"/>
	<polygon class="st49" points="1321.2,262.4 1326.7,264 1326.7,264.9 1321.4,264.6 	"/>
	<path class="st50" d="M1352.4,280.4c0,0-7,20.7-16.4,9.8c1-6.5,1.7-14.9,1.7-14.9s1.5-0.8,3.5-1.7c0.5-0.2,0.9-0.4,1.4-0.6
		L1352.4,280.4z"/>
	
		<linearGradient id="SVGID_14_" gradientUnits="userSpaceOnUse" x1="1667.7949" y1="1149.7872" x2="1668.1522" y2="1114.1045" gradientTransform="matrix(0.9925 -0.122 -0.122 -0.9925 -172.2989 1613.1246)">
		<stop  offset="0" style="stop-color:#C17563"/>
		<stop  offset="0.4344" style="stop-color:#C57F6E"/>
		<stop  offset="1" style="stop-color:#CD9182"/>
	</linearGradient>
	<path class="st51" d="M1352.2,240.9c-2.3-1.8-6.2-3.6-11.9-2.8c-5.1,0.7-8.6,3.6-10.7,6.4l-4.8,3l1.2,25.2c0.2,1.3,0.8,2.5,1.3,3.7
		c1.7,4.9,8.5,13.7,15.3,13.5c8.9-0.2,14.5-9.3,17.2-15c1.4-3.1-0.4-8.9-0.5-10l-2.2-12.2L1352.2,240.9z"/>
	
		<radialGradient id="SVGID_15_" cx="1664.7465" cy="1138.7333" r="12.1723" gradientTransform="matrix(0.9925 -0.122 -0.122 -0.9925 -172.2989 1613.1246)" gradientUnits="userSpaceOnUse">
		<stop  offset="0" style="stop-color:#9E504A"/>
		<stop  offset="1" style="stop-color:#A35249"/>
	</radialGradient>
	<path class="st52" d="M1348.5,276.7c0,0-6.6,11.9-15.4,1.6C1333.1,278.3,1340.6,276.7,1348.5,276.7z"/>
	<path class="st53" d="M1348.7,276.9c0,0-0.1,0.1-0.2,0.2c-1.5,0.7-4,1.7-7.1,2.2c-3.2,0.5-6.3-0.4-8.1-1.1c0,0-0.1-0.1-0.1-0.1
		C1333.2,278.1,1340.8,276.7,1348.7,276.9z"/>
	<path class="st54" d="M1349.7,276.2c0,0-0.5,0.3-1.4,0.8c-1.4,0.8-3.9,1.8-7,2.4c-3.2,0.5-6.3-0.3-8.1-0.9c-1-0.3-1.5-0.6-1.5-0.6"
		/>
	<path class="st55" d="M1335.3,272.4c0,0,1.6,1.8,3.8,1.4s3.1-1.9,3.1-1.9"/>
	
		<ellipse transform="matrix(0.9325 -0.3612 0.3612 0.9325 -6.6805 497.9089)" class="st38" cx="1328.6" cy="266.8" rx="1.4" ry="2.1"/>
	
		<ellipse transform="matrix(0.9132 -0.4075 0.4075 0.9132 8.5024 570.5928)" class="st38" cx="1343.7" cy="265.3" rx="1.4" ry="2.1"/>
	<path class="st47" d="M1322.3,298.3c0,0-18.3,12.3-25.7,46.8s35.1,3.7,35.1,3.7L1322.3,298.3z"/>
	<path class="st56" d="M1322.3,298.3c0,0-18.3,12.3-25.7,46.8s35.1,3.7,35.1,3.7L1322.3,298.3z"/>
	<path class="st38" d="M1343,255.5c0,0-2.9,0.5-2.8,1.8s3.3,0.5,3.3,0.5s4.8-1,7.4-0.4c0.2,0,0.3-0.2,0.2-0.3
		C1348.3,254.8,1343,255.5,1343,255.5z"/>
	<path class="st38" d="M1327.5,257.1c0,0,3,0,3,1.2c0.1,1.3-3.1,1.1-3.1,1.1s-4.9-0.1-7.4,1c-0.2,0.1-0.4-0.1-0.2-0.3
		C1322.2,257.4,1327.5,257.1,1327.5,257.1z"/>
	<g class="st4">
		
			<linearGradient id="SVGID_16_" gradientUnits="userSpaceOnUse" x1="1406.5574" y1="951.2133" x2="1407.1161" y2="901.2248" gradientTransform="matrix(0.9795 -3.820000e-02 -4.270000e-02 -0.9989 -1.9785 1236.0654)">
			<stop  offset="0.1372" style="stop-color:#452821"/>
			<stop  offset="0.329" style="stop-color:#482A23"/>
			<stop  offset="0.4917" style="stop-color:#533128"/>
			<stop  offset="0.5802" style="stop-color:#5C372C"/>
			<stop  offset="0.6649" style="stop-color:#673E31"/>
			<stop  offset="0.8129" style="stop-color:#84513E"/>
			<stop  offset="1" style="stop-color:#B16F52"/>
		</linearGradient>
		<path class="st57" d="M1325.5,264c0,0-14.7-0.8-10.9-13.1c2-6.5,10.9-18.6,18.6-19.3c26.7-2.6,26,33.9,26,33.9s0.2-24.1-18.9-22.5
			C1323.9,244.2,1325.5,264,1325.5,264z"/>
		
			<linearGradient id="SVGID_17_" gradientUnits="userSpaceOnUse" x1="1606.8994" y1="1099.1348" x2="1606.8994" y2="1099.1348" gradientTransform="matrix(0.9955 -9.520000e-02 -9.520000e-02 -0.9955 -140.1047 1493.5365)">
			<stop  offset="0.1372" style="stop-color:#452821"/>
			<stop  offset="0.3277" style="stop-color:#482A23"/>
			<stop  offset="0.4896" style="stop-color:#533127"/>
			<stop  offset="0.6409" style="stop-color:#643D2F"/>
			<stop  offset="0.7859" style="stop-color:#7D4D3A"/>
			<stop  offset="0.9251" style="stop-color:#9D6249"/>
			<stop  offset="1" style="stop-color:#B16F52"/>
		</linearGradient>
		<path class="st58" d="M1354.9,246.4"/>
		
			<linearGradient id="SVGID_18_" gradientUnits="userSpaceOnUse" x1="1592.7692" y1="1110.8306" x2="1592.7692" y2="1110.8306" gradientTransform="matrix(0.9955 -9.520000e-02 -9.520000e-02 -0.9955 -140.1047 1493.5365)">
			<stop  offset="0.1372" style="stop-color:#452821"/>
			<stop  offset="0.3277" style="stop-color:#482A23"/>
			<stop  offset="0.4896" style="stop-color:#533127"/>
			<stop  offset="0.6409" style="stop-color:#643D2F"/>
			<stop  offset="0.7859" style="stop-color:#7D4D3A"/>
			<stop  offset="0.9251" style="stop-color:#9D6249"/>
			<stop  offset="1" style="stop-color:#B16F52"/>
		</linearGradient>
		<path class="st59" d="M1339.7,236.1"/>
	</g>
	<path class="st47" d="M1356.7,290.3"/>
	<path class="st49" d="M1352.3,260c-0.4-0.2-2.5-1.2-5.5-1.1c-0.5,0-1,0-1.5,0.1c-1.8,0.2-3.1,0.9-4,1.5c-0.9,0.7-1.4,1.4-1.6,1.7
		l-2.2,0.2l-2.2,0.1c-0.2-0.3-0.9-0.9-1.9-1.5c-1-0.5-2.4-1-4.2-0.9c-0.5,0-1,0.1-1.5,0.1c-3,0.4-3.9,1.7-4.3,1.9l-2.4,0.2l0.2,2.2
		l0.2,0c0.5,0.1,1.3,0.3,1.4,0.6c0,0,0,0.1,0.1,0.3c1,5.8,3.6,7.2,6.7,7.2c0.3,0,0.7,0,1,0c1.8-0.1,3.4-1,4.5-2.5
		c0.1-0.1,0.2-0.3,0.3-0.5c0.8-1.3,1.2-2.8,1-4.4c0-0.4,0-0.8,0.9-0.9l0.5,0l0.1,0c1-0.1,1,0.3,1.1,0.7c0.1,1.6,0.8,3,1.8,4.2
		c0.1,0.1,0.3,0.3,0.4,0.4c1.4,1.3,3.2,1.9,4.9,1.8c0.3,0,0.7-0.1,1-0.1c3.1-0.5,6.2-2.4,6.1-8.3c0-0.1,0-0.2,0-0.3
		c0-0.3,0.7-0.7,1.2-0.8l0.2-0.1l-0.2-2.2L1352.3,260z M1335.9,267.5c-0.2,1-0.7,1.8-1.1,2.4c-1,1.3-2.6,2.2-4.1,2.3
		c-0.8,0.1-1.6,0-2.3-0.1c0,0,0,0,0,0c-4.1-0.8-4.2-5.7-3.7-8.2c0.3-1.3,1-2.1,2.1-2.6c0.8-0.2,1.5-0.4,2.6-0.5c3-0.1,4.8,1.3,5.4,2
		c0,0,0,0,0,0C1335.5,263.8,1336.1,265.3,1335.9,267.5z M1348.6,270.6C1348.6,270.6,1348.6,270.6,1348.6,270.6
		c-0.7,0.2-1.5,0.4-2.3,0.4c-1.6,0.1-3.3-0.5-4.5-1.6c-0.5-0.5-1.1-1.2-1.5-2.2c-0.6-2.2-0.3-3.8,0.2-4.8c0,0,0,0,0,0
		c0.5-0.7,2-2.4,5-2.8c1.1-0.1,2.1-0.1,2.9,0c1.2,0.3,2.6,0.9,3.2,2.2C1352.6,264.2,1352.5,269.2,1348.6,270.6z"/>
	
		<radialGradient id="SVGID_19_" cx="1678.0081" cy="1147.1545" r="6.5961" fx="1676.2859" fy="1147.1603" gradientTransform="matrix(0.9925 -0.122 -0.122 -0.9925 -172.2989 1613.1246)" gradientUnits="userSpaceOnUse">
		<stop  offset="0" style="stop-color:#D1675D;stop-opacity:0.3"/>
		<stop  offset="0.4967" style="stop-color:#C35A53;stop-opacity:0.151"/>
		<stop  offset="1" style="stop-color:#BA514C;stop-opacity:0"/>
	</radialGradient>
	<circle class="st60" cx="1352.5" cy="270.6" r="6"/>
	
		<radialGradient id="SVGID_20_" cx="1655.8085" cy="1146.7821" r="6.5961" fx="1654.0863" fy="1146.7878" gradientTransform="matrix(0.9925 -0.122 -0.122 -0.9925 -172.2989 1613.1246)" gradientUnits="userSpaceOnUse">
		<stop  offset="0" style="stop-color:#D1675D;stop-opacity:0.3"/>
		<stop  offset="0.4967" style="stop-color:#C35A53;stop-opacity:0.151"/>
		<stop  offset="1" style="stop-color:#BA514C;stop-opacity:0"/>
	</radialGradient>
	<circle class="st61" cx="1330.6" cy="273.7" r="6"/>
	<path class="st62" d="M1337.3,276.1"/>
	
		<linearGradient id="SVGID_21_" gradientUnits="userSpaceOnUse" x1="1935.8514" y1="1149.1715" x2="1942.4314" y2="1130.7026" gradientTransform="matrix(0.9318 -0.227 -0.2608 -1.0707 -138.3531 1938.3212)">
		<stop  offset="0.1372" style="stop-color:#452821"/>
		<stop  offset="0.3277" style="stop-color:#482A23"/>
		<stop  offset="0.4896" style="stop-color:#533127"/>
		<stop  offset="0.6409" style="stop-color:#643D2F"/>
		<stop  offset="0.7859" style="stop-color:#7D4D3A"/>
		<stop  offset="0.9251" style="stop-color:#9D6249"/>
		<stop  offset="1" style="stop-color:#B16F52"/>
	</linearGradient>
	<path class="st63" d="M1342.5,242.5c0,0,8.4,15.3,19.9,22.2c11.4,6.9-3-20-3-20L1342.5,242.5z"/>
	
		<linearGradient id="SVGID_22_" gradientUnits="userSpaceOnUse" x1="1515.3436" y1="971.4661" x2="1519.3163" y2="935.491" gradientTransform="matrix(0.9985 -5.430000e-02 -5.430000e-02 -0.9985 -86.2828 1319.2584)">
		<stop  offset="0.1372" style="stop-color:#452821"/>
		<stop  offset="0.304" style="stop-color:#543228;stop-opacity:0.8261"/>
		<stop  offset="0.6251" style="stop-color:#7C4C3A;stop-opacity:0.4911"/>
		<stop  offset="1" style="stop-color:#B16F52;stop-opacity:0.1"/>
	</linearGradient>
	<path class="st64" d="M1368.8,268.3c0,0,4.4,7.1,1.8,11.6c-2.1,3.6,0.4,7.7,4.9,8.3c4.5,0.6,12.2,7.8,10.5,13.1"/>
	
		<linearGradient id="SVGID_23_" gradientUnits="userSpaceOnUse" x1="1509.472" y1="966.9363" x2="1513.4447" y2="930.9611" gradientTransform="matrix(0.9985 -5.430000e-02 -5.430000e-02 -0.9985 -86.2828 1319.2584)">
		<stop  offset="0.1372" style="stop-color:#452821"/>
		<stop  offset="0.304" style="stop-color:#543228;stop-opacity:0.8261"/>
		<stop  offset="0.6251" style="stop-color:#7C4C3A;stop-opacity:0.4911"/>
		<stop  offset="1" style="stop-color:#B16F52;stop-opacity:0.1"/>
	</linearGradient>
	<path class="st65" d="M1363.2,273.1c0,0,4.4,7.1,1.8,11.6c-2.1,3.6,0.4,7.7,4.9,8.3c4.5,0.6,12.2,7.8,10.5,13.1"/>
	<polygon class="st49" points="1354.7,259.8 1360.3,261.4 1360.3,262.4 1354.9,262.1 	"/>
	
		<linearGradient id="SVGID_24_" gradientUnits="userSpaceOnUse" x1="7013.6235" y1="1176.347" x2="7060.9155" y2="1176.347" gradientTransform="matrix(-1.1688 1.600000e-02 1.600000e-02 -0.8888 9528.6797 1199.1183)">
		<stop  offset="0" style="stop-color:#C17563"/>
		<stop  offset="0.4344" style="stop-color:#C57F6E"/>
		<stop  offset="1" style="stop-color:#CD9182"/>
	</linearGradient>
	<path class="st66" d="M1359.1,270.8c0,0,0-4.1-0.7-7.8c-0.7-3.6,5.4-3.4,5.6-0.3C1364.3,265.8,1363.8,271.5,1359.1,270.8"/>
	<path class="st67" d="M1361.1,263.2c0,0,0.6,1.1,0.8,2.3c0.1,0.7,0.1,1.4-0.3,1.8"/>
	<path class="st67" d="M1359.8,266c0,0,1.3-1.6,2-1"/>
	<g class="st4">
		
			<linearGradient id="SVGID_25_" gradientUnits="userSpaceOnUse" x1="1904.027" y1="1176.1891" x2="1940.9012" y2="1176.1891" gradientTransform="matrix(0.9831 -0.183 -0.183 -0.9831 -263.1708 1916.7515)">
			<stop  offset="0" style="stop-color:#C17563"/>
			<stop  offset="0.8425" style="stop-color:#C47D6C"/>
			<stop  offset="1" style="stop-color:#C57F6E"/>
		</linearGradient>
		<path class="st68" d="M1418.6,406.3c-9-5.5-11.9-5.8-11.9-5.8s-6.3-9.3-6.7-9.9c-0.3-0.6-9.6,5.3-9.6,5.3s8.2,9.8,11.9,14.9
			c0.4,0.6,0.8,1,1.1,1.4c0.9,1.7,3.3,5.7,5.9,8.1c1.4,1.3,4.2,2.4,5.4,2.7c0.8,0.2,1.4-0.8,0.8-1.4c-1.7-1.7-4-4.1-4.6-5.8
			c-0.1-0.3-0.4-1.8,0-2.2c0.1,0.1,0.3,0.1,0.5,0.2c6,2.9,13,9.7,13.6,10.1c2.5,1.6,5.7,2.5,3.1-1.4c2.8,1.9,4,2.9,4.5,2.1
			c0.5-0.8-1.6-4.3-1.6-4.3s0.9,1.2,1.5,0.6C1432.9,420.6,1427.6,411.8,1418.6,406.3z"/>
		
			<linearGradient id="SVGID_26_" gradientUnits="userSpaceOnUse" x1="4356.3193" y1="-5536.9551" x2="4357.2168" y2="-5536.9551" gradientTransform="matrix(0.6353 -0.7723 0.7723 0.6353 2931.8799 7300.3267)">
			<stop  offset="0" style="stop-color:#C17563"/>
			<stop  offset="0.8425" style="stop-color:#C47D6C"/>
			<stop  offset="1" style="stop-color:#C57F6E"/>
		</linearGradient>
		<path class="st69" d="M1427.2,421.6c0,0-3.2-4.4-7.5-7.1"/>
		
			<linearGradient id="SVGID_27_" gradientUnits="userSpaceOnUse" x1="4465.5352" y1="-5534.687" x2="4467.2515" y2="-5534.687" gradientTransform="matrix(0.6142 -0.7892 0.7892 0.6142 3050.5513 7338.9346)">
			<stop  offset="0" style="stop-color:#C17563"/>
			<stop  offset="0.8425" style="stop-color:#C47D6C"/>
			<stop  offset="1" style="stop-color:#C57F6E"/>
		</linearGradient>
		<path class="st70" d="M1430.5,419.7c0,0-3.8-5.9-9.7-9.5"/>
	</g>
	<path class="st71" d="M1294.2,367.4c-12.7,0.8-59.8-12.7-72.6-3.8c-10.7,7.5-6.2,31.6,45.4,43.3c32.3,7.4,40,8.9,48.2,10.9
		c3.8,0.9,7.8-1.2,9.2-4.9l2.8-7.3c0.9-2.4-0.3-5-2.7-5.9l-3.2-2.4L1294.2,367.4z"/>
	<path class="st72" d="M1324.2,418.6c-0.6,1.6,6.6-1,8.2-0.5c2.6,0.7-0.9,2.6,3.4,6.4c5.8,5.1,13.7,6.1,17.4-5.5
		c3-9.3,0-12.9-2.9-13.9c-11.8-3.8-5.9,5.3-15.7,1.6C1330.4,405.1,1326.5,412.2,1324.2,418.6z"/>
	<path class="st72" d="M1228.6,501.4l-5.7,16.9L1187,529c0,0-4.7-9.5,6.1-15s24.1-15.7,24.6-16.5S1228.6,501.4,1228.6,501.4z"/>
	<path class="st73" d="M1229.8,498.2l-5.8,16.9l-26,7.2l-6.4,1.8l-5.6,1.5c0,0-4.6-9.7,6.8-15.1c11.3-5.4,25.1-15.5,25.7-16.4
		C1219,493.3,1229.8,498.2,1229.8,498.2z"/>
	<path class="st73" d="M1322.3,417.5c-0.5,1.6,2.3,2.9,3.9,3.3c2.6,0.7,3.3-1.2,7.6,2.6c5.8,5.1,13.6,6.2,17.1-5.1
		c2.8-9.1-0.1-12.9-3.1-13.7c-8.6-2.4-5.6,1.7-15.4-2.1C1328.4,400.9,1324.5,411.3,1322.3,417.5z"/>
	<path class="st47" d="M1301.7,371.1l-40.3,27.3c-4.4,3.7-1.2-0.3-13.5,17.6c-12.2,17.7-30.8,65.6-35.5,78.1
		c-0.6,1.7,0.2,3.5,1.8,4.2c3.5,1.4,9.3,3.8,13,5.3c2,0.8,4.3,0.1,5.5-1.8l49.3-80.8c2-0.7,45.4-14.3,59.6-18.8
		c3.1-1,5.4-3.4,6.2-6.5C1350.3,385.2,1350.4,362.8,1301.7,371.1z"/>
	
		<linearGradient id="SVGID_28_" gradientUnits="userSpaceOnUse" x1="1339.4132" y1="708.3221" x2="1280.7993" y2="836.5684" gradientTransform="matrix(1 0 0 -1 0 1080)">
		<stop  offset="0.3332" style="stop-color:#2B59C3"/>
		<stop  offset="0.5578" style="stop-color:#426BC9"/>
		<stop  offset="0.7224" style="stop-color:#557ACF"/>
	</linearGradient>
	<path class="st74" d="M1411.5,399.7c0,0-16,7.4-16.6,6c-0.3-0.8-14-31.5-25.4-56.9c-0.6-1.4-1.2-2.7-1.8-4
		c-4.2,9.6-9.1,19.4-13.4,27.6c-6.4,12-11.5,20.7-11.5,20.7s-81.2-5.9-71.5-28.5c6.9-16.1,38.6-8.8,43.5-44.5c0.8-6,1.6-15.9,5-19.8
		c1.9-2.2,4.5-3.9,7.3-4.8l5.6-0.8c0-0.8-0.1-1.3-0.1-1.3v-5.5c0,0,6.5,5.6,12.4,4.2c6.3-1.4,12.6-5,12.6-5l0.8,6.5
		c1.8-0.3,7.1,2.5,11.5,5.2c4.2,2.5,7.5,6.5,9.2,11.1L1411.5,399.7z"/>
	<path class="st46" d="M1369.5,348.8c-0.6-1.4-1.2-2.7-1.8-4c-4.2,9.6-9.1,19.4-13.4,27.6c-7.7,4.6-14.7,9.3-11.8,9.4
		c14.2,0.6,18.6-55.1,18.6-55.1L1369.5,348.8z"/>
	<g class="st4">
		
			<linearGradient id="SVGID_29_" gradientUnits="userSpaceOnUse" x1="1504.693" y1="919.4849" x2="1556.2317" y2="919.4849" gradientTransform="matrix(0.9971 -7.620000e-02 -7.620000e-02 -0.9971 -123.8963 1411.8223)">
			<stop  offset="4.270000e-02" style="stop-color:#D8D9D9"/>
			<stop  offset="0.3222" style="stop-color:#D5D7D7"/>
			<stop  offset="0.5079" style="stop-color:#CCCFD0"/>
			<stop  offset="0.6664" style="stop-color:#BDC1C5"/>
			<stop  offset="0.8096" style="stop-color:#A8AEB5"/>
			<stop  offset="0.9413" style="stop-color:#8D96A1"/>
			<stop  offset="1" style="stop-color:#7E8996"/>
		</linearGradient>
		<path class="st75" d="M1342.2,394l14.9-18.8c1-1.2,0.3-3-1.3-3.2l-50.7-7.9L1342.2,394z"/>
		<polygon class="st76" points="1340.6,372.6 1352.1,374.8 1340.9,389.9 		"/>
		<g>
			
				<linearGradient id="SVGID_30_" gradientUnits="userSpaceOnUse" x1="1583.5129" y1="891.2957" x2="1440.7251" y2="973.2317" gradientTransform="matrix(0.9971 -7.620000e-02 -7.620000e-02 -0.9971 -123.8963 1411.8223)">
				<stop  offset="4.270000e-02" style="stop-color:#D8D9D9"/>
				<stop  offset="0.3222" style="stop-color:#D5D7D7"/>
				<stop  offset="0.5079" style="stop-color:#CCCFD0"/>
				<stop  offset="0.6664" style="stop-color:#BDC1C5"/>
				<stop  offset="0.8096" style="stop-color:#A8AEB5"/>
				<stop  offset="0.9413" style="stop-color:#8D96A1"/>
				<stop  offset="1" style="stop-color:#7E8996"/>
			</linearGradient>
			<path class="st77" d="M1338.3,395.9l-69.8-13.7c-3,0.2-5.7-1.9-6.1-4.9l-5.6-37.1c-0.5-3.3,1.9-6.3,5.3-6.5l74.2,8.4
				c3.3-0.2,6.1,2.3,6.2,5.6l1.2,42.5C1343.7,393.1,1341.4,395.7,1338.3,395.9z"/>
			<g class="st78">
				<path class="st79" d="M1295.6,370.1c-2.4,0.2-4.4-1.7-4.6-5c-0.3-3.3,1.4-5.5,3.8-5.7c2.4-0.2,4.4,1.7,4.6,5
					C1299.7,367.8,1298,370,1295.6,370.1z M1295.3,367c0.7-0.1,1.3-0.8,1.2-2.3c-0.1-1.5-0.8-2.1-1.5-2.1c-0.7,0.1-1.3,0.8-1.2,2.3
					C1294,366.4,1294.6,367,1295.3,367z"/>
			</g>
		</g>
	</g>
	
		<linearGradient id="SVGID_31_" gradientUnits="userSpaceOnUse" x1="1312.134" y1="712.648" x2="1312.134" y2="712.648" gradientTransform="matrix(1 0 0 -1 0 1080)">
		<stop  offset="0" style="stop-color:#114D5C"/>
		<stop  offset="0.5863" style="stop-color:#155F71"/>
		<stop  offset="1" style="stop-color:#17677A"/>
	</linearGradient>
	<path class="st80" d="M1312.1,367.4"/>
	<path class="st81" d="M951.7,675.5c0,0,34.5,1.2,53.7-6.7"/>
	<path class="st81" d="M945.4,581.6c-1.1,5.4-3.3,13.4-1,9.4c2.4-4,4.7-9.7,4.7-9.7"/>
	<path class="st81" d="M1013.9,580.4c0,0-5.6-3.1-5.5-4.5"/>
	<path class="st81" d="M935.8,600.4c-0.5-0.2-5.7-0.8-8.2-3.1"/>
	<path class="st81" d="M969.6,602.9c0,0,39.8,35.2,38.2,27.8c-1.7-7.4-13.2-27.7-13.2-27.7"/>
	<g class="st4">
		<g>
			<path class="st13" d="M1573.4,458c-1.2-0.7,1.6-7.3,6.9-10.2s12.4-7.3,15.1-11.3c3.5-5.1,4.5-7.2,10.7-12.5
				c6.2-5.2,22.8-10.2,28.5-0.9s-0.7,16.4-8.5,20.3s-33.2,4.7-40.3,8.1C1578.7,454.9,1574.3,458.5,1573.4,458z"/>
			<path class="st14" d="M1573.4,458c-1.2-0.7,1.6-7.3,6.9-10.2s12.4-7.3,15.1-11.3c3.5-5.1,4.5-7.2,10.7-12.5
				c6.2-5.2,22.8-10.2,28.5-0.9s-0.7,16.4-8.5,20.3s-33.2,4.7-40.3,8.1C1578.7,454.9,1574.3,458.5,1573.4,458z"/>
		</g>
		<path class="st16" d="M1575.8,455.2c-1.2-0.6,1.3-7.4,6.4-10.5c5.1-3.1,12-7.8,14.6-12c3.3-5.3,4.1-7.4,10.1-12.9
			s22.3-11.2,28.5-2.2s0.1,16.4-7.6,20.6s-32.9,6.2-39.9,9.9C1581,451.9,1576.8,455.7,1575.8,455.2z"/>
	</g>
	<g class="st4">
		<g>
			<path class="st13" d="M978.9,786.7c-4-2.2-5.8-3.4-10.4-8.9s-6.9-15.9-16.5-20s-25.7-4.3-27.7,8.3c-2,12.7,12.3,23.5,20.4,26.6
				s22.8,6.3,29.8,5.7c7-0.6,15.2,1.4,20,7.2l3.2-2C997.6,803.6,982.8,788.9,978.9,786.7z"/>
			<path class="st14" d="M978.9,786.7c-4-2.2-5.8-3.4-10.4-8.9s-6.9-15.9-16.5-20s-25.7-4.3-27.7,8.3c-2,12.7,12.3,23.5,20.4,26.6
				s22.8,6.3,29.8,5.7c7-0.6,15.2,1.4,20,7.2l3.2-2C997.6,803.6,982.8,788.9,978.9,786.7z"/>
		</g>
		<g>
			<path class="st15" d="M997.1,805.8c-2.1-1.7-4.3-3.5-6.5-5c-2.2-1.6-4.5-3.1-6.9-4.4c-2.4-1.3-4.8-2.6-7.4-3.5l-3.9-1.4l-1.9-0.7
				l-1.9-0.8c-5.1-2.1-10-4.6-14.6-7.8c-2.3-1.6-4.4-3.3-6.4-5.3c-0.5-0.5-1-1-1.4-1.5c-0.5-0.5-0.9-1.1-1.3-1.6
				c-0.8-1.1-1.6-2.3-2.1-3.6c1.2,2.5,3.1,4.5,5.1,6.4c2,1.9,4.1,3.5,6.4,5c4.6,3,9.5,5.4,14.5,7.5l1.9,0.8l1.9,0.7l3.9,1.4
				c2.6,1,5.1,2.2,7.4,3.7C988.8,798.6,993.1,802,997.1,805.8z"/>
		</g>
	</g>
	<path class="st82" d="M1211.7,501.1c-0.8,0.1-11.4-1.9-9.8,0.2C1203.4,503.3,1211.7,501.1,1211.7,501.1z"/>
	<path class="st82" d="M1211.7,501.1c0,0-7.6,2.5-7,5C1205.8,510.1,1211.7,501.1,1211.7,501.1z"/>
	<path class="st82" d="M1193.6,509.3c0,0,3.3,0.9,3.5,2.7"/>
	<path class="st82" d="M1197.1,507.1c0,0,3.3,0.9,3.5,2.7"/>
	<path class="st82" d="M1200.4,505.1c0,0,3.3,0.9,3.5,2.7"/>
	<path class="st83" d="M1330.6,408c0,0-3,3.2-1.6,6.5"/>
	<path class="st83" d="M1333.2,408.7c0,0-1.3,3.3-0.5,6.2"/>
	<path class="st83" d="M1337.2,410.1c0,0-2.7,2.1-2.1,4.8"/>
	<path class="st82" d="M1326.7,409.5c0,0-7.7,17.4-3.4,13.5C1327.5,419.1,1326.7,409.5,1326.7,409.5z"/>
	<path class="st82" d="M1326.7,409.6c0,0,2,15.5,3.8,9.6C1332.3,413.3,1326.7,409.6,1326.7,409.6z"/>
	<path class="st84" d="M1336.1,296.8c1.2,0.2,7.8,4.5,16.3,0"/>
	<path class="st84" d="M1366.8,340.7c-1.3-1.2-8-19.7-4.8-28.2"/>
	<path class="st84" d="M1363.2,331.2c0,0-6.5-7.9-6.5-12.3"/>
	<path class="st84" d="M1396.2,401.2c1,0.2,7.2,0.6,9-1.2"/>
	<path class="st81" d="M953,547.2c-1.2,2.9-4,9.6,1,7.6c4.9-1.9,9.1-3.8,13.2-2.1s10,8.3,10,8.3"/>
	<path class="st81" d="M983.4,575.9c0,0,6.2,0.5,5.7-1.9s-6.5-18.5-6.5-18.5s-1.7-10.1,1.5-10.9c3.2-0.9,7.1,0.8,7.3-0.6
		c0.2-1.4-2.8-2.8-2.8-2.8"/>
	<path class="st81" d="M980.1,563.6c1.1,1.5,4,0.6,3.2-1s-2.5-1.8-3.2-0.5"/>
	<path class="st81" d="M982.9,570.8c1.1,1.5,4,0.6,3.2-1s-2.5-1.8-3.2-0.5"/>
	<g class="st4">
		<path class="st13" d="M1504.5,543.6c1.4-0.7,3.8-1.2,9.1-8.4s12.2-19.2,14.8-29.3c2.6-10.1,10.7-28.2,26.8-33.5
			c16.1-5.3,28.3-7,36.5-2.4s12,11.7,9.4,20.3c-6,15.1-24.3,17.5-36.5,17.1c-10.4-0.3-28.1,7.1-44.5,28.8c0,0-13.5,18.2-19.3,12.6
			C1499.3,546.8,1503.2,544.3,1504.5,543.6z"/>
		<path class="st14" d="M1504.5,543.6c1.4-0.7,3.8-1.2,9.1-8.4s12.2-19.2,14.8-29.3c2.6-10.1,10.7-28.2,26.8-33.5
			c16.1-5.3,28.3-7,36.5-2.4s12,11.7,9.4,20.3c-6,15.1-24.3,17.5-36.5,17.1c-10.4-0.3-28.1,7.1-44.5,28.8c0,0-13.5,18.2-19.3,12.6
			C1499.3,546.8,1503.2,544.3,1504.5,543.6z"/>
		<g>
			<path class="st15" d="M1585.5,485.7c-4.6-0.7-9.2-1-13.8-0.7c-4.6,0.3-9.2,1.1-13.4,2.8c-2.1,0.8-4.1,1.9-6,3.2
				c-1.9,1.3-3.6,2.8-5.2,4.4c-3.3,3.3-6.3,6.7-9.2,10.3c-2.9,3.6-5.5,7.4-7.9,11.3c-1.2,2-2.3,4-3.5,6c-1.2,2-2.5,3.9-3.9,5.8
				c-2.7,3.8-5.6,7.4-8.9,10.7c-1.6,1.7-3.3,3.2-5.2,4.6c-0.9,0.7-1.9,1.3-3,1.8c-1.1,0.4-2.3,0.8-3.4,0.4c1.1,0.3,2.3-0.1,3.3-0.5
				c1-0.5,2-1.1,2.9-1.8c1.8-1.4,3.5-3,5.1-4.7c3.1-3.4,6-7.1,8.6-10.8c1.3-1.9,2.6-3.8,3.7-5.8c1.2-2,2.2-4.1,3.3-6.1
				c2.3-4,5-7.9,7.8-11.6c2.9-3.7,6.1-7.1,9.4-10.3c1.6-1.6,3.4-3.3,5.4-4.5c2-1.3,4.1-2.3,6.3-3.1c4.4-1.6,9.1-2.3,13.7-2.5
				C1576.3,484.3,1581,484.7,1585.5,485.7z"/>
		</g>
	</g>
	<g class="st4">
		<path class="st13" d="M1502,482.4c0,0,7.3-10.7,14.2-17.7c6.9-7,32.2,0.7,45.4-13.1c13.2-13.8,43.7-59.3,38.6-71.6
			c-5.1-12.3-20.1-17.2-31.3-14.4s-16.9,19.6-29.6,32.4s-22.4,13.9-28.8,22.8c-6.4,8.9-9.2,36.4-10.5,46.8
			c-1.4,10.4-3.2,14.5-3.2,14.5L1502,482.4z"/>
		<path class="st14" d="M1502,482.4c0,0,7.3-10.7,14.2-17.7c6.9-7,32.2,0.7,45.4-13.1c13.2-13.8,43.7-59.3,38.6-71.6
			c-5.1-12.3-20.1-17.2-31.3-14.4s-16.9,19.6-29.6,32.4s-22.4,13.9-28.8,22.8c-6.4,8.9-9.2,36.4-10.5,46.8
			c-1.4,10.4-3.2,14.5-3.2,14.5L1502,482.4z"/>
		<g>
			<path class="st15" d="M1583.6,382.9c-5.7,8.8-11.7,17.4-18.4,25.6c-1.7,2-3.4,4-5.4,5.8c-2,1.8-4.1,3.4-6.4,4.8
				c-4.5,2.8-9.2,5.1-13.8,7.7c-2.3,1.3-4.5,2.6-6.5,4.2c-2.1,1.5-4,3.3-5.9,5c-3.8,3.5-7.3,7.5-10.5,11.6c-3.2,4.1-6,8.5-8.4,13.2
				c-2.4,4.6-4.3,9.5-5.8,14.6c1.1-5.1,2.9-10.1,5.1-14.9c2.3-4.8,5-9.3,8.2-13.5c3.1-4.3,6.7-8.2,10.5-11.8c1.9-1.8,3.9-3.6,6-5.2
				c2.1-1.6,4.4-3,6.7-4.3c4.6-2.6,9.4-4.8,13.8-7.6c2.2-1.4,4.3-2.9,6.3-4.6c1.9-1.7,3.7-3.6,5.4-5.6c3.4-3.9,6.7-8.1,9.8-12.2
				C1577.4,391.3,1580.5,387.1,1583.6,382.9z"/>
		</g>
	</g>
	<g class="st4">
		<path class="st85" d="M1396.5,837.6c-1.2,0.5-3.1-0.6-5.1-2.7c-1.2-1.2-2.4-2.7-3.5-4.3c-3.8-5.6-6.5-12.9-2.8-15.6
			c0.9-0.6,1.8-1.4,2.6-2.2c1.5-1.4,2.9-3,4.1-4.6c4-1.1,8.2-0.9,11.6,1.7c0,0,0,0,0,0c0.4,0.3,0.7,0.5,1,0.7
			c0.4,2.5,0.7,4.8,0.9,6.8C1406.4,832.8,1400.1,835.9,1396.5,837.6z"/>
		<path class="st86" d="M1306,817.9c-0.5,2.6-3,4.8-11.1,3.1c-0.2,0-1.1,0-2.6-0.1c-1.5-0.1-3.5-0.3-5.7-0.8
			c-5-1.2-10.8-4.2-12.5-11.4c-2-8.3,3.4-14.2,7.6-17.4c1-0.7,2.2,0.4,1.6,1.4c-1.2,2.4-2.4,5.8-2.4,10c0,3.6,3.8,5.9,8.3,7.3
			c3.8,1.1,8.1,1.7,11.2,2c0.3,0,0.6,0.1,0.9,0.1C1304.4,812.4,1306.6,815.1,1306,817.9z"/>
		<path class="st87" d="M1401.8,836.7c0.9-0.4,1.7-0.7,2.4-1.1c13.6-6.4,15.5-9.3,17.1-11.1c0.3-0.4,0.1-1.7,0-2.7
			c0-0.2,0-0.3,0-0.5c0-0.1,0-0.3,0-0.4c0-0.1,0-0.2,0-0.3c-0.2-3.1-1.8-7.2-3.3-7.8c-1.3-0.6-2.9,1.1-5.9,1c0,0,0,0,0,0
			c-1,0-2.2-0.2-3.6-0.8c-0.6-0.2-1.1-0.5-1.8-0.8c-0.6-0.3-1.3-0.7-2-1.2c-0.1,0-0.1-0.1-0.2-0.1c-0.1-0.1-0.2-0.2-0.3-0.2
			c-0.1-0.1-0.2-0.2-0.3-0.2c-0.1-0.1-0.2-0.1-0.3-0.2c-0.1,0-0.1-0.1-0.1-0.1c-3.4-2.6-7.6-2.8-11.6-1.7c-1.6,0.4-3.2,1.1-4.8,1.8
			c-5.1,2.5-9.3,6.3-10.8,8.5c-1.4,2.2-4.8,5.4-8.4,8.3c-1.7,1.3-3.4,2.6-5,3.6c-2.4,1.6-4.6,2.7-6.1,3c-4.7,0.9-1.1,3.5-29.6-22.3
			c-7.4-6.7-14.8-6-20.9-2.9c-2,1-3.9,2.3-5.6,3.7c-2,1.6-3.8,3.4-5.3,5.1c-1.1,1.2-2,2.5-2.9,3.8c-1.4,2.1-2.5,4.5-3.3,7
			c-3.8,11-9,27.2-12,36.6c-1.1,3.4-1.9,5.9-2.2,7c-0.1,0.4-0.2,0.8-0.2,1.2c-0.2,3.2-0.9,17.4-2.2,24.3c-1.4,7.8,3,8,3,8
			s10.9,3.4,11.8-1.8c0.3-2-2.3-4-4.2-5.1c-1.5-0.9-2.3-2.7-2.1-4.6c0.4-2.9,1.6-8.2,4.6-17.6c4.1-12.7,16-16.2,23.1-17.1
			c2.7-0.4,4.9,2.4,4.3,5.4l-3.9,18.9c-0.2,1.2,0,2.4,0.6,3.5c2.4,4,8.6,14.4,10.3,16.7c2.2,2.8,14,4.3,11-3
			c-1.3-3.3-10.2-6.3-12.9-13.7c-2.8-7.4,10.9-20.5,11.2-20.7c0.8-0.5,1.6-0.8,2.6-0.9c5.5-0.3,14.3,6.7,22.9,15.2
			c12.5,12.4,24.5,28.1,25.2,28.9c4.8,6.5,15.7,3.9,14-1.3c-1.6-5.3-7.1-4.3-9.9-5.3c-2.7-1-8.6-11.4-11.9-15.7
			c-1.5-1.9-3.8-4-3.5-7.1c0-0.2,0.1-0.5,0.1-0.7c0.7-2.9,3.8-4.2,6.1-2.4c1.1,0.9,2.3,1.9,3.7,3c9.7,8,24.7,21.2,26.3,23
			c2.5,2.8,7.7,2.3,12.1,2.1c4.4-0.3,4.8-7.8,1.2-9.6c-2.2-1.2-4.9-0.9-6.6-0.5c-1.1,0.3-2.3-0.1-3.2-0.9
			c-4.2-3.7-15.7-14.2-19.5-19.8c-3.6-5.2-3.5-20.4,4.1-30.3C1395.2,840.8,1398.1,838.3,1401.8,836.7z"/>
		<path class="st85" d="M1404.4,810.8c-0.3-0.2-0.7-0.5-1-0.7c0,0,0,0,0,0c-3.4-2.6-7.6-2.8-11.6-1.7c1.3-1.6,2.3-3.2,3.2-4.6
			c1.6-2.4,5-2.5,6.7,0c1.1,1.5,2.1,3.6,2.6,6.6C1404.4,810.4,1404.4,810.6,1404.4,810.8z"/>
		<path class="st86" d="M1412,813.8c-0.1,0-0.2,0.1-0.4,0.1c-1.4,0.3-3,0.2-4.2-0.6c-16.6-10.6-2.4,3.5-4.5,6.7
			c-5.3,8.1-2.1,12.6,1.3,15.6c-0.8,0.4-1.6,0.7-2.4,1.1c-3.7,1.6-6.6,4.1-8.8,7.1c-3.4,0.1-6.2,0.1-6.8,0.3
			c-7.3,3-8.7,17.4-6.3,26.4c1.4,5.1,0.2,8.1-1.5,9.1c-1.3-1.1-2.6-2.1-3.7-3c-2.3-1.8-5.4-0.5-6.1,2.4c-1.6,0.6-3.6,1.3-6.2,1.6
			c-2.2,0.2-4.9,0.1-7.7-0.4c-8.6-8.5-17.4-15.5-22.9-15.2c-9-4.2-12.8-7.5-15-13.1c-3.1-7.5-22.3,10.4-30.6,16.4
			c-5.5,4-7.9-0.1-9.1-3.8c3-9.4,8.2-25.6,12-36.6c0.9-2.5,2-4.8,3.3-7c-1.5-0.1-3.5-0.3-5.7-0.8c0.9-3.5,1.9-6.8,2.7-10.1
			c3.8,1.1,8.1,1.7,11.2,2c1.7-1.4,3.6-2.7,5.6-3.7c6.2-3.1,13.5-3.8,20.9,2.9c28.5,25.8,25,23.2,29.6,22.3c1.5-0.3,3.7-1.4,6.1-3
			c1.6-1.1,3.3-2.3,5-3.6c-1.6-4-1.9-7.8,0.5-9.5c4.3-3,7.7-8,9.9-11.3c1.6-2.4,5-2.5,6.7,0c0.7,1,0.7,2,1.3,3.7
			c-1.4-0.9,2.9-2.4,4.6-2.8c4-1.1,9.2,0.4,12.6,3c0,0,0,0,0.1,0.1c0.1,0.1,0.2,0.2,0.3,0.2c0.1,0.1,0.2,0.2,0.3,0.2
			c0.1,0.1,0.2,0.2,0.3,0.2c0,0,0.1,0.1,0.2,0.1c0.7,0.5,1.4,0.9,2,1.2c0.6,0.3,1.2,0.6,1.8,0.8
			C1409.8,813.5,1410.9,813.8,1412,813.8z"/>
		<path class="st88" d="M1381.7,831.3c0,0,0.2,11.1,12.7,10.7c-4.3,6.2-4.3,6.2-4.3,6.2s-14.8-8.2-12.4-14.2
			S1381.7,831.3,1381.7,831.3z"/>
		<path class="st85" d="M1387.9,830.6c-1.7,6.3-5.6,8.2-8.1,9.4c-2.6,1.2-9.2-6.2-11.9-13c-1.6-4-1.9-7.8,0.5-9.5
			c4.3-3,7.7-8,9.9-11.3c1.6-2.4,5-2.5,6.7,0c0.7,1,1.4,2.4,2,4c0.3,0.8,0.5,1.6,0.6,2.5c0,0.1,0,0.2,0,0.2
			C1389.1,821.1,1388.9,826.7,1387.9,830.6z"/>
		<path class="st89" d="M1419,817.9c0,0-8.4-1.4-4.3-4.3C1418.8,810.7,1421.8,815.1,1419,817.9z"/>
		
			<ellipse transform="matrix(0.7509 -0.6605 0.6605 0.7509 -190.941 1124.0573)" class="st89" cx="1394.4" cy="815.1" rx="1.6" ry="2.5"/>
		<path class="st89" d="M1419,819.1c0,0.1,0,0.2,0,0.3c-0.3,0.7-0.8,1.9-1.2,2.3c-2.1,2.7-7.5,2-7.5,2c7.6,2.5,8.6-2.2,8.8-4.2
			C1419.2,819.5,1419,819.3,1419,819.1L1419,819.1z"/>
		<path class="st89" d="M1421.3,821.8c-0.8,0.1-1.7-0.2-2.5-1.1c0,0,0,0,0,0c0,0-0.1-0.1-0.1-0.1c0,0,0,0-0.1,0
			c0-0.1,0.1-0.1,0.1-0.2v0c0,0,0.1-0.1,0.1-0.1c0,0,0,0,0.1,0c0,0,0.1,0,0.1,0.1c0,0,0,0,0,0c0.6,0.4,1.4,0.7,2.3,0.6
			c0,0.2,0,0.3,0,0.4C1421.3,821.5,1421.3,821.6,1421.3,821.8z"/>
		<path class="st89" d="M1370.5,845.3c-4.2,7.4-11.1-6.8-15.7-6.9c-4.6-0.1-24,6.4-24.5-6.2c-0.5-12.5-13.2-13.9-21.3-20.7
			c-1.2-1-2.1-2-2.9-3.1c6.2-3.1,13.5-3.8,20.9,2.9c28.5,25.8,25,23.2,29.6,22.3c1.5-0.3,3.7-1.4,6.1-3c2.6,2,5.1,4,7.5,5.9
			C1371.5,839.5,1372,842.7,1370.5,845.3z"/>
		<path class="st90" d="M1419,817c0,0-0.1,0.2-0.1,3.6"/>
		<g>
			<path class="st91" d="M1390.7,854.1c-2.3,0-4-1.5-4-3.8c0-2.4,1.7-3.8,4-3.8s4,1.5,4,3.8C1394.7,852.6,1393,854.1,1390.7,854.1z
				 M1390.7,851.5c0.5,0,1-0.4,1-1.3c0-0.9-0.5-1.3-1-1.3s-1,0.4-1,1.3S1390.2,851.5,1390.7,851.5z"/>
		</g>
	</g>
	<g class="st4">
		
			<ellipse transform="matrix(0.8464 -0.5326 0.5326 0.8464 -230.0574 971.3039)" class="st88" cx="1568.6" cy="884.4" rx="9.1" ry="39.7"/>
		
			<ellipse transform="matrix(0.9827 -0.1851 0.1851 0.9827 -140.5103 289.2334)" class="st88" cx="1478.8" cy="897.1" rx="39.7" ry="9.1"/>
		<g>
			<g>
				<g>
					
						<linearGradient id="SVGID_32_" gradientUnits="userSpaceOnUse" x1="-353.7544" y1="-6879.9307" x2="-299.3556" y2="-6879.9307" gradientTransform="matrix(0.8668 0.4987 -0.4987 0.8668 -1694.0195 6958.3398)">
						<stop  offset="0.768" style="stop-color:#ED916B"/>
						<stop  offset="0.8506" style="stop-color:#EE9570"/>
						<stop  offset="0.9485" style="stop-color:#F09F7E"/>
						<stop  offset="1" style="stop-color:#F1A789"/>
					</linearGradient>
					<path class="st92" d="M1487.6,828.5l-1.4-2.3l-9.2-14.7c-0.3,0-3.8,0.8-7.9,2.2c-9.7,3.3-17.7,7.5-16.4,6.9
						c0,0-5.8-3.1-19.2,0.1c-3.9,0.9-5.8,2.2-5.6,2.8c0.7,2.4,6.2,0.5,10.1,0.9c2.9,0.3,0.2,1.4,0.2,1.4s-20.4,11.6-19.4,13.6
						c1.1,2.2,17.6-6.9,18.6-7.5c-1,0.7-18.7,12.4-17.9,13.8c0.8,1.3,4.1-0.2,4.5-0.4c-0.3,0.2-1.9,1.3-1.4,2.2
						c1.1,1.8,17.8-7.9,18.8-8.5c-0.8,0.6-13.4,7.8-12.5,8.9c1.5,1.9,21.4-10.5,24.4-13.6c1.8-1.9,10.7-5.5,18.7-4.9
						c5.3,0.4,10.5-0.8,13.3-0.9C1486.8,828.5,1487.6,828.5,1487.6,828.5z"/>
					<line class="st93" x1="1425" y1="844.9" x2="1439.3" y2="835.7"/>
					<path class="st93" d="M1438.5,830.6c0.1,0.4,2,6.2,5.2,9.2"/>
					<path class="st93" d="M1439.8,825.3c0,0,3.9,4.4,8.5,3.4"/>
				</g>
			</g>
			
				<linearGradient id="SVGID_33_" gradientUnits="userSpaceOnUse" x1="1558.1761" y1="232.4951" x2="1490.5504" y2="287.8994" gradientTransform="matrix(1 0 0 -1 0 1080)">
				<stop  offset="0" style="stop-color:#007F5E"/>
				<stop  offset="0.3595" style="stop-color:#008D69"/>
				<stop  offset="1" style="stop-color:#00AF85"/>
			</linearGradient>
			<path class="st94" d="M1534.4,760c0,0-19.2,31.9-38.7,42.7c-18.8,10.4-31,10.4-42.2,14.1c-1.8,0.6,6,18.4,6.7,18.4
				c0.8,0,51.4-11.3,63.5-19.9c11.8-8.5,23.3-27.9,23.3-27.9L1534.4,760z"/>
			
				<linearGradient id="SVGID_34_" gradientUnits="userSpaceOnUse" x1="1552.4735" y1="347.1714" x2="1565.416" y2="319.9015" gradientTransform="matrix(1 0 0 -1 0 1080)">
				<stop  offset="0.699" style="stop-color:#ED916B"/>
				<stop  offset="0.8062" style="stop-color:#EE9570"/>
				<stop  offset="0.9332" style="stop-color:#F09F7E"/>
				<stop  offset="1" style="stop-color:#F1A789"/>
			</linearGradient>
			<path class="st95" d="M1573.3,744.4c0,0-29.5,22.3-25.2,15.8c1.7-2.6,1.3-6.6,0.2-10.5c-1.8-5.9-5.2-11.6-5.2-11.6
				s1.4-1.5,3.5-3.4c5.7-5.3,17.1-31.4,17.3-12.2C1564,739.8,1573.3,744.4,1573.3,744.4z"/>
			<path class="st96" d="M1561.8,733.1c0,0,1.9,24.7-14.4,17c-1.8-5.9-5-11.7-5-11.7s1-1.4,2.5-3.1L1561.8,733.1z"/>
			<path class="st97" d="M1619,782.9l-75.5,27.8c0,0-12.5-35.3-8.9-41.9c2.1-3.9,3.3-5.3,7.9-10.2c1-1.1,2-2.2,3-3.5
				c2.2-2.8,2.9-4.7,2.9-4.7s8.4,13.4,21.4-8.6c0,0,3.5-0.1,4.7,0c11.7,0.8,21.3,1.8,26.3,5.3c1.4,1,2.9,2.3,4.5,3.8
				c5.6,5.5,9.5,13.8,12.6,21.4L1619,782.9z"/>
			<path class="st13" d="M1618.1,778.9l-80.2,39.8c0,0-7.7-46.8-3.8-53.3c12.5-21.2,25.8,2.8,25.8,2.8s12.5-22.5,12.1-26.4
				c0-0.3,0.2-0.5,0.5-0.5c4.6,0.3,22.3,1.4,26.8,4.4c1.9,1.3,3.1,5.1,5.2,7.3c4.7,4.9,8.4,10.9,10.8,17.6L1618.1,778.9z"/>
			<path class="st13" d="M1602.3,765.5c28.3,55.9-1.6,91.3-1.6,91.3s-81.2,8.1-71.6-9.9c13-24.3,5.3-54.3,5.3-54.3
				S1594.4,749.9,1602.3,765.5z"/>
			<path class="st98" d="M1574.3,741c0,4.8-13,25-13.2,29c-0.2,3.8,5.6,26.1,3.9,32.7"/>
			
				<linearGradient id="SVGID_35_" gradientUnits="userSpaceOnUse" x1="1558.2673" y1="241.4206" x2="1567.059" y2="212.2117" gradientTransform="matrix(0.9995 -3.030000e-02 -3.030000e-02 -0.9995 6.6774 1126.1733)">
				<stop  offset="0" style="stop-color:#47ACD6"/>
				<stop  offset="1" style="stop-color:#9DCDD6"/>
			</linearGradient>
			<path class="st99" d="M1593.4,852.4l-7.3,6.2c-11.2,1.8-25.9,2.7-36.7,3c-6.9-3.3-14.3-7.6-20.6-12.8c-0.1-1.4,0.1-2.8,0.6-4.1
				c0,0,23.7-4.9,44.7-4C1586.9,846.9,1593.4,852.4,1593.4,852.4z"/>
			<path class="st98" d="M1574.8,745.6c0,0,3.5-0.8,4.6,0"/>
			<g>
				<path class="st100" d="M1541.4,738.6c0,0-24.2,11.1-16.4,27.1s18.9,23,16.8,45.3"/>
				
					<linearGradient id="SVGID_36_" gradientUnits="userSpaceOnUse" x1="1544.637" y1="509.2927" x2="1545.7041" y2="446.0992" gradientTransform="matrix(0.9985 -5.450000e-02 -5.450000e-02 -0.9985 23.4677 1322.5931)">
					<stop  offset="0" style="stop-color:#5C352C"/>
					<stop  offset="0.5962" style="stop-color:#724237"/>
					<stop  offset="1" style="stop-color:#7B473B"/>
				</linearGradient>
				<path class="st101" d="M1542.3,737.6c0,0-23.5,11-16,27.1c7.5,15.9,18.3,22.9,16.5,44.7c0,0.2,0.2,0.4,0.4,0.3
					c7.2-5.1,18.1-29,11.3-42c-6.9-13.4-6.3-19.4-6.3-19.4L1542.3,737.6z"/>
				<path class="st100" d="M1545.5,805.2c1.3-19.8-8.9-27.1-15.9-42.6c-5.5-12.3,7.3-21.3,13.7-24.9c2.1-1.1,3.5-1.7,3.5-1.7"/>
				<path class="st100" d="M1549.4,799.4c-1-15.3-9.8-22.6-15.9-36.3c-4.8-10.7,4.3-18.9,11-23.2c3.4-2.2,6.2-3.4,6.2-3.4"/>
			</g>
			<path class="st98" d="M1573.2,749.4c0,0,3.5-0.8,4.6,0"/>
			<path class="st98" d="M1571,753.6c0,0,3.5-0.8,4.6,0"/>
			<path class="st98" d="M1569.9,757.5c0,0,3.5-0.8,4.6,0"/>
			<path class="st98" d="M1567,761.6c0,0,3.5-0.8,4.6,0"/>
			<path class="st98" d="M1565,767.1c0,0,3.5-0.8,4.6,0"/>
			<path class="st98" d="M1564,771.3c0,0,3.5-0.8,4.6,0"/>
			<path class="st98" d="M1564.4,776.1c0,0,3.5-0.8,4.6,0"/>
			<path class="st98" d="M1565.5,781.1c0,0,3.5-0.8,4.6,0"/>
			<path class="st98" d="M1566,785.6c0,0,3.5-0.8,4.6,0"/>
			<path class="st98" d="M1566.5,789.8c0,0,3.5-0.8,4.6,0"/>
			<path class="st98" d="M1567.5,794.8c0,0,3.5-0.8,4.6,0"/>
			<path class="st98" d="M1568.1,799.4c0,0,3.5-0.8,4.6,0"/>
			<path class="st13" d="M1623.2,823.3c-3.2,2-9.7,1.6-15.5,0.3c-6.3-1.4-13-4.6-18.2-6.7c-4.6-1.8-7.9-3.3-8.4-3.1l-1.1-20.5
				l23.4,1.8l-12.7-49.6c0,0,7.7-6,18.4,7.2c2.7,3.4,5.6,9.2,8.1,16.1c0.5,1.4,1,2.8,1.5,4.3c0,0,0,0.1,0.1,0.1
				c1.5,4.6,2.9,9.6,4.1,14.5c0.7,3.2,1.4,6.3,1.9,9.4v0C1626.7,809.4,1627.3,820.7,1623.2,823.3z"/>
			<path class="st102" d="M1586.6,816.1c0.3,0,1.4,0.6,3.1,1.6C1587.7,816.7,1586.6,816.1,1586.6,816.1z"/>
			<path class="st102" d="M1622.6,823.8c-3.4,1.8-9.6,1.3-15.4,0c8.8-2.4,17.5-10,17.5-26.7C1626.7,809.4,1627.7,821.1,1622.6,823.8
				z"/>
			<path class="st98" d="M1593.5,806.5c0,0,20.1-4.6,28.5-1.4"/>
			<path class="st98" d="M1601,796.1c0,0-8.9-22.9-6.9-30.7"/>
			<path class="st98" d="M1592,774.7c-1.3-0.3-4.6-5-5.4-9"/>
			<g>
				<g>
					
						<linearGradient id="SVGID_37_" gradientUnits="userSpaceOnUse" x1="3333.6758" y1="1121.7319" x2="3393.6553" y2="1073.1699" gradientTransform="matrix(0.9334 -0.3588 -0.3588 -0.9334 -1197.8251 3054.6719)">
						<stop  offset="4.270000e-02" style="stop-color:#D8D9D9"/>
						<stop  offset="0.3222" style="stop-color:#D5D7D7"/>
						<stop  offset="0.5079" style="stop-color:#CCCFD0"/>
						<stop  offset="0.6664" style="stop-color:#BDC1C5"/>
						<stop  offset="0.8096" style="stop-color:#A8AEB5"/>
						<stop  offset="0.9413" style="stop-color:#8D96A1"/>
						<stop  offset="1" style="stop-color:#7E8996"/>
					</linearGradient>
					<path class="st103" d="M1579.2,832.6l-56.4,11c-2.3,0.8-4.7,0.6-5.6-0.6l-13.9-20.7c-1.2-1.5,0.3-3.8,3.2-4.9l65.6-14.6
						c2.9-1,5.7-0.4,6,1.4l4.7,24.3C1583.1,830,1581.6,831.7,1579.2,832.6z"/>
				</g>
				<g>
					<path class="st79" d="M1543.8,828.3c-2.1,0.4-5-0.2-5.7-2.4c-0.7-2.1,1.9-4,4.9-4.6c3-0.6,5.9,0.1,5.7,2.4
						C1548.5,826.2,1546.1,827.8,1543.8,828.3z M1543.6,826.3c0.9-0.2,1.7-0.9,1.6-1.8c-0.1-1-1-1.3-1.9-1.1
						c-0.9,0.2-1.6,0.8-1.5,1.8C1541.9,826,1542.7,826.4,1543.6,826.3z"/>
				</g>
			</g>
			<g>
				
					<linearGradient id="SVGID_38_" gradientUnits="userSpaceOnUse" x1="1047.8944" y1="-1418.3502" x2="1068.6509" y2="-1418.3502" gradientTransform="matrix(0.8576 0.5144 0.5144 -0.8576 1405.255 -956.4662)">
					<stop  offset="0.768" style="stop-color:#ED916B"/>
					<stop  offset="0.8506" style="stop-color:#EE9570"/>
					<stop  offset="0.9485" style="stop-color:#F09F7E"/>
					<stop  offset="1" style="stop-color:#F1A789"/>
				</linearGradient>
				<path class="st104" d="M1592.5,808.8c-0.1-0.2-0.2-0.4-0.3-0.6l0,0c0,0,0,0,0,0c-0.1-0.1-0.1-0.2-0.2-0.3
					c-0.2-0.3-0.4-0.6-0.6-0.9c-0.1-0.1-0.4-0.4-0.4-0.4c-1.2-1.4-2.9-2.7-4.6-2.9c-2.4-0.3-3.3-0.9-6.2-1.8s-5.5-3.3-6-2.8
					c-0.4,0.3,0.7,2.3,1.5,3.5c0.8,1,1.9,1.7,1.9,1.7C1578.2,804.7,1592.9,809.6,1592.5,808.8z"/>
				
					<linearGradient id="SVGID_39_" gradientUnits="userSpaceOnUse" x1="1192.5892" y1="-753.2723" x2="1223.1868" y2="-753.2723" gradientTransform="matrix(0.94 0.3413 0.3413 -0.94 700.1188 -306.0583)">
					<stop  offset="0.768" style="stop-color:#ED916B"/>
					<stop  offset="0.8506" style="stop-color:#EE9570"/>
					<stop  offset="0.9485" style="stop-color:#F09F7E"/>
					<stop  offset="1" style="stop-color:#F1A789"/>
				</linearGradient>
				<path class="st105" d="M1593.1,817.6c0.1-3.2-0.2-5.4-0.4-7.6c0,0,0,0,0-0.1c-0.2-2.4-2.3-4.2-4.8-4.3
					c-4.5-0.1-11.9-0.2-11.5-0.1c-3.8,0.3-8.8,2-10.1,3.3c-1.1,1.1-1,2.4-1,2.4s-0.5,0.2-1.1,0.5c0,0-0.1,0-0.1,0c0,0,0.1,0,0.1,0
					c-0.8,0.5-1.7,1.2-1.7,2c0,0.7,0.2,1.3,0.5,1.6c0.3,0.6,0.9,1,1.2,1.1c-0.3,0.4-0.8,1.3-0.1,2.2c0.1,0.2,0.2,0.3,0.4,0.5
					c1,1,3.2,1.4,4,1.5c-0.1,0.3-0.2,0.8,0.2,1.4c0.2,0.5,0.7,1,1.8,1.5c2.1,1,8.6,1.7,12.7,3.9c0,0,3.4,2.1,6.4-1.1
					C1590.5,825.5,1593,820,1593.1,817.6z"/>
				<path class="st106" d="M1566.3,811.5c0,0,10.1-3,18.6-0.7"/>
				<path class="st106" d="M1564.7,816c0,0,10.1-3,18.6-0.7"/>
				<path class="st106" d="M1572,819.3c0,0,5.9-0.7,14.2,2.3"/>
			</g>
			<path class="st98" d="M1593.2,822.6c0,0,18,3.3,26.3,2"/>
			<path class="st107" d="M1528.8,732c0,0-22.2-36.4,7.2-42.7c22.5-4,28.3,5.5,29.8,28.6C1567.4,741.1,1528.8,732,1528.8,732z"/>
			
				<linearGradient id="SVGID_40_" gradientUnits="userSpaceOnUse" x1="2538.3831" y1="1317.9224" x2="2536.8958" y2="1255.5082" gradientTransform="matrix(0.9496 -0.2189 -0.2143 -0.9296 -589.2698 2474.6699)">
				<stop  offset="0.768" style="stop-color:#ED916B"/>
				<stop  offset="0.8506" style="stop-color:#EE9570"/>
				<stop  offset="0.9485" style="stop-color:#F09F7E"/>
				<stop  offset="1" style="stop-color:#F1A789"/>
			</linearGradient>
			<path class="st108" d="M1563,722.4c0.1,0.5,2.7-0.5,1,0.4c-0.9,0.5-1.9-1.8-2-0.8c-0.1,2.5,2.4,8.4,1.5,11.5
				c-1.7,5.8-6.7,13.3-11.6,14.6c-5.2,1.4-10.3-1.5-12.4-2.9c-5.4-3.5-8.3-7.2-14.9-21.5c-5.9-12.6-1.6-30,11.3-33
				c0.8-0.2,1.6-0.3,2.4-0.4c5.5-0.6,10.3,1.1,14.3,3.9c0,0,0.1,0.1,0.1,0.1c4.5,3.3,7.9,8.2,9.7,12.9
				C1564.4,712.5,1562.4,718,1563,722.4z"/>
			<path class="st96" d="M1558,714.8c0.1,0.5,0.3,1.4,0,1.3c-23.7-8.4-21.4-8-26.9-11.3c4.8,4.3,13.3,6.9,13.5,6.9
				c0.1,0,0.2,0.2,0.1,0.3c0,0.1-0.1,0.1-0.1,0.1c0,0-0.1,0-0.1,0c-0.5-0.2-10.7-3.2-15-8.5c-0.8-0.6-1.4-1.2-1.6-1.7
				c-0.1-0.3-0.1-0.6,0-1c0,0,0,0,0,0c0-0.1,0-0.2,0.1-0.3c0.2-0.5,0.6-1,1.1-1.5c5.7-1.9,11.2-1.3,16,0.8c0.1,0,0.1,0,0.2,0.1
				c5.4,2.6,9.7,6.9,12.5,11.4C1560.7,716.5,1556.6,710.4,1558,714.8z"/>
			<path class="st107" d="M1532.4,706.9c0.5,4.3-6.1,22.9-6.1,22.9s-1.9-3.6-2-3.5C1512.2,691.8,1531.4,698.1,1532.4,706.9z"/>
			<path class="st107" d="M1554.3,714c0,0-0.5-0.2-1.4-0.4c-5.5-1.8-25.7-8.4-26.8-11.7c-1.2-3.7,22.2-16,32.5,9.5
				C1557.4,714.1,1554.3,714,1554.3,714z"/>
			<path class="st109" d="M1546.1,711.6c0,0-14.5-2.8-17-9.2"/>
			
				<ellipse transform="matrix(0.8879 -0.4601 0.4601 0.8879 -163.6071 786.1511)" class="st110" cx="1531.1" cy="728.7" rx="1.6" ry="2.3"/>
			
				<ellipse transform="matrix(0.8879 -0.4601 0.4601 0.8879 -159.4787 792.912)" class="st110" cx="1547" cy="723.7" rx="1.6" ry="2.3"/>
			<path class="st107" d="M1543.1,720.1c0,0-1.3,0.4-1.5-0.8c-0.2-1.2,1.4-1.7,2.3-1.9s6.1-2,8.4,0.1c0.1,0.1,0.1,0.3-0.1,0.3
				C1549,718.1,1543.1,720.1,1543.1,720.1z"/>
			<path class="st107" d="M1531.3,724c0,0,1.1-0.4,0.5-1.6s-2-0.8-2.7-0.5c-0.7,0.3-5.4,1.6-5.7,4.9c0,0.2,0.1,0.3,0.3,0.2
				C1526.1,725.6,1531.3,724,1531.3,724z"/>
			<path class="st111" d="M1544.2,730.1c0,0,3,2.2-2,3.9l0,0c-4.3,1.5-3.3-2.1-3.3-2.1"/>
			
				<radialGradient id="SVGID_41_" cx="2594.9597" cy="1053.6353" r="7.2792" fx="2593.0591" fy="1053.6416" gradientTransform="matrix(0.9711 -0.2238 -0.2238 -0.9711 -728.1157 2332.6069)" gradientUnits="userSpaceOnUse">
				<stop  offset="0" style="stop-color:#D1675D;stop-opacity:0.3"/>
				<stop  offset="0.4967" style="stop-color:#C35A53;stop-opacity:0.151"/>
				<stop  offset="1" style="stop-color:#BA514C;stop-opacity:0"/>
			</radialGradient>
			<circle class="st112" cx="1555.4" cy="729.5" r="6.6"/>
			
				<radialGradient id="SVGID_42_" cx="2571.8359" cy="1053.892" r="7.2792" fx="2569.9353" fy="1053.8982" gradientTransform="matrix(0.9711 -0.2238 -0.2238 -0.9711 -728.1157 2332.6069)" gradientUnits="userSpaceOnUse">
				<stop  offset="0" style="stop-color:#D1675D;stop-opacity:0.3"/>
				<stop  offset="0.4967" style="stop-color:#C35A53;stop-opacity:0.151"/>
				<stop  offset="1" style="stop-color:#BA514C;stop-opacity:0"/>
			</radialGradient>
			<circle class="st113" cx="1532.9" cy="734.4" r="6.6"/>
			<path class="st98" d="M1538.5,793.2c-1.2-0.5-3.8-5.5-4.1-9.7"/>
			<g>
				
					<radialGradient id="SVGID_43_" cx="2954.0098" cy="947.2295" r="6.6481" fx="2952.2739" fy="947.2352" gradientTransform="matrix(0.8689 -0.291 -0.3325 -0.9928 -705.3397 2538.9858)" gradientUnits="userSpaceOnUse">
					<stop  offset="0" style="stop-color:#D1675D"/>
					<stop  offset="0.6526" style="stop-color:#C35A53"/>
					<stop  offset="1" style="stop-color:#BA514C"/>
				</radialGradient>
				<path class="st114" d="M1552.6,734.8C1552.6,734.8,1552.6,734.9,1552.6,734.8c-1.1,8.3-7.5,11-14.8,5.3
					c-0.1-0.1-0.2-0.2-0.4-0.3C1537.4,739.9,1543.8,734.9,1552.6,734.8z"/>
				<path class="st115" d="M1552.7,735.1C1552.7,735.1,1552.7,735.1,1552.7,735.1c-1.2,1.2-3.5,2.8-7,3.8c-3.6,1-7.4,0.6-7.5,0.5
					C1538.2,739.3,1544.4,734.8,1552.7,735.1z"/>
				<path class="st116" d="M1536.5,739.4c-0.4-0.2,8.6,1.4,16.4-5.5C1550.7,738.3,1546.5,744.2,1536.5,739.4z"/>
			</g>
			<path class="st98" d="M1537.4,802.8c0,0-1.1-3.5-0.9-11.5"/>
			<path class="st107" d="M1566.9,714.6c0.3,2.5,0.1,5.1-0.5,7.6l-2.8,7.3l-0.8-3.2l-0.3-4.7c-0.8-2.2-2.6-4-4.6-5.3
				c-0.7-0.4-1.4-0.8-2.1-1.1c-3.3-1.5-33-15.3-32.8-16.2c1.1-6.6,12-8.5,12.9-8.8C1561.5,682.9,1566.3,709,1566.9,714.6z"/>
			<path class="st117" d="M1532.2,690.8c0,0-2.6,7.4-1.7,10.2"/>
			<g>
				
					<linearGradient id="SVGID_44_" gradientUnits="userSpaceOnUse" x1="1341.2415" y1="216.9451" x2="1341.8717" y2="224.6702" gradientTransform="matrix(0.9989 4.630000e-02 4.630000e-02 -0.9989 211.4536 874.6284)">
					<stop  offset="0.768" style="stop-color:#ED916B"/>
					<stop  offset="0.8506" style="stop-color:#EE9570"/>
					<stop  offset="0.9485" style="stop-color:#F09F7E"/>
					<stop  offset="1" style="stop-color:#F1A789"/>
				</linearGradient>
				<path class="st118" d="M1562.9,726.3l-0.9-3.3c-0.6-2.3-2.4-4.2-4.4-5.6c0.2-0.7,0.8-3.1,2.7-4.2
					C1562.5,712.1,1568.3,721.5,1562.9,726.3z"/>
				<path class="st119" d="M1560.9,717.1c0,0,2.9,1.7,2.3,4.5"/>
				<path class="st119" d="M1562.7,718.9c0,0-1,0.6-1,1.5"/>
			</g>
			<path class="st107" d="M1520.8,713.2c0,0,3,22.4-1.6,27.2c-0.1,0.1,0,0.3,0.1,0.2c5.2-3,8.4-14.7,11.2-24.1
				C1533.6,706.5,1520.8,713.2,1520.8,713.2z"/>
			
				<linearGradient id="SVGID_45_" gradientUnits="userSpaceOnUse" x1="1586.1786" y1="222.8486" x2="1594.1423" y2="196.3902" gradientTransform="matrix(0.9998 2.220000e-02 2.220000e-02 -0.9998 -4.0163 1045.437)">
				<stop  offset="0" style="stop-color:#47ACD6"/>
				<stop  offset="1" style="stop-color:#9DCDD6"/>
			</linearGradient>
			<path class="st120" d="M1626.9,844.7c0,0,4.1,24.4-41.9,40.5c-33.6,11.8-34.6-0.8-34.6-0.8L1626.9,844.7z"/>
			
				<linearGradient id="SVGID_46_" gradientUnits="userSpaceOnUse" x1="1504.188" y1="256.1392" x2="1521.8573" y2="197.4351" gradientTransform="matrix(0.9995 -3.030000e-02 -3.030000e-02 -0.9995 6.6774 1126.1733)">
				<stop  offset="0" style="stop-color:#47ACD6"/>
				<stop  offset="1" style="stop-color:#9DCDD6"/>
			</linearGradient>
			<path class="st121" d="M1548.5,861.1l-19,15.9c0,0-55.1-15.6-58.5-46.4c25.2,2.4,44.6,9.1,58,15.4l18.8,14.6L1548.5,861.1z"/>
			<path class="st122" d="M1547.9,860.6l-18.3,16.4c0,0-55.1-15.6-58.5-46.4c25.2,2.4,44.6,9.1,58,15.4L1547.9,860.6z"/>
			<path class="st123" d="M1593.4,852.4l-7.3,6.2c-11.2,1.8-25.9,2.7-36.7,3c-0.3-0.2-2.6-1.8-2.9-2l-17.5-13.6
				c0.1-0.5,0.2-0.9,0.4-1.3c0,0,23.7-4.9,44.7-4C1586.9,846.9,1593.4,852.4,1593.4,852.4z"/>
			<g>
				<path class="st124" d="M1564.2,892.1c0,0,10.3,3.3,12.4,7.9s4.3,15.2,10.5,16.9c3.1,0.9,11.4-1.1,15.8-8.7
					c5.3-9.4-11.3-22.2-11.3-22.2l-21.5-9.7L1564.2,892.1z"/>
				<path class="st125" d="M1585.2,913.3c0,0,16.4,1.3,13.3-11.8c-1.9-8.3-7.8-13.9-7.8-13.9"/>
				<path class="st125" d="M1582.4,909.7c0-0.1,1.6-8.8,10.6-10.2"/>
				<path class="st125" d="M1574.6,884.5c0,0,7,1.2,8.2,4.7c1.2,3.5,1.6,7.3,4.6,7.2c3-0.1,3-0.1,3-0.1"/>
				<path class="st125" d="M1572.4,890.5c0,0,9.7,2.7,8.7,12.4"/>
				<path class="st126" d="M1579.2,899.2c0,0,1.2-5,6-6"/>
				<path class="st126" d="M1577.3,895.1c0,0,0.6-5.8,6-7.1"/>
				<path class="st126" d="M1574.6,892.8c0,0,0.8-6.1,5-7.9"/>
				<path class="st127" d="M1571.6,887.9c0,0,0.5,10,3.2,10.1S1574,889.1,1571.6,887.9z"/>
				<path class="st127" d="M1572,886.9c0,0,7,5.1,10.1,4.3S1576.1,886.7,1572,886.9z"/>
			</g>
			
				<linearGradient id="SVGID_47_" gradientUnits="userSpaceOnUse" x1="1503.7224" y1="256.4962" x2="1530.0405" y2="169.0577" gradientTransform="matrix(0.9978 -6.560000e-02 -6.560000e-02 -0.9978 16.2348 1178.717)">
				<stop  offset="0" style="stop-color:#47ACD6"/>
				<stop  offset="1" style="stop-color:#9DCDD6"/>
			</linearGradient>
			<path class="st128" d="M1524.4,849.2c-10.1-5.1-44.1-21.4-56.3-19.4c-12.1,2-21.3,11.6-16.4,23.1c4.8,11.5,51.2,22.6,64,26.6
				c13.4,4.2,51.7,12.1,51.7,12.1l10.4-16.5L1524.4,849.2z"/>
			
				<linearGradient id="SVGID_48_" gradientUnits="userSpaceOnUse" x1="1549.959" y1="203.503" x2="1569.9481" y2="203.503" gradientTransform="matrix(0.5959 0.8031 0.8031 -0.5959 476.491 -249.8764)">
				<stop  offset="0" style="stop-color:#47ACD6"/>
				<stop  offset="1" style="stop-color:#9DCDD6"/>
			</linearGradient>
			<path class="st129" d="M1561.3,891.9l7.4,2.8c0,0,11.5-18.9,10.3-21.4c-1.1-2.5-6.8-6.1-6.8-6.1S1562.2,888.4,1561.3,891.9z"/>
			<g>
				<g>
					<path class="st124" d="M1490.8,874.6c-2.4,1.2-18.1,8.1-29.6,6.9c-11.5-1.2-20.8,3.1-22.2,8.5c-1.4,5.5,4.5,16.9,12.9,15.4
						s20.9-12.6,32.9-10.7C1492.1,895.9,1490.8,874.6,1490.8,874.6z"/>
					<path class="st130" d="M1449.8,886.2c0,0,6,2.3,5.3,13.5"/>
					<path class="st130" d="M1461.8,896c0,0-0.8-4.4,1.2-5.2s13.8,1.6,18-0.5"/>
					<path class="st130" d="M1456.9,883.9c0,0,2.1,3.9,4.5,3.5s9.5-6.2,15.7-5.1"/>
					<path class="st131" d="M1461.9,882.9c0,0,5.1,4.4,3.6,10"/>
					<path class="st131" d="M1467.7,883.6c0,0,6.4,4.3,4.9,10.6"/>
					<path class="st131" d="M1471.8,882.3c0,0,6.6,4.7,6.4,10.1"/>
					<path class="st132" d="M1479.3,882.5c0,0-11.8-6-13.5-3.3C1464.1,881.8,1476.5,884.2,1479.3,882.5z"/>
					<path class="st132" d="M1480.2,883.5c0,0-9.8,3.8-10.7,7.5C1468.6,894.7,1478.1,887.8,1480.2,883.5z"/>
				</g>
				<path class="st130" d="M1442.4,890.7c-0.1-0.2,1.5,12.2,12.1,12.1"/>
			</g>
			
				<linearGradient id="SVGID_49_" gradientUnits="userSpaceOnUse" x1="1563.0266" y1="185.2338" x2="1550.7432" y2="220.5164" gradientTransform="matrix(1.1392 2.530000e-02 2.170000e-02 -0.9744 -221.5931 1035.3138)">
				<stop  offset="0" style="stop-color:#47ACD6"/>
				<stop  offset="1" style="stop-color:#9DCDD6"/>
			</linearGradient>
			<path class="st133" d="M1473.5,878.1c0,0,120.4-45.8,125.5-46.3c11.9-1.2,20.6,0.5,26.4,8.1c5.8,7.7-9.4,21.9-9.4,21.9
				s-17.4,10.6-130.6,34.5C1479.3,881.1,1473.5,878.1,1473.5,878.1z"/>
		</g>
		
			<linearGradient id="SVGID_50_" gradientUnits="userSpaceOnUse" x1="1473.496" y1="195.5183" x2="1494.859" y2="195.5183" gradientTransform="matrix(1 0 0 -1 0 1080)">
			<stop  offset="0" style="stop-color:#47ACD6"/>
			<stop  offset="1" style="stop-color:#9DCDD6"/>
		</linearGradient>
		<path class="st134" d="M1486.9,897.2l8-1c0,0-9.7-23.8-12.4-24.3s-9,1.9-9,1.9S1484.7,894.4,1486.9,897.2z"/>
		<path class="st135" d="M1494.9,868.9c0,0,31.3-13.3,38.3-14.7"/>
		<path class="st135" d="M1545.8,881.5c0,0,71.6-13.7,75.1-27.9"/>
		<path class="st98" d="M1573.2,840c0,0-18.1,0.2-34.2,4.4"/>
		<line class="st135" x1="1532.5" y1="852.7" x2="1503.2" y2="839"/>
	</g>
	<g class="st4">
		<g>
			<g>
				
					<linearGradient id="SVGID_51_" gradientUnits="userSpaceOnUse" x1="825.685" y1="513.0636" x2="874.8622" y2="513.0636" gradientTransform="matrix(1.0298 -3.300000e-03 3.300000e-03 -0.9865 -26.3003 1075.4009)">
					<stop  offset="4.270000e-02" style="stop-color:#D8D9D9"/>
					<stop  offset="0.3222" style="stop-color:#D5D7D7"/>
					<stop  offset="0.5079" style="stop-color:#CCCFD0"/>
					<stop  offset="0.6664" style="stop-color:#BDC1C5"/>
					<stop  offset="0.8096" style="stop-color:#A8AEB5"/>
					<stop  offset="0.9413" style="stop-color:#8D96A1"/>
					<stop  offset="1" style="stop-color:#7E8996"/>
				</linearGradient>
				<path class="st136" d="M869,590.9l-7.9-49.2c-0.4-2.2-2.5-4-4.7-4l-34.3,0.1c-2.2,0-3.8,1.8-3.5,4.1l7.1,49.5
					c0.3,2.2,2.4,4.1,4.7,4l35.1-0.4C867.8,594.9,869.4,593.1,869,590.9z"/>
				<g>
					<polygon class="st137" points="864.1,590.9 856.3,541.7 823.5,541.8 830.6,591.2 					"/>
					<polygon class="st138" points="864.1,590.9 856.3,541.7 823.5,541.8 830.6,591.2 					"/>
				</g>
			</g>
		</g>
		<g>
			<g>
				<path class="st139" d="M829.9,562.7l-0.4-1.5h2.7l1.7,7.1h-1.7l-1.3-5.5L829.9,562.7L829.9,562.7z"/>
				<path class="st139" d="M834.2,561.9c0.3-0.6,0.9-1,1.8-1c1,0,1.7,0.3,2.3,1c0.6,0.6,1,1.5,1.3,2.6c0.3,1.1,0.3,2,0,2.6
					c-0.3,0.6-0.9,1-1.8,1s-1.7-0.3-2.3-1s-1-1.5-1.3-2.6C833.9,563.5,833.9,562.6,834.2,561.9z M837.4,563.1
					c-0.2-0.4-0.6-0.5-1-0.5c-0.4,0-0.7,0.2-0.8,0.5c-0.1,0.4,0,0.9,0.2,1.5c0.1,0.4,0.2,0.8,0.3,1.1c0.1,0.3,0.3,0.5,0.5,0.7
					c0.2,0.2,0.5,0.3,0.8,0.3c0.3,0,0.5-0.1,0.6-0.3c0.1-0.2,0.2-0.4,0.1-0.7c0-0.3-0.1-0.7-0.2-1.1
					C837.9,563.9,837.7,563.4,837.4,563.1z"/>
				<path class="st139" d="M840.5,561.9c0.3-0.6,0.9-1,1.8-1s1.7,0.3,2.3,1c0.6,0.6,1,1.5,1.3,2.6c0.3,1.1,0.3,2,0,2.6
					c-0.3,0.6-0.9,1-1.8,1s-1.7-0.3-2.3-1s-1-1.5-1.3-2.6C840.2,563.5,840.2,562.6,840.5,561.9z M843.7,563.1
					c-0.2-0.4-0.6-0.5-1-0.5c-0.4,0-0.7,0.2-0.7,0.5c-0.1,0.4,0,0.9,0.2,1.5c0.1,0.4,0.2,0.8,0.3,1.1c0.1,0.3,0.3,0.5,0.5,0.7
					s0.5,0.3,0.8,0.3s0.5-0.1,0.6-0.3c0.1-0.2,0.2-0.4,0.1-0.7s-0.1-0.7-0.2-1.1C844.2,563.9,844,563.4,843.7,563.1z"/>
				<path class="st139" d="M846.4,561.7c0.2-0.3,0.6-0.4,1.1-0.4c0.5,0,0.9,0.1,1.3,0.4c0.4,0.3,0.6,0.7,0.8,1.2
					c0.1,0.5,0.1,0.9-0.1,1.2c-0.2,0.3-0.6,0.4-1.1,0.4s-0.9-0.1-1.3-0.4c-0.4-0.3-0.6-0.7-0.8-1.2
					C846.1,562.4,846.2,562,846.4,561.7z M847.4,562.9c0.1,0.4,0.3,0.7,0.6,0.7c0.1,0,0.2-0.1,0.3-0.2s0.1-0.3,0-0.5
					c-0.1-0.4-0.3-0.7-0.6-0.7C847.4,562.2,847.3,562.5,847.4,562.9z M852.4,561.4l-2,6.8h-1.6l2-6.8H852.4z M851.9,565.5
					c0.2-0.3,0.6-0.4,1.1-0.4s0.9,0.1,1.3,0.4c0.4,0.3,0.6,0.7,0.8,1.2c0.1,0.5,0.1,0.9-0.1,1.2c-0.2,0.3-0.6,0.4-1.1,0.4
					c-0.5,0-0.9-0.1-1.3-0.4c-0.4-0.3-0.6-0.7-0.8-1.2C851.7,566.2,851.7,565.7,851.9,565.5z M852.9,566.2c-0.1,0.1,0,0.3,0,0.5
					c0.1,0.4,0.3,0.7,0.6,0.7c0.1,0,0.2-0.1,0.3-0.2c0.1-0.1,0.1-0.3,0-0.5c-0.1-0.2-0.1-0.4-0.3-0.5c-0.1-0.1-0.2-0.2-0.4-0.2
					C853.1,566,853,566.1,852.9,566.2z"/>
			</g>
		</g>
		<line class="st140" x1="827.8" y1="555.1" x2="852.5" y2="555.7"/>
		<line class="st140" x1="830.4" y1="573.4" x2="856" y2="573.1"/>
		<circle class="st141" cx="852.1" cy="545.8" r="0.7"/>
		<circle class="st141" cx="849.3" cy="545.8" r="0.7"/>
		<circle class="st141" cx="828.2" cy="546.1" r="0.7"/>
		<path class="st141" d="M840.9,585.7l0.3,1.4c0,0.1,0.1,0.2,0.2,0.2h7.8c0.2,0,0.3-0.1,0.2-0.3l-0.3-1.4c0-0.1-0.1-0.2-0.2-0.2
			h-7.7C841,585.4,840.9,585.5,840.9,585.7z"/>
	</g>
	
		<linearGradient id="SVGID_52_" gradientUnits="userSpaceOnUse" x1="2105.7883" y1="1601.6835" x2="2121.6042" y2="1601.6835" gradientTransform="matrix(-4.280000e-02 0.9991 -0.9991 -4.280000e-02 2555.6792 -1457.3798)">
		<stop  offset="0.6244" style="stop-color:#B16F52"/>
		<stop  offset="0.7286" style="stop-color:#B47255"/>
		<stop  offset="0.817" style="stop-color:#BF7B5E"/>
		<stop  offset="0.8998" style="stop-color:#D08A6D"/>
		<stop  offset="0.9785" style="stop-color:#E9A082"/>
		<stop  offset="1" style="stop-color:#F1A789"/>
	</linearGradient>
	<path class="st142" d="M872,571c0,0,6.4-0.4-6.8-10.3c-3.9-2.9-5.9-4.4-6.5-4c-2.3,1.7,6.4,8.6,8.6,14.2
		C869.1,575.4,872,571,872,571z"/>
</g>
<path class="st143" d="M1920,622.6l-55.6-16.6c-8.7-2.6-18-2.6-26.7,0.1l-107.3,33.3c-5.5,1.7-11.3,2-16.9,0.8l-61.4-16.6
	c-10-2.7-20.5-3.2-30.7-1.4l-134.9,23.4L1315,612.1c-12.1-2.3-24.6-1-35.8,4l-135.7,59.4"/>
<line class="st143" x1="0" y1="586.3" x2="162" y2="676.5"/>
<polyline class="st144" points="-0.8,669.3 39,669.3 39,713 -0.8,713 "/>
<rect x="39" y="582.7" class="st144" width="80.8" height="130.3"/>
<rect x="50.8" y="600.4" class="st144" width="57.3" height="24.2"/>
<g>
	<rect x="67.9" y="684.1" class="st144" width="11.3" height="28.9"/>
	<rect x="79.6" y="684.1" class="st144" width="11.3" height="28.9"/>
</g>
<rect x="773.9" y="646" class="st145" width="27.8" height="67"/>
<rect x="1781" y="500" class="st144" width="31" height="205.7"/>
<rect x="1775" y="492" class="st144" width="43" height="8"/>
<rect x="1775" y="463" class="st144" width="43" height="15"/>
<rect x="1770" y="477" class="st144" width="53" height="5"/>
<polygon class="st144" points="1821,492 1772,492 1770,482 1823,482 "/>
<polygon class="st144" points="1772,453 1821,453 1823,463 1770,463 "/>
<polygon class="st144" points="1777.1,448 1815.9,448 1817.5,453 1775.5,453 "/>
<path class="st143" d="M816,487c0,0-7.7,28.6,22,40c9.5,4,18.1,14.3,10.1,30.3"/>
<path class="st146" d="M809,473c0,0-9.5-23.4,10.7-32.2c20.2-8.8,34.3,7.1,34.3,17.2"/>
<line class="st143" x1="31.4" y1="715.3" x2="31.4" y2="733.3"/>
<g class="st147">
	<g>
		<path class="st144" d="M62.7,464.7c-2.6-1.4-4.7-3.4-6.2-6c-1.5-2.6-2.3-5.6-2.3-9.1c0-3.5,0.8-6.5,2.3-9c1.5-2.6,3.6-4.6,6.2-6
			c2.6-1.4,5.6-2.1,9-2.1c3.3,0,6.3,0.7,9,2.1c2.6,1.4,4.7,3.4,6.2,6s2.3,5.6,2.3,9c0,3.5-0.8,6.5-2.3,9.1c-1.5,2.6-3.6,4.6-6.3,6
			c-2.7,1.4-5.7,2.1-9,2.1C68.3,466.8,65.4,466.1,62.7,464.7z"/>
	</g>
	<path class="st144" d="M73.7,474.5"/>
	<path class="st144" d="M77.6,470.1"/>
	<g>
		<path class="st144" d="M65,464.7c-2-1.4-3.5-3.4-4.7-6c-1.1-2.6-1.7-5.6-1.7-9.1c0-3.5,0.6-6.5,1.7-9s2.7-4.6,4.7-6
			c2-1.4,4.2-2.1,6.7-2.1s4.7,0.7,6.7,2.1c2,1.4,3.5,3.4,4.7,6s1.7,5.6,1.7,9c0,3.5-0.6,6.5-1.7,9.1c-1.1,2.6-2.7,4.6-4.7,6
			c-2,1.4-4.2,2.1-6.7,2.1C69.2,466.8,66.9,466.1,65,464.7z"/>
	</g>
	<g>
		<path class="st144" d="M68.7,464.7c-0.9-1.4-1.6-3.4-2.1-6c-0.5-2.6-0.8-5.6-0.8-9.1c0-3.5,0.3-6.5,0.8-9c0.5-2.6,1.2-4.6,2.1-6
			c0.9-1.4,1.9-2.1,3-2.1s2.1,0.7,3,2.1c0.9,1.4,1.6,3.4,2.1,6c0.5,2.6,0.8,5.6,0.8,9c0,3.5-0.3,6.5-0.8,9.1c-0.5,2.6-1.2,4.6-2.1,6
			c-0.9,1.4-1.9,2.1-3,2.1C70.6,466.8,69.6,466.1,68.7,464.7z"/>
	</g>
	<polyline class="st144" points="68.9,474.5 65.9,470.1 65.9,466.7 77.6,466.7 77.6,470.1 74.6,474.5 	"/>
	<path class="st144" d="M73.7,478.8h-3.9c-0.5,0-1-0.4-1-1v-2.4c0-0.5,0.4-1,1-1h3.9c0.5,0,1,0.4,1,1v2.4
		C74.6,478.4,74.2,478.8,73.7,478.8z"/>
	<line class="st143" x1="65.9" y1="470.1" x2="77.6" y2="470.1"/>
</g>
<rect x="1219.5" y="696.7" class="st144" width="72.5" height="16.3"/>
<path class="st148" d="M681,666"/>
<path class="st143" d="M945.4,679l-173.1-73.8c-9.2-3.9-19.7-3.7-28.8,0.6l-8.7,4.6l-51.1,26.3"/>
<rect x="806.6" y="657" class="st149" width="87.4" height="55.7"/>
<rect x="773.9" y="643" class="st150" width="120.1" height="14"/>
<polygon class="st144" points="861,643 834,643 838.3,570 856.7,570 "/>
<line class="st143" x1="-0.8" y1="713" x2="1920" y2="713"/>
<path class="st143" d="M844,463c-2.7,0.2,29-2.1,29,25c0,26.9-16.5,22.6-16.5,40.7c0,10.2,2.2,11.5,2.2,19.5s-4.8,13.9-4.8,13.9"/>
<polygon class="st144" points="803,643.1 786,643.1 788.7,597.1 800.3,597.1 "/>
<g>
	<path class="st144" d="M1708.8,605.5c4.7,1.3,8.3,2.3,8.3,2.3l13.2-1.3l0.4-1.4c0,0-35.6-10-36.6-10.2c-1.1-0.4-2.6,0.4-3.2,0.7
		c-0.2,0.1-0.4,0.1-0.6,0.1c-2.2-0.5-2.9,0.4-3,0.6c-0.1,0.3-0.9,2.2,3.9,4.1c2.2,0.8,6.7,2.2,11.4,3.5"/>
	<path class="st144" d="M1702.9,602.8l-0.7,2.5c0,0,0.9,0.3,2.2,0.7c1.2,0.4,2.2,0.2,2.2,0.2l0.5-1.9c0,0-0.8-0.6-2-1
		C1704,603,1702.9,602.8,1702.9,602.8z"/>
	<polygon class="st144" points="1706.6,605.9 1708.6,606 1708.8,605.3 1707,604.5 	"/>
	<polygon class="st144" points="1723.2,602.9 1731.7,597 1734,597.7 1729.4,604.7 	"/>
</g>
<g>
	<rect x="1665" y="673.1" class="st144" width="79" height="39.7"/>
	<rect x="1635" y="669.1" class="st144" width="30" height="43.7"/>
	<polyline class="st144" points="1920,712.8 1845,712.8 1845,636.1 1920,616.1 	"/>
	<rect x="1869" y="662.1" class="st144" width="9" height="13.5"/>
	<rect x="1885.7" y="662.1" class="st144" width="9" height="13.5"/>
	<rect x="1902.3" y="662.1" class="st144" width="9" height="13.5"/>
	<rect x="1869" y="683.6" class="st144" width="9" height="13.5"/>
	<rect x="1677" y="698.8" class="st144" width="6" height="14"/>
	<rect x="1683" y="698.8" class="st144" width="6" height="14"/>
	<rect x="1885.7" y="683.6" class="st144" width="9" height="13.5"/>
	<rect x="1902.3" y="683.6" class="st144" width="9" height="13.5"/>
	<line class="st143" x1="1665" y1="680.1" x2="1744" y2="680.1"/>
	<rect x="1744" y="659.1" class="st144" width="101" height="53.7"/>
	<rect x="1756" y="680.1" class="st144" width="77" height="17"/>
	<rect x="1588.5" y="696.7" class="st151" width="67.6" height="16.3"/>
</g>
<path class="st152" d="M956.5,512.7"/>
<path class="st153" d="M966.2,520.7l11.3-4.8c1-0.6,1.5-0.2,1.4,0.6c-0.3,2.8-2.2,5.4-4,6.1c-3.9,1.5-7.2-0.1-8.7-1.1
	C965.8,521.4,965.9,520.8,966.2,520.7z"/>
<g>
	<path class="st154" d="M1595.9,408.7"/>
</g>
<g>
	<path class="st154" d="M947.6,757.4"/>
</g>
<path class="st144" d="M35.4,652.1c-1.6-3.7-6.4-3.7-8,0c-8.7,20.5-26.2,69.2,4,69.2S44.1,672.6,35.4,652.1z"/>
<line class="st143" x1="506.7" y1="715.3" x2="506.7" y2="733.3"/>
<g>
	<line class="st143" x1="1354.4" y1="708" x2="1354.4" y2="726"/>
	<path class="st144" d="M1358.4,644.8c-1.6-3.7-6.4-3.7-8,0c-8.7,20.5-26.2,69.2,4,69.2S1367.1,665.3,1358.4,644.8z"/>
</g>
<path class="st143" d="M149.8,688.8l39.1-39.1c9.4-9.4,24.7-9.4,34.2,0l21.8,21.8"/>
<path class="st143" d="M236.6,679l107.6-107.6c9.4-9.4,24.7-9.4,34.2,0l122.3,122.3"/>
<path class="st155" d="M457,650l130.5-61.8c7.8-3.1,16.9-2.3,23.8,2.2l123.5,79"/>
<path class="st144" d="M510.7,652.1c-1.6-3.7-6.4-3.7-8,0c-8.7,20.5-26.2,69.2,4,69.2S519.4,672.6,510.7,652.1z"/>
<line class="st144" x1="531.4" y1="719.4" x2="531.4" y2="733.3"/>
<path class="st144" d="M534.5,670.5c-1.2-2.9-5-2.9-6.2,0c-6.7,15.8-20.3,53.6,3.1,53.6C554.8,724,541.3,686.3,534.5,670.5z"/>
<line class="st144" x1="445.2" y1="721.1" x2="445.2" y2="733.3"/>
<path class="st144" d="M447.9,678.4c-1.1-2.5-4.3-2.5-5.4,0c-5.9,13.8-17.7,46.8,2.7,46.8C465.6,725.2,453.8,692.3,447.9,678.4z"/>
</svg>
