<?xml version="1.0" encoding="utf-8"?>
<!-- Generator: Adobe Illustrator 25.2.3, SVG Export Plug-In . SVG Version: 6.00 Build 0)  -->
<svg version="1.1" id="Layer_1" xmlns="http://www.w3.org/2000/svg" xmlns:xlink="http://www.w3.org/1999/xlink" x="0px" y="0px"
	 viewBox="0 0 1920 1080" style="enable-background:new 0 0 1920 1080;" xml:space="preserve">
<style type="text/css">
	.st0{fill:#F95F6D;}
	.st1{fill:#FE3845;}
	.st2{opacity:0.75;}
	.st3{fill:#FE5661;}
</style>
<g>
	<path class="st0" d="M150.5,689.5l-1.4-1.4l39.1-39.1c9.8-9.8,25.8-9.8,35.6,0l21.8,21.8l-1.4,1.4l-21.8-21.8c-9-9-23.7-9-32.8,0
		L150.5,689.5z"/>
</g>
<g>
	<path class="st0" d="M1145.5,676.4l-0.8-1.8l135.7-59.4c11.5-5.1,24.1-6.5,36.4-4.1l171.3,33.5l134.7-23.4
		c10.3-1.8,21.1-1.3,31.1,1.4l61.4,16.6c5.4,1.1,11,0.9,16.3-0.8l107.3-33.3c8.9-2.8,18.3-2.8,27.3-0.1l53.7,16v2.1l-0.6-0.2
		l-53.7-16c-8.6-2.6-17.6-2.5-26.1,0.1l-107.3,33.3c-5.6,1.8-11.6,2-17.4,0.8l-61.5-16.6c-9.8-2.7-20.3-3.1-30.3-1.4l-135.1,23.4
		l-0.2,0l-171.5-33.5c-11.9-2.3-24.1-1-35.2,3.9L1145.5,676.4z"/>
</g>
<rect x="79" y="582.7" class="st1" width="80.8" height="130.3"/>
<path class="st0" d="M160.8,714H78V581.7h82.8V714z M80,712h78.8V583.7H80V712z"/>
<rect x="90.8" y="600.4" class="st1" width="57.3" height="24.2"/>
<path class="st0" d="M149.1,625.6H89.8v-26.2h59.3V625.6z M91.8,623.6h55.3v-22.2H91.8V623.6z"/>
<g>
	<rect x="107.9" y="684.1" class="st1" width="11.3" height="28.9"/>
	<path class="st0" d="M120.2,714h-13.3v-30.9h13.3V714z M108.9,712h9.3v-26.9h-9.3V712z"/>
</g>
<g>
	<rect x="119.6" y="684.1" class="st1" width="11.3" height="28.9"/>
	<path class="st0" d="M131.9,714h-13.3v-30.9h13.3V714z M120.6,712h9.3v-26.9h-9.3V712z"/>
</g>
<g>
	<rect x="773.7" y="646" class="st1" width="27.8" height="67"/>
	<path class="st0" d="M802.5,714h-29.8v-69h29.8V714z M774.7,712h25.8v-65h-25.8V712z"/>
</g>
<g>
	<rect x="1753" y="500" class="st1" width="31" height="205.7"/>
	<path class="st0" d="M1785,706.7h-33V499h33V706.7z M1754,704.7h29V501h-29V704.7z"/>
</g>
<g>
	<rect x="1747" y="492" class="st1" width="43" height="8"/>
	<path class="st0" d="M1791,501h-45v-10h45V501z M1748,499h41v-6h-41V499z"/>
</g>
<g>
	<rect x="1747" y="463" class="st1" width="43" height="15"/>
	<path class="st0" d="M1791,479h-45v-17h45V479z M1748,477h41v-13h-41V477z"/>
</g>
<g>
	<rect x="1742" y="477" class="st1" width="53" height="5"/>
	<path class="st0" d="M1796,483h-55v-7h55V483z M1743,481h51v-3h-51V481z"/>
</g>
<g>
	<polygon class="st1" points="1793,492 1744,492 1742,482 1795,482 	"/>
	<path class="st0" d="M1793.8,493h-50.6l-2.4-12h55.4L1793.8,493z M1744.8,491h47.4l1.6-8h-50.6L1744.8,491z"/>
</g>
<g>
	<polygon class="st1" points="1744,453 1793,453 1795,463 1742,463 	"/>
	<path class="st0" d="M1796.2,464h-55.4l2.4-12h50.6L1796.2,464z M1743.2,462h50.6l-1.6-8h-47.4L1743.2,462z"/>
</g>
<g>
	<polygon class="st1" points="1749.1,448 1787.9,448 1789.5,453 1747.5,453 	"/>
	<path class="st0" d="M1790.9,454h-44.7l2.2-7h40.3L1790.9,454z M1748.9,452h39.3l-1-3h-37.3L1748.9,452z"/>
</g>
<g>
	<path class="st0" d="M849,557.7l-1.8-0.9c3.2-6.5,3.9-12.4,2-17.6c-1.8-4.9-6-9-11.6-11.3C807.4,516.3,815,487,815,486.7l1.9,0.5
		c-0.3,1.1-7.1,27.9,21.4,38.8c6.1,2.6,10.7,7.1,12.7,12.5C853.2,544.3,852.5,550.7,849,557.7z"/>
</g>
<g>
	<path class="st0" d="M809,474c-0.4,0-0.8-0.2-0.9-0.6c-0.1-0.2-9.6-24.4,11.2-33.5c9-3.9,18-3.5,25.3,1.3
		c6.1,4,10.4,10.9,10.4,16.8c0,0.6-0.4,1-1,1s-1-0.4-1-1c0-5.2-3.9-11.4-9.5-15.1c-6.7-4.4-15-4.8-23.4-1.2
		c-19.1,8.3-10.5,30-10.2,30.9c0.2,0.5,0,1.1-0.6,1.3C809.3,474,809.1,474,809,474z"/>
</g>
<g>
	<rect x="70.3" y="716.5" class="st0" width="1.9" height="16.8"/>
</g>
<g class="st2">
	<g>
		<path class="st1" d="M102.7,464.7c-2.6-1.4-4.7-3.5-6.2-6c-1.6-2.8-2.4-5.9-2.3-9.1c-0.1-3.2,0.7-6.3,2.3-9c1.5-2.5,3.6-4.6,6.2-6
			c2.8-1.4,5.9-2.2,9-2.1c3.1,0,6.2,0.7,9,2.1c2.6,1.4,4.7,3.5,6.2,6c3.1,5.6,3.1,12.5,0,18.1c-1.5,2.6-3.7,4.7-6.3,6
			c-2.8,1.4-5.9,2.1-9,2.1C108.5,466.8,105.4,466.1,102.7,464.7z"/>
		<path class="st0" d="M111.3,467.8c-3.1,0-6.3-0.8-9.1-2.2l0,0c-2.8-1.5-5-3.7-6.6-6.4c-1.7-2.9-2.5-6.3-2.4-9.6
			c-0.1-3.3,0.8-6.6,2.4-9.5c1.6-2.7,3.8-4.9,6.6-6.4c2.9-1.5,6.2-2.3,9.5-2.2c3.2,0,6.5,0.7,9.4,2.2c2.8,1.5,5.1,3.7,6.6,6.4
			c3.2,6,3.2,13.1,0,19.1c-1.6,2.8-3.9,5-6.7,6.4c-2.9,1.5-6.2,2.3-9.5,2.2C111.5,467.8,111.4,467.8,111.3,467.8z M103.2,463.8
			c2.6,1.3,5.5,2,8.4,2c3,0,5.9-0.6,8.6-2c2.5-1.3,4.5-3.2,5.9-5.6c2.9-5.3,2.9-11.8,0-17.1c-1.4-2.4-3.4-4.3-5.8-5.6
			c-2.6-1.3-5.6-2-8.5-2c-3-0.1-5.9,0.6-8.6,2c-2.4,1.3-4.4,3.2-5.8,5.6c-1.5,2.6-2.2,5.5-2.2,8.5c-0.1,3,0.7,6,2.2,8.6
			C98.7,460.6,100.7,462.5,103.2,463.8z"/>
	</g>
	<g>
		<path class="st1" d="M105,464.7c-2.1-1.5-3.7-3.6-4.7-6c-1.2-2.9-1.8-6-1.7-9.1c-0.1-3.1,0.5-6.2,1.7-9c1-2.4,2.6-4.5,4.7-6
			c4-2.8,9.4-2.8,13.4,0c2.1,1.5,3.7,3.6,4.7,6c1.2,2.8,1.8,5.9,1.7,9c0.1,3.1-0.5,6.2-1.7,9.1c-1,2.4-2.6,4.5-4.7,6
			c-2,1.4-4.3,2.1-6.7,2.1C109.3,466.8,106.9,466.1,105,464.7z"/>
		<path class="st0" d="M111.5,467.8c-2.5,0-5-0.8-7.1-2.3l0,0c-2.2-1.6-4-3.9-5-6.4c-1.2-3-1.8-6.2-1.8-9.5
			c-0.1-3.2,0.5-6.4,1.8-9.4c1.1-2.6,2.8-4.8,5-6.4c4.4-3,10.2-3,14.6,0c2.2,1.7,4,3.9,5.1,6.4c1.3,2.9,1.9,6.2,1.8,9.4
			c0.1,3.2-0.5,6.4-1.8,9.4c-1,2.6-2.8,4.8-5,6.4c-2.1,1.5-4.7,2.3-7.3,2.3C111.6,467.8,111.6,467.8,111.5,467.8z M105.6,463.9
			c1.8,1.3,3.9,2,6.1,1.9c2.2,0,4.3-0.6,6.1-1.9c2-1.4,3.5-3.3,4.4-5.6c1.1-2.8,1.7-5.7,1.6-8.7c0.1-3-0.5-5.9-1.6-8.6
			c-0.9-2.2-2.4-4.2-4.4-5.6c-3.6-2.5-8.6-2.5-12.2,0c-1.9,1.4-3.4,3.3-4.3,5.6c-1.1,2.7-1.7,5.6-1.6,8.6c-0.1,3,0.5,6,1.6,8.7
			C102.1,460.5,103.7,462.5,105.6,463.9z"/>
	</g>
	<g>
		<path class="st1" d="M108.7,464.7c-1.1-1.9-1.8-3.9-2.1-6c-0.6-3-0.8-6-0.8-9.1c0-3,0.2-6,0.8-9c0.3-2.1,1-4.1,2.1-6
			c0.9-1.4,1.9-2.1,3-2.1s2.1,0.7,3,2.1c1.1,1.9,1.8,3.9,2.1,6c0.6,3,0.8,6,0.8,9c0,3.1-0.2,6.1-0.8,9.1c-0.3,2.1-1,4.1-2.1,6
			c-0.9,1.4-1.9,2.1-3,2.1S109.6,466.1,108.7,464.7z"/>
		<path class="st0" d="M111.7,467.8c-1.5,0-2.7-0.9-3.8-2.6l0,0c-1.1-2-1.9-4.1-2.2-6.3c-0.6-3-0.8-6.2-0.8-9.3
			c0-3.1,0.2-6.2,0.8-9.2c0.3-2.2,1.1-4.3,2.2-6.3c1.1-1.7,2.4-2.6,3.9-2.6c1.5,0,2.7,0.9,3.8,2.6c1.2,2,1.9,4.1,2.2,6.4
			c0.6,3,0.8,6.1,0.8,9.2c0,3.1-0.3,6.2-0.8,9.3c-0.3,2.2-1.1,4.3-2.2,6.3C114.4,466.9,113.2,467.8,111.7,467.8z M109.6,464.2
			c1.4,2.2,2.9,2.2,4.3,0c1-1.7,1.6-3.6,2-5.6c0.5-3,0.8-6,0.8-8.9c0-3-0.2-5.9-0.8-8.8c-0.3-2-1-3.9-2-5.7c-1.3-2.1-2.9-2.1-4.3,0
			c-1,1.7-1.6,3.6-2,5.6c-0.6,2.9-0.8,5.9-0.8,8.8c0,3,0.2,6,0.8,8.9C107.9,460.5,108.6,462.4,109.6,464.2z"/>
	</g>
	<g>
		<polyline class="st1" points="108.9,474.5 105.9,470.1 105.9,466.7 117.6,466.7 117.6,470.1 114.6,474.5 		"/>
		<polygon class="st0" points="115.4,475.1 113.8,473.9 116.6,469.8 116.6,467.7 106.9,467.7 106.9,469.8 109.7,473.9 108.1,475.1 
			104.9,470.4 104.9,465.7 118.6,465.7 118.6,470.4 		"/>
	</g>
	<g>
		<path class="st1" d="M113.7,478.8h-3.9c-0.6,0-1-0.4-1-1v-2.4c0-0.6,0.4-1,1-1h3.9c0.6,0,1,0.4,1,1v2.4
			C114.7,478.3,114.2,478.8,113.7,478.8z"/>
		<path class="st0" d="M113.7,479.8h-3.9c-1.1,0-2-0.9-2-2v-2.4c0-1.1,0.9-2,2-2h3.9c1.1,0,2,0.9,2,2v2.4
			C115.6,478.9,114.8,479.7,113.7,479.8L113.7,479.8z M109.8,475.4v2.4h3.8c0,0,0.1,0,0.1-0.1l0-2.3H109.8z"/>
	</g>
	<g>
		<rect x="105.9" y="469.1" class="st0" width="11.7" height="2"/>
	</g>
</g>
<g>
	<rect x="1219.5" y="696.7" class="st1" width="72.5" height="16.3"/>
	<path class="st0" d="M1293,714h-74.5v-18.3h74.5V714z M1220.5,712h70.5v-14.3h-70.5V712z"/>
</g>
<g>
	<path class="st0" d="M945,679.9l-173.1-73.8c-9-3.8-19.2-3.6-28,0.6l-8.7,4.6l-51.1,26.3l-0.9-1.8l51.1-26.3l8.7-4.6
		c9.4-4.4,20.2-4.7,29.7-0.6l173.1,73.8L945,679.9z"/>
</g>
<g>
	<rect x="806.6" y="657" class="st1" width="87.4" height="55.7"/>
	<path class="st0" d="M895,713.7h-89.3V656H895V713.7z M807.6,711.7H893V658h-85.5V711.7z"/>
</g>
<g>
	<rect x="773.9" y="643" class="st1" width="120.1" height="14"/>
	<path class="st3" d="M895.2,658.2H772.7v-16.4h122.5V658.2z M775.1,655.8h117.7v-11.6H775.1V655.8z"/>
</g>
<g>
	<polygon class="st1" points="861,643 834,643 838.3,570 856.7,570 	"/>
	<path class="st0" d="M862.1,644h-29.1l4.4-75h20.3L862.1,644z M835.1,642h24.9l-4.2-71h-16.5L835.1,642z"/>
</g>
<g>
	<path class="st0" d="M854.7,562.7l-1.6-1.2c2.9-3.9,4.5-8.5,4.6-13.3c0-3.6-0.5-5.9-1-8.2c-0.6-2.7-1.2-5.7-1.2-11.3
		c0-8.5,3.5-12.4,7.3-16.4c4.5-4.9,9.2-9.9,9.2-24.3c0-22.8-23.3-24-28-24c-1.1,0-1.1-0.9-1.1-1c0-0.2,0-1,1.1-1l0,0l0.1,0
		c5,0,30,1.3,30,26c0,15.2-5.2,20.7-9.7,25.7c-3.6,3.9-6.8,7.3-6.8,15c0,5.3,0.6,8.1,1.2,10.8c0.5,2.5,1,4.8,1,8.7
		C859.6,553.5,857.8,558.5,854.7,562.7z"/>
</g>
<g>
	<polygon class="st1" points="803,643.1 786,643.1 788.7,597.1 800.3,597.1 	"/>
	<path class="st0" d="M804.1,644.1h-19.1l2.8-48h13.5L804.1,644.1z M787.1,642.1h14.9l-2.6-44h-9.7L787.1,642.1z"/>
</g>
<g>
	<path class="st1" d="M1680.8,605.5l8.3,2.3l13.2-1.3l0.4-1.4c0,0-35.6-10-36.6-10.2c-1.1-0.4-2.6,0.4-3.2,0.7
		c-0.2,0.1-0.4,0.1-0.6,0.1c-2.2-0.5-2.9,0.4-3,0.6s-0.9,2.2,3.9,4.1c2.2,0.8,6.7,2.2,11.4,3.5"/>
	<path class="st0" d="M1689,608.8l-8.5-2.3l0.5-1.9l8.1,2.2l11.7-1.2c-10.7-3-34.1-9.6-35-9.8l-0.1,0c-0.6-0.2-1.9,0.4-2.3,0.6
		l-0.1,0.1c-0.3,0.1-0.7,0.2-1.1,0.2l-0.1,0c-1.3-0.3-1.8,0-1.9,0.1c-0.1,0.4,0.4,1.5,3.4,2.7c2.3,0.8,6.9,2.3,11.3,3.5l-0.5,1.9
		c-4.5-1.2-9.1-2.7-11.5-3.5c-2.5-1-4-2.1-4.5-3.5c-0.4-1-0.1-1.8,0-2c0.1-0.2,1-1.8,4-1.2c0,0,0.1,0,0.1,0c0.8-0.4,2.4-1.2,3.9-0.7
		c2.1,0.5,33,9.2,36.6,10.2l1,0.3l-0.9,3L1689,608.8z"/>
</g>
<g>
	<path class="st1" d="M1674.9,602.8l-0.7,2.5c0,0,0.9,0.3,2.2,0.7c0.7,0.2,1.5,0.3,2.2,0.2l0.5-1.9c-0.6-0.4-1.3-0.8-2-1
		C1676,603,1674.9,602.8,1674.9,602.8z"/>
	<path class="st0" d="M1677.9,607.2c-0.6,0-1.2-0.1-1.8-0.3c-1.3-0.4-2.2-0.7-2.2-0.7l-0.9-0.3l1.2-4.3l0.9,0.2c0,0,1.2,0.2,2.3,0.5
		c0.9,0.3,1.6,0.7,2.3,1.1l0.6,0.4l-0.8,3.2l-0.7,0.1C1678.5,607.2,1678.2,607.2,1677.9,607.2z M1675.4,604.6
		c0.3,0.1,0.8,0.2,1.3,0.4c0.4,0.1,0.7,0.2,1.1,0.2l0.1-0.5c-0.4-0.2-0.8-0.4-1.2-0.5c-0.4-0.1-0.8-0.2-1.2-0.3L1675.4,604.6z"/>
</g>
<g>
	<polygon class="st1" points="1678.6,605.9 1680.6,606 1680.8,605.3 1679,604.5 	"/>
	<polygon class="st0" points="1681.3,607 1677.3,606.8 1678.4,603.1 1682,604.7 	"/>
</g>
<g>
	<polygon class="st1" points="1695.2,602.9 1703.7,597 1706,597.7 1701.4,604.7 	"/>
	<path class="st0" d="M1701.8,605.9l-8.9-2.6l10.6-7.4l4,1.2L1701.8,605.9z M1697.5,602.5l3.5,1l3.5-5.3l-0.6-0.2L1697.5,602.5z"/>
</g>
<g>
	<rect x="1637" y="673.1" class="st1" width="79" height="39.7"/>
	<path class="st0" d="M1717,713.8h-81v-41.7h81V713.8z M1638,711.8h77v-37.7h-77V711.8z"/>
</g>
<rect x="1607" y="669.1" class="st1" width="30" height="43.7"/>
<path class="st0" d="M1638,713.8h-32v-45.7h32V713.8z M1608,711.8h28v-41.7h-28V711.8z"/>
<g>
	<polyline class="st1" points="1817,712.8 1817,636.1 1891.6,636 1891.6,713 	"/>
	<polygon class="st0" points="1892.6,713 1890.6,713 1890.6,637 1818,637.1 1818,712.8 1816,712.8 1816,635.1 1892.6,635 	"/>
</g>
<g>
	<rect x="1649" y="698.8" class="st1" width="6" height="14"/>
	<path class="st0" d="M1656,713.8h-8v-16h8V713.8z M1650,711.8h4v-12h-4V711.8z"/>
</g>
<g>
	<rect x="1655" y="698.8" class="st1" width="6" height="14"/>
	<path class="st0" d="M1662,713.8h-8v-16h8V713.8z M1656,711.8h4v-12h-4V711.8z"/>
</g>
<g>
	<g>
		<rect x="1833.1" y="662.1" class="st1" width="9" height="13.5"/>
		<path class="st0" d="M1843.1,676.6h-11v-15.5h11V676.6z M1834.1,674.6h7v-11.5h-7V674.6z"/>
	</g>
	<g>
		<rect x="1849.8" y="662.1" class="st1" width="9" height="13.5"/>
		<path class="st0" d="M1859.8,676.6h-11v-15.5h11V676.6z M1850.8,674.6h7v-11.5h-7V674.6z"/>
	</g>
	<g>
		<rect x="1866.4" y="662.1" class="st1" width="9" height="13.5"/>
		<path class="st0" d="M1876.4,676.6h-11v-15.5h11V676.6z M1867.4,674.6h7v-11.5h-7V674.6z"/>
	</g>
	<g>
		<rect x="1833.1" y="683.6" class="st1" width="9" height="13.5"/>
		<path class="st0" d="M1843.1,698.1h-11v-15.5h11V698.1z M1834.1,696.1h7v-11.5h-7V696.1z"/>
	</g>
	<g>
		<rect x="1849.8" y="683.6" class="st1" width="9" height="13.5"/>
		<path class="st0" d="M1859.8,698.1h-11v-15.5h11V698.1z M1850.8,696.1h7v-11.5h-7V696.1z"/>
	</g>
	<g>
		<rect x="1866.4" y="683.6" class="st1" width="9" height="13.5"/>
		<path class="st0" d="M1876.4,698.1h-11v-15.5h11V698.1z M1867.4,696.1h7v-11.5h-7V696.1z"/>
	</g>
</g>
<g>
	<rect x="1637" y="679.1" class="st0" width="79" height="2"/>
</g>
<g>
	<rect x="1716" y="659.1" class="st1" width="101" height="53.7"/>
	<path class="st0" d="M1818,713.8h-103v-55.7h103V713.8z M1717,711.8h99v-51.7h-99V711.8z"/>
</g>
<g>
	<rect x="1728" y="680.1" class="st1" width="77" height="17"/>
	<path class="st0" d="M1806,698.1h-79v-19h79V698.1z M1729,696.1h75v-15h-75V696.1z"/>
</g>
<g>
	<rect x="1560.5" y="696.7" class="st1" width="67.6" height="16.3"/>
	<path class="st0" d="M1629.1,714h-69.5v-18.2h69.5V714z M1561.5,712h65.7v-14.4h-65.7V712z"/>
</g>
<g>
	<rect x="505.7" y="715.3" class="st0" width="2" height="18"/>
</g>
<g>
	<rect x="1353.4" y="714" class="st0" width="2" height="18"/>
</g>
<g>
	<path class="st0" d="M500,694.4L377.7,572.1c-9-9-23.7-9-32.8,0L237.3,679.7l-1.4-1.4l107.6-107.6c9.8-9.8,25.8-9.8,35.6,0
		L501.4,693L500,694.4z"/>
</g>
<g>
	<path class="st0" d="M734.3,670.2l-123.5-79c-6.8-4.3-15.4-5.1-22.9-2.1l-130.4,61.8l-0.8-1.7l130.5-61.8
		c8.1-3.2,17.4-2.4,24.7,2.3l123.5,79L734.3,670.2z"/>
</g>
<g>
	<rect x="530.4" y="719.4" class="st0" width="2" height="13.9"/>
</g>
<g>
	<rect x="444.2" y="721.1" class="st0" width="2" height="12.2"/>
</g>
<g>
	<rect y="712" class="st0" width="1920" height="2"/>
</g>
<g>
	
		<rect x="1888.7" y="693.2" transform="matrix(-1.836970e-16 1 -1 -1.836970e-16 2601.7495 -1198.3995)" class="st1" width="22.7" height="17"/>
	<path class="st0" d="M1909.6,714h-19v-24.7h19V714z M1892.6,712h15v-20.7h-15V712z"/>
</g>
<g>
	<path class="st1" d="M1358.4,650.8c-0.8-2.2-3.3-3.3-5.5-2.5c-1.2,0.4-2.1,1.3-2.5,2.5c-8.7,20.5-26.2,69.2,4,69.2
		S1367.1,671.3,1358.4,650.8z"/>
	<path class="st0" d="M1354.4,721c-6.6,0-11.5-2.3-14.5-6.8c-9.3-14,2-46,9.6-63.8c0.5-1.4,1.6-2.5,3.1-3.1c2.7-1,5.7,0.4,6.8,3.1
		c7.6,17.8,18.8,49.8,9.6,63.8C1365.9,718.7,1361,721,1354.4,721z M1354.4,649c-0.4,0-0.8,0.1-1.1,0.2c-0.9,0.3-1.6,1-1.9,1.9
		c-6,14.1-18.9,48.2-9.8,61.9c2.6,3.9,6.9,5.9,12.8,5.9s10.2-2,12.8-5.9c9.1-13.7-3.8-47.9-9.8-61.9l0,0
		C1357,649.8,1355.7,649,1354.4,649z"/>
</g>
<g>
	<path class="st1" d="M510.7,652.1c-0.8-2.2-3.3-3.3-5.5-2.5c-1.2,0.4-2.1,1.3-2.5,2.5c-8.7,20.5-26.2,69.2,4,69.2
		S519.4,672.6,510.7,652.1z"/>
	<path class="st0" d="M506.7,722.3c-6.6,0-11.5-2.3-14.5-6.8c-9.3-14,2-46,9.6-63.8c0.5-1.4,1.6-2.5,3.1-3.1c2.7-1,5.7,0.4,6.8,3.1
		c7.6,17.8,18.8,49.8,9.6,63.8C518.2,720,513.3,722.3,506.7,722.3z M506.7,650.3c-0.4,0-0.8,0.1-1.1,0.2c-0.9,0.3-1.6,1-1.9,1.9
		c-6,14.1-18.9,48.2-9.8,61.9c2.6,3.9,6.9,5.9,12.8,5.9c5.9,0,10.2-2,12.8-5.9c9.1-13.7-3.8-47.9-9.8-61.9l0,0
		C509.3,651.1,508,650.3,506.7,650.3z"/>
</g>
<g>
	<path class="st1" d="M534.5,670.5c-0.6-1.7-2.5-2.6-4.2-2c-0.9,0.3-1.6,1.1-2,2c-6.7,15.8-20.3,53.6,3.1,53.6
		S541.3,686.3,534.5,670.5z"/>
	<path class="st0" d="M531.4,725.1c-5.2,0-9.1-1.8-11.4-5.4c-7.2-10.9,1.5-35.8,7.4-49.6c0.4-1.1,1.4-2.1,2.5-2.5
		c1.1-0.4,2.2-0.3,3.3,0.1c1,0.5,1.8,1.3,2.2,2.4c4.8,11.1,15,38,7.4,49.6C540.5,723.3,536.6,725.1,531.4,725.1z M531.4,669.3
		c-0.3,0-0.5,0-0.8,0.1c-0.6,0.2-1.1,0.7-1.4,1.4c-4.6,10.9-14.6,37.3-7.6,47.8c2,3,5.2,4.5,9.8,4.5c4.6,0,7.8-1.5,9.8-4.5
		c7.2-11-4-39.3-7.6-47.7l0-0.1c-0.2-0.6-0.6-1-1.2-1.3C532.1,669.4,531.7,669.3,531.4,669.3z"/>
</g>
<g>
	<path class="st1" d="M447.9,678.4c-0.6-1.5-2.2-2.3-3.7-1.7c-0.8,0.3-1.4,0.9-1.7,1.7c-5.9,13.8-17.7,46.8,2.7,46.8
		S453.8,692.3,447.9,678.4z"/>
	<path class="st0" d="M445.2,726.2c-4.6,0-8-1.6-10.1-4.8c-6.4-9.7,1.3-31.4,6.5-43.4c0.4-1,1.2-1.8,2.3-2.2c1-0.4,2-0.3,3,0.1
		c0.9,0.4,1.6,1.2,2,2.2c5.1,12.1,12.8,33.8,6.4,43.4C453.2,724.6,449.8,726.2,445.2,726.2z M445.2,677.5c-0.2,0-0.4,0-0.7,0.1
		c-0.5,0.2-0.9,0.6-1.1,1.1c-4,9.5-12.7,32.4-6.6,41.6c1.7,2.6,4.5,3.9,8.4,3.9s6.7-1.3,8.4-3.9c6.1-9.1-2.6-32.1-6.6-41.6l0,0
		c-0.2-0.5-0.5-0.8-1-1.1C445.7,677.6,445.5,677.5,445.2,677.5z"/>
</g>
<g>
	<path class="st1" d="M75,657.3c-0.8-2.1-3.1-3.1-5.1-2.3c-1.1,0.4-1.9,1.3-2.3,2.3c-8.1,19.2-24.5,64.7,3.7,64.7
		S83.1,676.5,75,657.3z"/>
	<path class="st0" d="M71.2,723c-6.2,0-10.8-2.1-13.6-6.4c-8.7-13.1,1.9-43,9-59.7c0.5-1.3,1.5-2.4,2.9-2.9c1.2-0.5,2.6-0.4,3.8,0.1
		c1.2,0.5,2.1,1.5,2.6,2.7c7.1,16.7,17.6,46.6,9,59.7C82,720.9,77.4,723,71.2,723z M71.2,655.7c-0.4,0-0.7,0.1-1.1,0.2
		c-0.8,0.3-1.5,1-1.8,1.8c-5.6,13.2-17.6,45.1-9.2,57.9c2.4,3.7,6.5,5.5,12,5.5s9.6-1.9,12-5.5c8.5-12.8-3.6-44.8-9.1-57.9l0,0
		c-0.3-0.8-0.9-1.4-1.6-1.7C72.1,655.8,71.7,655.7,71.2,655.7z"/>
</g>
<g>
	<polygon class="st0" points="78.7,646.8 0,623.2 0,621.1 79.3,644.9 	"/>
</g>
</svg>
