<svg id="Layer_1" data-name="Layer 1" xmlns="http://www.w3.org/2000/svg" xmlns:xlink="http://www.w3.org/1999/xlink" viewBox="0 0 1920 598.36"><defs><style>.cls-1,.cls-3,.cls-6{fill:none;}.cls-2{clip-path:url(#clip-path);}.cls-3,.cls-4{stroke:#f95f6d;}.cls-10,.cls-11,.cls-3,.cls-4,.cls-5,.cls-6,.cls-9{stroke-miterlimit:10;}.cls-11,.cls-3,.cls-4,.cls-6{stroke-width:2px;}.cls-10,.cls-11,.cls-4,.cls-5,.cls-9{fill:#fe3845;}.cls-10,.cls-11,.cls-5,.cls-6,.cls-9{stroke:#fe5661;}.cls-5{stroke-width:1.97px;}.cls-7{fill:#f95f6d;isolation:isolate;}.cls-7,.cls-8{opacity:0.75;}.cls-9{stroke-width:1.91px;}.cls-10{stroke-width:2.39px;}</style><clipPath id="clip-path"><rect class="cls-1" width="1920" height="789.2"/></clipPath></defs><g id="Testimonials"><g class="cls-2"><g id="background"><g id="background-2"><path class="cls-3" d="M1938,500.05l-73.61-22a45.88,45.88,0,0,0-26.74.14l-107.28,33.26a33.34,33.34,0,0,1-16.94.76l-76.56-20.7-150.37,26-190-37-153,67"/><line class="cls-3" y1="451.05" x2="158" y2="539.05"/><rect class="cls-4" x="-5" y="534.05" width="44" height="43.74"/><rect class="cls-4" x="39" y="447.46" width="80.83" height="130.33"/><rect class="cls-4" x="50.77" y="465.18" width="57.29" height="24.25"/><rect class="cls-4" x="67.87" y="547.31" width="11.33" height="28.86"/><rect class="cls-4" x="79.62" y="547.31" width="11.33" height="28.86"/><rect class="cls-4" x="1665" y="538.05" width="79" height="39.74"/><rect class="cls-4" x="1635" y="534.05" width="30" height="43.74"/><rect class="cls-5" x="764.94" y="518.05" width="27.79" height="67"/><polygon class="cls-4" points="1920 577.79 1845 577.79 1845 501.05 1920 481.05 1920 577.79"/><rect class="cls-4" x="1781" y="372.05" width="31" height="205.74"/><rect class="cls-4" x="1775" y="364.05" width="43" height="8"/><rect class="cls-4" x="1775" y="335.05" width="43" height="15"/><rect class="cls-4" x="1770" y="349.05" width="53" height="5"/><polygon class="cls-4" points="1821 364.05 1772 364.05 1770 354.05 1823 354.05 1821 364.05"/><polygon class="cls-4" points="1772 325.05 1821 325.05 1823 335.05 1770 335.05 1772 325.05"/><polygon class="cls-4" points="1777.09 320.05 1815.91 320.05 1817.5 325.05 1775.5 325.05 1777.09 320.05"/><rect class="cls-4" x="1869" y="527.12" width="9" height="13.49"/><rect class="cls-4" x="1885.67" y="527.12" width="9" height="13.49"/><rect class="cls-4" x="1902.34" y="527.12" width="9" height="13.49"/><rect class="cls-4" x="1869" y="548.55" width="9" height="13.49"/><rect class="cls-4" x="1677" y="563.79" width="6" height="14"/><rect class="cls-4" x="1683" y="563.79" width="6" height="14"/><rect class="cls-4" x="1885.67" y="548.55" width="9" height="13.49"/><rect class="cls-4" x="1902.34" y="548.55" width="9" height="13.49"/><line class="cls-3" x1="1233.41" y1="578.05" x2="1351" y2="578.05"/><line class="cls-3" x1="-4" y1="578.05" x2="158.96" y2="578.05"/><line class="cls-3" x1="1665" y1="545.05" x2="1744" y2="545.05"/><rect class="cls-4" x="1744" y="524.05" width="101" height="53.74"/><rect class="cls-4" x="1756" y="545.05" width="77" height="17"/><path class="cls-6" d="M816,359.05s-8,37,22,40c6,1,15,11,7,27"/><path class="cls-6" d="M809,345.05s-10-19,11-31,36,13,34,16"/><path class="cls-4" d="M35.42,516.84a4.26,4.26,0,0,0-8,0c-8.69,20.48-26.18,69.21,4,69.21S44.1,537.32,35.42,516.84Z"/><path class="cls-4" d="M1358.42,516.84a4.26,4.26,0,0,0-8,0c-8.69,20.48-26.18,69.21,4,69.21S1367.1,537.32,1358.42,516.84Z"/><line class="cls-3" x1="31.42" y1="580.05" x2="31.42" y2="598.05"/><path class="cls-7" d="M1761.59,125.15a30.32,30.32,0,0,0-31.1,2.61,30.42,30.42,0,0,0-56.54-7.1,30.42,30.42,0,0,0-44.41,24,30.41,30.41,0,0,0-42.34,7.48c-.06.1-.13.2-.2.3h180v-.22h24A44.2,44.2,0,0,0,1761.59,125.15Z"/><path class="cls-7" d="M728.64,11.13a15.19,15.19,0,0,1,15.55,1.31,15.21,15.21,0,0,1,28.27-3.55,15.21,15.21,0,0,1,22.21,12,15.19,15.19,0,0,1,21.16,3.73l.11.16H726v-.11H714A22.1,22.1,0,0,1,728.64,11.13Z"/><path class="cls-7" d="M369.3,164.73a7.55,7.55,0,0,0-7.77.65,7.61,7.61,0,0,0-14.14-1.77,7.38,7.38,0,0,0-3.53-.87,7.61,7.61,0,0,0-7.57,6.88,7.52,7.52,0,0,0-4.35-1.38,7.6,7.6,0,0,0-6.28,3.32h45v-.05h6A11.08,11.08,0,0,0,369.3,164.73Z"/><path class="cls-7" d="M670.63,386.65a7.58,7.58,0,0,1,7.78.65,7.6,7.6,0,0,1,14.13-1.77,7.62,7.62,0,0,1,11.11,6,7.59,7.59,0,0,1,10.58,1.87l0,.07h-45v-.05h-6A11,11,0,0,1,670.63,386.65Z"/><path class="cls-7" d="M1947.63,268.73a15.13,15.13,0,0,0-15.55,1.3,15.21,15.21,0,0,0-28.27-3.54,15.2,15.2,0,0,0-22.21,12,15.21,15.21,0,0,0-21.18,3.76l-.09.13h90v-.11h12A22.08,22.08,0,0,0,1947.63,268.73Z"/><path class="cls-7" d="M195.25,94.92a15.13,15.13,0,0,0-15.55,1.3,15.21,15.21,0,0,0-28.27-3.54,15.19,15.19,0,0,0-22.2,12,15.21,15.21,0,0,0-21.16,3.8l-.07.1h90v-.1h12A22.14,22.14,0,0,0,195.25,94.92Z"/><g class="cls-8"><path class="cls-4" d="M62.71,336.73a15.42,15.42,0,0,1-6.22-6,17.65,17.65,0,0,1-2.26-9.1,17.38,17.38,0,0,1,2.29-9.05,15.5,15.5,0,0,1,6.25-5.95,20.23,20.23,0,0,1,17.92,0,15.5,15.5,0,0,1,6.25,5.95,19.09,19.09,0,0,1,0,18.12,15.5,15.5,0,0,1-6.28,6,20.43,20.43,0,0,1-17.95,0Z"/><path class="cls-4" d="M65,336.73a13.85,13.85,0,0,1-4.67-6,22.5,22.5,0,0,1-1.69-9.1,22.12,22.12,0,0,1,1.71-9.05A14,14,0,0,1,65,306.67a11.84,11.84,0,0,1,13.44,0,14,14,0,0,1,4.69,5.95,24.75,24.75,0,0,1,0,18.12,13.94,13.94,0,0,1-4.71,6,11.94,11.94,0,0,1-13.46,0Z"/><path class="cls-4" d="M68.73,336.73a17.57,17.57,0,0,1-2.08-6,54.92,54.92,0,0,1,0-18.15,17.54,17.54,0,0,1,2.09-5.95c.87-1.39,1.87-2.09,3-2.09s2.11.7,3,2.09a17.73,17.73,0,0,1,2.08,5.95,54.38,54.38,0,0,1,0,18.12,17.8,17.8,0,0,1-2.09,6c-.89,1.38-1.89,2.08-3,2.08A3.66,3.66,0,0,1,68.73,336.73Z"/><polyline class="cls-4" points="68.9 346.5 65.9 342.13 65.9 338.73 77.56 338.73 77.56 342.13 74.56 346.5"/><rect class="cls-4" x="68.81" y="346.5" width="5.83" height="4.37" rx="0.99"/><line class="cls-3" x1="65.9" y1="342.13" x2="77.56" y2="342.13"/></g><rect class="cls-4" x="1219.46" y="561.74" width="72.54" height="16.31"/><path class="cls-3" d="M734.86,482.39l8.68-4.61a35.21,35.21,0,0,1,28.78-.56L945.44,551"/><rect class="cls-9" x="797.62" y="529.05" width="87.38" height="55.74"/><rect class="cls-10" x="764.94" y="515.05" width="120.06" height="13.97"/><polygon class="cls-11" points="861 515.05 834 515.05 838.26 442.01 856.74 442.01 861 515.05"/><line class="cls-6" x1="574.11" y1="585.05" x2="894.87" y2="585.05"/><path class="cls-6" d="M843,335.05s30-3,30,25c0,19-11,24-12,27s-7,7-7,18c0,6,4,11,4,19s-4,9-4,9"/><polygon class="cls-11" points="803 515.12 786 515.12 788.68 469.13 800.32 469.13 803 515.12"/><path class="cls-4" d="M1708.75,477.56c4.65,1.27,8.33,2.25,8.33,2.25l13.16-1.35.39-1.42S1695,467,1694,466.87a4.53,4.53,0,0,0-3.17.69.84.84,0,0,1-.58.09c-2.18-.45-2.89.37-3,.62s-.91,2.25,3.93,4.08c2.16.82,6.71,2.17,11.4,3.5"/><path class="cls-4" d="M1702.89,474.9l-.68,2.45,2.16.73a4.33,4.33,0,0,0,2.17.19l.53-1.93a5.88,5.88,0,0,0-2-1A18.29,18.29,0,0,0,1702.89,474.9Z"/><polygon class="cls-4" points="1706.61 478 1708.6 478.08 1708.82 477.31 1707.02 476.55 1706.61 478"/><polygon class="cls-4" points="1723.19 474.94 1731.66 469.06 1733.99 469.71 1729.41 476.7 1723.19 474.94"/></g><line class="cls-3" x1="1563.48" y1="577.98" x2="1681.07" y2="577.98"/><rect class="cls-4" x="1588.53" y="561.67" width="72.54" height="16.31"/></g></g></g></svg>