<?xml version="1.0" encoding="utf-8"?>
<!-- Generator: Adobe Illustrator 25.2.3, SVG Export Plug-In . SVG Version: 6.00 Build 0)  -->
<svg version="1.1" id="Layer_1" xmlns="http://www.w3.org/2000/svg" xmlns:xlink="http://www.w3.org/1999/xlink" x="0px" y="0px"
	 viewBox="0 0 872.1 697.9" style="enable-background:new 0 0 872.1 697.9;" xml:space="preserve">
<style type="text/css">
	.st0{fill:#FFFFFF;stroke:#FFFFFF;stroke-width:1.26;stroke-miterlimit:10.0002;}
	.st1{fill:#4C4C4D;}
	.st2{opacity:0.5;fill:none;stroke:#FFFFFF;stroke-width:2.38;stroke-miterlimit:10.0002;enable-background:new    ;}
	.st3{fill:#00AF85;}
	.st4{opacity:0.65;fill:#318C69;enable-background:new    ;}
	.st5{fill:#2C6E57;}
	.st6{fill:none;stroke:#2C6E57;stroke-linecap:round;stroke-linejoin:round;}
	.st7{fill:none;stroke:#2C6E57;stroke-width:0.74;stroke-linecap:round;stroke-linejoin:round;}
	.st8{fill:#DA3C46;}
	.st9{fill:#312F2F;}
	.st10{fill:url(#SVGID_1_);}
	.st11{fill:none;stroke:#312F2F;stroke-width:0.76;stroke-linecap:round;stroke-miterlimit:10;}
	.st12{fill:url(#SVGID_2_);}
	.st13{fill:url(#SVGID_3_);}
	.st14{fill:none;stroke:#7B473B;stroke-width:0.59;stroke-linecap:round;stroke-miterlimit:10;}
	.st15{fill:#595959;}
	.st16{fill:url(#SVGID_4_);}
	.st17{fill:#5C5C5C;}
	.st18{fill:none;stroke:#434343;stroke-width:0.77;stroke-linecap:round;stroke-miterlimit:10;}
	.st19{fill:none;stroke:#434343;stroke-width:0.77;stroke-linecap:round;stroke-linejoin:round;}
	.st20{fill:url(#SVGID_5_);}
	.st21{fill:#85533E;}
	.st22{fill:url(#SVGID_6_);}
	.st23{fill:url(#SVGID_7_);}
	.st24{fill:none;stroke:#7B473B;stroke-width:0.54;stroke-linecap:round;stroke-miterlimit:10;}
	.st25{fill:none;stroke:#7B473B;stroke-width:0.45;stroke-linecap:round;stroke-miterlimit:10;}
	.st26{fill:#503A32;}
	.st27{opacity:0.26;fill:url(#SVGID_8_);enable-background:new    ;}
	.st28{fill:#452821;}
	.st29{fill:#FFEFD4;}
	.st30{opacity:0.2;fill:#3E4049;enable-background:new    ;}
	.st31{fill:none;stroke:#452821;stroke-width:0.54;stroke-linecap:round;stroke-miterlimit:10;}
	.st32{fill:url(#SVGID_9_);}
	.st33{fill:url(#SVGID_10_);}
	.st34{fill:none;stroke:#64473F;stroke-width:0.57;stroke-linecap:round;stroke-linejoin:round;}
	.st35{fill:none;stroke:#FFB24D;stroke-width:2;stroke-miterlimit:10;}
	.st36{fill:#FFC050;}
	.st37{fill:none;stroke:#FFB24D;stroke-miterlimit:10;}
	.st38{fill:url(#SVGID_11_);}
	.st39{fill:url(#SVGID_12_);}
	.st40{fill:url(#SVGID_13_);}
	.st41{fill:#FABE4C;}
	.st42{fill:#91584A;}
	.st43{fill:url(#SVGID_14_);}
	.st44{fill:url(#SVGID_15_);}
	.st45{opacity:0.71;fill:#773C38;enable-background:new    ;}
	.st46{fill:none;stroke:#7B473B;stroke-width:0.51;stroke-linecap:round;stroke-miterlimit:10;}
	.st47{fill:none;stroke:#7B473B;stroke-width:0.53;stroke-linecap:round;stroke-miterlimit:10;}
	.st48{fill:#204392;}
	.st49{fill:url(#SVGID_16_);}
	.st50{fill:url(#SVGID_17_);}
	.st51{fill:url(#SVGID_18_);}
	.st52{fill:url(#SVGID_19_);}
	.st53{fill:none;stroke:url(#SVGID_20_);stroke-width:0.82;stroke-linecap:round;stroke-miterlimit:10;}
	.st54{fill:none;stroke:url(#SVGID_21_);stroke-width:0.82;stroke-linecap:round;stroke-miterlimit:10;}
	.st55{fill:url(#SVGID_22_);}
	.st56{fill:none;stroke:#7B473B;stroke-width:0.46;stroke-linecap:round;stroke-miterlimit:10;}
	.st57{fill:url(#SVGID_23_);}
	.st58{fill:url(#SVGID_24_);stroke:#7B473B;stroke-width:0.64;stroke-linecap:round;stroke-miterlimit:10;}
	.st59{fill:url(#SVGID_25_);stroke:#7B473B;stroke-width:0.64;stroke-linecap:round;stroke-miterlimit:10;}
	.st60{opacity:0.38;fill:#BFB39F;enable-background:new    ;}
	.st61{fill:#B67854;}
	.st62{fill:#DBB49B;}
	.st63{fill:url(#SVGID_26_);}
	.st64{fill:url(#SVGID_27_);}
	.st65{fill:#7B8085;}
	.st66{fill:url(#SVGID_28_);}
	.st67{opacity:0.78;}
	.st68{fill:#FFFFFF;}
	.st69{fill:none;stroke:#D1C39D;stroke-width:0.54;stroke-linecap:round;stroke-miterlimit:10;}
	.st70{fill:none;stroke:#FFEFD4;stroke-linecap:round;stroke-linejoin:round;}
	.st71{fill:none;stroke:#FFEFD4;stroke-linecap:round;stroke-miterlimit:10;}
	.st72{fill:none;stroke:#204392;stroke-linecap:round;stroke-miterlimit:10;}
	.st73{fill:#402C1A;}
	.st74{fill:#604127;}
	.st75{fill:#E6DDD6;}
	.st76{fill:#20160D;}
	.st77{fill:none;stroke:#20160D;stroke-width:0.75;stroke-miterlimit:10;}
	.st78{fill:#BF903C;}
	.st79{fill:url(#SVGID_29_);}
	.st80{fill:none;stroke:#7B473B;stroke-width:0.48;stroke-linecap:round;stroke-miterlimit:10;}
	.st81{fill:url(#SVGID_30_);}
	.st82{fill:url(#SVGID_31_);}
	.st83{fill:#C26D50;}
	.st84{fill:#E8BD9A;}
	.st85{fill:none;stroke:#007F5E;stroke-width:1.07;stroke-linecap:round;stroke-linejoin:round;}
	.st86{fill:url(#SVGID_32_);}
	.st87{fill:none;stroke:#7B473B;stroke-width:0.4;stroke-linecap:round;stroke-miterlimit:10;}
	.st88{fill:url(#SVGID_33_);}
	.st89{fill:url(#SVGID_34_);}
	.st90{fill:url(#SVGID_35_);}
	.st91{fill:url(#SVGID_36_);}
	.st92{fill:none;stroke:#7B473B;stroke-width:0.62;stroke-linecap:round;stroke-miterlimit:10;}
	.st93{fill:#7B473B;}
	.st94{fill:url(#SVGID_37_);}
	.st95{fill:none;stroke:#7B473B;stroke-width:0.39;stroke-linecap:round;stroke-miterlimit:10;}
	.st96{fill:url(#SVGID_38_);}
	.st97{fill:url(#SVGID_39_);}
	.st98{fill:url(#SVGID_40_);}
	.st99{opacity:0.8;fill:#9D4D46;enable-background:new    ;}
	.st100{fill:#FFFFFF;stroke:#9D4D46;stroke-width:0.42;stroke-linecap:round;stroke-linejoin:round;}
	.st101{fill:none;stroke:#452821;stroke-width:0.52;stroke-linecap:round;stroke-miterlimit:10;}
	.st102{fill:url(#SVGID_41_);}
	.st103{fill:none;stroke:#7B473B;stroke-width:0.5;stroke-linecap:round;stroke-miterlimit:10;}
	.st104{fill:url(#SVGID_42_);}
	.st105{fill:url(#SVGID_43_);}
	.st106{opacity:0.15;fill:#273336;enable-background:new    ;}
	.st107{opacity:0.13;fill:#273336;enable-background:new    ;}
	.st108{fill:#E1E1E1;}
	.st109{fill:none;stroke:#A9A9A9;stroke-width:0.81;stroke-linecap:round;stroke-miterlimit:10;}
	.st110{fill:none;stroke:#FFFFFF;stroke-width:1.08;stroke-linecap:round;stroke-miterlimit:10;}
	.st111{fill:none;stroke:#FFFFFF;stroke-width:1.08;stroke-linecap:round;stroke-linejoin:round;}
	.st112{fill:url(#SVGID_44_);}
	.st113{fill:url(#SVGID_45_);}
	.st114{fill:none;stroke:#A9A9A9;stroke-linecap:round;stroke-miterlimit:10;}
	.st115{fill:none;stroke:#FFFFFF;stroke-width:1.33;stroke-linecap:round;stroke-miterlimit:10;}
	.st116{fill:none;stroke:#FFFFFF;stroke-width:1.33;stroke-linecap:round;stroke-linejoin:round;}
	.st117{fill:url(#SVGID_46_);}
	.st118{fill:url(#SVGID_47_);}
	.st119{fill:none;stroke:#289CBF;stroke-width:1.07;stroke-linecap:round;stroke-linejoin:round;}
	.st120{fill:url(#SVGID_48_);}
	.st121{fill:#C2EFFF;}
	.st122{fill:none;stroke:#EDEDED;stroke-width:0.51;stroke-miterlimit:10;}
	.st123{fill:#00AF9E;}
	.st124{fill:none;stroke:#FFFFFF;stroke-width:0.88;stroke-miterlimit:10;}
	.st125{fill:#B7D6E6;}
	.st126{fill:url(#SVGID_49_);}
</style>
<g>
	<g id="Hotspot_2">
		
			<ellipse transform="matrix(0.1602 -0.9871 0.9871 0.1602 -244.5293 556.5299)" class="st0" cx="204.8" cy="422" rx="12.2" ry="12.2"/>
		<path class="st1" d="M208.3,422.4l-2.9,0.1l0.1,2.9h-1.2l-0.1-2.9l-2.8,0.1v-1l2.8-0.1l-0.1-2.9h1.2l0.1,2.9l2.9-0.1V422.4z"/>
		
			<ellipse transform="matrix(0.1602 -0.9871 0.9871 0.1602 -244.5293 556.5299)" class="st2" cx="204.8" cy="422" rx="18.3" ry="18.3"/>
	</g>
	<path class="st3" d="M710.2,398.8c11.5-9.2,14.4-9,26.3-11.5c15.7-3.3,79-11,110.7-38.9s30.4-65.4,8.4-85.2s-34.5-15.8-47-8.2
		c-12.5,7.6-29,32-40.9,41.8s-24.9,14.3-38.9,34s-38.9,75.8-32.8,79.1C702.1,413.2,698.7,408,710.2,398.8z"/>
	<g>
		<path class="st4" d="M710.2,398.8c11.5-9.2,14.4-9,26.3-11.5c15.7-3.3,79-11,110.7-38.9s30.4-65.4,8.4-85.2s-34.5-15.8-47-8.2
			c-12.5,7.6-29,32-40.9,41.8s-24.9,14.3-38.9,34s-38.9,75.8-32.8,79.1C702.1,413.2,698.7,408,710.2,398.8z"/>
	</g>
	<path class="st5" d="M696,409.9c8.5-16.6,19.1-32.1,31.5-46c6.2-7.1,13.3-13.3,21.2-18.5c1-0.7,2-1.2,3-1.8s2.1-1.1,3.2-1.7
		s2.2-1,3.2-1.5s2.2-0.9,3.3-1.3c4.4-1.6,8.8-3.2,13.1-4.8c8.8-2.9,17.3-6.6,25.5-10.8c4.1-2.2,8-4.6,11.7-7.3l1.4-1
		c0.5-0.3,0.9-0.7,1.3-1.1l2.7-2.2c1.8-1.4,3.5-3,5.2-4.6c6.7-6.3,12.8-13.3,18.1-20.9l2.1-2.8c0.7-0.9,1.3-1.9,2-2.9l3.9-5.8
		c0.7-1,1.3-2,1.8-2.9l1.8-3l3.7-5.9c-2.2,4.1-4.3,8.2-6.7,12.2l-3.6,6c-0.6,1-1.2,2-1.8,3l-2,2.9c-5.2,7.8-11.2,15-17.8,21.6
		c-6.7,6.6-14.2,12.3-22.5,16.8c-8.2,4.6-17,7.9-25.8,11.1c-4.4,1.6-8.8,3.1-13.1,4.7c-1.1,0.4-2.2,0.8-3.2,1.2s-2.1,0.9-3.1,1.4
		s-2,1-3,1.6s-2,1.1-2.9,1.7c-7.8,4.8-14.6,11.1-21,17.7c-6.3,6.7-12.2,13.9-17.7,21.4C705.9,394.2,700.8,401.9,696,409.9z"/>
	<path class="st6" d="M710.1,393.3c11.5-9.2,14.4-9,26.3-11.5c15.7-3.2,79-11,110.7-38.9s30.4-65.4,8.4-85.2s-34.5-15.8-47-8.2
		c-12.5,7.6-29,32-40.9,41.8s-24.9,14.3-38.9,34s-38.9,75.8-32.8,79.1S698.6,402.6,710.1,393.3z"/>
	<path class="st3" d="M190.2,502.2c-8.8-6.4-10.9-6.2-19.8-7.7c-11.7-1.9-58.6-5.6-82.9-25.1s-24.5-47.3-9-62.6s25-12.8,34.4-7.6
		s22.4,22.7,31.5,29.5s18.8,9.8,29.8,23.8s31.1,54.6,26.7,57.3C196.5,512.5,199,508.6,190.2,502.2z"/>
	<g>
		<path class="st4" d="M190.2,502.2c-8.8-6.4-10.9-6.2-19.8-7.7c-11.7-1.9-58.6-5.6-82.9-25.1s-24.5-47.3-9-62.6s25-12.8,34.4-7.6
			s22.4,22.7,31.5,29.5s18.8,9.8,29.8,23.8s31.1,54.6,26.7,57.3C196.5,512.5,199,508.6,190.2,502.2z"/>
	</g>
	<path class="st5" d="M201,509.9c-3.7-5.7-7.7-11.3-12-16.7c-4.2-5.4-8.8-10.5-13.7-15.2c-4.8-4.8-10.3-9-16.1-12.4
		c-2.9-1.7-6-3-9.3-4c-3.2-1-6.5-2-9.8-3c-6.6-2-13.1-4.4-19.3-7.4c-6.2-3.1-12-7-17.2-11.7c-5.1-4.6-9.7-9.8-13.8-15.3
		c-2.1-2.7-3.9-5.7-5.9-8.5s-3.6-5.9-5.3-8.8l2.9,4.3c1,1.4,1.8,2.9,2.9,4.2c2.1,2.7,4,5.6,6.2,8.2c4.2,5.4,8.9,10.4,14.1,14.8
		c5.1,4.4,10.8,8.2,16.9,11.2c6.2,2.9,12.6,5.2,19.1,7.1c3.3,1,6.5,2,9.8,3.1c3.3,1,6.6,2.4,9.6,4.2c6,3.6,11.4,7.9,16.2,12.9
		C185.8,486.8,194.1,497.9,201,509.9z"/>
	<path class="st3" d="M279.6,600c-1.5-0.8-4.1-1.4-9.9-9.3s-13.2-21.2-15.9-32.3s-11.4-31-28.9-37s-31-8-40-3s-13.2,12.7-10.5,22.1
		c6.5,16.6,26.4,19.4,39.8,19.1c11.4-0.2,30.7,8.2,48.4,32c0,0,14.6,20,21,14C285.2,603.7,281,600.8,279.6,600z"/>
	<g>
		<path class="st4" d="M279.6,600c-1.5-0.8-4.1-1.4-9.9-9.3s-13.2-21.2-15.9-32.3s-11.4-31-28.9-37s-31-8-40-3s-13.2,12.7-10.5,22.1
			c6.5,16.6,26.4,19.4,39.8,19.1c11.4-0.2,30.7,8.2,48.4,32c0,0,14.6,20,21,14C285.2,603.7,281,600.8,279.6,600z"/>
	</g>
	<path class="st5" d="M191.5,535.7c5-1,10.1-1.5,15.2-1.3c5.1,0.2,10.2,1.1,15,2.9c2.4,0.9,4.7,2.1,6.9,3.5c2.1,1.5,4.1,3.1,5.8,5
		c3.6,3.6,7,7.4,10.2,11.4c3.1,4,6,8.3,8.5,12.8c1.2,2.2,2.3,4.5,3.6,6.7s2.6,4.3,4,6.4c2.8,4.2,5.9,8.2,9.3,12
		c1.7,1.9,3.5,3.6,5.5,5.2c1,0.8,2.1,1.4,3.2,2s2.4,0.8,3.7,0.6c-1.3,0.3-2.6,0.1-3.7-0.5c-1.2-0.5-2.3-1.2-3.3-2
		c-2-1.5-3.9-3.2-5.7-5.1c-3.5-3.7-6.7-7.6-9.6-11.8c-1.5-2.1-2.9-4.2-4.2-6.4s-2.5-4.4-3.8-6.6c-2.5-4.4-5.4-8.5-8.5-12.5
		c-3.2-3.9-6.5-7.8-10-11.4c-1.7-1.8-3.6-3.5-5.6-4.9c-2.1-1.4-4.3-2.6-6.6-3.5c-4.7-1.8-9.6-2.9-14.7-3.2
		C201.6,534.8,196.5,535,191.5,535.7z"/>
	<path class="st7" d="M190,498.1c-8.8-6.4-10.9-6.2-19.8-7.7c-11.7-1.9-58.6-5.6-82.9-25.1s-24.5-47.3-9-62.6s25-12.8,34.4-7.6
		s22.4,22.7,31.5,29.5s18.8,9.8,29.8,23.8s31.1,54.6,26.7,57.3S198.8,504.6,190,498.1z"/>
	<ellipse class="st8" cx="441.6" cy="656.2" rx="370.9" ry="17"/>
	<path class="st9" d="M274.3,594.6c0,0,6,10.7,5.5,18.5s-7.9,23.1-6,30.3s4.8,12.2,11.8,12.2c6.6,0,8.5-4.6,10.3-8.2
		s6.2-22.1,4.5-29.7s-8.1-31-8.1-31L274.3,594.6z"/>
	
		<linearGradient id="SVGID_1_" gradientUnits="userSpaceOnUse" x1="287.3534" y1="1189.441" x2="282.2434" y2="1129.281" gradientTransform="matrix(1 0 0 1 0 -549.9771)">
		<stop  offset="0" style="stop-color:#595959"/>
		<stop  offset="0.29" style="stop-color:#464545"/>
		<stop  offset="0.73" style="stop-color:#2E2C2C"/>
		<stop  offset="1" style="stop-color:#252323"/>
	</linearGradient>
	<path class="st10" d="M272.1,591.8c0,0,5.9,10.7,5.5,18.5s-6.2,24.2-4.3,31.4s6.5,11.1,10,11.1c5.8,0,9.8-2.9,11.3-6.6
		c1.2-3,6.6-24.4,4.9-32s-9.4-30.4-9.4-30.4L272.1,591.8z"/>
	<path class="st11" d="M275.2,629.1c0,0,7-5.6,17-0.8"/>
	<path class="st11" d="M279.6,614.5c0,0,4.3-2.5,8.1-1"/>
	<path class="st11" d="M279.6,619c0,0,4.3-2.5,8.1-1"/>
	
		<linearGradient id="SVGID_2_" gradientUnits="userSpaceOnUse" x1="112.964" y1="1181.2891" x2="229.834" y2="1212.949" gradientTransform="matrix(1 0 0 1 0 -549.9771)">
		<stop  offset="0" style="stop-color:#595959"/>
		<stop  offset="0.29" style="stop-color:#464545"/>
		<stop  offset="0.73" style="stop-color:#2E2C2C"/>
		<stop  offset="1" style="stop-color:#252323"/>
	</linearGradient>
	<path class="st12" d="M177.4,627.8l5.2,26l-65.5-0.4c0,0-1.6-15.9,19.2-16c12.2-0.9,21.7-10.5,21.7-10.5L177.4,627.8z"/>
	<rect x="117.1" y="653.3" class="st9" width="65.5" height="4.2"/>
	<path class="st11" d="M138.4,637.9c0,0,8.4,0.9,9.5,7.6"/>
	<path class="st11" d="M148.4,634.1c0,0,4.2-0.1,5.5,1.6"/>
	<path class="st11" d="M145.7,635.8c0,0,4.2-0.1,5.5,1.7"/>
	
		<linearGradient id="SVGID_3_" gradientUnits="userSpaceOnUse" x1="148.363" y1="842.9939" x2="148.903" y2="954.2639" gradientTransform="matrix(0.9997 -2.513010e-02 2.513010e-02 0.9997 -97.9413 -467.7316)">
		<stop  offset="0.62" style="stop-color:#B86F52"/>
		<stop  offset="0.73" style="stop-color:#BB7255"/>
		<stop  offset="0.83" style="stop-color:#C67D5F"/>
		<stop  offset="0.91" style="stop-color:#D78E70"/>
		<stop  offset="1" style="stop-color:#F0A688"/>
		<stop  offset="1" style="stop-color:#F1A789"/>
	</linearGradient>
	<path class="st13" d="M105.6,342.7L86,377.9l-24.8-26.6l-0.4,0.2c0.1-0.5,0.2-0.8,0.2-0.8c-1.9-5.7-4.6-11-8.1-15.8
		c-3-3.8-18.7,3.6-19.3,3.9c-2.7,1.2,14.2-7,15.5-2.5s-2,0.9-2,0.9s-21.8-18.3-23.7-16.3c-2.1,2.2,16.5,18,16.5,18s-22-16-23.2-14.5
		s2.4,5,2.4,5s-2.3-1.8-3.1-0.7c-1.7,2.1,17.5,17.8,17.5,17.8s-16.6-9.9-17.5-8.4c-1.5,2.5,24.8,19.3,29.8,20.9
		c0.5,0.2,1,0.3,1.5,0.4l26.7,36l1.2,1.9l4.1,4.9c3,3.5,8.3,4,11.8,1c0.5-0.4,0.9-0.8,1.3-1.3c3.3-4.3,6.4-8.8,6.4-8.8l26.9-38.4
		L105.6,342.7z"/>
	<line class="st14" x1="19.8" y1="330.3" x2="36.3" y2="342.6"/>
	<path class="st14" d="M43.1,338.1c-0.4,0.3-7.5,6.4-9.5,11.4"/>
	<path class="st15" d="M190,444.7c-2.4,1.1-4.9,2-7.4,2.7c-1.3,0.4-2.7,0.7-3.9,1l-0.7,0.2c-2.6,0.5-5.1,0.9-7.8,1.1
		c-2.5,0.2-4.4,0.3-5.5,0.4l-17.5-16.7l-12.4-11.8l39.7-11l6.1-1.7c2.8,4.4,5.3,9,7.5,13.7C192.2,431.7,195.6,442.1,190,444.7z"/>
	
		<linearGradient id="SVGID_4_" gradientUnits="userSpaceOnUse" x1="239.4737" y1="1022.2969" x2="240.7137" y2="1279.0668" gradientTransform="matrix(0.9996 -2.792164e-02 2.792164e-02 0.9996 -106.1228 -462.5812)">
		<stop  offset="0" style="stop-color:#595959"/>
		<stop  offset="0.29" style="stop-color:#464545"/>
		<stop  offset="0.73" style="stop-color:#2E2C2C"/>
		<stop  offset="1" style="stop-color:#252323"/>
	</linearGradient>
	<path class="st16" d="M186.7,625.8c-18.8,11.7-39.7,2.3-39.7,2.3c-2-19.7-4.3-56.7-6.4-93.1c-0.7-12-1.3-24-1.9-35.3
		c-0.2-4.5-0.5-9-0.7-13.3c-1.6-30.2-2.6-52.7-2.6-52.7l11.6-0.5l23.9-1l3.2-0.1l3.8-0.2c0,0,0.1,2.8,0.3,7.6
		c0.1,2.4,0.2,5.3,0.3,8.7c0.6,14.9,1.6,38.6,2.7,64.6C183,552.9,185.1,598.3,186.7,625.8z"/>
	<path class="st15" d="M305.5,579.6c-11.3,19.1-33.9,21.1-33.9,21.1c-13.6-20.5-41.2-68.4-64.1-108.8c-9.7-17.1-18.5-32.9-25-44.5
		l-4.3-7.7c-1.7-3-3.1-5.5-4.2-7.5c-1.3-2.4-2.2-4-2.6-4.7l-0.2-0.4l0.3-0.1l16.4-4.3l21.7-5.7l8,13.8c4.7,8,11.2,19.1,18.6,31.7
		c6.4,10.9,13.4,22.9,20.7,35.2C274.6,527.9,293.4,559.6,305.5,579.6z"/>
	<path class="st17" d="M136.3,487.7c3.7-3.5,14.7-1.4,19.6-2.7s9.7,46.5,4,49s-12.2,0.4-18.1,1.5S133.7,490.1,136.3,487.7z"/>
	<path class="st17" d="M218.6,472.7c2.1-4.6,13.1-7,17.2-10s26.4,39.3,22,43.8s-11.2,5-16.2,8.4C236.7,518.3,217.2,476,218.6,472.7z
		"/>
	<path class="st18" d="M137.2,499.9c0.3-0.1,18.6,0.3,21-1.3c1.7-1.1,0.6-6.5-0.1-9.4c-0.3-1-1.3-1.7-2.3-1.4l0,0
		c-2.1,0.6-4.2,0.6-6.3-0.1c-3.6-1.4-8-0.1-8-0.1"/>
	<path class="st18" d="M142.2,535c0,0,7.3-1.4,10.7-0.7s7.7-1.3,7.8-4.3s1.1-10,0.7-13.7"/>
	<path class="st19" d="M144.2,502c0,0-4,13,3,30.4c-0.6-5.5-3.3-26.3-1.8-30.1"/>
	<path class="st19" d="M138.4,445.7c0.7,0,10.4,0.8,10-10.5"/>
	<path class="st18" d="M175.7,485.7c0,0,3.5,22.6,1.4,33.7c-2,11.1,0.8,13.1,0.8,13.1"/>
	<path class="st18" d="M144.5,565.6c1.7,20.8,1.7,20.4,1.4,31.5c-0.8,27.7,2.6,29.8,2.6,29.8"/>
	<path class="st18" d="M178,447.8c0,0-0.2,7.7-8.7,9.6"/>
	<path class="st18" d="M171.1,458.9c0.6-0.2,11.2-5.2,3.8,1.3s-5.2,4.3-5.2,4.3"/>
	
		<linearGradient id="SVGID_5_" gradientUnits="userSpaceOnUse" x1="727.3374" y1="369.4533" x2="764.2452" y2="369.4533" gradientTransform="matrix(0.9823 -0.1876 0.1876 0.9823 -650.2064 89.8203)">
		<stop  offset="0.62" style="stop-color:#B16F52"/>
		<stop  offset="0.73" style="stop-color:#B47255"/>
		<stop  offset="0.82" style="stop-color:#BF7B5E"/>
		<stop  offset="0.9" style="stop-color:#D08A6D"/>
		<stop  offset="0.98" style="stop-color:#E9A082"/>
		<stop  offset="1" style="stop-color:#F1A789"/>
	</linearGradient>
	<path class="st20" d="M171.2,316.6c0,0-7.3,45.5-36.5,4.6c-2-2.9,2.7-7,2.1-11.4l-0.2-1v-0.2c-0.7-3.8-1.7-7.4-3-11
		c-0.3-0.8-0.5-1.2-0.5-1.2s1.8-1.4,4.5-3.2c0.5-0.3,0.9-0.6,1.5-0.9l0.6-0.4c7.4-4.5,18.6-9.8,20.4-1.5c0.1,0.4,0.1,0.8,0.2,1.2
		C161.4,300.9,165.1,309.6,171.2,316.6z"/>
	<path class="st21" d="M162.6,293.9c0,0-3.2,22.5-25.7,14.6c-0.6-3.8-1.7-7.5-3.2-11c-0.3-0.8-0.5-1.2-0.5-1.2s2.2-1.5,5.4-3.3
		l1.7-1l0.7-0.4l20.3,2.2L162.6,293.9z"/>
	
		<linearGradient id="SVGID_6_" gradientUnits="userSpaceOnUse" x1="2085.0918" y1="-131.9917" x2="2094.5618" y2="-131.9917" gradientTransform="matrix(0.8636 -0.5042 0.5042 0.8636 -1611.7454 1454.7704)">
		<stop  offset="0.77" style="stop-color:#B16F52"/>
		<stop  offset="0.82" style="stop-color:#B67356"/>
		<stop  offset="0.88" style="stop-color:#C48063"/>
		<stop  offset="0.95" style="stop-color:#DC9577"/>
		<stop  offset="1" style="stop-color:#F1A789"/>
	</linearGradient>
	<path class="st22" d="M131,292.4c-7.2,2.7-13-8.5-10.8-9.7s5.2,0.1,5.2,0.1S138.2,289.7,131,292.4z"/>
	
		<linearGradient id="SVGID_7_" gradientUnits="userSpaceOnUse" x1="331.4626" y1="660.1974" x2="330.2626" y2="710.2974" gradientTransform="matrix(0.9984 -5.599577e-02 5.599577e-02 0.9984 -226.4532 -384.0048)">
		<stop  offset="0.62" style="stop-color:#B16F52"/>
		<stop  offset="0.73" style="stop-color:#B47255"/>
		<stop  offset="0.82" style="stop-color:#BF7B5E"/>
		<stop  offset="0.9" style="stop-color:#D08A6D"/>
		<stop  offset="0.98" style="stop-color:#E9A082"/>
		<stop  offset="1" style="stop-color:#F1A789"/>
	</linearGradient>
	<path class="st23" d="M157.3,270.4L157.3,270.4c-0.4-0.8-0.8-1.5-1.1-2.2s-0.6-1.2-0.9-1.7c-0.1-0.2-0.2-0.4-0.3-0.6
		c-2.5-5.5-6-13.3-8-12.4c-3.9-1.6-15.8,6.1-16.5,6.5c-10.4,5.1-11.3,10.5-6.2,21.3c1.8,3.9,6.2,11.6,8.3,15.1
		c0.2,0.3,0.4,0.6,0.5,0.8s0.5,0.5,0.8,0.9c1.5,2,16.9,8.1,25.3,3.2c4.1-2.4,3.9-4.2,4-9.4c0-3.2-0.4-6.3-1.2-9.4
		c0-0.2-0.1-0.5-0.2-0.7c-1-3.4-2.3-6.8-3.9-10c-0.1-0.2-0.2-0.4-0.3-0.5l-0.1-0.1L157.3,270.4z"/>
	<path class="st24" d="M155,278.1c0,0,2.9,2.2-2.3,4.1l0,0c-5,2.1-3.8-1.5-3.8-1.5"/>
	<path class="st25" d="M123.3,285.8c0,0,0.2,3,2.5,4"/>
	<path class="st24" d="M123.9,287.5c0.6-0.2,1.3-0.1,1.9,0.3"/>
	<path class="st26" d="M155.6,266.9c-1.6,0.5-3.2,1.2-4.6,2.1l-0.6-2c1.4-0.9,2.9-1.5,4.5-1.8C155.1,265.7,155.3,266.3,155.6,266.9z
		"/>
	
		<linearGradient id="SVGID_8_" gradientUnits="userSpaceOnUse" x1="126.7255" y1="827.2589" x2="273.3355" y2="915.2189" gradientTransform="matrix(1 0 0 1 0 -549.9771)">
		<stop  offset="8.000000e-02" style="stop-color:#010101"/>
		<stop  offset="0.13" style="stop-color:#040403"/>
		<stop  offset="0.17" style="stop-color:#0C0C0C"/>
		<stop  offset="0.19" style="stop-color:#1A1A19"/>
		<stop  offset="0.22" style="stop-color:#2F2F2D"/>
		<stop  offset="0.24" style="stop-color:#494946"/>
		<stop  offset="0.24" style="stop-color:#4A4A47"/>
		<stop  offset="0.36" style="stop-color:#524E4A;stop-opacity:0.96"/>
		<stop  offset="0.41" style="stop-color:#6D5E55;stop-opacity:0.83"/>
		<stop  offset="0.45" style="stop-color:#9D7868;stop-opacity:0.6"/>
		<stop  offset="0.48" style="stop-color:#E19E83;stop-opacity:0.28"/>
		<stop  offset="0.48" style="stop-color:#F1A789;stop-opacity:0.2"/>
	</linearGradient>
	<path class="st27" d="M163.2,291.8c-0.1,5.2,0.1,7-4,9.4c-8.5,4.9-23.8-1.2-25.3-3.2c-0.3-0.4-0.6-0.6-0.8-0.9s-0.3-0.5-0.5-0.8
		c8.5-7.8,21.1-14.4,29.2-14.6c0.1,0.2,0.1,0.5,0.2,0.7C162.8,285.5,163.2,288.7,163.2,291.8z"/>
	<path class="st26" d="M140.3,270.5l0.9,1.9c0,0-5.3,1.8-8,4.1c-0.1,0.1-0.3,0.1-0.5,0c-0.1-0.1-0.1-0.2-0.1-0.3
		C133.1,274.4,134.4,272.6,140.3,270.5z"/>
	<path class="st28" d="M157.8,271L157.8,271c-1.4-0.5-3.6-0.3-5,2.5c0,0.1,0,0.2,0.1,0.1c1.4-1.2,3.2-1.8,5-1.9L157.8,271z"/>
	<path class="st28" d="M143.8,277.4c-2.5,0.2-4.9,1.3-6.7,3.1c-0.1,0.1-0.2,0-0.2-0.1c0.9-2.7,3.8-4.2,6.5-3.3
		c0.1,0,0.3,0.1,0.4,0.1l0.1,0.1C143.9,277.4,143.8,277.4,143.8,277.4z"/>
	<path class="st29" d="M201,351.7l-5.3-1.4c0.7,2.4,1.4,5.2,2.3,8.4c0.3,1,0.5,2.1,0.8,3.2c0.5,1.8,1,3.7,1.5,5.7
		c1.4,5.3,2.9,11.1,4.4,17.4c0.6,2.4,1.2,5,1.9,7.5c0.1,0.5,0.3,1,0.4,1.6l0.1,0.4c0.1,0.3,0.1,0.5,0.2,0.8
		c1.8,7.5,3.7,22.4,5.6,30.5c-1.8,1.1-3.6,7.2-5.4,8.1l-0.3,0.2l-0.4,0.2c-2.3,1.2-4.6,2.3-7.1,3.2c-31.6,12.6-68.4,10.2-68.4,10.2
		l-1.4-39.3l0,0l-1-8.5l0,0l-2.2-19.8l0,0l-1-8.5l0,0l-1-8.7l-0.1-0.8c-2.5,3.8-6,8.7-6.4,9.4c-1.7,3-27.1-11.2-25.8-14.4
		c0.7-1.9,4.8-8.7,8.7-14.7c0.5-0.9,1.1-1.7,1.7-2.5l0,0c4.9-7.2,6.2-7.8,6.6-7.8h0.1c0,0,0.2-0.1,0.2-0.2l0,0
		c0.2-0.2,0.5-0.4,0.8-0.6l0.2-0.2l0.2-0.2l1.1-0.8c0.3-0.2,0.6-0.5,1-0.7c0.2-0.1,0.4-0.2,0.5-0.4s0.6-0.4,0.9-0.6
		c0.7-0.5,1.4-1,2.2-1.5l0,0l1.3-0.9l0,0l3-2l0.2-0.1l0.3-0.2l0.5-0.3l0.4-0.3l1-0.7l0.1-0.1l1.3-0.8l0.3-0.2l0.1-0.1l0,0l0.5-0.3
		l0.5-0.3l0.6-0.4l5-3.2l1.1-0.7l1-0.7c1.6-1,2.2-1.8,2.3-2.2c0.1-0.3,0.4-0.4,0.7-0.3c1.9,0.5,3.9,0.9,5.9,1l0,0
		c1.7,0.1,3.3,0.7,4.7,1.8c4.1,3.2,10.8,8.6,13.4,11.7c0.1,0.2,0.4,0.2,0.6,0c0.1-0.1,0.1-0.2,0.1-0.3c-0.6-3.8-1-7.6-1.1-11.4
		c0-3.2,1.6-6.2,4.2-8l0,0c0.2-0.1,0.3-0.1,0.5-0.1c1,0.3,2,0.5,3.1,0.7c1.4,0.3,2.9,0.5,4.4,0.7c1.7,0.2,3.4,0.4,5.2,0.6l1.2,0.1
		l0.9,0.1c2,0.2,3.9,0.4,5.7,0.5h0.6h0.3h0.4h0.2l0,0h0.3l1.8,0.2l0,0l0.6,0.1c0.6,0.1,1.1,0.2,1.6,0.3l0.5,0.1l0.3,0.1h0.2l0.5,0.1
		l0.6,0.2c0.3,0.1,0.6,0.2,0.8,0.3c0.1,0,0.3,0.1,0.4,0.1c0.4,0.1,0.7,0.3,1.1,0.5c0.1,0.1,0.3,0.2,0.4,0.2c0.1,0.1,0.3,0.2,0.4,0.3
		c0.5,0.4,1.8,0.8,1.8,1.5c0,0.1,0,0.1,0,0.2c2.9,3.3,5.5,6.8,7.7,10.6l1.9,3.8l4.5,9.1l-0.2,0.1l1.2,1.7l0.3,0.5l0.2,0.4l10,15.1
		l1.6,2.3l-1.8-0.5l-12.7-3.4l-0.3-0.1l-0.4-0.1L201,351.7z"/>
	<ellipse class="st8" cx="541.1" cy="664.9" rx="123.3" ry="23"/>
	<path class="st30" d="M210.7,446.6c4.9,14.1,12.7,36.5,21.3,61c-2.7-3.7-5.2-7.4-7.5-11c-3-4.8-5.8-9.5-8.3-14.3
		c-0.2-0.5-0.5-0.9-0.7-1.3l-0.9-1.7c-2.6-5.2-4.9-10.3-7-15.5c-0.8-2.1-1.6-4.3-2.4-6.4c-0.8-2.4-1.6-4.7-2.3-7.1
		c-1.7-5.7-3.2-11.3-4.3-16.8c-0.3-1.6-0.6-3.2-0.9-4.8c0-0.2-0.1-0.3-0.1-0.4l-0.3-1.8c-0.8-5-1.3-9.8-1.7-14.6
		c-1.2-16.7-0.2-33.5,3.1-50c0.5,1.8,1,3.7,1.5,5.7c1.4,5.3,2.9,11.1,4.4,17.4c0.6,2.4,1.2,5,1.9,7.5c0.5-12.8,1.8-25.6,4-38.3
		l-9.5-2.5c1.8-7.1,3.8-13.8,6-19.8c0.3-0.9,0.6-1.8,1-2.7c2.1-5.7,4.2-10.8,6.3-15.3c2.1,0.6,4.1,1.2,6.1,1.7l0.4,0.1l0.3,0.1
		c3.6,1,6.7,1.8,8.8,2.3l0.4,3l0.7,5.2l12.1,92l8.1,61.5c-10-9.5-19.4-18.5-27.5-26.3c-3.4-3.3-6.6-6.3-9.4-9
		C213,445.2,211.8,445.9,210.7,446.6z"/>
	<path class="st31" d="M200.4,270.5c0,0,5.1,2.9,5.9,10.8"/>
	<path class="st31" d="M202.4,268.4c0,0,5.1,2.9,5.9,10.8"/>
	
		<linearGradient id="SVGID_9_" gradientUnits="userSpaceOnUse" x1="-30.3198" y1="1022.4516" x2="35.5613" y2="1022.4516" gradientTransform="matrix(0.9981 6.104854e-02 -6.104854e-02 0.9981 267.0897 -715.0883)">
		<stop  offset="0.62" style="stop-color:#B16F52"/>
		<stop  offset="0.73" style="stop-color:#B47255"/>
		<stop  offset="0.82" style="stop-color:#BF7B5E"/>
		<stop  offset="0.9" style="stop-color:#D08A6D"/>
		<stop  offset="0.98" style="stop-color:#E9A082"/>
		<stop  offset="1" style="stop-color:#F1A789"/>
	</linearGradient>
	<path class="st32" d="M238.7,331.4l-2.9,1.4l-19.1,8.7c-2.3-2.3-4.5-4.9-6.5-7.5c-4.5-5.6-8.5-11.6-11.9-17.9
		c0,0-7.9-0.7-19.4-12.9c-3.3-3.5-4.4-6.1-3.9-6.5c2.3-1.9,6.6,3.6,10.8,5.9c3.1,1.7,1.2-1.3,1.2-1.3s-12.9-25.3-10.5-26.7
		c2.5-1.5,13.2,18.7,13.8,20c-0.6-1.4-10.6-25-8.9-25.8s4,2.9,4.3,3.4c-0.2-0.4-1.1-2.6,0.1-3.1c2.3-1.1,12.7,19.8,13.3,21.1
		c-0.4-1.2-8.4-16.8-6.7-17.3c2.8-0.9,14.7,24.9,15.6,30c0.6,3.2,7.2,12.7,15.7,17.4c5.7,3.1,10.1,7.8,12.9,9.8
		C237.9,330.9,238.7,331.4,238.7,331.4z"/>
	<line class="st14" x1="186.4" y1="273.1" x2="194.7" y2="292"/>
	<path class="st14" d="M190.5,296.6c0.4-0.4,6.2-5,11.4-5.8"/>
	<path class="st14" d="M188.2,302.8c0,0,6.8-1.9,10.9,2.2"/>
	
		<linearGradient id="SVGID_10_" gradientUnits="userSpaceOnUse" x1="126.976" y1="797.5015" x2="142.346" y2="831.0515" gradientTransform="matrix(1 0 0 1 0 -549.9771)">
		<stop  offset="0.22" style="stop-color:#452821"/>
		<stop  offset="0.48" style="stop-color:#664C42"/>
		<stop  offset="0.69" style="stop-color:#7C6457"/>
		<stop  offset="1" style="stop-color:#B16F52"/>
	</linearGradient>
	<path class="st33" d="M148.5,249.4c-0.2-1.4-0.9-2.4-1.7-2.4c-0.1,0-0.3,0-0.4,0.1c-0.5-1.1-1.8-1.7-3-1.2
		c-0.3,0.1-0.5,0.3-0.7,0.6c-0.6-0.6-1.2-0.8-1.7-0.6c-0.4,0.3-0.7,0.7-0.7,1.2c-0.7-0.9-1.5-1.3-2.1-1c-0.3,0.2-0.6,0.5-0.6,0.9
		c-0.3-0.2-0.7-0.2-1.1-0.1c-0.3,0.2-0.6,0.5-0.6,0.9c-0.7-0.6-1.6-0.8-2.5-0.4c-0.8,0.4-1.3,1.1-1.3,2c-0.4-0.4-1-0.6-1.6-0.5
		c-0.5,0.3-0.8,1-0.7,2c-0.7-0.7-1.4-1.1-2-0.8c-0.6,0.2-0.7,0.8-0.7,1.6c-0.5-0.6-1.4-0.9-2.1-0.6c-0.6,0.3-0.9,1.1-0.9,2.2
		c-0.2,0-0.4,0-0.5,0.1c-0.5,0.2-0.7,0.9-0.7,1.8c-0.6-0.3-1.3-0.3-1.9,0c-0.8,0.4-1.3,1.1-1.3,2c-0.5-0.4-1.2-0.4-1.8-0.2
		c-0.9,0.4-1.2,1.6-1,2.9c-0.4-0.3-0.9-0.4-1.3-0.3c-0.7,0.3-0.8,1.4-0.5,2.6c-0.2-0.1-0.5,0-0.7,0c-0.7,0.3-0.9,1.5-0.4,2.6
		c0.1,0.3,0.3,0.5,0.5,0.7c-0.1,0.5,0,1,0.2,1.4c0.3,0.7,1,1.2,1.8,1.4c0,0.1,0.1,0.2,0.1,0.4c0.3,0.6,0.7,1,1.3,1.2
		c2.5,5.6,8.4,16,10.6,14.8l-2.8-9.6l3.4-1l-1.6-6.3c6.1-6.3,14.3-10.2,23-10.9l0.2-0.8c0,0-0.3-0.6-0.8-1.4c0.5-1,0.2-2.2-0.7-3
		c0.2-0.3,0.3-0.8,0.2-1.2C149.4,250,149,249.6,148.5,249.4z"/>
	<path class="st34" d="M136,252.6c0,0-0.2-2.7,1.1-2.4s1.5,1,1.5,1s0-1.8,0.8-1.7c0.5,0.1,1,0.4,1.2,0.9c0,0,0.3-0.8,0.8-1
		s0.8,0.6,0.8,0.6"/>
	<path class="st34" d="M121.2,262.7c0,0-1.3-2.1-0.2-2.2c0.7,0,1.3,0.3,1.8,0.8c0,0-0.2-0.9,0.4-1.3s1.1,0.2,1.1,0.2s0-0.9,0.8-0.9"
		/>
	<path class="st34" d="M136.9,256.5c-0.5,0.1-0.8,0.5-0.8,1c0,0-0.5-0.6-1.1-0.2s-0.4,1.3-0.4,1.3"/>
	<path class="st35" d="M739.8,389.6c-0.2-3.3-0.4-6.6-0.7-9.8c-3.3-40.3-14.3-76.2-33-107.6c-21.6-36.5-50.8-65-87.4-85.5
		c-1.8-1-3.6-2-5.5-3c-10.6-5.6-21.7-10.4-33-14.5c-12.9-4.6-26.1-8.2-39.6-10.8c-19.9-3.8-40.2-5.7-60.5-5.6c-2.3,0-4.5,0-6.8,0.1
		h-0.2c-6.1,0.1-12.1,0.4-18,0.8c-15.9,1.1-31.6,3.6-47.1,7.2c-21.2,5-41.7,12.7-61,22.8c-39.2,20.6-70.2,50.1-92.9,88.4
		c-10.1,17-17.9,35.3-23.4,54.3c-2.8,9.7-5,19.6-6.7,29.6c-0.1,0.6-0.2,1.2-0.3,1.8c-2.5,16.1-3.8,32.4-3.7,48.7
		c0,15.7,1.1,31.4,3.3,47c4.8,32.6,14.9,62,30.2,88.3c21.7,37.7,53.8,68.4,92.4,88.4c32.4,17.1,68.3,27.1,107.7,30
		c6,0.5,12.1,0.7,18.4,0.9h0.2c2.3,0,4.5,0.1,6.8,0.1c24.9,0.1,49.8-2.7,74-8.6c3-0.7,6-1.5,8.9-2.3c1.3-0.4,2.7-0.8,4-1.2
		c16.1-4.8,31.8-11.1,46.7-18.9c5.5-2.9,10.8-5.9,16-9.2c8.2-5.1,16.1-10.6,23.5-16.7c6.1-4.9,11.9-10.2,17.4-15.7
		c2.4-2.4,4.7-4.8,7-7.3c11.1-12.2,21-25.6,29.3-39.9c5-8.6,9.5-17.5,13.4-26.7c13.8-32.2,20.6-68.3,20.6-108.2
		C740.3,400.7,740.1,395.1,739.8,389.6z M472.3,510.6c-0.7,0-1.3-0.1-2-0.2c-20.1-2-36.8-10.7-50.2-26.1c-15.3-17.7-23-43.7-23-77.8
		c0-33.6,8-59.3,23.9-77c13.9-15.4,30.7-24.1,50.3-26.1l1.9-0.2h0.2c2.2-0.2,4.5-0.2,6.8-0.2c23.6,0,43.5,8.8,59.7,26.5
		s24.3,43.4,24.3,77s-8.1,59.4-24.3,77.4s-36.4,27-60.6,27c-2.3,0-4.6-0.1-6.8-0.2L472.3,510.6z"/>
	<path class="st36" d="M692.2,272c-18.6-31.3-42.6-56.8-72.2-76.2c-6.6-4.3-13.5-8.4-20.6-12.2c-5.1-2.7-10.3-5.2-15.5-7.5
		c-14.5-6.4-29.6-11.5-45-15.2c-21.5-5.1-43.5-7.8-65.6-8.2h-0.6h-0.6h-1.2c-1.4,0-2.8,0-4.2,0s-3.1,0-4.6,0c-2.4,0-4.8,0.1-7.1,0.2
		c-16.1,0.5-32.2,2.2-48,5.2c-25.7,4.8-50.6,13.4-73.8,25.5C294,204.2,263,233.7,240.3,272c-8.2,13.8-14.9,28.4-20,43.5
		c-2.7,8-5,16.1-6.9,24.4c-1.1,4.7-2,9.4-2.9,14.2c-2.2,12.7-3.5,25.4-4,38.3c-0.2,4.6-0.3,9.3-0.3,14c0,5.3,0.1,10.6,0.4,15.7
		c0.8,19.2,3.5,38.3,8,56.9c5.4,22,13.9,43.1,25.2,62.7c21.7,37.7,53.8,68.4,92.4,88.4c38.1,20.1,81.1,30.4,128.9,30.9
		c1.5,0,3.1,0,4.6,0c1.4,0,2.8,0,4.2,0h1.2h0.6h0.6c30.7-0.6,59.5-5.3,86.2-14c13.9-4.5,27.4-10.2,40.3-16.9
		c11.6-6,22.7-13,33.2-20.9c1.2-0.9,2.3-1.8,3.5-2.7c5.7-4.4,11.1-9.1,16.3-14.1c2.3-2.2,4.6-4.5,6.9-6.8c5.7-5.9,11-12.1,16-18.5
		c6.4-8.2,12.2-16.8,17.4-25.8c11.9-20.3,20.7-42.2,26.1-65.1c0.1-0.5,0.3-1.1,0.4-1.7c0.8-3.5,1.6-7,2.2-10.5
		c1.3-6.5,2.3-13.1,3.1-19.9c0.4-3.7,0.8-7.4,1.1-11.1c0.2-2.9,0.4-5.8,0.6-8.8c0.3-5.8,0.5-11.7,0.5-17.8
		C726.3,355.2,714.9,310.4,692.2,272z M406.1,484.3c-15.3-17.7-23-43.7-23-77.8c0-33.6,8-59.3,23.9-77c15.7-17.3,35-26.2,58-26.5
		h1.4h0.2c0.5,0,1,0,1.5,0c1.7,0,3.4,0.1,5.1,0.2c20.5,1.6,38.1,10.4,52.7,26.3c16.2,17.7,24.3,43.4,24.3,77s-8.1,59.4-24.3,77.4
		c-14.7,16.3-32.5,25.2-53.6,26.7c-1.7,0.1-3.3,0.2-5,0.2c-0.5,0-1,0-1.5,0h-0.4C441.2,510.8,421.5,502,406.1,484.3z"/>
	<path class="st37" d="M692.6,272c-18.7-31.6-43-57.2-73-76.7c-6.4-4.2-13-8.1-19.9-11.7c-5.3-2.8-10.6-5.4-16.1-7.8
		c-14.5-6.3-29.5-11.4-44.8-15c-21.4-5.1-43.4-7.8-65.4-8.1H472h-1.2c-1.4,0-2.8,0-4.2,0s-3.1,0-4.6,0c-2.4,0-4.8,0.1-7.1,0.2
		c-16.1,0.5-32.2,2.3-48,5.3c-25.5,4.8-50.2,13.3-73.3,25.4c-39.2,20.6-70.2,50.1-92.9,88.4c-8.2,13.8-14.9,28.4-20,43.6
		c-2.8,8.1-5.1,16.4-7,24.8c-1,4.5-2,9.2-2.8,13.8c-2.2,13.1-3.6,26.4-4.1,39.7c-0.2,4.1-0.2,8.2-0.2,12.4c0,5.2,0.1,10.4,0.3,15.5
		c0.8,19.9,3.6,39.6,8.4,58.9c5.4,21.4,13.7,41.9,24.8,61c21.7,37.7,53.8,68.4,92.4,88.4c38,20,80.8,30.3,128.5,30.9
		c1.5,0,3.1,0,4.6,0c1.4,0,2.8,0,4.2,0h1.2h1.4c30.7-0.6,59.5-5.2,86.3-13.9c14-4.5,27.5-10.2,40.5-17c11.4-5.9,22.3-12.8,32.6-20.5
		c1.2-0.9,2.3-1.8,3.5-2.7c5.7-4.5,11.2-9.2,16.5-14.2c2.4-2.3,4.8-4.7,7.1-7.1c5.6-5.8,10.9-11.9,15.8-18.3l0,0
		c6.5-8.3,12.4-17.1,17.8-26.2c11.9-20.3,20.7-42.2,26.1-65.1c0.3-1.4,0.7-2.8,1-4.3c0.6-2.5,1.1-4.9,1.6-7.4
		c1.3-6.5,2.3-13,3.1-19.8c0.5-4,0.9-8.1,1.2-12.2c0.2-3,0.4-5.9,0.6-8.9c0.3-5.7,0.4-11.4,0.4-17.2
		C726.7,355.2,715.3,310.4,692.6,272z M461.6,510.7c-18-0.8-33.4-6.7-46.3-17.7c-0.5-0.4-1-0.9-1.6-1.4s-0.9-0.8-1.3-1.2
		c-2.1-2-4-4-5.9-6.2c-15.3-17.7-23-43.7-23-77.8c0-33.6,8-59.3,23.9-77c2-2.2,4-4.3,6.2-6.2c0.4-0.4,0.9-0.8,1.3-1.2
		s1.1-0.9,1.6-1.4c12.8-10.8,28.8-17,45.6-17.6h0.3c0.9,0,1.8-0.1,2.7-0.1h1.4h0.2c0.5,0,1,0,1.5,0c1.8,0,3.5,0.1,5.3,0.2
		c20.6,1.6,38.3,10.3,53,26.3c16.2,17.7,24.3,43.4,24.3,77s-8.1,59.4-24.3,77.3c-14.7,16.3-32.6,25.2-53.8,26.7
		c-1.7,0.1-3.5,0.2-5.2,0.2c-0.5,0-1,0-1.5,0h-0.4h-2h-0.9h-0.1L461.6,510.7z"/>
	
		<linearGradient id="SVGID_11_" gradientUnits="userSpaceOnUse" x1="646.9924" y1="524.3414" x2="651.2625" y2="563.0214" gradientTransform="matrix(0.9996 -2.827057e-02 2.827057e-02 0.9996 -109.818 -454.999)">
		<stop  offset="0.14" style="stop-color:#452821"/>
		<stop  offset="0.33" style="stop-color:#482A23"/>
		<stop  offset="0.49" style="stop-color:#533127"/>
		<stop  offset="0.64" style="stop-color:#643D2F"/>
		<stop  offset="0.79" style="stop-color:#7D4D3A"/>
		<stop  offset="0.93" style="stop-color:#9D6249"/>
		<stop  offset="1" style="stop-color:#B16F52"/>
	</linearGradient>
	<path class="st38" d="M528.2,3.4c0,0,22.4-10,23.4,22.2c0.1,4,9.1,9.9,7.1,16.5c-1.8,6.1,2.2,11.4,5.1,12.2
		c5.3,1.4,19.7,15.6,0.5,27.1c-14.7,8.8-19.8-8.5-20.8-9.8S532.1,53,532.1,53L528.2,3.4z"/>
	
		<linearGradient id="SVGID_12_" gradientUnits="userSpaceOnUse" x1="1172.6937" y1="128.0063" x2="1164.9437" y2="199.4463" gradientTransform="matrix(0.9825 -0.1865 0.1865 0.9825 -667.2001 112.4072)">
		<stop  offset="0.14" style="stop-color:#452821"/>
		<stop  offset="0.33" style="stop-color:#482A23"/>
		<stop  offset="0.49" style="stop-color:#533127"/>
		<stop  offset="0.64" style="stop-color:#643D2F"/>
		<stop  offset="0.79" style="stop-color:#7D4D3A"/>
		<stop  offset="0.93" style="stop-color:#9D6249"/>
		<stop  offset="1" style="stop-color:#B16F52"/>
	</linearGradient>
	<path class="st39" d="M507.3,84.6c0,0-10.6-9.6-12.6-15.4c-2.6-7.5,1.8-8.5-1.3-11.3s-4.2-11.4,1.5-14.9c3.2-1.9,2.6-7.4,1.7-10.4
		C493.3,21.8,502,6.9,509,4.7c1.6-0.5-4.3,14.9-4.3,14.9l27.9,40.2L507.3,84.6z"/>
	<path class="st30" d="M536.9,176.6c-1.4-0.4-2.7-0.7-4.2-0.7c-5.3-0.9-5,1-9.7,0.1l5.1-1.8c3-1.1,5.2-3.7,5.9-6.8
		c0.7-3.2,0.8-6.4,0.3-9.6l0.2-0.2l0.5-0.6l0.1-0.1l-4.7-9.1c-19.2-3.8-32.8,0.9-53.9,0.9c-2.3,0-4.5,0-6.8,0.1h-2.6
		c-1.4,0-2.8,0-4.2,0c-1.6,0-3.1,0-4.6,0c-18.5,0.2-36.9,2-55.1,5.4v0.1c0.1,0.2,0.2,0.4,0.2,0.6c0.3,0.7,0.6,1.4,0.9,2
		c4.2,8,15.8,16.9,38.5,22.7c-1.4,2.2-3.7,5.9-7.7,12.3c-11.4,18.2-28,66.9-32.2,79.5c-0.5,1.4,0.1,2.9,1.3,3.7
		c-1.2,0.9-2.6,2-4.1,3.1c-3.3-0.3-8.5-0.7-7.4,0.7c0.8,1,3.4,0.8,5.8,0.4c-1.8,1.3-3.7,2.6-5.7,3.9c-0.4-0.2-0.9-0.3-1.3-0.5l1,0.7
		c-1,0.6-2,1.3-3,1.9c-0.4-0.2-0.8-0.3-1.2-0.4l0.8,0.6c-1.1,0.7-2.2,1.4-3.4,2c-0.5-0.2-0.8-0.2-0.9-0.3l0.6,0.4l-1.4,0.8
		c-11.1,5.9-6.1,15.4-6.1,15.4h0.1c0.2,1.2,0.5,2.3,1.1,3.4l35.5-12.2l1-3.3l0,0l3.4-11.4c1.9,0.3,3.8-0.5,4.7-2.2l45.9-82.8
		c0.9-0.3,9.2-3.3,19.5-7.1c6.1,1.1,9.8,1.8,13.6,2.5c3,0.6,6.1-0.6,7.8-3.1c-0.3,0.9-0.5,1.7-0.8,2.5c-0.1,0.6,0.1,1.2,0.6,1.6
		c-0.9,3.2-1.2,5.6,0.5,3.9c0.7-0.8,1.3-1.7,1.7-2.6c0.4,0.1,0.8,0.3,1.2,0.4c2.6,0.6,3.2-1.3,7.7,2.3c1.4,1.2,3.1,2.2,4.8,2.8
		c5.4,2.9,11.5,1.9,14.3-8.1C543.1,180.9,539.9,177.4,536.9,176.6z M513.3,179.9l0.2-0.6h0.1C513.4,179.6,513.4,179.7,513.3,179.9
		L513.3,179.9z"/>
	<path class="st29" d="M475.6,136c-12.7,0.8-59.8-12.7-72.6-3.8c-10.7,7.5-6.2,31.6,45.4,43.3c32.3,7.4,40,8.9,48.2,10.9
		c3.8,0.9,7.8-1.2,9.2-4.9l2.8-7.3c0.9-2.4-0.3-5-2.7-5.9l-3.2-2.4L475.6,136z"/>
	
		<linearGradient id="SVGID_13_" gradientUnits="userSpaceOnUse" x1="-237.9705" y1="966.4613" x2="-223.7705" y2="1002.4513" gradientTransform="matrix(0.89 0.11 -0.13 0.99 861.3192 -885.3379)">
		<stop  offset="0" style="stop-color:#C17563"/>
		<stop  offset="0.43" style="stop-color:#C57F6E"/>
		<stop  offset="1" style="stop-color:#CD9182"/>
	</linearGradient>
	<path class="st40" d="M540.4,74.2c0,0-32.8,0.5-26.8-4.3c2.4-1.9,3.5-8.9,4.2-13.8l0.1-0.6c0.6-4.9,0.9-9.9,0.8-14.9
		c0,0,1.7-0.9,4-1.9c0.5-0.2,1.1-0.5,1.7-0.7c6.7-2.6,16.7-4.9,14.8,6.2C537.4,54.2,537.9,64.4,540.4,74.2z"/>
	<polygon class="st41" points="502.6,31 508.1,32.6 508.1,33.6 502.8,33.2 	"/>
	<path class="st42" d="M533.8,49c0,0-7,20.7-16.4,9.8c1-6.5,1.7-14.9,1.7-14.9s1.4-0.8,3.5-1.7l1.4-0.6L533.8,49z"/>
	
		<linearGradient id="SVGID_14_" gradientUnits="userSpaceOnUse" x1="942.2729" y1="289.8089" x2="942.6228" y2="325.4889" gradientTransform="matrix(0.9925 -0.122 0.122 0.9925 -446.325 -135.5766)">
		<stop  offset="0" style="stop-color:#C17563"/>
		<stop  offset="0.43" style="stop-color:#C57F6E"/>
		<stop  offset="1" style="stop-color:#CD9182"/>
	</linearGradient>
	<path class="st43" d="M533.7,9.5c-3.4-2.5-7.7-3.6-11.9-2.8c-4.3,0.6-8.2,2.9-10.7,6.4l-4.8,3l1.2,25.2c0.3,1.3,0.7,2.5,1.3,3.7
		c1.7,4.9,8.6,13.6,15.3,13.5c8.9-0.2,14.5-9.3,17.2-15c1.4-3.1-0.4-9-0.5-10l-2.2-12.2L533.7,9.5z"/>
	
		<radialGradient id="SVGID_15_" cx="939.1872" cy="300.8598" r="12.1673" gradientTransform="matrix(0.9925 -0.122 0.122 0.9925 -446.325 -135.5766)" gradientUnits="userSpaceOnUse">
		<stop  offset="0" style="stop-color:#9E504A"/>
		<stop  offset="1" style="stop-color:#A35249"/>
	</radialGradient>
	<path class="st44" d="M529.9,45.3c0,0-6.6,11.9-15.4,1.6C519.6,45.9,524.8,45.4,529.9,45.3z"/>
	<path class="st45" d="M530.1,45.5l-0.2,0.2c-2.2,1.1-4.6,1.8-7.1,2.2c-2.7,0.3-5.5-0.1-8.1-1.1l-0.1-0.1
		C519.8,45.8,524.9,45.4,530.1,45.5z"/>
	<path class="st46" d="M531.2,44.8c-0.4,0.3-0.9,0.5-1.4,0.8c-2.2,1.1-4.6,1.9-7,2.4c-2.7,0.4-5.5,0.1-8.1-0.9
		c-0.5-0.2-1-0.4-1.6-0.6"/>
	<path class="st47" d="M516.7,41.1c1,1,2.4,1.6,3.8,1.4c1.2-0.2,2.3-0.9,3.1-1.9"/>
	
		<ellipse transform="matrix(0.9325 -0.3611 0.3611 0.9325 21.5951 186.5891)" class="st28" cx="510.1" cy="35.5" rx="1.4" ry="2.1"/>
	<ellipse transform="matrix(0.9132 -0.4075 0.4075 0.9132 31.7494 216.925)" class="st28" cx="525.1" cy="33.9" rx="1.4" ry="2.1"/>
	<path class="st29" d="M503.7,66.9c0,0-18.3,12.3-25.7,46.8s35.1,3.7,35.1,3.7L503.7,66.9z"/>
	<path class="st48" d="M503.7,66.9c0,0-18.3,12.3-25.7,46.8s35.1,3.7,35.1,3.7L503.7,66.9z"/>
	<path class="st28" d="M524.4,24.1c0,0-2.9,0.5-2.8,1.8s3.2,0.5,3.2,0.5s4.8-1,7.4-0.4c0.1,0,0.2,0,0.2-0.2c0-0.1,0-0.2-0.1-0.2
		C529.7,23.5,524.4,24.1,524.4,24.1z"/>
	<path class="st28" d="M508.9,25.7c0,0,3,0,3,1.2s-3.1,1.1-3.1,1.1s-4.9-0.1-7.4,1c-0.1,0-0.2,0-0.3-0.1c0-0.1,0-0.1,0-0.2
		C503.6,26.1,508.9,25.7,508.9,25.7z"/>
	
		<linearGradient id="SVGID_16_" gradientUnits="userSpaceOnUse" x1="627.605" y1="459.1893" x2="628.165" y2="509.1794" gradientTransform="matrix(0.98 -4.000000e-02 4.000000e-02 1 -116.8621 -435.8723)">
		<stop  offset="0.14" style="stop-color:#452821"/>
		<stop  offset="0.33" style="stop-color:#482A23"/>
		<stop  offset="0.49" style="stop-color:#533128"/>
		<stop  offset="0.58" style="stop-color:#5C372C"/>
		<stop  offset="0.66" style="stop-color:#673E31"/>
		<stop  offset="0.81" style="stop-color:#84513E"/>
		<stop  offset="1" style="stop-color:#B16F52"/>
	</linearGradient>
	<path class="st49" d="M507,32.6c0,0-14.7-0.8-10.9-13.1c2-6.5,10.9-18.6,18.6-19.3c26.7-2.6,26,33.9,26,33.9s0.2-24.1-18.9-22.6
		C505.4,12.8,507,32.6,507,32.6z"/>
	<path class="st41" d="M533.8,28.6c-2.2-1-4.6-1.3-7-1c-1.4,0.1-2.8,0.7-3.9,1.5c-0.6,0.5-1.2,1.1-1.6,1.8l-2.2,0.2l-2.2,0.1
		c-0.5-0.6-1.2-1.1-1.9-1.5c-1.3-0.7-2.7-1-4.2-0.9c-0.5,0-1,0-1.5,0.1c-1.6,0.1-3.1,0.8-4.3,1.9l-2.4,0.2l0.2,2.2h0.2
		c0.5,0.1,1.3,0.3,1.4,0.6c0,0.1,0,0.1,0,0.3c1,5.8,3.6,7.2,6.7,7.2c0.3,0,0.7,0,1,0c1.8-0.2,3.4-1.1,4.5-2.5
		c0.1-0.1,0.2-0.3,0.3-0.4c0.8-1.3,1.2-2.9,1-4.4c0-0.4,0-0.8,0.9-0.9h0.5h0.1c1-0.1,1,0.4,1.1,0.7c0.1,1.6,0.7,3,1.8,4.2
		c0.1,0.1,0.3,0.3,0.4,0.4c1.3,1.2,3.1,1.9,4.9,1.8c0.3,0,0.7-0.1,1-0.1c3.1-0.5,6.2-2.4,6.2-8.3v-0.3c0-0.3,0.7-0.7,1.2-0.8
		l0.2-0.1l-0.2-2.2L533.8,28.6z M517.3,36.2c-0.2,0.9-0.6,1.7-1.1,2.4c-1,1.3-2.5,2.1-4.1,2.3c-0.8,0.1-1.6,0-2.3-0.1l0,0
		c-4.1-0.8-4.2-5.7-3.7-8.2c0.2-1.2,1-2.2,2.1-2.6c0.8-0.3,1.7-0.4,2.6-0.5c2-0.1,4,0.6,5.4,2l0,0C517.2,32.8,517.6,34.5,517.3,36.2
		L517.3,36.2z M530,39.2L530,39.2c-0.7,0.2-1.5,0.4-2.3,0.4c-2.6,0.1-5-1.4-6-3.8c-0.5-1.6-0.5-3.3,0.2-4.8l0,0c1.2-1.6,3-2.6,5-2.8
		c1-0.1,2-0.1,2.9,0c1.3,0.2,2.5,1,3.2,2.2C534,32.8,533.9,37.8,530,39.2z"/>
	
		<radialGradient id="SVGID_17_" cx="952.4453" cy="292.4398" r="6.6" gradientTransform="matrix(0.9925 -0.122 0.122 0.9925 -446.325 -135.5766)" gradientUnits="userSpaceOnUse">
		<stop  offset="0" style="stop-color:#D1675D;stop-opacity:0.3"/>
		<stop  offset="0.37" style="stop-color:#C65D55;stop-opacity:0.16"/>
		<stop  offset="0.76" style="stop-color:#BD544E;stop-opacity:4.000000e-02"/>
		<stop  offset="1" style="stop-color:#BA514C;stop-opacity:0"/>
	</radialGradient>
	<circle class="st50" cx="534" cy="39.2" r="6"/>
	
		<radialGradient id="SVGID_18_" cx="976.366" cy="262.5649" r="6.6" gradientTransform="matrix(1 0 0 1 0 -549.9771)" gradientUnits="userSpaceOnUse">
		<stop  offset="0" style="stop-color:#D1675D;stop-opacity:0.3"/>
		<stop  offset="0.37" style="stop-color:#C65D55;stop-opacity:0.16"/>
		<stop  offset="0.76" style="stop-color:#BD544E;stop-opacity:4.000000e-02"/>
		<stop  offset="1" style="stop-color:#BA514C;stop-opacity:0"/>
	</radialGradient>
	<circle class="st51" cx="512" cy="42.3" r="6"/>
	
		<linearGradient id="SVGID_19_" gradientUnits="userSpaceOnUse" x1="1313.8934" y1="404.5156" x2="1320.4733" y2="422.9856" gradientTransform="matrix(0.93 -0.23 0.26 1.07 -783.8611 -100.1312)">
		<stop  offset="0.14" style="stop-color:#452821"/>
		<stop  offset="0.33" style="stop-color:#482A23"/>
		<stop  offset="0.49" style="stop-color:#533127"/>
		<stop  offset="0.64" style="stop-color:#643D2F"/>
		<stop  offset="0.79" style="stop-color:#7D4D3A"/>
		<stop  offset="0.93" style="stop-color:#9D6249"/>
		<stop  offset="1" style="stop-color:#B16F52"/>
	</linearGradient>
	<path class="st52" d="M523.9,11.2c0,0,8.4,15.3,19.9,22.2s-3-20-3-20L523.9,11.2z"/>
	
		<linearGradient id="SVGID_20_" gradientUnits="userSpaceOnUse" x1="738.6589" y1="443.9317" x2="742.6276" y2="479.8992" gradientTransform="matrix(0.9985 -5.425309e-02 5.425309e-02 0.9985 -206.1785 -367.4991)">
		<stop  offset="0.14" style="stop-color:#452821"/>
		<stop  offset="0.45" style="stop-color:#653D2F;stop-opacity:0.74"/>
		<stop  offset="1" style="stop-color:#B16F52;stop-opacity:0.1"/>
	</linearGradient>
	<path class="st53" d="M550.2,36.9c0,0,4.4,7.1,1.8,11.6c-2.1,3.6,0.4,7.7,4.9,8.4s12.2,7.8,10.5,13.1"/>
	
		<linearGradient id="SVGID_21_" gradientUnits="userSpaceOnUse" x1="732.7927" y1="448.4437" x2="736.7624" y2="484.421" gradientTransform="matrix(0.9985 -5.425309e-02 5.425309e-02 0.9985 -206.1785 -367.4991)">
		<stop  offset="0.14" style="stop-color:#452821"/>
		<stop  offset="0.45" style="stop-color:#653D2F;stop-opacity:0.74"/>
		<stop  offset="1" style="stop-color:#B16F52;stop-opacity:0.1"/>
	</linearGradient>
	<path class="st54" d="M544.6,41.8c0,0,4.4,7.1,1.8,11.6c-2.1,3.6,0.4,7.7,4.9,8.4s12.2,7.8,10.5,13.1"/>
	<polygon class="st41" points="536.2,28.5 541.7,30 541.7,31 536.4,30.7 	"/>
	
		<linearGradient id="SVGID_22_" gradientUnits="userSpaceOnUse" x1="5671.0483" y1="98.6541" x2="5718.3384" y2="98.6541" gradientTransform="matrix(-1.17 2.000000e-02 -2.000000e-02 0.89 7162.1821 -166.6457)">
		<stop  offset="0" style="stop-color:#C17563"/>
		<stop  offset="0.43" style="stop-color:#C57F6E"/>
		<stop  offset="1" style="stop-color:#CD9182"/>
	</linearGradient>
	<path class="st55" d="M540.6,39.5c0-2.6-0.3-5.2-0.7-7.8c-0.7-3.6,5.4-3.4,5.6-0.3S545.3,40.1,540.6,39.5"/>
	<path class="st56" d="M542.5,31.9c0.4,0.7,0.7,1.5,0.8,2.3c0.2,0.6,0.1,1.3-0.3,1.8"/>
	<path class="st56" d="M541.2,34.6c0,0,1.3-1.6,2-0.9"/>
	
		<linearGradient id="SVGID_23_" gradientUnits="userSpaceOnUse" x1="1224.89" y1="283.4565" x2="1261.7601" y2="283.4565" gradientTransform="matrix(0.98 -0.18 0.18 0.98 -683.5705 124.5493)">
		<stop  offset="0" style="stop-color:#C17563"/>
		<stop  offset="0.84" style="stop-color:#C47D6C"/>
		<stop  offset="1" style="stop-color:#C57F6E"/>
	</linearGradient>
	<path class="st57" d="M600,174.9c-9-5.5-11.9-5.8-11.9-5.8s-6.3-9.3-6.7-9.9s-9.6,5.3-9.6,5.3s8.2,9.8,11.9,14.9
		c0.3,0.5,0.7,0.9,1.1,1.4c1.6,3,3.6,5.7,6,8.1c1.6,1.2,3.4,2.2,5.4,2.8c0.4,0.1,0.9-0.1,1-0.5c0.1-0.3,0-0.6-0.2-0.8
		c-1.7-1.7-4-4.1-4.6-5.8c-0.1-0.3-0.4-1.8,0-2.2l0.5,0.2c6,2.9,13,9.7,13.6,10.1c2.5,1.5,5.7,2.5,3.1-1.4c2.8,1.9,4,2.9,4.5,2.1
		s-1.6-4.3-1.6-4.3s0.9,1.2,1.5,0.6C614.4,189.2,609,180.4,600,174.9z"/>
	
		<linearGradient id="SVGID_24_" gradientUnits="userSpaceOnUse" x1="4037.0991" y1="8004.2373" x2="4037.9995" y2="8004.2373" gradientTransform="matrix(0.64 -0.77 -0.77 -0.64 4215.4043 8380.5879)">
		<stop  offset="0" style="stop-color:#C17563"/>
		<stop  offset="0.84" style="stop-color:#C47D6C"/>
		<stop  offset="1" style="stop-color:#C57F6E"/>
	</linearGradient>
	<path class="st58" d="M608.6,190.2c-2.1-2.8-4.6-5.2-7.5-7.1"/>
	
		<linearGradient id="SVGID_25_" gradientUnits="userSpaceOnUse" x1="4149.1714" y1="7959.5439" x2="4150.8911" y2="7959.5439" gradientTransform="matrix(0.61 -0.79 -0.79 -0.61 4338.105 8350.377)">
		<stop  offset="0" style="stop-color:#C17563"/>
		<stop  offset="0.84" style="stop-color:#C47D6C"/>
		<stop  offset="1" style="stop-color:#C57F6E"/>
	</linearGradient>
	<path class="st59" d="M611.9,188.3c-2.6-3.8-5.9-7-9.7-9.5"/>
	<path class="st60" d="M475.6,136c-12.7,0.8-59.8-12.7-72.6-3.8c-10.7,7.5-6.2,31.6,45.4,43.3c32.3,7.4,40,8.9,48.2,10.9
		c3.8,0.9,7.8-1.2,9.2-4.9l2.8-7.3c0.9-2.4-0.3-5-2.7-5.9l-3.2-2.4L475.6,136z"/>
	<path class="st61" d="M505.6,187.2c-0.6,1.6,6.6-1,8.2-0.5c2.6,0.7-0.9,2.6,3.4,6.4c5.8,5.1,13.7,6.1,17.4-5.5
		c3-9.3,0-12.9-2.9-13.9c-11.8-3.8-5.9,5.3-15.7,1.6C511.8,173.7,507.9,180.9,505.6,187.2z"/>
	<path class="st61" d="M410,270.1l-5.7,16.9l-35.9,10.6c0,0-4.7-9.5,6.2-15s24.1-15.7,24.6-16.5S410,270.1,410,270.1z"/>
	<path class="st62" d="M411.2,266.9l-5.8,16.9l-26,7.2l-6.4,1.8l-5.6,1.5c0,0-4.6-9.7,6.8-15.1s25.1-15.5,25.7-16.4
		S411.2,266.9,411.2,266.9z"/>
	<path class="st62" d="M503.8,186.2c-0.5,1.6,2.3,2.9,4,3.3c2.6,0.8,3.3-1.2,7.6,2.6c5.8,5.1,13.6,6.2,17.1-5.1
		c2.8-9.1-0.1-12.9-3.1-13.7c-8.6-2.4-5.6,1.7-15.4-2.1C509.8,169.6,505.9,179.9,503.8,186.2z"/>
	<path class="st29" d="M483.1,139.8l-40.3,27.3c-4.4,3.7-1.2-0.3-13.5,17.6c-12.2,17.7-30.8,65.6-35.5,78.1
		c-0.6,1.7,0.2,3.5,1.8,4.2c3.5,1.4,9.3,3.8,13,5.3c2,0.8,4.3,0.1,5.5-1.8l49.3-80.8c2-0.7,45.4-14.3,59.6-18.8
		c3.1-0.9,5.4-3.4,6.2-6.5C531.7,153.8,531.9,131.5,483.1,139.8z"/>
	
		<linearGradient id="SVGID_26_" gradientUnits="userSpaceOnUse" x1="520.7488" y1="690.3293" x2="462.1389" y2="562.0793" gradientTransform="matrix(1 0 0 1 0 -549.9771)">
		<stop  offset="0.33" style="stop-color:#2B59C3"/>
		<stop  offset="0.56" style="stop-color:#426BC9"/>
		<stop  offset="0.72" style="stop-color:#557ACF"/>
	</linearGradient>
	<path class="st63" d="M592.9,168.3c0,0-16,7.4-16.6,6c-0.3-0.8-14-31.4-25.4-56.9l-1.8-4c-4.2,9.6-9.1,19.4-13.4,27.6
		c-6.4,12-11.5,20.7-11.5,20.7s-81.2-5.9-71.5-28.4c6.9-16.1,38.6-8.8,43.5-44.5c0.8-6,1.6-15.9,5-19.8c2-2.2,4.5-3.9,7.3-4.8
		l5.6-0.8c0-0.8-0.1-1.3-0.1-1.3v-5.5c0,0,6.5,5.6,12.4,4.2c4.4-1.1,8.7-2.8,12.6-5.1l0.8,6.5c1.8-0.3,7.1,2.5,11.5,5.2
		c4.2,2.5,7.5,6.5,9.2,11.1L592.9,168.3z"/>
	<path class="st30" d="M550.9,117.4l-1.8-4c-4.2,9.6-9.1,19.4-13.4,27.6c-7.7,4.6-14.7,9.3-11.8,9.4c14.2,0.6,18.6-55.1,18.6-55.1
		L550.9,117.4z"/>
	
		<linearGradient id="SVGID_27_" gradientUnits="userSpaceOnUse" x1="742.567" y1="508.575" x2="794.1071" y2="508.575" gradientTransform="matrix(1 -8.000000e-02 8.000000e-02 1 -290.2291 -300.5575)">
		<stop  offset="4.000000e-02" style="stop-color:#D8D9D9"/>
		<stop  offset="0.32" style="stop-color:#D5D7D7"/>
		<stop  offset="0.51" style="stop-color:#CCCFD0"/>
		<stop  offset="0.67" style="stop-color:#BDC1C5"/>
		<stop  offset="0.81" style="stop-color:#A8AEB5"/>
		<stop  offset="0.94" style="stop-color:#8D96A1"/>
		<stop  offset="1" style="stop-color:#7E8996"/>
	</linearGradient>
	<path class="st64" d="M523.6,162.6l14.9-18.8c0.7-0.9,0.6-2.1-0.3-2.8c-0.3-0.2-0.6-0.4-1-0.4l-50.7-7.9L523.6,162.6z"/>
	<polygon class="st65" points="522,141.2 533.5,143.4 522.3,158.5 	"/>
	
		<linearGradient id="SVGID_28_" gradientUnits="userSpaceOnUse" x1="817.686" y1="537.5931" x2="674.896" y2="455.6531" gradientTransform="matrix(1 -8.000000e-02 8.000000e-02 1 -290.2291 -300.5575)">
		<stop  offset="4.000000e-02" style="stop-color:#D8D9D9"/>
		<stop  offset="0.32" style="stop-color:#D5D7D7"/>
		<stop  offset="0.51" style="stop-color:#CCCFD0"/>
		<stop  offset="0.67" style="stop-color:#BDC1C5"/>
		<stop  offset="0.81" style="stop-color:#A8AEB5"/>
		<stop  offset="0.94" style="stop-color:#8D96A1"/>
		<stop  offset="1" style="stop-color:#7E8996"/>
	</linearGradient>
	<path class="st66" d="M519.8,164.6L450,150.8c-3,0.2-5.7-1.9-6.1-4.9l-5.6-37.1c-0.4-3.1,1.7-6.1,4.9-6.5c0.1,0,0.2,0,0.4,0
		l74.2,8.4c3.2-0.2,5.9,2.1,6.2,5.3c0,0.1,0,0.2,0,0.3l1.2,42.5C525.2,161.7,522.8,164.3,519.8,164.6z"/>
	<g class="st67">
		<path class="st68" d="M477,138.8c-2.4,0.2-4.4-1.7-4.6-5s1.4-5.5,3.8-5.6s4.4,1.7,4.6,5S479.4,138.6,477,138.8z M476.8,135.6
			c0.7,0,1.3-0.8,1.2-2.3s-0.8-2.1-1.5-2.1s-1.3,0.8-1.2,2.3S476.1,135.7,476.8,135.6L476.8,135.6z"/>
	</g>
	<path class="st68" d="M147.7,289.3l11.3-4.7c1-0.6,1.5-0.2,1.4,0.6c-0.3,2.8-2.2,5.4-4,6.1c-2.9,1.1-6.1,0.7-8.7-1.1
		c-0.2-0.1-0.3-0.4-0.2-0.7C147.5,289.4,147.5,289.4,147.7,289.3z"/>
	<path class="st69" d="M133.2,444.2c0,0,34.5,1.2,53.7-6.7"/>
	<path class="st69" d="M126.8,350.2c-1.1,5.4-3.4,13.4-1,9.4c1.8-3.1,3.4-6.4,4.7-9.7"/>
	<path class="st69" d="M195.4,349c0,0-5.6-3.1-5.5-4.5"/>
	<path class="st69" d="M117.2,369c-0.5-0.1-5.7-0.8-8.2-3.1"/>
	<path class="st69" d="M151.1,371.6c0,0,39.8,35.2,38.2,27.8S176,371.7,176,371.7"/>
	<path class="st3" d="M754.8,226.6c-1.2-0.7,1.6-7.3,6.9-10.2s12.4-7.3,15.1-11.3c3.5-5.1,4.4-7.2,10.7-12.5s22.8-10.2,28.5-0.9
		s-0.7,16.4-8.5,20.3s-33.2,4.7-40.3,8.1S755.7,227.2,754.8,226.6z"/>
	<g>
		<path class="st4" d="M754.8,226.6c-1.2-0.7,1.6-7.3,6.9-10.2s12.4-7.3,15.1-11.3c3.5-5.1,4.4-7.2,10.7-12.5s22.8-10.2,28.5-0.9
			s-0.7,16.4-8.5,20.3s-33.2,4.7-40.3,8.1S755.7,227.2,754.8,226.6z"/>
	</g>
	<path class="st6" d="M757.2,223.8c-1.2-0.6,1.3-7.4,6.4-10.5s12-7.8,14.6-12c3.3-5.3,4.1-7.4,10.1-12.9s22.3-11.2,28.5-2.2
		s0.1,16.4-7.6,20.6s-32.9,6.2-39.9,9.9S758.2,224.3,757.2,223.8z"/>
	<path class="st3" d="M160.3,555.3c-4-2.2-5.8-3.4-10.4-8.9s-6.9-15.9-16.5-20s-25.7-4.3-27.7,8.3s12.3,23.5,20.4,26.6
		s22.8,6.2,29.8,5.7s15.2,1.4,20,7.2l3.2-2C179,572.2,164.2,557.5,160.3,555.3z"/>
	<g>
		<path class="st4" d="M160.3,555.3c-4-2.2-5.8-3.4-10.4-8.9s-6.9-15.9-16.5-20s-25.7-4.3-27.7,8.3s12.3,23.5,20.4,26.6
			s22.8,6.2,29.8,5.7s15.2,1.4,20,7.2l3.2-2C179,572.2,164.2,557.5,160.3,555.3z"/>
	</g>
	<path class="st5" d="M178.5,574.4c-2.1-1.7-4.3-3.5-6.5-5c-2.2-1.6-4.5-3.1-6.9-4.4c-2.4-1.4-4.8-2.5-7.4-3.5l-3.9-1.4l-1.9-0.7
		l-1.9-0.8c-5.1-2.1-10-4.7-14.6-7.8c-2.3-1.6-4.4-3.3-6.3-5.3c-0.5-0.5-1-1-1.4-1.5c-0.5-0.5-0.9-1.1-1.3-1.6
		c-0.8-1.1-1.5-2.3-2.1-3.6c1.3,2.4,3,4.6,5.1,6.4c2,1.9,4.1,3.5,6.4,5c4.6,3,9.5,5.5,14.6,7.5l1.9,0.8l1.9,0.7l3.9,1.4
		c2.6,1,5.1,2.2,7.4,3.7C170.2,567.2,174.6,570.6,178.5,574.4z"/>
	<path class="st70" d="M393.1,269.7c-0.8,0.1-11.4-1.9-9.8,0.2S393.1,269.7,393.1,269.7z"/>
	<path class="st70" d="M393.1,269.7c0,0-7.6,2.5-7,5C387.2,278.7,393.1,269.7,393.1,269.7z"/>
	<path class="st70" d="M375,277.9c0,0,3.3,0.9,3.5,2.7"/>
	<path class="st70" d="M378.5,275.8c0,0,3.3,0.9,3.5,2.7"/>
	<path class="st70" d="M381.8,273.7c0,0,3.3,0.9,3.5,2.7"/>
	<path class="st71" d="M512,176.6c0,0-3,3.2-1.6,6.5"/>
	<path class="st71" d="M514.7,177.3c-0.7,2-0.9,4.1-0.5,6.2"/>
	<path class="st71" d="M518.6,178.8c0,0-2.7,2.1-2.1,4.8"/>
	<path class="st70" d="M508.1,178.2c0,0-7.7,17.4-3.4,13.5S508.1,178.2,508.1,178.2z"/>
	<path class="st70" d="M508.1,178.2c0,0,2,15.5,3.8,9.6C513.6,181.9,508.1,178.2,508.1,178.2z"/>
	<path class="st72" d="M517.5,65.5c1.2,0.1,7.8,4.5,16.3,0"/>
	<path class="st72" d="M548.2,109.3c-1.3-1.2-8-19.7-4.8-28.1"/>
	<path class="st72" d="M544.6,99.9c0,0-6.5-7.9-6.5-12.2"/>
	<path class="st72" d="M577.7,169.8c1,0.2,7.2,0.6,9-1.2"/>
	<path class="st69" d="M134.4,315.8c-1.2,2.9-4,9.6,1,7.6s9.1-3.9,13.2-2.1s10,8.3,10,8.3"/>
	<path class="st69" d="M164.8,344.5c0,0,6.2,0.5,5.7-1.9S164,324,164,324s-1.7-10.1,1.5-10.9s7.1,0.8,7.3-0.6s-2.8-2.8-2.8-2.8"/>
	<path class="st69" d="M161.5,332.2c1.1,1.5,4,0.6,3.2-1s-2.5-1.8-3.2-0.5"/>
	<path class="st69" d="M164.3,339.4c1.1,1.5,4,0.6,3.2-1s-2.5-1.8-3.2-0.5"/>
	<path class="st3" d="M686,312.2c1.4-0.7,3.8-1.2,9.1-8.4s12.2-19.2,14.8-29.4s10.7-28.2,26.8-33.5s28.3-7,36.5-2.4
		s12,11.7,9.4,20.3c-6,15.1-24.3,17.5-36.5,17.1c-10.4-0.3-28.1,7.1-44.5,28.8c0,0-13.5,18.2-19.3,12.6
		C680.8,315.5,684.6,312.9,686,312.2z"/>
	<g>
		<path class="st4" d="M686,312.2c1.4-0.7,3.8-1.2,9.1-8.4s12.2-19.2,14.8-29.4s10.7-28.2,26.8-33.5s28.3-7,36.5-2.4
			s12,11.7,9.4,20.3c-6,15.1-24.3,17.5-36.5,17.1c-10.4-0.3-28.1,7.1-44.5,28.8c0,0-13.5,18.2-19.3,12.6
			C680.8,315.5,684.6,312.9,686,312.2z"/>
	</g>
	<path class="st5" d="M766.9,254.3c-4.6-0.7-9.2-1-13.8-0.7c-4.6,0.2-9.1,1.2-13.4,2.8c-2.1,0.8-4.1,1.9-6,3.2
		c-1.9,1.3-3.6,2.8-5.2,4.4c-3.2,3.3-6.3,6.7-9.2,10.3c-2.9,3.6-5.5,7.4-7.9,11.3c-1.2,2-2.3,4-3.5,6s-2.5,3.9-3.9,5.8
		c-2.7,3.8-5.7,7.4-8.9,10.7c-1.6,1.7-3.4,3.2-5.2,4.6c-0.9,0.7-1.9,1.3-3,1.8s-2.3,0.7-3.4,0.4c1.1,0.2,2.3,0,3.3-0.5
		s2-1.1,2.9-1.8c1.8-1.4,3.5-3,5.1-4.7c3.1-3.4,6-7,8.6-10.8c1.3-1.9,2.6-3.8,3.7-5.8s2.2-4.1,3.3-6.1c2.3-4,5-7.9,7.8-11.5
		c2.9-3.6,6-7.1,9.4-10.3c1.6-1.7,3.4-3.2,5.4-4.5s4.1-2.4,6.3-3.1c4.4-1.5,9.1-2.4,13.7-2.5C757.8,252.9,762.4,253.4,766.9,254.3z"
		/>
	<path class="st3" d="M683.4,251c0,0,7.3-10.7,14.2-17.7s32.2,0.7,45.4-13.1s43.7-59.3,38.6-71.6s-20.1-17.2-31.3-14.4
		s-17,19.6-29.6,32.4s-22.4,13.9-28.8,22.8s-9.2,36.4-10.5,46.8s-3.2,14.5-3.2,14.5L683.4,251z"/>
	<g>
		<path class="st4" d="M683.4,251c0,0,7.3-10.7,14.2-17.7s32.2,0.7,45.4-13.1s43.7-59.3,38.6-71.6s-20.1-17.2-31.3-14.4
			s-17,19.6-29.6,32.4s-22.4,13.9-28.8,22.8s-9.2,36.4-10.5,46.8s-3.2,14.5-3.2,14.5L683.4,251z"/>
	</g>
	<path class="st5" d="M765.1,151.5c-5.7,8.9-11.8,17.4-18.4,25.6c-1.7,2-3.5,4-5.4,5.8c-2,1.8-4.1,3.4-6.4,4.8
		c-4.5,2.8-9.2,5.1-13.8,7.7c-2.3,1.3-4.5,2.7-6.6,4.2c-2.1,1.6-4,3.2-5.9,5c-3.8,3.6-7.3,7.4-10.5,11.6c-3.2,4.1-6,8.5-8.4,13.2
		s-4.4,9.5-5.8,14.6c1.1-5.1,2.8-10.1,5.1-14.9c2.3-4.8,5-9.3,8.2-13.5c3.1-4.2,6.7-8.2,10.5-11.8c1.9-1.8,3.9-3.6,6-5.2
		c2.1-1.6,4.4-3,6.7-4.3c4.6-2.6,9.4-4.8,13.8-7.6c2.2-1.3,4.3-2.9,6.2-4.6c1.9-1.8,3.7-3.6,5.4-5.6c3.4-3.9,6.7-8.1,9.8-12.2
		S762,155.7,765.1,151.5z"/>
	<path class="st73" d="M577.9,606.2c-1.2,0.5-3.1-0.6-5.1-2.7c-1.3-1.3-2.4-2.8-3.5-4.3c-3.8-5.6-6.6-12.9-2.8-15.6
		c0.9-0.6,1.8-1.4,2.6-2.2c1.5-1.4,2.9-2.9,4.1-4.6c4-1.1,8.2-0.9,11.6,1.7l0,0c0.4,0.3,0.7,0.5,1,0.7c0.4,2.2,0.7,4.5,0.9,6.8
		C587.9,601.4,581.5,604.6,577.9,606.2z"/>
	<path class="st74" d="M487.4,586.6c-0.5,2.6-3,4.8-11.1,3.1c-0.2,0-1.1,0-2.6-0.1c-1.9-0.1-3.8-0.4-5.7-0.8
		c-5-1.2-10.8-4.2-12.5-11.4c-2-8.3,3.4-14.2,7.6-17.4c0.5-0.4,1.2-0.3,1.6,0.2c0.3,0.4,0.3,0.8,0.1,1.2c-1.6,3.1-2.4,6.5-2.4,10
		c0,3.6,3.8,5.9,8.3,7.3c3.7,1,7.4,1.7,11.2,2l0.9,0.1c2.8,0.2,4.8,2.6,4.6,5.4C487.5,586.3,487.5,586.4,487.4,586.6z"/>
	<path class="st75" d="M583.2,605.3l2.4-1.1c13.6-6.4,15.5-9.3,17.1-11.1c0.3-0.4,0.1-1.7,0-2.7c0-0.2,0-0.3,0-0.5
		c0-0.1,0-0.3,0-0.4v-0.3c-0.2-3-1.8-7.2-3.3-7.8c-1.3-0.5-2.9,1.1-5.9,1l0,0c-1.3,0-2.5-0.3-3.7-0.8c-0.6-0.2-1.2-0.5-1.8-0.8
		c-0.7-0.4-1.4-0.8-2-1.2l-0.2-0.1l-0.3-0.2l-0.3-0.2l-0.3-0.2l-0.1-0.1c-3.4-2.6-7.6-2.8-11.6-1.7c-1.6,0.4-3.2,1.1-4.8,1.8
		c-5.1,2.5-9.3,6.3-10.8,8.5s-4.8,5.4-8.4,8.3c-1.7,1.3-3.4,2.6-5,3.6c-1.9,1.3-3.9,2.3-6.1,3c-4.7,0.9-1.1,3.5-29.6-22.3
		c-7.4-6.7-14.8-6-20.9-2.9c-2,1-3.9,2.2-5.6,3.7c-1.9,1.5-3.7,3.2-5.3,5.1c-1.1,1.2-2.1,2.5-2.9,3.8c-1.4,2.2-2.5,4.5-3.3,7
		c-3.8,11-9,27.2-12,36.6c-1.1,3.4-1.9,5.9-2.2,7c-0.1,0.4-0.2,0.8-0.2,1.2c-0.2,3.2-0.9,17.4-2.2,24.3c-1.4,7.8,3,8,3,8
		s10.9,3.5,11.8-1.8c0.3-2-2.3-4-4.2-5.1c-1.5-1-2.3-2.8-2.1-4.5c0.4-2.9,1.6-8.2,4.6-17.6c4.1-12.7,16-16.2,23.1-17.1
		c2.7-0.3,4.9,2.4,4.3,5.4l-3.9,18.8c-0.2,1.2,0,2.4,0.6,3.5c2.4,4,8.6,14.4,10.3,16.7c2.2,2.8,14,4.3,11-3
		c-1.3-3.3-10.1-6.3-12.9-13.7s10.9-20.5,11.2-20.7c0.8-0.5,1.7-0.8,2.6-0.9c5.5-0.3,14.3,6.7,22.9,15.2c9,9.2,17.4,18.8,25.2,29
		c4.8,6.5,15.7,3.9,14-1.3s-7.1-4.3-9.9-5.3s-8.6-11.4-12-15.7c-1.5-1.9-3.8-4-3.5-7.1c0-0.2,0.1-0.5,0.1-0.7
		c0.7-2.9,3.8-4.2,6.1-2.4c1.1,0.9,2.3,1.9,3.7,3c9.7,8,24.7,21.2,26.3,23c2.5,2.8,7.7,2.3,12.1,2.1s4.8-7.8,1.2-9.6
		c-2.1-0.9-4.4-1.1-6.6-0.5c-1.1,0.2-2.3-0.1-3.2-0.9c-4.2-3.7-15.7-14.2-19.5-19.8c-3.6-5.2-3.5-20.4,4.1-30.3
		C576.6,609.3,579.6,606.8,583.2,605.3z"/>
	<path class="st73" d="M585.9,579.4c-0.3-0.2-0.7-0.5-1-0.7l0,0c-3.4-2.6-7.6-2.8-11.6-1.7c1.3-1.6,2.3-3.2,3.2-4.6
		c1.2-1.9,3.7-2.4,5.5-1.2c0.5,0.3,0.9,0.7,1.2,1.2c1.4,2,2.3,4.2,2.6,6.6L585.9,579.4z"/>
	<path class="st74" d="M593.4,582.4l-0.4,0.1c-1.4,0.3-3,0.1-4.2-0.6c-16.6-10.6-2.4,3.5-4.5,6.7c-5.3,8.1-2.1,12.5,1.3,15.6
		l-2.4,1.1c-3.5,1.6-6.6,4-8.8,7.1c-2.3-0.1-4.5,0.1-6.8,0.3c-7.3,3-8.7,17.4-6.3,26.5c1.4,5.1,0.2,8-1.5,9.1
		c-1.3-1.1-2.6-2.1-3.7-3c-2.2-1.8-5.4-0.5-6.1,2.4c-2,0.8-4.1,1.3-6.2,1.6c-2.6,0.2-5.2,0.1-7.7-0.4c-8.6-8.5-17.4-15.5-22.9-15.2
		c-9-4.2-12.8-7.5-15-13.1c-3.1-7.5-22.3,10.5-30.6,16.5c-5.5,4-7.9-0.1-9.1-3.8c3-9.4,8.2-25.6,12-36.6c0.8-2.5,1.9-4.8,3.3-7
		c-1.9-0.1-3.8-0.4-5.7-0.8c0.9-3.5,1.9-6.8,2.7-10c3.7,1,7.4,1.7,11.2,2c1.7-1.4,3.6-2.6,5.6-3.7c6.2-3.1,13.5-3.8,20.9,2.9
		c28.5,25.8,25,23.2,29.6,22.3c2.2-0.7,4.3-1.7,6.1-3c1.6-1.1,3.3-2.3,5-3.6c-1.6-4-2-7.8,0.5-9.5c4.3-3,7.7-8,9.9-11.3
		c1.2-1.9,3.6-2.4,5.5-1.3c0.5,0.3,0.9,0.7,1.2,1.2c0.7,1,0.7,2,1.3,3.7c-1.4-0.9,2.9-2.3,4.6-2.8c4-1.1,9.2,0.4,12.6,3l0.1,0.1
		l0.3,0.2l0.3,0.2l0.3,0.2l0.2,0.1c0.6,0.5,1.3,0.9,2,1.2c0.6,0.3,1.2,0.6,1.8,0.8C591,582.1,592.2,582.4,593.4,582.4z"/>
	<path class="st8" d="M563.1,600c0,0,0.2,11.1,12.7,10.7l-4.3,6.2c0,0-14.8-8.2-12.3-14.2S563.1,600,563.1,600z"/>
	<path class="st73" d="M569.3,599.2c-1,4.3-4,7.8-8.1,9.4c-2.6,1.2-9.2-6.2-11.9-13c-1.6-4-2-7.8,0.5-9.5c4.3-3,7.7-8,9.9-11.3
		c1.2-1.9,3.6-2.4,5.5-1.3c0.5,0.3,0.9,0.7,1.2,1.2c0.9,1.2,1.5,2.6,2,4c0.3,0.8,0.5,1.7,0.6,2.5c0,0.1,0,0.2,0,0.2
		C570.6,589.7,570.4,595.3,569.3,599.2z"/>
	<path class="st76" d="M600.4,586.6c0,0-8.4-1.4-4.3-4.3S603.2,583.7,600.4,586.6z"/>
	
		<ellipse transform="matrix(0.7508 -0.6605 0.6605 0.7508 -242.0002 525.7118)" class="st76" cx="575.7" cy="583.6" rx="1.6" ry="2.5"/>
	<path class="st76" d="M600.4,587.8c0,0.1,0,0.2,0,0.3c-0.3,0.8-0.7,1.6-1.2,2.3c-2.2,2.7-7.5,2-7.5,2c7.6,2.5,8.6-2.2,8.8-4.2
		C600.6,588.1,600.4,587.9,600.4,587.8L600.4,587.8z"/>
	<path class="st76" d="M602.7,590.4c-1,0.1-1.9-0.3-2.5-1.1l0,0l-0.1-0.1H600c0-0.1,0.1-0.1,0.1-0.2l0,0l0.1-0.1h0.1l0.1,0.1l0,0
		c0.7,0.4,1.5,0.6,2.3,0.6c0,0.1,0,0.3,0,0.4C602.7,590.1,602.7,590.3,602.7,590.4z"/>
	<path class="st76" d="M551.9,613.9c-4.2,7.4-11.1-6.8-15.7-6.9s-24,6.4-24.5-6.2c-0.5-12.5-13.2-13.9-21.3-20.7
		c-1.1-0.9-2.1-2-2.9-3.1c6.2-3.1,13.5-3.8,20.9,2.9c28.5,25.8,25,23.2,29.6,22.3c2.2-0.7,4.3-1.7,6.1-3c2.6,2,5.1,4,7.5,5.9
		C552.9,608.1,553.4,611.3,551.9,613.9z"/>
	<path class="st77" d="M600.4,585.6c-0.1,1.2-0.1,2.4-0.1,3.7"/>
	<path class="st78" d="M572.2,622.7c-2.1-0.1-3.8-1.9-3.7-4s1.9-3.8,4-3.7s3.7,1.8,3.7,3.8c0.1,2-1.5,3.8-3.6,3.9
		C572.5,622.7,572.3,622.7,572.2,622.7z M572.2,620.2c0.5,0,1-0.4,1-1.3s-0.5-1.3-1-1.3s-1,0.4-1,1.3S571.6,620.2,572.2,620.2z"/>
	
		<ellipse transform="matrix(0.8464 -0.5326 0.5326 0.8464 -232.6109 499.7944)" class="st8" cx="750" cy="653.1" rx="9.1" ry="39.7"/>
	
		<ellipse transform="matrix(0.9827 -0.1852 0.1852 0.9827 -111.8566 133.8075)" class="st8" cx="660.3" cy="665.7" rx="39.7" ry="9.1"/>
	
		<linearGradient id="SVGID_29_" gradientUnits="userSpaceOnUse" x1="-1601.0583" y1="9844.5107" x2="-1546.6583" y2="9844.5107" gradientTransform="matrix(0.87 0.5 0.5 -0.87 -2924.3862 9948.3662)">
		<stop  offset="0.77" style="stop-color:#ED916B"/>
		<stop  offset="0.85" style="stop-color:#EE9570"/>
		<stop  offset="0.95" style="stop-color:#F09F7E"/>
		<stop  offset="1" style="stop-color:#F1A789"/>
	</linearGradient>
	<path class="st79" d="M669,597.1l-1.4-2.3l-9.2-14.7c-2.7,0.6-5.3,1.3-7.9,2.2c-5.6,1.9-11.1,4.2-16.4,6.9c0,0-5.8-3.1-19.2,0.1
		c-3.9,0.9-5.8,2.2-5.7,2.8c0.7,2.4,6.2,0.5,10.1,0.9c2.9,0.3,0.2,1.4,0.2,1.4S599.1,606,600.1,608s17.6-6.9,18.6-7.5
		c-1,0.7-18.7,12.4-17.9,13.8s4.1-0.2,4.5-0.4c-0.3,0.2-1.9,1.3-1.4,2.2c1.1,1.8,17.8-7.9,18.8-8.5c-0.8,0.6-13.4,7.8-12.5,8.9
		c1.5,1.9,21.4-10.5,24.4-13.6c1.8-1.9,10.7-5.5,18.7-4.9c5.3,0.4,10.5-0.8,13.3-0.9H669z"/>
	<line class="st80" x1="606.4" y1="613.5" x2="620.7" y2="604.3"/>
	<path class="st80" d="M620,599.2c0.1,0.4,2,6.2,5.2,9.2"/>
	<path class="st80" d="M621.2,593.9c0,0,3.9,4.4,8.5,3.5"/>
	
		<linearGradient id="SVGID_30_" gradientUnits="userSpaceOnUse" x1="739.6646" y1="1166.0455" x2="672.0346" y2="1110.6455" gradientTransform="matrix(1 0 0 1 0 -549.9771)">
		<stop  offset="0" style="stop-color:#007F5E"/>
		<stop  offset="0.36" style="stop-color:#008D69"/>
		<stop  offset="1" style="stop-color:#00AF85"/>
	</linearGradient>
	<path class="st81" d="M715.9,528.6c0,0-19.2,31.9-38.7,42.7c-18.8,10.4-31,10.4-42.2,14.1c-1.8,0.6,6,18.4,6.7,18.4
		s51.4-11.3,63.4-19.9c11.8-8.5,23.3-27.9,23.3-27.9L715.9,528.6z"/>
	
		<linearGradient id="SVGID_31_" gradientUnits="userSpaceOnUse" x1="733.9357" y1="1051.4208" x2="746.8857" y2="1078.6908" gradientTransform="matrix(1 0 0 1 0 -549.9771)">
		<stop  offset="0.7" style="stop-color:#ED916B"/>
		<stop  offset="0.81" style="stop-color:#EE9570"/>
		<stop  offset="0.93" style="stop-color:#F09F7E"/>
		<stop  offset="1" style="stop-color:#F1A789"/>
	</linearGradient>
	<path class="st82" d="M754.8,513.1c0,0-29.6,22.3-25.2,15.8c1.7-2.6,1.3-6.6,0.2-10.5c-1.3-4-3-7.9-5.2-11.6c0,0,1.4-1.5,3.5-3.4
		c5.8-5.3,17.1-31.4,17.3-12.2C745.4,508.4,754.8,513.1,754.8,513.1z"/>
	<path class="st83" d="M743.3,501.7c0,0,1.9,24.7-14.4,17c-1.3-4-3-7.9-5-11.7c0,0,1-1.3,2.5-3.1L743.3,501.7z"/>
	<path class="st84" d="M800.4,551.5l-75.5,27.8c0,0-12.5-35.3-8.9-41.9c2.1-3.9,3.2-5.3,7.9-10.2c1.1-1.1,2.1-2.3,3-3.5
		c1.2-1.4,2.1-3,2.9-4.7c0,0,8.4,13.4,21.4-8.6c0,0,3.5-0.1,4.7,0c11.7,0.8,21.3,1.8,26.3,5.3c1.6,1.2,3.1,2.4,4.5,3.8
		c5.6,5.5,9.5,13.8,12.6,21.4L800.4,551.5z"/>
	<path class="st3" d="M799.5,547.5l-80.2,39.8c0,0-7.7-46.8-3.8-53.3c12.5-21.2,25.8,2.8,25.8,2.8s12.5-22.5,12.1-26.4
		c0-0.2,0.1-0.5,0.4-0.5h0.1c4.6,0.3,22.3,1.4,26.8,4.4c1.9,1.3,3.1,5.1,5.2,7.3c4.8,5,8.5,11,10.8,17.6L799.5,547.5z"/>
	<path class="st3" d="M783.7,534.1c28.3,55.9-1.6,91.3-1.6,91.3s-81.2,8.1-71.6-9.9c13-24.3,5.3-54.3,5.3-54.3
		S775.8,518.5,783.7,534.1z"/>
	<path class="st85" d="M755.7,509.6c0,4.8-13,25-13.2,29c-0.2,3.8,5.6,26.1,3.8,32.7"/>
	
		<linearGradient id="SVGID_32_" gradientUnits="userSpaceOnUse" x1="763.317" y1="1166.2208" x2="772.1169" y2="1195.4308" gradientTransform="matrix(0.9995 -3.018961e-02 3.018961e-02 0.9995 -59.8051 -536.1343)">
		<stop  offset="0" style="stop-color:#47ACD6"/>
		<stop  offset="1" style="stop-color:#9DCDD6"/>
	</linearGradient>
	<path class="st86" d="M774.9,621l-7.3,6.2c-11.2,1.8-25.9,2.7-36.7,3c-7.3-3.5-14.3-7.8-20.6-12.8c-0.1-1.4,0.1-2.8,0.6-4.1
		c0,0,23.7-4.8,44.7-4C768.4,615.5,774.9,621,774.9,621z"/>
	<path class="st85" d="M756.3,514.2c0,0,3.5-0.8,4.6,0"/>
	<path class="st87" d="M722.9,507.2c0,0-24.2,11.1-16.4,27.1s18.9,23,16.8,45.3"/>
	
		<linearGradient id="SVGID_33_" gradientUnits="userSpaceOnUse" x1="768.147" y1="906.1621" x2="769.2068" y2="969.3521" gradientTransform="matrix(0.9985 -5.442736e-02 5.442736e-02 0.9985 -96.8587 -364.3566)">
		<stop  offset="0" style="stop-color:#5C352C"/>
		<stop  offset="0.6" style="stop-color:#724237"/>
		<stop  offset="1" style="stop-color:#7B473B"/>
	</linearGradient>
	<path class="st88" d="M723.7,506.2c0,0-23.5,11-16,27s18.3,22.9,16.5,44.7c0,0.1,0.1,0.3,0.2,0.3c0.1,0,0.1,0,0.2-0.1
		c7.2-5.1,18.1-29,11.3-42c-6.9-13.3-6.3-19.4-6.3-19.4L723.7,506.2z"/>
	<path class="st87" d="M726.9,573.9c1.3-19.8-9-27.1-15.9-42.6c-5.5-12.3,7.3-21.3,13.7-24.9c2-1.1,3.5-1.7,3.5-1.7"/>
	<path class="st87" d="M730.8,568c-1-15.3-9.8-22.6-15.9-36.3c-4.8-10.7,4.3-18.9,11-23.2c2-1.3,4.1-2.4,6.2-3.4"/>
	<path class="st85" d="M754.6,518.1c0,0,3.5-0.8,4.6,0"/>
	<path class="st85" d="M752.4,522.2c0,0,3.5-0.8,4.6,0"/>
	<path class="st85" d="M751.3,526.1c0,0,3.4-0.8,4.6,0"/>
	<path class="st85" d="M748.4,530.2c0,0,3.4-0.8,4.6,0"/>
	<path class="st85" d="M746.4,535.7c0,0,3.5-0.8,4.6,0"/>
	<path class="st85" d="M745.4,539.9c0,0,3.5-0.8,4.6,0"/>
	<path class="st85" d="M745.8,544.7c0,0,3.5-0.8,4.6,0"/>
	<path class="st85" d="M746.9,549.7c0,0,3.5-0.8,4.6,0"/>
	<path class="st85" d="M747.4,554.3c0,0,3.5-0.8,4.6,0"/>
	<path class="st85" d="M747.9,558.4c0,0,3.5-0.8,4.6,0"/>
	<path class="st85" d="M749,563.4c0,0,3.4-0.8,4.6,0"/>
	<path class="st85" d="M749.5,568c0,0,3.5-0.8,4.6,0"/>
	<path class="st3" d="M804.6,592c-3.2,2-9.7,1.6-15.5,0.3c-6.3-1.4-13-4.6-18.2-6.7c-4.6-1.8-7.9-3.3-8.4-3.1l-1.1-20.5l23.4,1.8
		l-12.7-49.6c0,0,7.7-6,18.4,7.2c2.7,3.4,5.6,9.2,8.2,16.1c0.5,1.4,1,2.8,1.5,4.3v0.1c1.5,4.6,2.9,9.6,4.1,14.5
		c0.7,3.2,1.4,6.3,1.9,9.4l0,0C808.2,578,808.8,589.4,804.6,592z"/>
	<path class="st30" d="M768,584.7c1.1,0.4,2.1,0.9,3.1,1.6C769.1,585.4,768,584.7,768,584.7z"/>
	<path class="st30" d="M804,592.4c-3.4,1.8-9.6,1.3-15.4,0c8.8-2.4,17.5-10,17.5-26.7C808.2,578,809.2,589.7,804,592.4z"/>
	<path class="st85" d="M774.9,575.1c0,0,20.1-4.6,28.5-1.3"/>
	<path class="st85" d="M782.4,564.7c0,0-8.9-22.9-6.9-30.7"/>
	<path class="st85" d="M773.4,543.3c-1.3-0.3-4.6-5-5.4-9"/>
	
		<linearGradient id="SVGID_34_" gradientUnits="userSpaceOnUse" x1="2775.7788" y1="431.9804" x2="2835.7588" y2="480.5404" gradientTransform="matrix(0.9335 -0.3587 0.3587 0.9335 -2052.9597 1172.6807)">
		<stop  offset="4.000000e-02" style="stop-color:#D8D9D9"/>
		<stop  offset="0.32" style="stop-color:#D5D7D7"/>
		<stop  offset="0.51" style="stop-color:#CCCFD0"/>
		<stop  offset="0.67" style="stop-color:#BDC1C5"/>
		<stop  offset="0.81" style="stop-color:#A8AEB5"/>
		<stop  offset="0.94" style="stop-color:#8D96A1"/>
		<stop  offset="1" style="stop-color:#7E8996"/>
	</linearGradient>
	<path class="st89" d="M760.7,601.2l-56.4,11c-2.3,0.8-4.7,0.6-5.6-0.6l-14-20.6c-1.2-1.5,0.3-3.8,3.2-4.9l65.6-14.6
		c2.8-1,5.7-0.4,6,1.4l4.7,24.3C764.6,598.6,763,600.3,760.7,601.2z"/>
	<path class="st68" d="M725.3,596.9c-2.1,0.5-5-0.2-5.7-2.4s1.9-4,4.9-4.6s5.9,0.1,5.7,2.4C730,594.8,727.5,596.5,725.3,596.9z
		 M725,594.9c0.9-0.1,1.6-0.9,1.6-1.8c-0.1-1-1-1.2-1.9-1.1c-0.9,0.1-1.6,0.9-1.5,1.8c0.1,0.8,0.8,1.3,1.6,1.1
		C724.9,594.9,725,594.9,725,594.9z"/>
	
		<linearGradient id="SVGID_35_" gradientUnits="userSpaceOnUse" x1="-212.7315" y1="2779.9106" x2="-191.9622" y2="2779.9106" gradientTransform="matrix(0.8575 0.5144 -0.5144 0.8575 2368.0015 -1706.8312)">
		<stop  offset="0.77" style="stop-color:#ED916B"/>
		<stop  offset="0.85" style="stop-color:#EE9570"/>
		<stop  offset="0.95" style="stop-color:#F09F7E"/>
		<stop  offset="1" style="stop-color:#F1A789"/>
	</linearGradient>
	<path class="st90" d="M774,577.4c-0.1-0.2-0.2-0.4-0.3-0.6l0,0c0-0.1-0.1-0.2-0.2-0.3c-0.2-0.3-0.4-0.6-0.6-1
		c-0.1-0.2-0.2-0.3-0.4-0.4c-1.1-1.5-2.8-2.5-4.6-2.9c-2.4-0.3-3.3-0.9-6.2-1.8s-5.5-3.3-6-2.8c-0.4,0.3,0.7,2.3,1.5,3.5
		c0.6,0.7,1.2,1.2,1.9,1.7C759.6,573.3,774.3,578.2,774,577.4z"/>
	
		<linearGradient id="SVGID_36_" gradientUnits="userSpaceOnUse" x1="90.6411" y1="2100.4507" x2="121.2193" y2="2100.4507" gradientTransform="matrix(0.94 0.3412 -0.3412 0.94 1377.1051 -1427.6746)">
		<stop  offset="0.77" style="stop-color:#ED916B"/>
		<stop  offset="0.85" style="stop-color:#EE9570"/>
		<stop  offset="0.95" style="stop-color:#F09F7E"/>
		<stop  offset="1" style="stop-color:#F1A789"/>
	</linearGradient>
	<path class="st91" d="M774.5,586.2c0-2.5-0.1-5.1-0.4-7.6l0,0c-0.3-2.4-2.3-4.3-4.8-4.3c-4.5-0.1-11.8-0.2-11.5-0.1
		c-3.8,0.2-8.8,2-10.1,3.3c-0.7,0.6-1,1.5-1,2.4c-0.4,0.2-0.8,0.3-1.1,0.5h-0.1h0.1c-0.8,0.5-1.7,1.2-1.7,2c0,0.6,0.1,1.2,0.5,1.6
		c0.3,0.5,0.7,0.9,1.2,1.1c-0.5,0.6-0.5,1.5-0.1,2.2c0.1,0.2,0.2,0.4,0.4,0.5c1,1,3.2,1.4,4,1.5c-0.2,0.5-0.1,1,0.2,1.4
		c0.4,0.7,1,1.2,1.8,1.5c2.1,1,8.6,1.7,12.7,3.9c2.1,1.3,4.8,0.8,6.4-1.1C771.9,594.1,774.4,588.6,774.5,586.2z"/>
	<path class="st92" d="M747.7,580.1c0,0,10.1-3,18.6-0.8"/>
	<path class="st92" d="M746.1,584.6c0,0,10.1-3,18.6-0.8"/>
	<path class="st92" d="M753.4,587.9c0,0,5.9-0.7,14.2,2.3"/>
	<path class="st85" d="M774.6,591.2c0,0,18,3.3,26.3,2"/>
	<path class="st93" d="M710.2,500.6c0,0-22.2-36.4,7.2-42.7c22.5-4,28.3,5.5,29.8,28.6S710.2,500.6,710.2,500.6z"/>
	
		<linearGradient id="SVGID_37_" gradientUnits="userSpaceOnUse" x1="1897.8893" y1="132.2239" x2="1896.4109" y2="194.5782" gradientTransform="matrix(0.95 -0.22 0.21 0.93 -1111.0292 754.5035)">
		<stop  offset="0.77" style="stop-color:#ED916B"/>
		<stop  offset="0.85" style="stop-color:#EE9570"/>
		<stop  offset="0.95" style="stop-color:#F09F7E"/>
		<stop  offset="1" style="stop-color:#F1A789"/>
	</linearGradient>
	<path class="st94" d="M744.4,491c0.1,0.5,2.7-0.5,1,0.4c-0.9,0.5-1.9-1.8-2-0.8c-0.2,2.5,2.4,8.4,1.5,11.5
		c-1.7,5.8-6.7,13.3-11.6,14.6c-5.2,1.4-10.3-1.5-12.4-2.9c-5.4-3.5-8.3-7.2-14.9-21.5c-5.9-12.7-1.6-30,11.3-33
		c5.8-1.3,11.9-0.1,16.6,3.5l0.1,0.1c4.4,3.3,7.7,7.8,9.7,12.9C745.8,481.1,743.8,486.6,744.4,491z"/>
	<path class="st83" d="M739.4,483.5c0.1,0.5,0.3,1.4,0,1.2c-23.7-8.4-21.4-8-26.9-11.3c4.8,4.3,13.3,6.9,13.5,6.9
		c0.1,0,0.2,0.2,0.1,0.3c0,0.1-0.1,0.1-0.1,0.1h-0.1c-0.5-0.2-10.7-3.2-15-8.5c-0.7-0.4-1.2-1-1.6-1.7c-0.1-0.3-0.1-0.7,0-1l0,0
		c0-0.1,0-0.2,0.1-0.3l0,0c0.2-0.6,0.6-1.1,1-1.5c5.2-1.7,11-1.5,16,0.8l0.2,0.1c5.1,2.5,9.5,6.5,12.4,11.4
		C742.2,485.1,738,479,739.4,483.5z"/>
	<path class="st93" d="M713.9,475.6c0.5,4.3-6.1,22.9-6.1,22.9s-1.9-3.6-1.9-3.5C693.6,460.4,712.9,466.8,713.9,475.6z"/>
	<path class="st93" d="M735.8,482.6l-1.4-0.4c-5.5-1.8-25.7-8.4-26.8-11.7c-1.2-3.7,22.2-16,32.5,9.5
		C739.3,481.6,737.6,482.6,735.8,482.6z"/>
	<path class="st95" d="M727.5,480.3c0,0-14.5-2.8-17-9.2"/>
	<ellipse transform="matrix(0.8879 -0.46 0.46 0.8879 -149.0062 383.5222)" class="st28" cx="712.5" cy="497.5" rx="1.6" ry="2.3"/>
	<ellipse transform="matrix(0.8879 -0.46 0.46 0.8879 -144.886 390.2659)" class="st28" cx="728.4" cy="492.4" rx="1.6" ry="2.3"/>
	<path class="st93" d="M724.5,488.7c0,0-1.3,0.4-1.5-0.8s1.4-1.7,2.3-1.9s6.1-2,8.4,0.1c0.1,0.1,0.1,0.2,0,0.3l-0.1,0.1
		C730.5,486.9,727.5,487.7,724.5,488.7z"/>
	<path class="st93" d="M712.8,492.7c0.5-0.2,0.8-0.7,0.7-1.2c0-0.1-0.1-0.2-0.2-0.4c-0.6-1.2-2-0.8-2.7-0.5s-5.4,1.7-5.7,4.9
		c0,0.2,0.2,0.3,0.3,0.2C707.5,494.2,712.8,492.7,712.8,492.7z"/>
	<path class="st92" d="M725.6,498.7c0,0,3,2.2-2,3.9l0,0c-4.3,1.5-3.3-2.1-3.3-2.1"/>
	
		<radialGradient id="SVGID_38_" cx="1945.1067" cy="425.8313" r="7.28" gradientTransform="matrix(0.9744 -0.2246 0.2246 0.9744 -1244.0712 516.7552)" gradientUnits="userSpaceOnUse">
		<stop  offset="0" style="stop-color:#D1675D;stop-opacity:0.3"/>
		<stop  offset="0.37" style="stop-color:#C65D55;stop-opacity:0.16"/>
		<stop  offset="0.76" style="stop-color:#BD544E;stop-opacity:4.000000e-02"/>
		<stop  offset="1" style="stop-color:#BA514C;stop-opacity:0"/>
	</radialGradient>
	<circle class="st96" cx="736.9" cy="498.1" r="6.6"/>
	
		<radialGradient id="SVGID_39_" cx="1921.9866" cy="425.5713" r="7.28" gradientTransform="matrix(0.9744 -0.2246 0.2246 0.9744 -1244.0712 516.7552)" gradientUnits="userSpaceOnUse">
		<stop  offset="0" style="stop-color:#D1675D;stop-opacity:0.3"/>
		<stop  offset="0.37" style="stop-color:#C65D55;stop-opacity:0.16"/>
		<stop  offset="0.76" style="stop-color:#BD544E;stop-opacity:4.000000e-02"/>
		<stop  offset="1" style="stop-color:#BA514C;stop-opacity:0"/>
	</radialGradient>
	<circle class="st97" cx="714.3" cy="503" r="6.6"/>
	<path class="st85" d="M719.9,561.8c-1.2-0.5-3.8-5.5-4-9.7"/>
	
		<radialGradient id="SVGID_40_" cx="2416.2104" cy="613.4634" r="6.65" gradientTransform="matrix(0.87 -0.29 0.33 0.99 -1573.2881 603.9801)" gradientUnits="userSpaceOnUse">
		<stop  offset="0" style="stop-color:#D1675D"/>
		<stop  offset="0.65" style="stop-color:#C35A53"/>
		<stop  offset="1" style="stop-color:#BA514C"/>
	</radialGradient>
	<path class="st98" d="M734,503.4L734,503.4c-1.1,8.3-7.5,11-14.8,5.3l-0.3-0.3C723.3,505.4,728.6,503.6,734,503.4z"/>
	<path class="st99" d="M734.1,503.7L734.1,503.7c-2,1.8-4.4,3-7,3.7c-2.4,0.7-5,0.9-7.5,0.5C723.9,505.1,729,503.6,734.1,503.7z"/>
	<path class="st100" d="M717.9,508c6,0.4,11.9-1.6,16.4-5.5C732.1,507,728,512.9,717.9,508z"/>
	<path class="st85" d="M718.8,571.4c0,0-1.1-3.5-0.9-11.5"/>
	<path class="st93" d="M748.4,483.3c0.3,2.5,0.1,5.1-0.5,7.5l-2.8,7.3l-0.8-3.2l-0.2-4.7c-0.9-2.2-2.5-4.1-4.6-5.3
		c-0.7-0.4-1.4-0.8-2.1-1.1c-3.3-1.5-33-15.3-32.8-16.2c1.1-6.7,12-8.5,12.9-8.8C742.9,451.6,747.8,477.7,748.4,483.3z"/>
	<path class="st101" d="M713.6,459.4c0,0-2.6,7.4-1.7,10.2"/>
	
		<linearGradient id="SVGID_41_" gradientUnits="userSpaceOnUse" x1="486.2141" y1="1169.1656" x2="486.8441" y2="1161.4456" gradientTransform="matrix(0.9989 4.623474e-02 -4.623474e-02 0.9989 311.0992 -701.7864)">
		<stop  offset="0.77" style="stop-color:#ED916B"/>
		<stop  offset="0.85" style="stop-color:#EE9570"/>
		<stop  offset="0.95" style="stop-color:#F09F7E"/>
		<stop  offset="1" style="stop-color:#F1A789"/>
	</linearGradient>
	<path class="st102" d="M744.3,495l-0.9-3.3c-0.8-2.3-2.3-4.3-4.4-5.6c0.2-0.7,0.8-3.1,2.7-4.2C743.9,480.7,749.7,490.2,744.3,495z"
		/>
	<path class="st103" d="M742.3,485.5c0,0,2.9,1.8,2.4,4.8"/>
	<path class="st103" d="M744.1,487.3c-0.5,0.4-0.9,1-1,1.6"/>
	<path class="st93" d="M702.3,481.8c0,0,3,22.4-1.6,27.2c-0.1,0.1,0,0.3,0.1,0.2c5.2-3,8.4-14.7,11.2-24.1
		C715,475.1,702.3,481.8,702.3,481.8z"/>
	
		<linearGradient id="SVGID_42_" gradientUnits="userSpaceOnUse" x1="750.1056" y1="1169.5688" x2="758.0656" y2="1196.019" gradientTransform="matrix(0.9998 2.216387e-02 -2.216387e-02 0.9998 44.1302 -559.5585)">
		<stop  offset="0" style="stop-color:#47ACD6"/>
		<stop  offset="1" style="stop-color:#9DCDD6"/>
	</linearGradient>
	<path class="st104" d="M808.3,613.3c0,0,4.1,24.4-41.9,40.5c-33.6,11.8-34.6-0.8-34.6-0.8L808.3,613.3z"/>
	
		<linearGradient id="SVGID_43_" gradientUnits="userSpaceOnUse" x1="709.2781" y1="1151.4915" x2="726.9381" y2="1210.2014" gradientTransform="matrix(0.9995 -3.018961e-02 3.018961e-02 0.9995 -59.8051 -536.1343)">
		<stop  offset="0" style="stop-color:#47ACD6"/>
		<stop  offset="1" style="stop-color:#9DCDD6"/>
	</linearGradient>
	<path class="st105" d="M730,629.7l-19,15.9c0,0-55.1-15.6-58.5-46.4c25.2,2.4,44.6,9.1,58,15.4l18.8,14.6L730,629.7z"/>
	<path class="st106" d="M729.3,629.2L711,645.6c0,0-55.1-15.6-58.5-46.4c25.2,2.4,44.6,9.1,58,15.4L729.3,629.2z"/>
	<path class="st107" d="M774.9,621l-7.3,6.2c-11.2,1.8-25.9,2.7-36.7,3c-0.3-0.2-2.6-1.8-2.9-2l-17.5-13.6c0.1-0.5,0.2-0.9,0.4-1.3
		c0,0,23.7-4.8,44.7-4C768.4,615.5,774.9,621,774.9,621z"/>
	<path class="st108" d="M745.6,660.7c0,0,10.3,3.3,12.4,7.9s4.3,15.2,10.4,16.9c3.1,0.8,11.4-1.1,15.8-8.7
		c5.3-9.4-11.3-22.2-11.3-22.2l-21.5-9.7L745.6,660.7z"/>
	<path class="st109" d="M766.7,681.9c0,0,16.4,1.3,13.3-11.8c-1.3-5.2-4-10-7.8-13.9"/>
	<path class="st109" d="M763.9,678.3c0-0.1,1.6-8.8,10.6-10.2"/>
	<path class="st109" d="M756,653.1c0,0,7,1.2,8.2,4.7s1.6,7.3,4.6,7.2l3-0.1"/>
	<path class="st109" d="M753.8,659.1c0,0,9.7,2.7,8.8,12.4"/>
	<path class="st110" d="M760.6,667.8c0,0,1.2-5,6-6"/>
	<path class="st110" d="M758.7,663.8c0,0,0.6-5.8,6-7.1"/>
	<path class="st110" d="M756.1,661.5c0,0,0.8-6.1,5-7.9"/>
	<path class="st111" d="M753,656.5c0,0,0.4,10,3.2,10.1S755.4,657.7,753,656.5z"/>
	<path class="st111" d="M753.4,655.5c0,0,7,5.1,10.2,4.3S757.5,655.3,753.4,655.5z"/>
	
		<linearGradient id="SVGID_44_" gradientUnits="userSpaceOnUse" x1="735.7474" y1="1162.6749" x2="762.0674" y2="1250.115" gradientTransform="matrix(0.9978 -6.557729e-02 6.557729e-02 0.9978 -129.0214 -519.0613)">
		<stop  offset="0" style="stop-color:#47ACD6"/>
		<stop  offset="1" style="stop-color:#9DCDD6"/>
	</linearGradient>
	<path class="st112" d="M705.9,617.8c-10.1-5.1-44.2-21.4-56.3-19.4s-21.3,11.6-16.4,23.1s51.2,22.6,64,26.6
		c13.4,4.2,51.7,12.1,51.7,12.1l10.4-16.5L705.9,617.8z"/>
	
		<linearGradient id="SVGID_45_" gradientUnits="userSpaceOnUse" x1="-11.2274" y1="1284.3328" x2="8.7626" y2="1284.3328" gradientTransform="matrix(0.6 0.8 -0.8 0.6 1782.7888 -114.4376)">
		<stop  offset="0" style="stop-color:#47ACD6"/>
		<stop  offset="1" style="stop-color:#9DCDD6"/>
	</linearGradient>
	<path class="st113" d="M742.7,660.5l7.4,2.8c0,0,11.5-18.9,10.3-21.4s-6.8-6.1-6.8-6.1S743.6,657.1,742.7,660.5z"/>
	<path class="st108" d="M672.2,643.2c-2.4,1.2-18.1,8.1-29.6,6.9s-20.8,3-22.2,8.5s4.5,16.9,12.9,15.4s20.9-12.6,32.9-10.7
		C673.6,664.6,672.2,643.2,672.2,643.2z"/>
	<path class="st114" d="M631.2,654.8c0,0,6,2.3,5.3,13.5"/>
	<path class="st114" d="M643.3,664.6c0,0-0.8-4.4,1.2-5.2s13.8,1.6,18-0.5"/>
	<path class="st114" d="M638.4,652.5c0,0,2.1,3.9,4.5,3.5s9.5-6.2,15.7-5.1"/>
	<path class="st115" d="M643.3,651.5c0,0,5.1,4.4,3.6,10"/>
	<path class="st115" d="M649.1,652.2c0,0,6.4,4.3,4.9,10.7"/>
	<path class="st115" d="M653.2,651c0,0,6.6,4.7,6.4,10.1"/>
	<path class="st116" d="M660.7,651.1c0,0-11.8-6-13.5-3.3S657.9,652.8,660.7,651.1z"/>
	<path class="st116" d="M661.7,652.2c0,0-9.8,3.8-10.7,7.5S659.5,656.4,661.7,652.2z"/>
	<path class="st114" d="M623.8,659.4c-0.1-0.2,1.5,12.2,12.1,12.1"/>
	
		<linearGradient id="SVGID_46_" gradientUnits="userSpaceOnUse" x1="692.5103" y1="1187.3986" x2="680.2302" y2="1152.1185" gradientTransform="matrix(1.14 3.000000e-02 -2.000000e-02 0.97 -19.552 -505.3685)">
		<stop  offset="0" style="stop-color:#47ACD6"/>
		<stop  offset="1" style="stop-color:#9DCDD6"/>
	</linearGradient>
	<path class="st117" d="M654.9,646.8c0,0,120.4-45.8,125.5-46.3c11.9-1.2,20.6,0.5,26.4,8.1s-9.4,21.9-9.4,21.9S780,641,666.8,665
		C660.8,649.7,654.9,646.8,654.9,646.8z"/>
	
		<linearGradient id="SVGID_47_" gradientUnits="userSpaceOnUse" x1="654.9359" y1="1203.0929" x2="676.2959" y2="1203.0929" gradientTransform="matrix(1 0 0 1 0 -549.9771)">
		<stop  offset="0" style="stop-color:#47ACD6"/>
		<stop  offset="1" style="stop-color:#9DCDD6"/>
	</linearGradient>
	<path class="st118" d="M668.3,665.8l8-1c0,0-9.7-23.8-12.4-24.3s-9,1.9-9,1.9S666.1,663,668.3,665.8z"/>
	<path class="st119" d="M676.4,637.6c0,0,31.3-13.3,38.3-14.7"/>
	<path class="st119" d="M727.3,650.1c0,0,71.7-13.7,75.1-27.9"/>
	<path class="st85" d="M754.6,608.6c0,0-18.1,0.2-34.2,4.4"/>
	<line class="st119" x1="713.9" y1="621.3" x2="684.6" y2="607.6"/>
	
		<linearGradient id="SVGID_48_" gradientUnits="userSpaceOnUse" x1="-5.0001" y1="869.4012" x2="44.1799" y2="869.4012" gradientTransform="matrix(1.03 0 0 0.99 13.8289 -525.5573)">
		<stop  offset="4.000000e-02" style="stop-color:#D8D9D9"/>
		<stop  offset="0.32" style="stop-color:#D5D7D7"/>
		<stop  offset="0.51" style="stop-color:#CCCFD0"/>
		<stop  offset="0.67" style="stop-color:#BDC1C5"/>
		<stop  offset="0.81" style="stop-color:#A8AEB5"/>
		<stop  offset="0.94" style="stop-color:#8D96A1"/>
		<stop  offset="1" style="stop-color:#7E8996"/>
	</linearGradient>
	<path class="st120" d="M50.4,359.5l-7.9-49.2c-0.4-2.3-2.4-3.9-4.7-4l-34.3,0.1c-1.9,0-3.5,1.5-3.5,3.4c0,0.2,0,0.5,0.1,0.7l7,49.5
		c0.4,2.3,2.4,4,4.7,4l35.1-0.4c1.9,0.1,3.5-1.4,3.5-3.3C50.5,360,50.5,359.8,50.4,359.5z"/>
	<polygon class="st121" points="45.5,359.5 37.7,310.3 4.9,310.4 12.1,359.9 	"/>
	<polygon class="st122" points="45.5,359.5 37.7,310.3 4.9,310.4 12.1,359.9 	"/>
	<path class="st123" d="M12,331.3l-0.3-1.5h2.7l1.5,7.1h-1.7l-1.2-5.5h-1V331.3z"/>
	<path class="st123" d="M16.3,330.6c0.3-0.7,1.1-1.1,1.9-1c0.9,0,1.7,0.3,2.3,1c0.6,0.8,1,1.7,1.2,2.6c0.3,0.9,0.2,1.8-0.1,2.6
		c-0.3,0.7-1.1,1.1-1.9,1c-0.9,0-1.7-0.3-2.3-1c-0.6-0.8-1-1.7-1.2-2.6C16,332.3,16,331.4,16.3,330.6z M19.5,331.7
		c-0.2-0.3-0.6-0.6-1-0.5c-0.5,0-0.7,0.2-0.8,0.5c0,0.5,0,1,0.1,1.5c0.1,0.4,0.2,0.7,0.3,1.1c0.1,0.3,0.3,0.5,0.5,0.7
		s0.5,0.3,0.8,0.3c0.2,0,0.5-0.1,0.6-0.3c0.1-0.2,0.2-0.5,0.2-0.7c0-0.4-0.1-0.7-0.2-1.1C19.9,332.7,19.8,332.2,19.5,331.7
		L19.5,331.7z"/>
	<path class="st123" d="M22.6,330.6c0.3-0.7,1.1-1.1,1.8-1c0.9,0,1.7,0.3,2.3,1c0.6,0.8,1.1,1.7,1.2,2.6c0.3,0.9,0.3,1.8,0,2.6
		c-0.3,0.7-1.1,1.1-1.9,1c-0.9,0-1.7-0.3-2.3-1c-0.6-0.8-1.1-1.7-1.2-2.6C22.3,332.4,22.3,331.4,22.6,330.6z M25.8,331.7
		c-0.2-0.3-0.6-0.5-1-0.5s-0.7,0.2-0.8,0.5c0,0.5,0,1,0.1,1.5c0.1,0.4,0.2,0.7,0.3,1.1c0.1,0.3,0.3,0.5,0.5,0.7s0.5,0.3,0.8,0.3
		c0.2,0,0.5-0.1,0.6-0.3c0.1-0.2,0.2-0.5,0.2-0.7c0-0.4-0.1-0.7-0.2-1.1C26.2,332.7,26.1,332.2,25.8,331.7L25.8,331.7z"/>
	<path class="st123" d="M28.5,330.3c0.3-0.3,0.7-0.5,1.1-0.4c0.5,0,0.9,0.1,1.2,0.4c0.4,0.3,0.6,0.7,0.7,1.2
		c0.1,0.4,0.1,0.9-0.2,1.2c-0.3,0.3-0.7,0.5-1.1,0.4c-0.5,0-0.9-0.1-1.3-0.4s-0.6-0.7-0.7-1.2C28.2,331.1,28.3,330.7,28.5,330.3z
		 M29.5,331.5c0.1,0.4,0.3,0.7,0.6,0.7c0.1,0,0.2-0.1,0.3-0.2c0.1-0.2,0.1-0.3,0-0.5c-0.1-0.5-0.3-0.7-0.6-0.7
		S29.4,331.1,29.5,331.5L29.5,331.5z M34.6,330l-2.1,6.8h-1.6L33,330H34.6z M34,334.1c0.3-0.3,0.7-0.5,1.1-0.4
		c0.5,0,0.9,0.1,1.3,0.4c0.4,0.3,0.6,0.7,0.7,1.2c0.1,0.4,0.1,0.9-0.2,1.2c-0.3,0.3-0.7,0.5-1.1,0.4c-0.5,0-0.9-0.1-1.3-0.4
		c-0.4-0.3-0.6-0.7-0.7-1.2C33.7,334.9,33.7,334.4,34,334.1L34,334.1z M35,334.8c-0.1,0.2-0.1,0.3,0,0.5c0.1,0.4,0.3,0.7,0.6,0.7
		c0.1,0,0.2-0.1,0.3-0.2c0.1-0.2,0.1-0.3,0-0.5c0-0.2-0.1-0.4-0.2-0.5c-0.1-0.1-0.2-0.2-0.4-0.2C35.2,334.6,35,334.7,35,334.8
		L35,334.8z"/>
	<line class="st124" x1="9.2" y1="323.7" x2="33.9" y2="324.3"/>
	<line class="st124" x1="11.8" y1="342.1" x2="37.5" y2="341.7"/>
	<circle class="st125" cx="33.5" cy="314.4" r="0.7"/>
	<circle class="st125" cx="30.7" cy="314.4" r="0.7"/>
	<circle class="st125" cx="9.6" cy="314.7" r="0.7"/>
	<path class="st125" d="M22.4,354.3l0.3,1.4c0,0.1,0.1,0.2,0.2,0.2h7.8c0.1,0,0.2-0.1,0.2-0.2l0,0l-0.3-1.4c0-0.1-0.1-0.2-0.2-0.2
		h-7.7C22.5,354,22.4,354.1,22.4,354.3C22.4,354.2,22.4,354.3,22.4,354.3z"/>
	
		<linearGradient id="SVGID_49_" gradientUnits="userSpaceOnUse" x1="208.2333" y1="826.925" x2="224.0391" y2="826.925" gradientTransform="matrix(-4.000000e-02 1 1 4.000000e-02 -771.8138 104.742)">
		<stop  offset="0.62" style="stop-color:#B16F52"/>
		<stop  offset="0.73" style="stop-color:#B47255"/>
		<stop  offset="0.82" style="stop-color:#BF7B5E"/>
		<stop  offset="0.9" style="stop-color:#D08A6D"/>
		<stop  offset="0.98" style="stop-color:#E9A082"/>
		<stop  offset="1" style="stop-color:#F1A789"/>
	</linearGradient>
	<path class="st126" d="M53.4,339.7c0,0,6.4-0.4-6.8-10.3c-3.8-2.9-5.9-4.4-6.5-4c-2.3,1.7,6.4,8.6,8.6,14.2
		C50.5,344,53.4,339.7,53.4,339.7z"/>
</g>
</svg>
