<svg xmlns="http://www.w3.org/2000/svg" viewBox="0 0 1920 2407.23"><defs><style>.cls-1{fill:none;}.cls-2{fill:#343633;}</style></defs><g id="Our_services" data-name="Our services"><path class="cls-1" d="M1708.18,1068.6c-12.21,12.32-11.45,24.34-3.77,32.1,7.53,7.6,20,9,32.24-3.35,12.06-12.17,10.86-24.64,3.32-32.25S1720.23,1056.43,1708.18,1068.6Z"/><path class="cls-1" d="M1708.18,695.82c-12.21,12.32-11.45,24.33-3.77,32.09,7.53,7.6,20,9,32.24-3.35,12.06-12.16,10.86-24.64,3.32-32.25S1720.23,683.65,1708.18,695.82Z"/><path class="cls-1" d="M1606.44,510c-12.06,12.16-10.85,24.64-3.32,32.25s19.74,8.66,31.79-3.51c12.21-12.32,11.46-24.33,3.77-32.09C1631.15,499.07,1618.64,497.7,1606.44,510Z"/><path class="cls-1" d="M1736.65,1470.13c12.06-12.17,10.86-24.64,3.32-32.25s-19.74-8.67-31.79,3.5c-12.21,12.32-11.45,24.34-3.77,32.1C1711.94,1481.08,1724.45,1482.45,1736.65,1470.13Z"/><path class="cls-1" d="M1806.37,506.21c-7.53,7.61-8.89,20.23,3.31,32.55s24.41,11,32,3.35,8.58-19.93-3.47-32.09C1826,497.7,1814.05,498.45,1806.37,506.21Z"/><path class="cls-1" d="M1606.48,882.36c-12,12.17-10.85,24.64-3.31,32.25s19.73,8.67,31.79-3.5c12.2-12.32,11.45-24.34,3.76-32.1C1631.19,871.41,1618.68,870,1606.48,882.36Z"/><path class="cls-1" d="M1501.46,692.47c-7.53,7.6-8.58,19.93,3.47,32.09,12.21,12.32,24.11,11.57,31.8,3.81,7.53-7.6,8.88-20.23-3.32-32.55S1509,684.86,1501.46,692.47Z"/><path class="cls-1" d="M1806.41,878.56c-7.53,7.6-8.89,20.23,3.32,32.55,12,12.17,24.4,10.95,31.94,3.34s8.59-19.92-3.47-32.09C1826,870,1814.09,870.8,1806.41,878.56Z"/><path class="cls-1" d="M1736.65,1844.34c12.06-12.17,10.86-24.64,3.32-32.25s-19.74-8.67-31.79,3.5c-12.21,12.32-11.45,24.34-3.77,32.1C1711.94,1855.29,1724.45,1856.66,1736.65,1844.34Z"/><path class="cls-1" d="M1638.72,1624.58c-7.53-7.61-20-9-32.24,3.35-12,12.16-10.85,24.63-3.31,32.24s19.73,8.67,31.79-3.5C1647.16,1644.35,1646.41,1632.34,1638.72,1624.58Z"/><path class="cls-1" d="M1806.41,1624.12c-7.53,7.6-8.89,20.23,3.32,32.55,12,12.17,24.4,11,31.94,3.35s8.59-19.93-3.47-32.09C1826,1615.6,1814.09,1616.36,1806.41,1624.12Z"/><path class="cls-1" d="M1806.41,1251.34c-7.53,7.6-8.89,20.23,3.32,32.55,12,12.17,24.4,11,31.94,3.35s8.59-19.93-3.47-32.1C1826,1242.82,1814.09,1243.58,1806.41,1251.34Z"/><path class="cls-1" d="M1536.73,1101.15c7.53-7.6,8.88-20.23-3.32-32.55-12.06-12.17-24.41-11-32-3.35s-8.58,19.93,3.47,32.1C1517.14,1109.67,1529,1108.91,1536.73,1101.15Z"/><path class="cls-1" d="M1536.73,1473.93c7.53-7.6,8.88-20.23-3.32-32.55s-24.41-11-32-3.34-8.58,19.92,3.47,32.09C1517.14,1482.45,1529,1481.69,1536.73,1473.93Z"/><path class="cls-1" d="M1536.73,1848.14c7.53-7.6,8.88-20.23-3.32-32.55-12.06-12.17-24.41-10.95-32-3.34s-8.58,19.92,3.47,32.09C1517.14,1856.66,1529,1855.9,1536.73,1848.14Z"/><path class="cls-1" d="M1635,1283.89c12.2-12.32,11.45-24.34,3.76-32.1-7.53-7.6-20-9-32.24,3.35-12,12.17-10.85,24.64-3.31,32.25S1622.9,1296.06,1635,1283.89Z"/><path class="cls-1" d="M1911.12,724.56a36.84,36.84,0,0,0,9.09,6.91V686.73a18.82,18.82,0,0,0-12.56,5.74C1900.12,700.07,1899.07,712.4,1911.12,724.56Z"/><path class="cls-1" d="M1911.08,352.22a36.86,36.86,0,0,0,9.13,6.93V314.38a18.75,18.75,0,0,0-12.6,5.75C1900.08,327.73,1899,340.05,1911.08,352.22Z"/><path class="cls-1" d="M1911.12,1097.35a36.84,36.84,0,0,0,9.09,6.91v-44.75a18.82,18.82,0,0,0-12.56,5.74C1900.12,1072.86,1899.07,1085.18,1911.12,1097.35Z"/><path class="cls-1" d="M1911.12,1470.13a36.84,36.84,0,0,0,9.09,6.91V1432.3a18.73,18.73,0,0,0-12.56,5.74C1900.12,1445.64,1899.07,1458,1911.12,1470.13Z"/><path class="cls-1" d="M19.59,164.56c12.21-12.32,11.46-24.34,3.77-32.1C17.71,126.75,9.24,124.56.21,129v44.7C6.17,174,12.9,171.31,19.59,164.56Z"/><path class="cls-1" d="M1911.12,2217.12a36.84,36.84,0,0,0,9.09,6.91v-44.74a18.73,18.73,0,0,0-12.56,5.74C1900.12,2192.63,1899.07,2205,1911.12,2217.12Z"/><path class="cls-1" d="M1838.2,2374.92c-12.2-12.32-24.11-11.56-31.79-3.81s-8.89,20.23,3.32,32.55a39.06,39.06,0,0,0,4,3.57h27.69l.23-.22C1849.2,2399.41,1850.26,2387.08,1838.2,2374.92Z"/><path class="cls-1" d="M1911.12,1844.34a36.84,36.84,0,0,0,9.09,6.91V1806.5a18.79,18.79,0,0,0-12.56,5.75C1900.12,1819.85,1899.07,1832.17,1911.12,1844.34Z"/><path class="cls-1" d="M23.4,2371.57c-5.66-5.72-14.14-7.91-23.19-3.4v39.06H15.62a41.58,41.58,0,0,0,4-3.57C31.84,2391.34,31.09,2379.33,23.4,2371.57Z"/><path class="cls-1" d="M19.64,2030.88c12.2-12.32,11.45-24.34,3.76-32.1-5.66-5.71-14.14-7.9-23.19-3.4v44.67C6.18,2040.32,12.93,2037.65,19.64,2030.88Z"/><path class="cls-1" d="M1638.72,2371.57c-7.53-7.6-20-9-32.24,3.35-12,12.16-10.85,24.64-3.31,32.25l.06.06h27.71a41.58,41.58,0,0,0,4-3.57C1647.16,2391.34,1646.41,2379.33,1638.72,2371.57Z"/><path class="cls-1" d="M19.64,911.11c12.2-12.32,11.45-24.34,3.76-32.1-5.66-5.72-14.14-7.91-23.19-3.4v44.67C6.18,920.55,12.93,917.88,19.64,911.11Z"/><path class="cls-1" d="M19.64,1283.89c12.2-12.32,11.45-24.34,3.76-32.1-5.66-5.71-14.14-7.9-23.19-3.4v44.67C6.18,1293.33,12.93,1290.66,19.64,1283.89Z"/><path class="cls-1" d="M19.64,1656.67c12.2-12.32,11.45-24.33,3.76-32.09-5.66-5.72-14.14-7.91-23.19-3.41v44.67C6.18,1666.11,12.93,1663.44,19.64,1656.67Z"/><path class="cls-1" d="M19.59,538.76c12.21-12.32,11.46-24.33,3.77-32.09C17.71,501,9.24,498.77.21,503.24v44.7C6.17,548.19,12.9,545.52,19.59,538.76Z"/><path class="cls-1" d="M92.86,1068.6c-12.21,12.32-11.45,24.34-3.77,32.1,7.53,7.6,20,9,32.24-3.35,12.06-12.17,10.86-24.64,3.32-32.25S104.91,1056.43,92.86,1068.6Z"/><path class="cls-1" d="M1882,2246.68a62.44,62.44,0,0,1,0-87.71,60.91,60.91,0,0,1,38.22-17.93V1891.83A61,61,0,0,1,1882,1873.9a62.45,62.45,0,0,1,0-87.72,61,61,0,0,1,38.22-17.93V1517.62a61,61,0,0,1-38.22-17.93,62.44,62.44,0,0,1,0-87.71,60.91,60.91,0,0,1,38.22-17.93V1144.84a61,61,0,0,1-38.22-17.93,62.45,62.45,0,0,1,0-87.72,61,61,0,0,1,38.22-17.93V772.05A60.91,60.91,0,0,1,1882,754.12a62.44,62.44,0,0,1,0-87.71,60.91,60.91,0,0,1,38.22-17.93V399.71A60.9,60.9,0,0,1,1882,381.78a62.44,62.44,0,0,1,0-87.71,61,61,0,0,1,38.26-17.94V25.5A60.9,60.9,0,0,1,1882,7.57,63,63,0,0,1,1875.57,0H1772.12a63,63,0,0,1-6.38,7.57,61,61,0,0,1-86.88,0A62.18,62.18,0,0,1,1672.47,0H1569a62.18,62.18,0,0,1-6.39,7.57,61,61,0,0,1-86.88,0A63,63,0,0,1,1469.38,0H156.8a63,63,0,0,1-6.38,7.57,61,61,0,0,1-86.88,0A62.18,62.18,0,0,1,57.15,0H.21V88.32a61,61,0,0,1,48.66,17.93,62.44,62.44,0,0,1,0,87.71A61,61,0,0,1,.21,211.89V462.53a61,61,0,0,1,48.66,17.93,62.44,62.44,0,0,1,0,87.71A61,61,0,0,1,.21,586.1V834.87a61,61,0,0,1,48.7,17.93,62.42,62.42,0,0,1,0,87.71A60.93,60.93,0,0,1,.21,958.44v249.22a60.92,60.92,0,0,1,48.7,17.92,62.44,62.44,0,0,1,0,87.72,60.92,60.92,0,0,1-48.7,17.92v249.22a60.93,60.93,0,0,1,48.7,17.93,62.42,62.42,0,0,1,0,87.71A61,61,0,0,1,.21,1704v250.64a60.93,60.93,0,0,1,48.7,17.93,62.42,62.42,0,0,1,0,87.71,60.92,60.92,0,0,1-48.7,17.92v249.22a61,61,0,0,1,48.7,17.93,62.43,62.43,0,0,1,15.36,61.87H1562a62.41,62.41,0,0,1,15.35-61.87,61,61,0,0,1,86.89,0,62.45,62.45,0,0,1,15.35,61.87h85.51a62.41,62.41,0,0,1,15.35-61.87,61,61,0,0,1,86.88,0,62.41,62.41,0,0,1,15.35,61.87h37.53V2264.61A61,61,0,0,1,1882,2246.68Zm-14.66-648.31a62.44,62.44,0,0,1,0,87.71,61,61,0,0,1-86.88,0,62.42,62.42,0,0,1,0-87.71A61,61,0,0,1,1867.33,1598.37Zm-203.09-372.79a62.45,62.45,0,0,1,0,87.72,61,61,0,0,1-86.89,0,62.45,62.45,0,0,1,0-87.72A61,61,0,0,1,1664.24,1225.58Zm-86.89-285.07a62.44,62.44,0,0,1,0-87.71,61,61,0,0,1,86.89,0,62.44,62.44,0,0,1,0,87.71A61,61,0,0,1,1577.35,940.51ZM1678.9,1412a61,61,0,0,1,86.88,0,62.42,62.42,0,0,1,0,87.71,61,61,0,0,1-86.88,0A62.44,62.44,0,0,1,1678.9,1412Zm0-285.08a62.44,62.44,0,0,1,0-87.71,61,61,0,0,1,86.88,0,62.42,62.42,0,0,1,0,87.71A61,61,0,0,1,1678.9,1126.9Zm0-372.78a62.44,62.44,0,0,1,0-87.71,61,61,0,0,1,86.88,0,62.42,62.42,0,0,1,0,87.71A61,61,0,0,1,1678.9,754.12Zm-14.71-186a61,61,0,0,1-86.88,0,62.44,62.44,0,0,1,0-87.71,61,61,0,0,1,86.88,0A62.44,62.44,0,0,1,1664.19,568.17Zm-101.5,98.24a62.44,62.44,0,0,1,0,87.71,61,61,0,0,1-86.89,0,62.44,62.44,0,0,1,0-87.71A61,61,0,0,1,1562.69,666.41Zm-86.89,372.78a61,61,0,0,1,86.89,0,62.45,62.45,0,0,1,0,87.72,61,61,0,0,1-86.89,0A62.45,62.45,0,0,1,1475.8,1039.19Zm0,372.79a61,61,0,0,1,86.89,0,62.44,62.44,0,0,1,0,87.71,61,61,0,0,1-86.89,0A62.44,62.44,0,0,1,1475.8,1412Zm0,374.2a61,61,0,0,1,86.89,0,62.45,62.45,0,0,1,0,87.72,61,61,0,0,1-86.89,0A62.45,62.45,0,0,1,1475.8,1786.18Zm101.55-100.1a62.44,62.44,0,0,1,0-87.71,61,61,0,0,1,86.89,0,62.44,62.44,0,0,1,0,87.71A61,61,0,0,1,1577.35,1686.08Zm101.55,100.1a61,61,0,0,1,86.88,0,62.44,62.44,0,0,1,0,87.72,61,61,0,0,1-86.88,0A62.45,62.45,0,0,1,1678.9,1786.18Zm188.43-560.6a62.45,62.45,0,0,1,0,87.72,61,61,0,0,1-86.88,0,62.44,62.44,0,0,1,0-87.72A61,61,0,0,1,1867.33,1225.58Zm0-372.78a62.44,62.44,0,0,1,0,87.71,61,61,0,0,1-86.88,0,62.42,62.42,0,0,1,0-87.71A61,61,0,0,1,1867.33,852.8Zm0-372.34a62.44,62.44,0,0,1,0,87.71,61,61,0,0,1-86.89,0,62.44,62.44,0,0,1,0-87.71A61,61,0,0,1,1867.29,480.46ZM1780.4,106.25a61,61,0,0,1,86.89,0,62.44,62.44,0,0,1,0,87.71,61,61,0,0,1-86.89,0A62.44,62.44,0,0,1,1780.4,106.25Zm-14.66,187.82a62.44,62.44,0,0,1,0,87.71,61,61,0,0,1-86.88,0,62.42,62.42,0,0,1,0-87.71A61,61,0,0,1,1765.74,294.07ZM1577.31,106.25a61,61,0,0,1,86.88,0,62.44,62.44,0,0,1,0,87.71,61,61,0,0,1-86.88,0A62.44,62.44,0,0,1,1577.31,106.25ZM63.54,381.78a62.42,62.42,0,0,1,0-87.71,61,61,0,0,1,86.88,0,62.44,62.44,0,0,1,0,87.71A61,61,0,0,1,63.54,381.78Zm86.92,1864.9a61,61,0,0,1-86.88,0,62.44,62.44,0,0,1,0-87.71,61,61,0,0,1,86.88,0A62.44,62.44,0,0,1,150.46,2246.68Zm0-372.78a61,61,0,0,1-86.88,0,62.45,62.45,0,0,1,0-87.72,61,61,0,0,1,86.88,0A62.45,62.45,0,0,1,150.46,1873.9Zm0-374.21a61,61,0,0,1-86.88,0,62.44,62.44,0,0,1,0-87.71,61,61,0,0,1,86.88,0A62.44,62.44,0,0,1,150.46,1499.69Zm0-372.79a61,61,0,0,1-86.88,0,62.44,62.44,0,0,1,0-87.71,61,61,0,0,1,86.88,0A62.44,62.44,0,0,1,150.46,1126.9Zm0-372.78a61,61,0,0,1-86.88,0,62.44,62.44,0,0,1,0-87.71,61,61,0,0,1,86.88,0A62.44,62.44,0,0,1,150.46,754.12Zm1325.3-460a61,61,0,0,1,86.88,0,62.42,62.42,0,0,1,0,87.71,61,61,0,0,1-86.88,0A62.44,62.44,0,0,1,1475.76,294.07Zm86.93,1952.61a61,61,0,0,1-86.89,0,62.44,62.44,0,0,1,0-87.71,61,61,0,0,1,86.89,0A62.44,62.44,0,0,1,1562.69,2246.68Zm14.66-186.39a62.44,62.44,0,0,1,0-87.71,61,61,0,0,1,86.89,0,62.44,62.44,0,0,1,0,87.71A61,61,0,0,1,1577.35,2060.29Zm188.43,186.39a61,61,0,0,1-86.88,0,62.44,62.44,0,0,1,0-87.71,61,61,0,0,1,86.88,0A62.42,62.42,0,0,1,1765.78,2246.68Zm14.67-186.39a62.42,62.42,0,0,1,0-87.71,61,61,0,0,1,86.88,0,62.44,62.44,0,0,1,0,87.71A61,61,0,0,1,1780.45,2060.29Z"/><path class="cls-1" d="M124.6,320c-7.52-7.6-19.73-8.67-31.78,3.5-12.21,12.32-11.46,24.34-3.77,32.1,7.53,7.6,20,9,32.24-3.35S132.14,327.58,124.6,320Z"/><path class="cls-1" d="M1634.91,164.56c12.21-12.32,11.46-24.34,3.77-32.1-7.53-7.6-20-9-32.24,3.35-12.06,12.17-10.85,24.64-3.32,32.25S1622.86,176.72,1634.91,164.56Z"/><path class="cls-1" d="M92.86,1815.59c-12.21,12.32-11.45,24.34-3.77,32.1,7.53,7.6,20,9,32.24-3.35,12.06-12.17,10.86-24.64,3.32-32.25S104.91,1803.42,92.86,1815.59Z"/><path class="cls-1" d="M1606.48,2002.13c-12,12.17-10.85,24.64-3.31,32.25s19.73,8.67,31.79-3.5c12.2-12.32,11.45-24.34,3.76-32.1C1631.19,1991.18,1618.68,1989.81,1606.48,2002.13Z"/><path class="cls-1" d="M92.86,1441.38c-12.21,12.32-11.45,24.34-3.77,32.1,7.53,7.6,20,9,32.24-3.35s10.86-24.64,3.32-32.25S104.91,1429.21,92.86,1441.38Z"/><path class="cls-1" d="M92.86,695.82c-12.21,12.32-11.45,24.33-3.77,32.09,7.53,7.6,20,9,32.24-3.35,12.06-12.16,10.86-24.64,3.32-32.25S104.91,683.65,92.86,695.82Z"/><path class="cls-1" d="M92.86,2188.37c-12.21,12.32-11.45,24.34-3.77,32.1,7.53,7.6,20,9,32.24-3.35,12.06-12.17,10.86-24.64,3.32-32.25S104.91,2176.2,92.86,2188.37Z"/><path class="cls-1" d="M1806.41,1998.33c-7.53,7.6-8.89,20.23,3.32,32.55,12,12.17,24.4,11,31.94,3.35s8.59-19.93-3.47-32.1C1826,1989.81,1814.09,1990.57,1806.41,1998.33Z"/><path class="cls-1" d="M1501.46,2185c-7.53,7.6-8.58,19.92,3.47,32.09,12.21,12.32,24.11,11.56,31.8,3.8,7.53-7.6,8.88-20.23-3.32-32.55C1521.35,2176.2,1509,2177.42,1501.46,2185Z"/><path class="cls-1" d="M1841.63,167.9c7.53-7.6,8.58-19.92-3.47-32.09-12.2-12.32-24.11-11.56-31.79-3.8-7.53,7.6-8.89,20.23,3.31,32.55C1821.74,176.72,1834.09,175.51,1841.63,167.9Z"/><path class="cls-1" d="M1708.18,2188.37c-12.21,12.32-11.45,24.34-3.77,32.1,7.53,7.6,20,9,32.24-3.35,12.06-12.17,10.86-24.64,3.32-32.25S1720.23,2176.2,1708.18,2188.37Z"/><path class="cls-1" d="M1736.61,352.22c12.06-12.17,10.85-24.64,3.32-32.25s-19.74-8.67-31.79,3.5c-12.21,12.32-11.46,24.34-3.77,32.1C1711.9,363.17,1724.41,364.54,1736.61,352.22Z"/><path class="cls-1" d="M1536.68,356c7.53-7.6,8.89-20.23-3.31-32.55s-24.41-11-31.95-3.34-8.58,19.92,3.47,32.09S1529,363.78,1536.68,356Z"/><path class="cls-2" d="M1475.8,666.41a62.44,62.44,0,0,0,0,87.71,61,61,0,0,0,86.89,0,62.44,62.44,0,0,0,0-87.71A61,61,0,0,0,1475.8,666.41Zm60.93,62c-7.69,7.76-19.59,8.51-31.8-3.81-12-12.16-11-24.49-3.47-32.09s19.89-8.82,32,3.35S1544.26,720.77,1536.73,728.37Z"/><path class="cls-2" d="M1765.78,666.41a61,61,0,0,0-86.88,0,62.44,62.44,0,0,0,0,87.71,61,61,0,0,0,86.88,0A62.42,62.42,0,0,0,1765.78,666.41Zm-29.13,58.15c-12.2,12.32-24.71,11-32.24,3.35-7.68-7.76-8.44-19.77,3.77-32.09,12-12.17,24.26-11.11,31.79-3.51S1748.71,712.4,1736.65,724.56Z"/><path class="cls-2" d="M1882,754.12a60.91,60.91,0,0,0,38.22,17.93V731.47a36.84,36.84,0,0,1-9.09-6.91c-12-12.16-11-24.49-3.47-32.09a18.82,18.82,0,0,1,12.56-5.74V648.48A60.91,60.91,0,0,0,1882,666.41,62.44,62.44,0,0,0,1882,754.12Z"/><path class="cls-2" d="M1780.45,852.8a62.42,62.42,0,0,0,0,87.71,61,61,0,0,0,86.88,0,62.44,62.44,0,0,0,0-87.71A61,61,0,0,0,1780.45,852.8Zm61.22,61.65c-7.54,7.61-19.89,8.83-31.94-3.34-12.21-12.32-10.85-25-3.32-32.55,7.68-7.76,19.59-8.52,31.79,3.8C1850.26,894.53,1849.2,906.85,1841.67,914.45Z"/><path class="cls-2" d="M1664.24,852.8a61,61,0,0,0-86.89,0,62.44,62.44,0,0,0,0,87.71,61,61,0,0,0,86.89,0A62.44,62.44,0,0,0,1664.24,852.8ZM1635,911.11c-12.06,12.17-24.26,11.1-31.79,3.5s-8.74-20.08,3.31-32.25c12.2-12.32,24.71-11,32.24-3.35C1646.41,886.77,1647.16,898.79,1635,911.11Z"/><path class="cls-2" d="M1475.8,1126.91a61,61,0,0,0,86.89,0,62.45,62.45,0,0,0,0-87.72,61,61,0,0,0-86.89,0A62.45,62.45,0,0,0,1475.8,1126.91Zm25.66-61.66c7.54-7.61,19.89-8.82,32,3.35,12.2,12.32,10.85,25,3.32,32.55-7.69,7.76-19.59,8.52-31.8-3.8C1492.88,1085.18,1493.93,1072.86,1501.46,1065.25Z"/><path class="cls-2" d="M1765.78,1039.19a61,61,0,0,0-86.88,0,62.44,62.44,0,0,0,0,87.71,61,61,0,0,0,86.88,0A62.42,62.42,0,0,0,1765.78,1039.19Zm-29.13,58.16c-12.2,12.32-24.71,11-32.24,3.35-7.68-7.76-8.44-19.78,3.77-32.1,12-12.17,24.26-11.1,31.79-3.5S1748.71,1085.18,1736.65,1097.35Z"/><path class="cls-2" d="M1882,1126.91a61,61,0,0,0,38.22,17.93v-40.58a36.84,36.84,0,0,1-9.09-6.91c-12-12.17-11-24.49-3.47-32.1a18.82,18.82,0,0,1,12.56-5.74v-38.25a61,61,0,0,0-38.22,17.93A62.45,62.45,0,0,0,1882,1126.91Z"/><path class="cls-2" d="M1780.45,1225.58a62.44,62.44,0,0,0,0,87.72,61,61,0,0,0,86.88,0,62.45,62.45,0,0,0,0-87.72A61,61,0,0,0,1780.45,1225.58Zm61.22,61.66c-7.54,7.61-19.89,8.82-31.94-3.35-12.21-12.32-10.85-25-3.32-32.55,7.68-7.76,19.59-8.52,31.79,3.8C1850.26,1267.31,1849.2,1279.63,1841.67,1287.24Z"/><path class="cls-2" d="M1577.35,1313.3a61,61,0,0,0,86.89,0,62.45,62.45,0,0,0,0-87.72,61,61,0,0,0-86.89,0A62.45,62.45,0,0,0,1577.35,1313.3Zm29.13-58.16c12.2-12.32,24.71-11,32.24-3.35,7.69,7.76,8.44,19.78-3.76,32.1-12.06,12.17-24.26,11.1-31.79,3.5S1594.43,1267.31,1606.48,1255.14Z"/><path class="cls-2" d="M1475.8,1499.69a61,61,0,0,0,86.89,0,62.44,62.44,0,0,0,0-87.71,61,61,0,0,0-86.89,0A62.44,62.44,0,0,0,1475.8,1499.69Zm25.66-61.65c7.54-7.61,19.89-8.83,32,3.34s10.85,24.95,3.32,32.55c-7.69,7.76-19.59,8.52-31.8-3.8C1492.88,1458,1493.93,1445.64,1501.46,1438Z"/><path class="cls-2" d="M1765.78,1499.69a62.42,62.42,0,0,0,0-87.71,61,61,0,0,0-86.88,0,62.44,62.44,0,0,0,0,87.71A61,61,0,0,0,1765.78,1499.69Zm-57.6-58.31c12-12.17,24.26-11.1,31.79-3.5s8.74,20.08-3.32,32.25-24.71,10.95-32.24,3.35C1696.73,1465.72,1696,1453.7,1708.18,1441.38Z"/><path class="cls-2" d="M1882,1499.69a61,61,0,0,0,38.22,17.93V1477a36.84,36.84,0,0,1-9.09-6.91c-12-12.17-11-24.49-3.47-32.09a18.73,18.73,0,0,1,12.56-5.74v-38.25A60.91,60.91,0,0,0,1882,1412,62.44,62.44,0,0,0,1882,1499.69Z"/><path class="cls-2" d="M1780.45,1598.37a62.42,62.42,0,0,0,0,87.71,61,61,0,0,0,86.88,0,62.44,62.44,0,0,0,0-87.71A61,61,0,0,0,1780.45,1598.37Zm61.22,61.65c-7.54,7.61-19.89,8.82-31.94-3.35-12.21-12.32-10.85-25-3.32-32.55,7.68-7.76,19.59-8.52,31.79,3.81C1850.26,1640.09,1849.2,1652.42,1841.67,1660Z"/><path class="cls-2" d="M1664.24,1686.08a62.44,62.44,0,0,0,0-87.71,61,61,0,0,0-86.89,0,62.44,62.44,0,0,0,0,87.71A61,61,0,0,0,1664.24,1686.08Zm-61.07-25.91c-7.54-7.61-8.74-20.08,3.31-32.24,12.2-12.33,24.71-11,32.24-3.35,7.69,7.76,8.44,19.77-3.76,32.09C1622.9,1668.84,1610.7,1667.78,1603.17,1660.17Z"/><path class="cls-2" d="M1475.8,1873.9a61,61,0,0,0,86.89,0,62.45,62.45,0,0,0,0-87.72,61,61,0,0,0-86.89,0A62.45,62.45,0,0,0,1475.8,1873.9Zm25.66-61.65c7.54-7.61,19.89-8.83,32,3.34,12.2,12.32,10.85,25,3.32,32.55-7.69,7.76-19.59,8.52-31.8-3.8C1492.88,1832.17,1493.93,1819.85,1501.46,1812.25Z"/><path class="cls-2" d="M1765.78,1873.9a62.44,62.44,0,0,0,0-87.72,61,61,0,0,0-86.88,0,62.45,62.45,0,0,0,0,87.72A61,61,0,0,0,1765.78,1873.9Zm-57.6-58.31c12-12.17,24.26-11.1,31.79-3.5s8.74,20.08-3.32,32.25c-12.2,12.32-24.71,11-32.24,3.35C1696.73,1839.93,1696,1827.91,1708.18,1815.59Z"/><path class="cls-2" d="M1882,1873.9a61,61,0,0,0,38.22,17.93v-40.58a36.84,36.84,0,0,1-9.09-6.91c-12-12.17-11-24.49-3.47-32.09a18.79,18.79,0,0,1,12.56-5.75v-38.25a61,61,0,0,0-38.22,17.93A62.45,62.45,0,0,0,1882,1873.9Z"/><path class="cls-2" d="M1867.33,1972.58a61,61,0,0,0-86.88,0,62.42,62.42,0,0,0,0,87.71,61,61,0,0,0,86.88,0A62.44,62.44,0,0,0,1867.33,1972.58Zm-25.66,61.65c-7.54,7.61-19.89,8.82-31.94-3.35-12.21-12.32-10.85-25-3.32-32.55,7.68-7.76,19.59-8.52,31.79,3.8C1850.26,2014.3,1849.2,2026.62,1841.67,2034.23Z"/><path class="cls-2" d="M1664.24,1972.58a61,61,0,0,0-86.89,0,62.44,62.44,0,0,0,0,87.71,61,61,0,0,0,86.89,0A62.44,62.44,0,0,0,1664.24,1972.58Zm-29.28,58.3c-12.06,12.17-24.26,11.11-31.79,3.5s-8.74-20.08,3.31-32.25c12.2-12.32,24.71-11,32.24-3.35C1646.41,2006.54,1647.16,2018.56,1635,2030.88Z"/><path class="cls-2" d="M1475.8,2159a62.44,62.44,0,0,0,0,87.71,61,61,0,0,0,86.89,0,62.44,62.44,0,0,0,0-87.71A61,61,0,0,0,1475.8,2159Zm60.93,62c-7.69,7.76-19.59,8.52-31.8-3.8-12-12.17-11-24.49-3.47-32.09s19.89-8.83,32,3.34C1545.61,2200.69,1544.26,2213.32,1536.73,2220.92Z"/><path class="cls-2" d="M1678.9,2159a62.44,62.44,0,0,0,0,87.71,61,61,0,0,0,86.88,0,62.42,62.42,0,0,0,0-87.71A61,61,0,0,0,1678.9,2159Zm57.75,58.15c-12.2,12.32-24.71,11-32.24,3.35-7.68-7.76-8.44-19.78,3.77-32.1,12-12.17,24.26-11.1,31.79-3.5S1748.71,2205,1736.65,2217.12Z"/><path class="cls-2" d="M1882,2246.68a61,61,0,0,0,38.22,17.93V2224a36.84,36.84,0,0,1-9.09-6.91c-12-12.17-11-24.49-3.47-32.09a18.73,18.73,0,0,1,12.56-5.74V2141A60.91,60.91,0,0,0,1882,2159,62.44,62.44,0,0,0,1882,2246.68Z"/><path class="cls-2" d="M1867.33,2345.36a61,61,0,0,0-86.88,0,62.41,62.41,0,0,0-15.35,61.87h48.65a39.06,39.06,0,0,1-4-3.57c-12.21-12.32-10.85-24.94-3.32-32.55s19.59-8.51,31.79,3.81c12.06,12.16,11,24.49,3.47,32.09l-.23.22h41.24A62.41,62.41,0,0,0,1867.33,2345.36Z"/><path class="cls-2" d="M1664.24,2345.36a61,61,0,0,0-86.89,0,62.41,62.41,0,0,0-15.35,61.87h41.23l-.06-.06c-7.54-7.61-8.74-20.09,3.31-32.25,12.2-12.32,24.71-11,32.24-3.35,7.69,7.76,8.44,19.77-3.76,32.09a41.58,41.58,0,0,1-4,3.57h48.65A62.45,62.45,0,0,0,1664.24,2345.36Z"/><path class="cls-2" d="M63.58,666.41a62.44,62.44,0,0,0,0,87.71,61,61,0,0,0,86.88,0,62.44,62.44,0,0,0,0-87.71A61,61,0,0,0,63.58,666.41Zm57.75,58.15c-12.2,12.32-24.71,11-32.24,3.35-7.68-7.76-8.44-19.77,3.77-32.09,12-12.17,24.26-11.11,31.79-3.51S133.39,712.4,121.33,724.56Z"/><path class="cls-2" d="M48.91,940.51a62.42,62.42,0,0,0,0-87.71A61,61,0,0,0,.21,834.87v40.74c9-4.51,17.53-2.32,23.19,3.4,7.69,7.76,8.44,19.78-3.76,32.1-6.71,6.77-13.46,9.44-19.43,9.17v38.16A60.93,60.93,0,0,0,48.91,940.51Z"/><path class="cls-2" d="M63.58,1039.19a62.44,62.44,0,0,0,0,87.71,61,61,0,0,0,86.88,0,62.44,62.44,0,0,0,0-87.71A61,61,0,0,0,63.58,1039.19Zm57.75,58.16c-12.2,12.32-24.71,11-32.24,3.35-7.68-7.76-8.44-19.78,3.77-32.1,12-12.17,24.26-11.1,31.79-3.5S133.39,1085.18,121.33,1097.35Z"/><path class="cls-2" d="M48.91,1313.3a62.44,62.44,0,0,0,0-87.72,60.92,60.92,0,0,0-48.7-17.92v40.73c9-4.5,17.53-2.31,23.19,3.4,7.69,7.76,8.44,19.78-3.76,32.1-6.71,6.77-13.46,9.44-19.43,9.17v38.16A60.92,60.92,0,0,0,48.91,1313.3Z"/><path class="cls-2" d="M63.58,1412a62.44,62.44,0,0,0,0,87.71,61,61,0,0,0,86.88,0,62.44,62.44,0,0,0,0-87.71A61,61,0,0,0,63.58,1412Zm57.75,58.15c-12.2,12.32-24.71,10.95-32.24,3.35-7.68-7.76-8.44-19.78,3.77-32.1,12-12.17,24.26-11.1,31.79-3.5S133.39,1458,121.33,1470.13Z"/><path class="cls-2" d="M48.91,1686.08a62.42,62.42,0,0,0,0-87.71,60.93,60.93,0,0,0-48.7-17.93v40.73c9-4.5,17.53-2.31,23.19,3.41,7.69,7.76,8.44,19.77-3.76,32.09-6.71,6.77-13.46,9.44-19.43,9.17V1704A61,61,0,0,0,48.91,1686.08Z"/><path class="cls-2" d="M63.58,1786.18a62.45,62.45,0,0,0,0,87.72,61,61,0,0,0,86.88,0,62.45,62.45,0,0,0,0-87.72A61,61,0,0,0,63.58,1786.18Zm57.75,58.16c-12.2,12.32-24.71,11-32.24,3.35-7.68-7.76-8.44-19.78,3.77-32.1,12-12.17,24.26-11.1,31.79-3.5S133.39,1832.17,121.33,1844.34Z"/><path class="cls-2" d="M48.91,2060.29a62.42,62.42,0,0,0,0-87.71,60.93,60.93,0,0,0-48.7-17.93v40.73c9-4.5,17.53-2.31,23.19,3.4,7.69,7.76,8.44,19.78-3.76,32.1-6.71,6.77-13.46,9.44-19.43,9.17v38.16A60.92,60.92,0,0,0,48.91,2060.29Z"/><path class="cls-2" d="M63.58,2159a62.44,62.44,0,0,0,0,87.71,61,61,0,0,0,86.88,0,62.44,62.44,0,0,0,0-87.71A61,61,0,0,0,63.58,2159Zm57.75,58.15c-12.2,12.32-24.71,11-32.24,3.35-7.68-7.76-8.44-19.78,3.77-32.1,12-12.17,24.26-11.1,31.79-3.5S133.39,2205,121.33,2217.12Z"/><path class="cls-2" d="M48.91,2345.36a61,61,0,0,0-48.7-17.93v40.74c9-4.51,17.53-2.32,23.19,3.4,7.69,7.76,8.44,19.77-3.76,32.09a41.58,41.58,0,0,1-4,3.57H64.27A62.43,62.43,0,0,0,48.91,2345.36Z"/><path class="cls-2" d="M1562.64,7.57A62.18,62.18,0,0,0,1569,0h-99.65a63,63,0,0,0,6.38,7.57A61,61,0,0,0,1562.64,7.57Z"/><path class="cls-2" d="M1765.74,7.57A63,63,0,0,0,1772.12,0h-99.65a62.18,62.18,0,0,0,6.39,7.57A61,61,0,0,0,1765.74,7.57Z"/><path class="cls-2" d="M1920.21,25.5V0h-44.64A63,63,0,0,0,1882,7.57,60.9,60.9,0,0,0,1920.21,25.5Z"/><path class="cls-2" d="M1867.29,194a62.44,62.44,0,0,0,0-87.71,61,61,0,0,0-86.89,0,62.44,62.44,0,0,0,0,87.71A61,61,0,0,0,1867.29,194Zm-60.92-62c7.68-7.76,19.59-8.52,31.79,3.8,12,12.17,11,24.49,3.47,32.09s-19.89,8.82-32-3.34C1797.48,152.24,1798.84,139.61,1806.37,132Z"/><path class="cls-2" d="M1664.19,194a62.44,62.44,0,0,0,0-87.71,61,61,0,0,0-86.88,0,62.44,62.44,0,0,0,0,87.71A61,61,0,0,0,1664.19,194Zm-57.75-58.15c12.2-12.32,24.71-11,32.24-3.35,7.69,7.76,8.44,19.78-3.77,32.1-12.05,12.16-24.26,11.1-31.79,3.5S1594.38,148,1606.44,135.81Z"/><path class="cls-2" d="M1562.64,381.78a62.42,62.42,0,0,0,0-87.71,61,61,0,0,0-86.88,0,62.44,62.44,0,0,0,0,87.71A61,61,0,0,0,1562.64,381.78Zm-61.22-61.65c7.54-7.61,19.89-8.83,31.95,3.34s10.84,24.95,3.31,32.55c-7.68,7.76-19.59,8.52-31.79-3.8S1493.89,327.73,1501.42,320.13Z"/><path class="cls-2" d="M1678.86,381.78a61,61,0,0,0,86.88,0,62.44,62.44,0,0,0,0-87.71,61,61,0,0,0-86.88,0A62.42,62.42,0,0,0,1678.86,381.78Zm29.28-58.31c12-12.17,24.26-11.1,31.79-3.5s8.74,20.08-3.32,32.25-24.71,10.95-32.24,3.35C1696.68,347.81,1695.93,335.79,1708.14,323.47Z"/><path class="cls-2" d="M1882,381.78a60.9,60.9,0,0,0,38.26,17.93V359.15a36.86,36.86,0,0,1-9.13-6.93c-12-12.17-11-24.49-3.47-32.09a18.75,18.75,0,0,1,12.6-5.75V276.13A61,61,0,0,0,1882,294.07,62.44,62.44,0,0,0,1882,381.78Z"/><path class="cls-2" d="M1780.4,480.46a62.44,62.44,0,0,0,0,87.71,61,61,0,0,0,86.89,0,62.44,62.44,0,0,0,0-87.71A61,61,0,0,0,1780.4,480.46Zm61.23,61.65c-7.54,7.61-19.89,8.82-32-3.35s-10.84-24.94-3.31-32.55c7.68-7.76,19.59-8.51,31.79,3.81C1850.21,522.18,1849.16,534.51,1841.63,542.11Z"/><path class="cls-2" d="M1577.31,480.46a62.44,62.44,0,0,0,0,87.71,61,61,0,0,0,86.88,0,62.44,62.44,0,0,0,0-87.71A61,61,0,0,0,1577.31,480.46Zm57.6,58.3c-12.05,12.17-24.26,11.11-31.79,3.51s-8.74-20.09,3.32-32.25c12.2-12.32,24.71-10.95,32.24-3.35C1646.37,514.43,1647.12,526.44,1634.91,538.76Z"/><path class="cls-2" d="M150.42,7.57A63,63,0,0,0,156.8,0H57.15a62.18,62.18,0,0,0,6.39,7.57A61,61,0,0,0,150.42,7.57Z"/><path class="cls-2" d="M48.87,194a62.44,62.44,0,0,0,0-87.71A61,61,0,0,0,.21,88.32V129c9-4.47,17.5-2.28,23.15,3.43,7.69,7.76,8.44,19.78-3.77,32.1C12.9,171.31,6.17,174,.21,173.73v38.16A61,61,0,0,0,48.87,194Z"/><path class="cls-2" d="M150.42,381.78a62.44,62.44,0,0,0,0-87.71,61,61,0,0,0-86.88,0,62.42,62.42,0,0,0,0,87.71A61,61,0,0,0,150.42,381.78ZM89.05,355.57c-7.69-7.76-8.44-19.78,3.77-32.1,12.05-12.17,24.26-11.1,31.78-3.5s8.75,20.08-3.31,32.25S96.58,363.17,89.05,355.57Z"/><path class="cls-2" d="M48.87,568.17a62.44,62.44,0,0,0,0-87.71A61,61,0,0,0,.21,462.53v40.71c9-4.47,17.5-2.28,23.15,3.43,7.69,7.76,8.44,19.77-3.77,32.09-6.69,6.76-13.42,9.43-19.38,9.18V586.1A61,61,0,0,0,48.87,568.17Z"/></g></svg>