<svg id="Layer_1" data-name="Layer 1" xmlns="http://www.w3.org/2000/svg" viewBox="0 0 123.99 144"><defs><style>.cls-1{fill:#ffc050;}.cls-2{fill:none;stroke:#87333b;stroke-miterlimit:10;stroke-width:0.25px;}</style></defs><path class="cls-1" d="M124,61.71A61.28,61.28,0,0,0,62.3,0,62.71,62.71,0,0,0,0,62.28a61.22,61.22,0,0,0,20.93,46.53h0L62,144l40.16-35.13h0A62.43,62.43,0,0,0,124,61.71Zm-62-25c10.76,0,20.39,7.86,20.31,25.07-.09,17.41-10,25.42-20.77,25.46-11,.06-20-7.86-19.87-25.28C41.76,44.78,51.26,36.78,62,36.73Z"/><path class="cls-2" d="M62,170.5"/><path class="cls-2" d="M62,62"/></svg>