<svg id="Layer_1" data-name="Layer 1" xmlns="http://www.w3.org/2000/svg" viewBox="0 0 46.34 32"><defs><style>.cls-1{fill:#ffc050;}</style></defs><path class="cls-1" d="M4.41,0A4.48,4.48,0,0,0,0,4.53V27.45A4.5,4.5,0,0,0,4.41,32H41.93a4.5,4.5,0,0,0,4.41-4.55V4.53A4.48,4.48,0,0,0,41.93,0Zm0,2.21H41.93a2.29,2.29,0,0,1,.91.2L24.6,19.29a2,2,0,0,1-2.81,0L3.52,2.41A2.23,2.23,0,0,1,4.41,2.21Zm-2.17,2,13,12L2.48,28.57a2.57,2.57,0,0,1-.27-1.12V4.53a2.85,2.85,0,0,1,0-.29Zm41.86,0a2.51,2.51,0,0,1,0,.27V27.45a2.48,2.48,0,0,1-.26,1.1L31.21,16.19,44.1,4.26ZM29.6,17.67,42,29.79H4.36l12.45-12.1,3.48,3.22a4.27,4.27,0,0,0,5.81,0l3.5-3.24Z"/></svg>