<svg id="Layer_1" data-name="Layer 1" xmlns="http://www.w3.org/2000/svg" viewBox="0 0 529.1 2922.2"><path d="M18.1,1323.85a62.41,62.41,0,0,0,0,87.7,61.08,61.08,0,0,0,86.9,0,62.41,62.41,0,0,0,0-87.7A61.08,61.08,0,0,0,18.1,1323.85Zm60.9,61.9c-7.7,7.8-19.6,8.5-31.8-3.8s-11-24.5-3.5-32.1,19.9-8.8,31.9,3.3C87.9,1365.55,86.5,1378.15,79,1385.75Z" style="fill:#ededec"/><path d="M308,1323.85a61.08,61.08,0,0,0-86.9,0,62.41,62.41,0,0,0,0,87.7,61.08,61.08,0,0,0,86.9,0A62.41,62.41,0,0,0,308,1323.85Zm-61.3,61.5c-7.7-7.8-8.4-19.8,3.8-32.1s24.3-11.1,31.8-3.5,8.7,20.1-3.3,32.2C266.7,1394.35,254.2,1393,246.7,1385.35Z" style="fill:#ededec"/><path d="M424.3,1323.85a62.41,62.41,0,0,0,0,87.7,61.08,61.08,0,0,0,86.9,0,62.41,62.41,0,0,0,0-87.7A61.08,61.08,0,0,0,424.3,1323.85Zm60.9,61.9c-7.7,7.8-19.6,8.5-31.8-3.8s-11-24.5-3.5-32.1,19.9-8.8,31.9,3.3C494.1,1365.55,492.7,1378.15,485.2,1385.75Z" style="fill:#ededec"/><path d="M409.6,1598a62.41,62.41,0,0,0,0-87.7,61.08,61.08,0,0,0-86.9,0,62.41,62.41,0,0,0,0,87.7A61.08,61.08,0,0,0,409.6,1598Zm-60.9-62c7.7-7.8,19.6-8.5,31.8,3.8s11,24.5,3.5,32.1-19.9,8.8-31.9-3.3C339.8,1556.25,341.1,1543.55,348.7,1536Z" style="fill:#ededec"/><path d="M119.6,1598a61.08,61.08,0,0,0,86.9,0,62.41,62.41,0,0,0,0-87.7,61.08,61.08,0,0,0-86.9,0A62.41,62.41,0,0,0,119.6,1598Zm61.4-61.5c7.7,7.8,8.4,19.8-3.8,32.1s-24.3,11.1-31.8,3.5-8.7-20.1,3.3-32.2C160.9,1527.45,173.5,1528.85,181,1536.45Z" style="fill:#ededec"/><path d="M18.1,1696.65a62.41,62.41,0,0,0,0,87.7,61.08,61.08,0,0,0,86.9,0,62.41,62.41,0,0,0,0-87.7A61.08,61.08,0,0,0,18.1,1696.65Zm60.9,61.9c-7.7,7.8-19.6,8.5-31.8-3.8s-11-24.5-3.5-32.1,19.9-8.8,31.9,3.3C87.9,1738.35,86.5,1751,79,1758.55Z" style="fill:#ededec"/><path d="M308,1696.65a61.08,61.08,0,0,0-86.9,0,62.41,62.41,0,0,0,0,87.7,61.08,61.08,0,0,0,86.9,0A62.41,62.41,0,0,0,308,1696.65Zm-61.3,61.5c-7.7-7.8-8.4-19.8,3.8-32.1s24.3-11.1,31.8-3.5,8.7,20.1-3.3,32.2C266.7,1767.05,254.2,1765.75,246.7,1758.15Z" style="fill:#ededec"/><path d="M424.3,1696.65a62.41,62.41,0,0,0,0,87.7,61.08,61.08,0,0,0,86.9,0,62.41,62.41,0,0,0,0-87.7A61.08,61.08,0,0,0,424.3,1696.65Zm60.9,61.9c-7.7,7.8-19.6,8.5-31.8-3.8s-11-24.5-3.5-32.1,19.9-8.8,31.9,3.3C494.1,1738.35,492.7,1751,485.2,1758.55Z" style="fill:#ededec"/><path d="M409.6,1970.75a62.41,62.41,0,0,0,0-87.7,61.08,61.08,0,0,0-86.9,0,62.41,62.41,0,0,0,0,87.7A61.08,61.08,0,0,0,409.6,1970.75Zm-60.9-62c7.7-7.8,19.6-8.5,31.8,3.8s11,24.5,3.5,32.1-19.9,8.8-31.9-3.3C339.8,1929.05,341.1,1916.35,348.7,1908.75Z" style="fill:#ededec"/><path d="M119.6,1970.75a61.08,61.08,0,0,0,86.9,0,62.41,62.41,0,0,0,0-87.7,61.08,61.08,0,0,0-86.9,0A62.41,62.41,0,0,0,119.6,1970.75Zm61.4-61.5c7.7,7.8,8.4,19.8-3.8,32.1s-24.3,11.1-31.8,3.5-8.7-20.1,3.3-32.2C160.9,1900.25,173.5,1901.65,181,1909.25Z" style="fill:#ededec"/><path d="M18.1,2069.45a62.41,62.41,0,0,0,0,87.7,61.08,61.08,0,0,0,86.9,0,62.41,62.41,0,0,0,0-87.7A60.91,60.91,0,0,0,18.1,2069.45Zm60.9,61.9c-7.7,7.8-19.6,8.5-31.8-3.8s-11-24.5-3.5-32.1,19.9-8.8,31.9,3.3C87.9,2111.15,86.5,2123.75,79,2131.35Z" style="fill:#ededec"/><path d="M308,2069.45a61.08,61.08,0,0,0-86.9,0,62.41,62.41,0,0,0,0,87.7,61.08,61.08,0,0,0,86.9,0A62.41,62.41,0,0,0,308,2069.45ZM246.7,2131c-7.7-7.8-8.4-19.8,3.8-32.1s24.3-11.1,31.8-3.5,8.7,20.1-3.3,32.2C266.7,2139.85,254.2,2138.55,246.7,2131Z" style="fill:#ededec"/><path d="M424.3,2069.45a62.41,62.41,0,0,0,0,87.7,61.08,61.08,0,0,0,86.9,0,62.41,62.41,0,0,0,0-87.7A60.91,60.91,0,0,0,424.3,2069.45Zm60.9,61.9c-7.7,7.8-19.6,8.5-31.8-3.8s-11-24.5-3.5-32.1,19.9-8.8,31.9,3.3C494.1,2111.15,492.7,2123.75,485.2,2131.35Z" style="fill:#ededec"/><path d="M409.6,2343.55a62.41,62.41,0,0,0,0-87.7,61.08,61.08,0,0,0-86.9,0,62.41,62.41,0,0,0,0,87.7A61.08,61.08,0,0,0,409.6,2343.55Zm-60.9-62c7.7-7.8,19.6-8.5,31.8,3.8s11,24.5,3.5,32.1-19.9,8.8-31.9-3.3C339.8,2301.75,341.1,2289.15,348.7,2281.55Z" style="fill:#ededec"/><path d="M119.6,2343.55a61.08,61.08,0,0,0,86.9,0,62.41,62.41,0,0,0,0-87.7,61.08,61.08,0,0,0-86.9,0A62.41,62.41,0,0,0,119.6,2343.55Zm61.4-61.5c7.7,7.8,8.4,19.8-3.8,32.1s-24.3,11.1-31.8,3.5-8.7-20.1,3.3-32.2C160.9,2273.05,173.5,2274.45,181,2282.05Z" style="fill:#ededec"/><path d="M18.1,2443.65a62.41,62.41,0,0,0,0,87.7,61.08,61.08,0,0,0,86.9,0,62.41,62.41,0,0,0,0-87.7A60.91,60.91,0,0,0,18.1,2443.65Zm60.9,61.9c-7.7,7.8-19.6,8.5-31.8-3.8s-11-24.5-3.5-32.1,19.9-8.8,31.9,3.3C87.9,2485.35,86.5,2498,79,2505.55Z" style="fill:#ededec"/><path d="M308,2443.65a61.08,61.08,0,0,0-86.9,0,62.41,62.41,0,0,0,0,87.7,61.08,61.08,0,0,0,86.9,0A62.41,62.41,0,0,0,308,2443.65Zm-61.3,61.5c-7.7-7.8-8.4-19.8,3.8-32.1s24.3-11.1,31.8-3.5,8.7,20.1-3.3,32.2C266.7,2514.05,254.2,2512.75,246.7,2505.15Z" style="fill:#ededec"/><path d="M424.3,2443.65a62.41,62.41,0,0,0,0,87.7,61.08,61.08,0,0,0,86.9,0,62.41,62.41,0,0,0,0-87.7A60.91,60.91,0,0,0,424.3,2443.65Zm60.9,61.9c-7.7,7.8-19.6,8.5-31.8-3.8s-11-24.5-3.5-32.1,19.9-8.8,31.9,3.3C494.1,2485.35,492.7,2498,485.2,2505.55Z" style="fill:#ededec"/><path d="M409.6,2717.75a62.41,62.41,0,0,0,0-87.7,61.08,61.08,0,0,0-86.9,0,62.41,62.41,0,0,0,0,87.7A61.08,61.08,0,0,0,409.6,2717.75Zm-60.9-62c7.7-7.8,19.6-8.5,31.8,3.8s11,24.5,3.5,32.1-19.9,8.8-31.9-3.3C339.8,2676,341.1,2663.35,348.7,2655.75Z" style="fill:#ededec"/><path d="M119.6,2717.75a61.08,61.08,0,0,0,86.9,0,62.41,62.41,0,0,0,0-87.7,61.08,61.08,0,0,0-86.9,0A62.41,62.41,0,0,0,119.6,2717.75Zm61.4-61.5c7.7,7.8,8.4,19.8-3.8,32.1s-24.3,11.1-31.8,3.5-8.7-20.1,3.3-32.2C160.9,2647.25,173.5,2648.65,181,2656.25Z" style="fill:#ededec"/><path d="M18.1,2816.35a62.41,62.41,0,0,0,0,87.7,61.08,61.08,0,0,0,86.9,0,62.41,62.41,0,0,0,0-87.7A61.08,61.08,0,0,0,18.1,2816.35Zm60.9,62c-7.7,7.8-19.6,8.5-31.8-3.8s-11-24.5-3.5-32.1,19.9-8.8,31.9,3.3C87.9,2858.15,86.5,2870.75,79,2878.35Z" style="fill:#ededec"/><path d="M308,2816.35a61.08,61.08,0,0,0-86.9,0,62.41,62.41,0,0,0,0,87.7,61.08,61.08,0,0,0,86.9,0A62.41,62.41,0,0,0,308,2816.35ZM246.7,2878c-7.7-7.8-8.4-19.8,3.8-32.1s24.3-11.1,31.8-3.5,8.7,20.1-3.3,32.2C266.7,2886.85,254.2,2885.55,246.7,2878Z" style="fill:#ededec"/><path d="M424.3,2816.35a62.41,62.41,0,0,0,0,87.7,61.08,61.08,0,0,0,86.9,0,62.41,62.41,0,0,0,0-87.7A61.08,61.08,0,0,0,424.3,2816.35Zm60.9,62c-7.7,7.8-19.6,8.5-31.8-3.8s-11-24.5-3.5-32.1,19.9-8.8,31.9,3.3C494.1,2858.15,492.7,2870.75,485.2,2878.35Z" style="fill:#ededec"/><path d="M409.6,105.85a62.41,62.41,0,0,0,0-87.7,61.08,61.08,0,0,0-86.9,0,62.41,62.41,0,0,0,0,87.7A61.08,61.08,0,0,0,409.6,105.85Zm-61-62c7.7-7.8,19.6-8.5,31.8,3.8s11,24.5,3.5,32.1-19.9,8.8-31.9-3.3C339.7,64.15,341.1,51.45,348.6,43.85Z" style="fill:#ededec"/><path d="M119.6,105.85a61.08,61.08,0,0,0,86.9,0,62.41,62.41,0,0,0,0-87.7,61.08,61.08,0,0,0-86.9,0A62.41,62.41,0,0,0,119.6,105.85Zm61.3-61.5c7.7,7.8,8.4,19.8-3.8,32.1s-24.3,11.1-31.8,3.5-8.7-20.1,3.3-32.2C160.9,35.35,173.4,36.75,180.9,44.35Z" style="fill:#ededec"/><path d="M18,204.55a62.41,62.41,0,0,0,0,87.7,61.08,61.08,0,0,0,86.9,0,62.41,62.41,0,0,0,0-87.7A60.91,60.91,0,0,0,18,204.55Zm60.9,61.9c-7.7,7.8-19.6,8.5-31.8-3.8s-11-24.5-3.5-32.1,19.9-8.8,31.9,3.3C87.8,246.25,86.5,258.85,78.9,266.45Z" style="fill:#ededec"/><path d="M308,204.55a61.08,61.08,0,0,0-86.9,0,62.41,62.41,0,0,0,0,87.7,61.08,61.08,0,0,0,86.9,0A62.41,62.41,0,0,0,308,204.55Zm-61.4,61.5c-7.7-7.8-8.4-19.8,3.8-32.1s24.3-11.1,31.8-3.5,8.7,20.1-3.3,32.2C266.7,275,254.2,273.65,246.6,266.05Z" style="fill:#ededec"/><path d="M424.2,204.55a62.41,62.41,0,0,0,0,87.7,61.08,61.08,0,0,0,86.9,0,62.41,62.41,0,0,0,0-87.7A61,61,0,0,0,424.2,204.55Zm60.9,61.9c-7.7,7.8-19.6,8.5-31.8-3.8s-11-24.5-3.5-32.1,19.9-8.8,31.9,3.3C494,246.25,492.7,258.85,485.1,266.45Z" style="fill:#ededec"/><path d="M409.6,478.65a62.41,62.41,0,0,0,0-87.7,61.08,61.08,0,0,0-86.9,0,62.41,62.41,0,0,0,0,87.7A61.08,61.08,0,0,0,409.6,478.65Zm-61-62c7.7-7.8,19.6-8.5,31.8,3.8s11,24.5,3.5,32.1-19.9,8.8-31.9-3.3C339.7,436.85,341.1,424.25,348.6,416.65Z" style="fill:#ededec"/><path d="M119.6,478.65a61.08,61.08,0,0,0,86.9,0,62.41,62.41,0,0,0,0-87.7,61.08,61.08,0,0,0-86.9,0A62.41,62.41,0,0,0,119.6,478.65Zm61.3-61.5c7.7,7.8,8.4,19.8-3.8,32.1s-24.3,11.1-31.8,3.5-8.7-20.1,3.3-32.2C160.9,408.15,173.4,409.55,180.9,417.15Z" style="fill:#ededec"/><path d="M18,577.25A62.41,62.41,0,0,0,18,665a61.08,61.08,0,0,0,86.9,0,62.41,62.41,0,0,0,0-87.7A61.08,61.08,0,0,0,18,577.25Zm60.9,62c-7.7,7.8-19.6,8.5-31.8-3.8s-11-24.5-3.5-32.1,19.9-8.8,31.9,3.3C87.8,619.05,86.5,631.65,78.9,639.25Z" style="fill:#ededec"/><path d="M308,577.25a61.08,61.08,0,0,0-86.9,0,62.41,62.41,0,0,0,0,87.7,61.08,61.08,0,0,0,86.9,0A62.41,62.41,0,0,0,308,577.25Zm-61.4,61.5c-7.7-7.8-8.4-19.8,3.8-32.1s24.3-11.1,31.8-3.5,8.7,20.1-3.3,32.2C266.7,647.75,254.2,646.35,246.6,638.75Z" style="fill:#ededec"/><path d="M424.2,577.25a62.41,62.41,0,0,0,0,87.7,61.08,61.08,0,0,0,86.9,0,62.41,62.41,0,0,0,0-87.7A61.08,61.08,0,0,0,424.2,577.25Zm60.9,62c-7.7,7.8-19.6,8.5-31.8-3.8s-11-24.5-3.5-32.1,19.9-8.8,31.9,3.3C494,619.05,492.7,631.65,485.1,639.25Z" style="fill:#ededec"/><path d="M409.6,851.35a62.41,62.41,0,0,0,0-87.7,61.08,61.08,0,0,0-86.9,0,62.41,62.41,0,0,0,0,87.7A61,61,0,0,0,409.6,851.35Zm-61-61.9c7.7-7.8,19.6-8.5,31.8,3.8s11,24.5,3.5,32.1-19.9,8.8-31.9-3.3C339.7,809.65,341.1,797.05,348.6,789.45Z" style="fill:#ededec"/><path d="M119.6,851.35a61.08,61.08,0,0,0,86.9,0,62.41,62.41,0,0,0,0-87.7,61.08,61.08,0,0,0-86.9,0A62.41,62.41,0,0,0,119.6,851.35Zm61.3-61.5c7.7,7.8,8.4,19.8-3.8,32.1s-24.3,11.1-31.8,3.5-8.7-20.1,3.3-32.2C160.9,781,173.4,782.25,180.9,789.85Z" style="fill:#ededec"/><path d="M18,951.45a62.41,62.41,0,0,0,0,87.7,61.08,61.08,0,0,0,86.9,0,62.41,62.41,0,0,0,0-87.7A61.08,61.08,0,0,0,18,951.45Zm60.9,62c-7.7,7.8-19.6,8.5-31.8-3.8s-11-24.5-3.5-32.1,19.9-8.8,31.9,3.3C87.8,993.25,86.5,1005.85,78.9,1013.45Z" style="fill:#ededec"/><path d="M308,951.45a61.08,61.08,0,0,0-86.9,0,62.41,62.41,0,0,0,0,87.7,61.08,61.08,0,0,0,86.9,0A62.41,62.41,0,0,0,308,951.45Zm-61.4,61.6c-7.7-7.8-8.4-19.8,3.8-32.1s24.3-11.1,31.8-3.5,8.7,20.1-3.3,32.2C266.7,1022,254.2,1020.65,246.6,1013.05Z" style="fill:#ededec"/><path d="M424.2,951.45a62.41,62.41,0,0,0,0,87.7,61.08,61.08,0,0,0,86.9,0,62.41,62.41,0,0,0,0-87.7A61.08,61.08,0,0,0,424.2,951.45Zm60.9,62c-7.7,7.8-19.6,8.5-31.8-3.8s-11-24.5-3.5-32.1,19.9-8.8,31.9,3.3C494,993.25,492.7,1005.85,485.1,1013.45Z" style="fill:#ededec"/><path d="M409.6,1225.65a62.41,62.41,0,0,0,0-87.7,61.08,61.08,0,0,0-86.9,0,62.41,62.41,0,0,0,0,87.7A61.08,61.08,0,0,0,409.6,1225.65Zm-61-62c7.7-7.8,19.6-8.5,31.8,3.8s11,24.5,3.5,32.1-19.9,8.8-31.9-3.3C339.7,1183.85,341.1,1171.25,348.6,1163.65Z" style="fill:#ededec"/><path d="M119.6,1225.65a61.08,61.08,0,0,0,86.9,0,62.41,62.41,0,0,0,0-87.7,61.08,61.08,0,0,0-86.9,0A62.41,62.41,0,0,0,119.6,1225.65Zm61.3-61.6c7.7,7.8,8.4,19.8-3.8,32.1s-24.3,11.1-31.8,3.5-8.7-20.1,3.3-32.2C160.9,1155.15,173.4,1156.45,180.9,1164.05Z" style="fill:#ededec"/></svg>