<?xml version="1.0" encoding="utf-8"?>
<!-- Generator: Adobe Illustrator 25.2.3, SVG Export Plug-In . SVG Version: 6.00 Build 0)  -->
<svg version="1.1" id="Layer_1" xmlns="http://www.w3.org/2000/svg" xmlns:xlink="http://www.w3.org/1999/xlink" x="0px" y="0px"
	 viewBox="0 0 224.4 2922.3" style="enable-background:new 0 0 224.4 2922.3;" xml:space="preserve">
<style type="text/css">
	.st0{fill:#EDEDEC;}
</style>
<path class="st0" d="M18,1411.6c24,24.2,62.9,24.2,86.9,0s24-63.5,0-87.7s-62.9-24.2-86.9,0S-6,1387.4,18,1411.6z M47,1382
	c-12-12.1-10.8-24.6-3.3-32.2s19.7-8.7,31.8,3.5c12.2,12.3,11.5,24.3,3.8,32.1C71.8,1393,59.3,1394.4,47,1382z"/>
<path class="st0" d="M206.4,1510.3c-24-24.2-62.9-24.2-86.9,0s-24,63.5,0,87.7s62.9,24.2,86.9,0S230.4,1534.5,206.4,1510.3z
	 M177.3,1539.9c12,12.1,10.8,24.6,3.3,32.2s-19.7,8.7-31.8-3.5c-12.2-12.3-11.5-24.3-3.8-32.1
	C152.6,1528.9,165.1,1527.5,177.3,1539.9z"/>
<path class="st0" d="M18,1784.4c24,24.2,62.9,24.2,86.9,0s24-63.5,0-87.7s-62.9-24.2-86.9,0C-6,1720.9-6,1760.2,18,1784.4z
	 M47,1754.8c-12-12.1-10.8-24.6-3.3-32.2s19.7-8.7,31.8,3.5c12.2,12.3,11.5,24.3,3.8,32.1C71.8,1765.8,59.3,1767.1,47,1754.8z"/>
<path class="st0" d="M206.4,1883.1c-24-24.2-62.9-24.2-86.9,0s-24,63.5,0,87.7s62.9,24.2,86.9,0
	C230.4,1946.6,230.4,1907.3,206.4,1883.1z M177.3,1912.7c12,12.1,10.8,24.6,3.3,32.2s-19.7,8.7-31.8-3.5
	c-12.2-12.3-11.5-24.3-3.8-32.1C152.6,1901.7,165.1,1900.3,177.3,1912.7z"/>
<path class="st0" d="M18,2157.2c24,24.2,62.9,24.2,86.9,0s24-63.5,0-87.7s-62.9-24.2-86.9,0S-6,2133,18,2157.2z M47,2127.6
	c-12-12.1-10.8-24.6-3.3-32.2s19.7-8.7,31.8,3.5c12.2,12.3,11.5,24.3,3.8,32.1C71.8,2138.6,59.3,2139.9,47,2127.6z"/>
<path class="st0" d="M206.4,2255.9c-24-24.2-62.9-24.2-86.9,0s-24,63.5,0,87.7s62.9,24.2,86.9,0
	C230.4,2319.3,230.4,2280.1,206.4,2255.9z M177.3,2285.5c12,12.1,10.8,24.6,3.3,32.2s-19.7,8.7-31.8-3.5
	c-12.2-12.3-11.5-24.3-3.8-32.1C152.6,2274.5,165.1,2273.1,177.3,2285.5z"/>
<path class="st0" d="M18,2531.4c24,24.2,62.9,24.2,86.9,0s24-63.5,0-87.7s-62.9-24.2-86.9,0S-6,2507.2,18,2531.4z M47,2501.8
	c-12-12.1-10.8-24.6-3.3-32.2s19.7-8.7,31.8,3.5c12.2,12.3,11.5,24.3,3.8,32.1C71.8,2512.8,59.3,2514.1,47,2501.8z"/>
<path class="st0" d="M206.4,2630.1c-24-24.2-62.9-24.2-86.9,0s-24,63.5,0,87.7s62.9,24.2,86.9,0
	C230.4,2693.5,230.4,2654.3,206.4,2630.1z M177.3,2659.7c12,12.1,10.8,24.6,3.3,32.2s-19.7,8.7-31.8-3.5
	c-12.2-12.3-11.5-24.3-3.8-32.1C152.6,2648.7,165.1,2647.3,177.3,2659.7z"/>
<path class="st0" d="M18,2904.1c24,24.2,62.9,24.2,86.9,0s24-63.5,0-87.7s-62.9-24.2-86.9,0C-6,2840.7-6,2879.9,18,2904.1z
	 M47,2874.6c-12-12.1-10.8-24.6-3.3-32.2s19.7-8.7,31.8,3.5c12.2,12.3,11.5,24.3,3.8,32.1C71.8,2885.6,59.3,2886.9,47,2874.6z"/>
<path class="st0" d="M206.4,18.2c-24-24.2-62.9-24.2-86.9,0s-24,63.5,0,87.7s62.9,24.2,86.9,0S230.4,42.4,206.4,18.2z M177.3,47.8
	c12,12.1,10.8,24.6,3.3,32.2s-19.7,8.6-31.7-3.5c-12.2-12.3-11.5-24.3-3.8-32.1C152.6,36.8,165.1,35.4,177.3,47.8z"/>
<path class="st0" d="M18,292.3c24,24.2,62.9,24.2,86.9,0c24-24.2,24-63.5,0-87.7s-62.9-24.2-86.9,0S-6,268,18,292.3z M47.1,262.7
	c-12-12.1-10.8-24.6-3.3-32.2s19.7-8.7,31.8,3.5c12.2,12.3,11.5,24.3,3.8,32.1C71.9,273.7,59.3,275,47.1,262.7z"/>
<path class="st0" d="M206.4,391c-24-24.2-62.9-24.2-86.9,0s-24,63.5,0,87.7s62.9,24.2,86.9,0C230.4,454.4,230.4,415.2,206.4,391z
	 M177.4,420.6c12,12.1,10.8,24.6,3.3,32.2s-19.7,8.7-31.8-3.5c-12.2-12.3-11.5-24.3-3.8-32.1C152.6,409.6,165.1,408.2,177.4,420.6z"
	/>
<path class="st0" d="M18,665c24,24.2,62.9,24.2,86.9,0s24-63.5,0-87.7s-62.9-24.2-86.9,0C-6,601.6-6,640.8,18,665z M47.1,635.4
	c-12-12.1-10.8-24.6-3.3-32.2s19.7-8.7,31.8,3.5c12.2,12.3,11.5,24.3,3.8,32.1C71.9,646.4,59.3,647.8,47.1,635.4z"/>
<path class="st0" d="M206.4,763.7c-24-24.2-62.9-24.2-86.9,0s-24,63.5,0,87.7s62.9,24.2,86.9,0S230.4,787.9,206.4,763.7z
	 M177.4,793.3c12,12.1,10.8,24.6,3.3,32.2s-19.7,8.7-31.8-3.5c-12.2-12.3-11.5-24.3-3.8-32.1C152.6,782.3,165.1,781,177.4,793.3z"/>
<path class="st0" d="M18,1039.2c24,24.2,62.9,24.2,86.9,0s24-63.5,0-87.7s-62.9-24.2-86.9,0C-6,975.8-6,1015,18,1039.2z
	 M47.1,1009.7c-12-12.1-10.8-24.6-3.3-32.2s19.7-8.7,31.8,3.5c12.2,12.3,11.5,24.3,3.8,32.1C71.9,1020.7,59.3,1022,47.1,1009.7z"/>
<path class="st0" d="M206.4,1138c-24-24.2-62.9-24.2-86.9,0s-24,63.5,0,87.7s62.9,24.2,86.9,0C230.4,1201.4,230.4,1162.2,206.4,1138
	z M177.4,1167.5c12,12.1,10.8,24.6,3.3,32.2s-19.7,8.7-31.8-3.5c-12.2-12.3-11.5-24.3-3.8-32.1
	C152.6,1156.5,165.1,1155.2,177.4,1167.5z"/>
</svg>
