<?xml version="1.0" encoding="utf-8"?>
<!-- Generator: Adobe Illustrator 25.2.3, SVG Export Plug-In . SVG Version: 6.00 Build 0)  -->
<svg version="1.1" id="Layer_1" xmlns="http://www.w3.org/2000/svg" xmlns:xlink="http://www.w3.org/1999/xlink" x="0px" y="0px"
	 viewBox="0 0 529.1 2922.2" style="enable-background:new 0 0 529.1 2922.2;" xml:space="preserve">
<style type="text/css">
	.st0{fill:#EDEDEC;}
</style>
<g>
	<path class="st0" d="M424.2,1323.8c-24,24.2-24,63.5,0,87.7s62.9,24.2,86.9,0c24-24.2,24-63.5,0-87.7
		C487.1,1299.6,448.2,1299.6,424.2,1323.8z M453.6,1353.2c12-12.1,24.4-10.9,31.9-3.3s8.6,19.9-3.5,32.1
		c-12.2,12.3-24.1,11.6-31.8,3.8C442.7,1378.1,441.3,1365.5,453.6,1353.2z"/>
	<path class="st0" d="M221.2,1411.5c24,24.2,62.9,24.2,86.9,0s24-63.5,0-87.7s-62.9-24.2-86.9,0S197.2,1387.3,221.2,1411.5z
		 M250.2,1381.9c-12-12.1-10.8-24.6-3.3-32.2s19.7-8.7,31.8,3.5c12.2,12.3,11.5,24.3,3.8,32.1C275,1392.9,262.5,1394.3,250.2,1381.9
		z"/>
	<path class="st0" d="M18,1323.8c-24,24.2-24,63.5,0,87.7c24,24.2,62.9,24.2,86.9,0s24-63.5,0-87.7
		C80.9,1299.6,42.1,1299.6,18,1323.8z M47.4,1353.2c12-12.1,24.4-10.9,31.9-3.3s8.6,19.9-3.5,32.1c-12.2,12.3-24.1,11.6-31.8,3.8
		C36.5,1378.1,35.1,1365.5,47.4,1353.2z"/>
	<path class="st0" d="M206.5,1597.9c24-24.2,24-63.5,0-87.7s-62.9-24.2-86.9,0s-24,63.5,0,87.7S182.5,1622.1,206.5,1597.9z
		 M177.1,1568.5c-12,12.1-24.4,10.9-31.9,3.3s-8.6-19.9,3.5-32.1c12.2-12.3,24.1-11.6,31.8-3.8
		C188.1,1543.5,189.4,1556.2,177.1,1568.5z"/>
	<path class="st0" d="M409.6,1510.2c-24-24.2-62.9-24.2-86.9,0s-24,63.5,0,87.7s62.9,24.2,86.9,0S433.6,1534.4,409.6,1510.2z
		 M380.5,1539.8c12,12.1,10.8,24.6,3.3,32.2s-19.7,8.7-31.8-3.5c-12.2-12.3-11.5-24.3-3.8-32.1
		C355.7,1528.8,368.3,1527.4,380.5,1539.8z"/>
	<path class="st0" d="M424.2,1696.6c-24,24.2-24,63.5,0,87.7s62.9,24.2,86.9,0c24-24.2,24-63.5,0-87.7
		C487.1,1672.4,448.2,1672.4,424.2,1696.6z M453.6,1725.9c12-12.1,24.4-10.9,31.9-3.3s8.6,19.9-3.5,32.1
		c-12.2,12.3-24.1,11.6-31.8,3.8C442.7,1750.9,441.3,1738.3,453.6,1725.9z"/>
	<path class="st0" d="M221.2,1784.3c24,24.2,62.9,24.2,86.9,0s24-63.5,0-87.7s-62.9-24.2-86.9,0
		C197.2,1720.8,197.2,1760.1,221.2,1784.3z M250.2,1754.7c-12-12.1-10.8-24.6-3.3-32.2s19.7-8.7,31.8,3.5
		c12.2,12.3,11.5,24.3,3.8,32.1C275,1765.8,262.5,1767,250.2,1754.7z"/>
	<path class="st0" d="M18,1696.6c-24,24.2-24,63.5,0,87.7c24,24.2,62.9,24.2,86.9,0s24-63.5,0-87.7S42,1672.4,18,1696.6z
		 M47.4,1725.9c12-12.1,24.4-10.9,31.9-3.3s8.6,19.9-3.5,32.1c-12.2,12.3-24.1,11.6-31.8,3.8C36.5,1750.9,35.1,1738.3,47.4,1725.9z"
		/>
	<path class="st0" d="M206.5,1970.8c24-24.2,24-63.5,0-87.7s-62.9-24.2-86.9,0s-24,63.5,0,87.7S182.5,1994.9,206.5,1970.8z
		 M177.1,1941.3c-12,12.1-24.4,10.9-31.9,3.3s-8.6-19.9,3.5-32.1c12.2-12.3,24.1-11.6,31.8-3.8
		C188.1,1916.3,189.4,1929,177.1,1941.3z"/>
	<path class="st0" d="M409.6,1883.1c-24-24.2-62.9-24.2-86.9,0s-24,63.5,0,87.7s62.9,24.2,86.9,0
		C433.6,1946.5,433.6,1907.2,409.6,1883.1z M380.5,1912.7c12,12.1,10.8,24.6,3.3,32.2s-19.7,8.7-31.8-3.5
		c-12.2-12.3-11.5-24.3-3.8-32.1C355.7,1901.6,368.3,1900.2,380.5,1912.7z"/>
	<path class="st0" d="M424.2,2069.4c-24,24.2-24,63.5,0,87.7s62.9,24.2,86.9,0c24-24.2,24-63.5,0-87.7
		C487.1,2045.1,448.2,2045.1,424.2,2069.4z M453.6,2098.7c12-12.1,24.4-10.9,31.9-3.3s8.6,19.9-3.5,32.1
		c-12.2,12.3-24.1,11.6-31.8,3.8C442.7,2123.8,441.3,2111.1,453.6,2098.7z"/>
	<path class="st0" d="M221.2,2157.1c24,24.2,62.9,24.2,86.9,0s24-63.5,0-87.7s-62.9-24.2-86.9,0S197.2,2132.9,221.2,2157.1z
		 M250.2,2127.5c-12-12.1-10.8-24.6-3.3-32.2s19.7-8.7,31.8,3.5c12.2,12.3,11.5,24.3,3.8,32.1C275,2138.6,262.5,2139.8,250.2,2127.5
		z"/>
	<path class="st0" d="M18,2069.4c-24,24.2-24,63.5,0,87.7c24,24.2,62.9,24.2,86.9,0s24-63.5,0-87.7
		C80.9,2045.1,42.1,2045.1,18,2069.4z M47.4,2098.7c12-12.1,24.4-10.9,31.9-3.3s8.6,19.9-3.5,32.1c-12.2,12.3-24.1,11.6-31.8,3.8
		C36.5,2123.8,35.1,2111.1,47.4,2098.7z"/>
	<path class="st0" d="M206.5,2343.6c24-24.2,24-63.5,0-87.7s-62.9-24.2-86.9,0s-24,63.5,0,87.7S182.5,2367.8,206.5,2343.6z
		 M177.1,2314.2c-12,12.1-24.4,10.9-31.9,3.3s-8.6-19.9,3.5-32.1c12.2-12.3,24.1-11.6,31.8-3.8
		C188.1,2289.1,189.4,2301.8,177.1,2314.2z"/>
	<path class="st0" d="M409.6,2255.9c-24-24.2-62.9-24.2-86.9,0s-24,63.5,0,87.7s62.9,24.2,86.9,0
		C433.6,2319.2,433.6,2280.1,409.6,2255.9z M380.5,2285.5c12,12.1,10.8,24.6,3.3,32.2s-19.7,8.7-31.8-3.5
		c-12.2-12.3-11.5-24.3-3.8-32.1C355.7,2274.4,368.3,2273.1,380.5,2285.5z"/>
	<path class="st0" d="M424.2,2443.6c-24,24.2-24,63.5,0,87.7s62.9,24.2,86.9,0c24-24.2,24-63.5,0-87.7
		C487.1,2419.3,448.2,2419.3,424.2,2443.6z M453.6,2472.9c12-12.1,24.4-10.9,31.9-3.3s8.6,19.9-3.5,32.1
		c-12.2,12.3-24.1,11.6-31.8,3.8C442.7,2497.9,441.3,2485.3,453.6,2472.9z"/>
	<path class="st0" d="M221.2,2531.3c24,24.2,62.9,24.2,86.9,0s24-63.5,0-87.7s-62.9-24.2-86.9,0S197.2,2507.1,221.2,2531.3z
		 M250.2,2501.7c-12-12.1-10.8-24.6-3.3-32.2s19.7-8.7,31.8,3.5c12.2,12.3,11.5,24.3,3.8,32.1C275,2512.8,262.5,2514.1,250.2,2501.7
		z"/>
	<path class="st0" d="M18,2443.6c-24,24.2-24,63.5,0,87.7c24,24.2,62.9,24.2,86.9,0s24-63.5,0-87.7
		C80.9,2419.3,42.1,2419.3,18,2443.6z M47.4,2472.9c12-12.1,24.4-10.9,31.9-3.3s8.6,19.9-3.5,32.1c-12.2,12.3-24.1,11.6-31.8,3.8
		C36.5,2497.9,35.1,2485.3,47.4,2472.9z"/>
	<path class="st0" d="M206.5,2717.8c24-24.2,24-63.5,0-87.7s-62.9-24.2-86.9,0s-24,63.5,0,87.7S182.5,2741.9,206.5,2717.8z
		 M177.1,2688.4c-12,12.1-24.4,10.9-31.9,3.3s-8.6-19.9,3.5-32.1c12.2-12.3,24.1-11.6,31.8-3.8
		C188.1,2663.3,189.4,2675.9,177.1,2688.4z"/>
	<path class="st0" d="M409.6,2630.1c-24-24.2-62.9-24.2-86.9,0s-24,63.5,0,87.7s62.9,24.2,86.9,0
		C433.6,2693.4,433.6,2654.2,409.6,2630.1z M380.5,2659.7c12,12.1,10.8,24.6,3.3,32.2s-19.7,8.7-31.8-3.5
		c-12.2-12.3-11.5-24.3-3.8-32.1C355.7,2648.6,368.3,2647.2,380.5,2659.7z"/>
	<path class="st0" d="M424.2,2816.3c-24,24.2-24,63.5,0,87.7s62.9,24.2,86.9,0c24-24.2,24-63.5,0-87.7
		C487.1,2792.1,448.2,2792.1,424.2,2816.3z M453.6,2845.7c12-12.1,24.4-10.9,31.9-3.3s8.6,19.9-3.5,32.1
		c-12.2,12.3-24.1,11.6-31.8,3.8C442.7,2870.8,441.3,2858.1,453.6,2845.7z"/>
	<path class="st0" d="M221.2,2904c24,24.2,62.9,24.2,86.9,0s24-63.5,0-87.7s-62.9-24.2-86.9,0C197.2,2840.6,197.2,2879.8,221.2,2904
		z M250.2,2874.5c-12-12.1-10.8-24.6-3.3-32.2s19.7-8.7,31.8,3.5c12.2,12.3,11.5,24.3,3.8,32.1
		C275,2885.6,262.5,2886.8,250.2,2874.5z"/>
	<path class="st0" d="M18,2816.3c-24,24.2-24,63.5,0,87.7c24,24.2,62.9,24.2,86.9,0s24-63.5,0-87.7S42.1,2792.1,18,2816.3z
		 M47.4,2845.7c12-12.1,24.4-10.9,31.9-3.3s8.6,19.9-3.5,32.1c-12.2,12.3-24.1,11.6-31.8,3.8C36.5,2870.8,35.1,2858.1,47.4,2845.7z"
		/>
	<path class="st0" d="M206.5,105.8c24-24.2,24-63.5,0-87.7s-62.9-24.2-86.9,0s-24,63.5,0,87.7S182.5,130.1,206.5,105.8z M177.2,76.4
		c-12,12.1-24.4,10.9-31.9,3.3c-7.5-7.6-8.6-19.9,3.5-32.1c12.2-12.3,24.1-11.6,31.8-3.8C188.1,51.4,189.5,64.1,177.2,76.4z"/>
	<path class="st0" d="M409.6,18.2c-24-24.2-62.9-24.2-86.9,0s-24,63.5,0,87.7s62.9,24.2,86.9,0S433.6,42.4,409.6,18.2z M380.6,47.7
		c12,12.1,10.8,24.6,3.3,32.2s-19.7,8.7-31.8-3.5c-12.2-12.3-11.5-24.3-3.8-32.1C355.8,36.7,368.3,35.3,380.6,47.7z"/>
	<path class="st0" d="M424.3,204.5c-24,24.2-24,63.5,0,87.7s62.9,24.2,86.9,0c24-24.2,24-63.5,0-87.7
		C487.2,180.2,448.3,180.2,424.3,204.5z M453.7,233.9c12-12.1,24.4-10.9,31.9-3.3s8.6,19.9-3.5,32.1c-12.2,12.3-24.1,11.6-31.8,3.8
		C442.7,258.8,441.4,246.2,453.7,233.9z"/>
	<path class="st0" d="M221.2,292.2c24,24.2,62.9,24.2,86.9,0c24-24.2,24-63.5,0-87.7s-62.9-24.2-86.9,0S197.2,267.9,221.2,292.2z
		 M250.3,262.6c-12-12.1-10.8-24.6-3.3-32.2s19.7-8.7,31.8,3.5c12.2,12.3,11.5,24.3,3.8,32.1C275,273.6,262.5,274.9,250.3,262.6z"/>
	<path class="st0" d="M18.1,204.5c-24,24.2-24,63.5,0,87.7s62.9,24.2,86.9,0c24-24.2,24-63.5,0-87.7C81,180.2,42.1,180.3,18.1,204.5
		z M47.5,233.9c12-12.1,24.4-10.9,31.9-3.3s8.6,19.9-3.5,32.1c-12.2,12.3-24.1,11.6-31.8,3.8C36.5,258.8,35.2,246.2,47.5,233.9z"/>
	<path class="st0" d="M206.5,478.6c24-24.2,24-63.5,0-87.7s-62.9-24.2-86.9,0s-24,63.5,0,87.7C143.6,502.8,182.5,502.8,206.5,478.6z
		 M177.2,449.2c-12,12.1-24.4,10.9-31.9,3.3s-8.6-19.9,3.5-32.1c12.2-12.3,24.1-11.6,31.8-3.8C188.1,424.2,189.5,436.8,177.2,449.2z
		"/>
	<path class="st0" d="M409.6,390.9c-24-24.2-62.9-24.2-86.9,0s-24,63.5,0,87.7s62.9,24.2,86.9,0
		C433.6,454.3,433.6,415.1,409.6,390.9z M380.6,420.5c12,12.1,10.8,24.6,3.3,32.2s-19.7,8.7-31.8-3.5c-12.2-12.3-11.5-24.3-3.8-32.1
		C355.8,409.5,368.3,408.1,380.6,420.5z"/>
	<path class="st0" d="M424.3,577.2c-24,24.2-24,63.5,0,87.7s62.9,24.2,86.9,0c24-24.2,24-63.5,0-87.7
		C487.2,553,448.3,553,424.3,577.2z M453.7,606.7c12-12.1,24.4-10.9,31.9-3.3s8.6,19.9-3.5,32.1c-12.2,12.3-24.1,11.6-31.8,3.8
		C442.7,631.7,441.4,619,453.7,606.7z"/>
	<path class="st0" d="M221.2,665c24,24.2,62.9,24.2,86.9,0s24-63.5,0-87.7s-62.9-24.2-86.9,0C197.2,601.5,197.2,640.8,221.2,665z
		 M250.3,635.4c-12-12.1-10.8-24.6-3.3-32.2s19.7-8.7,31.8,3.5c12.2,12.3,11.5,24.3,3.8,32.1C275,646.4,262.5,647.8,250.3,635.4z"/>
	<path class="st0" d="M18.1,577.2c-24,24.2-24,63.5,0,87.7s62.9,24.2,86.9,0s24-63.5,0-87.7S42.1,553,18.1,577.2z M47.5,606.7
		c12-12.1,24.4-10.9,31.9-3.3s8.6,19.9-3.5,32.1c-12.2,12.3-24.1,11.6-31.8,3.8C36.5,631.7,35.2,619,47.5,606.7z"/>
	<path class="st0" d="M206.5,851.4c24-24.2,24-63.5,0-87.7s-62.9-24.2-86.9,0s-24,63.5,0,87.7C143.6,875.7,182.5,875.6,206.5,851.4z
		 M177.2,822c-12,12.1-24.4,10.9-31.9,3.3s-8.6-19.9,3.5-32.1c12.2-12.3,24.1-11.6,31.8-3.8C188.1,797,189.5,809.7,177.2,822z"/>
	<path class="st0" d="M409.6,763.7c-24-24.2-62.9-24.2-86.9,0s-24,63.5,0,87.7s62.9,24.2,86.9,0S433.6,787.9,409.6,763.7z
		 M380.6,793.2c12,12.1,10.8,24.6,3.3,32.2s-19.7,8.7-31.8-3.5c-12.2-12.3-11.5-24.3-3.8-32.1C355.8,782.2,368.3,781,380.6,793.2z"
		/>
	<path class="st0" d="M424.3,951.4c-24,24.2-24,63.5,0,87.7s62.9,24.2,86.9,0c24-24.2,24-63.5,0-87.7
		C487.2,927.2,448.3,927.2,424.3,951.4z M453.7,980.9c12-12.1,24.4-10.9,31.9-3.3s8.6,19.9-3.5,32.1c-12.2,12.3-24.1,11.6-31.8,3.8
		C442.7,1005.9,441.4,993.2,453.7,980.9z"/>
	<path class="st0" d="M221.2,1039.1c24,24.2,62.9,24.2,86.9,0c24-24.2,24-63.5,0-87.7s-62.9-24.2-86.9,0
		C197.2,975.8,197.2,1015,221.2,1039.1z M250.3,1009.7c-12-12.1-10.8-24.6-3.3-32.2s19.7-8.7,31.8,3.5c12.2,12.3,11.5,24.3,3.8,32.1
		C275,1020.7,262.5,1022,250.3,1009.7z"/>
	<path class="st0" d="M18.1,951.4c-24,24.2-24,63.5,0,87.7s62.9,24.2,86.9,0c24-24.2,24-63.5,0-87.7S42.1,927.2,18.1,951.4z
		 M47.5,980.9c12-12.1,24.4-10.9,31.9-3.3s8.6,19.9-3.5,32.1c-12.2,12.3-24.1,11.6-31.8,3.8C36.5,1005.9,35.2,993.2,47.5,980.9z"/>
	<path class="st0" d="M206.5,1225.6c24-24.2,24-63.5,0-87.7s-62.9-24.2-86.9,0s-24,63.5,0,87.7
		C143.6,1249.8,182.5,1249.8,206.5,1225.6z M177.2,1196.2c-12,12.1-24.4,10.9-31.9,3.3s-8.6-19.9,3.5-32.1
		c12.2-12.3,24.1-11.6,31.8-3.8C188.1,1171.2,189.5,1183.8,177.2,1196.2z"/>
	<path class="st0" d="M409.6,1137.9c-24-24.2-62.9-24.2-86.9,0s-24,63.5,0,87.7s62.9,24.2,86.9,0
		C433.6,1201.3,433.6,1162.1,409.6,1137.9z M380.6,1167.4c12,12.1,10.8,24.6,3.3,32.2s-19.7,8.7-31.8-3.5
		c-12.2-12.3-11.5-24.3-3.8-32.1C355.8,1156.4,368.3,1155.1,380.6,1167.4z"/>
</g>
</svg>
