<?xml version="1.0" encoding="utf-8"?>
<!-- Generator: Adobe Illustrator 25.2.3, SVG Export Plug-In . SVG Version: 6.00 Build 0)  -->
<svg version="1.1" id="Layer_1" xmlns="http://www.w3.org/2000/svg" xmlns:xlink="http://www.w3.org/1999/xlink" x="0px" y="0px"
	 viewBox="0 0 224.4 2922.3" style="enable-background:new 0 0 224.4 2922.3;" xml:space="preserve">
<style type="text/css">
	.st0{fill:#3c3c3c;}
</style>
<path class="st0" d="M206.4,1323.9c-24-24.2-62.9-24.2-86.9,0s-24,63.5,0,87.7s62.9,24.2,86.9,0S230.4,1348.1,206.4,1323.9z
	 M145.1,1385.4c-7.7-7.8-8.4-19.8,3.8-32.1c12.1-12.2,24.3-11.1,31.8-3.5s8.7,20.1-3.3,32.2C165.1,1394.4,152.6,1393,145.1,1385.4z"
	/>
<path class="st0" d="M18,1598c24,24.2,62.9,24.2,86.9,0s24-63.5,0-87.7s-62.9-24.2-86.9,0S-6,1573.8,18,1598z M79.4,1536.5
	c7.7,7.8,8.4,19.8-3.8,32.1c-12.1,12.2-24.3,11.1-31.8,3.5s-8.7-20.1,3.3-32.2C59.3,1527.5,71.8,1528.9,79.4,1536.5z"/>
<path class="st0" d="M206.4,1696.7c-24-24.2-62.9-24.2-86.9,0s-24,63.5,0,87.7s62.9,24.2,86.9,0S230.4,1720.9,206.4,1696.7z
	 M145.1,1758.2c-7.7-7.8-8.4-19.8,3.8-32.1c12.1-12.2,24.3-11.1,31.8-3.5s8.7,20.1-3.3,32.2C165.1,1767.1,152.6,1765.8,145.1,1758.2
	z"/>
<path class="st0" d="M18,1970.8c24,24.2,62.9,24.2,86.9,0s24-63.5,0-87.7s-62.9-24.2-86.9,0S-6,1946.6,18,1970.8z M79.4,1909.3
	c7.7,7.8,8.4,19.8-3.8,32.1c-12.1,12.2-24.3,11.1-31.8,3.5s-8.7-20.1,3.3-32.2C59.3,1900.3,71.8,1901.7,79.4,1909.3z"/>
<path class="st0" d="M206.4,2069.5c-24-24.2-62.9-24.2-86.9,0s-24,63.5,0,87.7s62.9,24.2,86.9,0S230.4,2093.7,206.4,2069.5z
	 M145.1,2131c-7.7-7.8-8.4-19.8,3.8-32.1c12.1-12.2,24.3-11.1,31.8-3.5s8.7,20.1-3.3,32.2C165.1,2139.9,152.6,2138.6,145.1,2131z"/>
<path class="st0" d="M18,2343.6c24,24.2,62.9,24.2,86.9,0s24-63.5,0-87.7s-62.9-24.2-86.9,0S-6,2319.3,18,2343.6z M79.4,2282.1
	c7.7,7.8,8.4,19.8-3.8,32.1c-12.1,12.2-24.3,11.1-31.8,3.5s-8.7-20.1,3.3-32.2C59.3,2273.1,71.8,2274.5,79.4,2282.1z"/>
<path class="st0" d="M206.4,2443.7c-24-24.2-62.9-24.2-86.9,0s-24,63.5,0,87.7s62.9,24.2,86.9,0S230.4,2467.9,206.4,2443.7z
	 M145.1,2505.2c-7.7-7.8-8.4-19.8,3.8-32.1c12.1-12.2,24.3-11.1,31.8-3.5s8.7,20.1-3.3,32.2C165.1,2514.1,152.6,2512.8,145.1,2505.2
	z"/>
<path class="st0" d="M18,2717.8c24,24.2,62.9,24.2,86.9,0s24-63.5,0-87.7s-62.9-24.2-86.9,0S-6,2693.5,18,2717.8z M79.4,2656.3
	c7.7,7.8,8.4,19.8-3.8,32.1c-12.1,12.2-24.3,11.1-31.8,3.5s-8.7-20.1,3.3-32.2C59.3,2647.3,71.8,2648.7,79.4,2656.3z"/>
<path class="st0" d="M206.4,2816.4c-24-24.2-62.9-24.2-86.9,0s-24,63.5,0,87.7s62.9,24.2,86.9,0S230.4,2840.7,206.4,2816.4z
	 M145.1,2878c-7.7-7.8-8.4-19.8,3.8-32.1c12.1-12.2,24.3-11.1,31.8-3.5s8.7,20.1-3.3,32.2C165.1,2886.9,152.6,2885.6,145.1,2878z"/>
<path class="st0" d="M18,105.9c24,24.2,62.9,24.2,86.9,0s24-63.5,0-87.7S42-6,18,18.2S-6,81.7,18,105.9z M79.3,44.4
	c7.7,7.8,8.4,19.8-3.8,32.1c-12,12.1-24.2,11.1-31.7,3.5s-8.7-20.1,3.3-32.2C59.3,35.4,71.8,36.8,79.3,44.4z"/>
<path class="st0" d="M206.4,204.6c-24-24.2-62.9-24.2-86.9,0s-24,63.5,0,87.7c24,24.2,62.9,24.2,86.9,0
	C230.4,268,230.4,228.8,206.4,204.6z M145,266.1c-7.7-7.8-8.4-19.8,3.8-32.1c12.1-12.2,24.3-11.1,31.8-3.5s8.7,20.1-3.3,32.2
	C165.1,275,152.5,273.7,145,266.1z"/>
<path class="st0" d="M18,478.7c24,24.2,62.9,24.2,86.9,0s24-63.5,0-87.7S42,366.8,18,391S-6,454.4,18,478.7z M79.3,417.2
	c7.7,7.8,8.4,19.8-3.8,32.1c-12.1,12.2-24.3,11.1-31.8,3.5S35,432.7,47,420.6C59.3,408.2,71.8,409.6,79.3,417.2z"/>
<path class="st0" d="M206.4,577.3c-24-24.2-62.9-24.2-86.9,0s-24,63.5,0,87.7s62.9,24.2,86.9,0S230.4,601.6,206.4,577.3z M145,638.8
	c-7.7-7.8-8.4-19.8,3.8-32.1c12.1-12.2,24.3-11.1,31.8-3.5s8.7,20.1-3.3,32.2C165.1,647.8,152.5,646.4,145,638.8z"/>
<path class="st0" d="M18,851.4c24,24.2,62.9,24.2,86.9,0s24-63.5,0-87.7s-62.9-24.2-86.9,0S-6,827.2,18,851.4z M79.3,789.9
	c7.7,7.8,8.4,19.8-3.8,32.1c-12.1,12.2-24.3,11.1-31.8,3.5S35,805.4,47,793.3C59.3,781,71.8,782.3,79.3,789.9z"/>
<path class="st0" d="M206.4,951.5c-24-24.2-62.9-24.2-86.9,0s-24,63.5,0,87.7s62.9,24.2,86.9,0S230.4,975.8,206.4,951.5z
	 M145,1013.1c-7.7-7.8-8.4-19.8,3.8-32.1c12.1-12.2,24.3-11.1,31.8-3.5s8.7,20.1-3.3,32.2C165.1,1022,152.5,1020.7,145,1013.1z"/>
<path class="st0" d="M18,1225.7c24,24.2,62.9,24.2,86.9,0s24-63.5,0-87.7s-62.9-24.2-86.9,0S-6,1201.4,18,1225.7z M79.3,1164.1
	c7.7,7.8,8.4,19.8-3.8,32.1c-12.1,12.2-24.3,11.1-31.8,3.5s-8.7-20.1,3.3-32.2C59.3,1155.2,71.8,1156.5,79.3,1164.1z"/>
</svg>
