<svg xmlns="http://www.w3.org/2000/svg" xmlns:xlink="http://www.w3.org/1999/xlink" viewBox="0 0 718 584"><defs><clipPath id="clip-path"><rect x="134.88" y="149.28" width="443.23" height="278.81" rx="5.11" style="fill:none"/></clipPath><clipPath id="clip-path-2"><rect x="87.06" y="126.3" width="524.19" height="295.23" style="fill:none"/></clipPath><clipPath id="clip-path-3"><path d="M264.45,399a1.81,1.81,0,0,0,.6-2.17.93.93,0,0,0-.74-.59l.55-.6a1,1,0,0,0,.23-.37c.07-.33-.23-.6-.38-.9a1.1,1.1,0,0,1,.23-1.28,1.08,1.08,0,0,0,.31-.33c.11-.24-.07-.51-.24-.72l-.33.09c-.09-.35.56-.51.55-.87s-.67-.47-.62-.83c0-.18.23-.27.32-.43s0-.53-.07-.79.08-.65.34-.6H259V399Z" style="fill:none"/></clipPath><clipPath id="clip-path-4"><path d="M264.28,337a1.81,1.81,0,0,0,.6-2.18.9.9,0,0,0-.74-.58l.55-.61a.8.8,0,0,0,.23-.37c.07-.32-.23-.6-.38-.89a1.11,1.11,0,0,1,.23-1.29c.11-.1.25-.18.31-.32s-.06-.52-.24-.72l-.33.08c-.09-.35.56-.5.55-.86s-.66-.47-.61-.83c0-.18.22-.28.31-.44s0-.52-.06-.79.07-.64.33-.59h-6.25V337Z" style="fill:none"/></clipPath><clipPath id="clip-path-5"><path d="M305.52,368.16a1.81,1.81,0,0,0,.6-2.18.9.9,0,0,0-.74-.58l.55-.61a.89.89,0,0,0,.23-.37c.07-.32-.23-.59-.38-.89a1.1,1.1,0,0,1,.23-1.28c.11-.11.25-.19.31-.33s-.07-.52-.24-.72l-.33.08c-.09-.35.56-.5.55-.86s-.67-.47-.62-.83c0-.18.23-.28.32-.43s0-.53-.07-.79.08-.65.34-.6H300v10.39Z" style="fill:none"/></clipPath><clipPath id="clip-path-6"><path d="M305.52,399a1.8,1.8,0,0,0,.6-2.17.93.93,0,0,0-.74-.59l.55-.6a1,1,0,0,0,.23-.37c.07-.33-.23-.6-.38-.9a1.1,1.1,0,0,1,.23-1.28,1.08,1.08,0,0,0,.31-.33c.11-.24-.07-.51-.24-.72l-.33.09c-.09-.35.56-.51.55-.87s-.67-.47-.62-.83c0-.18.23-.27.32-.43s0-.53-.07-.79.08-.65.34-.6H300V399Z" style="fill:none"/></clipPath><clipPath id="clip-path-7"><path d="M346.85,399a1.81,1.81,0,0,0,.6-2.17.93.93,0,0,0-.74-.59l.54-.6a1,1,0,0,0,.24-.37c.07-.33-.23-.6-.38-.9a1.1,1.1,0,0,1,.22-1.28,1.26,1.26,0,0,0,.32-.33c.1-.24-.07-.51-.24-.72l-.33.09c-.09-.35.56-.51.55-.87s-.67-.47-.62-.83c0-.18.23-.27.32-.43s0-.53-.07-.79.07-.65.34-.6h-6.26V399Z" style="fill:none"/></clipPath><clipPath id="clip-path-8"><path d="M346.94,337a1.81,1.81,0,0,0,.6-2.17.93.93,0,0,0-.74-.59l.54-.6a1,1,0,0,0,.24-.37c.07-.33-.23-.6-.38-.9a1.1,1.1,0,0,1,.22-1.28,1.12,1.12,0,0,0,.32-.33c.11-.24-.07-.51-.24-.72l-.33.09c-.09-.35.56-.51.55-.87s-.67-.47-.62-.83c0-.18.23-.27.32-.43s0-.53-.07-.79.07-.65.34-.6h-6.26V337Z" style="fill:none"/></clipPath></defs><g style="isolation:isolate"><g id="Layer_1" data-name="Layer 1"><rect width="718" height="584" style="fill:#ef7b13"/><ellipse cx="359" cy="461.77" rx="293.11" ry="5.87" style="fill:#9c7f77;mix-blend-mode:multiply;opacity:0.4"/><rect x="108.76" y="126.3" width="492.99" height="320.44" rx="16.89" style="fill:#fff;stroke:#333;stroke-miterlimit:10;stroke-width:3px"/><rect x="134.88" y="149.28" width="443.23" height="278.81" rx="5.11" style="fill:none;stroke:#333;stroke-miterlimit:10;stroke-width:2px"/><path d="M66.7,446.73a.81.81,0,0,0-.81.81v3.68l48.92,6.12a47.93,47.93,0,0,0,5.87.36H597.32a47.93,47.93,0,0,0,5.87-.36l48.92-6.12v-3.68a.81.81,0,0,0-.81-.81Z" style="fill:#fff;stroke:#333;stroke-miterlimit:10;stroke-width:3px"/><g style="clip-path:url(#clip-path)"><rect x="87.23" y="126.54" width="524.03" height="294.99" style="fill:#9bd7f6"/><path d="M87.06,144.64V403.75H611.25V144.64ZM152.55,276H112.89V236.35h39.66Zm0-46.86H112.89V189.49h39.66ZM199.13,276H159.47V236.35h39.66Zm0-46.86H159.47V189.49h39.66ZM538.82,276H499.16V236.35h39.66Zm0-46.86H499.16V189.49h39.66ZM585.4,276H545.74V236.35H585.4Zm0-46.86H545.74V189.49H585.4Z" style="fill:#fff"/><rect x="87.83" y="385.05" width="523.42" height="27.87" style="fill:#d85409"/><polygon points="611.25 432.4 87.06 432.92 87.83 403.75 611.25 403.75 611.25 432.4" style="fill:#c6c6c6"/><circle cx="260.25" cy="191.97" r="19.89" style="fill:#fff;stroke:#4c565b;stroke-miterlimit:10;stroke-width:1.8019611686191264px"/><path d="M248.43,180.15a16.71,16.71,0,0,0,0,23.64L260.25,192Z" style="fill:#f2f2f2"/><path d="M272.07,180.15a16.71,16.71,0,0,0-23.64,0L260.25,192Z" style="fill:#e6e6e6"/><path d="M272.07,180.15,260.25,192l11.82,11.82A16.71,16.71,0,0,0,272.07,180.15Z" style="fill:#f2f2f2"/><path d="M272.07,203.79,260.25,192l-11.82,11.82A16.73,16.73,0,0,0,272.07,203.79Z" style="fill:#e6e6e6"/><circle cx="260.25" cy="191.97" r="10.03" style="fill:#fff"/><circle cx="260.25" cy="191.97" r="2.15" style="fill:#ef7b10"/><line x1="260.25" y1="191.97" x2="267.52" y2="189.16" style="fill:none;stroke:#ef7b10;stroke-linecap:round;stroke-linejoin:round;stroke-width:1.3410718548486282px"/><line x1="260.25" y1="191.97" x2="251.9" y2="183.61" style="fill:none;stroke:#ef7b10;stroke-linecap:round;stroke-linejoin:round;stroke-width:1.3410718548486282px"/><line x1="260.25" y1="176.32" x2="260.25" y2="177.84" style="fill:none;stroke:#4c565b;stroke-linecap:round;stroke-linejoin:round;stroke-width:0.4211602305339195px"/><line x1="275.9" y1="191.97" x2="274.38" y2="191.97" style="fill:none;stroke:#4c565b;stroke-linecap:round;stroke-linejoin:round;stroke-width:0.4211602305339195px"/><line x1="244.61" y1="191.97" x2="246.12" y2="191.97" style="fill:none;stroke:#4c565b;stroke-linecap:round;stroke-linejoin:round;stroke-width:0.4211602305339195px"/><line x1="249.19" y1="180.9" x2="250.26" y2="181.98" style="fill:none;stroke:#4c565b;stroke-linecap:round;stroke-linejoin:round;stroke-width:0.4211602305339195px"/><line x1="271.31" y1="180.9" x2="270.24" y2="181.98" style="fill:none;stroke:#4c565b;stroke-linecap:round;stroke-linejoin:round;stroke-width:0.4211602305339195px"/><line x1="254.26" y1="177.51" x2="254.84" y2="178.91" style="fill:none;stroke:#4c565b;stroke-linecap:round;stroke-linejoin:round;stroke-width:0.7019337175565332px"/><line x1="274.7" y1="185.98" x2="273.31" y2="186.56" style="fill:none;stroke:#4c565b;stroke-linecap:round;stroke-linejoin:round;stroke-width:0.7019337175565332px"/><line x1="245.8" y1="185.98" x2="247.2" y2="186.56" style="fill:none;stroke:#4c565b;stroke-linecap:round;stroke-linejoin:round;stroke-width:0.7019337175565332px"/><line x1="266.24" y1="177.51" x2="265.66" y2="178.91" style="fill:none;stroke:#4c565b;stroke-linecap:round;stroke-linejoin:round;stroke-width:0.7019337175565332px"/><line x1="260.25" y1="207.61" x2="260.25" y2="206.1" style="fill:none;stroke:#4c565b;stroke-linecap:round;stroke-linejoin:round;stroke-width:0.4211602305339195px"/><line x1="271.31" y1="203.03" x2="270.24" y2="201.96" style="fill:none;stroke:#4c565b;stroke-linecap:round;stroke-linejoin:round;stroke-width:0.4211602305339195px"/><line x1="249.19" y1="203.03" x2="250.26" y2="201.96" style="fill:none;stroke:#4c565b;stroke-linecap:round;stroke-linejoin:round;stroke-width:0.4211602305339195px"/><line x1="266.24" y1="206.42" x2="265.66" y2="205.02" style="fill:none;stroke:#4c565b;stroke-linecap:round;stroke-linejoin:round;stroke-width:0.7019337175565332px"/><line x1="245.8" y1="197.95" x2="247.2" y2="197.37" style="fill:none;stroke:#4c565b;stroke-linecap:round;stroke-linejoin:round;stroke-width:0.7019337175565332px"/><line x1="274.7" y1="197.95" x2="273.31" y2="197.37" style="fill:none;stroke:#4c565b;stroke-linecap:round;stroke-linejoin:round;stroke-width:0.7019337175565332px"/><line x1="254.26" y1="206.42" x2="254.84" y2="205.02" style="fill:none;stroke:#4c565b;stroke-linecap:round;stroke-linejoin:round;stroke-width:0.7019337175565332px"/><rect x="233.24" y="221.85" width="53.72" height="69.27" style="fill:#59595b;mix-blend-mode:multiply;opacity:0.4"/><rect x="231.11" y="220.43" width="54.22" height="68.82" style="fill:#59595b"/><polygon points="234.12 223.53 231.11 220.43 231.11 289.25 234.12 286.14 234.12 223.53" style="fill:#6d6e71"/><polygon points="282.32 223.53 285.33 220.43 285.33 289.25 282.32 286.14 282.32 223.53" style="fill:#6d6e71"/><rect x="234.12" y="223.53" width="48.2" height="62.6" style="fill:#fff"/><rect x="242" y="280.62" width="31.69" height="0.56" style="fill:#babcbe"/><rect x="242" y="278.93" width="31.69" height="0.56" style="fill:#babcbe"/><rect x="303.74" y="174.02" width="163.47" height="117.66" style="fill:#59595b;mix-blend-mode:multiply;opacity:0.4"/><rect x="301.61" y="172.59" width="163.97" height="117.21" style="fill:#59595b"/><polygon points="304.62 175.7 301.61 172.59 301.61 289.8 304.62 286.69 304.62 175.7" style="fill:#6d6e71"/><polygon points="462.57 175.7 465.58 172.59 465.58 289.8 462.57 286.69 462.57 175.7" style="fill:#6d6e71"/><rect x="304.61" y="175.7" width="157.95" height="110.99" style="fill:#fff"/><g style="opacity:0.5"><rect x="395.97" y="182.16" width="24.01" height="7.38" style="fill:#ededed"/><rect x="432.66" y="182.16" width="24.01" height="7.38" style="fill:#ededed"/><rect x="304.12" y="202.26" width="20.85" height="7.64" transform="translate(520.62 -108.47) rotate(90)" style="fill:#ededed"/><rect x="304.12" y="234.12" width="20.85" height="7.64" transform="translate(552.49 -76.61) rotate(90)" style="fill:#ededed"/><rect x="304.12" y="265.98" width="20.85" height="7.64" transform="translate(584.35 -44.74) rotate(90)" style="fill:#ededed"/><line x1="310.73" y1="222.11" x2="456.67" y2="222.11" style="fill:none;stroke:#ccc;stroke-miterlimit:10;stroke-width:1.8782450861780426px"/><line x1="310.73" y1="254.24" x2="456.67" y2="254.24" style="fill:none;stroke:#ccc;stroke-miterlimit:10;stroke-width:1.8782450861780426px"/><line x1="389.63" y1="182.16" x2="389.63" y2="280.21" style="fill:none;stroke:#ccc;stroke-miterlimit:10;stroke-width:1.7707813693034176px"/><line x1="426.09" y1="182.16" x2="426.09" y2="280.21" style="fill:none;stroke:#ccc;stroke-miterlimit:10;stroke-width:1.7707813693034176px"/><rect x="323.48" y="182.16" width="24.01" height="7.38" style="fill:#ededed"/><rect x="360.17" y="182.16" width="24.01" height="7.38" style="fill:#ededed"/><line x1="353.6" y1="182.16" x2="353.6" y2="280.21" style="fill:none;stroke:#ccc;stroke-miterlimit:10;stroke-width:1.7707813693034176px"/><rect x="323.48" y="195.65" width="24.01" height="1.2" style="fill:#dadada"/><rect x="323.48" y="198.23" width="24.01" height="1.2" style="fill:#dadada"/><rect x="323.48" y="200.81" width="24.01" height="1.2" style="fill:#dadada"/><rect x="323.48" y="203.39" width="24.01" height="1.2" style="fill:#dadada"/><rect x="323.48" y="205.97" width="24.01" height="1.2" style="fill:#dadada"/><rect x="323.48" y="208.55" width="24.01" height="1.2" style="fill:#dadada"/><rect x="323.48" y="211.13" width="17.63" height="1.2" style="fill:#dadada"/><rect x="359.58" y="226.49" width="24.01" height="1.2" style="fill:#dadada"/><rect x="359.58" y="229.07" width="24.01" height="1.2" style="fill:#dadada"/><rect x="359.58" y="231.65" width="24.01" height="1.2" style="fill:#dadada"/><rect x="359.58" y="234.23" width="24.01" height="1.2" style="fill:#dadada"/><rect x="359.58" y="236.81" width="24.01" height="1.2" style="fill:#dadada"/><rect x="359.58" y="239.39" width="13.26" height="1.2" style="fill:#dadada"/><rect x="395.97" y="195.65" width="24.01" height="1.2" style="fill:#dadada"/><rect x="395.97" y="198.23" width="24.01" height="1.2" style="fill:#dadada"/><rect x="395.97" y="200.81" width="24.01" height="1.2" style="fill:#dadada"/><rect x="395.97" y="203.39" width="5.78" height="1.2" style="fill:#dadada"/></g><rect x="236.01" y="240.58" width="15.57" height="22.3" style="fill:#e6e6e6"/><rect x="264.57" y="225.75" width="15.57" height="22.3" style="fill:#e6e6e6"/><rect x="254.58" y="240.58" width="7.68" height="7.68" style="fill:#e6e6e6"/><rect x="254.58" y="250.57" width="7.68" height="7.68" style="fill:#e6e6e6"/><rect x="265.1" y="250.57" width="7.68" height="7.68" style="fill:#e6e6e6"/><rect x="261.89" y="266.99" width="7.68" height="7.68" style="fill:#e6e6e6"/><rect x="272.41" y="266.99" width="7.68" height="7.68" style="fill:#e6e6e6"/><rect x="251.58" y="266.99" width="7.68" height="7.68" style="fill:#e6e6e6"/><g style="opacity:0.30000000000000004"><path d="M368.93,261.83l1.26,3.19a6.1,6.1,0,0,0-4.21,5.53l-3.43.15A9.53,9.53,0,0,1,368.93,261.83Z" style="fill:#9c0"/><path d="M370.52,276.73l-.63,3.37a9.49,9.49,0,0,1-3.92-2l2.52-2.37A5.93,5.93,0,0,0,370.52,276.73Z" style="fill:#d85409"/><path d="M377.55,273.51l2.77,2.08a9.51,9.51,0,0,1-8.25,4.76,9.78,9.78,0,0,1-2.18-.25l.63-3.37a6.1,6.1,0,0,0,7-3.22Z" style="fill:#ef7b10"/><path d="M380.48,266.35a9.5,9.5,0,0,1-.16,9.24l-2.77-2.08a6.11,6.11,0,0,0-.4-6.06Z" style="fill:#26aece"/><path d="M380.48,266.35l-3.33,1.1a6.1,6.1,0,0,0-5.08-2.73,6.17,6.17,0,0,0-1.88.3l-1.26-3.19a9.54,9.54,0,0,1,11.55,4.52Z" style="fill:#004899"/></g><g style="opacity:0.30000000000000004"><rect x="447.28" y="204.81" width="2.53" height="8.64" style="fill:#9c0"/><rect x="442.99" y="206.45" width="2.53" height="7" style="fill:#26aece"/><rect x="438.69" y="207.57" width="2.53" height="5.87" style="fill:#004899"/><rect x="434.4" y="208.26" width="2.53" height="5.19" style="fill:#d85409"/><rect x="451.57" y="202.9" width="2.53" height="10.55" style="fill:#ef7b10"/><path d="M433.74,205.5h-.21l0-.42a28.87,28.87,0,0,0,6.39-.76,33.57,33.57,0,0,0,13.34-6.24l.4.29a34.21,34.21,0,0,1-13.61,6.35A30.57,30.57,0,0,1,433.74,205.5Z" style="fill:#d1d3d4"/><polygon points="454.98 196.85 451.75 197.76 453.94 200.13 454.98 196.85" style="fill:#d1d3d4"/></g><g style="opacity:0.30000000000000004"><rect x="328.39" y="227.85" width="0.12" height="21.28" style="fill:#d1d3d4"/><rect x="331.93" y="227.85" width="0.12" height="21.28" style="fill:#d1d3d4"/><rect x="335.48" y="227.85" width="0.12" height="21.28" style="fill:#d1d3d4"/><rect x="339.03" y="227.85" width="0.12" height="21.28" style="fill:#d1d3d4"/><rect x="342.57" y="227.85" width="0.12" height="21.28" style="fill:#d1d3d4"/><rect x="324.9" y="231.34" width="21.28" height="0.12" style="fill:#d1d3d4"/><rect x="324.9" y="234.89" width="21.28" height="0.12" style="fill:#d1d3d4"/><rect x="324.9" y="238.43" width="21.28" height="0.12" style="fill:#d1d3d4"/><rect x="324.9" y="241.98" width="21.28" height="0.12" style="fill:#d1d3d4"/><rect x="324.9" y="245.53" width="21.28" height="0.12" style="fill:#d1d3d4"/><path d="M346.41,249.36H324.67V227.62h21.74Zm-21.28-.46h20.81V228.09H325.13Z" style="fill:#d1d3d4"/><rect x="335.36" y="237.95" width="2.69" height="0.35" transform="translate(-68.8 313.24) rotate(-45.76)" style="fill:#d85409"/><polygon points="327.84 245.22 327.69 245.13 327.55 245.03 327.56 245.02 330.88 240.43 331.16 240.63 327.84 245.22" style="fill:#d85409"/><rect x="332.11" y="239.59" width="2.51" height="0.35" transform="translate(-22.23 34.4) rotate(-5.72)" style="fill:#d85409"/><polygon points="340.91 238.99 338.66 237.24 338.88 236.97 340.88 238.53 344.17 235.28 344.42 235.53 340.91 238.99" style="fill:#d85409"/><path d="M327.3,246.52a.85.85,0,1,1,.85-.85A.85.85,0,0,1,327.3,246.52Zm0-1.35a.5.5,0,0,0-.5.5.5.5,0,1,0,1,0A.5.5,0,0,0,327.3,245.17Z" style="fill:#d85409"/><path d="M331.45,240.86a.85.85,0,1,1,.85-.85A.86.86,0,0,1,331.45,240.86Zm0-1.35a.51.51,0,1,0,.51.5A.51.51,0,0,0,331.45,239.51Z" style="fill:#d85409"/><path d="M335.29,240.42a.85.85,0,1,1,.85-.85A.85.85,0,0,1,335.29,240.42Zm0-1.35a.5.5,0,1,0,.5.5A.5.5,0,0,0,335.29,239.07Z" style="fill:#d85409"/><path d="M338.19,237.61a.85.85,0,1,1,.85-.85A.85.85,0,0,1,338.19,237.61Zm0-1.35a.5.5,0,0,0,0,1,.5.5,0,1,0,0-1Z" style="fill:#d85409"/><path d="M344.76,235.77a.85.85,0,1,1,.85-.85A.85.85,0,0,1,344.76,235.77Zm0-1.35a.5.5,0,1,0,.51.5A.5.5,0,0,0,344.76,234.42Z" style="fill:#d85409"/><path d="M342.47,241.82a.85.85,0,1,1,.85-.85A.85.85,0,0,1,342.47,241.82Zm0-1.35a.5.5,0,0,0-.5.5.5.5,0,1,0,1,0A.5.5,0,0,0,342.47,240.47Z" style="fill:#9c0"/><path d="M338.54,244.16a.85.85,0,1,1,.85-.85A.85.85,0,0,1,338.54,244.16Zm0-1.35a.5.5,0,1,0,.5.5A.5.5,0,0,0,338.54,242.81Z" style="fill:#9c0"/><path d="M331.65,247.85a.85.85,0,1,1,.85-.85A.86.86,0,0,1,331.65,247.85Zm0-1.36a.51.51,0,1,0,.5.51A.5.5,0,0,0,331.65,246.49Z" style="fill:#9c0"/><path d="M335,243.86a.84.84,0,0,1-.58-.24.88.88,0,0,1-.25-.61.85.85,0,0,1,1.69,0h0a.84.84,0,0,1-.84.86Zm0-1.36a.51.51,0,0,0-.5.51.52.52,0,0,0,.16.36.48.48,0,0,0,.34.14.5.5,0,0,0,.51-.5h0A.51.51,0,0,0,335,242.5Z" style="fill:#9c0"/><rect x="331.39" y="244.83" width="3.84" height="0.35" transform="translate(-68.03 345.23) rotate(-50.34)" style="fill:#9c0"/><polygon points="339.24 243.18 339.06 242.88 341.91 241.24 342.08 241.55 342.05 241.57 339.24 243.18" style="fill:#9c0"/><rect x="336.59" y="242.07" width="0.35" height="2.22" transform="translate(60.02 552.94) rotate(-84.06)" style="fill:#9c0"/><polygon points="327.05 240.73 326.74 240.58 330.47 233.16 334.02 234.06 337.84 232.41 341.09 233.17 344.17 230.04 344.42 230.28 341.2 233.56 337.88 232.78 334.05 234.43 330.65 233.57 327.05 240.73" style="fill:#26aece"/><path d="M327.57,240.66a.68.68,0,1,1-.68-.68A.67.67,0,0,1,327.57,240.66Z" style="fill:#f9fbfc"/><path d="M326.89,241.51a.85.85,0,1,1,.85-.85A.86.86,0,0,1,326.89,241.51Zm0-1.36a.51.51,0,0,0,0,1,.51.51,0,0,0,0-1Z" style="fill:#26aece"/><path d="M331.24,233.37a.68.68,0,0,1-.68.67.68.68,0,0,1,0-1.35A.68.68,0,0,1,331.24,233.37Z" style="fill:#f9fbfc"/><path d="M330.56,234.21a.85.85,0,1,1,.85-.84A.85.85,0,0,1,330.56,234.21Zm0-1.35a.51.51,0,1,0,.5.51A.5.5,0,0,0,330.56,232.86Z" style="fill:#26aece"/><path d="M334.71,234.24a.68.68,0,1,1-.67-.67A.67.67,0,0,1,334.71,234.24Z" style="fill:#f9fbfc"/><path d="M334,235.09a.85.85,0,1,1,.85-.85A.85.85,0,0,1,334,235.09Zm0-1.35a.51.51,0,0,0,0,1,.51.51,0,0,0,0-1Z" style="fill:#26aece"/><path d="M338.54,232.59a.68.68,0,1,1-.68-.67A.68.68,0,0,1,338.54,232.59Z" style="fill:#f9fbfc"/><path d="M337.86,233.44a.85.85,0,1,1,.85-.85A.85.85,0,0,1,337.86,233.44Zm0-1.35a.5.5,0,0,0-.5.5.5.5,0,1,0,1,0A.5.5,0,0,0,337.86,232.09Z" style="fill:#26aece"/><path d="M341.82,233.37a.68.68,0,1,1-.67-.68A.67.67,0,0,1,341.82,233.37Z" style="fill:#f9fbfc"/><path d="M341.15,234.21a.85.85,0,1,1,0-1.69.85.85,0,1,1,0,1.69Zm0-1.35a.51.51,0,1,0,.5.51A.51.51,0,0,0,341.15,232.86Z" style="fill:#26aece"/><path d="M345,230.23a.68.68,0,1,1-.68-.68A.67.67,0,0,1,345,230.23Z" style="fill:#f9fbfc"/><path d="M344.29,231.08a.85.85,0,1,1,.85-.85A.85.85,0,0,1,344.29,231.08Zm0-1.36a.51.51,0,0,0,0,1,.51.51,0,0,0,0-1Z" style="fill:#26aece"/><path d="M341.58,238.76a.68.68,0,1,1-.68-.68A.68.68,0,0,1,341.58,238.76Z" style="fill:#f9fbfc"/><path d="M340.9,239.61a.85.85,0,1,1,.85-.85A.85.85,0,0,1,340.9,239.61Zm0-1.35a.5.5,0,0,0-.5.5.5.5,0,0,0,1,0A.5.5,0,0,0,340.9,238.26Z" style="fill:#d85409"/></g><g style="opacity:0.5"><path d="M107.11,183.86v97.8h97.8v-97.8ZM152.55,276H112.89V236.37h39.66Zm0-46.88H112.89V189.49h39.66ZM199.13,276H159.47V236.37h39.66Zm0-46.88H159.47V189.49h39.66Z" style="fill:#ededed"/><polygon points="112.97 217.11 140.61 189.5 128.8 189.5 112.97 205.31 112.97 217.11" style="fill:#fff;opacity:0.30000000000000004"/><polygon points="112.97 273.12 196.67 189.5 184.86 189.5 112.97 261.32 112.97 273.12" style="fill:#fff;opacity:0.30000000000000004"/><path d="M493.4,183.86v97.8h97.8v-97.8ZM538.85,276H499.19V236.37h39.66Zm0-46.88H499.19V189.49h39.66ZM585.43,276H545.77V236.37h39.66Zm0-46.88H545.77V189.49h39.66Z" style="fill:#ededed"/><polygon points="585.35 217.11 557.71 189.5 569.52 189.5 585.35 205.31 585.35 217.11" style="fill:#fff;opacity:0.30000000000000004"/><polygon points="585.35 273.12 501.65 189.5 513.46 189.5 585.35 261.32 585.35 273.12" style="fill:#fff;opacity:0.30000000000000004"/></g><polygon points="611.25 144.31 87.06 144.64 87.83 126.54 611.25 126.54 611.25 144.31" style="fill:#f6f6f6"/><path d="M107.11,183.86v97.8h97.8v-97.8ZM152.55,276H112.89V236.37h39.66Zm0-46.88H112.89V189.49h39.66ZM199.13,276H159.47V236.37h39.66Zm0-46.88H159.47V189.49h39.66Z" style="fill:#ededed"/><circle cx="260.25" cy="191.97" r="19.89" style="fill:#fff;stroke:#4c565b;stroke-miterlimit:10;stroke-width:1.8019611686191264px"/><path d="M248.43,180.15a16.71,16.71,0,0,0,0,23.64L260.25,192Z" style="fill:#f2f2f2"/><path d="M272.07,180.15a16.71,16.71,0,0,0-23.64,0L260.25,192Z" style="fill:#e6e6e6"/><path d="M272.07,180.15,260.25,192l11.82,11.82A16.71,16.71,0,0,0,272.07,180.15Z" style="fill:#f2f2f2"/><path d="M272.07,203.79,260.25,192l-11.82,11.82A16.73,16.73,0,0,0,272.07,203.79Z" style="fill:#e6e6e6"/><circle cx="260.25" cy="191.97" r="10.03" style="fill:#fff"/><circle cx="260.25" cy="191.97" r="2.15" style="fill:#ef7b10"/><line x1="260.25" y1="176.32" x2="260.25" y2="177.84" style="fill:none;stroke:#4c565b;stroke-linecap:round;stroke-linejoin:round;stroke-width:0.4211602305339195px"/><line x1="275.9" y1="191.97" x2="274.38" y2="191.97" style="fill:none;stroke:#4c565b;stroke-linecap:round;stroke-linejoin:round;stroke-width:0.4211602305339195px"/><line x1="244.61" y1="191.97" x2="246.12" y2="191.97" style="fill:none;stroke:#4c565b;stroke-linecap:round;stroke-linejoin:round;stroke-width:0.4211602305339195px"/><line x1="249.19" y1="180.9" x2="250.26" y2="181.98" style="fill:none;stroke:#4c565b;stroke-linecap:round;stroke-linejoin:round;stroke-width:0.4211602305339195px"/><line x1="271.31" y1="180.9" x2="270.24" y2="181.98" style="fill:none;stroke:#4c565b;stroke-linecap:round;stroke-linejoin:round;stroke-width:0.4211602305339195px"/><line x1="254.26" y1="177.51" x2="254.84" y2="178.91" style="fill:none;stroke:#4c565b;stroke-linecap:round;stroke-linejoin:round;stroke-width:0.7019337175565332px"/><line x1="274.7" y1="185.98" x2="273.31" y2="186.56" style="fill:none;stroke:#4c565b;stroke-linecap:round;stroke-linejoin:round;stroke-width:0.7019337175565332px"/><line x1="245.8" y1="185.98" x2="247.2" y2="186.56" style="fill:none;stroke:#4c565b;stroke-linecap:round;stroke-linejoin:round;stroke-width:0.7019337175565332px"/><line x1="266.24" y1="177.51" x2="265.66" y2="178.91" style="fill:none;stroke:#4c565b;stroke-linecap:round;stroke-linejoin:round;stroke-width:0.7019337175565332px"/><line x1="260.25" y1="207.61" x2="260.25" y2="206.1" style="fill:none;stroke:#4c565b;stroke-linecap:round;stroke-linejoin:round;stroke-width:0.4211602305339195px"/><line x1="271.31" y1="203.03" x2="270.24" y2="201.96" style="fill:none;stroke:#4c565b;stroke-linecap:round;stroke-linejoin:round;stroke-width:0.4211602305339195px"/><line x1="249.19" y1="203.03" x2="250.26" y2="201.96" style="fill:none;stroke:#4c565b;stroke-linecap:round;stroke-linejoin:round;stroke-width:0.4211602305339195px"/><line x1="266.24" y1="206.42" x2="265.66" y2="205.02" style="fill:none;stroke:#4c565b;stroke-linecap:round;stroke-linejoin:round;stroke-width:0.7019337175565332px"/><line x1="245.8" y1="197.95" x2="247.2" y2="197.37" style="fill:none;stroke:#4c565b;stroke-linecap:round;stroke-linejoin:round;stroke-width:0.7019337175565332px"/><line x1="274.7" y1="197.95" x2="273.31" y2="197.37" style="fill:none;stroke:#4c565b;stroke-linecap:round;stroke-linejoin:round;stroke-width:0.7019337175565332px"/><line x1="254.26" y1="206.42" x2="254.84" y2="205.02" style="fill:none;stroke:#4c565b;stroke-linecap:round;stroke-linejoin:round;stroke-width:0.7019337175565332px"/><line x1="260.25" y1="191.97" x2="267.52" y2="189.16" style="fill:none;stroke:#ef7b10;stroke-linecap:round;stroke-linejoin:round;stroke-width:1.3410718548486282px"/><line x1="260.25" y1="191.97" x2="251.9" y2="183.61" style="fill:none;stroke:#ef7b10;stroke-linecap:round;stroke-linejoin:round;stroke-width:1.3410718548486282px"/><path d="M506.07,334.33a3.4,3.4,0,0,0-3.78-1.82.64.64,0,0,1-.53-.07l0-1.32a.71.71,0,0,0-.62-.68,103.8,103.8,0,0,0-11.32-.15c-.82.09-.7.48-.7.48s.11,11.82.15,12.79,2.82,1.56,5.89,1.65a14.87,14.87,0,0,0,5.89-.94.78.78,0,0,0,.45-.71l0-1.67a.69.69,0,0,1,.29,0,3.11,3.11,0,0,0,3.57-.62C507,339.79,507.07,336.48,506.07,334.33Zm-2.3,6.72a1.4,1.4,0,0,1-1.74-1,1.82,1.82,0,0,0-.27-.68c-.09-.85.12-4.45.12-4.45.19-1.15.8-1.74,1.89-1.59s2.09,1.44,2.21,3.6S505,340.88,503.77,341.05Z" style="fill:#ef7b10"/><path d="M499.94,343.56c0-1,.14-12.79.14-12.79s.12-.39-.7-.48c-.3,0-1.53-.06-3.1-.08,2.87,0,4.26,0,4.75.08.82.09.7.48.7.48s-.11,11.82-.14,12.79-1.28,1.56-4.35,1.65a18,18,0,0,1-2-.06C497.81,345,499.91,344.4,499.94,343.56Z" style="fill:#d85409"/><g style="clip-path:url(#clip-path-2)"><path d="M183.89,320.41l-14.4,47.78a3.37,3.37,0,0,1-3.22,2.39H150.94a3.37,3.37,0,0,0-3.37,3.36v32.47a3.37,3.37,0,0,0,3.37,3.37H125.61a3.37,3.37,0,0,1-3.37-3.37V373.94a3.37,3.37,0,0,1,3.37-3.36h15.33a3.37,3.37,0,0,0,3.22-2.39l14-46.31a8.16,8.16,0,0,1,7.81-5.81h14.74A3.37,3.37,0,0,1,183.89,320.41Z" style="fill:none;stroke:#58595b;stroke-linecap:round;stroke-miterlimit:10;stroke-width:1.9983631423857717px"/><path d="M153.55,347.55h19.59a3.58,3.58,0,0,0,3.43-2.56l6.58-21.81a2.29,2.29,0,0,0-2.18-2.94h-19.6a3.59,3.59,0,0,0-3.43,2.55l-6.57,21.81A2.29,2.29,0,0,0,153.55,347.55Z" style="fill:#11393d"/><path d="M153.55,347.55h16.92a3.59,3.59,0,0,0,3.44-2.56l6.58-21.81a2.29,2.29,0,0,0-2.19-2.94H161.38a3.62,3.62,0,0,0-3.45,2.55l-6.56,21.81A2.29,2.29,0,0,0,153.55,347.55Z" style="fill:#4b9fa3"/><path d="M125.93,361H161.7a3,3,0,0,1,3,3v4.66a0,0,0,0,1,0,0H122.94a0,0,0,0,1,0,0V364a3,3,0,0,1,3-3Z" style="fill:#4b9fa3"/><rect x="121.06" y="365.87" width="45.51" height="4.47" rx="1.35" style="fill:#11393d"/><path d="M165.93,316.07h14.74a3.37,3.37,0,0,1,3.22,4.34l-14.4,47.78a3.37,3.37,0,0,1-3.22,2.39H150.94a3.37,3.37,0,0,0-3.37,3.36v32.47a3.37,3.37,0,0,0,3.37,3.37h19.81" style="fill:none;stroke:#808081;stroke-linecap:round;stroke-miterlimit:10;stroke-width:1.9983631423857717px"/><rect x="92.88" y="320.24" width="23.99" height="25" transform="translate(209.76 665.47) rotate(-180)" style="fill:#4b9fa3"/><path d="M117.79,320.41l-.47,47.78a3.37,3.37,0,0,1-3.22,2.39H98.77a3.36,3.36,0,0,0-3.36,3.36v32.47a3.36,3.36,0,0,0,3.36,3.37H73.44a3.36,3.36,0,0,1-3.36-3.37V373.94a3.36,3.36,0,0,1,3.36-3.36H88.77A3.36,3.36,0,0,0,92,368.19l0-46.31a8.17,8.17,0,0,1,7.82-5.81h14.73A3.37,3.37,0,0,1,117.79,320.41Z" style="fill:none;stroke:#58595b;stroke-linecap:round;stroke-miterlimit:10;stroke-width:1.9983631423857717px"/><path d="M73.76,361h35.77a3,3,0,0,1,3,3v4.66a0,0,0,0,1,0,0H70.77a0,0,0,0,1,0,0V364A3,3,0,0,1,73.76,361Z" style="fill:#4b9fa3"/><rect x="68.89" y="365.87" width="45.51" height="4.47" rx="1.35" style="fill:#11393d"/><path d="M118.58,409.78H73.44a3.36,3.36,0,0,1-3.36-3.37V373.94a3.36,3.36,0,0,1,3.36-3.36H88.77A3.36,3.36,0,0,0,92,368.19l0-46.31a8.17,8.17,0,0,1,7.82-5.81h14.73" style="fill:none;stroke:#808081;stroke-linecap:round;stroke-linejoin:round;stroke-width:1.9983631423857717px"/><ellipse cx="106.6" cy="410.5" rx="113.78" ry="2.45" style="fill:#9c7f77;mix-blend-mode:multiply;opacity:0.4"/><polygon points="19.64 410.35 14.87 410.35 21.87 349.74 28.62 349.74 19.64 410.35" style="fill:#754200"/><polygon points="209.25 410.35 214.01 410.35 207.01 349.74 200.26 349.74 209.25 410.35" style="fill:#754200"/><rect x="14.87" y="343.71" width="199.14" height="6.23" style="fill:#dadada"/><rect x="14.87" y="347.99" width="199.14" height="1.95" style="fill:#9e9e9e;mix-blend-mode:multiply;opacity:0.5"/><rect x="129.34" y="309.08" width="49.71" height="32.03" rx="1.37" style="fill:#6d6e71"/><path d="M128.63,340.09v2.39a1.27,1.27,0,0,0,1.14,1.36h48.86a1.27,1.27,0,0,0,1.14-1.36v-2.39Z" style="fill:#414042"/><path d="M128.63,342.48a1.27,1.27,0,0,0,1.14,1.36h48.86a1.27,1.27,0,0,0,1.14-1.36v-.23H128.63Z" style="fill:#414042;mix-blend-mode:multiply;opacity:0.4"/><polygon points="179.05 310.33 179.05 340.09 129.34 340.09 179.05 310.33" style="fill:#9e9e9e;mix-blend-mode:multiply;opacity:0.30000000000000004"/><rect x="62.21" y="309.08" width="49.71" height="32.03" rx="1.37" style="fill:#6d6e71"/><path d="M61.5,340.09v2.39a1.27,1.27,0,0,0,1.14,1.36H111.5a1.27,1.27,0,0,0,1.14-1.36v-2.39Z" style="fill:#414042"/><path d="M61.5,342.48a1.27,1.27,0,0,0,1.14,1.36H111.5a1.27,1.27,0,0,0,1.14-1.36v-.23H61.5Z" style="fill:#414042;mix-blend-mode:multiply;opacity:0.4"/><polygon points="111.92 310.33 111.92 340.09 62.21 340.09 111.92 310.33" style="fill:#9e9e9e;mix-blend-mode:multiply;opacity:0.30000000000000004"/><path d="M537.85,347.55H518.26a3.6,3.6,0,0,1-3.44-2.56l-6.58-21.81a2.29,2.29,0,0,1,2.19-2.94H530a3.59,3.59,0,0,1,3.43,2.55L540,344.6A2.29,2.29,0,0,1,537.85,347.55Z" style="fill:#4b9fa3"/><path d="M507.51,320.41l14.4,47.78a3.37,3.37,0,0,0,3.22,2.39h15.33a3.36,3.36,0,0,1,3.36,3.36v32.47a3.36,3.36,0,0,1-3.36,3.37h25.33a3.36,3.36,0,0,0,3.36-3.37V373.94a3.36,3.36,0,0,0-3.36-3.36H550.46a3.35,3.35,0,0,1-3.22-2.39l-14-46.31a8.17,8.17,0,0,0-7.82-5.81H510.73A3.36,3.36,0,0,0,507.51,320.41Z" style="fill:none;stroke:#58595b;stroke-linecap:round;stroke-miterlimit:10;stroke-width:1.9983631423857717px"/><path d="M526.7,361h41.76a0,0,0,0,1,0,0v4.66a3,3,0,0,1-3,3H529.7a3,3,0,0,1-3-3V361A0,0,0,0,1,526.7,361Z" transform="translate(1095.16 729.71) rotate(180)" style="fill:#4b9fa3"/><rect x="524.83" y="365.87" width="45.51" height="4.47" rx="1.35" transform="translate(1095.16 736.22) rotate(180)" style="fill:#11393d"/><path d="M520.65,409.78h45.14a3.36,3.36,0,0,0,3.36-3.37V373.94a3.36,3.36,0,0,0-3.36-3.36H550.46a3.35,3.35,0,0,1-3.22-2.39l-14-46.31a8.17,8.17,0,0,0-7.82-5.81H510.73" style="fill:none;stroke:#808081;stroke-linecap:round;stroke-linejoin:round;stroke-width:1.9983631423857717px"/><rect x="583.96" y="320.24" width="23.99" height="25" style="fill:#4b9fa3"/><path d="M583,320.41l.47,47.78a3.37,3.37,0,0,0,3.22,2.39h15.33a3.37,3.37,0,0,1,3.37,3.36v32.47a3.37,3.37,0,0,1-3.37,3.37h25.33a3.37,3.37,0,0,0,3.37-3.37V373.94a3.37,3.37,0,0,0-3.37-3.36H612.06a3.37,3.37,0,0,1-3.22-2.39l0-46.31a8.16,8.16,0,0,0-7.81-5.81H586.26A3.37,3.37,0,0,0,583,320.41Z" style="fill:none;stroke:#58595b;stroke-linecap:round;stroke-miterlimit:10;stroke-width:1.9983631423857717px"/><path d="M588.3,361h41.76a0,0,0,0,1,0,0v4.66a3,3,0,0,1-3,3H591.3a3,3,0,0,1-3-3V361A0,0,0,0,1,588.3,361Z" transform="translate(1218.37 729.71) rotate(180)" style="fill:#4b9fa3"/><rect x="586.43" y="365.87" width="45.51" height="4.47" rx="1.35" transform="translate(1218.37 736.22) rotate(180)" style="fill:#11393d"/><path d="M582.25,409.78h45.14a3.37,3.37,0,0,0,3.37-3.37V373.94a3.37,3.37,0,0,0-3.37-3.36H612.06a3.37,3.37,0,0,1-3.22-2.39l0-46.31a8.16,8.16,0,0,0-7.81-5.81H586.26" style="fill:none;stroke:#808081;stroke-linecap:round;stroke-linejoin:round;stroke-width:1.9983631423857717px"/><ellipse cx="590.78" cy="410.5" rx="114.71" ry="2.45" style="fill:#9c7f77;mix-blend-mode:multiply;opacity:0.4"/><polygon points="678.68 410.35 683.45 410.35 676.45 349.74 669.7 349.74 678.68 410.35" style="fill:#754200"/><polygon points="489.07 410.35 484.31 410.35 491.3 349.74 498.05 349.74 489.07 410.35" style="fill:#754200"/><rect x="484.31" y="343.71" width="199.14" height="6.23" style="fill:#dadada"/><rect x="484.31" y="347.99" width="199.14" height="1.95" style="fill:#9e9e9e;mix-blend-mode:multiply;opacity:0.5"/><rect x="519.26" y="309.08" width="49.71" height="32.03" rx="1.37" style="fill:#6d6e71"/><path d="M569.69,340.09v2.39a1.27,1.27,0,0,1-1.14,1.36H519.69a1.27,1.27,0,0,1-1.14-1.36v-2.39Z" style="fill:#414042"/><path d="M569.69,342.48a1.27,1.27,0,0,1-1.14,1.36H519.69a1.27,1.27,0,0,1-1.14-1.36v-.23h51.14Z" style="fill:#414042;mix-blend-mode:multiply;opacity:0.4"/><polygon points="519.26 310.33 519.26 340.09 568.97 340.09 519.26 310.33" style="fill:#9e9e9e;mix-blend-mode:multiply;opacity:0.30000000000000004"/><rect x="586.39" y="309.08" width="49.71" height="32.03" rx="1.37" style="fill:#6d6e71"/><path d="M636.82,340.09v2.39a1.27,1.27,0,0,1-1.14,1.36H586.82a1.27,1.27,0,0,1-1.14-1.36v-2.39Z" style="fill:#414042"/><path d="M636.82,342.48a1.27,1.27,0,0,1-1.14,1.36H586.82a1.27,1.27,0,0,1-1.14-1.36v-.23h51.14Z" style="fill:#414042;mix-blend-mode:multiply;opacity:0.4"/><polygon points="586.39 310.33 586.39 340.09 636.1 340.09 586.39 310.33" style="fill:#9e9e9e;mix-blend-mode:multiply;opacity:0.30000000000000004"/></g><path d="M216.74,314.08c.07,0-.24,9.09-2.57,12.59-3.57,5.36-7,18.18-8.71,16.42.1-4.36.25-9.7,2.5-13.32C211.37,324.31,216.74,314.08,216.74,314.08Z" style="fill:#60999e"/><path d="M211.35,329.32c-2.47,3.3-2.4,7.95-3.12,11.82-.62,3.3-2.77,1.95-2.77,1.95,1.72,1.76,2.34-3.54,4-1.63-1.16-6.48,1.16-9.43,4.73-14.79a18.16,18.16,0,0,0,2.57-12.59A25.77,25.77,0,0,1,211.35,329.32Z" style="fill:#60999e;mix-blend-mode:multiply;opacity:0.4"/><path d="M188.1,318.49s-.33,1.27,4.53,4.58,9.46,12.06,9.47,18.15c1.65.76,2.46,1.11,4.05,1.77-1.18-5.42-2.65-11.64-6.09-15.9C196.87,323.13,191.83,321.84,188.1,318.49Z" style="fill:#60999e"/><path d="M196.22,325.31c3.42,3,4.57,7.51,6.19,11.7a16.13,16.13,0,0,0,3.74,6c-1.59-.66-2.4-1-4.05-1.77,0-6.09-4.6-14.83-9.47-18.15s-4.53-4.58-4.53-4.58C189.54,321.31,194,323.38,196.22,325.31Z" style="fill:#60999e;mix-blend-mode:multiply;opacity:0.4"/><path d="M209,307.89c-.05,0-2.08,9.26-2.83,13.81-.63,3.82.1,12-5,13.3a59.25,59.25,0,0,1,4.48,4.59,17.31,17.31,0,0,0,4.45-11C210.27,321.8,209,307.89,209,307.89Z" style="fill:#387276"/><path d="M210.09,328.61A190,190,0,0,0,209,307.89s-.08.4-.22,1.06c-.64,8,.53,16.29-.58,24-.57,4-4.52,3.42-7.06,2a59.25,59.25,0,0,1,4.48,4.59A17.31,17.31,0,0,0,210.09,328.61Z" style="fill:#387276;mix-blend-mode:multiply;opacity:0.4"/><path d="M196.71,311a68.6,68.6,0,0,1,3.61,9c1.71,5.94,2.73,11.12,6.17,16.61a41.88,41.88,0,0,1-4.31-.63c-2-3.73-4.91-7.94-5.47-12S196.71,311,196.71,311Z" style="fill:#387276"/><path d="M196.71,324c-.57-4.1-.18-8.68,0-13l.26.52c1,5.45.34,11.25,2,16.45,1.12,3.57,4.34,6.64,7.54,8.61a41.88,41.88,0,0,1-4.31-.63C200.23,332.24,197.27,328,196.71,324Z" style="fill:#387276;mix-blend-mode:multiply;opacity:0.4"/><path d="M190.12,316.56s2.95,3.46,4.61,5.71c2.25,3.07,6.13,7.74,4.94,12,1.83,1.05,2.74,1.59,4.52,2.71-.37-3.87-1.15-8.16-3.29-11.35C198.36,321.84,194.63,318.09,190.12,316.56Z" style="fill:#387276"/><path d="M200.9,325.63c-2.54-3.79-6.27-7.54-10.78-9.07l.3.29A28.71,28.71,0,0,1,202,329.56c2.31,5.23-2.3,4.71-2.3,4.71,1.83,1.05,2.74,1.59,4.52,2.71C203.82,333.11,203,328.82,200.9,325.63Z" style="fill:#387276;mix-blend-mode:multiply;opacity:0.4"/><path d="M205.5,301.23c.11-.06,2,8.21,1,11.82-2.08,7.63-.87,18.89,2.21,26.26-2.14-1.45-3.24-2.15-5.47-3.5-1.4-5.11-3.71-11.28-2.54-16.24C202.08,313.8,205.5,301.23,205.5,301.23Z" style="fill:#60999e"/><path d="M205.5,301.23a11,11,0,0,1,1.47,4.29,21.39,21.39,0,0,1-.44,7.53c-2.08,7.63-.87,18.89,2.21,26.26-2.14-1.45-3.24-2.15-5.47-3.5-1.4-5.11-3.71-11.28-2.54-16.24C202.08,313.8,205.5,301.23,205.5,301.23Z" style="fill:#60999e"/><path d="M204.25,317.25c-1.35,4.92.24,9.4.88,14.48.56,4.48-1.86,4.08-1.86,4.08,2.23,1.35,3.33,2.05,5.47,3.5-3.08-7.37-4.29-18.63-2.21-26.26,1-3.61,1.86-8.59-1-11.82C208.23,305.92,205.48,312.78,204.25,317.25Z" style="fill:#60999e;mix-blend-mode:multiply;opacity:0.4"/><polygon points="211.21 343.69 199.07 343.69 198.5 332.71 211.78 332.71 211.21 343.69" style="fill:#fcd278"/><rect x="197.68" y="331.68" width="14.92" height="1.03" style="fill:#f9b27f"/><ellipse cx="327.41" cy="417.03" rx="85.52" ry="2.45" style="fill:#9c7f77;mix-blend-mode:multiply;opacity:0.4"/><rect x="289" y="368.51" width="16.61" height="31.19" style="fill:#0a6080;stroke:#333;stroke-miterlimit:10;stroke-width:0.8190459567450854px"/><rect x="258.1" y="368.51" width="35.34" height="31.19" style="fill:#26aece;stroke:#333;stroke-miterlimit:10;stroke-width:0.8190459567450854px"/><rect x="274.13" y="368.51" width="4.95" height="10.11" style="fill:#56bcdb;stroke:#333;stroke-miterlimit:10;stroke-width:0.8190459567450854px"/><g style="clip-path:url(#clip-path-3)"><rect x="259.43" y="389.2" width="7.62" height="9.29" style="fill:#ccc"/><rect x="259.43" y="389.2" width="7.62" height="2.95" style="fill:#f2f2f2"/><rect x="260.24" y="393.34" width="0.23" height="3.49" style="fill:#afafae"/><rect x="260.73" y="393.34" width="0.09" height="3.49" style="fill:#afafae"/><rect x="261.27" y="393.34" width="0.23" height="3.49" style="fill:#afafae"/><rect x="261.89" y="393.34" width="0.13" height="3.49" style="fill:#afafae"/><rect x="262.31" y="393.34" width="0.35" height="3.49" style="fill:#afafae"/><rect x="262.83" y="393.34" width="0.37" height="3.49" style="fill:#afafae"/><rect x="263.46" y="393.34" width="0.07" height="3.49" style="fill:#afafae"/><rect x="263.83" y="393.34" width="0.23" height="3.49" style="fill:#afafae"/><rect x="264.32" y="393.34" width="0.39" height="3.49" style="fill:#afafae"/><rect x="264.95" y="393.34" width="0.16" height="3.49" style="fill:#afafae"/><rect x="265.45" y="393.34" width="0.17" height="3.49" style="fill:#afafae"/><rect x="265.94" y="393.34" width="0.37" height="3.49" style="fill:#afafae"/><rect x="260.02" y="389.8" width="5.84" height="0.34" style="fill:#afafae"/><rect x="260.02" y="390.88" width="3.74" height="0.16" style="fill:#afafae"/><rect x="260.02" y="391.26" width="1.86" height="0.16" style="fill:#afafae"/></g><rect x="330.33" y="368.51" width="16.61" height="31.19" style="fill:#0a6080;stroke:#333;stroke-miterlimit:10;stroke-width:0.8190459567450854px"/><rect x="299.43" y="368.51" width="35.34" height="31.19" style="fill:#26aece;stroke:#333;stroke-miterlimit:10;stroke-width:0.8190459567450854px"/><rect x="315.46" y="368.51" width="4.95" height="10.11" style="fill:#56bcdb;stroke:#333;stroke-miterlimit:10;stroke-width:0.8190459567450854px"/><rect x="371.66" y="368.51" width="16.61" height="31.19" style="fill:#0a6080;stroke:#333;stroke-miterlimit:10;stroke-width:0.8190459567450854px"/><rect x="340.75" y="368.51" width="35.34" height="31.19" style="fill:#26aece;stroke:#333;stroke-miterlimit:10;stroke-width:0.8190459567450854px"/><rect x="356.78" y="368.51" width="4.95" height="10.11" style="fill:#56bcdb;stroke:#333;stroke-miterlimit:10;stroke-width:0.8190459567450854px"/><rect x="289" y="337.73" width="16.61" height="31.19" style="fill:#d85409;stroke:#333;stroke-miterlimit:10;stroke-width:0.8190459567450854px"/><rect x="258.1" y="337.73" width="35.34" height="31.19" style="fill:#ef7b10;stroke:#333;stroke-miterlimit:10;stroke-width:0.8190459567450854px"/><rect x="274.13" y="337.73" width="4.95" height="10.11" style="fill:#b35c0c;stroke:#333;stroke-miterlimit:10;stroke-width:0.8190459567450854px"/><rect x="259.27" y="358.37" width="7.62" height="9.29" style="fill:#ccc"/><rect x="259.27" y="358.37" width="7.62" height="2.95" style="fill:#f2f2f2"/><rect x="260.08" y="362.52" width="0.23" height="3.49" style="fill:#afafae"/><rect x="260.57" y="362.52" width="0.09" height="3.49" style="fill:#afafae"/><rect x="261.1" y="362.52" width="0.23" height="3.49" style="fill:#afafae"/><rect x="261.73" y="362.52" width="0.13" height="3.49" style="fill:#afafae"/><rect x="262.15" y="362.52" width="0.35" height="3.49" style="fill:#afafae"/><rect x="262.66" y="362.52" width="0.37" height="3.49" style="fill:#afafae"/><rect x="263.3" y="362.52" width="0.07" height="3.49" style="fill:#afafae"/><rect x="263.66" y="362.52" width="0.23" height="3.49" style="fill:#afafae"/><rect x="264.16" y="362.52" width="0.39" height="3.49" style="fill:#afafae"/><rect x="264.79" y="362.52" width="0.16" height="3.49" style="fill:#afafae"/><rect x="265.28" y="362.52" width="0.17" height="3.49" style="fill:#afafae"/><rect x="265.77" y="362.52" width="0.37" height="3.49" style="fill:#afafae"/><rect x="259.85" y="358.97" width="5.84" height="0.34" style="fill:#afafae"/><rect x="259.85" y="360.06" width="3.74" height="0.16" style="fill:#afafae"/><rect x="259.85" y="360.43" width="1.86" height="0.16" style="fill:#afafae"/><rect x="330.33" y="337.73" width="16.61" height="31.19" style="fill:#0a6080;stroke:#333;stroke-miterlimit:10;stroke-width:0.8190459567450854px"/><rect x="299.43" y="337.73" width="35.34" height="31.19" style="fill:#26aece;stroke:#333;stroke-miterlimit:10;stroke-width:0.8190459567450854px"/><rect x="315.46" y="337.73" width="4.95" height="10.11" style="fill:#56bcdb;stroke:#333;stroke-miterlimit:10;stroke-width:0.8190459567450854px"/><rect x="289" y="306.54" width="16.61" height="31.19" style="fill:#0a6080;stroke:#333;stroke-miterlimit:10;stroke-width:0.8190459567450854px"/><rect x="258.1" y="306.54" width="35.34" height="31.19" style="fill:#26aece;stroke:#333;stroke-miterlimit:10;stroke-width:0.8190459567450854px"/><rect x="274.13" y="306.54" width="4.95" height="10.11" style="fill:#56bcdb;stroke:#333;stroke-miterlimit:10;stroke-width:0.8190459567450854px"/><g style="clip-path:url(#clip-path-4)"><rect x="259.27" y="327.18" width="7.62" height="9.29" style="fill:#ccc"/><rect x="259.27" y="327.18" width="7.62" height="2.95" style="fill:#f2f2f2"/><rect x="260.08" y="331.33" width="0.23" height="3.49" style="fill:#afafae"/><rect x="260.56" y="331.33" width="0.09" height="3.49" style="fill:#afafae"/><rect x="261.1" y="331.33" width="0.23" height="3.49" style="fill:#afafae"/><rect x="261.73" y="331.33" width="0.13" height="3.49" style="fill:#afafae"/><rect x="262.14" y="331.33" width="0.35" height="3.49" style="fill:#afafae"/><rect x="262.66" y="331.33" width="0.37" height="3.49" style="fill:#afafae"/><rect x="263.29" y="331.33" width="0.07" height="3.49" style="fill:#afafae"/><rect x="263.66" y="331.33" width="0.23" height="3.49" style="fill:#afafae"/><rect x="264.16" y="331.33" width="0.39" height="3.49" style="fill:#afafae"/><rect x="264.79" y="331.33" width="0.16" height="3.49" style="fill:#afafae"/><rect x="265.28" y="331.33" width="0.17" height="3.49" style="fill:#afafae"/><rect x="265.77" y="331.33" width="0.37" height="3.49" style="fill:#afafae"/><rect x="259.85" y="327.78" width="5.84" height="0.34" style="fill:#afafae"/><rect x="259.85" y="328.87" width="3.74" height="0.16" style="fill:#afafae"/><rect x="259.85" y="329.24" width="1.86" height="0.16" style="fill:#afafae"/></g><rect x="330.33" y="306.54" width="16.61" height="31.19" style="fill:#d85409;stroke:#333;stroke-miterlimit:10;stroke-width:0.8190459567450854px"/><rect x="299.43" y="306.54" width="35.34" height="31.19" style="fill:#ef7b10;stroke:#333;stroke-miterlimit:10;stroke-width:0.8190459567450854px"/><rect x="315.46" y="306.54" width="4.95" height="10.11" style="fill:#b35c0c;stroke:#333;stroke-miterlimit:10;stroke-width:0.8190459567450854px"/><rect x="300.6" y="327.18" width="7.62" height="9.29" style="fill:#ccc"/><rect x="300.6" y="327.18" width="7.62" height="2.95" style="fill:#f2f2f2"/><rect x="301.4" y="331.32" width="0.23" height="3.49" style="fill:#afafae"/><rect x="301.89" y="331.32" width="0.09" height="3.49" style="fill:#afafae"/><rect x="302.43" y="331.32" width="0.23" height="3.49" style="fill:#afafae"/><rect x="303.05" y="331.32" width="0.13" height="3.49" style="fill:#afafae"/><rect x="303.47" y="331.32" width="0.35" height="3.49" style="fill:#afafae"/><rect x="303.99" y="331.32" width="0.37" height="3.49" style="fill:#afafae"/><rect x="304.62" y="331.32" width="0.07" height="3.49" style="fill:#afafae"/><rect x="304.99" y="331.32" width="0.23" height="3.49" style="fill:#afafae"/><rect x="305.49" y="331.32" width="0.39" height="3.49" style="fill:#afafae"/><rect x="306.12" y="331.32" width="0.16" height="3.49" style="fill:#afafae"/><rect x="306.61" y="331.32" width="0.17" height="3.49" style="fill:#afafae"/><rect x="307.1" y="331.32" width="0.37" height="3.49" style="fill:#afafae"/><rect x="301.18" y="327.78" width="5.84" height="0.34" style="fill:#afafae"/><rect x="301.18" y="328.86" width="3.74" height="0.16" style="fill:#afafae"/><rect x="301.18" y="329.24" width="1.86" height="0.16" style="fill:#afafae"/><rect x="371.66" y="337.73" width="16.61" height="31.19" style="fill:#d85409;stroke:#333;stroke-miterlimit:10;stroke-width:0.8190459567450854px"/><rect x="340.75" y="337.73" width="35.34" height="31.19" style="fill:#ef7b10;stroke:#333;stroke-miterlimit:10;stroke-width:0.8190459567450854px"/><rect x="356.78" y="337.73" width="4.95" height="10.11" style="fill:#b35c0c;stroke:#333;stroke-miterlimit:10;stroke-width:0.8190459567450854px"/><rect x="341.92" y="358.37" width="7.62" height="9.29" style="fill:#ccc"/><rect x="341.92" y="358.37" width="7.62" height="2.95" style="fill:#f2f2f2"/><rect x="342.73" y="362.52" width="0.23" height="3.49" style="fill:#afafae"/><rect x="343.22" y="362.52" width="0.09" height="3.49" style="fill:#afafae"/><rect x="343.76" y="362.52" width="0.23" height="3.49" style="fill:#afafae"/><rect x="344.38" y="362.52" width="0.13" height="3.49" style="fill:#afafae"/><rect x="344.8" y="362.52" width="0.35" height="3.49" style="fill:#afafae"/><rect x="345.32" y="362.52" width="0.37" height="3.49" style="fill:#afafae"/><rect x="345.95" y="362.52" width="0.07" height="3.49" style="fill:#afafae"/><rect x="346.32" y="362.52" width="0.23" height="3.49" style="fill:#afafae"/><rect x="346.81" y="362.52" width="0.39" height="3.49" style="fill:#afafae"/><rect x="347.44" y="362.52" width="0.16" height="3.49" style="fill:#afafae"/><rect x="347.93" y="362.52" width="0.17" height="3.49" style="fill:#afafae"/><rect x="348.42" y="362.52" width="0.37" height="3.49" style="fill:#afafae"/><rect x="342.51" y="358.97" width="5.84" height="0.34" style="fill:#afafae"/><rect x="342.51" y="360.06" width="3.74" height="0.16" style="fill:#afafae"/><rect x="342.51" y="360.43" width="1.86" height="0.16" style="fill:#afafae"/><rect x="261.79" y="399.64" width="136.52" height="7.22" style="fill:#b17f4a;stroke:#333;stroke-miterlimit:10;stroke-width:0.8190459567450854px"/><rect x="254.82" y="399.64" width="136.52" height="7.22" style="fill:#ca9e67;stroke:#333;stroke-miterlimit:10;stroke-width:0.8190459567450854px"/><rect x="377.72" y="406.87" width="15.53" height="2.44" style="fill:#7d4e24;stroke:#333;stroke-miterlimit:10;stroke-width:0.8190459567450854px"/><rect x="374.06" y="406.87" width="15.53" height="2.44" style="fill:#936037;stroke:#333;stroke-miterlimit:10;stroke-width:0.8190459567450854px"/><rect x="377.72" y="414.06" width="15.53" height="2.98" style="fill:#7d4e24;stroke:#333;stroke-miterlimit:10;stroke-width:0.8190459567450854px"/><rect x="374.06" y="414.06" width="15.53" height="2.98" style="fill:#936037;stroke:#333;stroke-miterlimit:10;stroke-width:0.8190459567450854px"/><rect x="378.87" y="409.39" width="12.51" height="4.58" style="fill:#7d4e24;stroke:#333;stroke-miterlimit:10;stroke-width:0.8190459567450854px"/><rect x="375.92" y="409.39" width="12.51" height="4.58" style="fill:#936037;stroke:#333;stroke-miterlimit:10;stroke-width:0.8190459567450854px"/><rect x="366.27" y="406.87" width="15.53" height="2.44" style="fill:#b17f4a;stroke:#333;stroke-miterlimit:10;stroke-width:0.8190459567450854px"/><rect x="362.61" y="406.87" width="15.53" height="2.44" style="fill:#ca9e67;stroke:#333;stroke-miterlimit:10;stroke-width:0.8190459567450854px"/><rect x="366.27" y="414.06" width="15.53" height="2.98" style="fill:#b17f4a;stroke:#333;stroke-miterlimit:10;stroke-width:0.8190459567450854px"/><rect x="362.61" y="414.06" width="15.53" height="2.98" style="fill:#ca9e67;stroke:#333;stroke-miterlimit:10;stroke-width:0.8190459567450854px"/><rect x="367.42" y="409.39" width="12.51" height="4.58" style="fill:#b17f4a;stroke:#333;stroke-miterlimit:10;stroke-width:0.8190459567450854px"/><rect x="364.47" y="409.39" width="12.51" height="4.58" style="fill:#ca9e67;stroke:#333;stroke-miterlimit:10;stroke-width:0.8190459567450854px"/><rect x="279.28" y="406.87" width="15.53" height="2.44" style="fill:#7d4e24;stroke:#333;stroke-miterlimit:10;stroke-width:0.8190459567450854px"/><rect x="275.62" y="406.87" width="15.53" height="2.44" style="fill:#936037;stroke:#333;stroke-miterlimit:10;stroke-width:0.8190459567450854px"/><rect x="279.28" y="414.06" width="15.53" height="2.98" style="fill:#7d4e24;stroke:#333;stroke-miterlimit:10;stroke-width:0.8190459567450854px"/><rect x="275.62" y="414.06" width="15.53" height="2.98" style="fill:#936037;stroke:#333;stroke-miterlimit:10;stroke-width:0.8190459567450854px"/><rect x="280.43" y="409.39" width="12.51" height="4.58" style="fill:#7d4e24;stroke:#333;stroke-miterlimit:10;stroke-width:0.8190459567450854px"/><rect x="277.48" y="409.39" width="12.51" height="4.58" style="fill:#936037;stroke:#333;stroke-miterlimit:10;stroke-width:0.8190459567450854px"/><rect x="267.83" y="406.87" width="15.53" height="2.44" style="fill:#b17f4a;stroke:#333;stroke-miterlimit:10;stroke-width:0.8190459567450854px"/><rect x="264.17" y="406.87" width="15.53" height="2.44" style="fill:#ca9e67;stroke:#333;stroke-miterlimit:10;stroke-width:0.8190459567450854px"/><rect x="267.83" y="414.06" width="15.53" height="2.98" style="fill:#b17f4a;stroke:#333;stroke-miterlimit:10;stroke-width:0.8190459567450854px"/><rect x="264.17" y="414.06" width="15.53" height="2.98" style="fill:#ca9e67;stroke:#333;stroke-miterlimit:10;stroke-width:0.8190459567450854px"/><rect x="268.98" y="409.39" width="12.51" height="4.58" style="fill:#b17f4a;stroke:#333;stroke-miterlimit:10;stroke-width:0.8190459567450854px"/><rect x="266.03" y="409.39" width="12.51" height="4.58" style="fill:#ca9e67;stroke:#333;stroke-miterlimit:10;stroke-width:0.8190459567450854px"/><rect x="329.21" y="406.87" width="15.53" height="2.44" style="fill:#7d4e24;stroke:#333;stroke-miterlimit:10;stroke-width:0.8190459567450854px"/><rect x="325.55" y="406.87" width="15.53" height="2.44" style="fill:#936037;stroke:#333;stroke-miterlimit:10;stroke-width:0.8190459567450854px"/><rect x="329.21" y="414.06" width="15.53" height="2.98" style="fill:#7d4e24;stroke:#333;stroke-miterlimit:10;stroke-width:0.8190459567450854px"/><rect x="325.55" y="414.06" width="15.53" height="2.98" style="fill:#936037;stroke:#333;stroke-miterlimit:10;stroke-width:0.8190459567450854px"/><rect x="330.36" y="409.39" width="12.51" height="4.58" style="fill:#7d4e24;stroke:#333;stroke-miterlimit:10;stroke-width:0.8190459567450854px"/><rect x="327.41" y="409.39" width="12.51" height="4.58" style="fill:#936037;stroke:#333;stroke-miterlimit:10;stroke-width:0.8190459567450854px"/><rect x="317.76" y="406.87" width="15.53" height="2.44" style="fill:#b17f4a;stroke:#333;stroke-miterlimit:10;stroke-width:0.8190459567450854px"/><rect x="314.1" y="406.87" width="15.53" height="2.44" style="fill:#ca9e67;stroke:#333;stroke-miterlimit:10;stroke-width:0.8190459567450854px"/><rect x="317.76" y="414.06" width="15.53" height="2.98" style="fill:#b17f4a;stroke:#333;stroke-miterlimit:10;stroke-width:0.8190459567450854px"/><rect x="314.1" y="414.06" width="15.53" height="2.98" style="fill:#ca9e67;stroke:#333;stroke-miterlimit:10;stroke-width:0.8190459567450854px"/><rect x="318.91" y="409.39" width="12.51" height="4.58" style="fill:#b17f4a;stroke:#333;stroke-miterlimit:10;stroke-width:0.8190459567450854px"/><rect x="315.96" y="409.39" width="12.51" height="4.58" style="fill:#ca9e67;stroke:#333;stroke-miterlimit:10;stroke-width:0.8190459567450854px"/><g style="clip-path:url(#clip-path-5)"><rect x="300.51" y="358.37" width="7.62" height="9.29" style="fill:#ccc"/><rect x="300.51" y="358.37" width="7.62" height="2.95" style="fill:#f2f2f2"/><rect x="301.31" y="362.51" width="0.23" height="3.49" style="fill:#afafae"/><rect x="301.8" y="362.51" width="0.09" height="3.49" style="fill:#afafae"/><rect x="302.34" y="362.51" width="0.23" height="3.49" style="fill:#afafae"/><rect x="302.96" y="362.51" width="0.13" height="3.49" style="fill:#afafae"/><rect x="303.38" y="362.51" width="0.35" height="3.49" style="fill:#afafae"/><rect x="303.9" y="362.51" width="0.37" height="3.49" style="fill:#afafae"/><rect x="304.53" y="362.51" width="0.07" height="3.49" style="fill:#afafae"/><rect x="304.9" y="362.51" width="0.23" height="3.49" style="fill:#afafae"/><rect x="305.4" y="362.51" width="0.39" height="3.49" style="fill:#afafae"/><rect x="306.03" y="362.51" width="0.16" height="3.49" style="fill:#afafae"/><rect x="306.52" y="362.51" width="0.17" height="3.49" style="fill:#afafae"/><rect x="307.01" y="362.51" width="0.37" height="3.49" style="fill:#afafae"/><rect x="301.09" y="358.97" width="5.84" height="0.34" style="fill:#afafae"/><rect x="301.09" y="360.05" width="3.74" height="0.16" style="fill:#afafae"/><rect x="301.09" y="360.43" width="1.86" height="0.16" style="fill:#afafae"/></g><g style="clip-path:url(#clip-path-6)"><rect x="300.51" y="389.2" width="7.62" height="9.29" style="fill:#ccc"/><rect x="300.51" y="389.2" width="7.62" height="2.95" style="fill:#f2f2f2"/><rect x="301.31" y="393.34" width="0.23" height="3.49" style="fill:#afafae"/><rect x="301.8" y="393.34" width="0.09" height="3.49" style="fill:#afafae"/><rect x="302.34" y="393.34" width="0.23" height="3.49" style="fill:#afafae"/><rect x="302.96" y="393.34" width="0.13" height="3.49" style="fill:#afafae"/><rect x="303.38" y="393.34" width="0.35" height="3.49" style="fill:#afafae"/><rect x="303.9" y="393.34" width="0.37" height="3.49" style="fill:#afafae"/><rect x="304.53" y="393.34" width="0.07" height="3.49" style="fill:#afafae"/><rect x="304.9" y="393.34" width="0.23" height="3.49" style="fill:#afafae"/><rect x="305.4" y="393.34" width="0.39" height="3.49" style="fill:#afafae"/><rect x="306.03" y="393.34" width="0.16" height="3.49" style="fill:#afafae"/><rect x="306.52" y="393.34" width="0.17" height="3.49" style="fill:#afafae"/><rect x="307.01" y="393.34" width="0.37" height="3.49" style="fill:#afafae"/><rect x="301.09" y="389.8" width="5.84" height="0.34" style="fill:#afafae"/><rect x="301.09" y="390.88" width="3.74" height="0.16" style="fill:#afafae"/><rect x="301.09" y="391.26" width="1.86" height="0.16" style="fill:#afafae"/></g><g style="clip-path:url(#clip-path-7)"><rect x="341.83" y="389.2" width="7.62" height="9.29" style="fill:#ccc"/><rect x="341.83" y="389.2" width="7.62" height="2.95" style="fill:#f2f2f2"/><rect x="342.64" y="393.34" width="0.23" height="3.49" style="fill:#afafae"/><rect x="343.13" y="393.34" width="0.09" height="3.49" style="fill:#afafae"/><rect x="343.67" y="393.34" width="0.23" height="3.49" style="fill:#afafae"/><rect x="344.29" y="393.34" width="0.13" height="3.49" style="fill:#afafae"/><rect x="344.71" y="393.34" width="0.35" height="3.49" style="fill:#afafae"/><rect x="345.23" y="393.34" width="0.37" height="3.49" style="fill:#afafae"/><rect x="345.86" y="393.34" width="0.07" height="3.49" style="fill:#afafae"/><rect x="346.23" y="393.34" width="0.23" height="3.49" style="fill:#afafae"/><rect x="346.72" y="393.34" width="0.39" height="3.49" style="fill:#afafae"/><rect x="347.35" y="393.34" width="0.16" height="3.49" style="fill:#afafae"/><rect x="347.84" y="393.34" width="0.17" height="3.49" style="fill:#afafae"/><rect x="348.33" y="393.34" width="0.37" height="3.49" style="fill:#afafae"/><rect x="342.42" y="389.8" width="5.84" height="0.34" style="fill:#afafae"/><rect x="342.42" y="390.88" width="3.74" height="0.16" style="fill:#afafae"/><rect x="342.42" y="391.26" width="1.86" height="0.16" style="fill:#afafae"/></g><rect x="371.66" y="306.54" width="16.61" height="31.19" style="fill:#0a6080;stroke:#333;stroke-miterlimit:10;stroke-width:0.8190459567450854px"/><rect x="340.75" y="306.54" width="35.34" height="31.19" style="fill:#26aece;stroke:#333;stroke-miterlimit:10;stroke-width:0.8190459567450854px"/><rect x="356.78" y="306.54" width="4.95" height="10.11" style="fill:#56bcdb;stroke:#333;stroke-miterlimit:10;stroke-width:0.8190459567450854px"/><g style="clip-path:url(#clip-path-8)"><rect x="341.92" y="327.18" width="7.62" height="9.29" style="fill:#ccc"/><rect x="341.92" y="327.18" width="7.62" height="2.95" style="fill:#f2f2f2"/><rect x="342.73" y="331.32" width="0.23" height="3.49" style="fill:#afafae"/><rect x="343.22" y="331.32" width="0.09" height="3.49" style="fill:#afafae"/><rect x="343.76" y="331.32" width="0.23" height="3.49" style="fill:#afafae"/><rect x="344.38" y="331.32" width="0.13" height="3.49" style="fill:#afafae"/><rect x="344.8" y="331.32" width="0.35" height="3.49" style="fill:#afafae"/><rect x="345.32" y="331.32" width="0.37" height="3.49" style="fill:#afafae"/><rect x="345.95" y="331.32" width="0.07" height="3.49" style="fill:#afafae"/><rect x="346.32" y="331.32" width="0.23" height="3.49" style="fill:#afafae"/><rect x="346.81" y="331.32" width="0.39" height="3.49" style="fill:#afafae"/><rect x="347.44" y="331.32" width="0.16" height="3.49" style="fill:#afafae"/><rect x="347.93" y="331.32" width="0.17" height="3.49" style="fill:#afafae"/><rect x="348.42" y="331.32" width="0.37" height="3.49" style="fill:#afafae"/><rect x="342.51" y="327.78" width="5.84" height="0.34" style="fill:#afafae"/><rect x="342.51" y="328.86" width="3.74" height="0.16" style="fill:#afafae"/><rect x="342.51" y="329.24" width="1.86" height="0.16" style="fill:#afafae"/></g><path d="M427.22,289.83a7.59,7.59,0,0,0,4.87,1.72,6.71,6.71,0,0,0,4.66-1.72v-14h-9.53Z" style="fill:#fff;stroke:#333;stroke-miterlimit:10;stroke-width:0.8868365903445071px"/><ellipse cx="426.67" cy="409.88" rx="18.77" ry="2.45" style="fill:#9c7f77;mix-blend-mode:multiply;opacity:0.4"/><line x1="420.13" y1="398.91" x2="420.73" y2="405.27" style="fill:none;stroke:#333;stroke-miterlimit:10;stroke-width:0.8868365903445071px"/><path d="M431,407.08h10.14a0,0,0,0,1,0,0v3.62a0,0,0,0,1,0,0H430.52a0,0,0,0,1,0,0v-3.15A.47.47,0,0,1,431,407.08Z" style="fill:#ef7b10;stroke:#333;stroke-miterlimit:10;stroke-width:0.8654640085653248px"/><line x1="436.68" y1="397.65" x2="437.3" y2="407.46" style="fill:none;stroke:#333;stroke-miterlimit:10;stroke-width:0.8868365903445071px"/><path d="M443.26,330.8c1.7,2.49,1.58,5.76,1.4,8.77-.49,7.84-1.86,16.52-2.63,28.14-.92,13.71-.8,35.19-1.23,36.62h-7.62l-.58-36.62.1-29.49H430l-8.14,35.37,2.77,28.62h-7.09l-4.1-29.28,6.3-43.45Z" style="fill:#4d565b;stroke:#333;stroke-linejoin:round;stroke-width:0.8868365903445071px"/><path d="M424,334.94c-1.36,1.93-2.94,4-5.25,4.48" style="fill:none;stroke:#333;stroke-linecap:round;stroke-linejoin:round;stroke-width:0.8868365903445071px"/><path d="M438.48,334.94c1.35,1.93,2.93,4,5.25,4.48" style="fill:none;stroke:#333;stroke-linecap:round;stroke-linejoin:round;stroke-width:0.8868365903445071px"/><path d="M444.25,288.65c-1.58-1.82-5.62-2.17-5.67-2.14-1,.57-2.82,2.74-7,2.74-3,0-6.36-2.8-6.41-2.83-.58.18-2.4,0-3.92.68-1.06.46-2.78,10.75-2.46,17.95,3.07,1,10-.55,14.58.25,3.69.65,9.45,2.28,10.24,2.13" style="fill:#a3abb1;stroke:#333;stroke-miterlimit:10;stroke-width:0.8868365903445071px"/><path d="M443.58,307.43a4.4,4.4,0,0,1-1.61-1.28c-1.26-1.28-4.33-15.29-4.11-17l-11.41-.61s-3.9,26.53-8,38.58l1.21,2.75,8.35,1.44a32.74,32.74,0,0,0,5.41.46h9.49Z" style="fill:#fff;stroke:#333;stroke-miterlimit:10;stroke-width:0.8654640085653248px"/><path d="M444.55,300.52c-.58,18.73,1.38,30,1.38,30l-7.47,3.95a76.37,76.37,0,0,1-1.3-21.36c1-11.16-1.45-24.5-1.45-24.5" style="fill:#a3abb1;stroke:#333;stroke-miterlimit:10;stroke-width:0.8654640085653248px"/><polygon points="437.08 316.05 441.32 309.95 439.05 303.95 442.36 300.44 436.93 287.91 437.08 316.05" style="fill:#4d565b;stroke:#333;stroke-linejoin:round;stroke-width:0.8654640085653248px"/><path d="M426.71,288.57s-2.48,13.34-1.45,24.5a76.37,76.37,0,0,1-1.3,21.36l-6.82-4.11s2.21-6.42,1.63-25.15" style="fill:#a3abb1;stroke:#333;stroke-miterlimit:10;stroke-width:0.8654640085653248px"/><polygon points="425.96 315.38 421.73 309.28 424 303.28 420.69 299.76 426.12 287.24 425.96 315.38" style="fill:#4d565b;stroke:#333;stroke-linejoin:round;stroke-width:0.8654640085653248px"/><path d="M427.37,293.65a.76.76,0,0,1-.63-.25,2.82,2.82,0,0,1-.54-.87,22.53,22.53,0,0,1-1.78-6,.75.75,0,0,1,0-.47.72.72,0,0,1,.31-.26c.59-.34,1.32-.67,1.89-.31a20.36,20.36,0,0,1,3.24,4C430.31,290.7,427.8,293.58,427.37,293.65Z" style="fill:#fff;stroke:#333;stroke-miterlimit:10;stroke-width:0.8654640085653248px"/><path d="M436.49,293.65a.77.77,0,0,0,.63-.25,2.82,2.82,0,0,0,.54-.87,22.15,22.15,0,0,0,1.77-6,.69.69,0,0,0,0-.47.72.72,0,0,0-.31-.26c-.59-.34-1.32-.67-1.89-.31a20.36,20.36,0,0,0-3.24,4C433.55,290.7,436.06,293.58,436.49,293.65Z" style="fill:#fff;stroke:#333;stroke-miterlimit:10;stroke-width:0.8654640085653248px"/><path d="M431.4,321.89l-2.83-5a5,5,0,0,1,0-2.14l1.56-21.1h3.39l1.56,21.1a4.83,4.83,0,0,1,0,2.14l-2.82,5A.44.44,0,0,1,431.4,321.89Z" style="fill:#ef7b10;stroke:#333;stroke-miterlimit:10;stroke-width:0.8654640085653248px"/><path d="M434.33,292.71a.83.83,0,0,1-.83.94h-3.26a.83.83,0,0,1-.82-.94l.21-1.53a.81.81,0,0,0,0-.22l-.21-1.53a.83.83,0,0,1,.82-.95h3.26a.84.84,0,0,1,.83.95l-.21,1.53a.81.81,0,0,0,0,.22Z" style="fill:#ef7b10;stroke:#333;stroke-miterlimit:10;stroke-width:0.8654640085653248px"/><line x1="418.72" y1="302.92" x2="418.77" y2="305.24" style="fill:#a3abb1;stroke:#333;stroke-miterlimit:10;stroke-width:0.8654640085653248px"/><path d="M413.24,405.27h10.14a0,0,0,0,1,0,0v3.62a0,0,0,0,1,0,0H412.77a0,0,0,0,1,0,0v-3.15A.47.47,0,0,1,413.24,405.27Z" style="fill:#ef7b10;stroke:#333;stroke-miterlimit:10;stroke-width:0.8654640085653248px"/><path d="M422.38,256.16v5.91l-1.79.73s-3.23-7.32-.22-10.79" style="fill:#fff;stroke:#333;stroke-miterlimit:10;stroke-width:0.8868365903445071px"/><path d="M421.82,262.32s-2.45.11-2.26,4.19a3.93,3.93,0,0,0,3.85,4.07" style="fill:#fff;stroke:#333;stroke-miterlimit:10;stroke-width:0.8868365903445071px"/><path d="M442.62,261.26s2.45.11,2.26,4.19-4.4,3.87-4.4,3.87" style="fill:#fff;stroke:#333;stroke-miterlimit:10;stroke-width:0.8868365903445071px"/><path d="M432.22,251.36h9.57a61.35,61.35,0,0,1-1.2,18.52c-2.48,11.15-8.43,12.13-13.47,11.95-5.3-.18-4-7.09-4.46-12.62-1.43-17.31,1.83-17.85,1.83-17.85h7.73" style="fill:#fff;stroke:#333;stroke-miterlimit:10;stroke-width:0.8868365903445071px"/><path d="M432.44,251.32s-.82,3.14-7.36,5.43l.42-3.15-3.26,3.57s-2.3-1.94-1.53-7.74,6.32-6.19,10.22-4.6c4.13,1.7,6.11-.58,11,3.36a7.49,7.49,0,0,1,2.51,3.84,11,11,0,0,1,.46,4,61,61,0,0,1-1.31,6.24l-1.9.81S442.36,253.17,432.44,251.32Z" style="fill:#fff;stroke:#333;stroke-miterlimit:10;stroke-width:0.8868365903445071px"/><ellipse cx="431.93" cy="267.09" rx="0.66" ry="0.99" style="fill:#333"/><ellipse cx="425.17" cy="266.2" rx="0.66" ry="0.99" style="fill:#333"/><path d="M425.26,275.31a3.17,3.17,0,0,1,3.92.15" style="fill:none;stroke:#333;stroke-linecap:round;stroke-linejoin:round;stroke-width:0.9264484131225027px"/><path d="M444.55,300.52l4.28,1.9L454,309c.75,2.83-11.87,15.67-10.92,14.69l3.52,3.36a31.34,31.34,0,0,0,8.42-7.17,84.92,84.92,0,0,0,5.85-7.35,4.45,4.45,0,0,0,1-3.53c-2.31-7.86-10.32-18-18.06-20.8" style="fill:#a3abb1;stroke:#333;stroke-linecap:round;stroke-linejoin:round;stroke-width:0.8868365903445071px"/><path d="M418.72,300l-2.41,1-5.37,6.41c-.85,2.8,11.34,16.05,10.42,15.05l-3.62,3.23a31.29,31.29,0,0,1-8.18-7.44,85.79,85.79,0,0,1-5.61-7.54,4.46,4.46,0,0,1-.87-3.56c2.58-7.78,10.92-17.65,18.75-20.19" style="fill:#a3abb1;stroke:#333;stroke-linecap:round;stroke-linejoin:round;stroke-width:0.8868365903445071px"/><ellipse cx="443.02" cy="327.06" rx="4.6" ry="3.22" transform="translate(-104.17 265.33) rotate(-30)" style="fill:#fff;stroke:#333;stroke-miterlimit:10;stroke-width:0.8654640085653248px"/><ellipse cx="422.3" cy="326.58" rx="3.22" ry="4.6" transform="translate(-107.24 394.26) rotate(-45)" style="fill:#fff;stroke:#333;stroke-miterlimit:10;stroke-width:0.8654640085653248px"/><polygon points="444.11 288.73 441.7 291.36 443.32 299.56 444.2 300.23 444.32 300.14 444.4 300.1 444.52 300.07 444.55 300.01 448.02 301.31 446.79 293.66 444.11 288.73" style="fill:#a3abb1"/><path d="M442,287.7a16.5,16.5,0,0,1,3.75,1.86c2.61,1.58-1.63,2.84-1.63,2.84l-2.75-3Z" style="fill:#a3abb1"/><path d="M418.72,299.49a.61.61,0,0,1,.55.28c.21.33,1.17-1.61,1.17-1.61v-4.23s-6.58.44-6.22,1.26a21.11,21.11,0,0,0,1.93,2.77Z" style="fill:#a3abb1"/><text transform="translate(406.81 252.23)" style="font-size:21.841224670410156px;fill:#ef7b10;font-family:MetaPro-Black, MetaPro;font-weight:800">?</text><text transform="translate(449.4 265.55)" style="font-size:21.841224670410156px;fill:#ef7b10;font-family:MetaPro-Black, MetaPro;font-weight:800">?</text><text transform="translate(431.2 233.53)" style="font-size:21.841224670410156px;fill:#ef7b10;font-family:MetaPro-Black, MetaPro;font-weight:800">?</text></g><rect x="134.88" y="149.28" width="443.23" height="278.81" rx="5.11" style="fill:none;stroke:#333;stroke-miterlimit:10;stroke-width:2px"/></g></g></svg>