<svg xmlns="http://www.w3.org/2000/svg" xmlns:xlink="http://www.w3.org/1999/xlink" viewBox="0 0 718 584"><defs><clipPath id="clip-path"><rect x="211.64" y="136.57" width="374" height="310.86" rx="2.17" style="fill:none;stroke:#333;stroke-miterlimit:10;stroke-width:2px"/></clipPath><radialGradient id="radial-gradient" cx="-3138.26" cy="-2028.31" r="0.02" gradientTransform="matrix(2291.67, 0, 0, -2218.75, 7192017.63, -4500176.47)" gradientUnits="userSpaceOnUse"><stop offset="0" stop-color="#442f55" stop-opacity="0.98"/><stop offset="1" stop-color="#12002c"/></radialGradient><clipPath id="clip-path-2"><rect x="211.64" y="136.57" width="374" height="310.86" rx="2.17" style="fill:none"/></clipPath><clipPath id="clip-path-3"><rect x="104.13" y="60.14" width="686.9" height="386.87" style="fill:none"/></clipPath></defs><g style="isolation:isolate"><g id="Layer_1" data-name="Layer 1"><rect width="718" height="584" style="fill:#26aece"/><rect x="104.13" y="116.68" width="509.74" height="350.63" rx="19.52" style="fill:#fff;stroke:#333;stroke-miterlimit:10;stroke-width:3px"/><g style="clip-path:url(#clip-path)"><rect x="131.38" y="94.56" width="456.45" height="352.86" style="fill:none;stroke:#333;stroke-miterlimit:10;stroke-width:1.9498209953308105px"/></g><rect x="211.64" y="136.57" width="374" height="310.86" rx="2.17" style="fill:none;stroke:#333;stroke-miterlimit:10;stroke-width:2px"/><rect x="224.32" y="412.9" width="33.88" height="23.08" rx="0.96" style="fill:#26aece"/><rect x="265.2" y="412.9" width="307.66" height="22.41" rx="2.86" style="fill:#ef7b13"/><rect x="272.77" y="421.48" width="113.75" height="4.77"/><rect x="337.15" y="421.74" width="206.75" height="4.91" style="fill:#fff"/><path d="M245.88,424.53c.48-.23.48-.61,0-.83L238.23,420a.55.55,0,0,0-.86.54v7.08a.56.56,0,0,0,.86.55Z"/><path d="M138.33,136.57h41.74a5.67,5.67,0,0,1,5.67,5.67v40.29a5.66,5.66,0,0,1-5.67,5.66H138.33a5.66,5.66,0,0,1-5.66-5.66V142.24A5.67,5.67,0,0,1,138.33,136.57Z" style="stroke:#333;stroke-miterlimit:10;stroke-width:2px;fill:url(#radial-gradient)"/><path d="M170.41,155.58c-5.18,0-8.13,4.66-8.13,10.35,0,5.23,2.39,9.94,8.76,9.94a10.9,10.9,0,0,0,4.85-.92.5.5,0,0,0,.24-.48v-3c0-.21-.12-.24-.29-.16a9.52,9.52,0,0,1-3.93.74c-3.65,0-5.2-2.17-5.26-5.4H173a35.58,35.58,0,0,0,4-.17.36.36,0,0,0,.31-.31,12.32,12.32,0,0,0,.19-2.56C177.5,160,175.67,155.58,170.41,155.58Zm2.92,7.65a10.21,10.21,0,0,1-1.78.05H166.7c.24-2.15,1.23-4.18,3.54-4.18,2.51,0,3.14,2.42,3.14,3.72C173.38,162.94,173.33,163.06,173.33,163.23Z" style="fill:#d8a1ff"/><path d="M161.2,175.19l-7.67-26c-.05-.19-.12-.24-.29-.24h-5.07c-.12,0-.19.08-.19.24a7.48,7.48,0,0,1-.24,2l-6.85,23.95c0,.29,0,.37.24.37h3.54c.25,0,.32-.08.37-.27l1.9-7.21h7.74l2,7.24a.34.34,0,0,0,.36.24h4C161.2,175.51,161.25,175.39,161.2,175.19Zm-13.27-11.07c1-3.74,2.32-8.51,2.82-11.34h.05c.6,2.83,2.24,8.66,2.92,11.34Z" style="fill:#d8a1ff"/><rect x="552.98" y="419.21" width="4.21" height="4.21" style="fill:none"/><rect x="559.23" y="419.21" width="4.21" height="4.21" style="fill:none"/><rect x="552.98" y="425.46" width="4.21" height="4.21" style="fill:none"/><rect x="559.23" y="425.46" width="4.21" height="4.21" style="fill:none"/><polygon points="552.98 419.21 557.19 419.21 557.19 417.17 550.94 417.17 550.94 423.42 552.98 423.42 552.98 419.21" style="fill:#333"/><polygon points="563.44 429.67 559.23 429.67 559.23 431.71 565.49 431.71 565.49 425.46 563.44 425.46 563.44 429.67" style="fill:#333"/><polygon points="563.44 419.21 563.44 423.42 565.49 423.42 565.49 417.17 559.23 417.17 559.23 419.21 563.44 419.21" style="fill:#333"/><polygon points="552.98 429.67 552.98 425.46 550.94 425.46 550.94 431.71 557.19 431.71 557.19 429.67 552.98 429.67" style="fill:#333"/><g style="clip-path:url(#clip-path-2)"><rect x="104.34" y="60.45" width="686.68" height="386.55" style="fill:#9bd7f6"/><path d="M104.13,84.17V423.71H791V84.17Zm85.81,172.15H138v-52h52Zm0-61.4H138V143h52Zm61,61.4H199v-52h52Zm0-61.4H199V143h52Zm445.14,61.4h-52v-52h52Zm0-61.4h-52V143h52Zm61,61.4h-52v-52h52Zm0-61.4h-52V143h52Z" style="fill:#f6f6f6"/><rect x="105.13" y="399.21" width="685.89" height="36.53" style="fill:#d85409"/><polygon points="791.02 447.01 104.13 447.43 105.13 423.71 791.02 423.71 791.02 447.01" style="fill:#c6c6c6"/><g style="opacity:0.5"><path d="M130.4,135.56V263.73H258.56V135.56Zm59.54,120.78H138v-52h52Zm0-61.42H138V143h52Zm61,61.42H199v-52h52Zm0-61.42H199V143h52Z" style="fill:#ededed"/><polygon points="138.08 179.14 174.29 142.95 158.81 142.95 138.08 163.67 138.08 179.14" style="fill:#fff;opacity:0.30000000000000004"/><polygon points="138.08 252.54 247.75 142.95 232.28 142.95 138.08 237.07 138.08 252.54" style="fill:#fff;opacity:0.30000000000000004"/><path d="M636.59,135.56V263.73H764.75V135.56Zm59.56,120.78h-52v-52h52Zm0-61.42h-52V143h52Zm61,61.42h-52v-52h52Zm0-61.42h-52V143h52Z" style="fill:#ededed"/><polygon points="757.08 252.54 647.4 142.95 662.87 142.95 757.08 237.07 757.08 252.54" style="fill:#fff;opacity:0.30000000000000004"/></g><polygon points="791.02 83.75 104.13 84.17 105.13 60.45 791.02 60.45 791.02 83.75" style="fill:#f6f6f6"/><path d="M130.4,135.56V263.73H258.56V135.56Zm59.54,120.78H138v-52h52Zm0-61.42H138V143h52Zm61,61.42H199v-52h52Zm0-61.42H199V143h52Z" style="fill:#ededed"/><path d="M653.19,332.75a4.47,4.47,0,0,0-5-2.4.8.8,0,0,1-.69-.08l0-1.73a.92.92,0,0,0-.81-.89,131.81,131.81,0,0,0-14.84-.19c-1.08.11-.92.61-.92.61s.15,15.49.19,16.77,3.71,2,7.72,2.16a19.33,19.33,0,0,0,7.73-1.24,1,1,0,0,0,.58-.92l0-2.19a1,1,0,0,1,.37,0,4,4,0,0,0,4.68-.81C654.34,339.89,654.5,335.57,653.19,332.75Zm-3,8.8a1.82,1.82,0,0,1-2.27-1.31,2.41,2.41,0,0,0-.35-.89c-.12-1.12.15-5.83.15-5.83.26-1.51,1-2.28,2.47-2.09s2.75,1.9,2.9,4.72S651.76,341.32,650.17,341.55Z" style="fill:#ef7b10"/><path d="M645.15,344.84c0-1.28.2-16.77.2-16.77s.15-.5-.93-.61c-.39,0-2-.09-4.06-.11,3.76,0,5.59,0,6.23.11,1.08.11.92.61.92.61s-.15,15.49-.19,16.77-1.68,2-5.7,2.16a21.83,21.83,0,0,1-2.6-.08C642.37,346.67,645.12,345.94,645.15,344.84Z" style="fill:#d85409"/><g style="clip-path:url(#clip-path-3)"><path d="M231,314.5l-18.87,62.61a4.42,4.42,0,0,1-4.22,3.14H187.83a4.4,4.4,0,0,0-4.41,4.4V427.2a4.4,4.4,0,0,0,4.41,4.41H154.64a4.4,4.4,0,0,1-4.41-4.41V384.65a4.4,4.4,0,0,1,4.41-4.4h20.09a4.42,4.42,0,0,0,4.22-3.14l18.29-60.68a10.69,10.69,0,0,1,10.24-7.61h19.31A4.41,4.41,0,0,1,231,314.5Z" style="fill:none;stroke:#58595b;stroke-linecap:round;stroke-miterlimit:10;stroke-width:2.6186499866645714px"/><path d="M191.25,350.06h25.67a4.7,4.7,0,0,0,4.5-3.35L230,318.13a3,3,0,0,0-2.86-3.85H201.5a4.7,4.7,0,0,0-4.5,3.35l-8.61,28.58A3,3,0,0,0,191.25,350.06Z" style="fill:#11393d"/><path d="M191.25,350.06h22.17a4.71,4.71,0,0,0,4.51-3.35l8.62-28.58a3,3,0,0,0-2.86-3.85H201.52a4.75,4.75,0,0,0-4.53,3.35l-8.6,28.58A3,3,0,0,0,191.25,350.06Z" style="fill:#4b9fa3"/><path d="M155.06,367.72h46.87a3.93,3.93,0,0,1,3.93,3.93v6.11a0,0,0,0,1,0,0H151.13a0,0,0,0,1,0,0v-6.11A3.93,3.93,0,0,1,155.06,367.72Z" style="fill:#4b9fa3"/><rect x="148.68" y="374.08" width="59.64" height="5.86" rx="1.76" style="fill:#11393d"/><path d="M207.48,308.82h19.31A4.41,4.41,0,0,1,231,314.5l-18.87,62.61a4.42,4.42,0,0,1-4.22,3.14H187.83a4.4,4.4,0,0,0-4.41,4.4V427.2a4.4,4.4,0,0,0,4.41,4.41h26" style="fill:none;stroke:#808081;stroke-linecap:round;stroke-miterlimit:10;stroke-width:2.6186499866645714px"/><rect x="111.75" y="314.28" width="31.44" height="32.75" transform="translate(254.94 661.31) rotate(-180)" style="fill:#4b9fa3"/><path d="M144.4,314.5l-.62,62.61a4.42,4.42,0,0,1-4.22,3.14H119.47a4.4,4.4,0,0,0-4.41,4.4V427.2a4.4,4.4,0,0,0,4.41,4.41H86.28a4.4,4.4,0,0,1-4.41-4.41V384.65a4.4,4.4,0,0,1,4.41-4.4h20.09a4.42,4.42,0,0,0,4.22-3.14l0-60.68a10.71,10.71,0,0,1,10.24-7.61h19.31A4.41,4.41,0,0,1,144.4,314.5Z" style="fill:none;stroke:#58595b;stroke-linecap:round;stroke-miterlimit:10;stroke-width:2.6186499866645714px"/><path d="M86.7,367.72h46.87a3.93,3.93,0,0,1,3.93,3.93v6.11a0,0,0,0,1,0,0H82.77a0,0,0,0,1,0,0v-6.11A3.93,3.93,0,0,1,86.7,367.72Z" style="fill:#4b9fa3"/><rect x="80.32" y="374.08" width="59.64" height="5.86" rx="1.76" style="fill:#11393d"/><path d="M145.43,431.61H86.28a4.4,4.4,0,0,1-4.41-4.41V384.65a4.4,4.4,0,0,1,4.41-4.4h20.09a4.42,4.42,0,0,0,4.22-3.14l0-60.68a10.71,10.71,0,0,1,10.24-7.61h19.31" style="fill:none;stroke:#808081;stroke-linecap:round;stroke-linejoin:round;stroke-width:2.6186499866645714px"/><ellipse cx="129.73" cy="432.55" rx="149.09" ry="3.21" style="fill:#9c7f77;mix-blend-mode:multiply;opacity:0.4"/><polygon points="15.77 432.37 9.53 432.37 18.7 352.93 27.54 352.93 15.77 432.37" style="fill:#754200"/><polygon points="264.24 432.37 270.48 432.37 261.31 352.93 252.47 352.93 264.24 432.37" style="fill:#754200"/><rect x="9.53" y="345.03" width="260.95" height="8.16" style="fill:#dadada"/><rect x="9.53" y="350.64" width="260.95" height="2.56" style="fill:#9e9e9e;mix-blend-mode:multiply;opacity:0.5"/><rect x="159.53" y="299.65" width="65.14" height="41.98" rx="1.79" style="fill:#6d6e71"/><path d="M158.59,340.29v3.13a1.68,1.68,0,0,0,1.5,1.79h64a1.68,1.68,0,0,0,1.5-1.79v-3.13Z" style="fill:#414042"/><path d="M158.59,343.42a1.68,1.68,0,0,0,1.5,1.79h64a1.68,1.68,0,0,0,1.5-1.79v-.3h-67Z" style="fill:#414042;mix-blend-mode:multiply;opacity:0.4"/><polygon points="224.67 301.3 224.67 340.29 159.53 340.29 224.67 301.3" style="fill:#9e9e9e;mix-blend-mode:multiply;opacity:0.30000000000000004"/><rect x="71.56" y="299.65" width="65.14" height="41.98" rx="1.79" style="fill:#6d6e71"/><path d="M70.63,340.29v3.13a1.67,1.67,0,0,0,1.49,1.79h64a1.67,1.67,0,0,0,1.49-1.79v-3.13Z" style="fill:#414042"/><path d="M70.63,343.42a1.67,1.67,0,0,0,1.49,1.79h64a1.67,1.67,0,0,0,1.49-1.79v-.3h-67Z" style="fill:#414042;mix-blend-mode:multiply;opacity:0.4"/><polygon points="136.7 301.3 136.7 340.29 71.56 340.29 136.7 301.3" style="fill:#9e9e9e;mix-blend-mode:multiply;opacity:0.30000000000000004"/><path d="M694.83,350.06H669.17a4.71,4.71,0,0,1-4.51-3.35L656,318.13a3,3,0,0,1,2.86-3.85h25.68a4.72,4.72,0,0,1,4.51,3.35l8.6,28.58A3,3,0,0,1,694.83,350.06Z" style="fill:#4b9fa3"/><path d="M655.07,314.5,674,377.11a4.41,4.41,0,0,0,4.22,3.14h20.09a4.41,4.41,0,0,1,4.41,4.4V427.2a4.41,4.41,0,0,1-4.41,4.41h33.19a4.41,4.41,0,0,0,4.41-4.41V384.65a4.41,4.41,0,0,0-4.41-4.4H711.36a4.41,4.41,0,0,1-4.22-3.14l-18.3-60.68a10.69,10.69,0,0,0-10.24-7.61H659.29A4.41,4.41,0,0,0,655.07,314.5Z" style="fill:none;stroke:#58595b;stroke-linecap:round;stroke-miterlimit:10;stroke-width:2.6186499866645714px"/><path d="M680.23,367.72H735a0,0,0,0,1,0,0v6.11a3.93,3.93,0,0,1-3.93,3.93H684.16a3.93,3.93,0,0,1-3.93-3.93v-6.11A0,0,0,0,1,680.23,367.72Z" transform="translate(1415.18 745.49) rotate(180)" style="fill:#4b9fa3"/><rect x="677.77" y="374.08" width="59.64" height="5.86" rx="1.76" transform="translate(1415.18 754.02) rotate(180)" style="fill:#11393d"/><path d="M672.29,431.61h59.16a4.41,4.41,0,0,0,4.41-4.41V384.65a4.41,4.41,0,0,0-4.41-4.4H711.36a4.41,4.41,0,0,1-4.22-3.14l-18.3-60.68a10.69,10.69,0,0,0-10.24-7.61H659.29" style="fill:none;stroke:#808081;stroke-linecap:round;stroke-linejoin:round;stroke-width:2.6186499866645714px"/><ellipse cx="764.2" cy="432.55" rx="150.31" ry="3.21" style="fill:#9c7f77;mix-blend-mode:multiply;opacity:0.4"/><polygon points="630.91 432.37 624.67 432.37 633.84 352.93 642.69 352.93 630.91 432.37" style="fill:#754200"/><rect x="624.67" y="345.03" width="260.95" height="8.16" style="fill:#dadada"/><rect x="624.67" y="350.64" width="260.95" height="2.56" style="fill:#9e9e9e;mix-blend-mode:multiply;opacity:0.5"/><rect x="670.48" y="299.65" width="65.14" height="41.98" rx="1.79" style="fill:#6d6e71"/><path d="M736.56,340.29v3.13a1.67,1.67,0,0,1-1.5,1.79H671a1.67,1.67,0,0,1-1.49-1.79v-3.13Z" style="fill:#414042"/><path d="M736.56,343.42a1.67,1.67,0,0,1-1.5,1.79H671a1.67,1.67,0,0,1-1.49-1.79v-.3h67Z" style="fill:#414042;mix-blend-mode:multiply;opacity:0.4"/><polygon points="670.48 301.3 670.48 340.29 735.62 340.29 670.48 301.3" style="fill:#9e9e9e;mix-blend-mode:multiply;opacity:0.30000000000000004"/></g><path d="M274.06,306.21c.08,0-.32,11.92-3.37,16.5-4.68,7-9.16,23.82-11.41,21.52.12-5.73.32-12.72,3.28-17.46C267,319.62,274.06,306.21,274.06,306.21Z" style="fill:#60999e"/><path d="M267,326.17c-3.23,4.34-3.14,10.43-4.09,15.5-.81,4.32-3.62,2.56-3.62,2.56,2.25,2.3,3.06-4.65,5.22-2.14-1.53-8.49,1.51-12.36,6.19-19.38a23.83,23.83,0,0,0,3.37-16.5A33.83,33.83,0,0,1,267,326.17Z" style="fill:#60999e;mix-blend-mode:multiply;opacity:0.4"/><path d="M236.52,312s-.42,1.66,5.94,6,12.4,15.8,12.41,23.78c2.16,1,3.22,1.46,5.31,2.32-1.55-7.1-3.47-15.25-8-20.84C248,318.06,241.41,316.38,236.52,312Z" style="fill:#60999e"/><path d="M247.16,320.92c4.49,3.89,6,9.84,8.11,15.33a21.23,21.23,0,0,0,4.91,7.84c-2.09-.86-3.15-1.33-5.31-2.32,0-8-6-19.43-12.41-23.78s-5.94-6-5.94-6C238.42,315.68,244.26,318.39,247.16,320.92Z" style="fill:#60999e;mix-blend-mode:multiply;opacity:0.4"/><path d="M263.94,298.09c-.06,0-2.73,12.15-3.71,18.11-.82,5,.13,15.76-6.59,17.42a78.21,78.21,0,0,1,5.87,6,22.7,22.7,0,0,0,5.83-14.39C265.58,316.32,263.94,298.09,263.94,298.09Z" style="fill:#387276"/><path d="M265.34,325.25c.24-8.93-.64-18.15-1.4-27.16l-.29,1.39c-.84,10.45.7,21.36-.75,31.5-.76,5.27-5.93,4.49-9.26,2.64a78.21,78.21,0,0,1,5.87,6A22.7,22.7,0,0,0,265.34,325.25Z" style="fill:#387276;mix-blend-mode:multiply;opacity:0.4"/><path d="M247.81,302.2A89.91,89.91,0,0,1,252.54,314c2.24,7.79,3.57,14.57,8.09,21.77a54.64,54.64,0,0,1-5.65-.83c-2.55-4.89-6.44-10.4-7.17-15.67S247.81,302.2,247.81,302.2Z" style="fill:#387276"/><path d="M247.81,319.22c-.75-5.37-.24-11.38,0-17l.34.68c1.25,7.14.45,14.74,2.59,21.56,1.47,4.68,5.69,8.69,9.89,11.28a54.64,54.64,0,0,1-5.65-.83C252.43,330,248.54,324.49,247.81,319.22Z" style="fill:#387276;mix-blend-mode:multiply;opacity:0.4"/><path d="M239.17,309.46s3.87,4.53,6,7.48c2.95,4,8,10.14,6.47,15.73,2.41,1.37,3.59,2.08,5.93,3.54-.49-5.06-1.51-10.68-4.31-14.87C250,316.38,245.08,311.46,239.17,309.46Z" style="fill:#387276"/><path d="M253.3,321.34c-3.33-5-8.22-9.88-14.13-11.88l.39.38A37.57,37.57,0,0,1,254.7,326.5c3,6.85-3,6.17-3,6.17,2.41,1.37,3.59,2.08,5.93,3.54C257.12,331.15,256.1,325.53,253.3,321.34Z" style="fill:#387276;mix-blend-mode:multiply;opacity:0.4"/><path d="M259.32,289.37c.15-.08,2.65,10.76,1.36,15.49-2.73,10-1.14,24.76,2.89,34.41-2.8-1.91-4.24-2.82-7.16-4.59-1.84-6.69-4.86-14.77-3.34-21.28C254.85,305.84,259.32,289.37,259.32,289.37Z" style="fill:#60999e"/><path d="M259.32,289.37a14.42,14.42,0,0,1,1.93,5.62,27.92,27.92,0,0,1-.57,9.87c-2.73,10-1.14,24.76,2.89,34.41-2.8-1.91-4.24-2.82-7.16-4.59-1.84-6.69-4.86-14.77-3.34-21.28C254.85,305.84,259.32,289.37,259.32,289.37Z" style="fill:#60999e"/><path d="M257.69,310.36c-1.78,6.46.31,12.32,1.15,19,.73,5.87-2.43,5.35-2.43,5.35,2.92,1.77,4.36,2.68,7.16,4.59-4-9.65-5.62-24.41-2.89-34.41,1.29-4.73,2.43-11.26-1.36-15.49C262.9,295.52,259.31,304.5,257.69,310.36Z" style="fill:#60999e;mix-blend-mode:multiply;opacity:0.4"/><polygon points="266.81 345.01 250.9 345.01 250.15 330.62 267.55 330.62 266.81 345.01" style="fill:#fcd278"/><rect x="249.07" y="329.27" width="19.55" height="1.35" style="fill:#f9b27f"/><path d="M514.85,274.43a10,10,0,0,0,6.38,2.25,8.8,8.8,0,0,0,6.11-2.25V256.1H514.85Z" style="fill:#fff;stroke:#333;stroke-miterlimit:10;stroke-width:1.162108415744084px"/><ellipse cx="514.13" cy="431.74" rx="24.59" ry="3.21" style="fill:#9c7f77;mix-blend-mode:multiply;opacity:0.4"/><ellipse cx="431.97" cy="432.74" rx="24.59" ry="3.21" style="fill:#9c7f77;mix-blend-mode:multiply;opacity:0.4"/><ellipse cx="329.65" cy="431.74" rx="24.59" ry="3.21" style="fill:#9c7f77;mix-blend-mode:multiply;opacity:0.4"/><line x1="505.56" y1="417.37" x2="506.35" y2="425.7" style="fill:none;stroke:#333;stroke-miterlimit:10;stroke-width:1.162108415744084px"/><path d="M519.8,428.07h13.29a0,0,0,0,1,0,0v4.75a0,0,0,0,1,0,0H519.17a0,0,0,0,1,0,0v-4.13A.62.62,0,0,1,519.8,428.07Z" style="fill:#ef7b10;stroke:#333;stroke-miterlimit:10;stroke-width:1.134101838859251px"/><line x1="527.25" y1="415.72" x2="528.06" y2="428.57" style="fill:none;stroke:#333;stroke-miterlimit:10;stroke-width:1.162108415744084px"/><path d="M535.86,328.12c2.23,3.26,2.08,7.54,1.83,11.48-.63,10.29-2.42,21.66-3.44,36.88-1.2,18-1,46.11-1.61,48h-10l-.77-48,.14-38.64h-3.57L507.8,384.19l3.62,37.51h-9.29l-5.37-38.38L505,326.39Z" style="fill:#4d565b;stroke:#333;stroke-linejoin:round;stroke-width:1.162108415744084px"/><path d="M510.65,333.54c-1.77,2.54-3.84,5.28-6.88,5.88" style="fill:none;stroke:#333;stroke-linecap:round;stroke-linejoin:round;stroke-width:1.162108415744084px"/><path d="M529.6,333.54c1.77,2.54,3.84,5.28,6.88,5.88" style="fill:none;stroke:#333;stroke-linecap:round;stroke-linejoin:round;stroke-width:1.162108415744084px"/><path d="M537.16,272.89c-2.06-2.39-7.36-2.85-7.42-2.81-1.3.75-3.7,3.6-9.22,3.6-3.94,0-8.34-3.68-8.4-3.72-.75.24-3.15,0-5.13.89-1.4.61-3.65,14.09-3.23,23.53,4,1.32,13.08-.73,19.1.33,4.84.85,12.38,3,13.43,2.78" style="fill:#a3abb1;stroke:#333;stroke-miterlimit:10;stroke-width:1.162108415744084px"/><path d="M536.29,297.49a5.77,5.77,0,0,1-2.12-1.68c-1.64-1.68-5.67-20-5.38-22.24l-14.95-.79s-5.11,34.77-10.49,50.56l1.58,3.6,10.95,1.88a41.83,41.83,0,0,0,7.07.6h12.44Z" style="fill:#fff;stroke:#333;stroke-miterlimit:10;stroke-width:1.134101838859251px"/><path d="M537.55,288.44c-.76,24.54,1.81,39.26,1.81,39.26l-9.79,5.18a100.18,100.18,0,0,1-1.7-28c1.36-14.63-1.9-32.11-1.9-32.11" style="fill:#a3abb1;stroke:#333;stroke-miterlimit:10;stroke-width:1.134101838859251px"/><polygon points="527.77 308.79 533.33 300.79 530.35 292.94 534.68 288.33 527.57 271.92 527.77 308.79" style="fill:#4d565b;stroke:#333;stroke-linejoin:round;stroke-width:1.134101838859251px"/><path d="M514.18,272.78s-3.26,17.48-1.9,32.11a100.18,100.18,0,0,1-1.7,28l-8.94-5.39s2.89-8.41,2.13-32.95" style="fill:#a3abb1;stroke:#333;stroke-miterlimit:10;stroke-width:1.134101838859251px"/><polygon points="513.2 307.9 507.65 299.91 510.63 292.06 506.29 287.45 513.41 271.04 513.2 307.9" style="fill:#4d565b;stroke:#333;stroke-linejoin:round;stroke-width:1.134101838859251px"/><path d="M515,279.44a1,1,0,0,1-.83-.34,3.57,3.57,0,0,1-.7-1.13,29.23,29.23,0,0,1-2.33-7.87,1.06,1.06,0,0,1,0-.61,1,1,0,0,1,.42-.34c.76-.44,1.73-.88,2.47-.4a26.44,26.44,0,0,1,4.25,5.24C518.89,275.58,515.61,279.35,515,279.44Z" style="fill:#fff;stroke:#333;stroke-miterlimit:10;stroke-width:1.134101838859251px"/><path d="M527,279.44a1,1,0,0,0,.83-.34,3.79,3.79,0,0,0,.71-1.13,29.21,29.21,0,0,0,2.32-7.87.72.72,0,0,0-.45-1c-.77-.44-1.73-.88-2.48-.4a26,26,0,0,0-4.24,5.24C523.14,275.58,526.43,279.35,527,279.44Z" style="fill:#fff;stroke:#333;stroke-miterlimit:10;stroke-width:1.134101838859251px"/><path d="M520.32,316.44l-3.7-6.54a6.35,6.35,0,0,1,0-2.81l2-27.65h4.43l2,27.65a6.35,6.35,0,0,1,0,2.81l-3.69,6.54A.59.59,0,0,1,520.32,316.44Z" style="fill:#ef7b10;stroke:#333;stroke-miterlimit:10;stroke-width:1.134101838859251px"/><path d="M524.16,278.2a1.09,1.09,0,0,1-1.08,1.24h-4.27a1.09,1.09,0,0,1-1.08-1.24l.27-2a1.4,1.4,0,0,0,0-.29l-.27-2a1.09,1.09,0,0,1,1.08-1.23h4.27a1.09,1.09,0,0,1,1.08,1.23l-.27,2a1.4,1.4,0,0,0,0,.29Z" style="fill:#ef7b10;stroke:#333;stroke-miterlimit:10;stroke-width:1.134101838859251px"/><line x1="503.71" y1="291.59" x2="503.77" y2="294.62" style="fill:#a3abb1;stroke:#333;stroke-miterlimit:10;stroke-width:1.134101838859251px"/><path d="M496.53,425.7h13.29a0,0,0,0,1,0,0v4.75a0,0,0,0,1,0,0H495.9a0,0,0,0,1,0,0v-4.13A.62.62,0,0,1,496.53,425.7Z" style="fill:#ef7b10;stroke:#333;stroke-miterlimit:10;stroke-width:1.134101838859251px"/><path d="M508.5,230.31v7.74l-2.34,1s-4.23-9.6-.29-14.14" style="fill:#fff;stroke:#333;stroke-miterlimit:10;stroke-width:1.162108415744084px"/><path d="M507.77,238.38s-3.21.15-3,5.49a5.15,5.15,0,0,0,5,5.34" style="fill:#fff;stroke:#333;stroke-miterlimit:10;stroke-width:1.162108415744084px"/><path d="M535,238.38s3.21.15,3,5.49-5.77,5.07-5.77,5.07" style="fill:#fff;stroke:#333;stroke-miterlimit:10;stroke-width:1.162108415744084px"/><path d="M521.4,224H534a80.35,80.35,0,0,1-1.59,24.27c-3.24,14.61-11,15.89-17.65,15.66-6.94-.24-5.25-9.3-5.84-16.54-1.87-22.68,2.4-23.39,2.4-23.39H521.4" style="fill:#fff;stroke:#333;stroke-miterlimit:10;stroke-width:1.162108415744084px"/><path d="M521.69,224s-1.07,4.13-9.64,7.12l.55-4.13-4.28,4.69s-3-2.55-2-10.15,8.28-8.11,13.38-6c5.42,2.22,8-.77,14.41,4.39a9.89,9.89,0,0,1,3.29,5,14.36,14.36,0,0,1,.61,5.31,83.38,83.38,0,0,1-1.72,8.17l-2.5,1.07S534.68,226.39,521.69,224Z" style="fill:#fff;stroke:#333;stroke-miterlimit:10;stroke-width:1.162108415744084px"/><ellipse cx="522.14" cy="243.87" rx="0.86" ry="1.3" style="fill:#333"/><ellipse cx="513.29" cy="243.41" rx="0.86" ry="1.3" style="fill:#333"/><path d="M519.75,254.81a4.15,4.15,0,0,1-5.13-.2" style="fill:none;stroke:#333;stroke-linecap:round;stroke-linejoin:round;stroke-width:1.2140156477127035px"/><path d="M537.55,288.44l5.62,2.49,6.75,8.64c1,3.7-15.55,20.52-14.3,19.25l4.6,4.39a40.93,40.93,0,0,0,11-9.38,111.88,111.88,0,0,0,7.67-9.64,5.85,5.85,0,0,0,1.3-4.62c-3-10.31-13.53-23.59-23.67-27.27" style="fill:#a3abb1;stroke:#333;stroke-linecap:round;stroke-linejoin:round;stroke-width:1.162108415744084px"/><path d="M503.71,287.7,500.55,289l-7,8.41c-1.11,3.67,14.87,21,13.66,19.72l-4.75,4.24a41.08,41.08,0,0,1-10.72-9.75,113,113,0,0,1-7.35-9.89,5.82,5.82,0,0,1-1.13-4.66c3.37-10.2,14.3-23.13,24.56-26.46" style="fill:#a3abb1;stroke:#333;stroke-linecap:round;stroke-linejoin:round;stroke-width:1.162108415744084px"/><ellipse cx="535.55" cy="323.21" rx="6.02" ry="4.22" transform="translate(-89.86 311.08) rotate(-30)" style="fill:#fff;stroke:#333;stroke-miterlimit:10;stroke-width:1.134101838859251px"/><ellipse cx="508.39" cy="322.59" rx="4.22" ry="6.02" transform="translate(-79.2 453.97) rotate(-45)" style="fill:#fff;stroke:#333;stroke-miterlimit:10;stroke-width:1.134101838859251px"/><polygon points="536.97 272.99 533.82 276.44 535.95 287.18 537.1 288.06 537.25 287.94 537.36 287.89 537.52 287.86 537.55 287.78 542.11 289.47 540.5 279.45 536.97 272.99" style="fill:#a3abb1"/><path d="M534.17,271.64a21.11,21.11,0,0,1,4.91,2.44c3.41,2.06-2.13,3.71-2.13,3.71l-3.61-4Z" style="fill:#a3abb1"/><path d="M503.71,287.09a.79.79,0,0,1,.73.37c.27.43,1.53-2.11,1.53-2.11V279.8s-8.63.58-8.16,1.65a27.38,27.38,0,0,0,2.53,3.64Z" style="fill:#a3abb1"/><ellipse cx="386.64" cy="316.72" rx="3.38" ry="4.82" transform="translate(-13.17 616.65) rotate(-76.2)" style="fill:#fff;stroke:#333;stroke-miterlimit:10;stroke-width:0.9068065660753367px"/><path d="M334.63,279.21H309.72V273.4s6.42-3.31,12-3.31c7.75,0,11.13,2.62,12.95,3.31Z" style="fill:#a3abb1;stroke:#333;stroke-miterlimit:10;stroke-width:1.162108415744084px"/><path d="M334.14,428.44h13.91a0,0,0,0,1,0,0v4.75a0,0,0,0,1,0,0H334.76a.62.62,0,0,1-.62-.62v-4.13A0,0,0,0,1,334.14,428.44Z" transform="translate(682.19 861.62) rotate(-180)" style="fill:#fff;stroke:#333;stroke-miterlimit:10;stroke-width:1.162108415744084px"/><line x1="338.1" y1="419.6" x2="336.7" y2="428.44" style="fill:none;stroke:#333;stroke-miterlimit:10;stroke-width:1.162108415744084px"/><path d="M334.14,428.44h13.91a0,0,0,0,1,0,0v4.75a0,0,0,0,1,0,0H334.76a.62.62,0,0,1-.62-.62v-4.13A0,0,0,0,1,334.14,428.44Z" transform="translate(682.19 861.62) rotate(-180)" style="fill:#fff;stroke:#333;stroke-miterlimit:10;stroke-width:1.162108415744084px"/><line x1="338.1" y1="419.6" x2="336.7" y2="428.44" style="fill:none;stroke:#333;stroke-miterlimit:10;stroke-width:1.162108415744084px"/><path d="M314.3,428.44h13.91a0,0,0,0,1,0,0v4.75a0,0,0,0,1,0,0H314.92a.62.62,0,0,1-.62-.62v-4.13A0,0,0,0,1,314.3,428.44Z" transform="translate(642.52 861.62) rotate(-180)" style="fill:#fff;stroke:#333;stroke-miterlimit:10;stroke-width:1.162108415744084px"/><line x1="316.61" y1="415.59" x2="317.2" y2="428.44" style="fill:none;stroke:#333;stroke-miterlimit:10;stroke-width:1.162108415744084px"/><path d="M307.19,330.86c-2.24,3.26-2.08,7.54-1.84,11.48,1.38,22.43,4.6,74.56,5.63,78h10l-.85-79.8h5.19l9.95,46.36-3.62,37.51h9.29l4.45-38.38L338,329.13Z" style="fill:#4d565b;stroke:#333;stroke-linejoin:round;stroke-width:1.162108415744084px"/><path d="M332.39,336.28c1.78,2.54,3.85,5.27,6.89,5.87" style="fill:none;stroke:#333;stroke-linecap:round;stroke-linejoin:round;stroke-width:1.162108415744084px"/><path d="M313.45,336.28c-1.77,2.54-3.85,5.27-6.88,5.87" style="fill:none;stroke:#333;stroke-linecap:round;stroke-linejoin:round;stroke-width:1.162108415744084px"/><path d="M328.2,277.16a10,10,0,0,1-6.39,2.26,8.77,8.77,0,0,1-6.1-2.26V258.84H328.2Z" style="fill:#fff;stroke:#333;stroke-miterlimit:10;stroke-width:1.162108415744084px"/><path d="M308,241.11s-3.21.15-3,5.5A5.16,5.16,0,0,0,310.1,252" style="fill:#fff;stroke:#333;stroke-miterlimit:10;stroke-width:1.162108415744084px"/><path d="M335.27,241.11s3.21.15,3,5.5a5.15,5.15,0,0,1-5,5.34" style="fill:#fff;stroke:#333;stroke-miterlimit:10;stroke-width:1.162108415744084px"/><path d="M321.65,226.76H309.1s-4.36.59.38,22.84c4.59,21.52,17.31,18.14,18.85,17.09,5.73-3.93,5.18-8.39,5.78-15.63,1.86-22.68-2.33-24.3-2.33-24.3H321.65" style="fill:#fff;stroke:#333;stroke-miterlimit:10;stroke-width:1.162108415744084px"/><path d="M334.55,233.05l1.06,7.94,1.28.76s4.23-9.6.29-14.14" style="fill:#fff;stroke:#333;stroke-miterlimit:10;stroke-width:1.162108415744084px"/><path d="M319.91,226.9s1,4.13,8.9,7.21l-.55-4.13,4,4.73s2.73-2.51,1.72-10.11-7.31-6.76-12.32-6.17-10.31,2.41-14,7.57c0,0-3,3.53-2.55,6.94s1.53,8.81,1.53,8.81l1.43-.21S305.12,225.53,319.91,226.9Z" style="fill:#fff;stroke:#333;stroke-miterlimit:10;stroke-width:1.162108415744084px"/><path d="M319,236.77c-4.38-.48-7.34,3.51-8.42,10.15-.3,1.86-6.85-7.75-4.08-10.45" style="fill:#fff;stroke:#333;stroke-miterlimit:10;stroke-width:1.162108415744084px"/><path d="M344.44,239.71c-1,1.4-6.94,3-8.64,3.23a22.67,22.67,0,0,1-12.71-2.16,14.23,14.23,0,0,0-3.9-1.63,16.06,16.06,0,0,0-4.88.38c-2.63.36-7.83.7-8.93-2.35a7,7,0,0,1-.37-1.58c-.38-3,.5-6.92,1.06-9.45a13.7,13.7,0,0,1,1.85-4.69,11.34,11.34,0,0,1,3.41-3.13c8.75-5.56,22.15-3.32,26.63,7.28a16.66,16.66,0,0,1,1.17,5.35c.11,1.15.16,2.37.19,3.7C339.32,234.66,345.35,238.45,344.44,239.71Z" style="fill:#ffc31a;stroke:#333;stroke-miterlimit:10;stroke-width:1.1723756378673669px"/><path d="M331.61,234c-5.62-18.52-16-19.38-17.23-18.72a2.71,2.71,0,0,0-1.33,2.13c8.12-1,14.71,12.78,17.25,17.2.26.45.48.8.68,1.13A10,10,0,0,1,331.61,234Z" style="fill:#ed8406;stroke:#333;stroke-linecap:round;stroke-linejoin:round;stroke-width:1.267998375778762px"/><path d="M319.87,239.8c1.24.55,2.34,1.35,3.53,2,5.48,3,12.26,2.39,18.22.51A4.77,4.77,0,0,0,344,241c.57-.72.61-3-.16-3.53-.38-.26-.87.78-1.34.77l-14.65-.55c-4.26-.15-8.66-.29-12.61,1.3A22.06,22.06,0,0,1,319.87,239.8Z" style="fill:#ed8406;stroke:#333;stroke-linecap:round;stroke-linejoin:round;stroke-width:1.267998375778762px"/><path d="M326.26,224.46c-2.64-4.49-6.82-9.31-11.88-9.17,2.07-1.17,4.35-2.38,6.68-2,5.6,1,9.82,5.65,11.63,11.08.33,1,3.37,11.91,2.77,12-.91.19-3.36.92-4.18.37-1-.67-1-2.93-1.39-4a42.79,42.79,0,0,0-2.4-6.07C327.13,226,326.72,225.24,326.26,224.46Z" style="fill:#efac03;stroke:#333;stroke-linecap:round;stroke-linejoin:round;stroke-width:1.267998375778762px"/><path d="M344.44,238.09c-1,1.41-6.94,3-8.64,3.23a22.67,22.67,0,0,1-12.71-2.16c-1.28-.64-7.17.16-8.78.37-2.63.36-7.83.7-8.93-2.35a7,7,0,0,1-.37-1.58c1.11,2.61,3.41,3,5.61,3.3,3,.41,5.95-.72,8.95-1.15s6.32-.21,9.44-.73,6.21-1.91,9.41-2.52C339.34,234.34,345.35,236.83,344.44,238.09Z" style="fill:#efac03;stroke:#333;stroke-linecap:round;stroke-linejoin:round;stroke-width:1.267998375778762px"/><path d="M316.29,235.81c0-2.29-3.46-13-6.23-16.59a10.1,10.1,0,0,0-2.14,2.24,13.7,13.7,0,0,0-1.85,4.69c-.56,2.53-1.44,6.48-1.06,9.45a7.8,7.8,0,0,0,.23,1.15A15.66,15.66,0,0,0,316.29,235.81Z" style="fill:#efac03;stroke:#333;stroke-miterlimit:10;stroke-width:1.267998375778762px"/><path d="M306.76,300.23c2.34.44,21-2.13,25.63-6,9.13-7.69,5.06-20,3.67-20.62-2-.86-4.38-.65-5.13-.9-.07.05-4.46,3.72-8.4,3.72-5.52,0-7.92-2.84-9.22-3.6-.07,0-5.36.43-7.43,2.82" style="fill:#a3abb1;stroke:#333;stroke-miterlimit:10;stroke-width:1.162108415744084px"/><path d="M305.89,326.84l3.84,1.26a62.24,62.24,0,0,0,23,0l7.28-2" style="fill:#a3abb1;stroke:#333;stroke-miterlimit:10;stroke-width:1.26508683862565px"/><path d="M306.76,300.23a5.77,5.77,0,0,0,2.12-1.68c1.64-1.68,1.21-10.08.92-12.28l7.73,1.64c2,.77,9.22.93,10.58.56l9.36-1.71s-3.15,23.52,2.23,39.31L337,328.7l-14.46,2.49-15.37-2.35Z" style="fill:#4c565b;stroke:#333;stroke-miterlimit:10;stroke-width:1.162108415744084px"/><path d="M340,330.22l-7.28,2a62.24,62.24,0,0,1-23,0L305.89,331v-4.15l3.84,1.26a62.24,62.24,0,0,0,23,0l7-2,.32,2.13Z" style="fill:#ef7b10;stroke:#333;stroke-miterlimit:10;stroke-width:1.26508683862565px"/><path d="M307.06,274.65c-8.88,7.83-16.08,25.63-13.62,35.82l3.67,9.65A48.88,48.88,0,0,0,303,331.19l4.22,6.89h0c1.63.73,4.7-2,4.7-2s-9.73-22.21-10.17-26l4.9-12.11" style="fill:#a3abb1;stroke:#333;stroke-linecap:round;stroke-linejoin:round;stroke-width:1.162108415744084px"/><polygon points="307.12 273.53 311.75 289.67 316.69 289.25 312.01 272.19 307.12 273.53" style="fill:#4c565b;stroke:#333;stroke-miterlimit:10;stroke-width:1.0993737590145438px"/><path d="M310.52,288.22a1.19,1.19,0,0,1-.8-.23,2.69,2.69,0,0,1-.53-1.75.66.66,0,0,1,.47-.51,21.8,21.8,0,0,1,5.58-.73h1.08l.52,2.22-.54.12a34.67,34.67,0,0,1-4.52.72l-.27,0a6,6,0,0,1-1,.11Z" style="fill:#ccc"/><path d="M315.23,285.55h.65l.3,1.27a33.23,33.23,0,0,1-4.45.7,10.77,10.77,0,0,1-1.21.14.73.73,0,0,1-.44-.1c-.11-.1-.54-1.23-.28-1.3a20.77,20.77,0,0,1,5.43-.72m0-1.1a22,22,0,0,0-5.71.75,1.19,1.19,0,0,0-.86.91,3.09,3.09,0,0,0,.7,2.29,1.75,1.75,0,0,0,1.16.37,8.37,8.37,0,0,0,1.08-.11l.23,0a33,33,0,0,0,4.59-.72l1.08-.25-.25-1.07-.14-.58-.16-.69-.19-.82-.84,0Z" style="fill:#333"/><path d="M351.31,307.56c7,2.72,30.21,10.53,30.21,10.53l1.66-5-9.56-5.27a99,99,0,0,0-10.55-4.51l-3.66-1.33-.82-.46h0c-9.7-17.76-21.46-27.13-21.46-27.13a1.17,1.17,0,0,0-2.09.75l-2.1,10.05,1.1.88c4,7.9,14.5,19,14.5,19A5,5,0,0,0,351.31,307.56Z" style="fill:#a3abb1;stroke:#333;stroke-linejoin:round;stroke-width:1.162108415744084px"/><polygon points="333.13 272.13 331.49 289.75 336.08 289.87 338.52 273.14 333.13 272.13" style="fill:#4c565b;stroke:#333;stroke-miterlimit:10;stroke-width:1.1157419427818867px"/><path d="M337.39,288.47a33,33,0,0,1-4.62-.54l-.26,0c-.81-.1-1.45-.2-1.73-.62a2.83,2.83,0,0,1,0-1.85.69.69,0,0,1,.59-.37,21.73,21.73,0,0,1,6.31,1l.41.13-.1,2.3Z" style="fill:#ccc"/><path d="M331.33,285.62h0a21.29,21.29,0,0,1,6.14,1l-.06,1.32a32.92,32.92,0,0,1-4.53-.53c-.31-.06-1.43-.11-1.63-.41-.08-.12-.19-1.35.08-1.35m0-1.12a1.24,1.24,0,0,0-1.08.66,3.2,3.2,0,0,0,.07,2.42c.4.62,1.17.76,2.12.87l.23,0a34.08,34.08,0,0,0,4.69.54l1.12.06,0-1.12v-.23l0-1.09,0-.86-.82-.25a22.54,22.54,0,0,0-6.46-1h0Z" style="fill:#333"/><path d="M332.94,296.42v5.68a3.17,3.17,0,0,1-3.17,3.17H316.69a3.17,3.17,0,0,1-3.17-3.17v-5.68" style="fill:none;stroke:#333;stroke-linecap:round;stroke-linejoin:round;stroke-width:1.0500928541985355px"/><ellipse cx="318.47" cy="248.68" rx="0.86" ry="1.3" style="fill:#333"/><ellipse cx="329.76" cy="248.68" rx="0.86" ry="1.3" style="fill:#333"/><path d="M327.08,258.23A4.15,4.15,0,0,1,322,258" style="fill:none;stroke:#333;stroke-linecap:round;stroke-linejoin:round;stroke-width:1.2140156477127035px"/><path d="M457.66,281.18c-1.85-8.08-5.85-15.4-7.46-23.54-1.69-8.53-2.14-17.43-7-24.88-1.55-2.36-5.26.77-3.73,3.1A35.08,35.08,0,0,1,444,248.3a2.45,2.45,0,0,0-1.49.16,2.22,2.22,0,0,0-2.72.1c-3.06,2.92-3.56,7.64-3.64,12a2.34,2.34,0,0,0-3.4,1.72c-.26,2.33-.49,4.71-.6,7.1a1.74,1.74,0,0,0-1.22,1.81,37.74,37.74,0,0,0,.43,4.64c-.08.25-.15.5-.21.72-1.57,5.58.91,9.31,5.06,12.63.54.87-3.81,10.16-3.13,11a2,2,0,0,0,2.32.65,7.87,7.87,0,0,0,1.2.47,2.81,2.81,0,0,0,1,.09c.65.81,1.31,1.62,1.95,2.44,1.94,2.46,9.16-2,12.85-3.91,6.63-3.43,6.65-12.49,5.23-18.7" style="fill:#fff;stroke:#333;stroke-miterlimit:10;stroke-width:1.1478294584494788px"/><path d="M425.8,271.3c0-.6.07-1.21.11-1.82a2.05,2.05,0,0,0-1.83-2.12c.06-.57.12-1.15.17-1.72a1.84,1.84,0,0,0-1.26-2,2.26,2.26,0,0,0-2.44-2.65l.27-1.74a2.3,2.3,0,0,0-.6-2,22.79,22.79,0,0,0-.35-6.83c-.38-1.73-2.51-2-3.69-1a2.68,2.68,0,0,0-.3.28c1.12-5.74,3-11.21,7-15.44,1.95-2.06-1.16-5.18-3.11-3.12-9,9.52-8.74,23.64-10.58,35.77-1,6.71-3.75,13-4.67,19.72-.66,4.77-.58,12.85,4.79,14.58,18.8,6,8.73-3.47,9.48-4.74a14.39,14.39,0,0,0,1.58-4.34,2,2,0,0,0,.83-.54c1.24.7,4.9,0,5.11-1.86l1.8-16.68c.09-.83-1.81-1.41-2.31-1.76" style="fill:#fff;stroke:#333;stroke-miterlimit:10;stroke-width:1.1478294584494788px"/><path d="M442.67,283.21s.59-4.27-7-5.36c-.05-2.49-.14-7-.14-7.49,0-1.83-3.29,2.09-5,2.23-1.45.13-2.84-.74-4.27-.83l.1,6.35c-6.11,1.39-5.59,5.1-5.59,5.1l-6.26,45.52h34.45Z" style="fill:#fff;stroke:#333;stroke-linejoin:round;stroke-width:0.9399711458226645px"/><path d="M419.79,428.39h7a0,0,0,0,1,0,0V433a0,0,0,0,1,0,0H415.37a0,0,0,0,1,0,0v-.16A4.42,4.42,0,0,1,419.79,428.39Z" style="fill:#22adce;stroke:#333;stroke-miterlimit:10;stroke-width:1.1211851965024662px"/><line x1="424.35" y1="406.03" x2="424.35" y2="428.39" style="fill:none;stroke:#333;stroke-miterlimit:10;stroke-width:1.1211851965024662px"/><path d="M439.23,428.39h11.45a0,0,0,0,1,0,0V433a0,0,0,0,1,0,0h-7a4.42,4.42,0,0,1-4.42-4.42v-.16A0,0,0,0,1,439.23,428.39Z" transform="translate(889.92 861.37) rotate(-180)" style="fill:#22adce;stroke:#333;stroke-miterlimit:10;stroke-width:1.1211851965024662px"/><line x1="441.17" y1="403.48" x2="441.7" y2="428.39" style="fill:none;stroke:#333;stroke-miterlimit:10;stroke-width:1.1211851965024662px"/><path d="M449.85,344.26c0-7.39-2.18-12-2.64-16-.55-4.82-29.51-5.37-30.51-.74a60.93,60.93,0,0,0-2.22,17.34c0,9.77,4.56,68.93,5.71,69.3,1.73.55,7.61,1.74,8.1.75,1.55-3.06,0-46.87,3.42-63.27,3.17,17.87,4.68,61,5.58,63.49.38,1.05,8.44-.36,8.48-2.08C445.86,409.49,449.85,351.65,449.85,344.26Z" style="fill:#a2abb0;stroke:#333;stroke-miterlimit:10;stroke-width:1.1211851965024662px"/><path d="M431.7,290.75c-11.74,0-9.45-10-9.45-10l-7.77,45,5.31.92a69.6,69.6,0,0,0,23.83,0l5.31-.92-8.53-45S443.45,290.75,431.7,290.75Z" style="fill:#22adce;stroke:#333;stroke-miterlimit:10;stroke-width:1.016303838462726px"/><path d="M416.94,283.59l-4,40.92a9.44,9.44,0,0,0,2.4,8l5.36,5.76L424,279A18.48,18.48,0,0,0,416.94,283.59Z" style="fill:#fff;stroke:#333;stroke-miterlimit:10;stroke-width:1.1211851965024662px"/><path d="M445.56,283.59l3.69,39.14a13.1,13.1,0,0,1-3.32,11.13l-4.14,4.44L438.55,279A18.48,18.48,0,0,1,445.56,283.59Z" style="fill:#fff;stroke:#333;stroke-miterlimit:10;stroke-width:1.1211851965024662px"/><ellipse cx="403.79" cy="332.09" rx="4.18" ry="3.19" transform="translate(-36.56 613.9) rotate(-72.05)" style="fill:#fff;stroke:#333;stroke-miterlimit:10;stroke-width:1.1953730597888494px"/><ellipse cx="459.32" cy="332.09" rx="3.19" ry="4.18" transform="translate(-79.98 157.69) rotate(-17.95)" style="fill:#fff;stroke:#333;stroke-miterlimit:10;stroke-width:1.1953730597888494px"/><path d="M447.21,307.44s7.26,21.58,7.91,22.44c.4.52,6.73-.64,6.53-1.85-.59-3.59-5.54-40.55-12.3-45.89,0,0-6-4.15-10.3-1.33Z" style="fill:#fff;stroke:#333;stroke-miterlimit:10;stroke-width:1.2237803497073827px"/><path d="M413.94,254.47a1.94,1.94,0,0,1,2.24-1.81c1.42.2,1.95,1.48,2.46,2.64A1.24,1.24,0,0,1,418,257a.85.85,0,0,1,0,.17,20.72,20.72,0,0,0,1.15,4.07c.46,1.18-1.16,1.82-1.95,1.14a9.73,9.73,0,0,1-3.19-7.86" style="fill:#fff;stroke:#333;stroke-miterlimit:10;stroke-width:1.1478294584494788px"/><ellipse cx="416.13" cy="262.61" rx="1.12" ry="4.13" style="fill:#22adce"/><path d="M415.72,307.44s-7.26,21.58-7.91,22.44c-.4.52-6.73-.64-6.53-1.85.59-3.59,5.54-40.55,12.29-45.89,0,0,6-4.15,10.3-1.33Z" style="fill:#fff;stroke:#333;stroke-miterlimit:10;stroke-width:1.2237803497073827px"/><path d="M448.5,255.08a2,2,0,0,0-2.24-1.81c-1.42.2-2,1.48-2.47,2.64-.32.73-.68,1.4-.12,1.66a13.18,13.18,0,0,1-.31,4.24c-.46,1.18,1.16,1.81,1.95,1.13a9.76,9.76,0,0,0,3.19-7.86" style="fill:#fff;stroke:#333;stroke-miterlimit:10;stroke-width:1.1478294584494788px"/><path d="M429.56,234.38c-19,0-11.86,24.52-11.74,25.1.56,2.72,2.38,11.63,10.2,15.13,3.44,1.53,5.5.68,8.2-1.62,3.75-3.2,7.65-10.14,7.87-15.12C444.33,252.6,448.61,234.38,429.56,234.38Z" style="fill:#fff;stroke:#333;stroke-miterlimit:10;stroke-width:1.1478294584494788px"/><ellipse cx="445.16" cy="264.2" rx="1.12" ry="4.13" style="fill:#22adce"/><path d="M449.24,259c-.37,1.18-.55,1.24-1.58.45a6.76,6.76,0,0,1-2.2-3.83c-.39-1.45-.63-2.88-.79-3.63a.59.59,0,0,0-.61-.46c-3.6.21-10-3.12-11-3.42,1.56,1,5.05,3.71,6.49,4.32-2.32,1-9.75-1.24-15.51-5.28a9.46,9.46,0,0,0,1.88,2.88l2,2.29a14.41,14.41,0,0,1-7-3.87,21.88,21.88,0,0,1-2.73-3c-.23-.29-.5-.61-.86-.44s-.06.51,0,.77a11.81,11.81,0,0,1-1.37,6.2,29.64,29.64,0,0,1-5,7.09c-.34.36-.57.49-.73-.11a45.64,45.64,0,0,1-.22-9,27.68,27.68,0,0,1,1.19-7.46c2-6.26,3.65-11.08,11.15-14.48,6.18-2.23,12.47-1.36,17.22.05,7.21,2.16,9,9.32,10.09,16.62A45.39,45.39,0,0,1,449.24,259Z" style="fill:#fff;stroke:#333;stroke-miterlimit:10;stroke-width:1.1478294584494788px"/><path d="M423,297.91q.34-4.64.71-9.25c.2-2.67-.19-6.71,1.33-9.14.07,0,.75-1.36.49-1.8-.36-.6-3.29.72-4,1A2.7,2.7,0,0,0,420,280a51.47,51.47,0,0,1-2.76,4.73c-1.34,2-1.4,3.8-.85,6.18,1.42,6.14,3.65,12.21,5.68,18.23Z" style="fill:#fff;stroke:#333;stroke-miterlimit:10;stroke-width:1.2084853513279097px"/><path d="M439.41,297.91c-.24-3.09-.47-6.17-.71-9.25-.21-2.67.19-6.71-1.33-9.14-.08,0-.76-1.36-.49-1.8.36-.6,3.29.72,4,1a2.64,2.64,0,0,1,1.42,1.25,53.86,53.86,0,0,0,2.76,4.73,7.12,7.12,0,0,1,.86,6.18c-1.43,6.14-3.65,12.21-5.69,18.23Q439.84,303.51,439.41,297.91Z" style="fill:#fff;stroke:#333;stroke-miterlimit:10;stroke-width:1.2084853513279097px"/><path d="M424.84,220.77c-8.73,1.33-14.09,6.71-14.09,14.83l-.3,7.43a3.82,3.82,0,0,0,4,3.13s2.39-4.81,11.14-5.8c-.68-9.22-1.07-17.14-1.07-18.09A3.51,3.51,0,0,1,424.84,220.77Z" style="fill:#ffc31a;stroke:#333;stroke-miterlimit:10;stroke-width:1.166909227234747px"/><path d="M435.59,221.18a3.33,3.33,0,0,1,.19,1.09c0,1-.41,9.11-1.1,18.51,6.87,1.52,9.24,5.38,9.24,5.38a3.82,3.82,0,0,0,4-3.13l-.3-7.43C447.59,228.14,443.25,223,435.59,221.18Z" style="fill:#ffc31a;stroke:#333;stroke-miterlimit:10;stroke-width:1.166909227234747px"/><path d="M435.59,221.18c-.63-1.87-2.83-3.24-5.46-3.24a5.78,5.78,0,0,0-5.29,2.83,3.51,3.51,0,0,0-.35,1.5c0,.95.39,8.87,1.07,18.09,1-.12,2.09-1.23,3.26-1.23,2.25,0,4.19,1.28,5.86,1.65.69-9.4,1.1-17.55,1.1-18.51A3.33,3.33,0,0,0,435.59,221.18Z" style="fill:#efac03;stroke:#333;stroke-miterlimit:10;stroke-width:1.2620861070658813px"/><path d="M414.82,233.41a4.88,4.88,0,0,0-3.13-2.86,13.59,13.59,0,0,0-.94,5l-.3,7.43a3.62,3.62,0,0,0,2.78,3A90.39,90.39,0,0,1,415,234.5,3.33,3.33,0,0,0,414.82,233.41Z" style="fill:#efac03;stroke:#333;stroke-miterlimit:10;stroke-width:1.2620861070658813px"/><path d="M447.89,243l-.3-7.43a13.55,13.55,0,0,0-.91-5A5,5,0,0,0,444,233a3.38,3.38,0,0,0-.36,1.5,88.18,88.18,0,0,1,1.77,11.42A3.57,3.57,0,0,0,447.89,243Z" style="fill:#efac03;stroke:#333;stroke-miterlimit:10;stroke-width:1.2620861070658813px"/><path d="M444,245.49c0-1.35-6.75-9.32-15.09-9.32s-15.08,8-15.08,9.32,6.75-5.48,15.08-5.48S444,246.84,444,245.49Z" style="fill:#efac03;stroke:#333;stroke-miterlimit:10;stroke-width:1.2620861070658813px"/><path d="M444,245.49a37.59,37.59,0,0,0-30.17,0c0,1.35,6.75-5.48,15.08-5.48S444,246.84,444,245.49Z" style="fill:#ed8406;stroke:#333;stroke-miterlimit:10;stroke-width:1.2620861070658813px"/><ellipse cx="424.49" cy="256.91" rx="0.86" ry="1.3" style="fill:#333"/><ellipse cx="435.78" cy="256.91" rx="0.86" ry="1.3" style="fill:#333"/><path d="M433.09,266.1a4.13,4.13,0,0,1-5.12-.21" style="fill:none;stroke:#333;stroke-linecap:round;stroke-linejoin:round;stroke-width:1.2140156477127035px"/><rect x="131.38" y="94.56" width="456.45" height="352.86" style="fill:none;stroke:#333;stroke-miterlimit:10;stroke-width:1.9498209953308105px"/></g><rect x="563.3" y="158.6" width="22.33" height="7.27" style="fill:#e5e5e4"/><rect x="349.81" y="188.22" width="30.24" height="7.27" style="fill:#e5e5e4"/><rect x="360.47" y="198.89" width="30.24" height="7.27" style="fill:#e5e5e4"/><g style="clip-path:url(#clip-path)"><rect x="131.38" y="94.56" width="456.45" height="352.86" style="fill:none;stroke:#333;stroke-miterlimit:10;stroke-width:1.9498209953308105px"/></g><rect x="211.64" y="136.57" width="374" height="310.86" rx="2.17" style="fill:none;stroke:#333;stroke-miterlimit:10;stroke-width:2px"/></g></g></svg>