<svg xmlns="http://www.w3.org/2000/svg" viewBox="0 0 186 182"><defs><style>.cls-1{fill:#016fb9;}.cls-2{fill:#4c4c4d;opacity:0.25;}.cls-10,.cls-11,.cls-12,.cls-3,.cls-4,.cls-6,.cls-7{fill:none;}.cls-10,.cls-11,.cls-12,.cls-3{stroke:#38302e;}.cls-3,.cls-4,.cls-6,.cls-7,.cls-8,.cls-9{stroke-miterlimit:10;}.cls-10,.cls-11,.cls-12,.cls-3,.cls-4,.cls-7,.cls-8,.cls-9{stroke-width:2px;}.cls-4,.cls-8{stroke:#ffc050;}.cls-5,.cls-8{fill:#fff;}.cls-6{stroke:#343633;}.cls-7{stroke:#016fb9;}.cls-9{fill:#00af85;stroke:#fff;}.cls-10,.cls-11,.cls-12{stroke-linecap:round;stroke-linejoin:round;}.cls-11{stroke-dasharray:6.5 6.5;}.cls-12{stroke-dasharray:6.06 6.06;}</style></defs><g id="Our_services" data-name="Our services"><circle class="cls-1" cx="90" cy="91" r="90"/><ellipse class="cls-2" cx="89.76" cy="146.51" rx="48.43" ry="4.4"/><line class="cls-3" x1="71.35" y1="123.13" x2="141.12" y2="123.13"/><line class="cls-4" x1="41" y1="123.13" x2="71.35" y2="123.13"/><polygon class="cls-5" points="50.39 130.31 45.27 127.37 45.27 133.24 50.39 130.31"/><rect class="cls-6" x="130.98" y="127.37" width="5.87" height="5.87"/><line class="cls-7" x1="128.27" y1="130.31" x2="138.76" y2="130.31"/><line class="cls-7" x1="133.91" y1="135.55" x2="133.91" y2="125.06"/><rect class="cls-8" x="42.14" y="52.49" width="97.83" height="55.03"/><line class="cls-8" x1="126.52" y1="52.49" x2="126.52" y2="107.52"/><line class="cls-8" x1="55.6" y1="52.49" x2="55.6" y2="107.52"/><line class="cls-8" x1="42.14" y1="66.24" x2="55.6" y2="66.24"/><line class="cls-8" x1="42.14" y1="80" x2="55.6" y2="80"/><line class="cls-8" x1="42.14" y1="93.76" x2="55.6" y2="93.76"/><line class="cls-8" x1="126.52" y1="66.24" x2="139.98" y2="66.24"/><line class="cls-8" x1="126.52" y1="80" x2="139.98" y2="80"/><line class="cls-8" x1="126.52" y1="93.76" x2="139.98" y2="93.76"/><ellipse class="cls-9" cx="141.06" cy="69.71" rx="7.94" ry="8.07"/><path class="cls-3" d="M91.92,68.54c4.65,8,7.84,19,7.84,34,0,0-.06-31.45,30.71-31.45"/><path class="cls-10" d="M56.65,47.05a27.14,27.14,0,0,1,3.41.3"/><path class="cls-11" d="M66.41,48.71c11.94,3.47,30.87,14.16,33.13,47.14"/><path class="cls-10" d="M99.7,99.1c0,1.12.06,2.27.06,3.44a31.09,31.09,0,0,1,.26-3.43"/><path class="cls-12" d="M101.2,93.18c2.25-8.18,8-19.11,22.82-21.58"/><path class="cls-10" d="M127,71.23c1.1-.09,2.25-.14,3.44-.14"/><path class="cls-1" d="M95,1A90,90,0,1,1,5,91,90,90,0,0,1,95,1m0-1a91,91,0,1,0,91,91A91.1,91.1,0,0,0,95,0Z"/></g></svg>