<svg xmlns="http://www.w3.org/2000/svg" viewBox="0 0 186 182"><defs><style>.cls-1{fill:#00af85;}.cls-10,.cls-2,.cls-4,.cls-5,.cls-6,.cls-7{fill:none;stroke-miterlimit:10;}.cls-2,.cls-4,.cls-5,.cls-6{stroke:#323031;}.cls-2{stroke-width:0.77px;}.cls-3{fill:#38302e;}.cls-4{stroke-width:0.77px;}.cls-5{stroke-width:0.77px;}.cls-6{stroke-width:0.69px;}.cls-10,.cls-7{stroke:#fff;}.cls-7{stroke-width:0.57px;}.cls-8{fill:#ffc050;}.cls-9{fill:#323031;}.cls-10{stroke-width:1.3px;}.cls-11{fill:#fff;}.cls-12{fill:#4c4c4d;opacity:0.2;}</style></defs><g id="Our_services" data-name="Our services"><circle class="cls-1" cx="90" cy="91" r="90"/><path class="cls-1" d="M95,1A90,90,0,1,1,5,91,90,90,0,0,1,95,1m0-1a91,91,0,1,0,91,91A91.1,91.1,0,0,0,95,0Z"/><circle class="cls-2" cx="119.53" cy="55.54" r="2.26"/><polygon class="cls-3" points="82.18 54.37 100.24 37.08 96.59 34.78 80.64 53.22 82.18 54.37"/><polygon class="cls-3" points="118.29 54.37 100.24 37.08 103.89 34.78 119.83 53.22 118.29 54.37"/><circle class="cls-4" cx="100.24" cy="32.68" r="4.51"/><circle class="cls-5" cx="80.39" cy="55.45" r="2.26"/><line class="cls-6" x1="81.6" y1="57.05" x2="97.74" y2="74.15"/><line class="cls-6" x1="118.1" y1="57.05" x2="101.96" y2="74.15"/><line class="cls-6" x1="100.24" y1="28.67" x2="100.24" y2="1.35"/><path class="cls-7" d="M97.1,77.28S94,99.9,96.17,101.1s2.89-.64,3.18-2.17-2.85-5.9-7.64-6.8-7.48.77-8.06,3.83,2.4,3,3.51,2.45S89,98,88.74,89s1.47-13,1.47-13"/><path class="cls-8" d="M88.37,123.81A21,21,0,0,0,111.2,93.94h0l-.09-.17-.22-.44c-1.54-3.09-8.19-17.57-5.45-32l-5-1-5-.95c-2.55,13.48-12.68,24-16.13,27.24a21,21,0,0,0,9.14,37.19Z"/><rect class="cls-9" x="96.39" y="56.52" width="7.07" height="12.35" rx="1.14" transform="translate(19.76 149.23) rotate(-79.29)"/><path class="cls-10" d="M101.47,66s-5,30.38-3.68,31.7,4.18,1,5.12-4c.82-4.31-3.86-6.7-7-7.29s-8.34.12-9.12,4.25,4.44,5.58,5.25,4.66,1.31-.82,2.28-12.69S97,65.18,97,65.18"/><path class="cls-8" d="M128.15,106.59c.81-.48,3.71-2.36,4.36-5.21a.15.15,0,0,1,.29,0c.45,1.54,1.76,5.1,4.44,5.69a.16.16,0,0,1,.08.26c-.8.85-4.09,3.35-4.49,5.87,0,.13-.24.13-.29,0-.49-1.27-2-4.69-4.4-6.36A.15.15,0,0,1,128.15,106.59Z"/><path class="cls-8" d="M61.58,79.74a4.64,4.64,0,0,0,2.18-2.6.08.08,0,0,1,.15,0c.22.77.88,2.55,2.22,2.85a.07.07,0,0,1,0,.12c-.4.43-2.3,1.46-2.25,2.94,0,.07-.11.06-.14,0a7.4,7.4,0,0,0-2.2-3.18A.08.08,0,0,1,61.58,79.74Z"/><path class="cls-11" d="M52.94,101.65c-.59.38-2.71,1.88-3.11,4a.11.11,0,0,1-.22,0c-.39-1.14-1.47-3.77-3.5-4.14-.09,0-.14-.14-.07-.18,1.58-.8,2.79-3.27,3.2-4.53a.11.11,0,0,1,.21,0c.41.93,1.33,3.93,3.49,4.63C53,101.48,53,101.61,52.94,101.65Z"/><ellipse class="cls-12" cx="92.29" cy="143.42" rx="49.62" ry="4.51"/></g></svg>