<svg xmlns="http://www.w3.org/2000/svg" viewBox="0 0 186 182"><defs><style>.cls-1{fill:#fe3845;}.cls-2{fill:#4c4c4d;}.cls-10,.cls-2{opacity:0.15;}.cls-3{fill:#fff;}.cls-4{fill:#dedfde;}.cls-12,.cls-5{fill:none;}.cls-5{stroke:#4c4c4d;stroke-miterlimit:10;stroke-width:0.69px;opacity:0.5;}.cls-6{fill:#016fb9;}.cls-7{fill:#ffc043;}.cls-8{fill:#ffc050;}.cls-9{fill:#c6c7c6;}.cls-10{fill:#0e5aa0;}.cls-11{fill:#00af85;}.cls-12{stroke:#fff;stroke-linecap:round;stroke-linejoin:round;stroke-width:1.1px;}</style></defs><g id="Our_services" data-name="Our services"><circle class="cls-1" cx="90" cy="91" r="90"/><path class="cls-1" d="M95,1A90,90,0,1,1,5,91,90,90,0,0,1,95,1m0-1a91,91,0,1,0,91,91A91.1,91.1,0,0,0,95,0Z"/><ellipse class="cls-2" cx="93.98" cy="134.15" rx="49.38" ry="4.12"/><path class="cls-3" d="M140.58,54.36l.68,54.41a2.3,2.3,0,0,1-2.3,2.32H51.05a2.28,2.28,0,0,1-2.29-2.29l-.13-54.41a2.29,2.29,0,0,1,2.29-2.3h87.36A2.3,2.3,0,0,1,140.58,54.36Z"/><polygon class="cls-4" points="84.47 130.06 87.56 111.09 105.44 111.09 102.34 130.06 84.47 130.06"/><line class="cls-5" x1="141.29" y1="104.67" x2="48.75" y2="104.67"/><rect class="cls-6" x="33.91" y="72.77" width="27.5" height="18.65" rx="2.88" transform="translate(95.31 164.19) rotate(-180)"/><path class="cls-6" d="M53.46,87.72A2.87,2.87,0,0,1,56,90.53v3c0,1.42-.82,1.76-1.82.76L48.84,89c-1-1-.67-1.72.75-1.6Z"/><circle class="cls-7" cx="47.66" cy="82.64" r="1.85"/><circle class="cls-8" cx="41.71" cy="82.64" r="1.85"/><circle class="cls-8" cx="53.6" cy="82.64" r="1.85"/><rect class="cls-3" x="79.3" y="130.06" width="27.32" height="1.75"/><polygon class="cls-9" points="85.61 123.06 87.56 111.09 105.44 111.09 104.18 118.8 85.61 123.06"/><rect class="cls-10" x="59.18" y="61" width="37.26" height="7.09"/><rect class="cls-10" x="85.38" y="76.44" width="22.11" height="22.11"/><rect class="cls-10" x="59.18" y="76.44" width="22.11" height="22.11"/><rect class="cls-10" x="111.59" y="76.44" width="22.11" height="22.11"/><rect class="cls-11" x="111.63" y="35.93" width="38.31" height="25.98" rx="3.51"/><path class="cls-11" d="M120.92,56.91a2,2,0,0,0-1.81,2v7.83c0,1,.58,1.24,1.28.53l10-10c.7-.71.47-1.21-.52-1.12Z"/><polyline class="cls-12" points="119.11 48.92 126.46 55.96 144.6 42.22"/></g></svg>