<svg xmlns="http://www.w3.org/2000/svg" viewBox="0 0 186 182"><defs><style>.cls-1{fill:#ffc050;}.cls-12,.cls-2{fill:#4c4c4d;}.cls-2,.cls-9{opacity:0.15;}.cls-3{fill:#fff;}.cls-4,.cls-5{fill:none;}.cls-4{stroke:#fe3845;stroke-linecap:round;stroke-linejoin:round;stroke-width:2.61px;}.cls-5{stroke:#4c4c4d;stroke-miterlimit:10;stroke-width:0.78px;}.cls-10,.cls-5{opacity:0.5;}.cls-6{fill:#323031;}.cls-11,.cls-6{opacity:0.2;}.cls-7{fill:#00af85;}.cls-8{fill:#fe3845;}.cls-9{fill:#0e5aa0;}.cls-13{fill:#016fb9;}.cls-14{fill:#341c16;}.cls-15{fill:#b76b41;}.cls-16{fill:#343633;}</style></defs><g id="Our_services" data-name="Our services"><circle class="cls-1" cx="90" cy="91" r="90"/><path class="cls-1" d="M95,1A90,90,0,1,1,5,91,90,90,0,0,1,95,1m0-1a91,91,0,1,0,91,91A91.1,91.1,0,0,0,95,0Z"/><ellipse class="cls-2" cx="92.94" cy="145.5" rx="56.29" ry="4.69"/><path class="cls-3" d="M40.59,42.51h88.28a3,3,0,0,1,3,3V105.6a0,0,0,0,1,0,0H37.55a0,0,0,0,1,0,0V45.55A3,3,0,0,1,40.59,42.51Z"/><line class="cls-4" x1="33.63" y1="105.6" x2="137.5" y2="105.6"/><line class="cls-5" x1="37.55" y1="51.63" x2="131.91" y2="51.63"/><rect class="cls-6" x="86.68" y="91.12" width="35.92" height="2.61"/><rect class="cls-6" x="46.86" y="59.46" width="35.92" height="35.92" rx="1.81"/><rect class="cls-6" x="86.68" y="59.46" width="35.92" height="10.15"/><rect class="cls-6" x="86.68" y="76.64" width="35.92" height="2.61"/><rect class="cls-6" x="86.68" y="83.93" width="35.92" height="2.61"/><circle class="cls-7" cx="64.82" cy="76.89" r="11.97"/><path class="cls-3" d="M64.82,77.42V64.91a12,12,0,0,1,12,12"/><path class="cls-8" d="M76.79,76.89a11.92,11.92,0,0,1-3.39,8.34l-8.58-7.81Z"/><circle class="cls-9" cx="42.16" cy="46.67" r="1.56"/><circle class="cls-9" cx="46.86" cy="46.67" r="1.56"/><circle class="cls-9" cx="127.77" cy="46.67" r="1.56"/><g class="cls-10"><g class="cls-11"><rect class="cls-12" x="67.04" y="121.42" width="10.96" height="4.46" rx="1.21"/></g><g class="cls-11"><rect class="cls-12" x="73.22" y="115.57" width="10.96" height="4.46" rx="1.21"/></g></g><path class="cls-13" d="M130,81.59h5.51l.74-11.15-2.65,1.3S130.58,78,130,81.59Z"/><path class="cls-14" d="M135.35,53.65s-2.25-5.6,3.32-6.32S144.61,52,144.61,52Z"/><path class="cls-15" d="M116.91,70.9s9.65,5.61,12.61,8.26c0,0,1.94.48,6.68-6.47L131,72.06l-1.49,2.54-7.64-3.7-2.11-1.33-4.87-3-.42.59,2.75,1.74-2.22,0,.95,2Z"/><rect class="cls-14" x="140.94" y="57.75" width="4.07" height="6.68"/><circle class="cls-14" cx="144.77" cy="65.74" r="3.83"/><ellipse class="cls-15" cx="139.92" cy="55.52" rx="5.09" ry="5.41"/><rect class="cls-15" x="138.68" y="57.7" width="3.81" height="9.44" transform="translate(7.12 -14.05) rotate(5.87)"/><polygon class="cls-15" points="140.94 73.43 145.01 73.43 145.72 80 142.84 90.07 139.27 85.94 140.94 73.43"/><path class="cls-16" d="M125.6,134.72h8.27s7.64-41.4,6.68-43.92-2.49-9.21-2.49-9.21h-7.58Z"/><path class="cls-16" d="M135.46,105.12l5.17,29.6,8.18-2.13-6.68-24.39s3.12-11.59,1.91-17.4l-1.91-9.21h-6.67Z"/><path class="cls-13" d="M131,72.06l4.45,3.07v6.46h6.67s-1.58-8.9,1.28-14.4c.69-1.34-1.28-3.4-1.28-3.4h-3.77a2.07,2.07,0,0,0-1.66.82Z"/><path class="cls-14" d="M141.36,52.3s-3.1,1.78-4.46.18c-.8-.93,0-3.45,2.36-4.17A4.4,4.4,0,0,1,144.61,52c.17,2.39-1.61,2.15-1.61,2.15S141.84,54.24,141.36,52.3Z"/><path class="cls-14" d="M145.48,61.89A5,5,0,0,0,147,56.5c-.91-3.67-3.63-3.39-3.63-3.39s-1.34,1.15.18,4.28a5,5,0,0,1,0,3.44l1.5,5.77,3.54-1.26S148.14,62.12,145.48,61.89Z"/><circle class="cls-15" cx="143" cy="58.13" r="1.61"/><path class="cls-13" d="M140.63,74.6s3.05-1.38,5.09,0l-2.32-8.86-2.46.54Z"/><polygon class="cls-15" points="125.6 134.72 124.18 140.62 121.26 142.42 126.46 141.57 130.37 134.72 125.6 134.72"/><polygon class="cls-16" points="117.13 143.37 126.87 143.37 126.67 141.57 122.66 141.57 117.13 142.84 117.13 143.37"/><polygon class="cls-15" points="144.77 133.64 146.27 138.07 144.77 142.47 148.6 138.06 147.72 132.87 144.77 133.64"/><polygon class="cls-16" points="142.13 142.47 142.13 143.37 146.16 143.37 149.34 139.34 148.6 138.06 144.77 142.47 142.13 142.47"/></g></svg>