<svg xmlns="http://www.w3.org/2000/svg" viewBox="0 0 130.79 26.52"><defs><style>.cls-1{fill:#343633;}</style></defs><g id="Testimonials"><path class="cls-1" d="M130.79,10.88c-.1.64-.18,1.29-.3,1.93-.34,1.85-.7,3.7-1,5.55-.12.72-.19,1.45-.29,2.21h-4.81c.12-.53.25-1.05.36-1.57L126,12.53a10.49,10.49,0,0,0,.13-1.11,1.35,1.35,0,0,0-1.85-1.51A4.73,4.73,0,0,0,122.5,11a2.15,2.15,0,0,0-.72,1.32c-.34,1.91-.73,3.82-1.08,5.73-.15.81-.25,1.64-.37,2.48h-4.77c1-4.74,2-9.45,2.65-14.28h4l.09,2.08.73-.67a7.4,7.4,0,0,1,2.5-1.59,3.66,3.66,0,0,1,5,3c.09.42.13.86.19,1.28Z"/><path class="cls-1" d="M18.25.11c.2.51.41,1,.61,1.52,1,2.47,1.95,5,2.93,7.42,1.52,3.84,3,7.69,4.57,11.52.11.28.05.39-.22.47l-4.79,1.42-6.48,1.95L8.41,26.35l-.33.06L18.15.12Z"/><path class="cls-1" d="M40.4,15.58c-.07.67-.15,1.28-.2,1.9s-.07,1.08-.13,1.61a.64.64,0,0,1-.22.43,7.23,7.23,0,0,1-4.43,1.53,8.17,8.17,0,0,1-8.74-8.83,11.87,11.87,0,0,1,2.5-6.83,10.8,10.8,0,0,1,7.29-4.25A7.85,7.85,0,0,1,42,2.29a10.32,10.32,0,0,1,1,.87c.15.12.15.25.08.43-.4,1.13-.79,2.27-1.2,3.44l-.33-.28a6.31,6.31,0,0,0-7.4-.55,6.09,6.09,0,0,0-2.4,3.62,8.35,8.35,0,0,0-.17,3.88A3.82,3.82,0,0,0,35,16.84a7.68,7.68,0,0,0,4.31-.6,8.52,8.52,0,0,0,.83-.48Z"/><path class="cls-1" d="M16.35,0,6.25,26.26l-.09,0-.37-.68Q4.65,23.29,3.52,21c-.84-1.69-1.67-3.4-2.5-5.09C.71,15.26.39,14.63.06,14a.31.31,0,0,1,.08-.45L3.07,11.1c.78-.66,1.55-1.33,2.34-2,1.15-1,2.31-1.9,3.45-2.86C10.24,5.11,11.6,4,13,2.79L16.22.06A.39.39,0,0,1,16.35,0Z"/><path class="cls-1" d="M51.39,6.28h4.84c-.13.58-.26,1.14-.38,1.7-.42,2-.84,3.94-1.23,5.92a6.25,6.25,0,0,0-.13,1.67,1.35,1.35,0,0,0,1.84,1.33,4.1,4.1,0,0,0,1.86-1.14.48.48,0,0,0,.11-.25q.71-3.48,1.4-7c.15-.74.24-1.49.36-2.26h4.65c-.48,2.37-1,4.73-1.42,7.1a71.29,71.29,0,0,0-1,7.18h-3.8V18.4c-.36.35-.65.65-.95.92a5.79,5.79,0,0,1-2.93,1.59,4,4,0,0,1-4.68-3.45A11.28,11.28,0,0,1,50.13,14c.34-2,.72-4,1.07-6,.07-.43.1-.88.14-1.32C51.36,6.58,51.37,6.43,51.39,6.28Z"/><path class="cls-1" d="M79.58,16.37a7.25,7.25,0,0,0,4.27.79,2.85,2.85,0,0,0,.81-.21.76.76,0,0,0,.15-1.34,3.65,3.65,0,0,0-.69-.4c-.76-.36-1.53-.69-2.29-1.05a3.14,3.14,0,0,1-2-2.33,4.34,4.34,0,0,1,.76-3.22,6.49,6.49,0,0,1,4.34-2.69,7.38,7.38,0,0,1,4.45.37,5.77,5.77,0,0,1,.93.54.27.27,0,0,1,.11.25c-.23,1-.47,2.05-.72,3.08a.2.2,0,0,1,0,.07c-.68-.17-1.35-.37-2-.49a5.84,5.84,0,0,0-2.53,0,1.71,1.71,0,0,0-.65.28.7.7,0,0,0,0,1.21,12.17,12.17,0,0,0,1.26.61c.53.25,1.07.5,1.61.72,2.15.88,2.62,2.63,2,4.61a5.24,5.24,0,0,1-3.26,3.28,8.06,8.06,0,0,1-6.93-.29c-.43-.22-.4-.23-.29-.71.23-.94.43-1.89.64-2.84Z"/><path class="cls-1" d="M98.69,3.34l-.59,2.9h4c-.29,1.13-.58,2.26-.88,3.39,0,.07-.17.14-.27.14l-3.41-.08-.28,0c-.14.75-.29,1.5-.43,2.25-.18,1-.36,2-.53,3a6.59,6.59,0,0,0-.07,1,1,1,0,0,0,1.13,1.12c.8,0,1.6-.17,2.4-.27l.27-.05c-.09.75-.17,1.47-.25,2.2a1.59,1.59,0,0,0,0,.43.55.55,0,0,1-.38.62,9.52,9.52,0,0,1-4.62,1,3.48,3.48,0,0,1-3.29-3.09,9.41,9.41,0,0,1,.19-2.75c.38-1.76.88-3.5,1.33-5.26,0-.05,0-.11.06-.21H91a3.73,3.73,0,0,1,1.3-2.5,42.36,42.36,0,0,0,3.47-3,2.79,2.79,0,0,1,1.84-.84Z"/><path class="cls-1" d="M41.76,20.55C43.18,13.74,44.55,6.91,45.68,0h4.77c-.14.67-.29,1.34-.43,2-.61,3.07-1.24,6.13-1.84,9.21-.53,2.75-1,5.51-1.54,8.26,0,.3-.09.6-.15.89,0,.07-.12.18-.18.18-1.5,0-3,0-4.5,0Z"/><path class="cls-1" d="M78.82,6.3A5.49,5.49,0,0,1,76,6.16,7.59,7.59,0,0,0,72.05,6,9.15,9.15,0,0,0,65,16.05a4.54,4.54,0,0,0,3.4,4,3.69,3.69,0,0,0,3.87-.8c.29-.3.55-.63.83-.95l.09,0c-.2.86-.35,1.73-.6,2.57a2.13,2.13,0,0,1-1.66,1.44,6.56,6.56,0,0,1-3,0c-.71-.16-1.4-.38-2.06-.56-.3,1.05-.63,2.14-.94,3.23a.3.3,0,0,0,.07.25,5,5,0,0,0,.78.52,7.75,7.75,0,0,0,4.84.58,7.91,7.91,0,0,0,6.67-6.81c.44-3.79,1.26-7.52,2-11.26.14-.66.29-1.33.44-2A4.47,4.47,0,0,0,78.82,6.3Zm-4.48,4c-.29,1.52-.57,3.05-.89,4.57a1.21,1.21,0,0,1-.44.61,2.64,2.64,0,0,1-2.35.44,1.53,1.53,0,0,1-1.2-1.27,4.43,4.43,0,0,1,1.34-4.21,3.06,3.06,0,0,1,2-.78l1.38.32C74.34,10.05,74.37,10.16,74.34,10.33Z"/><path class="cls-1" d="M115.09,10.67a5.2,5.2,0,0,0-4-4.65,7.31,7.31,0,0,0-7.48,2.21,9.74,9.74,0,0,0-2.66,6.91A9.5,9.5,0,0,0,101,16.2a5.58,5.58,0,0,0,4,4.63,6.91,6.91,0,0,0,6.44-1.29A9.17,9.17,0,0,0,115.09,10.67ZM109.81,16a2.65,2.65,0,0,1-2.88,1.17,1.76,1.76,0,0,1-1.22-1.06,5.66,5.66,0,0,1,1.09-5.75,2.51,2.51,0,0,1,2.25-.71,1.94,1.94,0,0,1,1.59,1.55,9.92,9.92,0,0,1,.19,1.18A6.15,6.15,0,0,1,109.81,16Z"/></g></svg>