<svg xmlns="http://www.w3.org/2000/svg" viewBox="0 0 122.12 41.57"><defs><style>.cls-1{fill:#343633;fill-rule:evenodd;}</style></defs><g id="Testimonials"><path class="cls-1" d="M35.09,40.89c-5.5-2.06-5.6-11.24-4-18.37.92-4,2.27-6.65,3.74-8.15,1.14-1.22,2.53-2,3.5-1.85A3,3,0,0,0,36,12c-3.05.5-7,4.52-8.54,12.92-1.14,6.27.38,12.14,3.62,14.71a5.4,5.4,0,0,0,4,1.26Z"/><path class="cls-1" d="M99.67,28.75c-3.16-.47-6.48-1.37-9.66-1.33a17.14,17.14,0,0,0-8.17,2.31C84,27.06,86,24.41,89.55,24.24c3.77-.19,6.67,2.42,9.09,3.92.36.23.69.4,1,.59Z"/><path class="cls-1" d="M54,22.37A7.27,7.27,0,0,0,50.93,26c-.8,1.7-2.25,5.07-3.24,7.15-2.54,5.39-5.2,7.62-9,8.28a10.28,10.28,0,0,1-5.81-.8,7.5,7.5,0,0,0,4.94-.45c3.06-1.36,5-4.84,7-9.4,2.06-4.72,4.48-8.1,7.28-8.48a4.42,4.42,0,0,1,1.93.06Z"/><path class="cls-1" d="M82.56,28.83c-2.36,2.23-4.78,3.68-7.39,3.68-4.18,0-6.52-1.91-9.84-5.38-1.5-1.6-4.21-4.63-6.8-5.33a12.05,12.05,0,0,0-7.35.74,4.83,4.83,0,0,1,3.75.19,14.07,14.07,0,0,1,3.47,2.71c3,3.35,6.21,6.44,8.48,7.73,2.61,1.49,7.28,3,11.11.44a19.43,19.43,0,0,0,4.57-4.78Z"/><path class="cls-1" d="M98.37,28l.29.19c7.93,5,13.57,2.73,16.46,1.2a8.58,8.58,0,0,1-4.26-3.18,9.13,9.13,0,0,1-7.07,2.74,19.07,19.07,0,0,1-5.42-1Z"/><path class="cls-1" d="M21.09,1.22a2.08,2.08,0,0,0-.65.08c-2.29,1-4.27,7.29-3.77,14,.63,8.33,3.52,13.19,8,15.47a12.18,12.18,0,0,0,10.65.59c3.82-1.69,7.11-5.58,7.36-11.58.09-2.63-.57-5.13-2-6.58a5.23,5.23,0,0,0-5.49-1,4,4,0,0,1,3.3.48c1.24.86,1.81,2.63,1.89,5.07,0,2.63-.83,8.46-5.42,10.71-3.9,1.9-9,0-12.29-4.82-3.06-4.48-3.48-10.33-3.47-13.57.06-5,1-8.27,1.95-8.86Z"/><path class="cls-1" d="M.11,30.33a9.54,9.54,0,0,0,1.27,6.5,6.19,6.19,0,0,0,6.07,2.94C5.23,39,4,37.29,3.5,34.78a11.94,11.94,0,0,1,.15-5,5.23,5.23,0,0,1-3.54.59Z"/><path class="cls-1" d="M10.78,40.05c5.94-.84,11.47-9.24,14.23-19.91C27.64,10,26,.29,22.76.25A4.85,4.85,0,0,0,20,1.54a2.22,2.22,0,0,1,.73-.3c1.39-.19,2,1.67,2.36,4.72.4,3.22.06,9.87-2.61,17.42C17.39,32.14,12,38.76,8.21,39.63a6.26,6.26,0,0,1-3.3-.07,10.93,10.93,0,0,0,5.87.49Z"/><polygon class="cls-1" points="55.73 19.44 57.47 11.26 53.37 11.26 51.63 19.44 46.64 19.44 50.78 0 55.77 0 54.26 7.15 58.36 7.15 59.87 0 64.84 0 60.72 19.44 55.73 19.44 55.73 19.44"/><path class="cls-1" d="M77.91,9.49,77,13.62c-.59,2.94-.61,4.77-.09,5.82H72.48a8.84,8.84,0,0,1-.13-1.55A4.27,4.27,0,0,1,71.24,19V15.74a3,3,0,0,0,.88-1.64l1.24-6a2.36,2.36,0,0,0-2.12.49V5.05a10.76,10.76,0,0,1,2.34-.36A13.55,13.55,0,0,1,79,5.54a21,21,0,0,0-1.11,4ZM71.24,19V15.74a1.46,1.46,0,0,1-1.09.36c-.62,0-1-.61-1-1.5A10.4,10.4,0,0,1,70.86,9a2.5,2.5,0,0,1,.38-.41V5.05A8.68,8.68,0,0,0,67.3,7.26a11.15,11.15,0,0,0-3.2,7.51v.82c.11,2.57,1.56,4.36,4.36,4.3A5.67,5.67,0,0,0,71.24,19Z"/><path class="cls-1" d="M87.55,19.44H82.22L80.63,5.62l4.83-.8.38,4.9c.15,1.94.19,2.74.21,4.27h0c.56-1.49.92-2.52,1.87-4.58l2-4.36h5L87.55,19.44Z"/><path class="cls-1" d="M101.08,16.41a6,6,0,0,0,3.64-1.4l1,3.15a9.3,9.3,0,0,1-4.63,1.71V16.41Zm0-11.7a6.7,6.7,0,0,1,.91,0c2.86,0,5.11,1.14,5.11,4.1,0,2.51-2,4.76-6,5v-3c1-.18,1.74-.77,1.74-1.7a1.08,1.08,0,0,0-1.15-1.13,1.82,1.82,0,0,0-.59.1V4.71Zm-2.46,9.9h0a6.05,6.05,0,0,1,.06-1,10.77,10.77,0,0,0,1.66.17c.26,0,.49,0,.74,0v-3l-.65.07a4.17,4.17,0,0,1-1.1-.15A3.08,3.08,0,0,1,101.08,8V4.71c-4.52.49-7.26,4.66-7.2,9.14A6.57,6.57,0,0,0,95,17.74c1.07,1.47,2.73,2.17,5,2.19a9.65,9.65,0,0,0,1-.06V16.41h-.25c-1.29,0-2.11-.61-2.21-1.8Z"/><path class="cls-1" d="M120.92,19.44c-.52-1.05-.5-2.88.09-5.82l1-4.47c.47-2.21,0-4.44-3.45-4.46a7,7,0,0,0-4.43,1.62,6.08,6.08,0,0,0-.2-1.62l-4.54.8a11.45,11.45,0,0,1-.17,5.22l-1.85,8.73h4.8l2.08-9.76a2.55,2.55,0,0,1,2-1.07c.8,0,.93.65.69,1.77l-1.13,5.4a11.29,11.29,0,0,0-.25,3.66Z"/></g></svg>