<svg xmlns="http://www.w3.org/2000/svg" viewBox="0 0 130.79 26.81"><defs><style>.cls-1{fill:#343633;}</style></defs><g id="Testimonials"><path class="cls-1" d="M59.38,20.89a.61.61,0,0,0,0-.18q.39-2.7.77-5.41.49-3.57,1-7.14c0-.2,0-.39.08-.59s0-.18.18-.18h4.61c.64,4.49,1.26,9,1.9,13.48h.12V20.4c0-1.4,0-2.8.08-4.19,0-.84.14-1.67.23-2.51.14-1.27.3-2.54.45-3.81.1-.82.2-1.64.3-2.48h4.58c0,.28-.06.56-.1.83-.2,1.43-.39,2.87-.59,4.3l-.57,4.16c-.2,1.42-.39,2.84-.58,4.25l-.54,3.87c-.06.48-.13,1-.19,1.44,0,.15-.07.21-.24.21H65.77c-.18,0-.26,0-.29-.23l-.78-4.13c-.2-1.08-.43-2.16-.6-3.25A14.89,14.89,0,0,1,64,17.22c-.08-1.31-.15-2.62-.22-3.92a.24.24,0,0,0,0-.08h-.07c0,.08,0,.16,0,.23-.09,1.72-.15,3.43-.29,5.15a19.5,19.5,0,0,1-.4,2.24l-1,5.44c0,.16-.08.2-.23.2h-5.2c-.16,0-.22,0-.24-.21-.29-2.13-.59-4.27-.88-6.4-.25-1.82-.49-3.64-.74-5.46s-.51-3.64-.76-5.45c-.07-.51-.13-1-.2-1.54h4.59c.11.9.21,1.79.31,2.68.14,1.19.27,2.39.42,3.58a32,32,0,0,1,.27,3.79c0,1.07,0,2.14.06,3.21,0,.07,0,.14,0,.2Z"/><path class="cls-1" d="M117,26.47h-4.66a.28.28,0,0,1-.32-.22q-2-5.46-4-10.9l-.1-.21-.06,0a.47.47,0,0,0,0,.17l.36,3.12a6,6,0,0,1,.06.74v7.28h-4.07c-.18,0-.24,0-.24-.23q0-9.31,0-18.61V7.39h4.7c.16,0,.24,0,.29.2q2,5.48,4,10.94a1.18,1.18,0,0,0,.11.19l.06,0c0-.31-.06-.63-.1-.94a32.33,32.33,0,0,1-.33-4.4c0-1.9,0-3.8,0-5.69V7.41H117Z"/><path class="cls-1" d="M1.72,10.6l-.4-.07c-.2,0-.25-.16-.12-.32a6.34,6.34,0,0,1,.64-.63,3.69,3.69,0,0,1,2-.74c.55-.05,1.11,0,1.69-.05a7.94,7.94,0,0,0-1-.18A5.11,5.11,0,0,0,.81,9.86c-.19.16-.34.37-.51.54a.72.72,0,0,1-.19.11c0-.07-.12-.15-.11-.22a3.21,3.21,0,0,1,.46-1.5,4.29,4.29,0,0,1,2.87-2A5.63,5.63,0,0,1,10,11.06a13.62,13.62,0,0,1,.18,1.43.26.26,0,0,1-.15.28,5.41,5.41,0,0,0-.49.38,1.14,1.14,0,0,0,1.22-.27l-.53.06v-.06a2.74,2.74,0,0,1,1.28-.55l-.31.51.95-.55c0,.1,0,.13,0,.17s0,.22.18.18A2.07,2.07,0,0,0,14,11.12a.46.46,0,0,1,.15-.22,2.25,2.25,0,0,0,.68-.85c0-.06.1-.1.16-.13a1.32,1.32,0,0,0,.74-1.23c0-.07,0-.15,0-.2-.16.28-.32.56-.49.83,0,.07-.13.11-.23.19a1.1,1.1,0,0,1,.2-.8,1.28,1.28,0,0,0,.25-1.24.34.34,0,0,1,.05-.26,1.42,1.42,0,0,0,.26-.87.25.25,0,0,1,.08-.19,1,1,0,0,0,.25-1,.36.36,0,0,1,0-.21,1.18,1.18,0,0,0,.19-.75.18.18,0,0,1,.13-.2.77.77,0,0,0,.52-.76.27.27,0,0,1,.14-.16c.15-.11.31-.19.47-.29l0-.05L17.08,3a2,2,0,0,1,1.72-.71,1.59,1.59,0,0,0-.88-.16.65.65,0,0,0-.31,0A.65.65,0,0,1,17,1.94l-1.1-.84c.16.59.7.83,1.09,1.19a.34.34,0,0,1-.47,0,6.15,6.15,0,0,1-.74-.61,1.41,1.41,0,0,1-.28-.56A.45.45,0,0,1,16,.57a5.51,5.51,0,0,1,.76.31l.39.12c0-.13,0-.26.05-.39v0c0-.18-.08-.38.08-.5a.47.47,0,0,1,.54,0,8.83,8.83,0,0,1,.8.56c.16.13.3.28.51.47a2.7,2.7,0,0,1,.05-.47.38.38,0,0,1,.17-.26.3.3,0,0,1,.27.11,4.59,4.59,0,0,1,.38.73c.06.16.13.2.28.12a1.52,1.52,0,0,1,.36-.12c.23,0,.31.06.24.28a2.13,2.13,0,0,1-.14.35c-.07.14-.06.24.11.29A1,1,0,0,1,21,2.3c-.05.06-.08.14-.14.18l-.57.37.38.28c.26.23.52.46.76.71a.33.33,0,0,1,.05.29c0,.06-.15.09-.24.1s-.46,0-.68,0-.37.32-.15.54.24.2.35.3a1.54,1.54,0,0,1,.54,1,1.16,1.16,0,0,1-1.13,1.2A1.67,1.67,0,0,1,18.88,7a.72.72,0,0,0,.64.59.62.62,0,0,1,.45.33c.31.54.64,1.07,1,1.61l-.32.18c.11.27.24.52.32.79.19.57.36,1.15.53,1.73a.24.24,0,0,1-.1.19,1.78,1.78,0,0,1-.27.12A6.2,6.2,0,0,1,19,18.14l-.27-.2c-.4.33-.78.68-1.19,1a16.27,16.27,0,0,1-3.39,1.88,1.75,1.75,0,0,0-.39.28,1.27,1.27,0,0,0-.25.27,1.46,1.46,0,0,1-1.15.68,2.82,2.82,0,0,0-.31.07c0,.15,0,.15.53.22.07.42-.3.34-.5.44,0,.19,0,.19.34.24,0,.16,0,.28-.2.32,0,0-.07.05-.1.08s.08.09.12.09.17.1.19.22a7.24,7.24,0,0,0,.14,1.23,1.27,1.27,0,0,0,.43.66,1.94,1.94,0,0,0,1.54.48c.43-.07.66.23.52.63-.23-.22-.48-.14-.74-.09a2.05,2.05,0,0,1-1.22-.12,2,2,0,0,0-.26-.09,1.74,1.74,0,0,0-1.75.07l-.3.11a.58.58,0,0,1,.32-.64l0,0a.75.75,0,0,0,.58-1,15.78,15.78,0,0,0-.56-2.56c-.16-.39-.35-.77-.55-1.15a.46.46,0,0,1-.05-.38c.08-.23.14-.46.21-.69a.27.27,0,0,0,0-.18l-1-1a.81.81,0,0,0-.1.6.68.68,0,0,1-.07.26.78.78,0,0,1-.21-.09,2.57,2.57,0,0,1-.8-1.81c0-.18,0-.18-.16-.22a3.45,3.45,0,0,0,.13,1.56.17.17,0,0,1-.28,0c-.17-.14-.32-.28-.49-.41a.53.53,0,0,0-.18,0,.3.3,0,0,0,0,.16c.06.14.13.26.19.39-.1.18-.24.15-.39.05A3.67,3.67,0,0,1,6,17.91a.83.83,0,0,0-.19-.25l-.14.72c-.43,0-.43,0-.58-.45s-.13-.37-.53-.19l-.43-1-.45.38a3.77,3.77,0,0,1-.35-2.21c-.3.1-.58.21-.87.29s-.41.13-.53-.06,0-.37.1-.53l.12-.18c-.19,0-.35.08-.51.1s-.42.05-.57-.17a.49.49,0,0,1,0-.51,3.15,3.15,0,0,1,.26-.52l-.28-.06C.75,13.2.65,13,.84,12.72s.37-.46.55-.69c-.12-.08-.28-.18-.42-.29a.35.35,0,0,1,0-.58C1.2,11,1.45,10.8,1.72,10.6Zm7.61.72c0-.07,0-.09,0-.1a.19.19,0,0,0,0-.08,4,4,0,0,0-1-1.78,5.37,5.37,0,0,0-4.5-1.78A3.68,3.68,0,0,0,2,8.19c-.2.14-.38.32-.57.48a5.17,5.17,0,0,1,4.47-.33A6,6,0,0,1,9.33,11.32Zm2.64,6a2,2,0,0,0-1,.6c-.06.07-.13.2-.1.27a.37.37,0,0,0,.26.14,5.45,5.45,0,0,0,.81,0,7.67,7.67,0,0,0,2.89-1,4.47,4.47,0,0,0,1.53-1.37c.12-.18.2-.37.31-.56a.27.27,0,0,0-.16.07A6.86,6.86,0,0,1,13.1,17.6c-.36.11-.73.19-1.1.27a.94.94,0,0,1-.27-.06,2.76,2.76,0,0,1,.08-.27C11.85,17.47,11.92,17.42,12,17.35Zm-3.56-6C7.52,9.46,3.88,8.7,2.22,10A7.43,7.43,0,0,1,8.41,11.38ZM11.91,16,11.86,16H11.8a2.29,2.29,0,0,0-1,.49.45.45,0,0,0-.13.31.42.42,0,0,0,.27.19,3.09,3.09,0,0,0,1.45-.08A7.75,7.75,0,0,0,15.88,15a6.42,6.42,0,0,0,.43-.48.12.12,0,0,0-.12,0A11.1,11.1,0,0,1,13.78,16c-.63.23-1.29.39-1.94.57-.08,0-.19,0-.29-.06a1.31,1.31,0,0,1,.12-.27A1.7,1.7,0,0,1,11.91,16ZM4.4,14.18a4.36,4.36,0,0,1,4.27-2,2.9,2.9,0,0,0-2.88,0A2.36,2.36,0,0,0,4.4,14.18Zm.32,1.6.08-.13A4.33,4.33,0,0,1,6,14.21,6.82,6.82,0,0,1,8.37,13l.33-.12v-.08a2.23,2.23,0,0,0-.43-.1,2.92,2.92,0,0,0-1.69.51A3.71,3.71,0,0,0,4.72,15.78ZM16.06,13.5l0-.07L15,14.11a6.92,6.92,0,0,1-2.52,1.05.74.74,0,0,1-.25,0,.76.76,0,0,1,.11-.24c.11-.13.25-.24.41-.4l-.21.06c-.33.17-.67.33-1,.51a.32.32,0,0,0-.11.27.36.36,0,0,0,.25.17,2.16,2.16,0,0,0,.57,0,6.38,6.38,0,0,0,3-1.25C15.51,14,15.77,13.76,16.06,13.5ZM9.79,15.18a3.48,3.48,0,0,0-.58,3.3,7.63,7.63,0,0,1,1.64-3.58.42.42,0,0,0-.21.11l-.76.69a1.86,1.86,0,0,1-.23.13Zm4.26-2.79,0,0c-.11.07-.22.12-.32.19a2,2,0,0,0-.95,1.31c-.05.28,0,.34.28.3a2.07,2.07,0,0,0,1.11-.56,1.45,1.45,0,0,0,.45-1.07,3.6,3.6,0,0,1-1.32,1.18A3.22,3.22,0,0,1,14.05,12.39Zm-10.24.35a4.83,4.83,0,0,1,3.35-1.58C5.52,10.72,4,11.41,3.81,12.74Zm8.55.4a3.28,3.28,0,0,1-1.3.92,3.34,3.34,0,0,1,.83-1.12,1.85,1.85,0,0,0-1.31,1.23c-.07.23,0,.3.21.28A1.75,1.75,0,0,0,12,13.9,1.29,1.29,0,0,0,12.36,13.14Zm3.2-.58-.08-.06.66-1.17a1.88,1.88,0,0,0-1.08,1.44c0,.23,0,.29.26.24a2,2,0,0,0,1-.54,1.26,1.26,0,0,0,.35-1A2.94,2.94,0,0,1,15.56,12.56ZM7.79,17.68a5.33,5.33,0,0,1,1.45-2.34l-.05-.05L8.3,16l-.07,0,.38-.74A2.34,2.34,0,0,0,7.79,17.68ZM19.13,11a10.23,10.23,0,0,1,0,1.11,1.72,1.72,0,0,1-.35,1h-.06V11.87a2.48,2.48,0,0,0-.29,1.32,1.6,1.6,0,0,0,.14.42,1.68,1.68,0,0,0,.37-.21A2.16,2.16,0,0,0,19.13,11Zm-14.42,0c-.48-.69-2.38-.41-3.13.3A8,8,0,0,1,4.71,10.94Zm12.76.1-.17.22a1.28,1.28,0,0,0-.18,1.25c0,.09.07.18.2.13A1.2,1.2,0,0,0,18,11a2.15,2.15,0,0,1-.51,1.18h-.07Zm-2.35-.64a1.43,1.43,0,0,0-.76,1.11c0,.24,0,.29.27.22a1.44,1.44,0,0,0,.74-.52.91.91,0,0,0,.18-.73,2.44,2.44,0,0,1-.81.9l-.06,0Zm2.74,2.68a2.44,2.44,0,0,1-.82.81l-.06,0,.46-.86a2.45,2.45,0,0,0-.53.42,1,1,0,0,0-.25.71c0,.11.05.14.16.13A1.23,1.23,0,0,0,17.86,13.08ZM5.65,16.55a3,3,0,0,1,.3-.63c.27-.37.59-.72.88-1.09a.8.8,0,0,0,.1-.23,1.29,1.29,0,0,0-.28,0,.18.18,0,0,0-.09,0A2.24,2.24,0,0,0,5.65,16.55ZM17.49,9.26c-.08.38,0,.76-.35,1.06l-.06-.93a1.13,1.13,0,0,0,0,1.39A1.08,1.08,0,0,0,17.49,9.26Zm-1,.3a1.69,1.69,0,0,1-.46,1l.05-.91a1.14,1.14,0,0,0-.24,1.27A.18.18,0,0,0,16,11,1.11,1.11,0,0,0,16.48,9.56ZM9.94,13.63c-.4,0-1.06.54-1,1a1.14,1.14,0,0,0,1.35-.8,2.25,2.25,0,0,1-.94.55l0-.05ZM7.64,15l0-.05.22-.46A1.33,1.33,0,0,0,7,15.74a1.67,1.67,0,0,0,1-1ZM1.41,12.65l.06.07A4.6,4.6,0,0,1,3.7,11.65a.49.49,0,0,0-.53-.16,2.52,2.52,0,0,0-1.21.6A7.27,7.27,0,0,0,1.41,12.65ZM16.27,8A1,1,0,0,0,16.5,9.3a1,1,0,0,0,.42-.81.74.74,0,0,0-.29-.61,1.56,1.56,0,0,1-.09,1h-.06ZM6.74,16.44c-.26.5-.12,1.55.23,1.75a4.32,4.32,0,0,1,.3-1.85h0l-.36.55-.06,0ZM16,6.61a1.05,1.05,0,0,0-.14,1.22.24.24,0,0,0,.19,0,1,1,0,0,0,.29-1.33,1.6,1.6,0,0,1-.34,1Zm2.22,7.47c-.13.32-.2.64-.51.83l.15-.84a1.11,1.11,0,0,0-.37,1.1c0,.11.08.15.2.11A1,1,0,0,0,18.24,14.08Zm.28-4.48,0,1-.1,0-.28-.79A1,1,0,0,0,18.52,11,1,1,0,0,0,18.52,9.6ZM9.06,13.28A1.27,1.27,0,0,0,7.94,14a1.28,1.28,0,0,0,1.22-.48l-.44.11,0-.07Zm8.37-5.47a1,1,0,0,0,.17,1.06.21.21,0,0,0,.2,0,.87.87,0,0,0,0-1.22v.88h-.08Zm-14.15,5a1.07,1.07,0,0,0-.35,0,2.49,2.49,0,0,0-1.35,1.07ZM18.91,5.6a.75.75,0,0,0,0,.89.86.86,0,0,0,.84.25A1.2,1.2,0,0,1,18.91,5.6ZM17,5.59l-.15.62h-.09l-.06-.65a1,1,0,0,0-.1.83c0,.07.12.18.15.17A.36.36,0,0,0,17,6.39.93.93,0,0,0,17,5.59Zm.16,1.3-.09.67H17l-.14-.66a.94.94,0,0,0,0,.85.25.25,0,0,0,.16.13c.06,0,.14-.08.17-.14A.91.91,0,0,0,17.19,6.89Zm3.67-3,0-.08a6.27,6.27,0,0,0-.58-.29.31.31,0,0,0-.41.23.15.15,0,0,0,.1.13Zm-4.28.64a.68.68,0,0,0-.17.71c0,.06.08.16.12.16a.25.25,0,0,0,.19-.11.79.79,0,0,0,.1-.76l-.17.57h-.07Zm2.7,9.64c-.36.36-.38.44-.18.78C19.5,14.61,19.52,14.58,19.28,14.15Zm.44-11a.51.51,0,0,0-.5-.32.46.46,0,0,0-.5.21Zm-1.28,5.2c-.18.36-.16.46.17.76C18.8,8.7,18.76,8.55,18.44,8.31ZM2.37,14.74l.89-.84C3,13.83,2.53,14.22,2.37,14.74Zm17.24-4.12c.23-.35.2-.5-.1-.69C19.32,10.25,19.33,10.34,19.61,10.62ZM18.27,7.71c.09-.38,0-.57-.31-.62C17.91,7.46,18,7.55,18.27,7.71Zm-.64-.94c.22-.25.2-.45-.08-.65C17.37,6.4,17.38,6.54,17.63,6.77ZM18.9,3.25c0,.19,0,.33.17.35a.41.41,0,0,0,.3-.12c.08-.06.07-.16-.05-.18ZM18.69,5l-.5-.67A.48.48,0,0,0,18.69,5Zm-1.29.55c.22-.19.23-.29,0-.56C17.22,5.18,17.21,5.32,17.4,5.53ZM20,13.32c-.25.14-.28.22-.15.43C20,13.65,20.16,13.53,20,13.32Zm.32-1.82c-.15.24-.14.29,0,.42C20.48,11.78,20.53,11.63,20.34,11.5ZM19.57,9l-.1,0a.28.28,0,0,0,.14.39l.07,0ZM18.22,6.52l-.08,0,.14.38C18.44,6.71,18.35,6.61,18.22,6.52ZM19,7.86l-.07,0c-.09.22-.07.27.19.34ZM17.31,3.77c-.15.08-.23.18-.13.34C17.38,4,17.39,4,17.31,3.77Zm.47-.6-.06-.06c-.23.06-.25.08-.22.35Z"/><path class="cls-1" d="M23.1,7.4h4.08l.18,1.24.45,3.24c.09.66.18,1.32.28,2,0,.06.08.17.13.17h3l.93-6.63h4.05V26.46H32.12l-.27-2.12-.36-2.91c-.08-.64-.17-1.28-.24-1.92,0-.17-.06-.23-.24-.23H28.29c-.16,0-.22,0-.24.21-.18,1.54-.37,3.08-.56,4.61-.1.79-.21,1.57-.31,2.36H23.1Z"/><path class="cls-1" d="M90.76,26.46V7.4H102c.2,0,.25.05.25.25,0,1.25,0,2.51,0,3.76v.24H95.56v3.15l5.07-.51V19l-5.07-.48v3.7h6.63a1.48,1.48,0,0,1,0,.2c0,1.29,0,2.58,0,3.88,0,.17,0,.22-.23.22H90.76Z"/><path class="cls-1" d="M119,26.06V21.58l.45.18a10.31,10.31,0,0,0,4.45.83,2,2,0,0,0,1.47-.59,1,1,0,0,0,.12-1.32,2.93,2.93,0,0,0-.72-.77c-.89-.67-1.8-1.31-2.71-2a7.68,7.68,0,0,1-2.74-3.08,5.4,5.4,0,0,1,.42-5.56,5,5,0,0,1,2.69-1.84A8.39,8.39,0,0,1,124.85,7a16.15,16.15,0,0,1,4.7.46c.11,0,.17.06.17.19v3.85s0,.05,0,.09c-.51-.13-1-.26-1.52-.37a10,10,0,0,0-2.78-.28,3,3,0,0,0-.79.14A1.21,1.21,0,0,0,124,13a3,3,0,0,0,.72.75c.92.68,1.87,1.33,2.8,2A8.76,8.76,0,0,1,130,18.43a5.35,5.35,0,0,1-.42,6.08,5.93,5.93,0,0,1-3,1.85,11.11,11.11,0,0,1-3.49.38,15.77,15.77,0,0,1-3.86-.6Z"/><path class="cls-1" d="M15.91,22.81a2.26,2.26,0,0,0,.2.13.61.61,0,0,0,.19,0c.28,0,.29,0,.31.31l-.32.1c0,.14.06.23.21.2s.32.08.34.31l-.21.09c0,.13,0,.21.17.21s.26.1.28.28l-.23.09c.06.07.11.17.14.17.23,0,.3.12.38.27l-.13.13.17.1s.09,0,.12,0a2.57,2.57,0,0,0,1.36.64,3.45,3.45,0,0,0,.72,0c.34,0,.5.27.38.62-.29-.23-.59-.09-.89-.05a2.69,2.69,0,0,1-1.32-.17.94.94,0,0,0-.7,0c-.3.13-.62.23-.95.35,0-.27,0-.5.27-.65s.36-.34.19-.66c-.42-.79-.82-1.59-1.31-2.34a4.48,4.48,0,0,0-.94-.9.28.28,0,0,1-.09-.35,1.35,1.35,0,0,1,.8-.87,13.6,13.6,0,0,0,2.85-1.78s.05,0,.06,0c.24.22.25.23.06.49-.48.64-1,1.27-1.45,1.9,0,0-.08.08-.09.12,0,.32-.28.34-.51.4a.37.37,0,0,0-.15,0c-.06,0-.12.1-.18.15a1,1,0,0,0,.23.08c.11,0,.23,0,.34,0s.21,0,.24.14-.05.19-.18.22l-.33.08Z"/><path class="cls-1" d="M13.56,11.45a1.54,1.54,0,0,1-1,.79A1.71,1.71,0,0,1,13.56,11.45Z"/><path class="cls-1" d="M14.72,9.64a1.06,1.06,0,0,1-.58.92A1.43,1.43,0,0,1,14.72,9.64Z"/><path class="cls-1" d="M15.29,7.81a1,1,0,0,1-.28.83A.83.83,0,0,1,15.29,7.81Z"/><path class="cls-1" d="M15.18,7.09l.28-.84a.77.77,0,0,1-.21.87Z"/><path class="cls-1" d="M15.91,5.22c.07.34,0,.49-.21.66A.73.73,0,0,1,15.91,5.22Z"/><path class="cls-1" d="M15.86,4.8l.25-.65a.52.52,0,0,1-.18.67Z"/><path class="cls-1" d="M88.77,16.05A14.24,14.24,0,0,0,88.1,12a6.26,6.26,0,0,0-2.5-3.41,7.18,7.18,0,0,0-3.87-1.12c-2.06,0-4.12,0-6.18,0l-.16,0V26.47h.26c1.76,0,3.52,0,5.28,0a14.83,14.83,0,0,0,2-.15,6.25,6.25,0,0,0,3.47-1.62,7,7,0,0,0,1.91-3.49A17.86,17.86,0,0,0,88.77,16.05Zm-5,2.81a7.21,7.21,0,0,1-.34,1.53,2.1,2.1,0,0,1-1.91,1.51c-.41,0-.84,0-1.27,0v-10a15.5,15.5,0,0,1,1.71.16,2,2,0,0,1,1.45,1.31,6.62,6.62,0,0,1,.41,2.06A18,18,0,0,1,83.77,18.86Z"/><path class="cls-1" d="M52.42,14.19a11.54,11.54,0,0,0-.81-3.31,5.67,5.67,0,0,0-3.94-3.54A9.45,9.45,0,0,0,44,7.15a5.74,5.74,0,0,0-4.66,3.26,11.77,11.77,0,0,0-1.06,4.2,24.48,24.48,0,0,0,0,5A12.29,12.29,0,0,0,39.17,23a5.65,5.65,0,0,0,4.07,3.57,9.18,9.18,0,0,0,4.42,0,5.43,5.43,0,0,0,3.14-2.09A7.44,7.44,0,0,0,52,22a19.35,19.35,0,0,0,.66-5.08C52.55,16,52.51,15.11,52.42,14.19Zm-5.05,6a3.25,3.25,0,0,1-.63,1.48,1.77,1.77,0,0,1-2.81-.12,4.11,4.11,0,0,1-.65-1.92c-.1-.88-.15-1.77-.23-2.66a16.29,16.29,0,0,1,.4-3.48,4.1,4.1,0,0,1,.47-1.07,1.76,1.76,0,0,1,2.94,0,4,4,0,0,1,.59,1.68A18.25,18.25,0,0,1,47.37,20.15Z"/></g></svg>