<svg xmlns="http://www.w3.org/2000/svg" viewBox="0 0 130.79 33.61"><defs><style>.cls-1{fill:#343633;}</style></defs><g id="Testimonials"><path class="cls-1" d="M36.4,10h7.2v15.1l.2,0L47.14,10h7.31q-2.58,11.8-5.17,23.62H36.4Z"/><path class="cls-1" d="M111.69,33.58H97.37C97.93,28.29,98.48,23,99,17.69H94.21L92.82,10h15.1c-.69,5.53-1.37,11-2.07,16.64h4.54Z"/><path class="cls-1" d="M83.14,17.67H78.05L76.66,10H91.94c-.65,5.54-1.3,11.06-2,16.67h4.26l1.46,7H81.53C82.07,28.28,82.6,23,83.14,17.67Z"/><path class="cls-1" d="M13.67,10,9.9,26.6h5.26l-1.57,7H0L5.36,10Z"/><path class="cls-1" d="M78.45,27.85Q75.38,14.25,72.32.64C72.2.11,72,0,71.51,0,67.66,0,63.8,0,60,0c-.2,0-.4,0-.58,0-2.52,11.21-5,22.35-7.55,33.57H60c1.24,0,1.22,0,1.45-1.24.27-1.47.56-2.94.84-4.38h7.1l1.07,5.58H79.7C79.28,31.64,78.87,29.74,78.45,27.85ZM63.61,20.5C64.31,16.73,65,13,65.7,9.25h.18C66.57,13,67.27,16.72,68,20.5Z"/><path class="cls-1" d="M125.57,10H112.24v23.6h7.3V30.42c1,0,1.86,0,2.75,0a.75.75,0,0,1,.52.43c.22.77.36,1.56.57,2.33.05.16.27.39.41.4,2.32,0,4.63,0,7,0Zm-6,14.25v-7.9l.08,0c.58,2.62,1.15,5.23,1.74,7.92Z"/><path class="cls-1" d="M20.4,10c-1.78,7.88-3.56,15.72-5.35,23.61H22.4c.2-.89.38-1.78.6-2.67,0-.18.23-.46.36-.46,1,0,1.91,0,2.94,0v3.16h7.27V10Zm5.84,14.22H24.51c.55-2.39,1.08-4.73,1.61-7.08h.12Z"/></g></svg>