<svg xmlns="http://www.w3.org/2000/svg" viewBox="0 0 79.86 45.06"><defs><style>.cls-1{fill:#343633;}</style></defs><g id="Testimonials"><path class="cls-1" d="M0,38.14C1.5,38,1.56,37,1.56,35.9q0-16.29,0-32.59c0-1.8,0-1.8,1.77-1.8H76.2c1.33,0,2.64.07,3.66-1.52V43.65c-2.53-.66-5-1.34-7.56-2A56.48,56.48,0,0,0,55,39.83,71.83,71.83,0,0,0,41.8,42.29,85.18,85.18,0,0,1,18,45,29.54,29.54,0,0,1,5.32,42.2a35,35,0,0,1-4.48-3A5,5,0,0,1,0,38.14Zm25.56-5.75V18.16c0-1.85-.78-2.62-2.67-2.63H10.55A2.24,2.24,0,0,0,8,18.07c0,4.5,0,9,.06,13.51,0,.25,0,.49,0,.77h5.05c0-4,0-8,0-12,0-.38.34-.75.52-1.12a3.28,3.28,0,0,1,.48,1.14c0,3.42,0,6.83,0,10.25v1.72h5.14V20.69a3.59,3.59,0,0,1,0-.87c.06-.2.28-.35.43-.53.18.19.43.35.51.57a2.46,2.46,0,0,1,0,.86V32.39Zm7.6-16.92v6.26c0,2,0,3.93,0,5.89,0,.29-.36.58-.55.87a7.23,7.23,0,0,1-.68-.89c-.09-.17,0-.43,0-.65V15.48H26.65v1c0,4.07,0,8.13,0,12.2a3.7,3.7,0,0,0,3.71,3.74,37.23,37.23,0,0,1,3.81,0,4,4,0,0,0,4.19-4.21c-.12-3.89,0-7.77,0-11.66V15.47Zm29.93,8.65c0-2,.11-3.85,0-5.71a3.11,3.11,0,0,0-3.27-2.88c-1.31,0-2.62,0-3.92,0a3.66,3.66,0,0,0-3.93,3.84c0,3.16,0,6.32,0,9.48a3.61,3.61,0,0,0,3.42,3.56c1.45.06,2.91.05,4.36,0A3.37,3.37,0,0,0,63,29.78a40.17,40.17,0,0,0,0-4.66H58.33c0,1,0,1.88,0,2.77,0,.27-.36.52-.55.77-.24-.22-.67-.44-.68-.68-.07-1.25,0-2.51,0-3.86ZM39.49,7.79V32.35h5V7.79Zm6.21,0V32.37h5.08V7.81ZM64.41,32.34h4.77V31.07c0-3.74,0-7.48,0-11.22a1,1,0,0,1,.9-1.23l2.18-.52V15a4.53,4.53,0,0,0-1.33-.14c-1.87.36-3.74.78-5.61,1.19-.72.15-.92.59-.91,1.33,0,4.6,0,9.21,0,13.82ZM32.07,11.78a2.59,2.59,0,1,0-2.49,2.59A2.51,2.51,0,0,0,32.07,11.78Zm3.44,2.59a2.56,2.56,0,0,0,2.65-2.57,2.61,2.61,0,0,0-2.57-2.56,2.57,2.57,0,1,0-.08,5.13Z"/><path class="cls-1" d="M58.31,23H57c0-1,0-1.9,0-2.82,0-.24.36-.45.56-.68.23.23.64.44.66.68C58.36,21,58.31,21.94,58.31,23Z"/></g></svg>