<svg xmlns="http://www.w3.org/2000/svg" viewBox="0 0 108.71 43.95"><defs><style>.cls-1{fill:#343633;}</style></defs><g id="Testimonials"><path class="cls-1" d="M0,0V44H108.71V0ZM35.59,39.69q-5.31,0-10.62,0c-.48,0-.66-.17-.8-.62q-3.53-11.73-7.09-23.45l-.14-.4c-.38,1.89-.74,3.64-1.09,5.4q-1.78,8.9-3.57,17.79c-.26,1.27-.28,1.27-1.59,1.27H3.84c-.24,0-.49,0-.82,0,.17-.83.33-1.62.5-2.4Q5.94,25.89,8.36,14.53c.71-3.3,1.42-6.59,2.11-9.88.07-.36.23-.45.57-.45q5.43,0,10.88,0c.44,0,.6.15.72.56Q25.76,15.39,28.91,26l.75,2.53.11,0c.61-3,1.23-6,1.84-9.06q1.5-7.42,3-14.83c0-.26.13-.44.47-.44h8.39a1.67,1.67,0,0,1,.24,0c-.13.65-.25,1.29-.39,1.94q-3.48,16.42-7,32.86C36.25,39.53,36.07,39.69,35.59,39.69Zm34.53-.49c-.07.35-.2.48-.55.48H60.86a3.87,3.87,0,0,1-.48-.06c1-5,2.08-10,3.12-15l-.64,0H53c-.42,0-.6.1-.7.55-1,4.72-2,9.43-2.92,14.15-.07.32-.19.45-.51.45H40.15a2.59,2.59,0,0,1-.38-.06c.16-.79.3-1.56.46-2.33Q43,24,45.74,10.76L47,4.65c.06-.26.12-.45.46-.45h9a1.28,1.28,0,0,1,.25.06c-.92,4.44-1.83,8.89-2.76,13.4.25,0,.43,0,.62,0,3.29,0,6.58,0,9.87,0,.51,0,.65-.19.74-.63C66,12.94,66.85,8.8,67.7,4.65c.06-.3.15-.45.5-.45h8.87l.28,0c-.13.68-.25,1.35-.39,2L71.68,31.69C71.16,34.2,70.62,36.7,70.12,39.2ZM104.4,5.71c-.67,2-1.3,4.07-2,6.1,0,.14-.1.26-.17.46-.18-.06-.34-.1-.49-.16A19.14,19.14,0,0,0,90.93,11a5.64,5.64,0,0,0-1.55.51,2.59,2.59,0,0,0-.46,4.6A23.28,23.28,0,0,0,92.79,18,25.79,25.79,0,0,1,98,20.65c2.79,2.08,3.74,4.93,3.48,8.29a10.93,10.93,0,0,1-1.65,5.25A11.93,11.93,0,0,1,93.18,39a28.09,28.09,0,0,1-10.82,1.21,39,39,0,0,1-8.78-1.61l-.47-.17,2.21-7.21a1.82,1.82,0,0,1,.32.12,17.43,17.43,0,0,0,6.71,1.79,15.46,15.46,0,0,0,6-.45,6.25,6.25,0,0,0,2.06-1,3.17,3.17,0,0,0,.08-4.91,14.21,14.21,0,0,0-3.87-2C85,24,83.33,23.29,81.8,22.43A7.12,7.12,0,0,1,78,17.05c-.59-4.39.85-8.84,5.5-11.32a18.67,18.67,0,0,1,6.61-1.94,39.07,39.07,0,0,1,8.58,0A20.17,20.17,0,0,1,104,4.94C104.47,5.1,104.55,5.28,104.4,5.71Z"/></g></svg>