<svg xmlns="http://www.w3.org/2000/svg" viewBox="0 0 113.12 47.17"><defs><style>.cls-1{fill:#343633;}.cls-2{opacity:0.05;}</style></defs><g id="Testimonials"><path class="cls-1" d="M83,20c0-2.67,0-5.34,0-8,0-.77-.2-1.09-1-1.06-1.43.06-2.86,0-4.3,0a1.74,1.74,0,0,1-2-1.75,1.71,1.71,0,0,1,1.81-1.89c1.49-.07,3-.07,4.48,0,.77,0,1-.28,1-1,0-1.4,0-2.8,0-4.2S83.75,0,84.85,0s1.79.82,1.81,2.13,0,2.61,0,3.91c0,.93.21,1.27,1.22,1.26,5.12-.06,10.24,0,15.36,0,2.1,0,2.64.56,2.64,2.68,0,5,0,10.05,0,15.08,0,1.43,0,1.43,1.48,1.43,1.27,0,2.54,0,3.81,0a1.82,1.82,0,1,1,0,3.63c-1.47,0-2.93,0-4.39,0-.71,0-.94.25-.92.95,0,1.5,0,3,0,4.49a1.85,1.85,0,1,1-3.69-.09v-.57c0-1.21-.06-2.42,0-3.63.06-1-.31-1.16-1.2-1.16-5,0-10,0-15.08,0-.31,0-.63,0-1,0a1.75,1.75,0,0,1-1.92-2c0-2.71,0-5.41,0-8.12Zm3.65-1.28c0,2.22,0,4.45,0,6.67,0,.76.2,1.08,1,1.07q6.72,0,13.45,0c.76,0,1-.21,1-1q-.06-6.72,0-13.45c0-.87-.3-1.06-1.1-1.06q-6.69.06-13.36,0c-.87,0-1.08.31-1.06,1.11C86.69,14.27,86.66,16.5,86.66,18.73Z"/><path class="cls-1" d="M7.79,33.79c-.09.28-.13.46-.19.63-.44,1.2-.43,1.16-1.7.86A5.37,5.37,0,0,0,4,35.17a1.15,1.15,0,0,0-.72.75,1,1,0,0,0,.49.82c.68.4,1.42.7,2.13,1,1.65.78,2.25,1.78,2,3.37a3.24,3.24,0,0,1-3,2.81,19.88,19.88,0,0,1-3.67-.38c-.73-.1-.57-.63-.37-1.09s.08-1.23,1-.93a6.43,6.43,0,0,0,2.33.34A1.68,1.68,0,0,0,5.48,41c.1-.26-.41-.92-.8-1.17-.71-.46-1.55-.73-2.31-1.13A2.78,2.78,0,0,1,.73,35.9a2.73,2.73,0,0,1,1.81-2.47A6.14,6.14,0,0,1,7.79,33.79Z"/><path class="cls-1" d="M11.26,33.28v5.8l.21.06a8.36,8.36,0,0,0,.82-1.33c.57-1.47,1.68-1.6,3.21-1.28-.58.81-1.07,1.6-1.66,2.31a1.08,1.08,0,0,0-.05,1.5c.69,1,1.31,2.15,2,3.26-1.86.56-2.47.33-3.33-1.2-.31-.57-.63-1.14-.95-1.7l-.24,0c0,.77,0,1.55,0,2.32s-.57.75-1.08.73S9,44,9,43.06c0-2.93,0-5.85,0-8.78,0-.49.12-.78.67-.82S10.6,33.36,11.26,33.28Z"/><path class="cls-1" d="M33.42,27.56V19.88c1.17-.28,1.24-.23,1.24.83V29.2c0,.31,0,.62,0,.9A1.21,1.21,0,0,1,33,29.58c-1.51-2.16-3.05-4.3-4.58-6.45-.18-.25-.38-.49-.7-.91,0,.47-.08.73-.08,1,0,2.13,0,4.26,0,6.39a.81.81,0,0,1-.57.58c-.22,0-.63-.34-.63-.53,0-3.21,0-6.42,0-9.63,0-.06.06-.12.09-.19a1.1,1.1,0,0,1,1.5.54c1.52,2.19,3.09,4.36,4.64,6.53.17.25.37.49.55.73Z"/><path class="cls-1" d="M80.71,43.76h-1.2c0-1,0-2.09,0-3.13a20.86,20.86,0,0,0-.08-2.09,1.29,1.29,0,0,0-1.52-1.22c-1,.07-1.9.74-1.91,1.49,0,1.61,0,3.23,0,4.92h-1.2V39.08c0-.57,0-1.15,0-1.71,0-.31.19-.84.32-.85a4.33,4.33,0,0,1,1.27.38,3,3,0,0,1,3.79.09A18.12,18.12,0,0,1,83,36.35a2,2,0,0,1,2.25,2.07c.08,1.74,0,3.49,0,5.31H84.13c0-.85,0-1.7,0-2.55,0-.66,0-1.33,0-2s-.08-1.58-.91-1.7a5.64,5.64,0,0,0-2.25.4c-.15,0-.25.52-.25.8C80.7,40.36,80.71,42,80.71,43.76Z"/><path class="cls-1" d="M45.39,43.7c-1,.35-1.53,0-1.85-1-.64-2-.69-2-2.75-2s-2,0-2.67,2c-.29.84-.65,1.36-1.69,1,.09-.26.16-.53.26-.79q1.68-4.41,3.37-8.8c.16-.43.28-.8.88-.8s.73.35.89.79c1.11,3,2.24,5.94,3.36,8.91C45.27,43.23,45.32,43.47,45.39,43.7ZM41,35.34h-.21l-1.54,4.27h3.15a2.22,2.22,0,0,0-.06-.44C41.88,37.89,41.43,36.62,41,35.34Z"/><path class="cls-1" d="M28,41.85a22.74,22.74,0,0,0,2.49.45c.26,0,.55-.28.83-.44-.2-.24-.36-.57-.62-.71-.5-.27-1.07-.4-1.59-.63a2.19,2.19,0,0,1-1.39-2.18,1.87,1.87,0,0,1,1.6-1.88,9.13,9.13,0,0,1,3.34.14c1.16.28.06,1.06.29,1.73A11.93,11.93,0,0,0,31.14,38a3,3,0,0,0-1.06.39,3.57,3.57,0,0,0,.71.74c.46.26,1,.4,1.49.62a2,2,0,0,1,1.25,1.76,2.05,2.05,0,0,1-1,2,4.59,4.59,0,0,1-4.46-.06C27.85,43.33,28,42.43,28,41.85Z"/><path class="cls-1" d="M64.92,36.92c0-.89,0-1.68,0-2.47s.24-1.26,1.21-1V43.94l-1.3-.49.05-.25c-.24.14-.47.29-.72.41a2.86,2.86,0,0,1-4.25-1.76,6.63,6.63,0,0,1,0-3.16C60.41,36.46,62.35,35.81,64.92,36.92Zm0,3.26v-.85c0-1.23-.4-1.78-1.42-2a2,2,0,0,0-2.34,1.33,3.89,3.89,0,0,0,.11,3.22,1.77,1.77,0,0,0,2.21,1c1.25-.38,1.58-.82,1.45-1.86A6.15,6.15,0,0,1,64.92,40.18Z"/><path class="cls-1" d="M15,30.1c-1.19.22-1.21.2-1.21-.89,0-1.24,0-2.48,0-3.72s-.5-1.75-1.52-1.75c-1.32,0-2.15.71-2.15,1.81v4.53c-1.2.25-1.25.22-1.25-.85,0-2.8,0-5.59,0-8.38,0-.89.28-1.25,1.25-1v3.58a16.24,16.24,0,0,1,1.85-.63c1.9-.42,3.05.47,3.09,2.41,0,1.49,0,3,0,4.47A4,4,0,0,1,15,30.1Z"/><path class="cls-1" d="M74.34,30.43l-1.91-.82.07-.29c-.22.17-.42.35-.64.5a2.78,2.78,0,0,1-4.19-1.07,4.86,4.86,0,0,1,.07-4.32,2.94,2.94,0,0,1,4.44-1.16,4.32,4.32,0,0,1,1.3-.34c.13,0,.29.62.3,1,0,1.17,0,2.34,0,3.52,0,.76-.29,1.64.58,2.21C74.46,29.66,74.37,30,74.34,30.43Zm-1.81-3.84v-.85c0-1.18-.44-1.79-1.45-2A1.88,1.88,0,0,0,68.83,25a3.92,3.92,0,0,0,0,3.06,1.78,1.78,0,0,0,2.94.73A2.35,2.35,0,0,0,72.53,26.59Z"/><path class="cls-1" d="M56.75,36.84A4.68,4.68,0,0,1,58,36.52c.13,0,.3.54.31.84,0,1.39,0,2.79,0,4.19,0,.57-.19,1.22.55,1.56.09,0,0,.39.06.63-.84.15-1.54.17-1.79-.79-.09,0-.17,0-.21,0a2.89,2.89,0,0,1-3.22.79A3,3,0,0,1,51.88,41,7.11,7.11,0,0,1,52,38.86,3,3,0,0,1,56.75,36.84Zm.33,3.36v-.87c0-1.18-.44-1.78-1.45-2a1.88,1.88,0,0,0-2.2,1.23,4,4,0,0,0,0,3.24,1.75,1.75,0,0,0,2.76.73A2.28,2.28,0,0,0,57.08,40.2Z"/><path class="cls-1" d="M41.05,29.31c-.19.16-.38.33-.58.48a2.7,2.7,0,0,1-4.25-1.18,7.72,7.72,0,0,1-.2-3.35,3,3,0,0,1,4.75-2l1.57-.51c0,1.9,0,3.58,0,5.25,0,.54-.16,1.1.5,1.51.31.2.21.81-.38.71A7.51,7.51,0,0,1,41,29.58Zm0-3v-.57c0-1.16-.4-1.72-1.36-1.95A1.76,1.76,0,0,0,37.46,25a6.8,6.8,0,0,0,0,3.14c.36,1.34,1.81,1.58,2.91.69C41.22,28.12,41.09,27.19,41.08,26.28Z"/><path class="cls-1" d="M85.87,47l.07-.84a4.1,4.1,0,0,1,.57-.06,2.09,2.09,0,0,0,2-2.94c-.81-2.17-1.63-4.33-2.45-6.5,1.08-.43,1.3-.34,1.65.64l1.72,5c.18-.38.3-.57.37-.78.48-1.38,1-2.75,1.4-4.15.24-.84.66-1.1,1.54-.77-.09.29-.17.58-.28.87-1,2.58-1.91,5.18-2.93,7.75C88.85,46.91,87.68,47.46,85.87,47Z"/><path class="cls-1" d="M26.7,33.29v2.22c0,2.48,0,5,0,7.44,0,.89-.45.89-1.07.86s-1.22.19-1.2-.83c.05-2.89,0-5.78,0-8.68,0-.56.18-.83.73-.86S26.07,33.35,26.7,33.29Z"/><path class="cls-1" d="M22.86,33.34v1.09c0,2.82,0,5.64,0,8.46,0,.91-.41,1-1.09.93s-1.21,0-1.19-1c.07-2.66,0-5.32,0-8,0-1.43,0-1.43,1.46-1.54C22.3,33.33,22.52,33.34,22.86,33.34Z"/><path class="cls-1" d="M68.66,40.35a2.27,2.27,0,0,0,2.41,2.59c.38,0,.76-.11,1.14-.1s.93,0,1,.19c.26.68-.41.61-.78.75a2.78,2.78,0,0,1-.65.13c-1.53.2-3,.06-3.88-1.38a4.35,4.35,0,0,1,0-4.7,3.39,3.39,0,0,1,3.84-1.39,3,3,0,0,1,2,3.05c0,.63-.19.85-.81.83-1.11,0-2.22,0-3.33,0C69.27,40.31,69,40.34,68.66,40.35Zm0-.94h3.72c0-1.35-.56-2.1-1.64-2.13A2,2,0,0,0,68.71,39.41Z"/><path class="cls-1" d="M52,26.54c0-2.33,1.4-3.86,3.54-3.85s3.41,1.45,3.4,3.83-1.38,3.83-3.54,3.84S52,28.93,52,26.54Zm1.15-.07c.15,2,1,3.06,2.52,2.92,1.21-.11,2-1.17,2-2.8s-.74-2.9-2-2.88a2.65,2.65,0,0,0-1.78.78A6.1,6.1,0,0,0,53.11,26.47Z"/><path class="cls-1" d="M61.54,23.29a11.57,11.57,0,0,1,2-.57A2.17,2.17,0,0,1,66.16,25c.07,1.55,0,3.11,0,4.67a.8.8,0,0,1-.59.55.85.85,0,0,1-.59-.57c-.06-1.34,0-2.67,0-4,0-.76-.1-1.48-1-1.78a2.83,2.83,0,0,0-2.54.72,1.7,1.7,0,0,0-.18.9c0,1.55,0,3.1,0,4.66-.84.26-1.28.18-1.25-.79,0-1.88,0-3.75,0-5.63,0-.27.23-.75.4-.77S61.07,23.11,61.54,23.29Z"/><path class="cls-1" d="M22.45,26.69H17.5c-.09,2.25,1.15,2.89,4.36,2.38.45.56.31.95-.39,1a10.73,10.73,0,0,1-2.82.12c-2-.32-3-2.57-2.41-4.93a3.39,3.39,0,0,1,4.28-2.46C22,23.28,22.68,24.61,22.45,26.69Zm-4.9-.88h3.68a1.74,1.74,0,0,0-1.64-2.16A2,2,0,0,0,17.55,25.81Z"/><path class="cls-1" d="M8.07,19.73c.15.75-.06,1.09-.75,1a.34.34,0,0,0-.1,0c-2.42,0-2.42,0-2.42,2.44v5.92c0,.34,0,.67,0,1-1.3.19-1.31.19-1.31-.93v-8.4H0c.32-.51.48-1,.66-1C3.13,19.71,5.6,19.73,8.07,19.73Z"/><path class="cls-1" d="M44.42,22.79c.29-2.07.29-2.07,1.35-1.95v2c.58,0,1.08,0,1.56,0,.18,0,.33.27.49.41-.16.15-.3.41-.48.43a12.35,12.35,0,0,1-1.51,0c0,1.65-.07,3.23,0,4.8.06.89.84.86,1.55.82.27,0,.54.19.81.29-.22.2-.42.52-.68.59-1.95.49-2.93-.25-3-2.23,0-.7,0-1.4,0-2.1V23.86l-.91-.19C43.17,22.69,44.05,23,44.42,22.79Z"/><path class="cls-1" d="M51,37.65c-1.28-.46-2.55-.75-3.55.54a3.73,3.73,0,0,0,0,3.88c.65,1,1.57,1.16,3.67.63.38.47.33.78-.3,1a3.9,3.9,0,0,1-4.55-1.13,4.66,4.66,0,0,1,.39-5.25,4,4,0,0,1,4.25-.7c.23.13.29.56.43.84Z"/><path class="cls-1" d="M19,40.09c0,1,0,2,0,2.94s-.6.77-1.15.78-1.1.15-1.09-.74c0-2,0-3.93,0-5.89,0-1.13.81-.68,1.35-.77s.93.13.89.83C18.93,38.18,19,39.14,19,40.09Z"/><path class="cls-1" d="M76.89,19.82V21.9c0,2.51,0,5,0,7.54,0,.45,0,.8-.63.8s-.61-.39-.61-.83c0-2.89,0-5.79,0-8.68C75.61,19.79,76,19.65,76.89,19.82Z"/><path class="cls-1" d="M49.42,23c.82-.25,1.25-.17,1.23.74,0,1.9,0,3.8,0,5.7,0,.44,0,.81-.63.81s-.59-.42-.59-.84Z"/><path class="cls-1" d="M19.05,34.44a1.14,1.14,0,0,1-1.18,1.13,1.12,1.12,0,1,1,0-2.24A1.13,1.13,0,0,1,19.05,34.44Z"/><path class="cls-1" d="M50.86,21.23c-.29.16-.6.47-.85.43s-.49-.42-.73-.65c.25-.22.49-.59.77-.62s.55.31.82.48Z"/><g class="cls-2"><path class="cls-1" d="M41,35.34c.45,1.28.9,2.55,1.34,3.83a2.22,2.22,0,0,1,.06.44H39.23l1.54-4.27Z"/></g><g class="cls-2"><path class="cls-1" d="M64.92,40.18a6.15,6.15,0,0,0,0,.86c.13,1-.2,1.48-1.45,1.86a1.77,1.77,0,0,1-2.21-1,3.89,3.89,0,0,1-.11-3.22,2,2,0,0,1,2.34-1.33c1,.22,1.42.77,1.42,2Z"/></g><g class="cls-2"><path class="cls-1" d="M72.53,26.59a2.35,2.35,0,0,1-.76,2.24,1.78,1.78,0,0,1-2.94-.73,3.92,3.92,0,0,1,0-3.06,1.88,1.88,0,0,1,2.25-1.29c1,.2,1.45.81,1.45,2Z"/></g><g class="cls-2"><path class="cls-1" d="M57.08,40.2a2.28,2.28,0,0,1-.88,2.34,1.75,1.75,0,0,1-2.76-.73,4,4,0,0,1,0-3.24,1.88,1.88,0,0,1,2.2-1.23c1,.21,1.45.81,1.45,2Z"/></g><g class="cls-2"><path class="cls-1" d="M41.08,26.28c0,.91.14,1.84-.72,2.53-1.1.89-2.55.65-2.91-.69a6.8,6.8,0,0,1,0-3.14,1.76,1.76,0,0,1,2.26-1.22c1,.23,1.35.79,1.36,1.95Z"/></g><g class="cls-2"><path class="cls-1" d="M68.71,39.41a2,2,0,0,1,2.08-2.13c1.08,0,1.68.78,1.64,2.13Z"/></g><g class="cls-2"><path class="cls-1" d="M53.11,26.47a6.1,6.1,0,0,1,.76-2,2.65,2.65,0,0,1,1.78-.78c1.23,0,2,1.21,2,2.88s-.78,2.69-2,2.8C54.16,29.53,53.26,28.43,53.11,26.47Z"/></g><g class="cls-2"><path class="cls-1" d="M17.55,25.81a2,2,0,0,1,2-2.16,1.74,1.74,0,0,1,1.64,2.16Z"/></g></g></svg>