<svg xmlns="http://www.w3.org/2000/svg" viewBox="0 0 130.79 38.83"><defs><style>.cls-1{fill:#343633;}</style></defs><g id="Testimonials"><path class="cls-1" d="M23.58,1.34a86.31,86.31,0,0,0-9.16,1.72c-3.29,1-4.95,3.41-4.42,7C7.48,9.15,6.78,7,8.16,4.66,9.82,1.88,12.54.9,15.51.54A56,56,0,0,1,21.86.2c5.14,0,10.28,0,15.76,0a11.9,11.9,0,0,1-3,1.39A33,33,0,0,1,28.51,2c-1.48-.05-2.42.35-3,1.71q-3,7.24-5.94,14.5c-.72,1.77-1.23,3.65-2.11,5.34A5.67,5.67,0,0,1,12,26.74c2.25-5.64,4.4-11.38,6.84-17A89.49,89.49,0,0,1,23.58,1.34Z"/><ellipse class="cls-1" cx="65.4" cy="38.59" rx="92.48" ry="0.33"/><path class="cls-1" d="M94.64,13.18A13.09,13.09,0,0,1,92.22,15C92,15.12,90.93,14,91,13.74A4.63,4.63,0,0,1,92.7,11.9C92.92,11.77,93.68,12.53,94.64,13.18Z"/><path class="cls-1" d="M81.85,7.69a13.18,13.18,0,0,0-3.48,1.83A18.51,18.51,0,0,0,76,12c.17-1.25.25-1.94.36-2.64.23-1.43-.22-2-1.75-1.57a43.61,43.61,0,0,1-5,1.12c-1.25.19-1.52.75-1.85,2a45.66,45.66,0,0,1-3.17,8c-.39.78-1.75,1.08-2.66,1.6-.27-1-.55-2.06-.78-3.1a2.23,2.23,0,0,1,.15-.77c.75-3.61,2.8-6.39,5.9-8.84H59.1a7.25,7.25,0,0,1,5.69-6.24,6.6,6.6,0,0,1,4.09.66c.71.41.75,2,1.09,3.07,1-.53,2.26-1.5,1.67-2.92A4.37,4.37,0,0,0,68.9.28c-4.78-1.2-10.41,1.6-12.57,5.91a16.59,16.59,0,0,1-1.87,2.54,5.67,5.67,0,0,1,0,1.51c-.47,1.38-1,2.72-1.54,4.09-1.2,3.25-3.81,5-6.85,6.16-.66.25-2.08.06-2.29-.35a4,4,0,0,1,0-2.77c.18-.58,1-.95,1.58-1.41a43.47,43.47,0,0,0,5.21-4.51,3.93,3.93,0,0,0,.57-3.57C50.3,6.46,48.6,7,47.31,7.61a12.67,12.67,0,0,0-6.69,7.53c-.76,2.12-1.69,4.53.31,6.32s4.18.65,6.18-.25a49.94,49.94,0,0,0,4.32-2.52l-4.1,8.23c2.78.1,4.53-1.05,5.69-4.07,1.42-3.71,2.61-7.51,4-11.24,1.09-2.95,2-3.31,5.31-2.23a7.21,7.21,0,0,1-.78.84A10.25,10.25,0,0,0,57.7,16.1c-.73,2.61-.31,4.75,1.1,5.68s4.11.49,6-1.18A7.06,7.06,0,0,0,66.33,19c.94-1.59,1.81-3.22,2.63-4.88a32.45,32.45,0,0,1,1.52-3.45c.42-.65,1.34-1,2-1.44A6.51,6.51,0,0,1,73,11.67a19.76,19.76,0,0,1-1.35,3.72c-.88,2.1-1.81,4.18-2.73,6.31,2,.51,2.94-.1,3.86-1.85a77.55,77.55,0,0,1,5.64-8.6,12.22,12.22,0,0,1,2.14-1.9l.64.37c-.42,1.1-.81,2.21-1.27,3.3a65.27,65.27,0,0,0-2.74,6.55c-.6,2,.4,3.22,2.44,3.7.53-4.14.81-4.77,3-8.71a17.83,17.83,0,0,0,1.73-4.41C84.92,8,84,7,81.85,7.69Zm-33,1c.28,2.13-1,3.91-4.36,6.08A6.49,6.49,0,0,1,48.88,8.72Z"/><path class="cls-1" d="M114.68,5.7c-5.69-1-10.23,1.75-13.33,7.78a15.17,15.17,0,0,1-3.79,4.1,2.51,2.51,0,0,1-2.33.32,2.85,2.85,0,0,1-.66-2.3,12.79,12.79,0,0,1,4.11-8,7.9,7.9,0,0,1,2.54-1.09c.09.76.19,1.52.3,2.41,1.12-.2,2.34-.62,2-2a3,3,0,0,0-2.09-1.83,6.43,6.43,0,0,0-3.61.72,12.42,12.42,0,0,0-6.73,8.88c-.41,2.1-1.77,2.89-4,3.66C87.39,13.56,90,10,91.76,5.6c-1.47.48-3.18.53-3.58,1.27a58.48,58.48,0,0,0-4.41,9.92c-.85,2.72.87,4.07,3.6,3.14a22.85,22.85,0,0,0,3.54-1.86c.87.72,1.57,1.67,2.47,2,2.75.9,4.71-1.06,6.81-2.39.83,2.37,1.78,3.12,3.63,2.5a34.6,34.6,0,0,0,4.4-2.19c.19,1.86.3,3.75,2.9,3.9-.19-5.77,1.73-10.91,4.56-15.83C115.18,5.86,114.94,5.75,114.68,5.7ZM104,18.06c-.28-4.26,4-10.7,7.49-11.43C111.86,10.05,107.07,17.48,104,18.06Z"/><path class="cls-1" d="M43.59,2.79c-2-.35-3,.32-3.75,2-1.5,3.54-3.22,7-4.87,10.45a10.79,10.79,0,0,1-5.85,5.11A2.22,2.22,0,0,1,27,20,3,3,0,0,1,27,17.67c.23-.58,1.07-.91,1.62-1.38a47.39,47.39,0,0,0,5.29-4.69c.66-.75.41-2.29.58-3.47-1.24-.08-2.68-.62-3.69-.18a12.52,12.52,0,0,0-7.55,10.24c-.52,3.59,1.42,5.17,4.88,4a42.7,42.7,0,0,0,5-2.36c.4,1.75.44,3.82,3.14,4.38-.51-4.13,1.36-7.47,2.81-10.92S42,6.4,43.59,2.79ZM32.36,9.05c0,3.26-2.66,4.41-4.76,6.51C28.07,12,29.88,9.59,32.36,9.05Z"/></g></svg>