<svg xmlns="http://www.w3.org/2000/svg" viewBox="0 0 130.79 20"><defs><style>.cls-1{fill:#343633;}</style></defs><g id="Testimonials"><path class="cls-1" d="M130.08,18.26H2.13a3.84,3.84,0,0,0-.68,0,.61.61,0,0,0-.39.26C.71,19.41,1.1,20,2,20H129.25l.83,0Z"/><path class="cls-1" d="M98.61,7.6h.19c.59,1.58,1.19,3.16,1.77,4.74.7,1.89.69,1.88,2.67,1.83.45,0,.63-.18.71-.59Q105.12,7.29,106.33,1c.09-.49,0-.73-.54-.72-.81,0-1.62,0-2.42,0a.83.83,0,0,0-.56.49c-.29,1.35-.53,2.72-.79,4.08-.13.66-.27,1.32-.4,2-.91-2-1.64-4-2.41-5.95-.09-.24-.33-.58-.53-.6-.72-.07-1.45,0-2.2,0C95.6,5,94.73,9.51,93.86,14.14c.8,0,1.48,0,2.16,0,1.6,0,1.27.28,1.6-1.37S98.28,9.32,98.61,7.6Z"/><path class="cls-1" d="M27.35,7.58l.16,0c.61,1.62,1.24,3.24,1.85,4.87s.64,1.72,2.49,1.74c.58,0,.76-.2.85-.75.34-2,.74-3.92,1.11-5.87.42-2.18.85-4.36,1.24-6.55,0-.2-.2-.64-.32-.64-1-.06-2,0-3.1,0L30.32,7.11l-.23-.52C29.39,4.72,28.7,2.86,28,1c-.1-.26-.36-.63-.57-.66a19.9,19.9,0,0,0-2.19,0L22.61,14l.24.1H25c1.12,0,1.12,0,1.32-1.07Z"/><path class="cls-1" d="M4.15,9.27H4C4,9,4,8.71,4,8.44c0-2.45-.07-4.9-.1-7.35,0-.42,0-.87-.58-.89-1.07,0-2.15,0-3.3,0l.91,14c1.33,0,2.59,0,3.85,0a1.23,1.23,0,0,0,1.36-.92c.36-.94.73-1.88,1.1-2.81Q9.1,5.72,11,1c.29-.74.23-.83-.55-.84S8.81.22,8,.17A.92.92,0,0,0,6.9,1C6,3.73,5.07,6.5,4.15,9.27Z"/><path class="cls-1" d="M123.31,11.34c0-.34.07-.54.1-.73.35-1.93.35-1.93,2.3-1.93s2,0,2.44-2c.14-.71-.1-.84-.71-.82-1,0-2,0-3.09,0l.47-2.56a1.65,1.65,0,0,1,.23,0h3.11c2.24,0,2.23,0,2.61-2.21.08-.46,0-.68-.5-.68h-8.41c-.88,4.6-1.74,9.17-2.63,13.83h7.14c1.86,0,1.86,0,2.21-1.84.18-1,.18-1-.79-1Z"/><path class="cls-1" d="M52.05,11.35c0-.24,0-.36.05-.48.33-2.19.33-2.19,2.52-2.19,1.86,0,1.86,0,2.21-1.84.18-1,.18-1-.84-1h-2.9l.48-2.62H57.4c1.57,0,1.57,0,1.88-1.52a3.87,3.87,0,0,1,.13-.59c.22-.63,0-.8-.65-.79-2.55,0-5.1,0-7.65,0-.17,0-.34,0-.53.06C49.71,5,48.85,9.5,48,14.1h9l.53-2.75Z"/><path class="cls-1" d="M74.57.31C73.69,4.93,72.83,9.5,72,14.14h5.37c2.06,0,2,0,2.44-2,.14-.71-.11-.84-.72-.82-1,0-2,0-3,0,0-.36.08-.63.13-.89.59-3.15,1.17-6.3,1.78-9.44.08-.41,0-.64-.43-.64Z"/><path class="cls-1" d="M130.08,18.26V20l-.83,0H2c-.9,0-1.29-.59-.94-1.46a.61.61,0,0,1,.39-.26,3.84,3.84,0,0,1,.68,0h128Z"/><path class="cls-1" d="M87.69,14.14l1-5.46h-3c-.3,1.54-.62,3.07-.87,4.61-.1.64-.32.92-1,.87-.87-.07-1.76,0-2.71,0,.42-2.2.81-4.31,1.2-6.41.27-1.41.56-2.82.83-4.23A4.09,4.09,0,0,1,86.84.08a28.79,28.79,0,0,1,3.94,0,2.77,2.77,0,0,1,2.55,3.35C92.7,6.78,92,10.15,91.4,13.52c-.08.44-.24.65-.73.64C89.71,14.12,88.76,14.14,87.69,14.14ZM86.45,5.73h1.64c1.28,0,1.28,0,1.46-1.26,0,0,0-.1,0-.15A1.16,1.16,0,0,0,88.07,3C86.92,3.23,86.33,4.2,86.45,5.73Z"/><path class="cls-1" d="M16.54,14.14l1-5.5c-.92,0-1.79,0-2.66,0-.15,0-.36.31-.4.51-.29,1.41-.56,2.82-.79,4.24-.09.55-.29.78-.88.75-.9-.05-1.81,0-2.81,0,.24-1.32.45-2.55.69-3.78.43-2.28.89-4.55,1.32-6.83A4.09,4.09,0,0,1,16,.06a35.23,35.23,0,0,1,3.56,0,2.76,2.76,0,0,1,2.62,3.29c-.62,3.4-1.3,6.79-1.93,10.18-.09.5-.3.67-.8.65C18.5,14.12,17.59,14.14,16.54,14.14ZM15.27,5.73H16.8c1.69,0,1.29.3,1.61-1.43A1.13,1.13,0,0,0,17,3C15.82,3.18,15.27,4,15.27,5.73Z"/><path class="cls-1" d="M98.61,7.6c-.33,1.72-.65,3.45-1,5.17s0,1.34-1.6,1.37c-.68,0-1.36,0-2.16,0C94.73,9.51,95.6,5,96.48.31c.75,0,1.48,0,2.2,0,.2,0,.44.36.53.6.77,2,1.5,4,2.41,5.95.13-.67.27-1.33.4-2,.26-1.36.5-2.73.79-4.08a.83.83,0,0,1,.56-.49c.8,0,1.61,0,2.42,0,.54,0,.63.23.54.72Q105.12,7.29,104,13.57c-.08.41-.26.57-.71.59-2,.05-2,.06-2.67-1.83-.58-1.58-1.18-3.16-1.77-4.74Z"/><path class="cls-1" d="M27.35,7.58,26.3,13.07c-.2,1.07-.2,1.08-1.32,1.07H22.85l-.24-.1L25.21.31a19.9,19.9,0,0,1,2.19,0c.21,0,.47.4.57.66.73,1.86,1.42,3.72,2.12,5.59l.23.52L31.63.32c1.05,0,2.08,0,3.1,0,.12,0,.36.44.32.64-.39,2.19-.82,4.37-1.24,6.55-.37,2-.77,3.9-1.11,5.87-.09.55-.27.76-.85.75-1.85,0-1.84,0-2.49-1.74s-1.24-3.25-1.85-4.87Z"/><path class="cls-1" d="M35.43,14.14C36,11.3,36.49,8.54,37,5.77c.31-1.64.65-3.26.93-4.9C38,.42,38.2.3,38.63.3c2.07,0,4.14,0,6.21,0a2.72,2.72,0,0,1,2.6,3.14C47,6,46.55,8.47,46,11a3.89,3.89,0,0,1-3.88,3.18C39.93,14.16,37.71,14.14,35.43,14.14ZM41,3.2c-.51,2.71-1,5.38-1.54,8.14H40.5c1.5,0,2-.38,2.25-1.87.33-1.68.66-3.36,1-5.05a.91.91,0,0,0-.94-1.21C42.2,3.18,41.62,3.2,41,3.2Z"/><path class="cls-1" d="M106.69,14.14C107.57,9.5,108.44,5,109.32.35c.23,0,.45,0,.67,0,2,0,3.89,0,5.84,0a2.74,2.74,0,0,1,2.85,3.27c-.42,2.48-.89,5-1.39,7.43a4,4,0,0,1-3.8,3.12C111.25,14.16,109,14.14,106.69,14.14Zm4-2.84c.33,0,.55,0,.78,0,1.82,0,2.19-.28,2.54-2.05.25-1.26.48-2.52.72-3.78.43-2.24.26-2.44-2-2.29a.78.78,0,0,0-.56.48c-.3,1.35-.54,2.71-.8,4.07C111.18,8.93,111,10.08,110.74,11.3Z"/><path class="cls-1" d="M4.15,9.27C5.07,6.5,6,3.73,6.9,1A.92.92,0,0,1,8,.17c.8,0,1.61,0,2.42,0s.84.1.55.84Q9.11,5.73,7.22,10.43c-.37.93-.74,1.87-1.1,2.81a1.23,1.23,0,0,1-1.36.92c-1.26-.06-2.52,0-3.85,0L0,.19c1.15,0,2.23,0,3.3,0,.55,0,.57.47.58.89C3.91,3.54,4,6,4,8.44,4,8.71,4,9,4,9.26Z"/><path class="cls-1" d="M123.31,11.34h4.48c1,0,1,0,.79,1-.35,1.84-.35,1.84-2.21,1.84h-7.14c.89-4.66,1.75-9.23,2.63-13.83h8.41c.48,0,.58.22.5.68-.38,2.21-.37,2.21-2.61,2.21h-3.11a1.65,1.65,0,0,0-.23,0l-.47,2.56c1.08,0,2.09,0,3.09,0,.61,0,.85.11.71.82-.41,2-.38,2-2.44,2s-1.95,0-2.3,1.93C123.38,10.8,123.36,11,123.31,11.34Z"/><path class="cls-1" d="M52.05,11.35h5.44L57,14.1H48C48.85,9.5,49.71,5,50.58.37c.19,0,.36-.06.53-.06,2.55,0,5.1,0,7.65,0,.62,0,.87.16.65.79a3.87,3.87,0,0,0-.13.59C59,3.2,59,3.2,57.4,3.2H53.57l-.48,2.62H56c1,0,1,0,.84,1-.35,1.84-.35,1.84-2.21,1.84-2.19,0-2.19,0-2.52,2.19C52.08,11,52.08,11.11,52.05,11.35Z"/><path class="cls-1" d="M74.57.31h2.94c.47,0,.51.23.43.64-.61,3.14-1.19,6.29-1.78,9.44,0,.26-.08.53-.13.89,1.06,0,2,0,3,0,.61,0,.86.11.72.82-.41,2-.38,2-2.44,2H72C72.83,9.5,73.69,4.93,74.57.31Z"/><path class="cls-1" d="M62.69,14.11H59.22c.43-2.25.84-4.45,1.26-6.65s.83-4.26,1.22-6.39c.1-.56.3-.79.92-.78,1.89.05,3.79,0,5.69,0a2.74,2.74,0,0,1,2.91,3.4A4.58,4.58,0,0,1,69.4,7a1.81,1.81,0,0,1,.78,2.23c-.32,1.4-.56,2.82-.81,4.24-.09.52-.29.77-.88.74-.9-.06-1.81,0-2.82,0,.27-1.39.52-2.71.78-4,.19-1-.15-1.41-1.19-1.43-1.52,0-1.51,0-1.8,1.5C63.22,11.47,63,12.75,62.69,14.11Zm1.63-8.3a12,12,0,0,0,1.81,0,2,2,0,0,0,1-.56c.7-.77.49-1.9-.36-2a17,17,0,0,0-2,0Z"/></g></svg>