<svg xmlns="http://www.w3.org/2000/svg" viewBox="0 0 84.84 60.49"><defs><style>.cls-1,.cls-2{fill:#343633;}.cls-2{opacity:0.05;}</style></defs><g id="Testimonials"><path class="cls-1" d="M51,1.73h-.12A17,17,0,0,0,43.09,3.2a18.28,18.28,0,0,0-5.56,3.56,16.36,16.36,0,0,0-5,9.13A12.51,12.51,0,0,0,34.17,25a10.69,10.69,0,0,0,7,5A10.28,10.28,0,0,0,51.72,26a10.41,10.41,0,0,0,1.92-7.45A8.92,8.92,0,0,0,51.08,13,10.54,10.54,0,0,0,47.3,10.6c-.61-.23-1.24-.41-1.87-.61-.35-.1-.35-.09-.35-.46A7.47,7.47,0,0,1,46,6.09,8.08,8.08,0,0,1,51,2a1,1,0,0,1,.75.08,19.45,19.45,0,0,1,4.94,3.55,19.16,19.16,0,0,1,5.34,9.7,19.43,19.43,0,0,1-5.19,17.78A19.06,19.06,0,0,1,47,38.41,19.43,19.43,0,0,1,24.24,24.07,19.09,19.09,0,0,1,23.73,18,19.42,19.42,0,0,1,38.89.45,19.43,19.43,0,0,1,44.83.08,19.17,19.17,0,0,1,50.7,1.54l.28.14Z"/><path class="cls-1" d="M30.32,60.2l-.12-.72c-.06,0-.11,0-.14.08a3.72,3.72,0,0,1-4.42.37A4.28,4.28,0,0,1,24,58.18a6.88,6.88,0,0,1-.2-6.11,4.52,4.52,0,0,1,3.4-2.72,5.31,5.31,0,0,1,2.38.07l.51.12V45.46a19.15,19.15,0,0,1,2.74,0V60.17A14.42,14.42,0,0,1,30.32,60.2Zm-.23-8.29a2.94,2.94,0,0,0-1.27-.35,2.44,2.44,0,0,0-2.45,1.26,4.23,4.23,0,0,0-.3.69,4.48,4.48,0,0,0-.1,2.3,3.36,3.36,0,0,0,.55,1.39,2.16,2.16,0,0,0,3.3.31.75.75,0,0,0,.28-.63c0-1.55,0-3.1,0-4.65Z"/><path class="cls-1" d="M77.9,55.56a2.36,2.36,0,0,0,2,2.49,4.9,4.9,0,0,0,3.59-.72l.19-.13.73,2.22c-.2.12-.38.24-.57.33a7.7,7.7,0,0,1-5.13.51,4.42,4.42,0,0,1-3.17-3,6.91,6.91,0,0,1,.15-5.19,4.73,4.73,0,0,1,5-2.8,5.63,5.63,0,0,1,.91.18,4,4,0,0,1,2.54,2.21,7.2,7.2,0,0,1,.65,2.77c0,.35,0,.7,0,1.09-.38,0-.76,0-1.13,0H77.9Zm4.12-2a2,2,0,0,0-1.88-2.12A2.15,2.15,0,0,0,78,53.57Z"/><path class="cls-1" d="M40.59,53.27a2,2,0,0,0-.13-1,1.19,1.19,0,0,0-.78-.7,2.91,2.91,0,0,0-1.68,0,4.55,4.55,0,0,0-1.48.69l-.31.22-.92-1.95.15-.08a6.52,6.52,0,0,1,5.26-1,3.33,3.33,0,0,1,2.59,3,9.24,9.24,0,0,1,.06,1c0,2.1,0,4.2,0,6.3v.39a15.26,15.26,0,0,1-2.5,0l-.12-.72-.21.15a3.85,3.85,0,0,1-4.92-.07A3.2,3.2,0,0,1,34.53,57a3,3,0,0,1,1.55-2.62,6.3,6.3,0,0,1,2.4-.83c.57-.1,1.15-.14,1.73-.21Zm0,2a7.45,7.45,0,0,0-2.4.36,1.87,1.87,0,0,0-.48.27,1.38,1.38,0,0,0-.48,1.45,1.14,1.14,0,0,0,1,.82,2.76,2.76,0,0,0,2.2-.64.34.34,0,0,0,.12-.31V55.24Z"/><path class="cls-1" d="M66.36,49.52l.15.82.32-.22A4.83,4.83,0,0,1,71,49.45,3,3,0,0,1,72.87,51a4.82,4.82,0,0,1,.52,1.82c0,.41.06.83.07,1.24v6.1a17.82,17.82,0,0,1-2.75,0v-.37c0-1.84,0-3.68,0-5.52a5.75,5.75,0,0,0-.14-1.24,1.86,1.86,0,0,0-2.7-1.32,4,4,0,0,0-1.13.77.39.39,0,0,0-.12.32v7.38H63.89V49.52C64.71,49.51,65.52,49.52,66.36,49.52Z"/><path class="cls-1" d="M11.5,54.81a6.41,6.41,0,0,1,.71-2.91,4.68,4.68,0,0,1,4.07-2.64A4.86,4.86,0,0,1,20,50.44a5.08,5.08,0,0,1,1.52,2.41,6.47,6.47,0,0,1-.33,4.83,4.59,4.59,0,0,1-3.39,2.69A4.86,4.86,0,0,1,13,59a5.56,5.56,0,0,1-1.41-3C11.55,55.6,11.54,55.21,11.5,54.81Zm2.73,0a3.05,3.05,0,0,0,0,.43,3.76,3.76,0,0,0,.63,1.94,2.16,2.16,0,0,0,3.43.15,3,3,0,0,0,.55-1A5,5,0,0,0,19,53.92a3.24,3.24,0,0,0-.6-1.47,2.14,2.14,0,0,0-3.49,0,3.51,3.51,0,0,0-.48.92A3.91,3.91,0,0,0,14.23,54.83Z"/><path class="cls-1" d="M62.12,54.67a6.25,6.25,0,0,1-1.29,4,4.64,4.64,0,0,1-3.63,1.77A5.17,5.17,0,0,1,54.84,60a4.68,4.68,0,0,1-2.33-2.31,6.44,6.44,0,0,1,0-5.65,4.51,4.51,0,0,1,3.44-2.72,4.89,4.89,0,0,1,4.83,1.52A5.48,5.48,0,0,1,62,53.72C62.08,54.08,62.1,54.45,62.12,54.67Zm-2.68.16c0-.31,0-.63-.11-.94a3,3,0,0,0-.82-1.71,2.16,2.16,0,0,0-2.95-.1,2.67,2.67,0,0,0-.76,1.17,4.91,4.91,0,0,0-.16,2.52,3.32,3.32,0,0,0,.6,1.48,2.1,2.1,0,0,0,2.08.83A2.15,2.15,0,0,0,59,56.89,4.56,4.56,0,0,0,59.44,54.83Z"/><path class="cls-1" d="M51.24,51.74H49v8.47H46.26c0-.12,0-.25,0-.37v-8.1H44.83c0-.37,0-.73,0-1.09V49.53c.47,0,.92,0,1.42,0,0-.14,0-.26,0-.39a5.85,5.85,0,0,1,.14-1.56,3,3,0,0,1,2.67-2.39,6.24,6.24,0,0,1,2.88.29l.25.1-.31,2.24a9.32,9.32,0,0,0-1-.23,2.28,2.28,0,0,0-1.07,0,1.13,1.13,0,0,0-.85.94,2.62,2.62,0,0,0,0,1h2.22A9.61,9.61,0,0,1,51.24,51.74Z"/><path class="cls-1" d="M6.9,60.21l-.18,0H4.48L0,49.53H2.93l2.77,7h.06l2.69-7h2.79Z"/><path class="cls-2" d="M30.09,51.91v.32c0,1.55,0,3.1,0,4.65a.75.75,0,0,1-.28.63,2.16,2.16,0,0,1-3.3-.31A3.36,3.36,0,0,1,26,55.81a4.48,4.48,0,0,1,.1-2.3,4.23,4.23,0,0,1,.3-.69,2.44,2.44,0,0,1,2.45-1.26A2.94,2.94,0,0,1,30.09,51.91Z"/><path class="cls-2" d="M82,53.57H78a2.15,2.15,0,0,1,2.17-2.12A2,2,0,0,1,82,53.57Z"/><path class="cls-2" d="M40.62,55.24v1.95a.34.34,0,0,1-.12.31,2.76,2.76,0,0,1-2.2.64,1.14,1.14,0,0,1-1-.82,1.38,1.38,0,0,1,.48-1.45,1.87,1.87,0,0,1,.48-.27A7.45,7.45,0,0,1,40.62,55.24Z"/><path class="cls-2" d="M14.23,54.83a3.91,3.91,0,0,1,.21-1.48,3.51,3.51,0,0,1,.48-.92,2.14,2.14,0,0,1,3.49,0,3.24,3.24,0,0,1,.6,1.47,5,5,0,0,1-.16,2.43,3,3,0,0,1-.55,1,2.16,2.16,0,0,1-3.43-.15,3.76,3.76,0,0,1-.63-1.94A3.05,3.05,0,0,1,14.23,54.83Z"/><path class="cls-2" d="M59.44,54.83A4.56,4.56,0,0,1,59,56.89a2.15,2.15,0,0,1-1.63,1.19,2.1,2.1,0,0,1-2.08-.83,3.32,3.32,0,0,1-.6-1.48,4.91,4.91,0,0,1,.16-2.52,2.67,2.67,0,0,1,.76-1.17,2.16,2.16,0,0,1,2.95.1,3,3,0,0,1,.82,1.71C59.39,54.2,59.4,54.52,59.44,54.83Z"/></g></svg>