<svg xmlns="http://www.w3.org/2000/svg" viewBox="0 0 110.1 44.78"><defs><style>.cls-1{fill:#403d39;opacity:0.05;}.cls-2{fill:#343633;}.cls-2,.cls-3{fill-rule:evenodd;}.cls-3,.cls-4{fill:#ffc050;}</style></defs><g id="Testimonials"><path class="cls-1" d="M55.88,22.42c-.28.19-.48.41-.59.37s-.3-.3-.44-.46c.16-.12.31-.34.47-.34S55.62,22.21,55.88,22.42Z"/><path class="cls-2" d="M87.71,0H22.39A22.38,22.38,0,0,0,0,22.39H110.1A22.38,22.38,0,0,0,87.71,0Z"/><path class="cls-2" d="M92.59,11.92c0,1.69-.75,3.91-4.26,5a.62.62,0,0,1-.76-.33.55.55,0,0,1-.19-.9,2.08,2.08,0,0,0,.43-1c0-.33,0-.36-.37-.48a2.74,2.74,0,0,1-1.62-2.5,3.17,3.17,0,0,1,3.33-3.16,3,3,0,0,1,2.33,1.06A3.16,3.16,0,0,1,92.59,11.92Zm8,10.47a3.23,3.23,0,0,0-.59-.7,3.8,3.8,0,0,0-1.19-.88,4.46,4.46,0,0,0,3.59-3.61l.11-.68h-.36l0-.31h-.69c-3.42,0-5.07-.81-6.06-3l-.36-.78-.59.62a28.28,28.28,0,0,1-2.79,2.34,33.27,33.27,0,0,1-3.13,2.09l-.49.28.27.5a3.3,3.3,0,0,1,.38,1.24v2.88H87.28V16.82l-.14-.16c-.24-.29-.49-.55-.74-.8a13.31,13.31,0,0,0-5.18-3.26l-.37-.12-.25.29A36.39,36.39,0,0,1,76,17.18l-.22.17v5H74.29V17.51a4.57,4.57,0,0,0-1.56-3.39,6.69,6.69,0,0,0-2.08-1.5l-.37-.16L67.2,15.65a6.45,6.45,0,0,0-2.55-3l-.39-.23-3.58,3.71.49.4a3.31,3.31,0,0,1,1.21,2v3.81H60.79V17.51A5.21,5.21,0,0,0,59,13.77a6.56,6.56,0,0,0-1.36-1.12l-.39-.23L53.85,16a6.3,6.3,0,0,0-2.66-3.33l-.4-.23-3.51,3.64a13.48,13.48,0,0,0-5.37-3.46l-.37-.12-.25.29a35.92,35.92,0,0,1-4.61,4.41l-.23.17v5h-1.4V8.83A5.12,5.12,0,0,0,33.33,5a9.4,9.4,0,0,0-3.5-2.2l-.39-.15-4.1,5,.58.35c2,1.22,2.81,1.81,2.81,4.35V22.39h-4V8.83A5.12,5.12,0,0,0,23,5a9.35,9.35,0,0,0-3.49-2.2l-.4-.15L15,7.58l.57.35c2,1.22,2.81,1.81,2.81,4.35v.93A4.24,4.24,0,0,0,17,13a3.46,3.46,0,0,0-2.55,1.43,2.81,2.81,0,0,0-.59,2.47.59.59,0,0,0,.35.42.56.56,0,0,0,.95.14A2,2,0,0,1,16.55,17a2.51,2.51,0,0,1,1.48.58l.06.07A4.46,4.46,0,0,0,17,17.48a3.46,3.46,0,0,0-2.55,1.43,2.8,2.8,0,0,0-.59,2.46.59.59,0,0,0,.35.43.56.56,0,0,0,.95.13,2.06,2.06,0,0,1,1.39-.47,2.49,2.49,0,0,1,1.49.61,1.26,1.26,0,0,1,.21.32H0A22.38,22.38,0,0,0,22.39,44.78H87.71A22.38,22.38,0,0,0,110.1,22.39Zm-19.41-3.7v3.7h.74V19.52c-.17-.23-.35-.44-.52-.63Zm-39.3-.88v4.58h.73V18.64a5.57,5.57,0,0,0-.52-.64Zm54.08,2.83a5.91,5.91,0,0,1-1.83-.82v1.66A8.2,8.2,0,0,1,95.93,20.64ZM54.2,16.52a7.49,7.49,0,0,1,.13,1l0,4.88h1.1V18.58a3.31,3.31,0,0,0-1.21-2ZM48,22.39h1V18.58a2.92,2.92,0,0,0-1-1.82Zm20.94-3.28a.74.74,0,0,0-.09-.33.63.63,0,0,0-.33-.09.72.72,0,0,0-.7.53l0,3.17h1.14Z"/><path class="cls-3" d="M35.2,32.28a2,2,0,0,1-1.05-1.88V8.69c0-2.55-1.83-4.15-4.53-5.2l-3.4,4.12c2,1.23,3.09,2,3.09,4.84V23.94a2.5,2.5,0,0,1-.75,1.85,4.24,4.24,0,0,1-2.91,1.57c-1.1,0-1.85-.85-1.85-2.7v-16c0-2.55-1.83-4.15-4.53-5.2l-3.4,4.12c2,1.23,3.09,2,3.09,4.84v1.84a3.77,3.77,0,0,0-2-.55c-1.27,0-3,1.61-2.58,3.16a2.58,2.58,0,0,1,1.82-.66c1.21,0,2.72,1.09,2.72,2.31v.24a3.77,3.77,0,0,0-2-.55c-1.27,0-3,1.61-2.58,3.16a2.58,2.58,0,0,1,1.82-.66c1.21,0,2.72,1.09,2.72,2.3v3.34c0,4.18,2.29,5.59,4.84,6.11,0,0,1.28-2.06,5.51-4.72v4.59a2.35,2.35,0,0,0,1.32,2.09,2.32,2.32,0,0,1,1.27,1.68c0,.58-.48,1.06-1.44,1.06s-3.3-1.51-5.36-2.37a20.14,20.14,0,0,0-7.21-1.44S16.52,34.76,15.52,36a35,35,0,0,0-2.13,3,12.33,12.33,0,0,1,3.85-.65c4,0,5.84,2.57,10.51,2.57a8.66,8.66,0,0,0,6-2.54c2.09-1.78,3-3.47,3-4.39S36.23,32.9,35.2,32.28Z"/><path class="cls-3" d="M59.89,26.65l0-9.27c0-2.56-2.54-4-2.54-4l-2.82,2.91A3.93,3.93,0,0,1,56,18.75v7.9a1.31,1.31,0,1,1-2.6,0l0-9.27c0-2.56-2.54-4-2.54-4l-2.82,2.91a3.93,3.93,0,0,1,1.42,2.51v9.93c0,2.33,3.42,3.5,3.42,3.5a20.44,20.44,0,0,1,3.17-2.89c.49,1.6,2.7,2.89,2.7,2.89l2.89-2.92C60.3,28.26,59.89,27.32,59.89,26.65Z"/><path class="cls-3" d="M73.39,26.65l0-9.27c0-2.75-3-4-3-4L66.88,17a5.45,5.45,0,0,0-2.52-3.67l-2.82,2.91A3.93,3.93,0,0,1,63,18.75v9.93c0,1.87,2.8,3.5,2.8,3.5l2.88-2.92c-1.37-1-1.79-1.94-1.79-2.61l0-7.64a1.33,1.33,0,0,1,1.29-1,1.31,1.31,0,0,1,1.31,1.31v9.4c0,1.87,2.8,3.5,2.8,3.5l2.89-2.92C73.8,28.26,73.39,27.32,73.39,26.65Z"/><path class="cls-3" d="M94.89,13.63C96,16,97.77,17,101.48,17a3.89,3.89,0,0,1-3.84,3.19c-3.3,0-4.44-1.82-4.44-1.82V23a7.4,7.4,0,0,1,3.92-1.82c1.61,0,2.92,1.18,2.92,2.27V28.4a36.4,36.4,0,0,0-5.91,5.12S91.76,31,89.87,31a5.45,5.45,0,0,0-2.16.41s1.17-3.7,4.22-3.7a5.27,5.27,0,0,1,4.19,1.69V25.72c0-.56-.24-1-.68-1s-2.27,1.82-2.27,1.82c-1.34,0-3.88-1.08-3.88-2.78V19.68a4,4,0,0,0-.45-1.51A33,33,0,0,0,92,16,27.39,27.39,0,0,0,94.89,13.63Z"/><path class="cls-3" d="M87.85,16.21a2.77,2.77,0,0,0,.55-1.37.93.93,0,0,0-.76-1,2.2,2.2,0,0,1-1.23-2,2.61,2.61,0,0,1,2.74-2.58,2.55,2.55,0,0,1,2.54,2.51C91.69,13.67,90.7,15.35,87.85,16.21Z"/><path class="cls-3" d="M88.05,34.76c0,.44-.61,2-2.5,3.88-1.59,1.58-3.08,2.66-5,2.66-4.85,0-6.41-2.53-10-2.53a15.92,15.92,0,0,0-4.43.93,25.11,25.11,0,0,1,2-3c.9-1.09,2.06-2.24,2.06-2.24a20.56,20.56,0,0,1,6.9,1.62c1.87.78,3.8,1.72,4.67,1.72,1,0,2.37-1,2.37-1.65,0-.41-.13-.59-.79-1a1.5,1.5,0,0,1-.84-1.63v-4.3c-1.69,1.53-3.16,2.94-3.16,2.94a5.08,5.08,0,0,1-3-4.69V17.81A37.12,37.12,0,0,0,81,13.33a12.8,12.8,0,0,1,5.35,3.57V31.77a1.89,1.89,0,0,0,1,1.7A1.44,1.44,0,0,1,88.05,34.76ZM82.47,19.51a7.17,7.17,0,0,0-2.21-2.11V28.26l2.21-2.21Z"/><path class="cls-3" d="M41.21,32.18S37,31,37,27.49V17.81a37.12,37.12,0,0,0,4.7-4.48,12.8,12.8,0,0,1,5.34,3.57V27.18C44.87,28.78,41.21,32.18,41.21,32.18Zm2-13.55A7.26,7.26,0,0,0,41,16.52v9.22c0,2,2.22,2.22,2.22,2.22Z"/><path class="cls-4" d="M42.47,9c.54,0,.43-.21.43-.7V5.74c0-.49.11-.66-.43-.69V4.84h3.89L46.63,6l-.22.09a2.38,2.38,0,0,0-2-.89c-.57,0-.75.1-.75.56v1h.69c.63,0,1,0,1.11-.59h.26v1.5h-.26c-.07-.63-.48-.59-1.11-.59h-.69V8.33c0,.47.17.56.85.56a2.55,2.55,0,0,0,2.18-1.12l.2.08-.41,1.36h-4Z"/><path class="cls-4" d="M47.75,9.22l-.2-1.28.24,0a1.44,1.44,0,0,0,1.46,1c.51,0,.84-.2.84-.53S49.73,8,49,7.75c-.9-.26-1.31-.44-1.31-1s.5-1,1.24-1a2.26,2.26,0,0,1,1.08.31l.09-.21h.18l.18,1.06-.22,0A1.31,1.31,0,0,0,49,6.1c-.43,0-.69.14-.69.41s.27.39.82.55c.95.29,1.55.43,1.55,1.11s-.6,1.13-1.47,1.13a1.92,1.92,0,0,1-1.19-.4L48,9.22Z"/><path class="cls-4" d="M54.61,8.47a.4.4,0,1,1-.45.41A.43.43,0,0,1,54.61,8.47Z"/><path class="cls-4" d="M56.76,9c.56,0,.59-.11.59-.41V5.79c0-.37,0-.51-.46-.51H56.7v-.2a8.7,8.7,0,0,0,1.18-.25h.22V8.57c0,.27.06.4.61.4v.24h-2Z"/><path class="cls-4" d="M65.66,4.77A2.06,2.06,0,0,1,67.74,7a2.09,2.09,0,1,1-4.16,0A2.06,2.06,0,0,1,65.66,4.77Zm0,4.2c.77,0,1.23-.66,1.23-1.94s-.46-1.95-1.23-1.95-1.23.67-1.23,2S64.89,9,65.66,9Z"/><path class="cls-4" d="M70.1,6.27A1.64,1.64,0,0,1,71.93,7.7c0,1-.86,1.59-2.14,1.59-1,0-1.66-.47-1.66-.92A.41.41,0,0,1,68.57,8c.26,0,.42.13.42.33s-.07.23-.07.31c0,.23.34.42.85.42A1.18,1.18,0,0,0,71,7.77a1.13,1.13,0,0,0-1.23-1.13,1.29,1.29,0,0,0-1.07.58l-.31-.09c0-.42,0-.93,0-1.54V4.84h2.23c.3,0,.48,0,.64-.23h.26l-.15.81H68.9v.37c0,.26,0,.54,0,.86A2.21,2.21,0,0,1,70.1,6.27Z"/><path class="cls-4" d="M53.15,8.92a.92.92,0,0,1-.31.07c-.32,0-.48-.17-.48-.54V6.14h.79V5.87h-.8V5h-.28a.94.94,0,0,1-1,.92v.27h.57v2.4c0,.49.34.76.93.76a1.35,1.35,0,0,0,.53-.1Z"/><path class="cls-3" d="M59.41,6c0-.71.68-1.21,1.79-1.21s1.65.44,1.65,1-.35.76-1,.93c.86.25,1.25.58,1.25,1.13,0,.82-.8,1.43-2,1.43s-1.95-.56-1.95-1.24c0-.52.4-.9,1.19-1.12C59.7,6.74,59.41,6.45,59.41,6Zm2.93,2.15c0-.57-.47-.72-1.63-1a1,1,0,0,0-.86.94c0,.54.48.89,1.21.89S62.34,8.62,62.34,8.13ZM62.2,5.78c0-.43-.4-.72-1-.72s-1.08.3-1.08.7.33.58,1.31.79C62,6.39,62.2,6.16,62.2,5.78Z"/></g></svg>